<?xml version="1.0" encoding="utf-8" standalone="no"?>
<!DOCTYPE svg PUBLIC "-//W3C//DTD SVG 1.1//EN"
  "http://www.w3.org/Graphics/SVG/1.1/DTD/svg11.dtd">
<svg xmlns:xlink="http://www.w3.org/1999/xlink" width="233.316pt" height="248.4pt" viewBox="0 0 233.316 248.4" xmlns="http://www.w3.org/2000/svg" version="1.1">
 <metadata>
  <rdf:RDF xmlns:dc="http://purl.org/dc/elements/1.1/" xmlns:cc="http://creativecommons.org/ns#" xmlns:rdf="http://www.w3.org/1999/02/22-rdf-syntax-ns#">
   <cc:Work>
    <dc:type rdf:resource="http://purl.org/dc/dcmitype/StillImage"/>
    <dc:date>2026-02-23T16:40:13.556728</dc:date>
    <dc:format>image/svg+xml</dc:format>
    <dc:creator>
     <cc:Agent>
      <dc:title>Matplotlib v3.10.8, https://matplotlib.org/</dc:title>
     </cc:Agent>
    </dc:creator>
   </cc:Work>
  </rdf:RDF>
 </metadata>
 <defs>
  <style type="text/css">*{stroke-linejoin: round; stroke-linecap: butt}</style>
 </defs>
 <g id="figure_1">
  <g id="patch_1">
   <path d="M 0 248.4 
L 233.316 248.4 
L 233.316 0 
L 0 0 
L 0 248.4 
z
" style="fill: none"/>
  </g>
  <g id="axes_1">
   <g id="patch_2">
    <path d="M 42.828 76.68 
C 47.601656 76.68 52.180438 74.783406 55.555922 71.407922 
C 58.931406 68.032438 60.828 63.453656 60.828 58.68 
C 60.828 53.906344 58.931406 49.327562 55.555922 45.952078 
C 52.180438 42.576594 47.601656 40.68 42.828 40.68 
C 38.054344 40.68 33.475562 42.576594 30.100078 45.952078 
C 26.724594 49.327562 24.828 53.906344 24.828 58.68 
C 24.828 63.453656 26.724594 68.032438 30.100078 71.407922 
C 33.475562 74.783406 38.054344 76.68 42.828 76.68 
L 42.828 76.68 
z
" clip-path="url(#pc19c3140c3)" style="fill: none; stroke: #000000; stroke-width: 2; stroke-linejoin: miter"/>
   </g>
   <g id="patch_3">
    <path d="M 74.328 112.68 
C 73.237509 112.68 71.628 112.68 50.028 112.68 
" clip-path="url(#pc19c3140c3)" style="fill: none; stroke: #000000; stroke-width: 2; stroke-linejoin: miter; stroke-linecap: round"/>
   </g>
   <g id="patch_4">
    <path d="M 69.828 109.08 
L 78.828 112.68 
L 69.828 116.28 
z
" clip-path="url(#pc19c3140c3)"/>
   </g>
   <g id="patch_5">
    <path d="M 191.328 112.68 
C 192.418491 112.68 194.028 112.68 215.628 112.68 
" clip-path="url(#pc19c3140c3)" style="fill: none; stroke: #000000; stroke-width: 2; stroke-linejoin: miter; stroke-linecap: round"/>
   </g>
   <g id="patch_6">
    <path d="M 195.828 116.28 
L 186.828 112.68 
L 195.828 109.08 
z
" clip-path="url(#pc19c3140c3)"/>
   </g>
   <g id="line2d_1">
    <path d="M 42.828 112.68 
L 42.828 76.68 
L 42.828 76.68 
M 42.828 40.68 
L 42.828 40.68 
L 42.828 4.68 
" clip-path="url(#pc19c3140c3)" style="fill: none; stroke: #000000; stroke-width: 2; stroke-linecap: round"/>
   </g>
   <g id="line2d_2">
    <path d="M 46.428 67.68 
L 39.228 67.68 
" clip-path="url(#pc19c3140c3)" style="fill: none; stroke: #000000; stroke-width: 2; stroke-linecap: round"/>
   </g>
   <g id="line2d_3">
    <path d="M 42.828 53.28 
L 42.828 46.08 
" clip-path="url(#pc19c3140c3)" style="fill: none; stroke: #000000; stroke-width: 2; stroke-linecap: round"/>
   </g>
   <g id="line2d_4">
    <path d="M 46.428 49.68 
L 39.228 49.68 
" clip-path="url(#pc19c3140c3)" style="fill: none; stroke: #000000; stroke-width: 2; stroke-linecap: round"/>
   </g>
   <g id="line2d_5">
    <path d="M 42.828 4.68 
L 60.828 4.68 
L 78.828 4.68 
" clip-path="url(#pc19c3140c3)" style="fill: none; stroke: #000000; stroke-width: 2; stroke-linecap: round"/>
   </g>
   <g id="line2d_6">
    <path d="M 78.828 4.68 
L 78.828 40.68 
L 87.828 43.68 
L 69.828 49.68 
L 87.828 55.68 
L 69.828 61.68 
L 87.828 67.68 
L 69.828 73.68 
L 78.828 76.68 
L 78.828 112.68 
" clip-path="url(#pc19c3140c3)" style="fill: none; stroke: #000000; stroke-width: 2; stroke-linecap: round"/>
   </g>
   <g id="line2d_7">
    <path d="M 78.828 4.68 
L 132.828 4.68 
L 186.828 4.68 
" clip-path="url(#pc19c3140c3)" style="fill: none; stroke: #000000; stroke-width: 2; stroke-linecap: round"/>
   </g>
   <g id="line2d_8">
    <path d="M 186.828 4.68 
L 186.828 40.68 
L 195.828 43.68 
L 177.828 49.68 
L 195.828 55.68 
L 177.828 61.68 
L 195.828 67.68 
L 177.828 73.68 
L 186.828 76.68 
L 186.828 112.68 
" clip-path="url(#pc19c3140c3)" style="fill: none; stroke: #000000; stroke-width: 2; stroke-linecap: round"/>
   </g>
   <g id="line2d_9">
    <path d="M 78.828 112.68 
L 114.828 112.68 
L 117.828 103.68 
L 123.828 121.68 
L 129.828 103.68 
L 135.828 121.68 
L 141.828 103.68 
L 147.828 121.68 
L 150.828 112.68 
L 186.828 112.68 
" clip-path="url(#pc19c3140c3)" style="fill: none; stroke: #000000; stroke-width: 2; stroke-linecap: round"/>
   </g>
   <g id="line2d_10">
    <path d="M 78.828 112.68 
L 78.828 148.68 
L 87.828 151.68 
L 69.828 157.68 
L 87.828 163.68 
L 69.828 169.68 
L 87.828 175.68 
L 69.828 181.68 
L 78.828 184.68 
L 78.828 220.68 
" clip-path="url(#pc19c3140c3)" style="fill: none; stroke: #000000; stroke-width: 2; stroke-linecap: round"/>
   </g>
   <g id="line2d_11">
    <path d="M 186.828 112.68 
L 186.828 148.68 
L 195.828 151.68 
L 177.828 157.68 
L 195.828 163.68 
L 177.828 169.68 
L 195.828 175.68 
L 177.828 181.68 
L 186.828 184.68 
L 186.828 220.68 
" clip-path="url(#pc19c3140c3)" style="fill: none; stroke: #000000; stroke-width: 2; stroke-linecap: round"/>
   </g>
   <g id="line2d_12">
    <path d="M 186.828 220.68 
L 132.828 220.68 
L 78.828 220.68 
" clip-path="url(#pc19c3140c3)" style="fill: none; stroke: #000000; stroke-width: 2; stroke-linecap: round"/>
   </g>
   <g id="line2d_13">
    <path d="M 132.828 220.68 
L 132.828 235.08 
L 123.828 235.08 
L 141.828 235.08 
M 126.528 239.4 
L 139.128 239.4 
M 131.028 243.72 
L 134.628 243.72 
" clip-path="url(#pc19c3140c3)" style="fill: none; stroke: #000000; stroke-width: 2; stroke-linecap: round"/>
   </g>
   <g id="line2d_14">
    <path d="M 78.828 220.68 
L 60.828 220.68 
L 42.828 220.68 
" clip-path="url(#pc19c3140c3)" style="fill: none; stroke: #000000; stroke-width: 2; stroke-linecap: round"/>
   </g>
   <g id="line2d_15">
    <path d="M 42.828 220.68 
L 42.828 166.68 
L 42.828 112.68 
" clip-path="url(#pc19c3140c3)" style="fill: none; stroke: #000000; stroke-width: 2; stroke-linecap: round"/>
   </g>
   <g id="text_1">
    <!-- Vs -->
    <g transform="translate(4.358 62.543125) scale(0.14 -0.14)">
     <defs>
      <path id="DejaVuSans-56" d="M 1831 0 
L 50 4666 
L 709 4666 
L 2188 738 
L 3669 4666 
L 4325 4666 
L 2547 0 
L 1831 0 
z
" transform="scale(0.015625)"/>
      <path id="DejaVuSans-73" d="M 2834 3397 
L 2834 2853 
Q 2591 2978 2328 3040 
Q 2066 3103 1784 3103 
Q 1356 3103 1142 2972 
Q 928 2841 928 2578 
Q 928 2378 1081 2264 
Q 1234 2150 1697 2047 
L 1894 2003 
Q 2506 1872 2764 1633 
Q 3022 1394 3022 966 
Q 3022 478 2636 193 
Q 2250 -91 1575 -91 
Q 1294 -91 989 -36 
Q 684 19 347 128 
L 347 722 
Q 666 556 975 473 
Q 1284 391 1588 391 
Q 1994 391 2212 530 
Q 2431 669 2431 922 
Q 2431 1156 2273 1281 
Q 2116 1406 1581 1522 
L 1381 1569 
Q 847 1681 609 1914 
Q 372 2147 372 2553 
Q 372 3047 722 3315 
Q 1072 3584 1716 3584 
Q 2034 3584 2315 3537 
Q 2597 3491 2834 3397 
z
" transform="scale(0.015625)"/>
     </defs>
     <use xlink:href="#DejaVuSans-56"/>
     <use xlink:href="#DejaVuSans-73" transform="translate(68.408203 0)"/>
    </g>
   </g>
   <g id="text_2">
    <!-- R₁ -->
    <g transform="translate(50.887062 62.543125) scale(0.14 -0.14)">
     <defs>
      <path id="DejaVuSans-52" d="M 2841 2188 
Q 3044 2119 3236 1894 
Q 3428 1669 3622 1275 
L 4263 0 
L 3584 0 
L 2988 1197 
Q 2756 1666 2539 1819 
Q 2322 1972 1947 1972 
L 1259 1972 
L 1259 0 
L 628 0 
L 628 4666 
L 2053 4666 
Q 2853 4666 3247 4331 
Q 3641 3997 3641 3322 
Q 3641 2881 3436 2590 
Q 3231 2300 2841 2188 
z
M 1259 4147 
L 1259 2491 
L 2053 2491 
Q 2509 2491 2742 2702 
Q 2975 2913 2975 3322 
Q 2975 3731 2742 3939 
Q 2509 4147 2053 4147 
L 1259 4147 
z
" transform="scale(0.015625)"/>
      <path id="DejaVuSans-2081" d="M 488 319 
L 1125 319 
L 1125 2229 
L 428 2101 
L 428 2463 
L 1147 2585 
L 1575 2585 
L 1575 319 
L 2216 319 
L 2216 -24 
L 488 -24 
L 488 319 
z
" transform="scale(0.015625)"/>
     </defs>
     <use xlink:href="#DejaVuSans-52"/>
     <use xlink:href="#DejaVuSans-2081" transform="translate(69.482422 0)"/>
    </g>
   </g>
   <g id="text_3">
    <!-- B -->
    <g style="fill: #ff0000" transform="translate(36.822687 116.543125) scale(0.14 -0.14)">
     <defs>
      <path id="DejaVuSans-42" d="M 1259 2228 
L 1259 519 
L 2272 519 
Q 2781 519 3026 730 
Q 3272 941 3272 1375 
Q 3272 1813 3026 2020 
Q 2781 2228 2272 2228 
L 1259 2228 
z
M 1259 4147 
L 1259 2741 
L 2194 2741 
Q 2656 2741 2882 2914 
Q 3109 3088 3109 3444 
Q 3109 3797 2882 3972 
Q 2656 4147 2194 4147 
L 1259 4147 
z
M 628 4666 
L 2241 4666 
Q 2963 4666 3353 4366 
Q 3744 4066 3744 3513 
Q 3744 3084 3544 2831 
Q 3344 2578 2956 2516 
Q 3422 2416 3680 2098 
Q 3938 1781 3938 1306 
Q 3938 681 3513 340 
Q 3088 0 2303 0 
L 628 0 
L 628 4666 
z
" transform="scale(0.015625)"/>
     </defs>
     <use xlink:href="#DejaVuSans-42"/>
    </g>
   </g>
   <g id="text_4">
    <!-- R₂ -->
    <g transform="translate(158.887062 62.543125) scale(0.14 -0.14)">
     <defs>
      <path id="DejaVuSans-2082" d="M 838 332 
L 2163 332 
L 2163 -24 
L 294 -24 
L 294 319 
Q 400 416 597 591 
Q 1672 1544 1672 1838 
Q 1672 2044 1509 2170 
Q 1347 2297 1081 2297 
Q 919 2297 728 2242 
Q 538 2188 313 2079 
L 313 2463 
Q 553 2551 761 2594 
Q 969 2638 1147 2638 
Q 1600 2638 1872 2432 
Q 2144 2226 2144 1888 
Q 2144 1454 1109 566 
Q 934 416 838 332 
z
" transform="scale(0.015625)"/>
     </defs>
     <use xlink:href="#DejaVuSans-52"/>
     <use xlink:href="#DejaVuSans-2082" transform="translate(69.482422 0)"/>
    </g>
   </g>
   <g id="text_5">
    <!-- C -->
    <g style="fill: #ff0000" transform="translate(219.228 116.543125) scale(0.14 -0.14)">
     <defs>
      <path id="DejaVuSans-43" d="M 4122 4306 
L 4122 3641 
Q 3803 3938 3442 4084 
Q 3081 4231 2675 4231 
Q 1875 4231 1450 3742 
Q 1025 3253 1025 2328 
Q 1025 1406 1450 917 
Q 1875 428 2675 428 
Q 3081 428 3442 575 
Q 3803 722 4122 1019 
L 4122 359 
Q 3791 134 3420 21 
Q 3050 -91 2638 -91 
Q 1578 -91 968 557 
Q 359 1206 359 2328 
Q 359 3453 968 4101 
Q 1578 4750 2638 4750 
Q 3056 4750 3426 4639 
Q 3797 4528 4122 4306 
z
" transform="scale(0.015625)"/>
     </defs>
     <use xlink:href="#DejaVuSans-43"/>
    </g>
   </g>
   <g id="text_6">
    <!-- R₅ -->
    <g transform="translate(125.157531 97.168437) scale(0.14 -0.14)">
     <defs>
      <path id="DejaVuSans-2085" d="M 444 2585 
L 2038 2585 
L 2038 2288 
L 816 2288 
L 816 1651 
Q 903 1679 994 1691 
Q 1081 1704 1169 1704 
Q 1672 1704 1966 1463 
Q 2259 1226 2259 816 
Q 2259 394 1956 160 
Q 1656 -71 1106 -71 
Q 919 -71 722 -43 
Q 525 -15 319 41 
L 319 394 
Q 497 310 691 266 
Q 884 226 1100 226 
Q 1447 226 1650 385 
Q 1853 544 1853 816 
Q 1853 1088 1650 1247 
Q 1447 1407 1100 1407 
Q 938 1407 775 1375 
Q 613 1344 444 1279 
L 444 2585 
z
" transform="scale(0.015625)"/>
     </defs>
     <use xlink:href="#DejaVuSans-52"/>
     <use xlink:href="#DejaVuSans-2085" transform="translate(69.482422 0)"/>
    </g>
   </g>
   <g id="text_7">
    <!-- R₃ -->
    <g transform="translate(50.887062 170.543125) scale(0.14 -0.14)">
     <defs>
      <path id="DejaVuSans-2083" d="M 1638 1388 
Q 1925 1332 2083 1161 
Q 2241 991 2241 735 
Q 2241 347 1944 138 
Q 1647 -71 1094 -71 
Q 916 -71 720 -38 
Q 525 -6 306 57 
L 306 435 
Q 469 351 655 310 
Q 841 269 1050 269 
Q 1391 269 1578 392 
Q 1766 516 1766 735 
Q 1766 966 1592 1085 
Q 1419 1204 1081 1204 
L 813 1204 
L 813 1541 
L 1106 1541 
Q 1400 1541 1551 1639 
Q 1703 1738 1703 1926 
Q 1703 2107 1547 2202 
Q 1391 2297 1094 2297 
Q 969 2297 809 2269 
Q 650 2241 397 2169 
L 397 2529 
Q 625 2582 825 2610 
Q 1025 2638 1197 2638 
Q 1647 2638 1911 2453 
Q 2175 2269 2175 1960 
Q 2175 1744 2034 1594 
Q 1894 1444 1638 1388 
z
" transform="scale(0.015625)"/>
     </defs>
     <use xlink:href="#DejaVuSans-52"/>
     <use xlink:href="#DejaVuSans-2083" transform="translate(69.482422 0)"/>
    </g>
   </g>
   <g id="text_8">
    <!-- R₄ -->
    <g transform="translate(158.887062 170.543125) scale(0.14 -0.14)">
     <defs>
      <path id="DejaVuSans-2084" d="M 1491 2207 
L 525 897 
L 1491 897 
L 1491 2207 
z
M 1422 2585 
L 1941 2585 
L 1941 897 
L 2363 897 
L 2363 557 
L 1941 557 
L 1941 -24 
L 1491 -24 
L 1491 557 
L 197 557 
L 197 935 
L 1422 2585 
z
" transform="scale(0.015625)"/>
     </defs>
     <use xlink:href="#DejaVuSans-52"/>
     <use xlink:href="#DejaVuSans-2084" transform="translate(69.482422 0)"/>
    </g>
   </g>
   <g id="patch_7">
    <path d="M 78.828 115.38 
C 79.544048 115.38 80.230866 115.095511 80.737188 114.589188 
C 81.243511 114.082866 81.528 113.396048 81.528 112.68 
C 81.528 111.963952 81.243511 111.277134 80.737188 110.770812 
C 80.230866 110.264489 79.544048 109.98 78.828 109.98 
C 78.111952 109.98 77.425134 110.264489 76.918812 110.770812 
C 76.412489 111.277134 76.128 111.963952 76.128 112.68 
C 76.128 113.396048 76.412489 114.082866 76.918812 114.589188 
C 77.425134 115.095511 78.111952 115.38 78.828 115.38 
z
" clip-path="url(#pc19c3140c3)" style="stroke: #000000; stroke-width: 2; stroke-linejoin: miter"/>
   </g>
   <g id="patch_8">
    <path d="M 186.828 115.38 
C 187.544048 115.38 188.230866 115.095511 188.737188 114.589188 
C 189.243511 114.082866 189.528 113.396048 189.528 112.68 
C 189.528 111.963952 189.243511 111.277134 188.737188 110.770812 
C 188.230866 110.264489 187.544048 109.98 186.828 109.98 
C 186.111952 109.98 185.425134 110.264489 184.918812 110.770812 
C 184.412489 111.277134 184.128 111.963952 184.128 112.68 
C 184.128 113.396048 184.412489 114.082866 184.918812 114.589188 
C 185.425134 115.095511 186.111952 115.38 186.828 115.38 
z
" clip-path="url(#pc19c3140c3)" style="stroke: #000000; stroke-width: 2; stroke-linejoin: miter"/>
   </g>
  </g>
 </g>
 <defs>
  <clipPath id="pc19c3140c3">
   <rect x="0" y="-0" width="233.316" height="248.4"/>
  </clipPath>
 </defs>
</svg>
