<?xml version="1.0" encoding="utf-8" standalone="no"?>
<!DOCTYPE svg PUBLIC "-//W3C//DTD SVG 1.1//EN"
  "http://www.w3.org/Graphics/SVG/1.1/DTD/svg11.dtd">
<svg xmlns:xlink="http://www.w3.org/1999/xlink" width="372.504pt" height="181.36pt" viewBox="0 0 372.504 181.36" xmlns="http://www.w3.org/2000/svg" version="1.1">
 <metadata>
  <rdf:RDF xmlns:dc="http://purl.org/dc/elements/1.1/" xmlns:cc="http://creativecommons.org/ns#" xmlns:rdf="http://www.w3.org/1999/02/22-rdf-syntax-ns#">
   <cc:Work>
    <dc:type rdf:resource="http://purl.org/dc/dcmitype/StillImage"/>
    <dc:date>2026-03-06T09:07:35.344408</dc:date>
    <dc:format>image/svg+xml</dc:format>
    <dc:creator>
     <cc:Agent>
      <dc:title>Matplotlib v3.10.8, https://matplotlib.org/</dc:title>
     </cc:Agent>
    </dc:creator>
   </cc:Work>
  </rdf:RDF>
 </metadata>
 <defs>
  <style type="text/css">*{stroke-linejoin: round; stroke-linecap: butt}</style>
 </defs>
 <g id="figure_1">
  <g id="patch_1">
   <path d="M 0 181.36 
L 372.504 181.36 
L 372.504 0 
L 0 0 
L 0 181.36 
z
" style="fill: none"/>
  </g>
  <g id="axes_1">
   <g id="patch_2">
    <path d="M 34.554 126.68 
C 39.327656 126.68 43.906438 124.783406 47.281922 121.407922 
C 50.657406 118.032438 52.554 113.453656 52.554 108.68 
C 52.554 103.906344 50.657406 99.327562 47.281922 95.952078 
C 43.906438 92.576594 39.327656 90.68 34.554 90.68 
C 29.780344 90.68 25.201562 92.576594 21.826078 95.952078 
C 18.450594 99.327562 16.554 103.906344 16.554 108.68 
C 16.554 113.453656 18.450594 118.032438 21.826078 121.407922 
C 25.201562 124.783406 29.780344 126.68 34.554 126.68 
L 34.554 126.68 
z
" clip-path="url(#p82e5b12881)" style="fill: none; stroke: #000000; stroke-width: 2; stroke-linejoin: miter"/>
   </g>
   <g id="patch_3">
    <path d="M 161.718686 50.333334 
C 164.048057 41.640001 165.054 36.68 178.554 36.68 
" clip-path="url(#p82e5b12881)" style="fill: none; stroke: #000000; stroke-width: 2; stroke-linejoin: miter; stroke-linecap: round"/>
   </g>
   <g id="patch_4">
    <path d="M 166.360704 46.918416 
L 160.554 54.68 
L 159.406038 45.054919 
z
" clip-path="url(#p82e5b12881)"/>
   </g>
   <g id="patch_5">
    <path d="M 287.718686 32.333334 
C 290.048057 23.640001 291.054 18.68 304.554 18.68 
" clip-path="url(#p82e5b12881)" style="fill: none; stroke: #000000; stroke-width: 2; stroke-linejoin: miter; stroke-linecap: round"/>
   </g>
   <g id="patch_6">
    <path d="M 292.360704 28.918416 
L 286.554 36.68 
L 285.406038 27.054919 
z
" clip-path="url(#p82e5b12881)"/>
   </g>
   <g id="patch_7">
    <path d="M 340.554 90.68 
C 345.327656 90.68 349.906438 88.783406 353.281922 85.407922 
C 356.657406 82.032438 358.554 77.453656 358.554 72.68 
C 358.554 67.906344 356.657406 63.327562 353.281922 59.952078 
C 349.906438 56.576594 345.327656 54.68 340.554 54.68 
C 335.780344 54.68 331.201562 56.576594 327.826078 59.952078 
C 324.450594 63.327562 322.554 67.906344 322.554 72.68 
C 322.554 77.453656 324.450594 82.032438 327.826078 85.407922 
C 331.201562 88.783406 335.780344 90.68 340.554 90.68 
L 340.554 90.68 
z
" clip-path="url(#p82e5b12881)" style="fill: none; stroke: #000000; stroke-width: 2; stroke-linejoin: miter"/>
   </g>
   <g id="line2d_1">
    <path d="M 34.554 162.68 
L 34.554 126.68 
L 34.554 126.68 
M 34.554 90.68 
L 34.554 90.68 
L 34.554 54.68 
" clip-path="url(#p82e5b12881)" style="fill: none; stroke: #000000; stroke-width: 2; stroke-linecap: round"/>
   </g>
   <g id="line2d_2">
    <path d="M 38.154 117.68 
L 30.954 117.68 
" clip-path="url(#p82e5b12881)" style="fill: none; stroke: #000000; stroke-width: 2; stroke-linecap: round"/>
   </g>
   <g id="line2d_3">
    <path d="M 34.554 103.28 
L 34.554 96.08 
" clip-path="url(#p82e5b12881)" style="fill: none; stroke: #000000; stroke-width: 2; stroke-linecap: round"/>
   </g>
   <g id="line2d_4">
    <path d="M 38.154 99.68 
L 30.954 99.68 
" clip-path="url(#p82e5b12881)" style="fill: none; stroke: #000000; stroke-width: 2; stroke-linecap: round"/>
   </g>
   <g id="line2d_5">
    <path d="M 34.554 54.68 
L 43.554 54.68 
L 52.554 54.68 
" clip-path="url(#p82e5b12881)" style="fill: none; stroke: #000000; stroke-width: 2; stroke-linecap: round"/>
   </g>
   <g id="line2d_6">
    <path d="M 52.554 54.68 
L 88.554 54.68 
L 91.554 45.68 
L 97.554 63.68 
L 103.554 45.68 
L 109.554 63.68 
L 115.554 45.68 
L 121.554 63.68 
L 124.554 54.68 
L 160.554 54.68 
" clip-path="url(#p82e5b12881)" style="fill: none; stroke: #000000; stroke-width: 2; stroke-linecap: round"/>
   </g>
   <g id="line2d_7">
    <path d="M 178.554 36.68 
L 178.554 72.68 
L 187.554 75.68 
L 169.554 81.68 
L 187.554 87.68 
L 169.554 93.68 
L 187.554 99.68 
L 169.554 105.68 
L 178.554 108.68 
L 178.554 144.68 
" clip-path="url(#p82e5b12881)" style="fill: none; stroke: #000000; stroke-width: 2; stroke-linecap: round"/>
   </g>
   <g id="line2d_8">
    <path d="M 178.554 144.68 
L 178.554 153.68 
L 178.554 162.68 
" clip-path="url(#p82e5b12881)" style="fill: none; stroke: #000000; stroke-width: 2; stroke-linecap: round"/>
   </g>
   <g id="line2d_9">
    <path d="M 178.554 36.68 
L 214.554 36.68 
L 217.554 27.68 
L 223.554 45.68 
L 229.554 27.68 
L 235.554 45.68 
L 241.554 27.68 
L 247.554 45.68 
L 250.554 36.68 
L 286.554 36.68 
" clip-path="url(#p82e5b12881)" style="fill: none; stroke: #000000; stroke-width: 2; stroke-linecap: round"/>
   </g>
   <g id="line2d_10">
    <path d="M 304.554 18.68 
L 322.554 18.68 
L 340.554 18.68 
" clip-path="url(#p82e5b12881)" style="fill: none; stroke: #000000; stroke-width: 2; stroke-linecap: round"/>
   </g>
   <g id="line2d_11">
    <path d="M 340.554 18.68 
L 340.554 54.68 
L 340.554 54.68 
M 340.554 90.68 
L 340.554 90.68 
L 340.554 126.68 
" clip-path="url(#p82e5b12881)" style="fill: none; stroke: #000000; stroke-width: 2; stroke-linecap: round"/>
   </g>
   <g id="line2d_12">
    <path d="M 340.554 72.68 
L 340.554 81.68 
" clip-path="url(#p82e5b12881)" style="fill: none; stroke: #000000; stroke-width: 2; stroke-linecap: round"/>
   </g>
   <g id="patch_8">
    <path d="M 337.854 72.68 
L 340.554 63.68 
L 343.254 72.68 
z
" clip-path="url(#p82e5b12881)"/>
   </g>
   <g id="line2d_13">
    <path d="M 340.554 126.68 
L 304.554 126.68 
L 268.554 126.68 
" clip-path="url(#p82e5b12881)" style="fill: none; stroke: #000000; stroke-width: 2; stroke-linecap: round"/>
   </g>
   <g id="line2d_14">
    <path d="M 268.554 126.68 
L 268.554 141.08 
L 259.554 141.08 
L 277.554 141.08 
M 262.254 145.4 
L 274.854 145.4 
M 266.754 149.72 
L 270.354 149.72 
" clip-path="url(#p82e5b12881)" style="fill: none; stroke: #000000; stroke-width: 2; stroke-linecap: round"/>
   </g>
   <g id="line2d_15">
    <path d="M 268.554 126.68 
L 151.554 126.68 
L 34.554 126.68 
" clip-path="url(#p82e5b12881)" style="fill: none; stroke: #000000; stroke-width: 2; stroke-linecap: round"/>
   </g>
   <g id="line2d_16">
    <path d="M 34.554 126.68 
L 34.554 108.68 
L 34.554 90.68 
" clip-path="url(#p82e5b12881)" style="fill: none; stroke: #000000; stroke-width: 2; stroke-linecap: round"/>
   </g>
   <g id="text_1">
    <!-- Vs -->
    <g transform="translate(4.519 173.317813) scale(0.14 -0.14)">
     <defs>
      <path id="DejaVuSans-56" d="M 1831 0 
L 50 4666 
L 709 4666 
L 2188 738 
L 3669 4666 
L 4325 4666 
L 2547 0 
L 1831 0 
z
" transform="scale(0.015625)"/>
      <path id="DejaVuSans-73" d="M 2834 3397 
L 2834 2853 
Q 2591 2978 2328 3040 
Q 2066 3103 1784 3103 
Q 1356 3103 1142 2972 
Q 928 2841 928 2578 
Q 928 2378 1081 2264 
Q 1234 2150 1697 2047 
L 1894 2003 
Q 2506 1872 2764 1633 
Q 3022 1394 3022 966 
Q 3022 478 2636 193 
Q 2250 -91 1575 -91 
Q 1294 -91 989 -36 
Q 684 19 347 128 
L 347 722 
Q 666 556 975 473 
Q 1284 391 1588 391 
Q 1994 391 2212 530 
Q 2431 669 2431 922 
Q 2431 1156 2273 1281 
Q 2116 1406 1581 1522 
L 1381 1569 
Q 847 1681 609 1914 
Q 372 2147 372 2553 
Q 372 3047 722 3315 
Q 1072 3584 1716 3584 
Q 2034 3584 2315 3537 
Q 2597 3491 2834 3397 
z
" transform="scale(0.015625)"/>
     </defs>
     <use xlink:href="#DejaVuSans-56"/>
     <use xlink:href="#DejaVuSans-73" transform="translate(68.408203 0)"/>
    </g>
   </g>
   <g id="text_2">
    <!-- R₁ -->
    <g transform="translate(98.883531 39.168437) scale(0.14 -0.14)">
     <defs>
      <path id="DejaVuSans-52" d="M 2841 2188 
Q 3044 2119 3236 1894 
Q 3428 1669 3622 1275 
L 4263 0 
L 3584 0 
L 2988 1197 
Q 2756 1666 2539 1819 
Q 2322 1972 1947 1972 
L 1259 1972 
L 1259 0 
L 628 0 
L 628 4666 
L 2053 4666 
Q 2853 4666 3247 4331 
Q 3641 3997 3641 3322 
Q 3641 2881 3436 2590 
Q 3231 2300 2841 2188 
z
M 1259 4147 
L 1259 2491 
L 2053 2491 
Q 2509 2491 2742 2702 
Q 2975 2913 2975 3322 
Q 2975 3731 2742 3939 
Q 2509 4147 2053 4147 
L 1259 4147 
z
" transform="scale(0.015625)"/>
      <path id="DejaVuSans-2081" d="M 488 319 
L 1125 319 
L 1125 2229 
L 428 2101 
L 428 2463 
L 1147 2585 
L 1575 2585 
L 1575 319 
L 2216 319 
L 2216 -24 
L 488 -24 
L 488 319 
z
" transform="scale(0.015625)"/>
     </defs>
     <use xlink:href="#DejaVuSans-52"/>
     <use xlink:href="#DejaVuSans-2081" transform="translate(69.482422 0)"/>
    </g>
   </g>
   <g id="text_3">
    <!-- B -->
    <g style="fill: #ff0000" transform="translate(182.154 40.543125) scale(0.14 -0.14)">
     <defs>
      <path id="DejaVuSans-42" d="M 1259 2228 
L 1259 519 
L 2272 519 
Q 2781 519 3026 730 
Q 3272 941 3272 1375 
Q 3272 1813 3026 2020 
Q 2781 2228 2272 2228 
L 1259 2228 
z
M 1259 4147 
L 1259 2741 
L 2194 2741 
Q 2656 2741 2882 2914 
Q 3109 3088 3109 3444 
Q 3109 3797 2882 3972 
Q 2656 4147 2194 4147 
L 1259 4147 
z
M 628 4666 
L 2241 4666 
Q 2963 4666 3353 4366 
Q 3744 4066 3744 3513 
Q 3744 3084 3544 2831 
Q 3344 2578 2956 2516 
Q 3422 2416 3680 2098 
Q 3938 1781 3938 1306 
Q 3938 681 3513 340 
Q 3088 0 2303 0 
L 628 0 
L 628 4666 
z
" transform="scale(0.015625)"/>
     </defs>
     <use xlink:href="#DejaVuSans-42"/>
    </g>
   </g>
   <g id="text_4">
    <!-- R₃ -->
    <g transform="translate(192.483531 33.768437) scale(0.14 -0.14)">
     <defs>
      <path id="DejaVuSans-2083" d="M 1638 1388 
Q 1925 1332 2083 1161 
Q 2241 991 2241 735 
Q 2241 347 1944 138 
Q 1647 -71 1094 -71 
Q 916 -71 720 -38 
Q 525 -6 306 57 
L 306 435 
Q 469 351 655 310 
Q 841 269 1050 269 
Q 1391 269 1578 392 
Q 1766 516 1766 735 
Q 1766 966 1592 1085 
Q 1419 1204 1081 1204 
L 813 1204 
L 813 1541 
L 1106 1541 
Q 1400 1541 1551 1639 
Q 1703 1738 1703 1926 
Q 1703 2107 1547 2202 
Q 1391 2297 1094 2297 
Q 969 2297 809 2269 
Q 650 2241 397 2169 
L 397 2529 
Q 625 2582 825 2610 
Q 1025 2638 1197 2638 
Q 1647 2638 1911 2453 
Q 2175 2269 2175 1960 
Q 2175 1744 2034 1594 
Q 1894 1444 1638 1388 
z
" transform="scale(0.015625)"/>
     </defs>
     <use xlink:href="#DejaVuSans-52"/>
     <use xlink:href="#DejaVuSans-2083" transform="translate(69.482422 0)"/>
    </g>
   </g>
   <g id="text_5">
    <!-- R₂ -->
    <g transform="translate(224.883531 21.168438) scale(0.14 -0.14)">
     <defs>
      <path id="DejaVuSans-2082" d="M 838 332 
L 2163 332 
L 2163 -24 
L 294 -24 
L 294 319 
Q 400 416 597 591 
Q 1672 1544 1672 1838 
Q 1672 2044 1509 2170 
Q 1347 2297 1081 2297 
Q 919 2297 728 2242 
Q 538 2188 313 2079 
L 313 2463 
Q 553 2551 761 2594 
Q 969 2638 1147 2638 
Q 1600 2638 1872 2432 
Q 2144 2226 2144 1888 
Q 2144 1454 1109 566 
Q 934 416 838 332 
z
" transform="scale(0.015625)"/>
     </defs>
     <use xlink:href="#DejaVuSans-52"/>
     <use xlink:href="#DejaVuSans-2082" transform="translate(69.482422 0)"/>
    </g>
   </g>
   <g id="text_6">
    <!-- C -->
    <g style="fill: #ff0000" transform="translate(308.154 22.543125) scale(0.14 -0.14)">
     <defs>
      <path id="DejaVuSans-43" d="M 4122 4306 
L 4122 3641 
Q 3803 3938 3442 4084 
Q 3081 4231 2675 4231 
Q 1875 4231 1450 3742 
Q 1025 3253 1025 2328 
Q 1025 1406 1450 917 
Q 1875 428 2675 428 
Q 3081 428 3442 575 
Q 3803 722 4122 1019 
L 4122 359 
Q 3791 134 3420 21 
Q 3050 -91 2638 -91 
Q 1578 -91 968 557 
Q 359 1206 359 2328 
Q 359 3453 968 4101 
Q 1578 4750 2638 4750 
Q 3056 4750 3426 4639 
Q 3797 4528 4122 4306 
z
" transform="scale(0.015625)"/>
     </defs>
     <use xlink:href="#DejaVuSans-43"/>
    </g>
   </g>
   <g id="text_7">
    <!-- Is -->
    <g transform="translate(356.442437 15.768437) scale(0.14 -0.14)">
     <defs>
      <path id="DejaVuSans-49" d="M 628 4666 
L 1259 4666 
L 1259 0 
L 628 0 
L 628 4666 
z
" transform="scale(0.015625)"/>
     </defs>
     <use xlink:href="#DejaVuSans-49"/>
     <use xlink:href="#DejaVuSans-73" transform="translate(29.492188 0)"/>
    </g>
   </g>
   <g id="patch_9">
    <path d="M 160.554 57.38 
C 161.270048 57.38 161.956866 57.095511 162.463188 56.589188 
C 162.969511 56.082866 163.254 55.396048 163.254 54.68 
C 163.254 53.963952 162.969511 53.277134 162.463188 52.770812 
C 161.956866 52.264489 161.270048 51.98 160.554 51.98 
C 159.837952 51.98 159.151134 52.264489 158.644812 52.770812 
C 158.138489 53.277134 157.854 53.963952 157.854 54.68 
C 157.854 55.396048 158.138489 56.082866 158.644812 56.589188 
C 159.151134 57.095511 159.837952 57.38 160.554 57.38 
z
" clip-path="url(#p82e5b12881)" style="stroke: #000000; stroke-width: 2; stroke-linejoin: miter"/>
   </g>
   <g id="patch_10">
    <path d="M 286.554 39.38 
C 287.270048 39.38 287.956866 39.095511 288.463188 38.589188 
C 288.969511 38.082866 289.254 37.396048 289.254 36.68 
C 289.254 35.963952 288.969511 35.277134 288.463188 34.770812 
C 287.956866 34.264489 287.270048 33.98 286.554 33.98 
C 285.837952 33.98 285.151134 34.264489 284.644812 34.770812 
C 284.138489 35.277134 283.854 35.963952 283.854 36.68 
C 283.854 37.396048 284.138489 38.082866 284.644812 38.589188 
C 285.151134 39.095511 285.837952 39.38 286.554 39.38 
z
" clip-path="url(#p82e5b12881)" style="stroke: #000000; stroke-width: 2; stroke-linejoin: miter"/>
   </g>
  </g>
 </g>
 <defs>
  <clipPath id="p82e5b12881">
   <rect x="0" y="-0" width="372.504" height="181.36"/>
  </clipPath>
 </defs>
</svg>
