<?xml version="1.0" encoding="utf-8" standalone="no"?>
<!DOCTYPE svg PUBLIC "-//W3C//DTD SVG 1.1//EN"
  "http://www.w3.org/Graphics/SVG/1.1/DTD/svg11.dtd">
<svg xmlns:xlink="http://www.w3.org/1999/xlink" width="323.808pt" height="167pt" viewBox="0 0 323.808 167" xmlns="http://www.w3.org/2000/svg" version="1.1">
 <metadata>
  <rdf:RDF xmlns:dc="http://purl.org/dc/elements/1.1/" xmlns:cc="http://creativecommons.org/ns#" xmlns:rdf="http://www.w3.org/1999/02/22-rdf-syntax-ns#">
   <cc:Work>
    <dc:type rdf:resource="http://purl.org/dc/dcmitype/StillImage"/>
    <dc:date>2026-02-23T16:40:10.991821</dc:date>
    <dc:format>image/svg+xml</dc:format>
    <dc:creator>
     <cc:Agent>
      <dc:title>Matplotlib v3.10.8, https://matplotlib.org/</dc:title>
     </cc:Agent>
    </dc:creator>
   </cc:Work>
  </rdf:RDF>
 </metadata>
 <defs>
  <style type="text/css">*{stroke-linejoin: round; stroke-linecap: butt}</style>
 </defs>
 <g id="figure_1">
  <g id="patch_1">
   <path d="M 0 167 
L 323.808 167 
L 323.808 0 
L 0 0 
L 0 167 
z
" style="fill: none"/>
  </g>
  <g id="axes_1">
   <g id="patch_2">
    <path d="M 49.128 103.28 
C 53.901656 103.28 58.480438 101.383406 61.855922 98.007922 
C 65.231406 94.632438 67.128 90.053656 67.128 85.28 
C 67.128 80.506344 65.231406 75.927562 61.855922 72.552078 
C 58.480438 69.176594 53.901656 67.28 49.128 67.28 
C 44.354344 67.28 39.775562 69.176594 36.400078 72.552078 
C 33.024594 75.927562 31.128 80.506344 31.128 85.28 
C 31.128 90.053656 33.024594 94.632438 36.400078 98.007922 
C 39.775562 101.383406 44.354344 103.28 49.128 103.28 
L 49.128 103.28 
z
" clip-path="url(#p1c02d3c0cd)" style="fill: none; stroke: #000000; stroke-width: 2; stroke-linejoin: miter"/>
   </g>
   <g id="patch_3">
    <path d="M 301.128 103.28 
C 305.901656 103.28 310.480438 101.383406 313.855922 98.007922 
C 317.231406 94.632438 319.128 90.053656 319.128 85.28 
C 319.128 80.506344 317.231406 75.927562 313.855922 72.552078 
C 310.480438 69.176594 305.901656 67.28 301.128 67.28 
C 296.354344 67.28 291.775562 69.176594 288.400078 72.552078 
C 285.024594 75.927562 283.128 80.506344 283.128 85.28 
C 283.128 90.053656 285.024594 94.632438 288.400078 98.007922 
C 291.775562 101.383406 296.354344 103.28 301.128 103.28 
L 301.128 103.28 
z
" clip-path="url(#p1c02d3c0cd)" style="fill: none; stroke: #000000; stroke-width: 2; stroke-linejoin: miter"/>
   </g>
   <g id="line2d_1">
    <path d="M 49.128 139.28 
L 49.128 103.28 
L 49.128 103.28 
M 49.128 67.28 
L 49.128 67.28 
L 49.128 31.28 
" clip-path="url(#p1c02d3c0cd)" style="fill: none; stroke: #000000; stroke-width: 2; stroke-linecap: round"/>
   </g>
   <g id="line2d_2">
    <path d="M 52.728 94.28 
L 45.528 94.28 
" clip-path="url(#p1c02d3c0cd)" style="fill: none; stroke: #000000; stroke-width: 2; stroke-linecap: round"/>
   </g>
   <g id="line2d_3">
    <path d="M 49.128 79.88 
L 49.128 72.68 
" clip-path="url(#p1c02d3c0cd)" style="fill: none; stroke: #000000; stroke-width: 2; stroke-linecap: round"/>
   </g>
   <g id="line2d_4">
    <path d="M 52.728 76.28 
L 45.528 76.28 
" clip-path="url(#p1c02d3c0cd)" style="fill: none; stroke: #000000; stroke-width: 2; stroke-linecap: round"/>
   </g>
   <g id="line2d_5">
    <path d="M 49.128 31.28 
L 58.128 31.28 
L 67.128 31.28 
" clip-path="url(#p1c02d3c0cd)" style="fill: none; stroke: #000000; stroke-width: 2; stroke-linecap: round"/>
   </g>
   <g id="line2d_6">
    <path d="M 67.128 31.28 
L 103.128 31.28 
L 106.128 22.28 
L 112.128 40.28 
L 118.128 22.28 
L 124.128 40.28 
L 130.128 22.28 
L 136.128 40.28 
L 139.128 31.28 
L 175.128 31.28 
" clip-path="url(#p1c02d3c0cd)" style="fill: none; stroke: #000000; stroke-width: 2; stroke-linecap: round"/>
   </g>
   <g id="line2d_7">
    <path d="M 175.128 31.28 
L 175.128 67.28 
L 184.128 70.28 
L 166.128 76.28 
L 184.128 82.28 
L 166.128 88.28 
L 184.128 94.28 
L 166.128 100.28 
L 175.128 103.28 
L 175.128 139.28 
" clip-path="url(#p1c02d3c0cd)" style="fill: none; stroke: #000000; stroke-width: 2; stroke-linecap: round"/>
   </g>
   <g id="line2d_8">
    <path d="M 175.128 31.28 
L 211.128 31.28 
L 214.128 22.28 
L 220.128 40.28 
L 226.128 22.28 
L 232.128 40.28 
L 238.128 22.28 
L 244.128 40.28 
L 247.128 31.28 
L 283.128 31.28 
" clip-path="url(#p1c02d3c0cd)" style="fill: none; stroke: #000000; stroke-width: 2; stroke-linecap: round"/>
   </g>
   <g id="line2d_9">
    <path d="M 283.128 31.28 
L 292.128 31.28 
L 301.128 31.28 
" clip-path="url(#p1c02d3c0cd)" style="fill: none; stroke: #000000; stroke-width: 2; stroke-linecap: round"/>
   </g>
   <g id="line2d_10">
    <path d="M 301.128 31.28 
L 301.128 67.28 
L 301.128 67.28 
M 301.128 103.28 
L 301.128 103.28 
L 301.128 139.28 
" clip-path="url(#p1c02d3c0cd)" style="fill: none; stroke: #000000; stroke-width: 2; stroke-linecap: round"/>
   </g>
   <g id="line2d_11">
    <path d="M 297.528 76.28 
L 304.728 76.28 
" clip-path="url(#p1c02d3c0cd)" style="fill: none; stroke: #000000; stroke-width: 2; stroke-linecap: round"/>
   </g>
   <g id="line2d_12">
    <path d="M 301.128 90.68 
L 301.128 97.88 
" clip-path="url(#p1c02d3c0cd)" style="fill: none; stroke: #000000; stroke-width: 2; stroke-linecap: round"/>
   </g>
   <g id="line2d_13">
    <path d="M 297.528 94.28 
L 304.728 94.28 
" clip-path="url(#p1c02d3c0cd)" style="fill: none; stroke: #000000; stroke-width: 2; stroke-linecap: round"/>
   </g>
   <g id="line2d_14">
    <path d="M 301.128 139.28 
L 292.128 139.28 
L 283.128 139.28 
" clip-path="url(#p1c02d3c0cd)" style="fill: none; stroke: #000000; stroke-width: 2; stroke-linecap: round"/>
   </g>
   <g id="line2d_15">
    <path d="M 283.128 139.28 
L 247.128 139.28 
L 244.128 148.28 
L 238.128 130.28 
L 232.128 148.28 
L 226.128 130.28 
L 220.128 148.28 
L 214.128 130.28 
L 211.128 139.28 
L 175.128 139.28 
" clip-path="url(#p1c02d3c0cd)" style="fill: none; stroke: #000000; stroke-width: 2; stroke-linecap: round"/>
   </g>
   <g id="line2d_16">
    <path d="M 175.128 139.28 
L 166.128 139.28 
L 157.128 139.28 
" clip-path="url(#p1c02d3c0cd)" style="fill: none; stroke: #000000; stroke-width: 2; stroke-linecap: round"/>
   </g>
   <g id="line2d_17">
    <path d="M 157.128 139.28 
L 157.128 153.68 
L 148.128 153.68 
L 166.128 153.68 
M 150.828 158 
L 163.428 158 
M 155.328 162.32 
L 158.928 162.32 
" clip-path="url(#p1c02d3c0cd)" style="fill: none; stroke: #000000; stroke-width: 2; stroke-linecap: round"/>
   </g>
   <g id="line2d_18">
    <path d="M 157.128 139.28 
L 103.128 139.28 
L 49.128 139.28 
" clip-path="url(#p1c02d3c0cd)" style="fill: none; stroke: #000000; stroke-width: 2; stroke-linecap: round"/>
   </g>
   <g id="line2d_19">
    <path d="M 49.128 139.28 
L 49.128 139.28 
L 49.128 139.28 
" clip-path="url(#p1c02d3c0cd)" style="fill: none; stroke: #000000; stroke-width: 2; stroke-linecap: round"/>
   </g>
   <g id="text_1">
    <!-- Vs₁ -->
    <g transform="translate(5.044875 89.143125) scale(0.14 -0.14)">
     <defs>
      <path id="DejaVuSans-56" d="M 1831 0 
L 50 4666 
L 709 4666 
L 2188 738 
L 3669 4666 
L 4325 4666 
L 2547 0 
L 1831 0 
z
" transform="scale(0.015625)"/>
      <path id="DejaVuSans-73" d="M 2834 3397 
L 2834 2853 
Q 2591 2978 2328 3040 
Q 2066 3103 1784 3103 
Q 1356 3103 1142 2972 
Q 928 2841 928 2578 
Q 928 2378 1081 2264 
Q 1234 2150 1697 2047 
L 1894 2003 
Q 2506 1872 2764 1633 
Q 3022 1394 3022 966 
Q 3022 478 2636 193 
Q 2250 -91 1575 -91 
Q 1294 -91 989 -36 
Q 684 19 347 128 
L 347 722 
Q 666 556 975 473 
Q 1284 391 1588 391 
Q 1994 391 2212 530 
Q 2431 669 2431 922 
Q 2431 1156 2273 1281 
Q 2116 1406 1581 1522 
L 1381 1569 
Q 847 1681 609 1914 
Q 372 2147 372 2553 
Q 372 3047 722 3315 
Q 1072 3584 1716 3584 
Q 2034 3584 2315 3537 
Q 2597 3491 2834 3397 
z
" transform="scale(0.015625)"/>
      <path id="DejaVuSans-2081" d="M 488 319 
L 1125 319 
L 1125 2229 
L 428 2101 
L 428 2463 
L 1147 2585 
L 1575 2585 
L 1575 319 
L 2216 319 
L 2216 -24 
L 488 -24 
L 488 319 
z
" transform="scale(0.015625)"/>
     </defs>
     <use xlink:href="#DejaVuSans-56"/>
     <use xlink:href="#DejaVuSans-73" transform="translate(68.408203 0)"/>
     <use xlink:href="#DejaVuSans-2081" transform="translate(120.507812 0)"/>
    </g>
   </g>
   <g id="text_2">
    <!-- R₁ -->
    <g transform="translate(113.457531 15.768437) scale(0.14 -0.14)">
     <defs>
      <path id="DejaVuSans-52" d="M 2841 2188 
Q 3044 2119 3236 1894 
Q 3428 1669 3622 1275 
L 4263 0 
L 3584 0 
L 2988 1197 
Q 2756 1666 2539 1819 
Q 2322 1972 1947 1972 
L 1259 1972 
L 1259 0 
L 628 0 
L 628 4666 
L 2053 4666 
Q 2853 4666 3247 4331 
Q 3641 3997 3641 3322 
Q 3641 2881 3436 2590 
Q 3231 2300 2841 2188 
z
M 1259 4147 
L 1259 2491 
L 2053 2491 
Q 2509 2491 2742 2702 
Q 2975 2913 2975 3322 
Q 2975 3731 2742 3939 
Q 2509 4147 2053 4147 
L 1259 4147 
z
" transform="scale(0.015625)"/>
     </defs>
     <use xlink:href="#DejaVuSans-52"/>
     <use xlink:href="#DejaVuSans-2081" transform="translate(69.482422 0)"/>
    </g>
   </g>
   <g id="text_3">
    <!-- R₂ -->
    <g transform="translate(147.187062 89.143125) scale(0.14 -0.14)">
     <defs>
      <path id="DejaVuSans-2082" d="M 838 332 
L 2163 332 
L 2163 -24 
L 294 -24 
L 294 319 
Q 400 416 597 591 
Q 1672 1544 1672 1838 
Q 1672 2044 1509 2170 
Q 1347 2297 1081 2297 
Q 919 2297 728 2242 
Q 538 2188 313 2079 
L 313 2463 
Q 553 2551 761 2594 
Q 969 2638 1147 2638 
Q 1600 2638 1872 2432 
Q 2144 2226 2144 1888 
Q 2144 1454 1109 566 
Q 934 416 838 332 
z
" transform="scale(0.015625)"/>
     </defs>
     <use xlink:href="#DejaVuSans-52"/>
     <use xlink:href="#DejaVuSans-2082" transform="translate(69.482422 0)"/>
    </g>
   </g>
   <g id="text_4">
    <!-- R₃ -->
    <g transform="translate(221.457531 15.768437) scale(0.14 -0.14)">
     <defs>
      <path id="DejaVuSans-2083" d="M 1638 1388 
Q 1925 1332 2083 1161 
Q 2241 991 2241 735 
Q 2241 347 1944 138 
Q 1647 -71 1094 -71 
Q 916 -71 720 -38 
Q 525 -6 306 57 
L 306 435 
Q 469 351 655 310 
Q 841 269 1050 269 
Q 1391 269 1578 392 
Q 1766 516 1766 735 
Q 1766 966 1592 1085 
Q 1419 1204 1081 1204 
L 813 1204 
L 813 1541 
L 1106 1541 
Q 1400 1541 1551 1639 
Q 1703 1738 1703 1926 
Q 1703 2107 1547 2202 
Q 1391 2297 1094 2297 
Q 969 2297 809 2269 
Q 650 2241 397 2169 
L 397 2529 
Q 625 2582 825 2610 
Q 1025 2638 1197 2638 
Q 1647 2638 1911 2453 
Q 2175 2269 2175 1960 
Q 2175 1744 2034 1594 
Q 1894 1444 1638 1388 
z
" transform="scale(0.015625)"/>
     </defs>
     <use xlink:href="#DejaVuSans-52"/>
     <use xlink:href="#DejaVuSans-2083" transform="translate(69.482422 0)"/>
    </g>
   </g>
   <g id="text_5">
    <!-- Vs₂ -->
    <g transform="translate(257.044875 89.143125) scale(0.14 -0.14)">
     <use xlink:href="#DejaVuSans-56"/>
     <use xlink:href="#DejaVuSans-73" transform="translate(68.408203 0)"/>
     <use xlink:href="#DejaVuSans-2082" transform="translate(120.507812 0)"/>
    </g>
   </g>
   <g id="text_6">
    <!-- R₄ -->
    <g transform="translate(221.457531 123.768437) scale(0.14 -0.14)">
     <defs>
      <path id="DejaVuSans-2084" d="M 1491 2207 
L 525 897 
L 1491 897 
L 1491 2207 
z
M 1422 2585 
L 1941 2585 
L 1941 897 
L 2363 897 
L 2363 557 
L 1941 557 
L 1941 -24 
L 1491 -24 
L 1491 557 
L 197 557 
L 197 935 
L 1422 2585 
z
" transform="scale(0.015625)"/>
     </defs>
     <use xlink:href="#DejaVuSans-52"/>
     <use xlink:href="#DejaVuSans-2084" transform="translate(69.482422 0)"/>
    </g>
   </g>
   <g id="patch_4">
    <path d="M 175.128 33.98 
C 175.844048 33.98 176.530866 33.695511 177.037188 33.189188 
C 177.543511 32.682866 177.828 31.996048 177.828 31.28 
C 177.828 30.563952 177.543511 29.877134 177.037188 29.370812 
C 176.530866 28.864489 175.844048 28.58 175.128 28.58 
C 174.411952 28.58 173.725134 28.864489 173.218812 29.370812 
C 172.712489 29.877134 172.428 30.563952 172.428 31.28 
C 172.428 31.996048 172.712489 32.682866 173.218812 33.189188 
C 173.725134 33.695511 174.411952 33.98 175.128 33.98 
z
" clip-path="url(#p1c02d3c0cd)" style="stroke: #000000; stroke-width: 2; stroke-linejoin: miter"/>
   </g>
   <g id="patch_5">
    <path d="M 175.128 141.98 
C 175.844048 141.98 176.530866 141.695511 177.037188 141.189188 
C 177.543511 140.682866 177.828 139.996048 177.828 139.28 
C 177.828 138.563952 177.543511 137.877134 177.037188 137.370812 
C 176.530866 136.864489 175.844048 136.58 175.128 136.58 
C 174.411952 136.58 173.725134 136.864489 173.218812 137.370812 
C 172.712489 137.877134 172.428 138.563952 172.428 139.28 
C 172.428 139.996048 172.712489 140.682866 173.218812 141.189188 
C 173.725134 141.695511 174.411952 141.98 175.128 141.98 
z
" clip-path="url(#p1c02d3c0cd)" style="stroke: #000000; stroke-width: 2; stroke-linejoin: miter"/>
   </g>
   <g id="line2d_20">
    <path d="M 49.128 124.88 
L 49.128 124.88 
" clip-path="url(#p1c02d3c0cd)" style="fill: none; stroke: #000000; stroke-width: 2; stroke-linecap: round"/>
   </g>
   <g id="patch_6">
    <path d="M 43.728 124.88 
L 49.128 114.08 
L 54.528 124.88 
z
" clip-path="url(#p1c02d3c0cd)"/>
   </g>
   <g id="text_7">
    <!-- i₁ -->
    <g transform="translate(29.50425 123.067187) scale(0.13 -0.13)">
     <defs>
      <path id="DejaVuSans-69" d="M 603 3500 
L 1178 3500 
L 1178 0 
L 603 0 
L 603 3500 
z
M 603 4863 
L 1178 4863 
L 1178 4134 
L 603 4134 
L 603 4863 
z
" transform="scale(0.015625)"/>
     </defs>
     <use xlink:href="#DejaVuSans-69"/>
     <use xlink:href="#DejaVuSans-2081" transform="translate(27.783203 0)"/>
    </g>
   </g>
   <g id="line2d_21">
    <path d="M 301.128 124.88 
L 301.128 124.88 
" clip-path="url(#p1c02d3c0cd)" style="fill: none; stroke: #000000; stroke-width: 2; stroke-linecap: round"/>
   </g>
   <g id="patch_7">
    <path d="M 295.728 124.88 
L 301.128 114.08 
L 306.528 124.88 
z
" clip-path="url(#p1c02d3c0cd)"/>
   </g>
   <g id="text_8">
    <!-- i₂ -->
    <g transform="translate(281.50425 123.067187) scale(0.13 -0.13)">
     <use xlink:href="#DejaVuSans-69"/>
     <use xlink:href="#DejaVuSans-2082" transform="translate(27.783203 0)"/>
    </g>
   </g>
  </g>
 </g>
 <defs>
  <clipPath id="p1c02d3c0cd">
   <rect x="0" y="-0" width="323.808" height="167"/>
  </clipPath>
 </defs>
</svg>
