<?xml version="1.0" encoding="utf-8" standalone="no"?>
<!DOCTYPE svg PUBLIC "-//W3C//DTD SVG 1.1//EN"
  "http://www.w3.org/Graphics/SVG/1.1/DTD/svg11.dtd">
<svg xmlns:xlink="http://www.w3.org/1999/xlink" width="372.504pt" height="163.36pt" viewBox="0 0 372.504 163.36" xmlns="http://www.w3.org/2000/svg" version="1.1">
 <metadata>
  <rdf:RDF xmlns:dc="http://purl.org/dc/elements/1.1/" xmlns:cc="http://creativecommons.org/ns#" xmlns:rdf="http://www.w3.org/1999/02/22-rdf-syntax-ns#">
   <cc:Work>
    <dc:type rdf:resource="http://purl.org/dc/dcmitype/StillImage"/>
    <dc:date>2026-03-06T09:07:32.435258</dc:date>
    <dc:format>image/svg+xml</dc:format>
    <dc:creator>
     <cc:Agent>
      <dc:title>Matplotlib v3.10.8, https://matplotlib.org/</dc:title>
     </cc:Agent>
    </dc:creator>
   </cc:Work>
  </rdf:RDF>
 </metadata>
 <defs>
  <style type="text/css">*{stroke-linejoin: round; stroke-linecap: butt}</style>
 </defs>
 <g id="figure_1">
  <g id="patch_1">
   <path d="M 0 163.36 
L 372.504 163.36 
L 372.504 0 
L 0 0 
L 0 163.36 
z
" style="fill: none"/>
  </g>
  <g id="axes_1">
   <g id="patch_2">
    <path d="M 34.554 108.68 
C 39.327656 108.68 43.906438 106.783406 47.281922 103.407922 
C 50.657406 100.032438 52.554 95.453656 52.554 90.68 
C 52.554 85.906344 50.657406 81.327562 47.281922 77.952078 
C 43.906438 74.576594 39.327656 72.68 34.554 72.68 
C 29.780344 72.68 25.201562 74.576594 21.826078 77.952078 
C 18.450594 81.327562 16.554 85.906344 16.554 90.68 
C 16.554 95.453656 18.450594 100.032438 21.826078 103.407922 
C 25.201562 106.783406 29.780344 108.68 34.554 108.68 
L 34.554 108.68 
z
" clip-path="url(#p5759600e99)" style="fill: none; stroke: #000000; stroke-width: 2; stroke-linejoin: miter"/>
   </g>
   <g id="patch_3">
    <path d="M 179.718686 32.333334 
C 182.048057 23.640001 183.054 18.68 196.554 18.68 
" clip-path="url(#p5759600e99)" style="fill: none; stroke: #000000; stroke-width: 2; stroke-linejoin: miter; stroke-linecap: round"/>
   </g>
   <g id="patch_4">
    <path d="M 184.360704 28.918416 
L 178.554 36.68 
L 177.406038 27.054919 
z
" clip-path="url(#p5759600e99)"/>
   </g>
   <g id="patch_5">
    <path d="M 340.554 90.68 
C 345.327656 90.68 349.906438 88.783406 353.281922 85.407922 
C 356.657406 82.032438 358.554 77.453656 358.554 72.68 
C 358.554 67.906344 356.657406 63.327562 353.281922 59.952078 
C 349.906438 56.576594 345.327656 54.68 340.554 54.68 
C 335.780344 54.68 331.201562 56.576594 327.826078 59.952078 
C 324.450594 63.327562 322.554 67.906344 322.554 72.68 
C 322.554 77.453656 324.450594 82.032438 327.826078 85.407922 
C 331.201562 88.783406 335.780344 90.68 340.554 90.68 
L 340.554 90.68 
z
" clip-path="url(#p5759600e99)" style="fill: none; stroke: #000000; stroke-width: 2; stroke-linejoin: miter"/>
   </g>
   <g id="line2d_1">
    <path d="M 34.554 144.68 
L 34.554 108.68 
L 34.554 108.68 
M 34.554 72.68 
L 34.554 72.68 
L 34.554 36.68 
" clip-path="url(#p5759600e99)" style="fill: none; stroke: #000000; stroke-width: 2; stroke-linecap: round"/>
   </g>
   <g id="line2d_2">
    <path d="M 38.154 99.68 
L 30.954 99.68 
" clip-path="url(#p5759600e99)" style="fill: none; stroke: #000000; stroke-width: 2; stroke-linecap: round"/>
   </g>
   <g id="line2d_3">
    <path d="M 34.554 85.28 
L 34.554 78.08 
" clip-path="url(#p5759600e99)" style="fill: none; stroke: #000000; stroke-width: 2; stroke-linecap: round"/>
   </g>
   <g id="line2d_4">
    <path d="M 38.154 81.68 
L 30.954 81.68 
" clip-path="url(#p5759600e99)" style="fill: none; stroke: #000000; stroke-width: 2; stroke-linecap: round"/>
   </g>
   <g id="line2d_5">
    <path d="M 34.554 36.68 
L 52.554 36.68 
L 70.554 36.68 
" clip-path="url(#p5759600e99)" style="fill: none; stroke: #000000; stroke-width: 2; stroke-linecap: round"/>
   </g>
   <g id="line2d_6">
    <path d="M 70.554 36.68 
L 106.554 36.68 
L 109.554 27.68 
L 115.554 45.68 
L 121.554 27.68 
L 127.554 45.68 
L 133.554 27.68 
L 139.554 45.68 
L 142.554 36.68 
L 178.554 36.68 
" clip-path="url(#p5759600e99)" style="fill: none; stroke: #000000; stroke-width: 2; stroke-linecap: round"/>
   </g>
   <g id="line2d_7">
    <path d="M 196.554 18.68 
L 196.554 54.68 
L 205.554 57.68 
L 187.554 63.68 
L 205.554 69.68 
L 187.554 75.68 
L 205.554 81.68 
L 187.554 87.68 
L 196.554 90.68 
L 196.554 126.68 
" clip-path="url(#p5759600e99)" style="fill: none; stroke: #000000; stroke-width: 2; stroke-linecap: round"/>
   </g>
   <g id="line2d_8">
    <path d="M 196.554 126.68 
L 196.554 135.68 
L 196.554 144.68 
" clip-path="url(#p5759600e99)" style="fill: none; stroke: #000000; stroke-width: 2; stroke-linecap: round"/>
   </g>
   <g id="line2d_9">
    <path d="M 196.554 18.68 
L 250.554 18.68 
L 304.554 18.68 
" clip-path="url(#p5759600e99)" style="fill: none; stroke: #000000; stroke-width: 2; stroke-linecap: round"/>
   </g>
   <g id="line2d_10">
    <path d="M 304.554 18.68 
L 304.554 54.68 
L 313.554 57.68 
L 295.554 63.68 
L 313.554 69.68 
L 295.554 75.68 
L 313.554 81.68 
L 295.554 87.68 
L 304.554 90.68 
L 304.554 126.68 
" clip-path="url(#p5759600e99)" style="fill: none; stroke: #000000; stroke-width: 2; stroke-linecap: round"/>
   </g>
   <g id="line2d_11">
    <path d="M 304.554 126.68 
L 304.554 135.68 
L 304.554 144.68 
" clip-path="url(#p5759600e99)" style="fill: none; stroke: #000000; stroke-width: 2; stroke-linecap: round"/>
   </g>
   <g id="line2d_12">
    <path d="M 304.554 18.68 
L 322.554 18.68 
L 340.554 18.68 
" clip-path="url(#p5759600e99)" style="fill: none; stroke: #000000; stroke-width: 2; stroke-linecap: round"/>
   </g>
   <g id="line2d_13">
    <path d="M 340.554 18.68 
L 340.554 54.68 
L 340.554 54.68 
M 340.554 90.68 
L 340.554 90.68 
L 340.554 126.68 
" clip-path="url(#p5759600e99)" style="fill: none; stroke: #000000; stroke-width: 2; stroke-linecap: round"/>
   </g>
   <g id="line2d_14">
    <path d="M 340.554 72.68 
L 340.554 81.68 
" clip-path="url(#p5759600e99)" style="fill: none; stroke: #000000; stroke-width: 2; stroke-linecap: round"/>
   </g>
   <g id="patch_6">
    <path d="M 337.854 72.68 
L 340.554 63.68 
L 343.254 72.68 
z
" clip-path="url(#p5759600e99)"/>
   </g>
   <g id="line2d_15">
    <path d="M 340.554 126.68 
L 304.554 126.68 
L 268.554 126.68 
" clip-path="url(#p5759600e99)" style="fill: none; stroke: #000000; stroke-width: 2; stroke-linecap: round"/>
   </g>
   <g id="line2d_16">
    <path d="M 268.554 126.68 
L 268.554 141.08 
L 259.554 141.08 
L 277.554 141.08 
M 262.254 145.4 
L 274.854 145.4 
M 266.754 149.72 
L 270.354 149.72 
" clip-path="url(#p5759600e99)" style="fill: none; stroke: #000000; stroke-width: 2; stroke-linecap: round"/>
   </g>
   <g id="line2d_17">
    <path d="M 268.554 126.68 
L 151.554 126.68 
L 34.554 126.68 
" clip-path="url(#p5759600e99)" style="fill: none; stroke: #000000; stroke-width: 2; stroke-linecap: round"/>
   </g>
   <g id="line2d_18">
    <path d="M 34.554 126.68 
L 34.554 117.68 
L 34.554 108.68 
" clip-path="url(#p5759600e99)" style="fill: none; stroke: #000000; stroke-width: 2; stroke-linecap: round"/>
   </g>
   <g id="text_1">
    <!-- Vs -->
    <g transform="translate(4.519 155.317813) scale(0.14 -0.14)">
     <defs>
      <path id="DejaVuSans-56" d="M 1831 0 
L 50 4666 
L 709 4666 
L 2188 738 
L 3669 4666 
L 4325 4666 
L 2547 0 
L 1831 0 
z
" transform="scale(0.015625)"/>
      <path id="DejaVuSans-73" d="M 2834 3397 
L 2834 2853 
Q 2591 2978 2328 3040 
Q 2066 3103 1784 3103 
Q 1356 3103 1142 2972 
Q 928 2841 928 2578 
Q 928 2378 1081 2264 
Q 1234 2150 1697 2047 
L 1894 2003 
Q 2506 1872 2764 1633 
Q 3022 1394 3022 966 
Q 3022 478 2636 193 
Q 2250 -91 1575 -91 
Q 1294 -91 989 -36 
Q 684 19 347 128 
L 347 722 
Q 666 556 975 473 
Q 1284 391 1588 391 
Q 1994 391 2212 530 
Q 2431 669 2431 922 
Q 2431 1156 2273 1281 
Q 2116 1406 1581 1522 
L 1381 1569 
Q 847 1681 609 1914 
Q 372 2147 372 2553 
Q 372 3047 722 3315 
Q 1072 3584 1716 3584 
Q 2034 3584 2315 3537 
Q 2597 3491 2834 3397 
z
" transform="scale(0.015625)"/>
     </defs>
     <use xlink:href="#DejaVuSans-56"/>
     <use xlink:href="#DejaVuSans-73" transform="translate(68.408203 0)"/>
    </g>
   </g>
   <g id="text_2">
    <!-- R₁ -->
    <g transform="translate(116.883531 21.168437) scale(0.14 -0.14)">
     <defs>
      <path id="DejaVuSans-52" d="M 2841 2188 
Q 3044 2119 3236 1894 
Q 3428 1669 3622 1275 
L 4263 0 
L 3584 0 
L 2988 1197 
Q 2756 1666 2539 1819 
Q 2322 1972 1947 1972 
L 1259 1972 
L 1259 0 
L 628 0 
L 628 4666 
L 2053 4666 
Q 2853 4666 3247 4331 
Q 3641 3997 3641 3322 
Q 3641 2881 3436 2590 
Q 3231 2300 2841 2188 
z
M 1259 4147 
L 1259 2491 
L 2053 2491 
Q 2509 2491 2742 2702 
Q 2975 2913 2975 3322 
Q 2975 3731 2742 3939 
Q 2509 4147 2053 4147 
L 1259 4147 
z
" transform="scale(0.015625)"/>
      <path id="DejaVuSans-2081" d="M 488 319 
L 1125 319 
L 1125 2229 
L 428 2101 
L 428 2463 
L 1147 2585 
L 1575 2585 
L 1575 319 
L 2216 319 
L 2216 -24 
L 488 -24 
L 488 319 
z
" transform="scale(0.015625)"/>
     </defs>
     <use xlink:href="#DejaVuSans-52"/>
     <use xlink:href="#DejaVuSans-2081" transform="translate(69.482422 0)"/>
    </g>
   </g>
   <g id="text_3">
    <!-- A -->
    <g style="fill: #ff0000" transform="translate(200.154 22.543125) scale(0.14 -0.14)">
     <defs>
      <path id="DejaVuSans-41" d="M 2188 4044 
L 1331 1722 
L 3047 1722 
L 2188 4044 
z
M 1831 4666 
L 2547 4666 
L 4325 0 
L 3669 0 
L 3244 1197 
L 1141 1197 
L 716 0 
L 50 0 
L 1831 4666 
z
" transform="scale(0.015625)"/>
     </defs>
     <use xlink:href="#DejaVuSans-41"/>
    </g>
   </g>
   <g id="text_4">
    <!-- R₂ -->
    <g transform="translate(210.483531 15.768437) scale(0.14 -0.14)">
     <defs>
      <path id="DejaVuSans-2082" d="M 838 332 
L 2163 332 
L 2163 -24 
L 294 -24 
L 294 319 
Q 400 416 597 591 
Q 1672 1544 1672 1838 
Q 1672 2044 1509 2170 
Q 1347 2297 1081 2297 
Q 919 2297 728 2242 
Q 538 2188 313 2079 
L 313 2463 
Q 553 2551 761 2594 
Q 969 2638 1147 2638 
Q 1600 2638 1872 2432 
Q 2144 2226 2144 1888 
Q 2144 1454 1109 566 
Q 934 416 838 332 
z
" transform="scale(0.015625)"/>
     </defs>
     <use xlink:href="#DejaVuSans-52"/>
     <use xlink:href="#DejaVuSans-2082" transform="translate(69.482422 0)"/>
    </g>
   </g>
   <g id="text_5">
    <!-- R₃ -->
    <g transform="translate(318.483531 15.768437) scale(0.14 -0.14)">
     <defs>
      <path id="DejaVuSans-2083" d="M 1638 1388 
Q 1925 1332 2083 1161 
Q 2241 991 2241 735 
Q 2241 347 1944 138 
Q 1647 -71 1094 -71 
Q 916 -71 720 -38 
Q 525 -6 306 57 
L 306 435 
Q 469 351 655 310 
Q 841 269 1050 269 
Q 1391 269 1578 392 
Q 1766 516 1766 735 
Q 1766 966 1592 1085 
Q 1419 1204 1081 1204 
L 813 1204 
L 813 1541 
L 1106 1541 
Q 1400 1541 1551 1639 
Q 1703 1738 1703 1926 
Q 1703 2107 1547 2202 
Q 1391 2297 1094 2297 
Q 969 2297 809 2269 
Q 650 2241 397 2169 
L 397 2529 
Q 625 2582 825 2610 
Q 1025 2638 1197 2638 
Q 1647 2638 1911 2453 
Q 2175 2269 2175 1960 
Q 2175 1744 2034 1594 
Q 1894 1444 1638 1388 
z
" transform="scale(0.015625)"/>
     </defs>
     <use xlink:href="#DejaVuSans-52"/>
     <use xlink:href="#DejaVuSans-2083" transform="translate(69.482422 0)"/>
    </g>
   </g>
   <g id="text_6">
    <!-- Is -->
    <g transform="translate(356.442437 15.768437) scale(0.14 -0.14)">
     <defs>
      <path id="DejaVuSans-49" d="M 628 4666 
L 1259 4666 
L 1259 0 
L 628 0 
L 628 4666 
z
" transform="scale(0.015625)"/>
     </defs>
     <use xlink:href="#DejaVuSans-49"/>
     <use xlink:href="#DejaVuSans-73" transform="translate(29.492188 0)"/>
    </g>
   </g>
   <g id="patch_7">
    <path d="M 178.554 39.38 
C 179.270048 39.38 179.956866 39.095511 180.463188 38.589188 
C 180.969511 38.082866 181.254 37.396048 181.254 36.68 
C 181.254 35.963952 180.969511 35.277134 180.463188 34.770812 
C 179.956866 34.264489 179.270048 33.98 178.554 33.98 
C 177.837952 33.98 177.151134 34.264489 176.644812 34.770812 
C 176.138489 35.277134 175.854 35.963952 175.854 36.68 
C 175.854 37.396048 176.138489 38.082866 176.644812 38.589188 
C 177.151134 39.095511 177.837952 39.38 178.554 39.38 
z
" clip-path="url(#p5759600e99)" style="stroke: #000000; stroke-width: 2; stroke-linejoin: miter"/>
   </g>
   <g id="patch_8">
    <path d="M 304.554 21.38 
C 305.270048 21.38 305.956866 21.095511 306.463188 20.589188 
C 306.969511 20.082866 307.254 19.396048 307.254 18.68 
C 307.254 17.963952 306.969511 17.277134 306.463188 16.770812 
C 305.956866 16.264489 305.270048 15.98 304.554 15.98 
C 303.837952 15.98 303.151134 16.264489 302.644812 16.770812 
C 302.138489 17.277134 301.854 17.963952 301.854 18.68 
C 301.854 19.396048 302.138489 20.082866 302.644812 20.589188 
C 303.151134 21.095511 303.837952 21.38 304.554 21.38 
z
" clip-path="url(#p5759600e99)" style="stroke: #000000; stroke-width: 2; stroke-linejoin: miter"/>
   </g>
  </g>
 </g>
 <defs>
  <clipPath id="p5759600e99">
   <rect x="0" y="-0" width="372.504" height="163.36"/>
  </clipPath>
 </defs>
</svg>
