<?xml version="1.0" encoding="utf-8" standalone="no"?>
<!DOCTYPE svg PUBLIC "-//W3C//DTD SVG 1.1//EN"
  "http://www.w3.org/Graphics/SVG/1.1/DTD/svg11.dtd">
<svg xmlns:xlink="http://www.w3.org/1999/xlink" width="351.36pt" height="168.76pt" viewBox="0 0 351.36 168.76" xmlns="http://www.w3.org/2000/svg" version="1.1">
 <metadata>
  <rdf:RDF xmlns:dc="http://purl.org/dc/elements/1.1/" xmlns:cc="http://creativecommons.org/ns#" xmlns:rdf="http://www.w3.org/1999/02/22-rdf-syntax-ns#">
   <cc:Work>
    <dc:type rdf:resource="http://purl.org/dc/dcmitype/StillImage"/>
    <dc:date>2026-03-05T18:37:08.884340</dc:date>
    <dc:format>image/svg+xml</dc:format>
    <dc:creator>
     <cc:Agent>
      <dc:title>Matplotlib v3.10.8, https://matplotlib.org/</dc:title>
     </cc:Agent>
    </dc:creator>
   </cc:Work>
  </rdf:RDF>
 </metadata>
 <defs>
  <style type="text/css">*{stroke-linejoin: round; stroke-linecap: butt}</style>
 </defs>
 <g id="figure_1">
  <g id="patch_1">
   <path d="M 0 168.76 
L 351.36 168.76 
L 351.36 0 
L 0 0 
L 0 168.76 
z
" style="fill: none"/>
  </g>
  <g id="axes_1">
   <g id="patch_2">
    <path d="M 22.68 103.28 
C 27.453656 103.28 32.032438 101.383406 35.407922 98.007922 
C 38.783406 94.632438 40.68 90.053656 40.68 85.28 
C 40.68 80.506344 38.783406 75.927562 35.407922 72.552078 
C 32.032438 69.176594 27.453656 67.28 22.68 67.28 
C 17.906344 67.28 13.327562 69.176594 9.952078 72.552078 
C 6.576594 75.927562 4.68 80.506344 4.68 85.28 
C 4.68 90.053656 6.576594 94.632438 9.952078 98.007922 
C 13.327562 101.383406 17.906344 103.28 22.68 103.28 
L 22.68 103.28 
z
" clip-path="url(#p4bbc7d5056)" style="fill: none; stroke: #000000; stroke-width: 2; stroke-linejoin: miter"/>
   </g>
   <g id="patch_3">
    <path d="M 167.844686 26.933334 
C 170.174057 18.240001 171.18 13.28 184.68 13.28 
" clip-path="url(#p4bbc7d5056)" style="fill: none; stroke: #000000; stroke-width: 2; stroke-linejoin: miter; stroke-linecap: round"/>
   </g>
   <g id="patch_4">
    <path d="M 172.486704 23.518416 
L 166.68 31.28 
L 165.532038 21.654919 
z
" clip-path="url(#p4bbc7d5056)"/>
   </g>
   <g id="patch_5">
    <path d="M 328.68 85.28 
C 333.453656 85.28 338.032438 83.383406 341.407922 80.007922 
C 344.783406 76.632438 346.68 72.053656 346.68 67.28 
C 346.68 62.506344 344.783406 57.927562 341.407922 54.552078 
C 338.032438 51.176594 333.453656 49.28 328.68 49.28 
C 323.906344 49.28 319.327562 51.176594 315.952078 54.552078 
C 312.576594 57.927562 310.68 62.506344 310.68 67.28 
C 310.68 72.053656 312.576594 76.632438 315.952078 80.007922 
C 319.327562 83.383406 323.906344 85.28 328.68 85.28 
L 328.68 85.28 
z
" clip-path="url(#p4bbc7d5056)" style="fill: none; stroke: #000000; stroke-width: 2; stroke-linejoin: miter"/>
   </g>
   <g id="line2d_1">
    <path d="M 22.68 139.28 
L 22.68 103.28 
L 22.68 103.28 
M 22.68 67.28 
L 22.68 67.28 
L 22.68 31.28 
" clip-path="url(#p4bbc7d5056)" style="fill: none; stroke: #000000; stroke-width: 2; stroke-linecap: round"/>
   </g>
   <g id="line2d_2">
    <path d="M 26.28 94.28 
L 19.08 94.28 
" clip-path="url(#p4bbc7d5056)" style="fill: none; stroke: #000000; stroke-width: 2; stroke-linecap: round"/>
   </g>
   <g id="line2d_3">
    <path d="M 22.68 79.88 
L 22.68 72.68 
" clip-path="url(#p4bbc7d5056)" style="fill: none; stroke: #000000; stroke-width: 2; stroke-linecap: round"/>
   </g>
   <g id="line2d_4">
    <path d="M 26.28 76.28 
L 19.08 76.28 
" clip-path="url(#p4bbc7d5056)" style="fill: none; stroke: #000000; stroke-width: 2; stroke-linecap: round"/>
   </g>
   <g id="line2d_5">
    <path d="M 22.68 31.28 
L 40.68 31.28 
L 58.68 31.28 
" clip-path="url(#p4bbc7d5056)" style="fill: none; stroke: #000000; stroke-width: 2; stroke-linecap: round"/>
   </g>
   <g id="line2d_6">
    <path d="M 58.68 31.28 
L 94.68 31.28 
L 97.68 22.28 
L 103.68 40.28 
L 109.68 22.28 
L 115.68 40.28 
L 121.68 22.28 
L 127.68 40.28 
L 130.68 31.28 
L 166.68 31.28 
" clip-path="url(#p4bbc7d5056)" style="fill: none; stroke: #000000; stroke-width: 2; stroke-linecap: round"/>
   </g>
   <g id="line2d_7">
    <path d="M 184.68 13.28 
L 184.68 49.28 
L 193.68 52.28 
L 175.68 58.28 
L 193.68 64.28 
L 175.68 70.28 
L 193.68 76.28 
L 175.68 82.28 
L 184.68 85.28 
L 184.68 121.28 
" clip-path="url(#p4bbc7d5056)" style="fill: none; stroke: #000000; stroke-width: 2; stroke-linecap: round"/>
   </g>
   <g id="line2d_8">
    <path d="M 184.68 121.28 
L 184.68 130.28 
L 184.68 139.28 
" clip-path="url(#p4bbc7d5056)" style="fill: none; stroke: #000000; stroke-width: 2; stroke-linecap: round"/>
   </g>
   <g id="line2d_9">
    <path d="M 184.68 13.28 
L 238.68 13.28 
L 292.68 13.28 
" clip-path="url(#p4bbc7d5056)" style="fill: none; stroke: #000000; stroke-width: 2; stroke-linecap: round"/>
   </g>
   <g id="line2d_10">
    <path d="M 292.68 13.28 
L 292.68 49.28 
L 301.68 52.28 
L 283.68 58.28 
L 301.68 64.28 
L 283.68 70.28 
L 301.68 76.28 
L 283.68 82.28 
L 292.68 85.28 
L 292.68 121.28 
" clip-path="url(#p4bbc7d5056)" style="fill: none; stroke: #000000; stroke-width: 2; stroke-linecap: round"/>
   </g>
   <g id="line2d_11">
    <path d="M 292.68 121.28 
L 292.68 130.28 
L 292.68 139.28 
" clip-path="url(#p4bbc7d5056)" style="fill: none; stroke: #000000; stroke-width: 2; stroke-linecap: round"/>
   </g>
   <g id="line2d_12">
    <path d="M 292.68 13.28 
L 310.68 13.28 
L 328.68 13.28 
" clip-path="url(#p4bbc7d5056)" style="fill: none; stroke: #000000; stroke-width: 2; stroke-linecap: round"/>
   </g>
   <g id="line2d_13">
    <path d="M 328.68 13.28 
L 328.68 49.28 
L 328.68 49.28 
M 328.68 85.28 
L 328.68 85.28 
L 328.68 121.28 
" clip-path="url(#p4bbc7d5056)" style="fill: none; stroke: #000000; stroke-width: 2; stroke-linecap: round"/>
   </g>
   <g id="line2d_14">
    <path d="M 328.68 67.28 
L 328.68 76.28 
" clip-path="url(#p4bbc7d5056)" style="fill: none; stroke: #000000; stroke-width: 2; stroke-linecap: round"/>
   </g>
   <g id="patch_6">
    <path d="M 325.98 67.28 
L 328.68 58.28 
L 331.38 67.28 
z
" clip-path="url(#p4bbc7d5056)"/>
   </g>
   <g id="line2d_15">
    <path d="M 328.68 121.28 
L 292.68 121.28 
L 256.68 121.28 
" clip-path="url(#p4bbc7d5056)" style="fill: none; stroke: #000000; stroke-width: 2; stroke-linecap: round"/>
   </g>
   <g id="line2d_16">
    <path d="M 256.68 121.28 
L 256.68 135.68 
L 247.68 135.68 
L 265.68 135.68 
M 250.38 140 
L 262.98 140 
M 254.88 144.32 
L 258.48 144.32 
" clip-path="url(#p4bbc7d5056)" style="fill: none; stroke: #000000; stroke-width: 2; stroke-linecap: round"/>
   </g>
   <g id="line2d_17">
    <path d="M 256.68 121.28 
L 139.68 121.28 
L 22.68 121.28 
" clip-path="url(#p4bbc7d5056)" style="fill: none; stroke: #000000; stroke-width: 2; stroke-linecap: round"/>
   </g>
   <g id="line2d_18">
    <path d="M 22.68 121.28 
L 22.68 112.28 
L 22.68 103.28 
" clip-path="url(#p4bbc7d5056)" style="fill: none; stroke: #000000; stroke-width: 2; stroke-linecap: round"/>
   </g>
   <g id="text_1">
    <!-- Vs -->
    <g transform="translate(14.245 160.717812) scale(0.14 -0.14)">
     <defs>
      <path id="DejaVuSans-56" d="M 1831 0 
L 50 4666 
L 709 4666 
L 2188 738 
L 3669 4666 
L 4325 4666 
L 2547 0 
L 1831 0 
z
" transform="scale(0.015625)"/>
      <path id="DejaVuSans-73" d="M 2834 3397 
L 2834 2853 
Q 2591 2978 2328 3040 
Q 2066 3103 1784 3103 
Q 1356 3103 1142 2972 
Q 928 2841 928 2578 
Q 928 2378 1081 2264 
Q 1234 2150 1697 2047 
L 1894 2003 
Q 2506 1872 2764 1633 
Q 3022 1394 3022 966 
Q 3022 478 2636 193 
Q 2250 -91 1575 -91 
Q 1294 -91 989 -36 
Q 684 19 347 128 
L 347 722 
Q 666 556 975 473 
Q 1284 391 1588 391 
Q 1994 391 2212 530 
Q 2431 669 2431 922 
Q 2431 1156 2273 1281 
Q 2116 1406 1581 1522 
L 1381 1569 
Q 847 1681 609 1914 
Q 372 2147 372 2553 
Q 372 3047 722 3315 
Q 1072 3584 1716 3584 
Q 2034 3584 2315 3537 
Q 2597 3491 2834 3397 
z
" transform="scale(0.015625)"/>
     </defs>
     <use xlink:href="#DejaVuSans-56"/>
     <use xlink:href="#DejaVuSans-73" transform="translate(68.408203 0)"/>
    </g>
   </g>
   <g id="text_2">
    <!-- R₁ -->
    <g transform="translate(105.009531 15.768437) scale(0.14 -0.14)">
     <defs>
      <path id="DejaVuSans-52" d="M 2841 2188 
Q 3044 2119 3236 1894 
Q 3428 1669 3622 1275 
L 4263 0 
L 3584 0 
L 2988 1197 
Q 2756 1666 2539 1819 
Q 2322 1972 1947 1972 
L 1259 1972 
L 1259 0 
L 628 0 
L 628 4666 
L 2053 4666 
Q 2853 4666 3247 4331 
Q 3641 3997 3641 3322 
Q 3641 2881 3436 2590 
Q 3231 2300 2841 2188 
z
M 1259 4147 
L 1259 2491 
L 2053 2491 
Q 2509 2491 2742 2702 
Q 2975 2913 2975 3322 
Q 2975 3731 2742 3939 
Q 2509 4147 2053 4147 
L 1259 4147 
z
" transform="scale(0.015625)"/>
      <path id="DejaVuSans-2081" d="M 488 319 
L 1125 319 
L 1125 2229 
L 428 2101 
L 428 2463 
L 1147 2585 
L 1575 2585 
L 1575 319 
L 2216 319 
L 2216 -24 
L 488 -24 
L 488 319 
z
" transform="scale(0.015625)"/>
     </defs>
     <use xlink:href="#DejaVuSans-52"/>
     <use xlink:href="#DejaVuSans-2081" transform="translate(69.482422 0)"/>
    </g>
   </g>
   <g id="text_3">
    <!-- A -->
    <g style="fill: #ff0000" transform="translate(188.28 17.143125) scale(0.14 -0.14)">
     <defs>
      <path id="DejaVuSans-41" d="M 2188 4044 
L 1331 1722 
L 3047 1722 
L 2188 4044 
z
M 1831 4666 
L 2547 4666 
L 4325 0 
L 3669 0 
L 3244 1197 
L 1141 1197 
L 716 0 
L 50 0 
L 1831 4666 
z
" transform="scale(0.015625)"/>
     </defs>
     <use xlink:href="#DejaVuSans-41"/>
    </g>
   </g>
   <g id="text_4">
    <!-- R₂ -->
    <g transform="translate(177.009531 21.168437) scale(0.14 -0.14)">
     <defs>
      <path id="DejaVuSans-2082" d="M 838 332 
L 2163 332 
L 2163 -24 
L 294 -24 
L 294 319 
Q 400 416 597 591 
Q 1672 1544 1672 1838 
Q 1672 2044 1509 2170 
Q 1347 2297 1081 2297 
Q 919 2297 728 2242 
Q 538 2188 313 2079 
L 313 2463 
Q 553 2551 761 2594 
Q 969 2638 1147 2638 
Q 1600 2638 1872 2432 
Q 2144 2226 2144 1888 
Q 2144 1454 1109 566 
Q 934 416 838 332 
z
" transform="scale(0.015625)"/>
     </defs>
     <use xlink:href="#DejaVuSans-52"/>
     <use xlink:href="#DejaVuSans-2082" transform="translate(69.482422 0)"/>
    </g>
   </g>
   <g id="text_5">
    <!-- R₃ -->
    <g transform="translate(285.009531 21.168437) scale(0.14 -0.14)">
     <defs>
      <path id="DejaVuSans-2083" d="M 1638 1388 
Q 1925 1332 2083 1161 
Q 2241 991 2241 735 
Q 2241 347 1944 138 
Q 1647 -71 1094 -71 
Q 916 -71 720 -38 
Q 525 -6 306 57 
L 306 435 
Q 469 351 655 310 
Q 841 269 1050 269 
Q 1391 269 1578 392 
Q 1766 516 1766 735 
Q 1766 966 1592 1085 
Q 1419 1204 1081 1204 
L 813 1204 
L 813 1541 
L 1106 1541 
Q 1400 1541 1551 1639 
Q 1703 1738 1703 1926 
Q 1703 2107 1547 2202 
Q 1391 2297 1094 2297 
Q 969 2297 809 2269 
Q 650 2241 397 2169 
L 397 2529 
Q 625 2582 825 2610 
Q 1025 2638 1197 2638 
Q 1647 2638 1911 2453 
Q 2175 2269 2175 1960 
Q 2175 1744 2034 1594 
Q 1894 1444 1638 1388 
z
" transform="scale(0.015625)"/>
     </defs>
     <use xlink:href="#DejaVuSans-52"/>
     <use xlink:href="#DejaVuSans-2083" transform="translate(69.482422 0)"/>
    </g>
   </g>
   <g id="text_6">
    <!-- Is -->
    <g transform="translate(322.968437 21.168437) scale(0.14 -0.14)">
     <defs>
      <path id="DejaVuSans-49" d="M 628 4666 
L 1259 4666 
L 1259 0 
L 628 0 
L 628 4666 
z
" transform="scale(0.015625)"/>
     </defs>
     <use xlink:href="#DejaVuSans-49"/>
     <use xlink:href="#DejaVuSans-73" transform="translate(29.492188 0)"/>
    </g>
   </g>
   <g id="patch_7">
    <path d="M 166.68 33.98 
C 167.396048 33.98 168.082866 33.695511 168.589188 33.189188 
C 169.095511 32.682866 169.38 31.996048 169.38 31.28 
C 169.38 30.563952 169.095511 29.877134 168.589188 29.370812 
C 168.082866 28.864489 167.396048 28.58 166.68 28.58 
C 165.963952 28.58 165.277134 28.864489 164.770812 29.370812 
C 164.264489 29.877134 163.98 30.563952 163.98 31.28 
C 163.98 31.996048 164.264489 32.682866 164.770812 33.189188 
C 165.277134 33.695511 165.963952 33.98 166.68 33.98 
z
" clip-path="url(#p4bbc7d5056)" style="stroke: #000000; stroke-width: 2; stroke-linejoin: miter"/>
   </g>
   <g id="patch_8">
    <path d="M 292.68 15.98 
C 293.396048 15.98 294.082866 15.695511 294.589188 15.189188 
C 295.095511 14.682866 295.38 13.996048 295.38 13.28 
C 295.38 12.563952 295.095511 11.877134 294.589188 11.370812 
C 294.082866 10.864489 293.396048 10.58 292.68 10.58 
C 291.963952 10.58 291.277134 10.864489 290.770812 11.370812 
C 290.264489 11.877134 289.98 12.563952 289.98 13.28 
C 289.98 13.996048 290.264489 14.682866 290.770812 15.189188 
C 291.277134 15.695511 291.963952 15.98 292.68 15.98 
z
" clip-path="url(#p4bbc7d5056)" style="stroke: #000000; stroke-width: 2; stroke-linejoin: miter"/>
   </g>
  </g>
 </g>
 <defs>
  <clipPath id="p4bbc7d5056">
   <rect x="0" y="-0" width="351.36" height="168.76"/>
  </clipPath>
 </defs>
</svg>
