<?xml version="1.0" encoding="utf-8" standalone="no"?>
<!DOCTYPE svg PUBLIC "-//W3C//DTD SVG 1.1//EN"
  "http://www.w3.org/Graphics/SVG/1.1/DTD/svg11.dtd">
<svg xmlns:xlink="http://www.w3.org/1999/xlink" width="390.048pt" height="149pt" viewBox="0 0 390.048 149" xmlns="http://www.w3.org/2000/svg" version="1.1">
 <metadata>
  <rdf:RDF xmlns:dc="http://purl.org/dc/elements/1.1/" xmlns:cc="http://creativecommons.org/ns#" xmlns:rdf="http://www.w3.org/1999/02/22-rdf-syntax-ns#">
   <cc:Work>
    <dc:type rdf:resource="http://purl.org/dc/dcmitype/StillImage"/>
    <dc:date>2026-03-06T11:15:51.715802</dc:date>
    <dc:format>image/svg+xml</dc:format>
    <dc:creator>
     <cc:Agent>
      <dc:title>Matplotlib v3.10.8, https://matplotlib.org/</dc:title>
     </cc:Agent>
    </dc:creator>
   </cc:Work>
  </rdf:RDF>
 </metadata>
 <defs>
  <style type="text/css">*{stroke-linejoin: round; stroke-linecap: butt}</style>
 </defs>
 <g id="figure_1">
  <g id="patch_1">
   <path d="M 0 149 
L 390.048 149 
L 390.048 0 
L 0 0 
L 0 149 
z
" style="fill: none"/>
  </g>
  <g id="axes_1">
   <g id="patch_2">
    <path d="M 44.628 103.28 
C 49.401656 103.28 53.980438 101.383406 57.355922 98.007922 
C 60.731406 94.632438 62.628 90.053656 62.628 85.28 
C 62.628 80.506344 60.731406 75.927562 57.355922 72.552078 
C 53.980438 69.176594 49.401656 67.28 44.628 67.28 
C 39.854344 67.28 35.275562 69.176594 31.900078 72.552078 
C 28.524594 75.927562 26.628 80.506344 26.628 85.28 
C 26.628 90.053656 28.524594 94.632438 31.900078 98.007922 
C 35.275562 101.383406 39.854344 103.28 44.628 103.28 
L 44.628 103.28 
z
" clip-path="url(#p1b450b52c4)" style="fill: none; stroke: #000000; stroke-width: 2; stroke-linejoin: miter"/>
   </g>
   <g id="patch_3">
    <path d="M 189.792686 26.933334 
C 192.122057 18.240001 193.128 13.28 206.628 13.28 
" clip-path="url(#p1b450b52c4)" style="fill: none; stroke: #000000; stroke-width: 2; stroke-linejoin: miter; stroke-linecap: round"/>
   </g>
   <g id="patch_4">
    <path d="M 194.434704 23.518416 
L 188.628 31.28 
L 187.480038 21.654919 
z
" clip-path="url(#p1b450b52c4)"/>
   </g>
   <g id="patch_5">
    <path d="M 350.628 85.28 
C 355.401656 85.28 359.980438 83.383406 363.355922 80.007922 
C 366.731406 76.632438 368.628 72.053656 368.628 67.28 
C 368.628 62.506344 366.731406 57.927562 363.355922 54.552078 
C 359.980438 51.176594 355.401656 49.28 350.628 49.28 
C 345.854344 49.28 341.275562 51.176594 337.900078 54.552078 
C 334.524594 57.927562 332.628 62.506344 332.628 67.28 
C 332.628 72.053656 334.524594 76.632438 337.900078 80.007922 
C 341.275562 83.383406 345.854344 85.28 350.628 85.28 
L 350.628 85.28 
z
" clip-path="url(#p1b450b52c4)" style="fill: none; stroke: #000000; stroke-width: 2; stroke-linejoin: miter"/>
   </g>
   <g id="line2d_1">
    <path d="M 44.628 139.28 
L 44.628 103.28 
L 44.628 103.28 
M 44.628 67.28 
L 44.628 67.28 
L 44.628 31.28 
" clip-path="url(#p1b450b52c4)" style="fill: none; stroke: #000000; stroke-width: 2; stroke-linecap: round"/>
   </g>
   <g id="line2d_2">
    <path d="M 48.228 94.28 
L 41.028 94.28 
" clip-path="url(#p1b450b52c4)" style="fill: none; stroke: #000000; stroke-width: 2; stroke-linecap: round"/>
   </g>
   <g id="line2d_3">
    <path d="M 44.628 79.88 
L 44.628 72.68 
" clip-path="url(#p1b450b52c4)" style="fill: none; stroke: #000000; stroke-width: 2; stroke-linecap: round"/>
   </g>
   <g id="line2d_4">
    <path d="M 48.228 76.28 
L 41.028 76.28 
" clip-path="url(#p1b450b52c4)" style="fill: none; stroke: #000000; stroke-width: 2; stroke-linecap: round"/>
   </g>
   <g id="line2d_5">
    <path d="M 44.628 31.28 
L 62.628 31.28 
L 80.628 31.28 
" clip-path="url(#p1b450b52c4)" style="fill: none; stroke: #000000; stroke-width: 2; stroke-linecap: round"/>
   </g>
   <g id="line2d_6">
    <path d="M 80.628 31.28 
L 116.628 31.28 
L 119.628 22.28 
L 125.628 40.28 
L 131.628 22.28 
L 137.628 40.28 
L 143.628 22.28 
L 149.628 40.28 
L 152.628 31.28 
L 188.628 31.28 
" clip-path="url(#p1b450b52c4)" style="fill: none; stroke: #000000; stroke-width: 2; stroke-linecap: round"/>
   </g>
   <g id="line2d_7">
    <path d="M 206.628 13.28 
L 206.628 49.28 
L 215.628 52.28 
L 197.628 58.28 
L 215.628 64.28 
L 197.628 70.28 
L 215.628 76.28 
L 197.628 82.28 
L 206.628 85.28 
L 206.628 121.28 
" clip-path="url(#p1b450b52c4)" style="fill: none; stroke: #000000; stroke-width: 2; stroke-linecap: round"/>
   </g>
   <g id="line2d_8">
    <path d="M 206.628 121.28 
L 206.628 130.28 
L 206.628 139.28 
" clip-path="url(#p1b450b52c4)" style="fill: none; stroke: #000000; stroke-width: 2; stroke-linecap: round"/>
   </g>
   <g id="line2d_9">
    <path d="M 206.628 13.28 
L 260.628 13.28 
L 314.628 13.28 
" clip-path="url(#p1b450b52c4)" style="fill: none; stroke: #000000; stroke-width: 2; stroke-linecap: round"/>
   </g>
   <g id="line2d_10">
    <path d="M 314.628 13.28 
L 314.628 49.28 
L 323.628 52.28 
L 305.628 58.28 
L 323.628 64.28 
L 305.628 70.28 
L 323.628 76.28 
L 305.628 82.28 
L 314.628 85.28 
L 314.628 121.28 
" clip-path="url(#p1b450b52c4)" style="fill: none; stroke: #000000; stroke-width: 2; stroke-linecap: round"/>
   </g>
   <g id="line2d_11">
    <path d="M 314.628 121.28 
L 314.628 130.28 
L 314.628 139.28 
" clip-path="url(#p1b450b52c4)" style="fill: none; stroke: #000000; stroke-width: 2; stroke-linecap: round"/>
   </g>
   <g id="line2d_12">
    <path d="M 314.628 13.28 
L 332.628 13.28 
L 350.628 13.28 
" clip-path="url(#p1b450b52c4)" style="fill: none; stroke: #000000; stroke-width: 2; stroke-linecap: round"/>
   </g>
   <g id="line2d_13">
    <path d="M 350.628 13.28 
L 350.628 49.28 
L 350.628 49.28 
M 350.628 85.28 
L 350.628 85.28 
L 350.628 121.28 
" clip-path="url(#p1b450b52c4)" style="fill: none; stroke: #000000; stroke-width: 2; stroke-linecap: round"/>
   </g>
   <g id="line2d_14">
    <path d="M 350.628 67.28 
L 350.628 76.28 
" clip-path="url(#p1b450b52c4)" style="fill: none; stroke: #000000; stroke-width: 2; stroke-linecap: round"/>
   </g>
   <g id="patch_6">
    <path d="M 347.928 67.28 
L 350.628 58.28 
L 353.328 67.28 
z
" clip-path="url(#p1b450b52c4)"/>
   </g>
   <g id="line2d_15">
    <path d="M 350.628 121.28 
L 314.628 121.28 
L 278.628 121.28 
" clip-path="url(#p1b450b52c4)" style="fill: none; stroke: #000000; stroke-width: 2; stroke-linecap: round"/>
   </g>
   <g id="line2d_16">
    <path d="M 278.628 121.28 
L 278.628 135.68 
L 269.628 135.68 
L 287.628 135.68 
M 272.328 140 
L 284.928 140 
M 276.828 144.32 
L 280.428 144.32 
" clip-path="url(#p1b450b52c4)" style="fill: none; stroke: #000000; stroke-width: 2; stroke-linecap: round"/>
   </g>
   <g id="line2d_17">
    <path d="M 278.628 121.28 
L 161.628 121.28 
L 44.628 121.28 
" clip-path="url(#p1b450b52c4)" style="fill: none; stroke: #000000; stroke-width: 2; stroke-linecap: round"/>
   </g>
   <g id="line2d_18">
    <path d="M 44.628 121.28 
L 44.628 112.28 
L 44.628 103.28 
" clip-path="url(#p1b450b52c4)" style="fill: none; stroke: #000000; stroke-width: 2; stroke-linecap: round"/>
   </g>
   <g id="text_1">
    <!-- Vs -->
    <g transform="translate(4.358 89.143125) scale(0.14 -0.14)">
     <defs>
      <path id="DejaVuSans-56" d="M 1831 0 
L 50 4666 
L 709 4666 
L 2188 738 
L 3669 4666 
L 4325 4666 
L 2547 0 
L 1831 0 
z
" transform="scale(0.015625)"/>
      <path id="DejaVuSans-73" d="M 2834 3397 
L 2834 2853 
Q 2591 2978 2328 3040 
Q 2066 3103 1784 3103 
Q 1356 3103 1142 2972 
Q 928 2841 928 2578 
Q 928 2378 1081 2264 
Q 1234 2150 1697 2047 
L 1894 2003 
Q 2506 1872 2764 1633 
Q 3022 1394 3022 966 
Q 3022 478 2636 193 
Q 2250 -91 1575 -91 
Q 1294 -91 989 -36 
Q 684 19 347 128 
L 347 722 
Q 666 556 975 473 
Q 1284 391 1588 391 
Q 1994 391 2212 530 
Q 2431 669 2431 922 
Q 2431 1156 2273 1281 
Q 2116 1406 1581 1522 
L 1381 1569 
Q 847 1681 609 1914 
Q 372 2147 372 2553 
Q 372 3047 722 3315 
Q 1072 3584 1716 3584 
Q 2034 3584 2315 3537 
Q 2597 3491 2834 3397 
z
" transform="scale(0.015625)"/>
     </defs>
     <use xlink:href="#DejaVuSans-56"/>
     <use xlink:href="#DejaVuSans-73" transform="translate(68.408203 0)"/>
    </g>
   </g>
   <g id="text_2">
    <!-- R₁ -->
    <g transform="translate(126.957531 15.768437) scale(0.14 -0.14)">
     <defs>
      <path id="DejaVuSans-52" d="M 2841 2188 
Q 3044 2119 3236 1894 
Q 3428 1669 3622 1275 
L 4263 0 
L 3584 0 
L 2988 1197 
Q 2756 1666 2539 1819 
Q 2322 1972 1947 1972 
L 1259 1972 
L 1259 0 
L 628 0 
L 628 4666 
L 2053 4666 
Q 2853 4666 3247 4331 
Q 3641 3997 3641 3322 
Q 3641 2881 3436 2590 
Q 3231 2300 2841 2188 
z
M 1259 4147 
L 1259 2491 
L 2053 2491 
Q 2509 2491 2742 2702 
Q 2975 2913 2975 3322 
Q 2975 3731 2742 3939 
Q 2509 4147 2053 4147 
L 1259 4147 
z
" transform="scale(0.015625)"/>
      <path id="DejaVuSans-2081" d="M 488 319 
L 1125 319 
L 1125 2229 
L 428 2101 
L 428 2463 
L 1147 2585 
L 1575 2585 
L 1575 319 
L 2216 319 
L 2216 -24 
L 488 -24 
L 488 319 
z
" transform="scale(0.015625)"/>
     </defs>
     <use xlink:href="#DejaVuSans-52"/>
     <use xlink:href="#DejaVuSans-2081" transform="translate(69.482422 0)"/>
    </g>
   </g>
   <g id="text_3">
    <!-- A -->
    <g style="fill: #ff0000" transform="translate(210.228 17.143125) scale(0.14 -0.14)">
     <defs>
      <path id="DejaVuSans-41" d="M 2188 4044 
L 1331 1722 
L 3047 1722 
L 2188 4044 
z
M 1831 4666 
L 2547 4666 
L 4325 0 
L 3669 0 
L 3244 1197 
L 1141 1197 
L 716 0 
L 50 0 
L 1831 4666 
z
" transform="scale(0.015625)"/>
     </defs>
     <use xlink:href="#DejaVuSans-41"/>
    </g>
   </g>
   <g id="text_4">
    <!-- R₂ -->
    <g transform="translate(221.028 71.143125) scale(0.14 -0.14)">
     <defs>
      <path id="DejaVuSans-2082" d="M 838 332 
L 2163 332 
L 2163 -24 
L 294 -24 
L 294 319 
Q 400 416 597 591 
Q 1672 1544 1672 1838 
Q 1672 2044 1509 2170 
Q 1347 2297 1081 2297 
Q 919 2297 728 2242 
Q 538 2188 313 2079 
L 313 2463 
Q 553 2551 761 2594 
Q 969 2638 1147 2638 
Q 1600 2638 1872 2432 
Q 2144 2226 2144 1888 
Q 2144 1454 1109 566 
Q 934 416 838 332 
z
" transform="scale(0.015625)"/>
     </defs>
     <use xlink:href="#DejaVuSans-52"/>
     <use xlink:href="#DejaVuSans-2082" transform="translate(69.482422 0)"/>
    </g>
   </g>
   <g id="text_5">
    <!-- R₃ -->
    <g transform="translate(329.028 71.143125) scale(0.14 -0.14)">
     <defs>
      <path id="DejaVuSans-2083" d="M 1638 1388 
Q 1925 1332 2083 1161 
Q 2241 991 2241 735 
Q 2241 347 1944 138 
Q 1647 -71 1094 -71 
Q 916 -71 720 -38 
Q 525 -6 306 57 
L 306 435 
Q 469 351 655 310 
Q 841 269 1050 269 
Q 1391 269 1578 392 
Q 1766 516 1766 735 
Q 1766 966 1592 1085 
Q 1419 1204 1081 1204 
L 813 1204 
L 813 1541 
L 1106 1541 
Q 1400 1541 1551 1639 
Q 1703 1738 1703 1926 
Q 1703 2107 1547 2202 
Q 1391 2297 1094 2297 
Q 969 2297 809 2269 
Q 650 2241 397 2169 
L 397 2529 
Q 625 2582 825 2610 
Q 1025 2638 1197 2638 
Q 1647 2638 1911 2453 
Q 2175 2269 2175 1960 
Q 2175 1744 2034 1594 
Q 1894 1444 1638 1388 
z
" transform="scale(0.015625)"/>
     </defs>
     <use xlink:href="#DejaVuSans-52"/>
     <use xlink:href="#DejaVuSans-2083" transform="translate(69.482422 0)"/>
    </g>
   </g>
   <g id="text_6">
    <!-- Is -->
    <g transform="translate(374.028 71.143125) scale(0.14 -0.14)">
     <defs>
      <path id="DejaVuSans-49" d="M 628 4666 
L 1259 4666 
L 1259 0 
L 628 0 
L 628 4666 
z
" transform="scale(0.015625)"/>
     </defs>
     <use xlink:href="#DejaVuSans-49"/>
     <use xlink:href="#DejaVuSans-73" transform="translate(29.492188 0)"/>
    </g>
   </g>
   <g id="patch_7">
    <path d="M 188.628 33.98 
C 189.344048 33.98 190.030866 33.695511 190.537188 33.189188 
C 191.043511 32.682866 191.328 31.996048 191.328 31.28 
C 191.328 30.563952 191.043511 29.877134 190.537188 29.370812 
C 190.030866 28.864489 189.344048 28.58 188.628 28.58 
C 187.911952 28.58 187.225134 28.864489 186.718812 29.370812 
C 186.212489 29.877134 185.928 30.563952 185.928 31.28 
C 185.928 31.996048 186.212489 32.682866 186.718812 33.189188 
C 187.225134 33.695511 187.911952 33.98 188.628 33.98 
z
" clip-path="url(#p1b450b52c4)" style="stroke: #000000; stroke-width: 2; stroke-linejoin: miter"/>
   </g>
   <g id="patch_8">
    <path d="M 314.628 15.98 
C 315.344048 15.98 316.030866 15.695511 316.537188 15.189188 
C 317.043511 14.682866 317.328 13.996048 317.328 13.28 
C 317.328 12.563952 317.043511 11.877134 316.537188 11.370812 
C 316.030866 10.864489 315.344048 10.58 314.628 10.58 
C 313.911952 10.58 313.225134 10.864489 312.718812 11.370812 
C 312.212489 11.877134 311.928 12.563952 311.928 13.28 
C 311.928 13.996048 312.212489 14.682866 312.718812 15.189188 
C 313.225134 15.695511 313.911952 15.98 314.628 15.98 
z
" clip-path="url(#p1b450b52c4)" style="stroke: #000000; stroke-width: 2; stroke-linejoin: miter"/>
   </g>
  </g>
 </g>
 <defs>
  <clipPath id="p1b450b52c4">
   <rect x="0" y="-0" width="390.048" height="149"/>
  </clipPath>
 </defs>
</svg>
