<?xml version="1.0" encoding="utf-8" standalone="no"?>
<!DOCTYPE svg PUBLIC "-//W3C//DTD SVG 1.1//EN"
  "http://www.w3.org/Graphics/SVG/1.1/DTD/svg11.dtd">
<svg xmlns:xlink="http://www.w3.org/1999/xlink" width="327.408pt" height="167pt" viewBox="0 0 327.408 167" xmlns="http://www.w3.org/2000/svg" version="1.1">
 <metadata>
  <rdf:RDF xmlns:dc="http://purl.org/dc/elements/1.1/" xmlns:cc="http://creativecommons.org/ns#" xmlns:rdf="http://www.w3.org/1999/02/22-rdf-syntax-ns#">
   <cc:Work>
    <dc:type rdf:resource="http://purl.org/dc/dcmitype/StillImage"/>
    <dc:date>2026-03-06T09:07:34.295686</dc:date>
    <dc:format>image/svg+xml</dc:format>
    <dc:creator>
     <cc:Agent>
      <dc:title>Matplotlib v3.10.8, https://matplotlib.org/</dc:title>
     </cc:Agent>
    </dc:creator>
   </cc:Work>
  </rdf:RDF>
 </metadata>
 <defs>
  <style type="text/css">*{stroke-linejoin: round; stroke-linecap: butt}</style>
 </defs>
 <g id="figure_1">
  <g id="patch_1">
   <path d="M 0 167 
L 327.408 167 
L 327.408 0 
L 0 0 
L 0 167 
z
" style="fill: none"/>
  </g>
  <g id="axes_1">
   <g id="patch_2">
    <path d="M 37.704 103.28 
C 42.477656 103.28 47.056438 101.383406 50.431922 98.007922 
C 53.807406 94.632438 55.704 90.053656 55.704 85.28 
C 55.704 80.506344 53.807406 75.927562 50.431922 72.552078 
C 47.056438 69.176594 42.477656 67.28 37.704 67.28 
C 32.930344 67.28 28.351562 69.176594 24.976078 72.552078 
C 21.600594 75.927562 19.704 80.506344 19.704 85.28 
C 19.704 90.053656 21.600594 94.632438 24.976078 98.007922 
C 28.351562 101.383406 32.930344 103.28 37.704 103.28 
L 37.704 103.28 
z
" clip-path="url(#pd36e53da4f)" style="fill: none; stroke: #000000; stroke-width: 2; stroke-linejoin: miter"/>
   </g>
   <g id="patch_3">
    <path d="M 289.704 103.28 
C 294.477656 103.28 299.056438 101.383406 302.431922 98.007922 
C 305.807406 94.632438 307.704 90.053656 307.704 85.28 
C 307.704 80.506344 305.807406 75.927562 302.431922 72.552078 
C 299.056438 69.176594 294.477656 67.28 289.704 67.28 
C 284.930344 67.28 280.351562 69.176594 276.976078 72.552078 
C 273.600594 75.927562 271.704 80.506344 271.704 85.28 
C 271.704 90.053656 273.600594 94.632438 276.976078 98.007922 
C 280.351562 101.383406 284.930344 103.28 289.704 103.28 
L 289.704 103.28 
z
" clip-path="url(#pd36e53da4f)" style="fill: none; stroke: #000000; stroke-width: 2; stroke-linejoin: miter"/>
   </g>
   <g id="line2d_1">
    <path d="M 37.704 139.28 
L 37.704 103.28 
L 37.704 103.28 
M 37.704 67.28 
L 37.704 67.28 
L 37.704 31.28 
" clip-path="url(#pd36e53da4f)" style="fill: none; stroke: #000000; stroke-width: 2; stroke-linecap: round"/>
   </g>
   <g id="line2d_2">
    <path d="M 41.304 94.28 
L 34.104 94.28 
" clip-path="url(#pd36e53da4f)" style="fill: none; stroke: #000000; stroke-width: 2; stroke-linecap: round"/>
   </g>
   <g id="line2d_3">
    <path d="M 37.704 79.88 
L 37.704 72.68 
" clip-path="url(#pd36e53da4f)" style="fill: none; stroke: #000000; stroke-width: 2; stroke-linecap: round"/>
   </g>
   <g id="line2d_4">
    <path d="M 41.304 76.28 
L 34.104 76.28 
" clip-path="url(#pd36e53da4f)" style="fill: none; stroke: #000000; stroke-width: 2; stroke-linecap: round"/>
   </g>
   <g id="line2d_5">
    <path d="M 37.704 31.28 
L 46.704 31.28 
L 55.704 31.28 
" clip-path="url(#pd36e53da4f)" style="fill: none; stroke: #000000; stroke-width: 2; stroke-linecap: round"/>
   </g>
   <g id="line2d_6">
    <path d="M 55.704 31.28 
L 91.704 31.28 
L 94.704 22.28 
L 100.704 40.28 
L 106.704 22.28 
L 112.704 40.28 
L 118.704 22.28 
L 124.704 40.28 
L 127.704 31.28 
L 163.704 31.28 
" clip-path="url(#pd36e53da4f)" style="fill: none; stroke: #000000; stroke-width: 2; stroke-linecap: round"/>
   </g>
   <g id="line2d_7">
    <path d="M 163.704 31.28 
L 163.704 67.28 
L 172.704 70.28 
L 154.704 76.28 
L 172.704 82.28 
L 154.704 88.28 
L 172.704 94.28 
L 154.704 100.28 
L 163.704 103.28 
L 163.704 139.28 
" clip-path="url(#pd36e53da4f)" style="fill: none; stroke: #000000; stroke-width: 2; stroke-linecap: round"/>
   </g>
   <g id="line2d_8">
    <path d="M 163.704 31.28 
L 199.704 31.28 
L 202.704 22.28 
L 208.704 40.28 
L 214.704 22.28 
L 220.704 40.28 
L 226.704 22.28 
L 232.704 40.28 
L 235.704 31.28 
L 271.704 31.28 
" clip-path="url(#pd36e53da4f)" style="fill: none; stroke: #000000; stroke-width: 2; stroke-linecap: round"/>
   </g>
   <g id="line2d_9">
    <path d="M 271.704 31.28 
L 280.704 31.28 
L 289.704 31.28 
" clip-path="url(#pd36e53da4f)" style="fill: none; stroke: #000000; stroke-width: 2; stroke-linecap: round"/>
   </g>
   <g id="line2d_10">
    <path d="M 289.704 31.28 
L 289.704 67.28 
L 289.704 67.28 
M 289.704 103.28 
L 289.704 103.28 
L 289.704 139.28 
" clip-path="url(#pd36e53da4f)" style="fill: none; stroke: #000000; stroke-width: 2; stroke-linecap: round"/>
   </g>
   <g id="line2d_11">
    <path d="M 286.104 76.28 
L 293.304 76.28 
" clip-path="url(#pd36e53da4f)" style="fill: none; stroke: #000000; stroke-width: 2; stroke-linecap: round"/>
   </g>
   <g id="line2d_12">
    <path d="M 289.704 90.68 
L 289.704 97.88 
" clip-path="url(#pd36e53da4f)" style="fill: none; stroke: #000000; stroke-width: 2; stroke-linecap: round"/>
   </g>
   <g id="line2d_13">
    <path d="M 286.104 94.28 
L 293.304 94.28 
" clip-path="url(#pd36e53da4f)" style="fill: none; stroke: #000000; stroke-width: 2; stroke-linecap: round"/>
   </g>
   <g id="line2d_14">
    <path d="M 289.704 139.28 
L 280.704 139.28 
L 271.704 139.28 
" clip-path="url(#pd36e53da4f)" style="fill: none; stroke: #000000; stroke-width: 2; stroke-linecap: round"/>
   </g>
   <g id="line2d_15">
    <path d="M 271.704 139.28 
L 235.704 139.28 
L 232.704 148.28 
L 226.704 130.28 
L 220.704 148.28 
L 214.704 130.28 
L 208.704 148.28 
L 202.704 130.28 
L 199.704 139.28 
L 163.704 139.28 
" clip-path="url(#pd36e53da4f)" style="fill: none; stroke: #000000; stroke-width: 2; stroke-linecap: round"/>
   </g>
   <g id="line2d_16">
    <path d="M 163.704 139.28 
L 154.704 139.28 
L 145.704 139.28 
" clip-path="url(#pd36e53da4f)" style="fill: none; stroke: #000000; stroke-width: 2; stroke-linecap: round"/>
   </g>
   <g id="line2d_17">
    <path d="M 145.704 139.28 
L 145.704 153.68 
L 136.704 153.68 
L 154.704 153.68 
M 139.404 158 
L 152.004 158 
M 143.904 162.32 
L 147.504 162.32 
" clip-path="url(#pd36e53da4f)" style="fill: none; stroke: #000000; stroke-width: 2; stroke-linecap: round"/>
   </g>
   <g id="line2d_18">
    <path d="M 145.704 139.28 
L 91.704 139.28 
L 37.704 139.28 
" clip-path="url(#pd36e53da4f)" style="fill: none; stroke: #000000; stroke-width: 2; stroke-linecap: round"/>
   </g>
   <g id="line2d_19">
    <path d="M 37.704 139.28 
L 37.704 139.28 
L 37.704 139.28 
" clip-path="url(#pd36e53da4f)" style="fill: none; stroke: #000000; stroke-width: 2; stroke-linecap: round"/>
   </g>
   <g id="text_1">
    <!-- Vs₁ -->
    <g transform="translate(4.862438 149.917812) scale(0.14 -0.14)">
     <defs>
      <path id="DejaVuSans-56" d="M 1831 0 
L 50 4666 
L 709 4666 
L 2188 738 
L 3669 4666 
L 4325 4666 
L 2547 0 
L 1831 0 
z
" transform="scale(0.015625)"/>
      <path id="DejaVuSans-73" d="M 2834 3397 
L 2834 2853 
Q 2591 2978 2328 3040 
Q 2066 3103 1784 3103 
Q 1356 3103 1142 2972 
Q 928 2841 928 2578 
Q 928 2378 1081 2264 
Q 1234 2150 1697 2047 
L 1894 2003 
Q 2506 1872 2764 1633 
Q 3022 1394 3022 966 
Q 3022 478 2636 193 
Q 2250 -91 1575 -91 
Q 1294 -91 989 -36 
Q 684 19 347 128 
L 347 722 
Q 666 556 975 473 
Q 1284 391 1588 391 
Q 1994 391 2212 530 
Q 2431 669 2431 922 
Q 2431 1156 2273 1281 
Q 2116 1406 1581 1522 
L 1381 1569 
Q 847 1681 609 1914 
Q 372 2147 372 2553 
Q 372 3047 722 3315 
Q 1072 3584 1716 3584 
Q 2034 3584 2315 3537 
Q 2597 3491 2834 3397 
z
" transform="scale(0.015625)"/>
      <path id="DejaVuSans-2081" d="M 488 319 
L 1125 319 
L 1125 2229 
L 428 2101 
L 428 2463 
L 1147 2585 
L 1575 2585 
L 1575 319 
L 2216 319 
L 2216 -24 
L 488 -24 
L 488 319 
z
" transform="scale(0.015625)"/>
     </defs>
     <use xlink:href="#DejaVuSans-56"/>
     <use xlink:href="#DejaVuSans-73" transform="translate(68.408203 0)"/>
     <use xlink:href="#DejaVuSans-2081" transform="translate(120.507812 0)"/>
    </g>
   </g>
   <g id="text_2">
    <!-- R₁ -->
    <g transform="translate(102.033531 15.768437) scale(0.14 -0.14)">
     <defs>
      <path id="DejaVuSans-52" d="M 2841 2188 
Q 3044 2119 3236 1894 
Q 3428 1669 3622 1275 
L 4263 0 
L 3584 0 
L 2988 1197 
Q 2756 1666 2539 1819 
Q 2322 1972 1947 1972 
L 1259 1972 
L 1259 0 
L 628 0 
L 628 4666 
L 2053 4666 
Q 2853 4666 3247 4331 
Q 3641 3997 3641 3322 
Q 3641 2881 3436 2590 
Q 3231 2300 2841 2188 
z
M 1259 4147 
L 1259 2491 
L 2053 2491 
Q 2509 2491 2742 2702 
Q 2975 2913 2975 3322 
Q 2975 3731 2742 3939 
Q 2509 4147 2053 4147 
L 1259 4147 
z
" transform="scale(0.015625)"/>
     </defs>
     <use xlink:href="#DejaVuSans-52"/>
     <use xlink:href="#DejaVuSans-2081" transform="translate(69.482422 0)"/>
    </g>
   </g>
   <g id="text_3">
    <!-- R₂ -->
    <g transform="translate(177.633531 28.368437) scale(0.14 -0.14)">
     <defs>
      <path id="DejaVuSans-2082" d="M 838 332 
L 2163 332 
L 2163 -24 
L 294 -24 
L 294 319 
Q 400 416 597 591 
Q 1672 1544 1672 1838 
Q 1672 2044 1509 2170 
Q 1347 2297 1081 2297 
Q 919 2297 728 2242 
Q 538 2188 313 2079 
L 313 2463 
Q 553 2551 761 2594 
Q 969 2638 1147 2638 
Q 1600 2638 1872 2432 
Q 2144 2226 2144 1888 
Q 2144 1454 1109 566 
Q 934 416 838 332 
z
" transform="scale(0.015625)"/>
     </defs>
     <use xlink:href="#DejaVuSans-52"/>
     <use xlink:href="#DejaVuSans-2082" transform="translate(69.482422 0)"/>
    </g>
   </g>
   <g id="text_4">
    <!-- R₃ -->
    <g transform="translate(210.033531 15.768437) scale(0.14 -0.14)">
     <defs>
      <path id="DejaVuSans-2083" d="M 1638 1388 
Q 1925 1332 2083 1161 
Q 2241 991 2241 735 
Q 2241 347 1944 138 
Q 1647 -71 1094 -71 
Q 916 -71 720 -38 
Q 525 -6 306 57 
L 306 435 
Q 469 351 655 310 
Q 841 269 1050 269 
Q 1391 269 1578 392 
Q 1766 516 1766 735 
Q 1766 966 1592 1085 
Q 1419 1204 1081 1204 
L 813 1204 
L 813 1541 
L 1106 1541 
Q 1400 1541 1551 1639 
Q 1703 1738 1703 1926 
Q 1703 2107 1547 2202 
Q 1391 2297 1094 2297 
Q 969 2297 809 2269 
Q 650 2241 397 2169 
L 397 2529 
Q 625 2582 825 2610 
Q 1025 2638 1197 2638 
Q 1647 2638 1911 2453 
Q 2175 2269 2175 1960 
Q 2175 1744 2034 1594 
Q 1894 1444 1638 1388 
z
" transform="scale(0.015625)"/>
     </defs>
     <use xlink:href="#DejaVuSans-52"/>
     <use xlink:href="#DejaVuSans-2083" transform="translate(69.482422 0)"/>
    </g>
   </g>
   <g id="text_5">
    <!-- Vs₂ -->
    <g transform="translate(300.062437 28.368437) scale(0.14 -0.14)">
     <use xlink:href="#DejaVuSans-56"/>
     <use xlink:href="#DejaVuSans-73" transform="translate(68.408203 0)"/>
     <use xlink:href="#DejaVuSans-2082" transform="translate(120.507812 0)"/>
    </g>
   </g>
   <g id="text_6">
    <!-- R₄ -->
    <g transform="translate(210.033531 123.768437) scale(0.14 -0.14)">
     <defs>
      <path id="DejaVuSans-2084" d="M 1491 2207 
L 525 897 
L 1491 897 
L 1491 2207 
z
M 1422 2585 
L 1941 2585 
L 1941 897 
L 2363 897 
L 2363 557 
L 1941 557 
L 1941 -24 
L 1491 -24 
L 1491 557 
L 197 557 
L 197 935 
L 1422 2585 
z
" transform="scale(0.015625)"/>
     </defs>
     <use xlink:href="#DejaVuSans-52"/>
     <use xlink:href="#DejaVuSans-2084" transform="translate(69.482422 0)"/>
    </g>
   </g>
   <g id="patch_4">
    <path d="M 163.704 33.98 
C 164.420048 33.98 165.106866 33.695511 165.613188 33.189188 
C 166.119511 32.682866 166.404 31.996048 166.404 31.28 
C 166.404 30.563952 166.119511 29.877134 165.613188 29.370812 
C 165.106866 28.864489 164.420048 28.58 163.704 28.58 
C 162.987952 28.58 162.301134 28.864489 161.794812 29.370812 
C 161.288489 29.877134 161.004 30.563952 161.004 31.28 
C 161.004 31.996048 161.288489 32.682866 161.794812 33.189188 
C 162.301134 33.695511 162.987952 33.98 163.704 33.98 
z
" clip-path="url(#pd36e53da4f)" style="stroke: #000000; stroke-width: 2; stroke-linejoin: miter"/>
   </g>
   <g id="patch_5">
    <path d="M 163.704 141.98 
C 164.420048 141.98 165.106866 141.695511 165.613188 141.189188 
C 166.119511 140.682866 166.404 139.996048 166.404 139.28 
C 166.404 138.563952 166.119511 137.877134 165.613188 137.370812 
C 165.106866 136.864489 164.420048 136.58 163.704 136.58 
C 162.987952 136.58 162.301134 136.864489 161.794812 137.370812 
C 161.288489 137.877134 161.004 138.563952 161.004 139.28 
C 161.004 139.996048 161.288489 140.682866 161.794812 141.189188 
C 162.301134 141.695511 162.987952 141.98 163.704 141.98 
z
" clip-path="url(#pd36e53da4f)" style="stroke: #000000; stroke-width: 2; stroke-linejoin: miter"/>
   </g>
   <g id="line2d_20">
    <path d="M 37.704 124.88 
L 37.704 124.88 
" clip-path="url(#pd36e53da4f)" style="fill: none; stroke: #000000; stroke-width: 2; stroke-linecap: round"/>
   </g>
   <g id="patch_6">
    <path d="M 32.304 124.88 
L 37.704 114.08 
L 43.104 124.88 
z
" clip-path="url(#pd36e53da4f)"/>
   </g>
   <g id="text_7">
    <!-- i₁ -->
    <g transform="translate(18.08025 123.067187) scale(0.13 -0.13)">
     <defs>
      <path id="DejaVuSans-69" d="M 603 3500 
L 1178 3500 
L 1178 0 
L 603 0 
L 603 3500 
z
M 603 4863 
L 1178 4863 
L 1178 4134 
L 603 4134 
L 603 4863 
z
" transform="scale(0.015625)"/>
     </defs>
     <use xlink:href="#DejaVuSans-69"/>
     <use xlink:href="#DejaVuSans-2081" transform="translate(27.783203 0)"/>
    </g>
   </g>
   <g id="line2d_21">
    <path d="M 289.704 124.88 
L 289.704 124.88 
" clip-path="url(#pd36e53da4f)" style="fill: none; stroke: #000000; stroke-width: 2; stroke-linecap: round"/>
   </g>
   <g id="patch_7">
    <path d="M 284.304 124.88 
L 289.704 114.08 
L 295.104 124.88 
z
" clip-path="url(#pd36e53da4f)"/>
   </g>
   <g id="text_8">
    <!-- i₂ -->
    <g transform="translate(270.08025 123.067187) scale(0.13 -0.13)">
     <use xlink:href="#DejaVuSans-69"/>
     <use xlink:href="#DejaVuSans-2082" transform="translate(27.783203 0)"/>
    </g>
   </g>
  </g>
 </g>
 <defs>
  <clipPath id="pd36e53da4f">
   <rect x="0" y="-0" width="327.408" height="167"/>
  </clipPath>
 </defs>
</svg>
