<?xml version="1.0" encoding="utf-8" standalone="no"?>
<!DOCTYPE svg PUBLIC "-//W3C//DTD SVG 1.1//EN"
  "http://www.w3.org/Graphics/SVG/1.1/DTD/svg11.dtd">
<svg xmlns:xlink="http://www.w3.org/1999/xlink" width="227.118pt" height="163.36pt" viewBox="0 0 227.118 163.36" xmlns="http://www.w3.org/2000/svg" version="1.1">
 <metadata>
  <rdf:RDF xmlns:dc="http://purl.org/dc/elements/1.1/" xmlns:cc="http://creativecommons.org/ns#" xmlns:rdf="http://www.w3.org/1999/02/22-rdf-syntax-ns#">
   <cc:Work>
    <dc:type rdf:resource="http://purl.org/dc/dcmitype/StillImage"/>
    <dc:date>2026-03-06T09:07:41.032984</dc:date>
    <dc:format>image/svg+xml</dc:format>
    <dc:creator>
     <cc:Agent>
      <dc:title>Matplotlib v3.10.8, https://matplotlib.org/</dc:title>
     </cc:Agent>
    </dc:creator>
   </cc:Work>
  </rdf:RDF>
 </metadata>
 <defs>
  <style type="text/css">*{stroke-linejoin: round; stroke-linecap: butt}</style>
 </defs>
 <g id="figure_1">
  <g id="patch_1">
   <path d="M 0 163.36 
L 227.118 163.36 
L 227.118 0 
L 0 0 
L 0 163.36 
z
" style="fill: none"/>
  </g>
  <g id="axes_1">
   <g id="patch_2">
    <path d="M 30.984 108.68 
C 35.757656 108.68 40.336438 106.783406 43.711922 103.407922 
C 47.087406 100.032438 48.984 95.453656 48.984 90.68 
C 48.984 85.906344 47.087406 81.327562 43.711922 77.952078 
C 40.336438 74.576594 35.757656 72.68 30.984 72.68 
C 26.210344 72.68 21.631562 74.576594 18.256078 77.952078 
C 14.880594 81.327562 12.984 85.906344 12.984 90.68 
C 12.984 95.453656 14.880594 100.032438 18.256078 103.407922 
C 21.631562 106.783406 26.210344 108.68 30.984 108.68 
L 30.984 108.68 
z
" clip-path="url(#p48257b7968)" style="fill: none; stroke: #000000; stroke-width: 2; stroke-linejoin: miter"/>
   </g>
   <g id="patch_3">
    <path d="M 68.148686 32.333334 
C 70.478057 23.640001 71.484 18.68 84.984 18.68 
" clip-path="url(#p48257b7968)" style="fill: none; stroke: #000000; stroke-width: 2; stroke-linejoin: miter; stroke-linecap: round"/>
   </g>
   <g id="patch_4">
    <path d="M 72.790704 28.918416 
L 66.984 36.68 
L 65.836038 27.054919 
z
" clip-path="url(#p48257b7968)"/>
   </g>
   <g id="line2d_1">
    <path d="M 30.984 144.68 
L 30.984 108.68 
L 30.984 108.68 
M 30.984 72.68 
L 30.984 72.68 
L 30.984 36.68 
" clip-path="url(#p48257b7968)" style="fill: none; stroke: #000000; stroke-width: 2; stroke-linecap: round"/>
   </g>
   <g id="line2d_2">
    <path d="M 34.584 99.68 
L 27.384 99.68 
" clip-path="url(#p48257b7968)" style="fill: none; stroke: #000000; stroke-width: 2; stroke-linecap: round"/>
   </g>
   <g id="line2d_3">
    <path d="M 30.984 85.28 
L 30.984 78.08 
" clip-path="url(#p48257b7968)" style="fill: none; stroke: #000000; stroke-width: 2; stroke-linecap: round"/>
   </g>
   <g id="line2d_4">
    <path d="M 34.584 81.68 
L 27.384 81.68 
" clip-path="url(#p48257b7968)" style="fill: none; stroke: #000000; stroke-width: 2; stroke-linecap: round"/>
   </g>
   <g id="line2d_5">
    <path d="M 30.984 36.68 
L 48.984 36.68 
L 66.984 36.68 
" clip-path="url(#p48257b7968)" style="fill: none; stroke: #000000; stroke-width: 2; stroke-linecap: round"/>
   </g>
   <g id="line2d_6">
    <path d="M 84.984 18.68 
L 84.984 69.44 
M 93.984 69.44 
L 75.984 69.44 
M 93.984 75.92 
L 75.984 75.92 
M 84.984 75.92 
L 84.984 126.68 
" clip-path="url(#p48257b7968)" style="fill: none; stroke: #000000; stroke-width: 2; stroke-linecap: round"/>
   </g>
   <g id="line2d_7">
    <path d="M 84.984 18.68 
L 138.984 18.68 
L 192.984 18.68 
" clip-path="url(#p48257b7968)" style="fill: none; stroke: #000000; stroke-width: 2; stroke-linecap: round"/>
   </g>
   <g id="line2d_8">
    <path d="M 192.984 18.68 
L 192.984 69.44 
M 201.984 69.44 
L 183.984 69.44 
M 201.984 75.92 
L 183.984 75.92 
M 192.984 75.92 
L 192.984 126.68 
" clip-path="url(#p48257b7968)" style="fill: none; stroke: #000000; stroke-width: 2; stroke-linecap: round"/>
   </g>
   <g id="line2d_9">
    <path d="M 192.984 126.68 
L 138.984 126.68 
L 84.984 126.68 
" clip-path="url(#p48257b7968)" style="fill: none; stroke: #000000; stroke-width: 2; stroke-linecap: round"/>
   </g>
   <g id="line2d_10">
    <path d="M 138.984 126.68 
L 138.984 141.08 
L 129.984 141.08 
L 147.984 141.08 
M 132.684 145.4 
L 145.284 145.4 
M 137.184 149.72 
L 140.784 149.72 
" clip-path="url(#p48257b7968)" style="fill: none; stroke: #000000; stroke-width: 2; stroke-linecap: round"/>
   </g>
   <g id="line2d_11">
    <path d="M 84.984 126.68 
L 57.984 126.68 
L 30.984 126.68 
" clip-path="url(#p48257b7968)" style="fill: none; stroke: #000000; stroke-width: 2; stroke-linecap: round"/>
   </g>
   <g id="line2d_12">
    <path d="M 30.984 126.68 
L 30.984 117.68 
L 30.984 108.68 
" clip-path="url(#p48257b7968)" style="fill: none; stroke: #000000; stroke-width: 2; stroke-linecap: round"/>
   </g>
   <g id="text_1">
    <!-- V -->
    <g transform="translate(4.595562 155.317813) scale(0.14 -0.14)">
     <defs>
      <path id="DejaVuSans-56" d="M 1831 0 
L 50 4666 
L 709 4666 
L 2188 738 
L 3669 4666 
L 4325 4666 
L 2547 0 
L 1831 0 
z
" transform="scale(0.015625)"/>
     </defs>
     <use xlink:href="#DejaVuSans-56"/>
    </g>
   </g>
   <g id="text_2">
    <!-- P -->
    <g style="fill: #ff0000" transform="translate(88.584 22.543125) scale(0.14 -0.14)">
     <defs>
      <path id="DejaVuSans-50" d="M 1259 4147 
L 1259 2394 
L 2053 2394 
Q 2494 2394 2734 2622 
Q 2975 2850 2975 3272 
Q 2975 3691 2734 3919 
Q 2494 4147 2053 4147 
L 1259 4147 
z
M 628 4666 
L 2053 4666 
Q 2838 4666 3239 4311 
Q 3641 3956 3641 3272 
Q 3641 2581 3239 2228 
Q 2838 1875 2053 1875 
L 1259 1875 
L 1259 0 
L 628 0 
L 628 4666 
z
" transform="scale(0.015625)"/>
     </defs>
     <use xlink:href="#DejaVuSans-50"/>
    </g>
   </g>
   <g id="text_3">
    <!-- C₁ -->
    <g transform="translate(98.889469 15.768437) scale(0.14 -0.14)">
     <defs>
      <path id="DejaVuSans-43" d="M 4122 4306 
L 4122 3641 
Q 3803 3938 3442 4084 
Q 3081 4231 2675 4231 
Q 1875 4231 1450 3742 
Q 1025 3253 1025 2328 
Q 1025 1406 1450 917 
Q 1875 428 2675 428 
Q 3081 428 3442 575 
Q 3803 722 4122 1019 
L 4122 359 
Q 3791 134 3420 21 
Q 3050 -91 2638 -91 
Q 1578 -91 968 557 
Q 359 1206 359 2328 
Q 359 3453 968 4101 
Q 1578 4750 2638 4750 
Q 3056 4750 3426 4639 
Q 3797 4528 4122 4306 
z
" transform="scale(0.015625)"/>
      <path id="DejaVuSans-2081" d="M 488 319 
L 1125 319 
L 1125 2229 
L 428 2101 
L 428 2463 
L 1147 2585 
L 1575 2585 
L 1575 319 
L 2216 319 
L 2216 -24 
L 488 -24 
L 488 319 
z
" transform="scale(0.015625)"/>
     </defs>
     <use xlink:href="#DejaVuSans-43"/>
     <use xlink:href="#DejaVuSans-2081" transform="translate(69.824219 0)"/>
    </g>
   </g>
   <g id="text_4">
    <!-- C₂ -->
    <g transform="translate(206.889469 15.768437) scale(0.14 -0.14)">
     <defs>
      <path id="DejaVuSans-2082" d="M 838 332 
L 2163 332 
L 2163 -24 
L 294 -24 
L 294 319 
Q 400 416 597 591 
Q 1672 1544 1672 1838 
Q 1672 2044 1509 2170 
Q 1347 2297 1081 2297 
Q 919 2297 728 2242 
Q 538 2188 313 2079 
L 313 2463 
Q 553 2551 761 2594 
Q 969 2638 1147 2638 
Q 1600 2638 1872 2432 
Q 2144 2226 2144 1888 
Q 2144 1454 1109 566 
Q 934 416 838 332 
z
" transform="scale(0.015625)"/>
     </defs>
     <use xlink:href="#DejaVuSans-43"/>
     <use xlink:href="#DejaVuSans-2082" transform="translate(69.824219 0)"/>
    </g>
   </g>
   <g id="patch_5">
    <path d="M 66.984 39.38 
C 67.700048 39.38 68.386866 39.095511 68.893188 38.589188 
C 69.399511 38.082866 69.684 37.396048 69.684 36.68 
C 69.684 35.963952 69.399511 35.277134 68.893188 34.770812 
C 68.386866 34.264489 67.700048 33.98 66.984 33.98 
C 66.267952 33.98 65.581134 34.264489 65.074812 34.770812 
C 64.568489 35.277134 64.284 35.963952 64.284 36.68 
C 64.284 37.396048 64.568489 38.082866 65.074812 38.589188 
C 65.581134 39.095511 66.267952 39.38 66.984 39.38 
z
" clip-path="url(#p48257b7968)" style="stroke: #000000; stroke-width: 2; stroke-linejoin: miter"/>
   </g>
   <g id="patch_6">
    <path d="M 192.984 21.38 
C 193.700048 21.38 194.386866 21.095511 194.893188 20.589188 
C 195.399511 20.082866 195.684 19.396048 195.684 18.68 
C 195.684 17.963952 195.399511 17.277134 194.893188 16.770812 
C 194.386866 16.264489 193.700048 15.98 192.984 15.98 
C 192.267952 15.98 191.581134 16.264489 191.074812 16.770812 
C 190.568489 17.277134 190.284 17.963952 190.284 18.68 
C 190.284 19.396048 190.568489 20.082866 191.074812 20.589188 
C 191.581134 21.095511 192.267952 21.38 192.984 21.38 
z
" clip-path="url(#p48257b7968)" style="stroke: #000000; stroke-width: 2; stroke-linejoin: miter"/>
   </g>
   <g id="line2d_13">
    <path d="M 30.984 76.28 
L 30.984 76.28 
" clip-path="url(#p48257b7968)" style="fill: none; stroke: #000000; stroke-width: 2; stroke-linecap: round"/>
   </g>
   <g id="patch_7">
    <path d="M 25.584 76.28 
L 30.984 65.48 
L 36.384 76.28 
z
" clip-path="url(#p48257b7968)"/>
   </g>
   <g id="text_5">
    <!-- i -->
    <g transform="translate(16.572437 74.467187) scale(0.13 -0.13)">
     <defs>
      <path id="DejaVuSans-69" d="M 603 3500 
L 1178 3500 
L 1178 0 
L 603 0 
L 603 3500 
z
M 603 4863 
L 1178 4863 
L 1178 4134 
L 603 4134 
L 603 4863 
z
" transform="scale(0.015625)"/>
     </defs>
     <use xlink:href="#DejaVuSans-69"/>
    </g>
   </g>
  </g>
 </g>
 <defs>
  <clipPath id="p48257b7968">
   <rect x="0" y="-0" width="227.118" height="163.36"/>
  </clipPath>
 </defs>
</svg>
