<?xml version="1.0" encoding="utf-8" standalone="no"?>
<!DOCTYPE svg PUBLIC "-//W3C//DTD SVG 1.1//EN"
  "http://www.w3.org/Graphics/SVG/1.1/DTD/svg11.dtd">
<svg xmlns:xlink="http://www.w3.org/1999/xlink" width="285.599989pt" height="192.56pt" viewBox="0 0 285.599989 192.56" xmlns="http://www.w3.org/2000/svg" version="1.1">
 <metadata>
  <rdf:RDF xmlns:dc="http://purl.org/dc/elements/1.1/" xmlns:cc="http://creativecommons.org/ns#" xmlns:rdf="http://www.w3.org/1999/02/22-rdf-syntax-ns#">
   <cc:Work>
    <dc:type rdf:resource="http://purl.org/dc/dcmitype/StillImage"/>
    <dc:date>2026-03-05T18:37:14.853594</dc:date>
    <dc:format>image/svg+xml</dc:format>
    <dc:creator>
     <cc:Agent>
      <dc:title>Matplotlib v3.10.8, https://matplotlib.org/</dc:title>
     </cc:Agent>
    </dc:creator>
   </cc:Work>
  </rdf:RDF>
 </metadata>
 <defs>
  <style type="text/css">*{stroke-linejoin: round; stroke-linecap: butt}</style>
 </defs>
 <g id="figure_1">
  <g id="patch_1">
   <path d="M 0 192.56 
L 285.599989 192.56 
L 285.599989 0 
L 0 0 
L 0 192.56 
z
" style="fill: none"/>
  </g>
  <g id="axes_1">
   <g id="patch_2">
    <path d="M 22.68 127.08 
C 27.453656 127.08 32.032438 125.183406 35.407922 121.807922 
C 38.783406 118.432438 40.68 113.853656 40.68 109.08 
C 40.68 104.306344 38.783406 99.727562 35.407922 96.352078 
C 32.032438 92.976594 27.453656 91.08 22.68 91.08 
C 17.906344 91.08 13.327562 92.976594 9.952078 96.352078 
C 6.576594 99.727562 4.68 104.306344 4.68 109.08 
C 4.68 113.853656 6.576594 118.432438 9.952078 121.807922 
C 13.327562 125.183406 17.906344 127.08 22.68 127.08 
L 22.68 127.08 
z
" clip-path="url(#p97be1fb76e)" style="fill: none; stroke: #000000; stroke-width: 2; stroke-linejoin: miter"/>
   </g>
   <g id="patch_3">
    <path d="M 274.68 100.08 
C 275.873016 100.08 277.01839 99.605571 277.861981 98.761981 
C 278.705571 97.91839 279.18 96.773016 279.18 95.58 
C 279.18 94.386984 278.705571 93.24161 277.861981 92.398019 
C 277.01839 91.554429 275.873016 91.08 274.68 91.08 
" clip-path="url(#p97be1fb76e)" style="fill: none; stroke: #000000; stroke-width: 2; stroke-linejoin: miter"/>
   </g>
   <g id="patch_4">
    <path d="M 274.68 109.08 
C 275.873016 109.08 277.01839 108.605571 277.861981 107.761981 
C 278.705571 106.91839 279.18 105.773016 279.18 104.58 
C 279.18 103.386984 278.705571 102.24161 277.861981 101.398019 
C 277.01839 100.554429 275.873016 100.08 274.68 100.08 
" clip-path="url(#p97be1fb76e)" style="fill: none; stroke: #000000; stroke-width: 2; stroke-linejoin: miter"/>
   </g>
   <g id="patch_5">
    <path d="M 274.68 118.08 
C 275.873016 118.08 277.01839 117.605571 277.861981 116.761981 
C 278.705571 115.91839 279.18 114.773016 279.18 113.58 
C 279.18 112.386984 278.705571 111.24161 277.861981 110.398019 
C 277.01839 109.554429 275.873016 109.08 274.68 109.08 
" clip-path="url(#p97be1fb76e)" style="fill: none; stroke: #000000; stroke-width: 2; stroke-linejoin: miter"/>
   </g>
   <g id="patch_6">
    <path d="M 274.68 127.08 
C 275.873016 127.08 277.01839 126.605571 277.861981 125.761981 
C 278.705571 124.91839 279.18 123.773016 279.18 122.58 
C 279.18 121.386984 278.705571 120.24161 277.861981 119.398019 
C 277.01839 118.554429 275.873016 118.08 274.68 118.08 
" clip-path="url(#p97be1fb76e)" style="fill: none; stroke: #000000; stroke-width: 2; stroke-linejoin: miter"/>
   </g>
   <g id="line2d_1">
    <path d="M 22.68 163.08 
L 22.68 127.08 
L 22.68 127.08 
M 22.68 91.08 
L 22.68 91.08 
L 22.68 55.08 
" clip-path="url(#p97be1fb76e)" style="fill: none; stroke: #000000; stroke-width: 2; stroke-linecap: round"/>
   </g>
   <g id="line2d_2">
    <path d="M 26.28 118.08 
L 19.08 118.08 
" clip-path="url(#p97be1fb76e)" style="fill: none; stroke: #000000; stroke-width: 2; stroke-linecap: round"/>
   </g>
   <g id="line2d_3">
    <path d="M 22.68 103.68 
L 22.68 96.48 
" clip-path="url(#p97be1fb76e)" style="fill: none; stroke: #000000; stroke-width: 2; stroke-linecap: round"/>
   </g>
   <g id="line2d_4">
    <path d="M 26.28 100.08 
L 19.08 100.08 
" clip-path="url(#p97be1fb76e)" style="fill: none; stroke: #000000; stroke-width: 2; stroke-linecap: round"/>
   </g>
   <g id="line2d_5">
    <path d="M 22.68 55.08 
L 31.68 55.08 
L 40.68 55.08 
" clip-path="url(#p97be1fb76e)" style="fill: none; stroke: #000000; stroke-width: 2; stroke-linecap: round"/>
   </g>
   <g id="line2d_6">
    <path d="M 40.68 55.08 
L 76.68 55.08 
M 85.32 51.48 
L 105.48 38.88 
M 112.68 55.08 
L 148.68 55.08 
" clip-path="url(#p97be1fb76e)" style="fill: none; stroke: #000000; stroke-width: 2; stroke-linecap: round"/>
   </g>
   <g id="line2d_7">
    <path d="M 148.68 55.08 
L 184.68 55.08 
L 187.68 46.08 
L 193.68 64.08 
L 199.68 46.08 
L 205.68 64.08 
L 211.68 46.08 
L 217.68 64.08 
L 220.68 55.08 
L 256.68 55.08 
" clip-path="url(#p97be1fb76e)" style="fill: none; stroke: #000000; stroke-width: 2; stroke-linecap: round"/>
   </g>
   <g id="line2d_8">
    <path d="M 256.68 55.08 
L 265.68 55.08 
L 274.68 55.08 
" clip-path="url(#p97be1fb76e)" style="fill: none; stroke: #000000; stroke-width: 2; stroke-linecap: round"/>
   </g>
   <g id="line2d_9">
    <path d="M 274.68 55.08 
L 274.68 91.08 
M 274.68 127.08 
L 274.68 163.08 
" clip-path="url(#p97be1fb76e)" style="fill: none; stroke: #000000; stroke-width: 2; stroke-linecap: round"/>
   </g>
   <g id="line2d_10">
    <path d="M 274.68 163.08 
L 238.68 163.08 
L 202.68 163.08 
" clip-path="url(#p97be1fb76e)" style="fill: none; stroke: #000000; stroke-width: 2; stroke-linecap: round"/>
   </g>
   <g id="line2d_11">
    <path d="M 202.68 163.08 
L 202.68 177.48 
L 193.68 177.48 
L 211.68 177.48 
M 196.38 181.8 
L 208.98 181.8 
M 200.88 186.12 
L 204.48 186.12 
" clip-path="url(#p97be1fb76e)" style="fill: none; stroke: #000000; stroke-width: 2; stroke-linecap: round"/>
   </g>
   <g id="line2d_12">
    <path d="M 202.68 163.08 
L 112.68 163.08 
L 22.68 163.08 
" clip-path="url(#p97be1fb76e)" style="fill: none; stroke: #000000; stroke-width: 2; stroke-linecap: round"/>
   </g>
   <g id="line2d_13">
    <path d="M 22.68 163.08 
L 22.68 163.08 
L 22.68 163.08 
" clip-path="url(#p97be1fb76e)" style="fill: none; stroke: #000000; stroke-width: 2; stroke-linecap: round"/>
   </g>
   <g id="text_1">
    <!-- Vs -->
    <g transform="translate(14.245 184.517812) scale(0.14 -0.14)">
     <defs>
      <path id="DejaVuSans-56" d="M 1831 0 
L 50 4666 
L 709 4666 
L 2188 738 
L 3669 4666 
L 4325 4666 
L 2547 0 
L 1831 0 
z
" transform="scale(0.015625)"/>
      <path id="DejaVuSans-73" d="M 2834 3397 
L 2834 2853 
Q 2591 2978 2328 3040 
Q 2066 3103 1784 3103 
Q 1356 3103 1142 2972 
Q 928 2841 928 2578 
Q 928 2378 1081 2264 
Q 1234 2150 1697 2047 
L 1894 2003 
Q 2506 1872 2764 1633 
Q 3022 1394 3022 966 
Q 3022 478 2636 193 
Q 2250 -91 1575 -91 
Q 1294 -91 989 -36 
Q 684 19 347 128 
L 347 722 
Q 666 556 975 473 
Q 1284 391 1588 391 
Q 1994 391 2212 530 
Q 2431 669 2431 922 
Q 2431 1156 2273 1281 
Q 2116 1406 1581 1522 
L 1381 1569 
Q 847 1681 609 1914 
Q 372 2147 372 2553 
Q 372 3047 722 3315 
Q 1072 3584 1716 3584 
Q 2034 3584 2315 3537 
Q 2597 3491 2834 3397 
z
" transform="scale(0.015625)"/>
     </defs>
     <use xlink:href="#DejaVuSans-56"/>
     <use xlink:href="#DejaVuSans-73" transform="translate(68.408203 0)"/>
    </g>
   </g>
   <g id="patch_7">
    <path d="M 81 59.4 
C 82.145677 59.4 83.244585 58.944818 84.054701 58.134701 
C 84.864818 57.324585 85.32 56.225677 85.32 55.08 
C 85.32 53.934323 84.864818 52.835415 84.054701 52.025299 
C 83.244585 51.215182 82.145677 50.76 81 50.76 
C 79.854323 50.76 78.755415 51.215182 77.945299 52.025299 
C 77.135182 52.835415 76.68 53.934323 76.68 55.08 
C 76.68 56.225677 77.135182 57.324585 77.945299 58.134701 
C 78.755415 58.944818 79.854323 59.4 81 59.4 
z
" clip-path="url(#p97be1fb76e)" style="fill: #ffffff; stroke: #000000; stroke-width: 2; stroke-linejoin: miter"/>
   </g>
   <g id="patch_8">
    <path d="M 108.36 59.4 
C 109.505677 59.4 110.604585 58.944818 111.414701 58.134701 
C 112.224818 57.324585 112.68 56.225677 112.68 55.08 
C 112.68 53.934323 112.224818 52.835415 111.414701 52.025299 
C 110.604585 51.215182 109.505677 50.76 108.36 50.76 
C 107.214323 50.76 106.115415 51.215182 105.305299 52.025299 
C 104.495182 52.835415 104.04 53.934323 104.04 55.08 
C 104.04 56.225677 104.495182 57.324585 105.305299 58.134701 
C 106.115415 58.944818 107.214323 59.4 108.36 59.4 
z
" clip-path="url(#p97be1fb76e)" style="fill: #ffffff; stroke: #000000; stroke-width: 2; stroke-linejoin: miter"/>
   </g>
   <g id="text_2">
    <!-- S -->
    <g transform="translate(90.236094 32.368437) scale(0.14 -0.14)">
     <defs>
      <path id="DejaVuSans-53" d="M 3425 4513 
L 3425 3897 
Q 3066 4069 2747 4153 
Q 2428 4238 2131 4238 
Q 1616 4238 1336 4038 
Q 1056 3838 1056 3469 
Q 1056 3159 1242 3001 
Q 1428 2844 1947 2747 
L 2328 2669 
Q 3034 2534 3370 2195 
Q 3706 1856 3706 1288 
Q 3706 609 3251 259 
Q 2797 -91 1919 -91 
Q 1588 -91 1214 -16 
Q 841 59 441 206 
L 441 856 
Q 825 641 1194 531 
Q 1563 422 1919 422 
Q 2459 422 2753 634 
Q 3047 847 3047 1241 
Q 3047 1584 2836 1778 
Q 2625 1972 2144 2069 
L 1759 2144 
Q 1053 2284 737 2584 
Q 422 2884 422 3419 
Q 422 4038 858 4394 
Q 1294 4750 2059 4750 
Q 2388 4750 2728 4690 
Q 3069 4631 3425 4513 
z
" transform="scale(0.015625)"/>
     </defs>
     <use xlink:href="#DejaVuSans-53"/>
    </g>
   </g>
   <g id="text_3">
    <!-- R -->
    <g transform="translate(197.816094 39.568437) scale(0.14 -0.14)">
     <defs>
      <path id="DejaVuSans-52" d="M 2841 2188 
Q 3044 2119 3236 1894 
Q 3428 1669 3622 1275 
L 4263 0 
L 3584 0 
L 2988 1197 
Q 2756 1666 2539 1819 
Q 2322 1972 1947 1972 
L 1259 1972 
L 1259 0 
L 628 0 
L 628 4666 
L 2053 4666 
Q 2853 4666 3247 4331 
Q 3641 3997 3641 3322 
Q 3641 2881 3436 2590 
Q 3231 2300 2841 2188 
z
M 1259 4147 
L 1259 2491 
L 2053 2491 
Q 2509 2491 2742 2702 
Q 2975 2913 2975 3322 
Q 2975 3731 2742 3939 
Q 2509 4147 2053 4147 
L 1259 4147 
z
" transform="scale(0.015625)"/>
     </defs>
     <use xlink:href="#DejaVuSans-52"/>
    </g>
   </g>
   <g id="text_4">
    <!-- L -->
    <g transform="translate(273.029676 62.968437) scale(0.14 -0.14)">
     <defs>
      <path id="DejaVuSans-4c" d="M 628 4666 
L 1259 4666 
L 1259 531 
L 3531 531 
L 3531 0 
L 628 0 
L 628 4666 
z
" transform="scale(0.015625)"/>
     </defs>
     <use xlink:href="#DejaVuSans-4c"/>
    </g>
   </g>
   <g id="line2d_14">
    <path d="M 94.68 15.48 
L 94.68 15.48 
" clip-path="url(#p97be1fb76e)" style="fill: none; stroke: #000000; stroke-width: 2; stroke-linecap: round"/>
   </g>
   <g id="patch_9">
    <path d="M 100.08 15.48 
L 94.68 26.28 
L 89.28 15.48 
z
" clip-path="url(#p97be1fb76e)"/>
   </g>
   <g id="text_5">
    <!-- i(t) -->
    <g transform="translate(65.027969 24.467187) scale(0.13 -0.13)">
     <defs>
      <path id="DejaVuSans-69" d="M 603 3500 
L 1178 3500 
L 1178 0 
L 603 0 
L 603 3500 
z
M 603 4863 
L 1178 4863 
L 1178 4134 
L 603 4134 
L 603 4863 
z
" transform="scale(0.015625)"/>
      <path id="DejaVuSans-28" d="M 1984 4856 
Q 1566 4138 1362 3434 
Q 1159 2731 1159 2009 
Q 1159 1288 1364 580 
Q 1569 -128 1984 -844 
L 1484 -844 
Q 1016 -109 783 600 
Q 550 1309 550 2009 
Q 550 2706 781 3412 
Q 1013 4119 1484 4856 
L 1984 4856 
z
" transform="scale(0.015625)"/>
      <path id="DejaVuSans-74" d="M 1172 4494 
L 1172 3500 
L 2356 3500 
L 2356 3053 
L 1172 3053 
L 1172 1153 
Q 1172 725 1289 603 
Q 1406 481 1766 481 
L 2356 481 
L 2356 0 
L 1766 0 
Q 1100 0 847 248 
Q 594 497 594 1153 
L 594 3053 
L 172 3053 
L 172 3500 
L 594 3500 
L 594 4494 
L 1172 4494 
z
" transform="scale(0.015625)"/>
      <path id="DejaVuSans-29" d="M 513 4856 
L 1013 4856 
Q 1481 4119 1714 3412 
Q 1947 2706 1947 2009 
Q 1947 1309 1714 600 
Q 1481 -109 1013 -844 
L 513 -844 
Q 928 -128 1133 580 
Q 1338 1288 1338 2009 
Q 1338 2731 1133 3434 
Q 928 4138 513 4856 
z
" transform="scale(0.015625)"/>
     </defs>
     <use xlink:href="#DejaVuSans-69"/>
     <use xlink:href="#DejaVuSans-28" transform="translate(27.783203 0)"/>
     <use xlink:href="#DejaVuSans-74" transform="translate(66.796875 0)"/>
     <use xlink:href="#DejaVuSans-29" transform="translate(106.005859 0)"/>
    </g>
   </g>
  </g>
 </g>
 <defs>
  <clipPath id="p97be1fb76e">
   <rect x="0" y="-0" width="285.599989" height="192.56"/>
  </clipPath>
 </defs>
</svg>
