<?xml version="1.0" encoding="utf-8" standalone="no"?>
<!DOCTYPE svg PUBLIC "-//W3C//DTD SVG 1.1//EN"
  "http://www.w3.org/Graphics/SVG/1.1/DTD/svg11.dtd">
<svg xmlns:xlink="http://www.w3.org/1999/xlink" width="409.914pt" height="204.76pt" viewBox="0 0 409.914 204.76" xmlns="http://www.w3.org/2000/svg" version="1.1">
 <metadata>
  <rdf:RDF xmlns:dc="http://purl.org/dc/elements/1.1/" xmlns:cc="http://creativecommons.org/ns#" xmlns:rdf="http://www.w3.org/1999/02/22-rdf-syntax-ns#">
   <cc:Work>
    <dc:type rdf:resource="http://purl.org/dc/dcmitype/StillImage"/>
    <dc:date>2026-03-05T18:37:21.781214</dc:date>
    <dc:format>image/svg+xml</dc:format>
    <dc:creator>
     <cc:Agent>
      <dc:title>Matplotlib v3.10.8, https://matplotlib.org/</dc:title>
     </cc:Agent>
    </dc:creator>
   </cc:Work>
  </rdf:RDF>
 </metadata>
 <defs>
  <style type="text/css">*{stroke-linejoin: round; stroke-linecap: butt}</style>
 </defs>
 <g id="figure_1">
  <g id="patch_1">
   <path d="M 0 204.76 
L 409.914 204.76 
L 409.914 0 
L 0 0 
L 0 204.76 
z
" style="fill: none"/>
  </g>
  <g id="axes_1">
   <g id="patch_2">
    <path d="M 27.234 139.28 
C 32.007656 139.28 36.586438 137.383406 39.961922 134.007922 
C 43.337406 130.632438 45.234 126.053656 45.234 121.28 
C 45.234 116.506344 43.337406 111.927562 39.961922 108.552078 
C 36.586438 105.176594 32.007656 103.28 27.234 103.28 
C 22.460344 103.28 17.881562 105.176594 14.506078 108.552078 
C 11.130594 111.927562 9.234 116.506344 9.234 121.28 
C 9.234 126.053656 11.130594 130.632438 14.506078 134.007922 
C 17.881562 137.383406 22.460344 139.28 27.234 139.28 
L 27.234 139.28 
z
" clip-path="url(#pe26358d5ad)" style="fill: none; stroke: #000000; stroke-width: 2; stroke-linejoin: miter"/>
   </g>
   <g id="patch_3">
    <path d="M 154.398686 62.933334 
C 156.728057 54.240001 157.734 49.28 171.234 49.28 
" clip-path="url(#pe26358d5ad)" style="fill: none; stroke: #000000; stroke-width: 2; stroke-linejoin: miter; stroke-linecap: round"/>
   </g>
   <g id="patch_4">
    <path d="M 159.040704 59.518416 
L 153.234 67.28 
L 152.086038 57.654919 
z
" clip-path="url(#pe26358d5ad)"/>
   </g>
   <g id="patch_5">
    <path d="M 280.398686 44.933334 
C 282.728057 36.240001 283.734 31.28 297.234 31.28 
" clip-path="url(#pe26358d5ad)" style="fill: none; stroke: #000000; stroke-width: 2; stroke-linejoin: miter; stroke-linecap: round"/>
   </g>
   <g id="patch_6">
    <path d="M 285.040704 41.518416 
L 279.234 49.28 
L 278.086038 39.654919 
z
" clip-path="url(#pe26358d5ad)"/>
   </g>
   <g id="line2d_1">
    <path d="M 27.234 175.28 
L 27.234 139.28 
L 27.234 139.28 
M 27.234 103.28 
L 27.234 103.28 
L 27.234 67.28 
" clip-path="url(#pe26358d5ad)" style="fill: none; stroke: #000000; stroke-width: 2; stroke-linecap: round"/>
   </g>
   <g id="line2d_2">
    <path d="M 30.834 130.28 
L 23.634 130.28 
" clip-path="url(#pe26358d5ad)" style="fill: none; stroke: #000000; stroke-width: 2; stroke-linecap: round"/>
   </g>
   <g id="line2d_3">
    <path d="M 27.234 115.88 
L 27.234 108.68 
" clip-path="url(#pe26358d5ad)" style="fill: none; stroke: #000000; stroke-width: 2; stroke-linecap: round"/>
   </g>
   <g id="line2d_4">
    <path d="M 30.834 112.28 
L 23.634 112.28 
" clip-path="url(#pe26358d5ad)" style="fill: none; stroke: #000000; stroke-width: 2; stroke-linecap: round"/>
   </g>
   <g id="line2d_5">
    <path d="M 27.234 67.28 
L 36.234 67.28 
L 45.234 67.28 
" clip-path="url(#pe26358d5ad)" style="fill: none; stroke: #000000; stroke-width: 2; stroke-linecap: round"/>
   </g>
   <g id="line2d_6">
    <path d="M 45.234 67.28 
L 81.234 67.28 
L 84.234 58.28 
L 90.234 76.28 
L 96.234 58.28 
L 102.234 76.28 
L 108.234 58.28 
L 114.234 76.28 
L 117.234 67.28 
L 153.234 67.28 
" clip-path="url(#pe26358d5ad)" style="fill: none; stroke: #000000; stroke-width: 2; stroke-linecap: round"/>
   </g>
   <g id="line2d_7">
    <path d="M 171.234 49.28 
L 171.234 85.28 
L 180.234 88.28 
L 162.234 94.28 
L 180.234 100.28 
L 162.234 106.28 
L 180.234 112.28 
L 162.234 118.28 
L 171.234 121.28 
L 171.234 157.28 
" clip-path="url(#pe26358d5ad)" style="fill: none; stroke: #000000; stroke-width: 2; stroke-linecap: round"/>
   </g>
   <g id="line2d_8">
    <path d="M 171.234 157.28 
L 171.234 166.28 
L 171.234 175.28 
" clip-path="url(#pe26358d5ad)" style="fill: none; stroke: #000000; stroke-width: 2; stroke-linecap: round"/>
   </g>
   <g id="line2d_9">
    <path d="M 171.234 49.28 
L 221.994 49.28 
M 221.994 40.28 
L 221.994 58.28 
M 228.474 40.28 
L 228.474 58.28 
M 228.474 49.28 
L 279.234 49.28 
" clip-path="url(#pe26358d5ad)" style="fill: none; stroke: #000000; stroke-width: 2; stroke-linecap: round"/>
   </g>
   <g id="line2d_10">
    <path d="M 297.234 31.28 
L 297.234 67.28 
L 306.234 70.28 
L 288.234 76.28 
L 306.234 82.28 
L 288.234 88.28 
L 306.234 94.28 
L 288.234 100.28 
L 297.234 103.28 
L 297.234 139.28 
" clip-path="url(#pe26358d5ad)" style="fill: none; stroke: #000000; stroke-width: 2; stroke-linecap: round"/>
   </g>
   <g id="line2d_11">
    <path d="M 297.234 139.28 
L 297.234 148.28 
L 297.234 157.28 
" clip-path="url(#pe26358d5ad)" style="fill: none; stroke: #000000; stroke-width: 2; stroke-linecap: round"/>
   </g>
   <g id="line2d_12">
    <path d="M 297.234 31.28 
L 333.234 31.28 
L 336.234 22.28 
L 342.234 40.28 
L 348.234 22.28 
L 354.234 40.28 
L 360.234 22.28 
L 366.234 40.28 
L 369.234 31.28 
L 405.234 31.28 
" clip-path="url(#pe26358d5ad)" style="fill: none; stroke: #000000; stroke-width: 2; stroke-linecap: round"/>
   </g>
   <g id="line2d_13">
    <path d="M 405.234 31.28 
L 405.234 85.28 
L 405.234 139.28 
" clip-path="url(#pe26358d5ad)" style="fill: none; stroke: #000000; stroke-width: 2; stroke-linecap: round"/>
   </g>
   <g id="line2d_14">
    <path d="M 405.234 139.28 
L 369.234 139.28 
L 333.234 139.28 
" clip-path="url(#pe26358d5ad)" style="fill: none; stroke: #000000; stroke-width: 2; stroke-linecap: round"/>
   </g>
   <g id="line2d_15">
    <path d="M 333.234 139.28 
L 333.234 153.68 
L 324.234 153.68 
L 342.234 153.68 
M 326.934 158 
L 339.534 158 
M 331.434 162.32 
L 335.034 162.32 
" clip-path="url(#pe26358d5ad)" style="fill: none; stroke: #000000; stroke-width: 2; stroke-linecap: round"/>
   </g>
   <g id="line2d_16">
    <path d="M 333.234 139.28 
L 180.234 139.28 
L 27.234 139.28 
" clip-path="url(#pe26358d5ad)" style="fill: none; stroke: #000000; stroke-width: 2; stroke-linecap: round"/>
   </g>
   <g id="line2d_17">
    <path d="M 27.234 139.28 
L 27.234 121.28 
L 27.234 103.28 
" clip-path="url(#pe26358d5ad)" style="fill: none; stroke: #000000; stroke-width: 2; stroke-linecap: round"/>
   </g>
   <g id="text_1">
    <!-- Vs·u(t) -->
    <g transform="translate(3.931656 196.717812) scale(0.14 -0.14)">
     <defs>
      <path id="DejaVuSans-56" d="M 1831 0 
L 50 4666 
L 709 4666 
L 2188 738 
L 3669 4666 
L 4325 4666 
L 2547 0 
L 1831 0 
z
" transform="scale(0.015625)"/>
      <path id="DejaVuSans-73" d="M 2834 3397 
L 2834 2853 
Q 2591 2978 2328 3040 
Q 2066 3103 1784 3103 
Q 1356 3103 1142 2972 
Q 928 2841 928 2578 
Q 928 2378 1081 2264 
Q 1234 2150 1697 2047 
L 1894 2003 
Q 2506 1872 2764 1633 
Q 3022 1394 3022 966 
Q 3022 478 2636 193 
Q 2250 -91 1575 -91 
Q 1294 -91 989 -36 
Q 684 19 347 128 
L 347 722 
Q 666 556 975 473 
Q 1284 391 1588 391 
Q 1994 391 2212 530 
Q 2431 669 2431 922 
Q 2431 1156 2273 1281 
Q 2116 1406 1581 1522 
L 1381 1569 
Q 847 1681 609 1914 
Q 372 2147 372 2553 
Q 372 3047 722 3315 
Q 1072 3584 1716 3584 
Q 2034 3584 2315 3537 
Q 2597 3491 2834 3397 
z
" transform="scale(0.015625)"/>
      <path id="DejaVuSans-b7" d="M 684 2619 
L 1344 2619 
L 1344 1825 
L 684 1825 
L 684 2619 
z
" transform="scale(0.015625)"/>
      <path id="DejaVuSans-75" d="M 544 1381 
L 544 3500 
L 1119 3500 
L 1119 1403 
Q 1119 906 1312 657 
Q 1506 409 1894 409 
Q 2359 409 2629 706 
Q 2900 1003 2900 1516 
L 2900 3500 
L 3475 3500 
L 3475 0 
L 2900 0 
L 2900 538 
Q 2691 219 2414 64 
Q 2138 -91 1772 -91 
Q 1169 -91 856 284 
Q 544 659 544 1381 
z
M 1991 3584 
L 1991 3584 
z
" transform="scale(0.015625)"/>
      <path id="DejaVuSans-28" d="M 1984 4856 
Q 1566 4138 1362 3434 
Q 1159 2731 1159 2009 
Q 1159 1288 1364 580 
Q 1569 -128 1984 -844 
L 1484 -844 
Q 1016 -109 783 600 
Q 550 1309 550 2009 
Q 550 2706 781 3412 
Q 1013 4119 1484 4856 
L 1984 4856 
z
" transform="scale(0.015625)"/>
      <path id="DejaVuSans-74" d="M 1172 4494 
L 1172 3500 
L 2356 3500 
L 2356 3053 
L 1172 3053 
L 1172 1153 
Q 1172 725 1289 603 
Q 1406 481 1766 481 
L 2356 481 
L 2356 0 
L 1766 0 
Q 1100 0 847 248 
Q 594 497 594 1153 
L 594 3053 
L 172 3053 
L 172 3500 
L 594 3500 
L 594 4494 
L 1172 4494 
z
" transform="scale(0.015625)"/>
      <path id="DejaVuSans-29" d="M 513 4856 
L 1013 4856 
Q 1481 4119 1714 3412 
Q 1947 2706 1947 2009 
Q 1947 1309 1714 600 
Q 1481 -109 1013 -844 
L 513 -844 
Q 928 -128 1133 580 
Q 1338 1288 1338 2009 
Q 1338 2731 1133 3434 
Q 928 4138 513 4856 
z
" transform="scale(0.015625)"/>
     </defs>
     <use xlink:href="#DejaVuSans-56"/>
     <use xlink:href="#DejaVuSans-73" transform="translate(68.408203 0)"/>
     <use xlink:href="#DejaVuSans-b7" transform="translate(120.507812 0)"/>
     <use xlink:href="#DejaVuSans-75" transform="translate(152.294922 0)"/>
     <use xlink:href="#DejaVuSans-28" transform="translate(215.673828 0)"/>
     <use xlink:href="#DejaVuSans-74" transform="translate(254.6875 0)"/>
     <use xlink:href="#DejaVuSans-29" transform="translate(293.896484 0)"/>
    </g>
   </g>
   <g id="text_2">
    <!-- R₁ -->
    <g transform="translate(91.563531 51.768437) scale(0.14 -0.14)">
     <defs>
      <path id="DejaVuSans-52" d="M 2841 2188 
Q 3044 2119 3236 1894 
Q 3428 1669 3622 1275 
L 4263 0 
L 3584 0 
L 2988 1197 
Q 2756 1666 2539 1819 
Q 2322 1972 1947 1972 
L 1259 1972 
L 1259 0 
L 628 0 
L 628 4666 
L 2053 4666 
Q 2853 4666 3247 4331 
Q 3641 3997 3641 3322 
Q 3641 2881 3436 2590 
Q 3231 2300 2841 2188 
z
M 1259 4147 
L 1259 2491 
L 2053 2491 
Q 2509 2491 2742 2702 
Q 2975 2913 2975 3322 
Q 2975 3731 2742 3939 
Q 2509 4147 2053 4147 
L 1259 4147 
z
" transform="scale(0.015625)"/>
      <path id="DejaVuSans-2081" d="M 488 319 
L 1125 319 
L 1125 2229 
L 428 2101 
L 428 2463 
L 1147 2585 
L 1575 2585 
L 1575 319 
L 2216 319 
L 2216 -24 
L 488 -24 
L 488 319 
z
" transform="scale(0.015625)"/>
     </defs>
     <use xlink:href="#DejaVuSans-52"/>
     <use xlink:href="#DejaVuSans-2081" transform="translate(69.482422 0)"/>
    </g>
   </g>
   <g id="text_3">
    <!-- A -->
    <g style="fill: #ff0000" transform="translate(174.834 53.143125) scale(0.14 -0.14)">
     <defs>
      <path id="DejaVuSans-41" d="M 2188 4044 
L 1331 1722 
L 3047 1722 
L 2188 4044 
z
M 1831 4666 
L 2547 4666 
L 4325 0 
L 3669 0 
L 3244 1197 
L 1141 1197 
L 716 0 
L 50 0 
L 1831 4666 
z
" transform="scale(0.015625)"/>
     </defs>
     <use xlink:href="#DejaVuSans-41"/>
    </g>
   </g>
   <g id="text_4">
    <!-- R₂ -->
    <g transform="translate(163.563531 57.168437) scale(0.14 -0.14)">
     <defs>
      <path id="DejaVuSans-2082" d="M 838 332 
L 2163 332 
L 2163 -24 
L 294 -24 
L 294 319 
Q 400 416 597 591 
Q 1672 1544 1672 1838 
Q 1672 2044 1509 2170 
Q 1347 2297 1081 2297 
Q 919 2297 728 2242 
Q 538 2188 313 2079 
L 313 2463 
Q 553 2551 761 2594 
Q 969 2638 1147 2638 
Q 1600 2638 1872 2432 
Q 2144 2226 2144 1888 
Q 2144 1454 1109 566 
Q 934 416 838 332 
z
" transform="scale(0.015625)"/>
     </defs>
     <use xlink:href="#DejaVuSans-52"/>
     <use xlink:href="#DejaVuSans-2082" transform="translate(69.482422 0)"/>
    </g>
   </g>
   <g id="text_5">
    <!-- C -->
    <g transform="translate(220.346031 33.768438) scale(0.14 -0.14)">
     <defs>
      <path id="DejaVuSans-43" d="M 4122 4306 
L 4122 3641 
Q 3803 3938 3442 4084 
Q 3081 4231 2675 4231 
Q 1875 4231 1450 3742 
Q 1025 3253 1025 2328 
Q 1025 1406 1450 917 
Q 1875 428 2675 428 
Q 3081 428 3442 575 
Q 3803 722 4122 1019 
L 4122 359 
Q 3791 134 3420 21 
Q 3050 -91 2638 -91 
Q 1578 -91 968 557 
Q 359 1206 359 2328 
Q 359 3453 968 4101 
Q 1578 4750 2638 4750 
Q 3056 4750 3426 4639 
Q 3797 4528 4122 4306 
z
" transform="scale(0.015625)"/>
     </defs>
     <use xlink:href="#DejaVuSans-43"/>
    </g>
   </g>
   <g id="text_6">
    <!-- B -->
    <g style="fill: #ff0000" transform="translate(300.834 35.143125) scale(0.14 -0.14)">
     <defs>
      <path id="DejaVuSans-42" d="M 1259 2228 
L 1259 519 
L 2272 519 
Q 2781 519 3026 730 
Q 3272 941 3272 1375 
Q 3272 1813 3026 2020 
Q 2781 2228 2272 2228 
L 1259 2228 
z
M 1259 4147 
L 1259 2741 
L 2194 2741 
Q 2656 2741 2882 2914 
Q 3109 3088 3109 3444 
Q 3109 3797 2882 3972 
Q 2656 4147 2194 4147 
L 1259 4147 
z
M 628 4666 
L 2241 4666 
Q 2963 4666 3353 4366 
Q 3744 4066 3744 3513 
Q 3744 3084 3544 2831 
Q 3344 2578 2956 2516 
Q 3422 2416 3680 2098 
Q 3938 1781 3938 1306 
Q 3938 681 3513 340 
Q 3088 0 2303 0 
L 628 0 
L 628 4666 
z
" transform="scale(0.015625)"/>
     </defs>
     <use xlink:href="#DejaVuSans-42"/>
    </g>
   </g>
   <g id="text_7">
    <!-- R₄ -->
    <g transform="translate(289.563531 39.168437) scale(0.14 -0.14)">
     <defs>
      <path id="DejaVuSans-2084" d="M 1491 2207 
L 525 897 
L 1491 897 
L 1491 2207 
z
M 1422 2585 
L 1941 2585 
L 1941 897 
L 2363 897 
L 2363 557 
L 1941 557 
L 1941 -24 
L 1491 -24 
L 1491 557 
L 197 557 
L 197 935 
L 1422 2585 
z
" transform="scale(0.015625)"/>
     </defs>
     <use xlink:href="#DejaVuSans-52"/>
     <use xlink:href="#DejaVuSans-2084" transform="translate(69.482422 0)"/>
    </g>
   </g>
   <g id="text_8">
    <!-- R₃ -->
    <g transform="translate(343.563531 15.768438) scale(0.14 -0.14)">
     <defs>
      <path id="DejaVuSans-2083" d="M 1638 1388 
Q 1925 1332 2083 1161 
Q 2241 991 2241 735 
Q 2241 347 1944 138 
Q 1647 -71 1094 -71 
Q 916 -71 720 -38 
Q 525 -6 306 57 
L 306 435 
Q 469 351 655 310 
Q 841 269 1050 269 
Q 1391 269 1578 392 
Q 1766 516 1766 735 
Q 1766 966 1592 1085 
Q 1419 1204 1081 1204 
L 813 1204 
L 813 1541 
L 1106 1541 
Q 1400 1541 1551 1639 
Q 1703 1738 1703 1926 
Q 1703 2107 1547 2202 
Q 1391 2297 1094 2297 
Q 969 2297 809 2269 
Q 650 2241 397 2169 
L 397 2529 
Q 625 2582 825 2610 
Q 1025 2638 1197 2638 
Q 1647 2638 1911 2453 
Q 2175 2269 2175 1960 
Q 2175 1744 2034 1594 
Q 1894 1444 1638 1388 
z
" transform="scale(0.015625)"/>
     </defs>
     <use xlink:href="#DejaVuSans-52"/>
     <use xlink:href="#DejaVuSans-2083" transform="translate(69.482422 0)"/>
    </g>
   </g>
   <g id="patch_7">
    <path d="M 153.234 69.98 
C 153.950048 69.98 154.636866 69.695511 155.143188 69.189188 
C 155.649511 68.682866 155.934 67.996048 155.934 67.28 
C 155.934 66.563952 155.649511 65.877134 155.143188 65.370812 
C 154.636866 64.864489 153.950048 64.58 153.234 64.58 
C 152.517952 64.58 151.831134 64.864489 151.324812 65.370812 
C 150.818489 65.877134 150.534 66.563952 150.534 67.28 
C 150.534 67.996048 150.818489 68.682866 151.324812 69.189188 
C 151.831134 69.695511 152.517952 69.98 153.234 69.98 
z
" clip-path="url(#pe26358d5ad)" style="stroke: #000000; stroke-width: 2; stroke-linejoin: miter"/>
   </g>
   <g id="patch_8">
    <path d="M 279.234 51.98 
C 279.950048 51.98 280.636866 51.695511 281.143188 51.189188 
C 281.649511 50.682866 281.934 49.996048 281.934 49.28 
C 281.934 48.563952 281.649511 47.877134 281.143188 47.370812 
C 280.636866 46.864489 279.950048 46.58 279.234 46.58 
C 278.517952 46.58 277.831134 46.864489 277.324812 47.370812 
C 276.818489 47.877134 276.534 48.563952 276.534 49.28 
C 276.534 49.996048 276.818489 50.682866 277.324812 51.189188 
C 277.831134 51.695511 278.517952 51.98 279.234 51.98 
z
" clip-path="url(#pe26358d5ad)" style="stroke: #000000; stroke-width: 2; stroke-linejoin: miter"/>
   </g>
  </g>
 </g>
 <defs>
  <clipPath id="pe26358d5ad">
   <rect x="0" y="-0" width="409.914" height="204.76"/>
  </clipPath>
 </defs>
</svg>
