<?xml version="1.0" encoding="utf-8" standalone="no"?>
<!DOCTYPE svg PUBLIC "-//W3C//DTD SVG 1.1//EN"
  "http://www.w3.org/Graphics/SVG/1.1/DTD/svg11.dtd">
<svg xmlns:xlink="http://www.w3.org/1999/xlink" width="1002.085427pt" height="352.637812pt" viewBox="0 0 1002.085427 352.637812" xmlns="http://www.w3.org/2000/svg" version="1.1">
 <metadata>
  <rdf:RDF xmlns:dc="http://purl.org/dc/elements/1.1/" xmlns:cc="http://creativecommons.org/ns#" xmlns:rdf="http://www.w3.org/1999/02/22-rdf-syntax-ns#">
   <cc:Work>
    <dc:type rdf:resource="http://purl.org/dc/dcmitype/StillImage"/>
    <dc:date>2026-03-06T09:07:46.367005</dc:date>
    <dc:format>image/svg+xml</dc:format>
    <dc:creator>
     <cc:Agent>
      <dc:title>Matplotlib v3.10.8, https://matplotlib.org/</dc:title>
     </cc:Agent>
    </dc:creator>
   </cc:Work>
  </rdf:RDF>
 </metadata>
 <defs>
  <style type="text/css">*{stroke-linejoin: round; stroke-linecap: butt}</style>
 </defs>
 <g id="figure_1">
  <g id="patch_1">
   <path d="M 0 352.637812 
L 1002.085427 352.637812 
L 1002.085427 0 
L 0 0 
z
" style="fill: #ffffff"/>
  </g>
  <g id="axes_1">
   <g id="patch_2">
    <path d="M 61.482035 154.47331 
C 70.076521 154.47331 78.320156 152.028447 84.397376 147.677173 
C 90.474595 143.3259 93.88922 137.423478 93.88922 131.269847 
C 93.88922 125.116217 90.474595 119.213795 84.397376 114.862521 
C 78.320156 110.511247 70.076521 108.066384 61.482035 108.066384 
C 52.887549 108.066384 44.643914 110.511247 38.566695 114.862521 
C 32.489475 119.213795 29.07485 125.116217 29.07485 131.269847 
C 29.07485 137.423478 32.489475 143.3259 38.566695 147.677173 
C 44.643914 152.028447 52.887549 154.47331 61.482035 154.47331 
L 61.482035 154.47331 
z
" clip-path="url(#p3069c84784)" style="fill: none; stroke: #000000; stroke-width: 2; stroke-linejoin: miter"/>
   </g>
   <g id="patch_3">
    <path d="M 290.429231 56.056251 
C 294.623029 44.849839 296.434128 38.455994 320.739517 38.455994 
" clip-path="url(#p3069c84784)" style="fill: none; stroke: #000000; stroke-width: 2; stroke-linejoin: miter; stroke-linecap: round"/>
   </g>
   <g id="patch_4">
    <path d="M 298.786717 51.654145 
L 288.332332 61.659458 
L 286.265543 49.251946 
z
" clip-path="url(#p3069c84784)"/>
   </g>
   <g id="line2d_1">
    <path d="M 61.482035 200.880237 
L 61.482035 154.47331 
L 61.482035 154.47331 
M 61.482035 108.066384 
L 61.482035 108.066384 
L 61.482035 61.659458 
" clip-path="url(#p3069c84784)" style="fill: none; stroke: #000000; stroke-width: 2; stroke-linecap: round"/>
   </g>
   <g id="line2d_2">
    <path d="M 67.963472 142.871579 
L 55.000598 142.871579 
" clip-path="url(#p3069c84784)" style="fill: none; stroke: #000000; stroke-width: 2; stroke-linecap: round"/>
   </g>
   <g id="line2d_3">
    <path d="M 61.482035 124.308808 
L 61.482035 115.027423 
" clip-path="url(#p3069c84784)" style="fill: none; stroke: #000000; stroke-width: 2; stroke-linecap: round"/>
   </g>
   <g id="line2d_4">
    <path d="M 67.963472 119.668116 
L 55.000598 119.668116 
" clip-path="url(#p3069c84784)" style="fill: none; stroke: #000000; stroke-width: 2; stroke-linecap: round"/>
   </g>
   <g id="line2d_5">
    <path d="M 61.482035 61.659458 
L 77.685628 61.659458 
L 93.88922 61.659458 
" clip-path="url(#p3069c84784)" style="fill: none; stroke: #000000; stroke-width: 2; stroke-linecap: round"/>
   </g>
   <g id="line2d_6">
    <path d="M 93.88922 61.659458 
L 158.703591 61.659458 
L 164.104788 50.057726 
L 174.907183 73.261189 
L 185.709578 50.057726 
L 196.511974 73.261189 
L 207.314369 50.057726 
L 218.116764 73.261189 
L 223.517961 61.659458 
L 288.332332 61.659458 
" clip-path="url(#p3069c84784)" style="fill: none; stroke: #000000; stroke-width: 2; stroke-linecap: round"/>
   </g>
   <g id="line2d_7">
    <path d="M 320.739517 38.455994 
L 320.739517 84.862921 
M 327.220954 96.000583 
L 349.905983 121.988462 
M 320.739517 131.269847 
L 320.739517 177.676774 
" clip-path="url(#p3069c84784)" style="fill: none; stroke: #000000; stroke-width: 2; stroke-linecap: round"/>
   </g>
   <g id="line2d_8">
    <path d="M 320.739517 177.676774 
L 320.739517 224.0837 
L 336.943109 227.950944 
L 304.535924 235.685432 
L 336.943109 243.419919 
L 304.535924 251.154407 
L 336.943109 258.888895 
L 304.535924 266.623382 
L 320.739517 270.490626 
L 320.739517 316.897553 
" clip-path="url(#p3069c84784)" style="fill: none; stroke: #000000; stroke-width: 2; stroke-linecap: round"/>
   </g>
   <g id="line2d_9">
    <path d="M 320.739517 316.897553 
L 320.739517 323.858592 
L 320.739517 330.819631 
" clip-path="url(#p3069c84784)" style="fill: none; stroke: #000000; stroke-width: 2; stroke-linecap: round"/>
   </g>
   <g id="line2d_10">
    <path d="M 320.739517 38.455994 
L 385.553887 38.455994 
L 450.368258 38.455994 
" clip-path="url(#p3069c84784)" style="fill: none; stroke: #000000; stroke-width: 2; stroke-linecap: round"/>
   </g>
   <g id="line2d_11">
    <path d="M 450.368258 38.455994 
L 450.368258 103.889761 
M 466.57185 103.889761 
L 434.164665 103.889761 
M 466.57185 112.243007 
L 434.164665 112.243007 
M 450.368258 112.243007 
L 450.368258 177.676774 
" clip-path="url(#p3069c84784)" style="fill: none; stroke: #000000; stroke-width: 2; stroke-linecap: round"/>
   </g>
   <g id="line2d_12">
    <path d="M 450.368258 177.676774 
L 450.368258 184.637812 
L 450.368258 191.598851 
" clip-path="url(#p3069c84784)" style="fill: none; stroke: #000000; stroke-width: 2; stroke-linecap: round"/>
   </g>
   <g id="line2d_13">
    <path d="M 450.368258 191.598851 
L 385.553887 191.598851 
L 320.739517 191.598851 
" clip-path="url(#p3069c84784)" style="fill: none; stroke: #000000; stroke-width: 2; stroke-linecap: round"/>
   </g>
   <g id="line2d_14">
    <path d="M 320.739517 191.598851 
L 320.739517 210.161622 
L 304.535924 210.161622 
L 336.943109 210.161622 
M 309.397002 215.730453 
L 332.082032 215.730453 
M 317.498798 221.299284 
L 323.980235 221.299284 
" clip-path="url(#p3069c84784)" style="fill: none; stroke: #000000; stroke-width: 2; stroke-linecap: round"/>
   </g>
   <g id="line2d_15">
    <path d="M 320.739517 191.598851 
L 191.110776 191.598851 
L 61.482035 191.598851 
" clip-path="url(#p3069c84784)" style="fill: none; stroke: #000000; stroke-width: 2; stroke-linecap: round"/>
   </g>
   <g id="line2d_16">
    <path d="M 61.482035 191.598851 
L 61.482035 186.958159 
L 61.482035 182.317466 
" clip-path="url(#p3069c84784)" style="fill: none; stroke: #000000; stroke-width: 2; stroke-linecap: round"/>
   </g>
   <g id="text_1">
    <!-- Vs -->
    <g transform="translate(14.760913 210.758205) scale(0.13 -0.13)">
     <defs>
      <path id="DejaVuSans-56" d="M 1831 0 
L 50 4666 
L 709 4666 
L 2188 738 
L 3669 4666 
L 4325 4666 
L 2547 0 
L 1831 0 
z
" transform="scale(0.015625)"/>
      <path id="DejaVuSans-73" d="M 2834 3397 
L 2834 2853 
Q 2591 2978 2328 3040 
Q 2066 3103 1784 3103 
Q 1356 3103 1142 2972 
Q 928 2841 928 2578 
Q 928 2378 1081 2264 
Q 1234 2150 1697 2047 
L 1894 2003 
Q 2506 1872 2764 1633 
Q 3022 1394 3022 966 
Q 3022 478 2636 193 
Q 2250 -91 1575 -91 
Q 1294 -91 989 -36 
Q 684 19 347 128 
L 347 722 
Q 666 556 975 473 
Q 1284 391 1588 391 
Q 1994 391 2212 530 
Q 2431 669 2431 922 
Q 2431 1156 2273 1281 
Q 2116 1406 1581 1522 
L 1381 1569 
Q 847 1681 609 1914 
Q 372 2147 372 2553 
Q 372 3047 722 3315 
Q 1072 3584 1716 3584 
Q 2034 3584 2315 3537 
Q 2597 3491 2834 3397 
z
" transform="scale(0.015625)"/>
     </defs>
     <use xlink:href="#DejaVuSans-56"/>
     <use xlink:href="#DejaVuSans-73" transform="translate(68.408203 0)"/>
    </g>
   </g>
   <g id="text_2">
    <!-- R₁ -->
    <g transform="translate(183.988198 42.71344) scale(0.13 -0.13)">
     <defs>
      <path id="DejaVuSans-52" d="M 2841 2188 
Q 3044 2119 3236 1894 
Q 3428 1669 3622 1275 
L 4263 0 
L 3584 0 
L 2988 1197 
Q 2756 1666 2539 1819 
Q 2322 1972 1947 1972 
L 1259 1972 
L 1259 0 
L 628 0 
L 628 4666 
L 2053 4666 
Q 2853 4666 3247 4331 
Q 3641 3997 3641 3322 
Q 3641 2881 3436 2590 
Q 3231 2300 2841 2188 
z
M 1259 4147 
L 1259 2491 
L 2053 2491 
Q 2509 2491 2742 2702 
Q 2975 2913 2975 3322 
Q 2975 3731 2742 3939 
Q 2509 4147 2053 4147 
L 1259 4147 
z
" transform="scale(0.015625)"/>
      <path id="DejaVuSans-2081" d="M 488 319 
L 1125 319 
L 1125 2229 
L 428 2101 
L 428 2463 
L 1147 2585 
L 1575 2585 
L 1575 319 
L 2216 319 
L 2216 -24 
L 488 -24 
L 488 319 
z
" transform="scale(0.015625)"/>
     </defs>
     <use xlink:href="#DejaVuSans-52"/>
     <use xlink:href="#DejaVuSans-2081" transform="translate(69.482422 0)"/>
    </g>
   </g>
   <g id="text_3">
    <!-- A -->
    <g style="fill: #ff0000" transform="translate(327.220954 42.043182) scale(0.13 -0.13)">
     <defs>
      <path id="DejaVuSans-41" d="M 2188 4044 
L 1331 1722 
L 3047 1722 
L 2188 4044 
z
M 1831 4666 
L 2547 4666 
L 4325 0 
L 3669 0 
L 3244 1197 
L 1141 1197 
L 716 0 
L 50 0 
L 1831 4666 
z
" transform="scale(0.015625)"/>
     </defs>
     <use xlink:href="#DejaVuSans-41"/>
    </g>
   </g>
   <g id="patch_5">
    <path d="M 320.739517 96.000583 
C 322.802193 96.000583 324.780666 95.413816 326.239198 94.36951 
C 327.697731 93.325204 328.517241 91.908623 328.517241 90.431752 
C 328.517241 88.954881 327.697731 87.538299 326.239198 86.493994 
C 324.780666 85.449688 322.802193 84.862921 320.739517 84.862921 
C 318.67684 84.862921 316.698368 85.449688 315.239835 86.493994 
C 313.781302 87.538299 312.961792 88.954881 312.961792 90.431752 
C 312.961792 91.908623 313.781302 93.325204 315.239835 94.36951 
C 316.698368 95.413816 318.67684 96.000583 320.739517 96.000583 
z
" clip-path="url(#p3069c84784)" style="fill: #ffffff; stroke: #000000; stroke-width: 2; stroke-linejoin: miter"/>
   </g>
   <g id="patch_6">
    <path d="M 320.739517 131.269847 
C 322.802193 131.269847 324.780666 130.68308 326.239198 129.638774 
C 327.697731 128.594469 328.517241 127.177887 328.517241 125.701016 
C 328.517241 124.224145 327.697731 122.807563 326.239198 121.763258 
C 324.780666 120.718952 322.802193 120.132185 320.739517 120.132185 
C 318.67684 120.132185 316.698368 120.718952 315.239835 121.763258 
C 313.781302 122.807563 312.961792 124.224145 312.961792 125.701016 
C 312.961792 127.177887 313.781302 128.594469 315.239835 129.638774 
C 316.698368 130.68308 318.67684 131.269847 320.739517 131.269847 
z
" clip-path="url(#p3069c84784)" style="fill: #ffffff; stroke: #000000; stroke-width: 2; stroke-linejoin: miter"/>
   </g>
   <g id="text_4">
    <!-- S -->
    <g transform="translate(366.196026 35.752401) scale(0.13 -0.13)">
     <defs>
      <path id="DejaVuSans-53" d="M 3425 4513 
L 3425 3897 
Q 3066 4069 2747 4153 
Q 2428 4238 2131 4238 
Q 1616 4238 1336 4038 
Q 1056 3838 1056 3469 
Q 1056 3159 1242 3001 
Q 1428 2844 1947 2747 
L 2328 2669 
Q 3034 2534 3370 2195 
Q 3706 1856 3706 1288 
Q 3706 609 3251 259 
Q 2797 -91 1919 -91 
Q 1588 -91 1214 -16 
Q 841 59 441 206 
L 441 856 
Q 825 641 1194 531 
Q 1563 422 1919 422 
Q 2459 422 2753 634 
Q 3047 847 3047 1241 
Q 3047 1584 2836 1778 
Q 2625 1972 2144 2069 
L 1759 2144 
Q 1053 2284 737 2584 
Q 422 2884 422 3419 
Q 422 4038 858 4394 
Q 1294 4750 2059 4750 
Q 2388 4750 2728 4690 
Q 3069 4631 3425 4513 
z
" transform="scale(0.015625)"/>
     </defs>
     <use xlink:href="#DejaVuSans-53"/>
    </g>
   </g>
   <g id="text_5">
    <!-- R₂ -->
    <g transform="translate(352.505561 174.97318) scale(0.13 -0.13)">
     <defs>
      <path id="DejaVuSans-2082" d="M 838 332 
L 2163 332 
L 2163 -24 
L 294 -24 
L 294 319 
Q 400 416 597 591 
Q 1672 1544 1672 1838 
Q 1672 2044 1509 2170 
Q 1347 2297 1081 2297 
Q 919 2297 728 2242 
Q 538 2188 313 2079 
L 313 2463 
Q 553 2551 761 2594 
Q 969 2638 1147 2638 
Q 1600 2638 1872 2432 
Q 2144 2226 2144 1888 
Q 2144 1454 1109 566 
Q 934 416 838 332 
z
" transform="scale(0.015625)"/>
     </defs>
     <use xlink:href="#DejaVuSans-52"/>
     <use xlink:href="#DejaVuSans-2082" transform="translate(69.482422 0)"/>
    </g>
   </g>
   <g id="text_6">
    <!-- C -->
    <g transform="translate(484.718052 35.752401) scale(0.13 -0.13)">
     <defs>
      <path id="DejaVuSans-43" d="M 4122 4306 
L 4122 3641 
Q 3803 3938 3442 4084 
Q 3081 4231 2675 4231 
Q 1875 4231 1450 3742 
Q 1025 3253 1025 2328 
Q 1025 1406 1450 917 
Q 1875 428 2675 428 
Q 3081 428 3442 575 
Q 3803 722 4122 1019 
L 4122 359 
Q 3791 134 3420 21 
Q 3050 -91 2638 -91 
Q 1578 -91 968 557 
Q 359 1206 359 2328 
Q 359 3453 968 4101 
Q 1578 4750 2638 4750 
Q 3056 4750 3426 4639 
Q 3797 4528 4122 4306 
z
" transform="scale(0.015625)"/>
     </defs>
     <use xlink:href="#DejaVuSans-43"/>
    </g>
   </g>
   <g id="text_7">
    <!-- t &lt; 0  (switch closed) -->
    <g transform="translate(164.363663 17.837812) scale(0.14 -0.14)">
     <defs>
      <path id="DejaVuSans-Bold-74" d="M 1759 4494 
L 1759 3500 
L 2913 3500 
L 2913 2700 
L 1759 2700 
L 1759 1216 
Q 1759 972 1856 886 
Q 1953 800 2241 800 
L 2816 800 
L 2816 0 
L 1856 0 
Q 1194 0 917 276 
Q 641 553 641 1216 
L 641 2700 
L 84 2700 
L 84 3500 
L 641 3500 
L 641 4494 
L 1759 4494 
z
" transform="scale(0.015625)"/>
      <path id="DejaVuSans-Bold-20" transform="scale(0.015625)"/>
      <path id="DejaVuSans-Bold-3c" d="M 4684 3041 
L 1672 2003 
L 4684 972 
L 4684 191 
L 678 1638 
L 678 2375 
L 4684 3822 
L 4684 3041 
z
" transform="scale(0.015625)"/>
      <path id="DejaVuSans-Bold-30" d="M 2944 2338 
Q 2944 3213 2780 3570 
Q 2616 3928 2228 3928 
Q 1841 3928 1675 3570 
Q 1509 3213 1509 2338 
Q 1509 1453 1675 1090 
Q 1841 728 2228 728 
Q 2613 728 2778 1090 
Q 2944 1453 2944 2338 
z
M 4147 2328 
Q 4147 1169 3647 539 
Q 3147 -91 2228 -91 
Q 1306 -91 806 539 
Q 306 1169 306 2328 
Q 306 3491 806 4120 
Q 1306 4750 2228 4750 
Q 3147 4750 3647 4120 
Q 4147 3491 4147 2328 
z
" transform="scale(0.015625)"/>
      <path id="DejaVuSans-Bold-28" d="M 2413 -844 
L 1484 -844 
Q 1006 -72 778 623 
Q 550 1319 550 2003 
Q 550 2688 779 3389 
Q 1009 4091 1484 4856 
L 2413 4856 
Q 2013 4116 1813 3408 
Q 1613 2700 1613 2009 
Q 1613 1319 1811 609 
Q 2009 -100 2413 -844 
z
" transform="scale(0.015625)"/>
      <path id="DejaVuSans-Bold-73" d="M 3272 3391 
L 3272 2541 
Q 2913 2691 2578 2766 
Q 2244 2841 1947 2841 
Q 1628 2841 1473 2761 
Q 1319 2681 1319 2516 
Q 1319 2381 1436 2309 
Q 1553 2238 1856 2203 
L 2053 2175 
Q 2913 2066 3209 1816 
Q 3506 1566 3506 1031 
Q 3506 472 3093 190 
Q 2681 -91 1863 -91 
Q 1516 -91 1145 -36 
Q 775 19 384 128 
L 384 978 
Q 719 816 1070 734 
Q 1422 653 1784 653 
Q 2113 653 2278 743 
Q 2444 834 2444 1013 
Q 2444 1163 2330 1236 
Q 2216 1309 1875 1350 
L 1678 1375 
Q 931 1469 631 1722 
Q 331 1975 331 2491 
Q 331 3047 712 3315 
Q 1094 3584 1881 3584 
Q 2191 3584 2531 3537 
Q 2872 3491 3272 3391 
z
" transform="scale(0.015625)"/>
      <path id="DejaVuSans-Bold-77" d="M 225 3500 
L 1313 3500 
L 1900 1088 
L 2491 3500 
L 3425 3500 
L 4013 1113 
L 4603 3500 
L 5691 3500 
L 4769 0 
L 3547 0 
L 2956 2406 
L 2369 0 
L 1147 0 
L 225 3500 
z
" transform="scale(0.015625)"/>
      <path id="DejaVuSans-Bold-69" d="M 538 3500 
L 1656 3500 
L 1656 0 
L 538 0 
L 538 3500 
z
M 538 4863 
L 1656 4863 
L 1656 3950 
L 538 3950 
L 538 4863 
z
" transform="scale(0.015625)"/>
      <path id="DejaVuSans-Bold-63" d="M 3366 3391 
L 3366 2478 
Q 3138 2634 2908 2709 
Q 2678 2784 2431 2784 
Q 1963 2784 1702 2511 
Q 1441 2238 1441 1747 
Q 1441 1256 1702 982 
Q 1963 709 2431 709 
Q 2694 709 2930 787 
Q 3166 866 3366 1019 
L 3366 103 
Q 3103 6 2833 -42 
Q 2563 -91 2291 -91 
Q 1344 -91 809 395 
Q 275 881 275 1747 
Q 275 2613 809 3098 
Q 1344 3584 2291 3584 
Q 2566 3584 2833 3536 
Q 3100 3488 3366 3391 
z
" transform="scale(0.015625)"/>
      <path id="DejaVuSans-Bold-68" d="M 4056 2131 
L 4056 0 
L 2931 0 
L 2931 347 
L 2931 1625 
Q 2931 2084 2911 2256 
Q 2891 2428 2841 2509 
Q 2775 2619 2662 2680 
Q 2550 2741 2406 2741 
Q 2056 2741 1856 2470 
Q 1656 2200 1656 1722 
L 1656 0 
L 538 0 
L 538 4863 
L 1656 4863 
L 1656 2988 
Q 1909 3294 2193 3439 
Q 2478 3584 2822 3584 
Q 3428 3584 3742 3212 
Q 4056 2841 4056 2131 
z
" transform="scale(0.015625)"/>
      <path id="DejaVuSans-Bold-6c" d="M 538 4863 
L 1656 4863 
L 1656 0 
L 538 0 
L 538 4863 
z
" transform="scale(0.015625)"/>
      <path id="DejaVuSans-Bold-6f" d="M 2203 2784 
Q 1831 2784 1636 2517 
Q 1441 2250 1441 1747 
Q 1441 1244 1636 976 
Q 1831 709 2203 709 
Q 2569 709 2762 976 
Q 2956 1244 2956 1747 
Q 2956 2250 2762 2517 
Q 2569 2784 2203 2784 
z
M 2203 3584 
Q 3106 3584 3614 3096 
Q 4122 2609 4122 1747 
Q 4122 884 3614 396 
Q 3106 -91 2203 -91 
Q 1297 -91 786 396 
Q 275 884 275 1747 
Q 275 2609 786 3096 
Q 1297 3584 2203 3584 
z
" transform="scale(0.015625)"/>
      <path id="DejaVuSans-Bold-65" d="M 4031 1759 
L 4031 1441 
L 1416 1441 
Q 1456 1047 1700 850 
Q 1944 653 2381 653 
Q 2734 653 3104 758 
Q 3475 863 3866 1075 
L 3866 213 
Q 3469 63 3072 -14 
Q 2675 -91 2278 -91 
Q 1328 -91 801 392 
Q 275 875 275 1747 
Q 275 2603 792 3093 
Q 1309 3584 2216 3584 
Q 3041 3584 3536 3087 
Q 4031 2591 4031 1759 
z
M 2881 2131 
Q 2881 2450 2695 2645 
Q 2509 2841 2209 2841 
Q 1884 2841 1681 2658 
Q 1478 2475 1428 2131 
L 2881 2131 
z
" transform="scale(0.015625)"/>
      <path id="DejaVuSans-Bold-64" d="M 2919 2988 
L 2919 4863 
L 4044 4863 
L 4044 0 
L 2919 0 
L 2919 506 
Q 2688 197 2409 53 
Q 2131 -91 1766 -91 
Q 1119 -91 703 423 
Q 288 938 288 1747 
Q 288 2556 703 3070 
Q 1119 3584 1766 3584 
Q 2128 3584 2408 3439 
Q 2688 3294 2919 2988 
z
M 2181 722 
Q 2541 722 2730 984 
Q 2919 1247 2919 1747 
Q 2919 2247 2730 2509 
Q 2541 2772 2181 2772 
Q 1825 2772 1636 2509 
Q 1447 2247 1447 1747 
Q 1447 1247 1636 984 
Q 1825 722 2181 722 
z
" transform="scale(0.015625)"/>
      <path id="DejaVuSans-Bold-29" d="M 513 -844 
Q 913 -100 1113 609 
Q 1313 1319 1313 2009 
Q 1313 2700 1113 3408 
Q 913 4116 513 4856 
L 1441 4856 
Q 1916 4091 2145 3389 
Q 2375 2688 2375 2003 
Q 2375 1319 2147 623 
Q 1919 -72 1441 -844 
L 513 -844 
z
" transform="scale(0.015625)"/>
     </defs>
     <use xlink:href="#DejaVuSans-Bold-74"/>
     <use xlink:href="#DejaVuSans-Bold-20" transform="translate(47.802734 0)"/>
     <use xlink:href="#DejaVuSans-Bold-3c" transform="translate(82.617188 0)"/>
     <use xlink:href="#DejaVuSans-Bold-20" transform="translate(166.40625 0)"/>
     <use xlink:href="#DejaVuSans-Bold-30" transform="translate(201.220703 0)"/>
     <use xlink:href="#DejaVuSans-Bold-20" transform="translate(270.800781 0)"/>
     <use xlink:href="#DejaVuSans-Bold-20" transform="translate(305.615234 0)"/>
     <use xlink:href="#DejaVuSans-Bold-28" transform="translate(340.429688 0)"/>
     <use xlink:href="#DejaVuSans-Bold-73" transform="translate(386.132812 0)"/>
     <use xlink:href="#DejaVuSans-Bold-77" transform="translate(445.654297 0)"/>
     <use xlink:href="#DejaVuSans-Bold-69" transform="translate(538.037109 0)"/>
     <use xlink:href="#DejaVuSans-Bold-74" transform="translate(572.314453 0)"/>
     <use xlink:href="#DejaVuSans-Bold-63" transform="translate(620.117188 0)"/>
     <use xlink:href="#DejaVuSans-Bold-68" transform="translate(679.394531 0)"/>
     <use xlink:href="#DejaVuSans-Bold-20" transform="translate(750.585938 0)"/>
     <use xlink:href="#DejaVuSans-Bold-63" transform="translate(785.400391 0)"/>
     <use xlink:href="#DejaVuSans-Bold-6c" transform="translate(844.677734 0)"/>
     <use xlink:href="#DejaVuSans-Bold-6f" transform="translate(878.955078 0)"/>
     <use xlink:href="#DejaVuSans-Bold-73" transform="translate(947.65625 0)"/>
     <use xlink:href="#DejaVuSans-Bold-65" transform="translate(1007.177734 0)"/>
     <use xlink:href="#DejaVuSans-Bold-64" transform="translate(1075 0)"/>
     <use xlink:href="#DejaVuSans-Bold-29" transform="translate(1146.582031 0)"/>
    </g>
   </g>
   <g id="patch_7">
    <path d="M 288.332332 65.139977 
C 289.621504 65.139977 290.85805 64.773248 291.769633 64.120556 
C 292.681216 63.467865 293.193409 62.582502 293.193409 61.659458 
C 293.193409 60.736413 292.681216 59.85105 291.769633 59.198359 
C 290.85805 58.545668 289.621504 58.178938 288.332332 58.178938 
C 287.043159 58.178938 285.806613 58.545668 284.895031 59.198359 
C 283.983448 59.85105 283.471254 60.736413 283.471254 61.659458 
C 283.471254 62.582502 283.983448 63.467865 284.895031 64.120556 
C 285.806613 64.773248 287.043159 65.139977 288.332332 65.139977 
z
" clip-path="url(#p3069c84784)" style="stroke: #000000; stroke-width: 2; stroke-linejoin: miter"/>
   </g>
  </g>
  <g id="axes_2">
   <g id="patch_8">
    <path d="M 564.262564 252.212427 
C 574.351743 252.212427 584.029054 248.579729 591.163181 242.114393 
C 598.297308 235.649057 602.305781 226.878949 602.305781 217.735583 
C 602.305781 208.592217 598.297308 199.822109 591.163181 193.356773 
C 584.029054 186.891437 574.351743 183.258739 564.262564 183.258739 
C 554.173385 183.258739 544.496074 186.891437 537.361947 193.356773 
C 530.22782 199.822109 526.219346 208.592217 526.219346 217.735583 
C 526.219346 226.878949 530.22782 235.649057 537.361947 242.114393 
C 544.496074 248.579729 554.173385 252.212427 564.262564 252.212427 
L 564.262564 252.212427 
z
" clip-path="url(#p1185f8f82a)" style="fill: none; stroke: #000000; stroke-width: 2; stroke-linejoin: miter"/>
   </g>
   <g id="patch_9">
    <path d="M 833.026663 105.979532 
C 837.949818 89.328495 840.07589 79.828207 868.608303 79.828207 
" clip-path="url(#p1185f8f82a)" style="fill: none; stroke: #000000; stroke-width: 2; stroke-linejoin: miter; stroke-linecap: round"/>
   </g>
   <g id="patch_10">
    <path d="M 842.837625 99.438667 
L 830.565086 114.305051 
L 828.138855 95.869361 
z
" clip-path="url(#p1185f8f82a)"/>
   </g>
   <g id="line2d_17">
    <path d="M 564.262564 321.166114 
L 564.262564 252.212427 
L 564.262564 252.212427 
M 564.262564 183.258739 
L 564.262564 183.258739 
L 564.262564 114.305051 
" clip-path="url(#p1185f8f82a)" style="fill: none; stroke: #000000; stroke-width: 2; stroke-linecap: round"/>
   </g>
   <g id="line2d_18">
    <path d="M 571.871207 234.974005 
L 556.65392 234.974005 
" clip-path="url(#p1185f8f82a)" style="fill: none; stroke: #000000; stroke-width: 2; stroke-linecap: round"/>
   </g>
   <g id="line2d_19">
    <path d="M 564.262564 207.392529 
L 564.262564 193.601792 
" clip-path="url(#p1185f8f82a)" style="fill: none; stroke: #000000; stroke-width: 2; stroke-linecap: round"/>
   </g>
   <g id="line2d_20">
    <path d="M 571.871207 200.497161 
L 556.65392 200.497161 
" clip-path="url(#p1185f8f82a)" style="fill: none; stroke: #000000; stroke-width: 2; stroke-linecap: round"/>
   </g>
   <g id="line2d_21">
    <path d="M 564.262564 114.305051 
L 583.284172 114.305051 
L 602.305781 114.305051 
" clip-path="url(#p1185f8f82a)" style="fill: none; stroke: #000000; stroke-width: 2; stroke-linecap: round"/>
   </g>
   <g id="line2d_22">
    <path d="M 602.305781 114.305051 
L 678.392216 114.305051 
L 684.732752 97.066629 
L 697.413825 131.543473 
L 710.094897 97.066629 
L 722.77597 131.543473 
L 735.457042 97.066629 
L 748.138115 131.543473 
L 754.478651 114.305051 
L 830.565086 114.305051 
" clip-path="url(#p1185f8f82a)" style="fill: none; stroke: #000000; stroke-width: 2; stroke-linecap: round"/>
   </g>
   <g id="line2d_23">
    <path d="M 868.608303 79.828207 
L 906.65152 79.828207 
L 944.694738 79.828207 
" clip-path="url(#p1185f8f82a)" style="fill: none; stroke: #000000; stroke-width: 2; stroke-linecap: round"/>
   </g>
   <g id="line2d_24">
    <path d="M 944.694738 79.828207 
L 944.694738 177.052907 
M 963.716347 177.052907 
L 925.673129 177.052907 
M 963.716347 189.464571 
L 925.673129 189.464571 
M 944.694738 189.464571 
L 944.694738 286.68927 
" clip-path="url(#p1185f8f82a)" style="fill: none; stroke: #000000; stroke-width: 2; stroke-linecap: round"/>
   </g>
   <g id="line2d_25">
    <path d="M 944.694738 286.68927 
L 868.608303 286.68927 
L 792.521868 286.68927 
" clip-path="url(#p1185f8f82a)" style="fill: none; stroke: #000000; stroke-width: 2; stroke-linecap: round"/>
   </g>
   <g id="line2d_26">
    <path d="M 792.521868 286.68927 
L 792.521868 314.270746 
L 773.50026 314.270746 
L 811.543477 314.270746 
M 779.206742 322.545188 
L 805.836994 322.545188 
M 788.717546 330.819631 
L 796.32619 330.819631 
" clip-path="url(#p1185f8f82a)" style="fill: none; stroke: #000000; stroke-width: 2; stroke-linecap: round"/>
   </g>
   <g id="line2d_27">
    <path d="M 792.521868 286.68927 
L 678.392216 286.68927 
L 564.262564 286.68927 
" clip-path="url(#p1185f8f82a)" style="fill: none; stroke: #000000; stroke-width: 2; stroke-linecap: round"/>
   </g>
   <g id="line2d_28">
    <path d="M 564.262564 286.68927 
L 564.262564 269.450849 
L 564.262564 252.212427 
" clip-path="url(#p1185f8f82a)" style="fill: none; stroke: #000000; stroke-width: 2; stroke-linecap: round"/>
   </g>
   <g id="text_8">
    <!-- Vs -->
    <g transform="translate(510.778203 331.044083) scale(0.13 -0.13)">
     <use xlink:href="#DejaVuSans-56"/>
     <use xlink:href="#DejaVuSans-73" transform="translate(68.408203 0)"/>
    </g>
   </g>
   <g id="text_9">
    <!-- R₁ -->
    <g transform="translate(709.312855 87.467666) scale(0.13 -0.13)">
     <use xlink:href="#DejaVuSans-52"/>
     <use xlink:href="#DejaVuSans-2081" transform="translate(69.482422 0)"/>
    </g>
   </g>
   <g id="text_10">
    <!-- A -->
    <g style="fill: #ff0000" transform="translate(876.216947 83.415395) scale(0.13 -0.13)">
     <use xlink:href="#DejaVuSans-41"/>
    </g>
   </g>
   <g id="text_11">
    <!-- C -->
    <g transform="translate(985.807771 77.124613) scale(0.13 -0.13)">
     <use xlink:href="#DejaVuSans-43"/>
    </g>
   </g>
   <g id="text_12">
    <!-- t &gt; 0  (switch opens) -->
    <g transform="translate(663.074409 17.837812) scale(0.14 -0.14)">
     <defs>
      <path id="DejaVuSans-Bold-3e" d="M 678 3041 
L 678 3822 
L 4684 2375 
L 4684 1638 
L 678 191 
L 678 972 
L 3694 2003 
L 678 3041 
z
" transform="scale(0.015625)"/>
      <path id="DejaVuSans-Bold-70" d="M 1656 506 
L 1656 -1331 
L 538 -1331 
L 538 3500 
L 1656 3500 
L 1656 2988 
Q 1888 3294 2169 3439 
Q 2450 3584 2816 3584 
Q 3463 3584 3878 3070 
Q 4294 2556 4294 1747 
Q 4294 938 3878 423 
Q 3463 -91 2816 -91 
Q 2450 -91 2169 54 
Q 1888 200 1656 506 
z
M 2400 2772 
Q 2041 2772 1848 2508 
Q 1656 2244 1656 1747 
Q 1656 1250 1848 986 
Q 2041 722 2400 722 
Q 2759 722 2948 984 
Q 3138 1247 3138 1747 
Q 3138 2247 2948 2509 
Q 2759 2772 2400 2772 
z
" transform="scale(0.015625)"/>
      <path id="DejaVuSans-Bold-6e" d="M 4056 2131 
L 4056 0 
L 2931 0 
L 2931 347 
L 2931 1631 
Q 2931 2084 2911 2256 
Q 2891 2428 2841 2509 
Q 2775 2619 2662 2680 
Q 2550 2741 2406 2741 
Q 2056 2741 1856 2470 
Q 1656 2200 1656 1722 
L 1656 0 
L 538 0 
L 538 3500 
L 1656 3500 
L 1656 2988 
Q 1909 3294 2193 3439 
Q 2478 3584 2822 3584 
Q 3428 3584 3742 3212 
Q 4056 2841 4056 2131 
z
" transform="scale(0.015625)"/>
     </defs>
     <use xlink:href="#DejaVuSans-Bold-74"/>
     <use xlink:href="#DejaVuSans-Bold-20" transform="translate(47.802734 0)"/>
     <use xlink:href="#DejaVuSans-Bold-3e" transform="translate(82.617188 0)"/>
     <use xlink:href="#DejaVuSans-Bold-20" transform="translate(166.40625 0)"/>
     <use xlink:href="#DejaVuSans-Bold-30" transform="translate(201.220703 0)"/>
     <use xlink:href="#DejaVuSans-Bold-20" transform="translate(270.800781 0)"/>
     <use xlink:href="#DejaVuSans-Bold-20" transform="translate(305.615234 0)"/>
     <use xlink:href="#DejaVuSans-Bold-28" transform="translate(340.429688 0)"/>
     <use xlink:href="#DejaVuSans-Bold-73" transform="translate(386.132812 0)"/>
     <use xlink:href="#DejaVuSans-Bold-77" transform="translate(445.654297 0)"/>
     <use xlink:href="#DejaVuSans-Bold-69" transform="translate(538.037109 0)"/>
     <use xlink:href="#DejaVuSans-Bold-74" transform="translate(572.314453 0)"/>
     <use xlink:href="#DejaVuSans-Bold-63" transform="translate(620.117188 0)"/>
     <use xlink:href="#DejaVuSans-Bold-68" transform="translate(679.394531 0)"/>
     <use xlink:href="#DejaVuSans-Bold-20" transform="translate(750.585938 0)"/>
     <use xlink:href="#DejaVuSans-Bold-6f" transform="translate(785.400391 0)"/>
     <use xlink:href="#DejaVuSans-Bold-70" transform="translate(854.101562 0)"/>
     <use xlink:href="#DejaVuSans-Bold-65" transform="translate(925.683594 0)"/>
     <use xlink:href="#DejaVuSans-Bold-6e" transform="translate(993.505859 0)"/>
     <use xlink:href="#DejaVuSans-Bold-73" transform="translate(1064.697266 0)"/>
     <use xlink:href="#DejaVuSans-Bold-29" transform="translate(1124.21875 0)"/>
    </g>
   </g>
   <g id="patch_11">
    <path d="M 830.565086 119.476578 
C 832.078462 119.476578 833.530059 118.931673 834.600178 117.961872 
C 835.670297 116.992072 836.271568 115.676556 836.271568 114.305051 
C 836.271568 112.933546 835.670297 111.61803 834.600178 110.648229 
C 833.530059 109.678429 832.078462 109.133524 830.565086 109.133524 
C 829.051709 109.133524 827.600112 109.678429 826.529993 110.648229 
C 825.459874 111.61803 824.858603 112.933546 824.858603 114.305051 
C 824.858603 115.676556 825.459874 116.992072 826.529993 117.961872 
C 827.600112 118.931673 829.051709 119.476578 830.565086 119.476578 
z
" clip-path="url(#p1185f8f82a)" style="stroke: #000000; stroke-width: 2; stroke-linejoin: miter"/>
   </g>
   <g id="line2d_29">
    <path d="M 564.262564 38.455994 
L 564.262564 38.455994 
" clip-path="url(#p1185f8f82a)" style="fill: none; stroke: #000000; stroke-width: 2; stroke-linecap: round"/>
   </g>
   <g id="patch_12">
    <path d="M 575.675529 38.455994 
L 564.262564 59.142101 
L 552.849599 38.455994 
z
" clip-path="url(#p1185f8f82a)"/>
   </g>
   <g id="text_13">
    <!-- i(t) -->
    <g transform="translate(524.034758 52.110297) scale(0.12 -0.12)">
     <defs>
      <path id="DejaVuSans-69" d="M 603 3500 
L 1178 3500 
L 1178 0 
L 603 0 
L 603 3500 
z
M 603 4863 
L 1178 4863 
L 1178 4134 
L 603 4134 
L 603 4863 
z
" transform="scale(0.015625)"/>
      <path id="DejaVuSans-28" d="M 1984 4856 
Q 1566 4138 1362 3434 
Q 1159 2731 1159 2009 
Q 1159 1288 1364 580 
Q 1569 -128 1984 -844 
L 1484 -844 
Q 1016 -109 783 600 
Q 550 1309 550 2009 
Q 550 2706 781 3412 
Q 1013 4119 1484 4856 
L 1984 4856 
z
" transform="scale(0.015625)"/>
      <path id="DejaVuSans-74" d="M 1172 4494 
L 1172 3500 
L 2356 3500 
L 2356 3053 
L 1172 3053 
L 1172 1153 
Q 1172 725 1289 603 
Q 1406 481 1766 481 
L 2356 481 
L 2356 0 
L 1766 0 
Q 1100 0 847 248 
Q 594 497 594 1153 
L 594 3053 
L 172 3053 
L 172 3500 
L 594 3500 
L 594 4494 
L 1172 4494 
z
" transform="scale(0.015625)"/>
      <path id="DejaVuSans-29" d="M 513 4856 
L 1013 4856 
Q 1481 4119 1714 3412 
Q 1947 2706 1947 2009 
Q 1947 1309 1714 600 
Q 1481 -109 1013 -844 
L 513 -844 
Q 928 -128 1133 580 
Q 1338 1288 1338 2009 
Q 1338 2731 1133 3434 
Q 928 4138 513 4856 
z
" transform="scale(0.015625)"/>
     </defs>
     <use xlink:href="#DejaVuSans-69"/>
     <use xlink:href="#DejaVuSans-28" transform="translate(27.783203 0)"/>
     <use xlink:href="#DejaVuSans-74" transform="translate(66.796875 0)"/>
     <use xlink:href="#DejaVuSans-29" transform="translate(106.005859 0)"/>
    </g>
   </g>
  </g>
 </g>
 <defs>
  <clipPath id="p3069c84784">
   <rect x="7.2" y="23.837812" width="481.2467" height="321.6"/>
  </clipPath>
  <clipPath id="p1185f8f82a">
   <rect x="504.344496" y="23.837812" width="481.2467" height="321.6"/>
  </clipPath>
 </defs>
</svg>
