<?xml version="1.0" encoding="utf-8" standalone="no"?>
<!DOCTYPE svg PUBLIC "-//W3C//DTD SVG 1.1//EN"
  "http://www.w3.org/Graphics/SVG/1.1/DTD/svg11.dtd">
<svg xmlns:xlink="http://www.w3.org/1999/xlink" width="1000.8pt" height="351.874386pt" viewBox="0 0 1000.8 351.874386" xmlns="http://www.w3.org/2000/svg" version="1.1">
 <metadata>
  <rdf:RDF xmlns:dc="http://purl.org/dc/elements/1.1/" xmlns:cc="http://creativecommons.org/ns#" xmlns:rdf="http://www.w3.org/1999/02/22-rdf-syntax-ns#">
   <cc:Work>
    <dc:type rdf:resource="http://purl.org/dc/dcmitype/StillImage"/>
    <dc:date>2026-03-05T18:37:25.601376</dc:date>
    <dc:format>image/svg+xml</dc:format>
    <dc:creator>
     <cc:Agent>
      <dc:title>Matplotlib v3.10.8, https://matplotlib.org/</dc:title>
     </cc:Agent>
    </dc:creator>
   </cc:Work>
  </rdf:RDF>
 </metadata>
 <defs>
  <style type="text/css">*{stroke-linejoin: round; stroke-linecap: butt}</style>
 </defs>
 <g id="figure_1">
  <g id="patch_1">
   <path d="M 0 351.874386 
L 1000.8 351.874386 
L 1000.8 0 
L 0 0 
z
" style="fill: #ffffff"/>
  </g>
  <g id="axes_1">
   <g id="patch_2">
    <path d="M 62.221212 150.464298 
C 70.932732 150.464298 79.288624 148.094464 85.448599 143.876724 
C 91.608573 139.658985 95.069697 133.937699 95.069697 127.972915 
C 95.069697 122.008131 91.608573 116.286845 85.448599 112.069106 
C 79.288624 107.851366 70.932732 105.481532 62.221212 105.481532 
C 53.509692 105.481532 45.153801 107.851366 38.993826 112.069106 
C 32.833851 116.286845 29.372727 122.008131 29.372727 127.972915 
C 29.372727 133.937699 32.833851 139.658985 38.993826 143.876724 
C 45.153801 148.094464 53.509692 150.464298 62.221212 150.464298 
L 62.221212 150.464298 
z
" clip-path="url(#pfd88736395)" style="fill: none; stroke: #000000; stroke-width: 2; stroke-linejoin: miter"/>
   </g>
   <g id="patch_3">
    <path d="M 294.286059 55.067515 
C 298.536966 44.205011 300.372727 38.007384 325.009091 38.007384 
" clip-path="url(#pfd88736395)" style="fill: none; stroke: #000000; stroke-width: 2; stroke-linejoin: miter; stroke-linecap: round"/>
   </g>
   <g id="patch_4">
    <path d="M 302.757353 50.800502 
L 292.160606 60.498767 
L 290.065673 48.472023 
z
" clip-path="url(#pfd88736395)"/>
   </g>
   <g id="line2d_1">
    <path d="M 62.221212 195.447064 
L 62.221212 150.464298 
L 62.221212 150.464298 
M 62.221212 105.481532 
L 62.221212 105.481532 
L 62.221212 60.498767 
" clip-path="url(#pfd88736395)" style="fill: none; stroke: #000000; stroke-width: 2; stroke-linecap: round"/>
   </g>
   <g id="line2d_2">
    <path d="M 68.790909 139.218606 
L 55.651515 139.218606 
" clip-path="url(#pfd88736395)" style="fill: none; stroke: #000000; stroke-width: 2; stroke-linecap: round"/>
   </g>
   <g id="line2d_3">
    <path d="M 62.221212 121.2255 
L 62.221212 112.228947 
" clip-path="url(#pfd88736395)" style="fill: none; stroke: #000000; stroke-width: 2; stroke-linecap: round"/>
   </g>
   <g id="line2d_4">
    <path d="M 68.790909 116.727224 
L 55.651515 116.727224 
" clip-path="url(#pfd88736395)" style="fill: none; stroke: #000000; stroke-width: 2; stroke-linecap: round"/>
   </g>
   <g id="line2d_5">
    <path d="M 62.221212 60.498767 
L 78.645455 60.498767 
L 95.069697 60.498767 
" clip-path="url(#pfd88736395)" style="fill: none; stroke: #000000; stroke-width: 2; stroke-linecap: round"/>
   </g>
   <g id="line2d_6">
    <path d="M 95.069697 60.498767 
L 160.766667 60.498767 
L 166.241414 49.253075 
L 177.190909 71.744458 
L 188.140404 49.253075 
L 199.089899 71.744458 
L 210.039394 49.253075 
L 220.988889 71.744458 
L 226.463636 60.498767 
L 292.160606 60.498767 
" clip-path="url(#pfd88736395)" style="fill: none; stroke: #000000; stroke-width: 2; stroke-linecap: round"/>
   </g>
   <g id="line2d_7">
    <path d="M 325.009091 38.007384 
L 325.009091 82.990149 
M 331.578788 93.786013 
L 354.572727 118.976362 
M 325.009091 127.972915 
L 325.009091 172.955681 
" clip-path="url(#pfd88736395)" style="fill: none; stroke: #000000; stroke-width: 2; stroke-linecap: round"/>
   </g>
   <g id="line2d_8">
    <path d="M 325.009091 172.955681 
L 325.009091 217.938446 
L 341.433333 221.68701 
L 308.584848 229.184138 
L 341.433333 236.681265 
L 308.584848 244.178393 
L 341.433333 251.675521 
L 308.584848 259.172648 
L 325.009091 262.921212 
L 325.009091 307.903978 
" clip-path="url(#pfd88736395)" style="fill: none; stroke: #000000; stroke-width: 2; stroke-linecap: round"/>
   </g>
   <g id="line2d_9">
    <path d="M 325.009091 307.903978 
L 325.009091 314.651393 
L 325.009091 321.398807 
" clip-path="url(#pfd88736395)" style="fill: none; stroke: #000000; stroke-width: 2; stroke-linecap: round"/>
   </g>
   <g id="line2d_10">
    <path d="M 325.009091 38.007384 
L 390.706061 38.007384 
L 456.40303 38.007384 
" clip-path="url(#pfd88736395)" style="fill: none; stroke: #000000; stroke-width: 2; stroke-linecap: round"/>
   </g>
   <g id="line2d_11">
    <path d="M 456.40303 38.007384 
L 456.40303 101.433083 
M 472.827273 101.433083 
L 439.978788 101.433083 
M 472.827273 109.529981 
L 439.978788 109.529981 
M 456.40303 109.529981 
L 456.40303 172.955681 
" clip-path="url(#pfd88736395)" style="fill: none; stroke: #000000; stroke-width: 2; stroke-linecap: round"/>
   </g>
   <g id="line2d_12">
    <path d="M 456.40303 172.955681 
L 456.40303 179.703096 
L 456.40303 186.45051 
" clip-path="url(#pfd88736395)" style="fill: none; stroke: #000000; stroke-width: 2; stroke-linecap: round"/>
   </g>
   <g id="line2d_13">
    <path d="M 456.40303 186.45051 
L 390.706061 186.45051 
L 325.009091 186.45051 
" clip-path="url(#pfd88736395)" style="fill: none; stroke: #000000; stroke-width: 2; stroke-linecap: round"/>
   </g>
   <g id="line2d_14">
    <path d="M 325.009091 186.45051 
L 325.009091 204.443617 
L 308.584848 204.443617 
L 341.433333 204.443617 
M 313.512121 209.841549 
L 336.506061 209.841549 
M 321.724242 215.23948 
L 328.293939 215.23948 
" clip-path="url(#pfd88736395)" style="fill: none; stroke: #000000; stroke-width: 2; stroke-linecap: round"/>
   </g>
   <g id="line2d_15">
    <path d="M 325.009091 186.45051 
L 193.615152 186.45051 
L 62.221212 186.45051 
" clip-path="url(#pfd88736395)" style="fill: none; stroke: #000000; stroke-width: 2; stroke-linecap: round"/>
   </g>
   <g id="line2d_16">
    <path d="M 62.221212 186.45051 
L 62.221212 181.952234 
L 62.221212 177.453957 
" clip-path="url(#pfd88736395)" style="fill: none; stroke: #000000; stroke-width: 2; stroke-linecap: round"/>
   </g>
   <g id="text_1">
    <!-- Vs -->
    <g transform="translate(54.388712 218.819862) scale(0.13 -0.13)">
     <defs>
      <path id="DejaVuSans-56" d="M 1831 0 
L 50 4666 
L 709 4666 
L 2188 738 
L 3669 4666 
L 4325 4666 
L 2547 0 
L 1831 0 
z
" transform="scale(0.015625)"/>
      <path id="DejaVuSans-73" d="M 2834 3397 
L 2834 2853 
Q 2591 2978 2328 3040 
Q 2066 3103 1784 3103 
Q 1356 3103 1142 2972 
Q 928 2841 928 2578 
Q 928 2378 1081 2264 
Q 1234 2150 1697 2047 
L 1894 2003 
Q 2506 1872 2764 1633 
Q 3022 1394 3022 966 
Q 3022 478 2636 193 
Q 2250 -91 1575 -91 
Q 1294 -91 989 -36 
Q 684 19 347 128 
L 347 722 
Q 666 556 975 473 
Q 1284 391 1588 391 
Q 1994 391 2212 530 
Q 2431 669 2431 922 
Q 2431 1156 2273 1281 
Q 2116 1406 1581 1522 
L 1381 1569 
Q 847 1681 609 1914 
Q 372 2147 372 2553 
Q 372 3047 722 3315 
Q 1072 3584 1716 3584 
Q 2034 3584 2315 3537 
Q 2597 3491 2834 3397 
z
" transform="scale(0.015625)"/>
     </defs>
     <use xlink:href="#DejaVuSans-56"/>
     <use xlink:href="#DejaVuSans-73" transform="translate(68.408203 0)"/>
    </g>
   </g>
   <g id="text_2">
    <!-- R₁ -->
    <g transform="translate(186.492573 42.051205) scale(0.13 -0.13)">
     <defs>
      <path id="DejaVuSans-52" d="M 2841 2188 
Q 3044 2119 3236 1894 
Q 3428 1669 3622 1275 
L 4263 0 
L 3584 0 
L 2988 1197 
Q 2756 1666 2539 1819 
Q 2322 1972 1947 1972 
L 1259 1972 
L 1259 0 
L 628 0 
L 628 4666 
L 2053 4666 
Q 2853 4666 3247 4331 
Q 3641 3997 3641 3322 
Q 3641 2881 3436 2590 
Q 3231 2300 2841 2188 
z
M 1259 4147 
L 1259 2491 
L 2053 2491 
Q 2509 2491 2742 2702 
Q 2975 2913 2975 3322 
Q 2975 3731 2742 3939 
Q 2509 4147 2053 4147 
L 1259 4147 
z
" transform="scale(0.015625)"/>
      <path id="DejaVuSans-2081" d="M 488 319 
L 1125 319 
L 1125 2229 
L 428 2101 
L 428 2463 
L 1147 2585 
L 1575 2585 
L 1575 319 
L 2216 319 
L 2216 -24 
L 488 -24 
L 488 319 
z
" transform="scale(0.015625)"/>
     </defs>
     <use xlink:href="#DejaVuSans-52"/>
     <use xlink:href="#DejaVuSans-2081" transform="translate(69.482422 0)"/>
    </g>
   </g>
   <g id="text_3">
    <!-- A -->
    <g style="fill: #ff0000" transform="translate(331.578788 41.594571) scale(0.13 -0.13)">
     <defs>
      <path id="DejaVuSans-41" d="M 2188 4044 
L 1331 1722 
L 3047 1722 
L 2188 4044 
z
M 1831 4666 
L 2547 4666 
L 4325 0 
L 3669 0 
L 3244 1197 
L 1141 1197 
L 716 0 
L 50 0 
L 1831 4666 
z
" transform="scale(0.015625)"/>
     </defs>
     <use xlink:href="#DejaVuSans-41"/>
    </g>
   </g>
   <g id="patch_5">
    <path d="M 325.009091 93.786013 
C 327.099856 93.786013 329.10527 93.217253 330.583664 92.204995 
C 332.062058 91.192738 332.892727 89.819629 332.892727 88.388081 
C 332.892727 86.956533 332.062058 85.583424 330.583664 84.571167 
C 329.10527 83.55891 327.099856 82.990149 325.009091 82.990149 
C 322.918326 82.990149 320.912912 83.55891 319.434518 84.571167 
C 317.956124 85.583424 317.125455 86.956533 317.125455 88.388081 
C 317.125455 89.819629 317.956124 91.192738 319.434518 92.204995 
C 320.912912 93.217253 322.918326 93.786013 325.009091 93.786013 
z
" clip-path="url(#pfd88736395)" style="fill: #ffffff; stroke: #000000; stroke-width: 2; stroke-linejoin: miter"/>
   </g>
   <g id="patch_6">
    <path d="M 325.009091 127.972915 
C 327.099856 127.972915 329.10527 127.404155 330.583664 126.391897 
C 332.062058 125.37964 332.892727 124.006531 332.892727 122.574983 
C 332.892727 121.143435 332.062058 119.770326 330.583664 118.758069 
C 329.10527 117.745811 327.099856 117.177051 325.009091 117.177051 
C 322.918326 117.177051 320.912912 117.745811 319.434518 118.758069 
C 317.956124 119.770326 317.125455 121.143435 317.125455 122.574983 
C 317.125455 124.006531 317.956124 125.37964 319.434518 126.391897 
C 320.912912 127.404155 322.918326 127.972915 325.009091 127.972915 
z
" clip-path="url(#pfd88736395)" style="fill: #ffffff; stroke: #000000; stroke-width: 2; stroke-linejoin: miter"/>
   </g>
   <g id="text_4">
    <!-- S -->
    <g transform="translate(331.722607 48.79862) scale(0.13 -0.13)">
     <defs>
      <path id="DejaVuSans-53" d="M 3425 4513 
L 3425 3897 
Q 3066 4069 2747 4153 
Q 2428 4238 2131 4238 
Q 1616 4238 1336 4038 
Q 1056 3838 1056 3469 
Q 1056 3159 1242 3001 
Q 1428 2844 1947 2747 
L 2328 2669 
Q 3034 2534 3370 2195 
Q 3706 1856 3706 1288 
Q 3706 609 3251 259 
Q 2797 -91 1919 -91 
Q 1588 -91 1214 -16 
Q 841 59 441 206 
L 441 856 
Q 825 641 1194 531 
Q 1563 422 1919 422 
Q 2459 422 2753 634 
Q 3047 847 3047 1241 
Q 3047 1584 2836 1778 
Q 2625 1972 2144 2069 
L 1759 2144 
Q 1053 2284 737 2584 
Q 422 2884 422 3419 
Q 422 4038 858 4394 
Q 1294 4750 2059 4750 
Q 2388 4750 2728 4690 
Q 3069 4631 3425 4513 
z
" transform="scale(0.015625)"/>
     </defs>
     <use xlink:href="#DejaVuSans-53"/>
    </g>
   </g>
   <g id="text_5">
    <!-- R₂ -->
    <g transform="translate(317.886513 183.746917) scale(0.13 -0.13)">
     <defs>
      <path id="DejaVuSans-2082" d="M 838 332 
L 2163 332 
L 2163 -24 
L 294 -24 
L 294 319 
Q 400 416 597 591 
Q 1672 1544 1672 1838 
Q 1672 2044 1509 2170 
Q 1347 2297 1081 2297 
Q 919 2297 728 2242 
Q 538 2188 313 2079 
L 313 2463 
Q 553 2551 761 2594 
Q 969 2638 1147 2638 
Q 1600 2638 1872 2432 
Q 2144 2226 2144 1888 
Q 2144 1454 1109 566 
Q 934 416 838 332 
z
" transform="scale(0.015625)"/>
     </defs>
     <use xlink:href="#DejaVuSans-52"/>
     <use xlink:href="#DejaVuSans-2082" transform="translate(69.482422 0)"/>
    </g>
   </g>
   <g id="text_6">
    <!-- C -->
    <g transform="translate(451.864202 48.79862) scale(0.13 -0.13)">
     <defs>
      <path id="DejaVuSans-43" d="M 4122 4306 
L 4122 3641 
Q 3803 3938 3442 4084 
Q 3081 4231 2675 4231 
Q 1875 4231 1450 3742 
Q 1025 3253 1025 2328 
Q 1025 1406 1450 917 
Q 1875 428 2675 428 
Q 3081 428 3442 575 
Q 3803 722 4122 1019 
L 4122 359 
Q 3791 134 3420 21 
Q 3050 -91 2638 -91 
Q 1578 -91 968 557 
Q 359 1206 359 2328 
Q 359 3453 968 4101 
Q 1578 4750 2638 4750 
Q 3056 4750 3426 4639 
Q 3797 4528 4122 4306 
z
" transform="scale(0.015625)"/>
     </defs>
     <use xlink:href="#DejaVuSans-43"/>
    </g>
   </g>
   <g id="text_7">
    <!-- t &lt; 0  (switch closed) -->
    <g transform="translate(167.640312 17.837812) scale(0.14 -0.14)">
     <defs>
      <path id="DejaVuSans-Bold-74" d="M 1759 4494 
L 1759 3500 
L 2913 3500 
L 2913 2700 
L 1759 2700 
L 1759 1216 
Q 1759 972 1856 886 
Q 1953 800 2241 800 
L 2816 800 
L 2816 0 
L 1856 0 
Q 1194 0 917 276 
Q 641 553 641 1216 
L 641 2700 
L 84 2700 
L 84 3500 
L 641 3500 
L 641 4494 
L 1759 4494 
z
" transform="scale(0.015625)"/>
      <path id="DejaVuSans-Bold-20" transform="scale(0.015625)"/>
      <path id="DejaVuSans-Bold-3c" d="M 4684 3041 
L 1672 2003 
L 4684 972 
L 4684 191 
L 678 1638 
L 678 2375 
L 4684 3822 
L 4684 3041 
z
" transform="scale(0.015625)"/>
      <path id="DejaVuSans-Bold-30" d="M 2944 2338 
Q 2944 3213 2780 3570 
Q 2616 3928 2228 3928 
Q 1841 3928 1675 3570 
Q 1509 3213 1509 2338 
Q 1509 1453 1675 1090 
Q 1841 728 2228 728 
Q 2613 728 2778 1090 
Q 2944 1453 2944 2338 
z
M 4147 2328 
Q 4147 1169 3647 539 
Q 3147 -91 2228 -91 
Q 1306 -91 806 539 
Q 306 1169 306 2328 
Q 306 3491 806 4120 
Q 1306 4750 2228 4750 
Q 3147 4750 3647 4120 
Q 4147 3491 4147 2328 
z
" transform="scale(0.015625)"/>
      <path id="DejaVuSans-Bold-28" d="M 2413 -844 
L 1484 -844 
Q 1006 -72 778 623 
Q 550 1319 550 2003 
Q 550 2688 779 3389 
Q 1009 4091 1484 4856 
L 2413 4856 
Q 2013 4116 1813 3408 
Q 1613 2700 1613 2009 
Q 1613 1319 1811 609 
Q 2009 -100 2413 -844 
z
" transform="scale(0.015625)"/>
      <path id="DejaVuSans-Bold-73" d="M 3272 3391 
L 3272 2541 
Q 2913 2691 2578 2766 
Q 2244 2841 1947 2841 
Q 1628 2841 1473 2761 
Q 1319 2681 1319 2516 
Q 1319 2381 1436 2309 
Q 1553 2238 1856 2203 
L 2053 2175 
Q 2913 2066 3209 1816 
Q 3506 1566 3506 1031 
Q 3506 472 3093 190 
Q 2681 -91 1863 -91 
Q 1516 -91 1145 -36 
Q 775 19 384 128 
L 384 978 
Q 719 816 1070 734 
Q 1422 653 1784 653 
Q 2113 653 2278 743 
Q 2444 834 2444 1013 
Q 2444 1163 2330 1236 
Q 2216 1309 1875 1350 
L 1678 1375 
Q 931 1469 631 1722 
Q 331 1975 331 2491 
Q 331 3047 712 3315 
Q 1094 3584 1881 3584 
Q 2191 3584 2531 3537 
Q 2872 3491 3272 3391 
z
" transform="scale(0.015625)"/>
      <path id="DejaVuSans-Bold-77" d="M 225 3500 
L 1313 3500 
L 1900 1088 
L 2491 3500 
L 3425 3500 
L 4013 1113 
L 4603 3500 
L 5691 3500 
L 4769 0 
L 3547 0 
L 2956 2406 
L 2369 0 
L 1147 0 
L 225 3500 
z
" transform="scale(0.015625)"/>
      <path id="DejaVuSans-Bold-69" d="M 538 3500 
L 1656 3500 
L 1656 0 
L 538 0 
L 538 3500 
z
M 538 4863 
L 1656 4863 
L 1656 3950 
L 538 3950 
L 538 4863 
z
" transform="scale(0.015625)"/>
      <path id="DejaVuSans-Bold-63" d="M 3366 3391 
L 3366 2478 
Q 3138 2634 2908 2709 
Q 2678 2784 2431 2784 
Q 1963 2784 1702 2511 
Q 1441 2238 1441 1747 
Q 1441 1256 1702 982 
Q 1963 709 2431 709 
Q 2694 709 2930 787 
Q 3166 866 3366 1019 
L 3366 103 
Q 3103 6 2833 -42 
Q 2563 -91 2291 -91 
Q 1344 -91 809 395 
Q 275 881 275 1747 
Q 275 2613 809 3098 
Q 1344 3584 2291 3584 
Q 2566 3584 2833 3536 
Q 3100 3488 3366 3391 
z
" transform="scale(0.015625)"/>
      <path id="DejaVuSans-Bold-68" d="M 4056 2131 
L 4056 0 
L 2931 0 
L 2931 347 
L 2931 1625 
Q 2931 2084 2911 2256 
Q 2891 2428 2841 2509 
Q 2775 2619 2662 2680 
Q 2550 2741 2406 2741 
Q 2056 2741 1856 2470 
Q 1656 2200 1656 1722 
L 1656 0 
L 538 0 
L 538 4863 
L 1656 4863 
L 1656 2988 
Q 1909 3294 2193 3439 
Q 2478 3584 2822 3584 
Q 3428 3584 3742 3212 
Q 4056 2841 4056 2131 
z
" transform="scale(0.015625)"/>
      <path id="DejaVuSans-Bold-6c" d="M 538 4863 
L 1656 4863 
L 1656 0 
L 538 0 
L 538 4863 
z
" transform="scale(0.015625)"/>
      <path id="DejaVuSans-Bold-6f" d="M 2203 2784 
Q 1831 2784 1636 2517 
Q 1441 2250 1441 1747 
Q 1441 1244 1636 976 
Q 1831 709 2203 709 
Q 2569 709 2762 976 
Q 2956 1244 2956 1747 
Q 2956 2250 2762 2517 
Q 2569 2784 2203 2784 
z
M 2203 3584 
Q 3106 3584 3614 3096 
Q 4122 2609 4122 1747 
Q 4122 884 3614 396 
Q 3106 -91 2203 -91 
Q 1297 -91 786 396 
Q 275 884 275 1747 
Q 275 2609 786 3096 
Q 1297 3584 2203 3584 
z
" transform="scale(0.015625)"/>
      <path id="DejaVuSans-Bold-65" d="M 4031 1759 
L 4031 1441 
L 1416 1441 
Q 1456 1047 1700 850 
Q 1944 653 2381 653 
Q 2734 653 3104 758 
Q 3475 863 3866 1075 
L 3866 213 
Q 3469 63 3072 -14 
Q 2675 -91 2278 -91 
Q 1328 -91 801 392 
Q 275 875 275 1747 
Q 275 2603 792 3093 
Q 1309 3584 2216 3584 
Q 3041 3584 3536 3087 
Q 4031 2591 4031 1759 
z
M 2881 2131 
Q 2881 2450 2695 2645 
Q 2509 2841 2209 2841 
Q 1884 2841 1681 2658 
Q 1478 2475 1428 2131 
L 2881 2131 
z
" transform="scale(0.015625)"/>
      <path id="DejaVuSans-Bold-64" d="M 2919 2988 
L 2919 4863 
L 4044 4863 
L 4044 0 
L 2919 0 
L 2919 506 
Q 2688 197 2409 53 
Q 2131 -91 1766 -91 
Q 1119 -91 703 423 
Q 288 938 288 1747 
Q 288 2556 703 3070 
Q 1119 3584 1766 3584 
Q 2128 3584 2408 3439 
Q 2688 3294 2919 2988 
z
M 2181 722 
Q 2541 722 2730 984 
Q 2919 1247 2919 1747 
Q 2919 2247 2730 2509 
Q 2541 2772 2181 2772 
Q 1825 2772 1636 2509 
Q 1447 2247 1447 1747 
Q 1447 1247 1636 984 
Q 1825 722 2181 722 
z
" transform="scale(0.015625)"/>
      <path id="DejaVuSans-Bold-29" d="M 513 -844 
Q 913 -100 1113 609 
Q 1313 1319 1313 2009 
Q 1313 2700 1113 3408 
Q 913 4116 513 4856 
L 1441 4856 
Q 1916 4091 2145 3389 
Q 2375 2688 2375 2003 
Q 2375 1319 2147 623 
Q 1919 -72 1441 -844 
L 513 -844 
z
" transform="scale(0.015625)"/>
     </defs>
     <use xlink:href="#DejaVuSans-Bold-74"/>
     <use xlink:href="#DejaVuSans-Bold-20" transform="translate(47.802734 0)"/>
     <use xlink:href="#DejaVuSans-Bold-3c" transform="translate(82.617188 0)"/>
     <use xlink:href="#DejaVuSans-Bold-20" transform="translate(166.40625 0)"/>
     <use xlink:href="#DejaVuSans-Bold-30" transform="translate(201.220703 0)"/>
     <use xlink:href="#DejaVuSans-Bold-20" transform="translate(270.800781 0)"/>
     <use xlink:href="#DejaVuSans-Bold-20" transform="translate(305.615234 0)"/>
     <use xlink:href="#DejaVuSans-Bold-28" transform="translate(340.429688 0)"/>
     <use xlink:href="#DejaVuSans-Bold-73" transform="translate(386.132812 0)"/>
     <use xlink:href="#DejaVuSans-Bold-77" transform="translate(445.654297 0)"/>
     <use xlink:href="#DejaVuSans-Bold-69" transform="translate(538.037109 0)"/>
     <use xlink:href="#DejaVuSans-Bold-74" transform="translate(572.314453 0)"/>
     <use xlink:href="#DejaVuSans-Bold-63" transform="translate(620.117188 0)"/>
     <use xlink:href="#DejaVuSans-Bold-68" transform="translate(679.394531 0)"/>
     <use xlink:href="#DejaVuSans-Bold-20" transform="translate(750.585938 0)"/>
     <use xlink:href="#DejaVuSans-Bold-63" transform="translate(785.400391 0)"/>
     <use xlink:href="#DejaVuSans-Bold-6c" transform="translate(844.677734 0)"/>
     <use xlink:href="#DejaVuSans-Bold-6f" transform="translate(878.955078 0)"/>
     <use xlink:href="#DejaVuSans-Bold-73" transform="translate(947.65625 0)"/>
     <use xlink:href="#DejaVuSans-Bold-65" transform="translate(1007.177734 0)"/>
     <use xlink:href="#DejaVuSans-Bold-64" transform="translate(1075 0)"/>
     <use xlink:href="#DejaVuSans-Bold-29" transform="translate(1146.582031 0)"/>
    </g>
   </g>
   <g id="patch_7">
    <path d="M 292.160606 63.872474 
C 293.467334 63.872474 294.720718 63.516999 295.644714 62.884338 
C 296.56871 62.251677 297.087879 61.393484 297.087879 60.498767 
C 297.087879 59.604049 296.56871 58.745856 295.644714 58.113195 
C 294.720718 57.480534 293.467334 57.125059 292.160606 57.125059 
C 290.853878 57.125059 289.600494 57.480534 288.676498 58.113195 
C 287.752502 58.745856 287.233333 59.604049 287.233333 60.498767 
C 287.233333 61.393484 287.752502 62.251677 288.676498 62.884338 
C 289.600494 63.516999 290.853878 63.872474 292.160606 63.872474 
z
" clip-path="url(#pfd88736395)" style="stroke: #000000; stroke-width: 2; stroke-linejoin: miter"/>
   </g>
  </g>
  <g id="axes_2">
   <g id="patch_8">
    <path d="M 566.533992 245.203943 
C 576.760559 245.203943 586.569649 241.682728 593.800924 235.415804 
C 601.032199 229.148879 605.095257 220.647913 605.095257 211.785143 
C 605.095257 202.922374 601.032199 194.421408 593.800924 188.154483 
C 586.569649 181.887559 576.760559 178.366344 566.533992 178.366344 
C 556.307425 178.366344 546.498335 181.887559 539.26706 188.154483 
C 532.035785 194.421408 527.972727 202.922374 527.972727 211.785143 
C 527.972727 220.647913 532.035785 229.148879 539.26706 235.415804 
C 546.498335 241.682728 556.307425 245.203943 566.533992 245.203943 
L 566.533992 245.203943 
z
" clip-path="url(#p57d05ce040)" style="fill: none; stroke: #000000; stroke-width: 2; stroke-linejoin: miter"/>
   </g>
   <g id="patch_9">
    <path d="M 838.957943 103.458723 
C 843.948138 87.318682 846.103162 78.109944 875.024111 78.109944 
" clip-path="url(#p57d05ce040)" style="fill: none; stroke: #000000; stroke-width: 2; stroke-linejoin: miter; stroke-linecap: round"/>
   </g>
   <g id="patch_10">
    <path d="M 848.902505 97.118587 
L 836.462846 111.528744 
L 834.003576 93.658818 
z
" clip-path="url(#p57d05ce040)"/>
   </g>
   <g id="line2d_17">
    <path d="M 566.533992 312.041543 
L 566.533992 245.203943 
L 566.533992 245.203943 
M 566.533992 178.366344 
L 566.533992 178.366344 
L 566.533992 111.528744 
" clip-path="url(#p57d05ce040)" style="fill: none; stroke: #000000; stroke-width: 2; stroke-linecap: round"/>
   </g>
   <g id="line2d_18">
    <path d="M 574.246245 228.494543 
L 558.821739 228.494543 
" clip-path="url(#p57d05ce040)" style="fill: none; stroke: #000000; stroke-width: 2; stroke-linecap: round"/>
   </g>
   <g id="line2d_19">
    <path d="M 566.533992 201.759503 
L 566.533992 188.391984 
" clip-path="url(#p57d05ce040)" style="fill: none; stroke: #000000; stroke-width: 2; stroke-linecap: round"/>
   </g>
   <g id="line2d_20">
    <path d="M 574.246245 195.075744 
L 558.821739 195.075744 
" clip-path="url(#p57d05ce040)" style="fill: none; stroke: #000000; stroke-width: 2; stroke-linecap: round"/>
   </g>
   <g id="line2d_21">
    <path d="M 566.533992 111.528744 
L 585.814625 111.528744 
L 605.095257 111.528744 
" clip-path="url(#p57d05ce040)" style="fill: none; stroke: #000000; stroke-width: 2; stroke-linecap: round"/>
   </g>
   <g id="line2d_22">
    <path d="M 605.095257 111.528744 
L 682.217787 111.528744 
L 688.644664 94.819344 
L 701.498419 128.238144 
L 714.352174 94.819344 
L 727.205929 128.238144 
L 740.059684 94.819344 
L 752.913439 128.238144 
L 759.340316 111.528744 
L 836.462846 111.528744 
" clip-path="url(#p57d05ce040)" style="fill: none; stroke: #000000; stroke-width: 2; stroke-linecap: round"/>
   </g>
   <g id="line2d_23">
    <path d="M 875.024111 78.109944 
L 913.585375 78.109944 
L 952.14664 78.109944 
" clip-path="url(#p57d05ce040)" style="fill: none; stroke: #000000; stroke-width: 2; stroke-linecap: round"/>
   </g>
   <g id="line2d_24">
    <path d="M 952.14664 78.109944 
L 952.14664 172.35096 
M 971.427273 172.35096 
L 932.866008 172.35096 
M 971.427273 184.381728 
L 932.866008 184.381728 
M 952.14664 184.381728 
L 952.14664 278.622743 
" clip-path="url(#p57d05ce040)" style="fill: none; stroke: #000000; stroke-width: 2; stroke-linecap: round"/>
   </g>
   <g id="line2d_25">
    <path d="M 952.14664 278.622743 
L 875.024111 278.622743 
L 797.901581 278.622743 
" clip-path="url(#p57d05ce040)" style="fill: none; stroke: #000000; stroke-width: 2; stroke-linecap: round"/>
   </g>
   <g id="line2d_26">
    <path d="M 797.901581 278.622743 
L 797.901581 305.357783 
L 778.620949 305.357783 
L 817.182213 305.357783 
M 784.405138 313.378295 
L 811.398024 313.378295 
M 794.045455 321.398807 
L 801.757708 321.398807 
" clip-path="url(#p57d05ce040)" style="fill: none; stroke: #000000; stroke-width: 2; stroke-linecap: round"/>
   </g>
   <g id="line2d_27">
    <path d="M 797.901581 278.622743 
L 682.217787 278.622743 
L 566.533992 278.622743 
" clip-path="url(#p57d05ce040)" style="fill: none; stroke: #000000; stroke-width: 2; stroke-linecap: round"/>
   </g>
   <g id="line2d_28">
    <path d="M 566.533992 278.622743 
L 566.533992 261.913343 
L 566.533992 245.203943 
" clip-path="url(#p57d05ce040)" style="fill: none; stroke: #000000; stroke-width: 2; stroke-linecap: round"/>
   </g>
   <g id="text_8">
    <!-- Vs -->
    <g transform="translate(558.701492 341.970792) scale(0.13 -0.13)">
     <use xlink:href="#DejaVuSans-56"/>
     <use xlink:href="#DejaVuSans-73" transform="translate(68.408203 0)"/>
    </g>
   </g>
   <g id="text_9">
    <!-- R₁ -->
    <g transform="translate(713.656473 85.43199) scale(0.13 -0.13)">
     <use xlink:href="#DejaVuSans-52"/>
     <use xlink:href="#DejaVuSans-2081" transform="translate(69.482422 0)"/>
    </g>
   </g>
   <g id="text_10">
    <!-- A -->
    <g style="fill: #ff0000" transform="translate(882.736364 81.697131) scale(0.13 -0.13)">
     <use xlink:href="#DejaVuSans-41"/>
    </g>
   </g>
   <g id="text_11">
    <!-- C -->
    <g transform="translate(947.607812 95.45763) scale(0.13 -0.13)">
     <use xlink:href="#DejaVuSans-43"/>
    </g>
   </g>
   <g id="text_12">
    <!-- t &gt; 0  (switch opens) -->
    <g transform="translate(667.806563 17.837812) scale(0.14 -0.14)">
     <defs>
      <path id="DejaVuSans-Bold-3e" d="M 678 3041 
L 678 3822 
L 4684 2375 
L 4684 1638 
L 678 191 
L 678 972 
L 3694 2003 
L 678 3041 
z
" transform="scale(0.015625)"/>
      <path id="DejaVuSans-Bold-70" d="M 1656 506 
L 1656 -1331 
L 538 -1331 
L 538 3500 
L 1656 3500 
L 1656 2988 
Q 1888 3294 2169 3439 
Q 2450 3584 2816 3584 
Q 3463 3584 3878 3070 
Q 4294 2556 4294 1747 
Q 4294 938 3878 423 
Q 3463 -91 2816 -91 
Q 2450 -91 2169 54 
Q 1888 200 1656 506 
z
M 2400 2772 
Q 2041 2772 1848 2508 
Q 1656 2244 1656 1747 
Q 1656 1250 1848 986 
Q 2041 722 2400 722 
Q 2759 722 2948 984 
Q 3138 1247 3138 1747 
Q 3138 2247 2948 2509 
Q 2759 2772 2400 2772 
z
" transform="scale(0.015625)"/>
      <path id="DejaVuSans-Bold-6e" d="M 4056 2131 
L 4056 0 
L 2931 0 
L 2931 347 
L 2931 1631 
Q 2931 2084 2911 2256 
Q 2891 2428 2841 2509 
Q 2775 2619 2662 2680 
Q 2550 2741 2406 2741 
Q 2056 2741 1856 2470 
Q 1656 2200 1656 1722 
L 1656 0 
L 538 0 
L 538 3500 
L 1656 3500 
L 1656 2988 
Q 1909 3294 2193 3439 
Q 2478 3584 2822 3584 
Q 3428 3584 3742 3212 
Q 4056 2841 4056 2131 
z
" transform="scale(0.015625)"/>
     </defs>
     <use xlink:href="#DejaVuSans-Bold-74"/>
     <use xlink:href="#DejaVuSans-Bold-20" transform="translate(47.802734 0)"/>
     <use xlink:href="#DejaVuSans-Bold-3e" transform="translate(82.617188 0)"/>
     <use xlink:href="#DejaVuSans-Bold-20" transform="translate(166.40625 0)"/>
     <use xlink:href="#DejaVuSans-Bold-30" transform="translate(201.220703 0)"/>
     <use xlink:href="#DejaVuSans-Bold-20" transform="translate(270.800781 0)"/>
     <use xlink:href="#DejaVuSans-Bold-20" transform="translate(305.615234 0)"/>
     <use xlink:href="#DejaVuSans-Bold-28" transform="translate(340.429688 0)"/>
     <use xlink:href="#DejaVuSans-Bold-73" transform="translate(386.132812 0)"/>
     <use xlink:href="#DejaVuSans-Bold-77" transform="translate(445.654297 0)"/>
     <use xlink:href="#DejaVuSans-Bold-69" transform="translate(538.037109 0)"/>
     <use xlink:href="#DejaVuSans-Bold-74" transform="translate(572.314453 0)"/>
     <use xlink:href="#DejaVuSans-Bold-63" transform="translate(620.117188 0)"/>
     <use xlink:href="#DejaVuSans-Bold-68" transform="translate(679.394531 0)"/>
     <use xlink:href="#DejaVuSans-Bold-20" transform="translate(750.585938 0)"/>
     <use xlink:href="#DejaVuSans-Bold-6f" transform="translate(785.400391 0)"/>
     <use xlink:href="#DejaVuSans-Bold-70" transform="translate(854.101562 0)"/>
     <use xlink:href="#DejaVuSans-Bold-65" transform="translate(925.683594 0)"/>
     <use xlink:href="#DejaVuSans-Bold-6e" transform="translate(993.505859 0)"/>
     <use xlink:href="#DejaVuSans-Bold-73" transform="translate(1064.697266 0)"/>
     <use xlink:href="#DejaVuSans-Bold-29" transform="translate(1124.21875 0)"/>
    </g>
   </g>
   <g id="patch_11">
    <path d="M 836.462846 116.541564 
C 837.996831 116.541564 839.468194 116.013381 840.552886 115.073343 
C 841.637577 114.133304 842.247036 112.858159 842.247036 111.528744 
C 842.247036 110.199328 841.637577 108.924183 840.552886 107.984145 
C 839.468194 107.044106 837.996831 106.515924 836.462846 106.515924 
C 834.928861 106.515924 833.457497 107.044106 832.372806 107.984145 
C 831.288115 108.924183 830.678656 110.199328 830.678656 111.528744 
C 830.678656 112.858159 831.288115 114.133304 832.372806 115.073343 
C 833.457497 116.013381 834.928861 116.541564 836.462846 116.541564 
z
" clip-path="url(#p57d05ce040)" style="stroke: #000000; stroke-width: 2; stroke-linejoin: miter"/>
   </g>
   <g id="line2d_29">
    <path d="M 566.533992 38.007384 
L 566.533992 38.007384 
" clip-path="url(#p57d05ce040)" style="fill: none; stroke: #000000; stroke-width: 2; stroke-linecap: round"/>
   </g>
   <g id="patch_12">
    <path d="M 578.102372 38.007384 
L 566.533992 58.058664 
L 554.965613 38.007384 
z
" clip-path="url(#p57d05ce040)"/>
   </g>
   <g id="text_13">
    <!-- i(t) -->
    <g transform="translate(525.995358 51.344274) scale(0.12 -0.12)">
     <defs>
      <path id="DejaVuSans-69" d="M 603 3500 
L 1178 3500 
L 1178 0 
L 603 0 
L 603 3500 
z
M 603 4863 
L 1178 4863 
L 1178 4134 
L 603 4134 
L 603 4863 
z
" transform="scale(0.015625)"/>
      <path id="DejaVuSans-28" d="M 1984 4856 
Q 1566 4138 1362 3434 
Q 1159 2731 1159 2009 
Q 1159 1288 1364 580 
Q 1569 -128 1984 -844 
L 1484 -844 
Q 1016 -109 783 600 
Q 550 1309 550 2009 
Q 550 2706 781 3412 
Q 1013 4119 1484 4856 
L 1984 4856 
z
" transform="scale(0.015625)"/>
      <path id="DejaVuSans-74" d="M 1172 4494 
L 1172 3500 
L 2356 3500 
L 2356 3053 
L 1172 3053 
L 1172 1153 
Q 1172 725 1289 603 
Q 1406 481 1766 481 
L 2356 481 
L 2356 0 
L 1766 0 
Q 1100 0 847 248 
Q 594 497 594 1153 
L 594 3053 
L 172 3053 
L 172 3500 
L 594 3500 
L 594 4494 
L 1172 4494 
z
" transform="scale(0.015625)"/>
      <path id="DejaVuSans-29" d="M 513 4856 
L 1013 4856 
Q 1481 4119 1714 3412 
Q 1947 2706 1947 2009 
Q 1947 1309 1714 600 
Q 1481 -109 1013 -844 
L 513 -844 
Q 928 -128 1133 580 
Q 1338 1288 1338 2009 
Q 1338 2731 1133 3434 
Q 928 4138 513 4856 
z
" transform="scale(0.015625)"/>
     </defs>
     <use xlink:href="#DejaVuSans-69"/>
     <use xlink:href="#DejaVuSans-28" transform="translate(27.783203 0)"/>
     <use xlink:href="#DejaVuSans-74" transform="translate(66.796875 0)"/>
     <use xlink:href="#DejaVuSans-29" transform="translate(106.005859 0)"/>
    </g>
   </g>
  </g>
 </g>
 <defs>
  <clipPath id="pfd88736395">
   <rect x="7.2" y="23.837812" width="487.8" height="311.730566"/>
  </clipPath>
  <clipPath id="p57d05ce040">
   <rect x="505.8" y="23.837812" width="487.8" height="311.730566"/>
  </clipPath>
 </defs>
</svg>
