<?xml version="1.0" encoding="utf-8" standalone="no"?>
<!DOCTYPE svg PUBLIC "-//W3C//DTD SVG 1.1//EN"
  "http://www.w3.org/Graphics/SVG/1.1/DTD/svg11.dtd">
<svg xmlns:xlink="http://www.w3.org/1999/xlink" width="234.276pt" height="147.4pt" viewBox="0 0 234.276 147.4" xmlns="http://www.w3.org/2000/svg" version="1.1">
 <metadata>
  <rdf:RDF xmlns:dc="http://purl.org/dc/elements/1.1/" xmlns:cc="http://creativecommons.org/ns#" xmlns:rdf="http://www.w3.org/1999/02/22-rdf-syntax-ns#">
   <cc:Work>
    <dc:type rdf:resource="http://purl.org/dc/dcmitype/StillImage"/>
    <dc:date>2026-03-06T11:16:02.024106</dc:date>
    <dc:format>image/svg+xml</dc:format>
    <dc:creator>
     <cc:Agent>
      <dc:title>Matplotlib v3.10.8, https://matplotlib.org/</dc:title>
     </cc:Agent>
    </dc:creator>
   </cc:Work>
  </rdf:RDF>
 </metadata>
 <defs>
  <style type="text/css">*{stroke-linejoin: round; stroke-linecap: butt}</style>
 </defs>
 <g id="figure_1">
  <g id="patch_1">
   <path d="M 0 147.4 
L 234.276 147.4 
L 234.276 0 
L 0 0 
L 0 147.4 
z
" style="fill: none"/>
  </g>
  <g id="axes_1">
   <g id="patch_2">
    <path d="M 37.488 101.68 
C 42.261656 101.68 46.840438 99.783406 50.215922 96.407922 
C 53.591406 93.032438 55.488 88.453656 55.488 83.68 
C 55.488 78.906344 53.591406 74.327562 50.215922 70.952078 
C 46.840438 67.576594 42.261656 65.68 37.488 65.68 
C 32.714344 65.68 28.135562 67.576594 24.760078 70.952078 
C 21.384594 74.327562 19.488 78.906344 19.488 83.68 
C 19.488 88.453656 21.384594 93.032438 24.760078 96.407922 
C 28.135562 99.783406 32.714344 101.68 37.488 101.68 
L 37.488 101.68 
z
" clip-path="url(#pe7bd1f934d)" style="fill: none; stroke: #000000; stroke-width: 2; stroke-linejoin: miter"/>
   </g>
   <g id="patch_3">
    <path d="M 74.652686 25.333334 
C 76.982057 16.640001 77.988 11.68 91.488 11.68 
" clip-path="url(#pe7bd1f934d)" style="fill: none; stroke: #000000; stroke-width: 2; stroke-linejoin: miter; stroke-linecap: round"/>
   </g>
   <g id="patch_4">
    <path d="M 79.294704 21.918416 
L 73.488 29.68 
L 72.340038 20.054919 
z
" clip-path="url(#pe7bd1f934d)"/>
   </g>
   <g id="line2d_1">
    <path d="M 37.488 137.68 
L 37.488 101.68 
L 37.488 101.68 
M 37.488 65.68 
L 37.488 65.68 
L 37.488 29.68 
" clip-path="url(#pe7bd1f934d)" style="fill: none; stroke: #000000; stroke-width: 2; stroke-linecap: round"/>
   </g>
   <g id="line2d_2">
    <path d="M 41.088 92.68 
L 33.888 92.68 
" clip-path="url(#pe7bd1f934d)" style="fill: none; stroke: #000000; stroke-width: 2; stroke-linecap: round"/>
   </g>
   <g id="line2d_3">
    <path d="M 37.488 78.28 
L 37.488 71.08 
" clip-path="url(#pe7bd1f934d)" style="fill: none; stroke: #000000; stroke-width: 2; stroke-linecap: round"/>
   </g>
   <g id="line2d_4">
    <path d="M 41.088 74.68 
L 33.888 74.68 
" clip-path="url(#pe7bd1f934d)" style="fill: none; stroke: #000000; stroke-width: 2; stroke-linecap: round"/>
   </g>
   <g id="line2d_5">
    <path d="M 37.488 29.68 
L 55.488 29.68 
L 73.488 29.68 
" clip-path="url(#pe7bd1f934d)" style="fill: none; stroke: #000000; stroke-width: 2; stroke-linecap: round"/>
   </g>
   <g id="line2d_6">
    <path d="M 91.488 11.68 
L 91.488 62.44 
M 100.488 62.44 
L 82.488 62.44 
M 100.488 68.92 
L 82.488 68.92 
M 91.488 68.92 
L 91.488 119.68 
" clip-path="url(#pe7bd1f934d)" style="fill: none; stroke: #000000; stroke-width: 2; stroke-linecap: round"/>
   </g>
   <g id="line2d_7">
    <path d="M 91.488 11.68 
L 145.488 11.68 
L 199.488 11.68 
" clip-path="url(#pe7bd1f934d)" style="fill: none; stroke: #000000; stroke-width: 2; stroke-linecap: round"/>
   </g>
   <g id="line2d_8">
    <path d="M 199.488 11.68 
L 199.488 62.44 
M 208.488 62.44 
L 190.488 62.44 
M 208.488 68.92 
L 190.488 68.92 
M 199.488 68.92 
L 199.488 119.68 
" clip-path="url(#pe7bd1f934d)" style="fill: none; stroke: #000000; stroke-width: 2; stroke-linecap: round"/>
   </g>
   <g id="line2d_9">
    <path d="M 199.488 119.68 
L 145.488 119.68 
L 91.488 119.68 
" clip-path="url(#pe7bd1f934d)" style="fill: none; stroke: #000000; stroke-width: 2; stroke-linecap: round"/>
   </g>
   <g id="line2d_10">
    <path d="M 145.488 119.68 
L 145.488 134.08 
L 136.488 134.08 
L 154.488 134.08 
M 139.188 138.4 
L 151.788 138.4 
M 143.688 142.72 
L 147.288 142.72 
" clip-path="url(#pe7bd1f934d)" style="fill: none; stroke: #000000; stroke-width: 2; stroke-linecap: round"/>
   </g>
   <g id="line2d_11">
    <path d="M 91.488 119.68 
L 64.488 119.68 
L 37.488 119.68 
" clip-path="url(#pe7bd1f934d)" style="fill: none; stroke: #000000; stroke-width: 2; stroke-linecap: round"/>
   </g>
   <g id="line2d_12">
    <path d="M 37.488 119.68 
L 37.488 110.68 
L 37.488 101.68 
" clip-path="url(#pe7bd1f934d)" style="fill: none; stroke: #000000; stroke-width: 2; stroke-linecap: round"/>
   </g>
   <g id="text_1">
    <!-- V -->
    <g transform="translate(4.511125 87.543125) scale(0.14 -0.14)">
     <defs>
      <path id="DejaVuSans-56" d="M 1831 0 
L 50 4666 
L 709 4666 
L 2188 738 
L 3669 4666 
L 4325 4666 
L 2547 0 
L 1831 0 
z
" transform="scale(0.015625)"/>
     </defs>
     <use xlink:href="#DejaVuSans-56"/>
    </g>
   </g>
   <g id="text_2">
    <!-- P -->
    <g style="fill: #ff0000" transform="translate(95.088 15.543125) scale(0.14 -0.14)">
     <defs>
      <path id="DejaVuSans-50" d="M 1259 4147 
L 1259 2394 
L 2053 2394 
Q 2494 2394 2734 2622 
Q 2975 2850 2975 3272 
Q 2975 3691 2734 3919 
Q 2494 4147 2053 4147 
L 1259 4147 
z
M 628 4666 
L 2053 4666 
Q 2838 4666 3239 4311 
Q 3641 3956 3641 3272 
Q 3641 2581 3239 2228 
Q 2838 1875 2053 1875 
L 1259 1875 
L 1259 0 
L 628 0 
L 628 4666 
z
" transform="scale(0.015625)"/>
     </defs>
     <use xlink:href="#DejaVuSans-50"/>
    </g>
   </g>
   <g id="text_3">
    <!-- C₁ -->
    <g transform="translate(105.888 69.543125) scale(0.14 -0.14)">
     <defs>
      <path id="DejaVuSans-43" d="M 4122 4306 
L 4122 3641 
Q 3803 3938 3442 4084 
Q 3081 4231 2675 4231 
Q 1875 4231 1450 3742 
Q 1025 3253 1025 2328 
Q 1025 1406 1450 917 
Q 1875 428 2675 428 
Q 3081 428 3442 575 
Q 3803 722 4122 1019 
L 4122 359 
Q 3791 134 3420 21 
Q 3050 -91 2638 -91 
Q 1578 -91 968 557 
Q 359 1206 359 2328 
Q 359 3453 968 4101 
Q 1578 4750 2638 4750 
Q 3056 4750 3426 4639 
Q 3797 4528 4122 4306 
z
" transform="scale(0.015625)"/>
      <path id="DejaVuSans-2081" d="M 488 319 
L 1125 319 
L 1125 2229 
L 428 2101 
L 428 2463 
L 1147 2585 
L 1575 2585 
L 1575 319 
L 2216 319 
L 2216 -24 
L 488 -24 
L 488 319 
z
" transform="scale(0.015625)"/>
     </defs>
     <use xlink:href="#DejaVuSans-43"/>
     <use xlink:href="#DejaVuSans-2081" transform="translate(69.824219 0)"/>
    </g>
   </g>
   <g id="text_4">
    <!-- C₂ -->
    <g transform="translate(213.888 69.543125) scale(0.14 -0.14)">
     <defs>
      <path id="DejaVuSans-2082" d="M 838 332 
L 2163 332 
L 2163 -24 
L 294 -24 
L 294 319 
Q 400 416 597 591 
Q 1672 1544 1672 1838 
Q 1672 2044 1509 2170 
Q 1347 2297 1081 2297 
Q 919 2297 728 2242 
Q 538 2188 313 2079 
L 313 2463 
Q 553 2551 761 2594 
Q 969 2638 1147 2638 
Q 1600 2638 1872 2432 
Q 2144 2226 2144 1888 
Q 2144 1454 1109 566 
Q 934 416 838 332 
z
" transform="scale(0.015625)"/>
     </defs>
     <use xlink:href="#DejaVuSans-43"/>
     <use xlink:href="#DejaVuSans-2082" transform="translate(69.824219 0)"/>
    </g>
   </g>
   <g id="patch_5">
    <path d="M 73.488 32.38 
C 74.204048 32.38 74.890866 32.095511 75.397188 31.589188 
C 75.903511 31.082866 76.188 30.396048 76.188 29.68 
C 76.188 28.963952 75.903511 28.277134 75.397188 27.770812 
C 74.890866 27.264489 74.204048 26.98 73.488 26.98 
C 72.771952 26.98 72.085134 27.264489 71.578812 27.770812 
C 71.072489 28.277134 70.788 28.963952 70.788 29.68 
C 70.788 30.396048 71.072489 31.082866 71.578812 31.589188 
C 72.085134 32.095511 72.771952 32.38 73.488 32.38 
z
" clip-path="url(#pe7bd1f934d)" style="stroke: #000000; stroke-width: 2; stroke-linejoin: miter"/>
   </g>
   <g id="patch_6">
    <path d="M 199.488 14.38 
C 200.204048 14.38 200.890866 14.095511 201.397188 13.589188 
C 201.903511 13.082866 202.188 12.396048 202.188 11.68 
C 202.188 10.963952 201.903511 10.277134 201.397188 9.770812 
C 200.890866 9.264489 200.204048 8.98 199.488 8.98 
C 198.771952 8.98 198.085134 9.264489 197.578812 9.770812 
C 197.072489 10.277134 196.788 10.963952 196.788 11.68 
C 196.788 12.396048 197.072489 13.082866 197.578812 13.589188 
C 198.085134 14.095511 198.771952 14.38 199.488 14.38 
z
" clip-path="url(#pe7bd1f934d)" style="stroke: #000000; stroke-width: 2; stroke-linejoin: miter"/>
   </g>
   <g id="line2d_13">
    <path d="M 37.488 69.28 
L 37.488 69.28 
" clip-path="url(#pe7bd1f934d)" style="fill: none; stroke: #000000; stroke-width: 2; stroke-linecap: round"/>
   </g>
   <g id="patch_7">
    <path d="M 32.088 69.28 
L 37.488 58.48 
L 42.888 69.28 
z
" clip-path="url(#pe7bd1f934d)"/>
   </g>
   <g id="text_5">
    <!-- i -->
    <g transform="translate(23.076437 67.467187) scale(0.13 -0.13)">
     <defs>
      <path id="DejaVuSans-69" d="M 603 3500 
L 1178 3500 
L 1178 0 
L 603 0 
L 603 3500 
z
M 603 4863 
L 1178 4863 
L 1178 4134 
L 603 4134 
L 603 4863 
z
" transform="scale(0.015625)"/>
     </defs>
     <use xlink:href="#DejaVuSans-69"/>
    </g>
   </g>
  </g>
 </g>
 <defs>
  <clipPath id="pe7bd1f934d">
   <rect x="0" y="-0" width="234.276" height="147.4"/>
  </clipPath>
 </defs>
</svg>
