<?xml version="1.0" encoding="utf-8" standalone="no"?>
<!DOCTYPE svg PUBLIC "-//W3C//DTD SVG 1.1//EN"
  "http://www.w3.org/Graphics/SVG/1.1/DTD/svg11.dtd">
<svg xmlns:xlink="http://www.w3.org/1999/xlink" width="319.187978pt" height="190.8pt" viewBox="0 0 319.187978 190.8" xmlns="http://www.w3.org/2000/svg" version="1.1">
 <metadata>
  <rdf:RDF xmlns:dc="http://purl.org/dc/elements/1.1/" xmlns:cc="http://creativecommons.org/ns#" xmlns:rdf="http://www.w3.org/1999/02/22-rdf-syntax-ns#">
   <cc:Work>
    <dc:type rdf:resource="http://purl.org/dc/dcmitype/StillImage"/>
    <dc:date>2026-03-06T11:15:57.781208</dc:date>
    <dc:format>image/svg+xml</dc:format>
    <dc:creator>
     <cc:Agent>
      <dc:title>Matplotlib v3.10.8, https://matplotlib.org/</dc:title>
     </cc:Agent>
    </dc:creator>
   </cc:Work>
  </rdf:RDF>
 </metadata>
 <defs>
  <style type="text/css">*{stroke-linejoin: round; stroke-linecap: butt}</style>
 </defs>
 <g id="figure_1">
  <g id="patch_1">
   <path d="M 0 190.8 
L 319.187978 190.8 
L 319.187978 0 
L 0 0 
L 0 190.8 
z
" style="fill: none"/>
  </g>
  <g id="axes_1">
   <g id="patch_2">
    <path d="M 44.628 127.08 
C 49.401656 127.08 53.980438 125.183406 57.355922 121.807922 
C 60.731406 118.432438 62.628 113.853656 62.628 109.08 
C 62.628 104.306344 60.731406 99.727562 57.355922 96.352078 
C 53.980438 92.976594 49.401656 91.08 44.628 91.08 
C 39.854344 91.08 35.275562 92.976594 31.900078 96.352078 
C 28.524594 99.727562 26.628 104.306344 26.628 109.08 
C 26.628 113.853656 28.524594 118.432438 31.900078 121.807922 
C 35.275562 125.183406 39.854344 127.08 44.628 127.08 
L 44.628 127.08 
z
" clip-path="url(#p4f535af2b6)" style="fill: none; stroke: #000000; stroke-width: 2; stroke-linejoin: miter"/>
   </g>
   <g id="patch_3">
    <path d="M 296.628 100.08 
C 297.821016 100.08 298.96639 99.605571 299.809981 98.761981 
C 300.653571 97.91839 301.128 96.773016 301.128 95.58 
C 301.128 94.386984 300.653571 93.24161 299.809981 92.398019 
C 298.96639 91.554429 297.821016 91.08 296.628 91.08 
" clip-path="url(#p4f535af2b6)" style="fill: none; stroke: #000000; stroke-width: 2; stroke-linejoin: miter"/>
   </g>
   <g id="patch_4">
    <path d="M 296.628 109.08 
C 297.821016 109.08 298.96639 108.605571 299.809981 107.761981 
C 300.653571 106.91839 301.128 105.773016 301.128 104.58 
C 301.128 103.386984 300.653571 102.24161 299.809981 101.398019 
C 298.96639 100.554429 297.821016 100.08 296.628 100.08 
" clip-path="url(#p4f535af2b6)" style="fill: none; stroke: #000000; stroke-width: 2; stroke-linejoin: miter"/>
   </g>
   <g id="patch_5">
    <path d="M 296.628 118.08 
C 297.821016 118.08 298.96639 117.605571 299.809981 116.761981 
C 300.653571 115.91839 301.128 114.773016 301.128 113.58 
C 301.128 112.386984 300.653571 111.24161 299.809981 110.398019 
C 298.96639 109.554429 297.821016 109.08 296.628 109.08 
" clip-path="url(#p4f535af2b6)" style="fill: none; stroke: #000000; stroke-width: 2; stroke-linejoin: miter"/>
   </g>
   <g id="patch_6">
    <path d="M 296.628 127.08 
C 297.821016 127.08 298.96639 126.605571 299.809981 125.761981 
C 300.653571 124.91839 301.128 123.773016 301.128 122.58 
C 301.128 121.386984 300.653571 120.24161 299.809981 119.398019 
C 298.96639 118.554429 297.821016 118.08 296.628 118.08 
" clip-path="url(#p4f535af2b6)" style="fill: none; stroke: #000000; stroke-width: 2; stroke-linejoin: miter"/>
   </g>
   <g id="line2d_1">
    <path d="M 44.628 163.08 
L 44.628 127.08 
L 44.628 127.08 
M 44.628 91.08 
L 44.628 91.08 
L 44.628 55.08 
" clip-path="url(#p4f535af2b6)" style="fill: none; stroke: #000000; stroke-width: 2; stroke-linecap: round"/>
   </g>
   <g id="line2d_2">
    <path d="M 48.228 118.08 
L 41.028 118.08 
" clip-path="url(#p4f535af2b6)" style="fill: none; stroke: #000000; stroke-width: 2; stroke-linecap: round"/>
   </g>
   <g id="line2d_3">
    <path d="M 44.628 103.68 
L 44.628 96.48 
" clip-path="url(#p4f535af2b6)" style="fill: none; stroke: #000000; stroke-width: 2; stroke-linecap: round"/>
   </g>
   <g id="line2d_4">
    <path d="M 48.228 100.08 
L 41.028 100.08 
" clip-path="url(#p4f535af2b6)" style="fill: none; stroke: #000000; stroke-width: 2; stroke-linecap: round"/>
   </g>
   <g id="line2d_5">
    <path d="M 44.628 55.08 
L 53.628 55.08 
L 62.628 55.08 
" clip-path="url(#p4f535af2b6)" style="fill: none; stroke: #000000; stroke-width: 2; stroke-linecap: round"/>
   </g>
   <g id="line2d_6">
    <path d="M 62.628 55.08 
L 98.628 55.08 
M 107.268 51.48 
L 127.428 38.88 
M 134.628 55.08 
L 170.628 55.08 
" clip-path="url(#p4f535af2b6)" style="fill: none; stroke: #000000; stroke-width: 2; stroke-linecap: round"/>
   </g>
   <g id="line2d_7">
    <path d="M 170.628 55.08 
L 206.628 55.08 
L 209.628 46.08 
L 215.628 64.08 
L 221.628 46.08 
L 227.628 64.08 
L 233.628 46.08 
L 239.628 64.08 
L 242.628 55.08 
L 278.628 55.08 
" clip-path="url(#p4f535af2b6)" style="fill: none; stroke: #000000; stroke-width: 2; stroke-linecap: round"/>
   </g>
   <g id="line2d_8">
    <path d="M 278.628 55.08 
L 287.628 55.08 
L 296.628 55.08 
" clip-path="url(#p4f535af2b6)" style="fill: none; stroke: #000000; stroke-width: 2; stroke-linecap: round"/>
   </g>
   <g id="line2d_9">
    <path d="M 296.628 55.08 
L 296.628 91.08 
M 296.628 127.08 
L 296.628 163.08 
" clip-path="url(#p4f535af2b6)" style="fill: none; stroke: #000000; stroke-width: 2; stroke-linecap: round"/>
   </g>
   <g id="line2d_10">
    <path d="M 296.628 163.08 
L 260.628 163.08 
L 224.628 163.08 
" clip-path="url(#p4f535af2b6)" style="fill: none; stroke: #000000; stroke-width: 2; stroke-linecap: round"/>
   </g>
   <g id="line2d_11">
    <path d="M 224.628 163.08 
L 224.628 177.48 
L 215.628 177.48 
L 233.628 177.48 
M 218.328 181.8 
L 230.928 181.8 
M 222.828 186.12 
L 226.428 186.12 
" clip-path="url(#p4f535af2b6)" style="fill: none; stroke: #000000; stroke-width: 2; stroke-linecap: round"/>
   </g>
   <g id="line2d_12">
    <path d="M 224.628 163.08 
L 134.628 163.08 
L 44.628 163.08 
" clip-path="url(#p4f535af2b6)" style="fill: none; stroke: #000000; stroke-width: 2; stroke-linecap: round"/>
   </g>
   <g id="line2d_13">
    <path d="M 44.628 163.08 
L 44.628 163.08 
L 44.628 163.08 
" clip-path="url(#p4f535af2b6)" style="fill: none; stroke: #000000; stroke-width: 2; stroke-linecap: round"/>
   </g>
   <g id="text_1">
    <!-- Vs -->
    <g transform="translate(4.358 112.943125) scale(0.14 -0.14)">
     <defs>
      <path id="DejaVuSans-56" d="M 1831 0 
L 50 4666 
L 709 4666 
L 2188 738 
L 3669 4666 
L 4325 4666 
L 2547 0 
L 1831 0 
z
" transform="scale(0.015625)"/>
      <path id="DejaVuSans-73" d="M 2834 3397 
L 2834 2853 
Q 2591 2978 2328 3040 
Q 2066 3103 1784 3103 
Q 1356 3103 1142 2972 
Q 928 2841 928 2578 
Q 928 2378 1081 2264 
Q 1234 2150 1697 2047 
L 1894 2003 
Q 2506 1872 2764 1633 
Q 3022 1394 3022 966 
Q 3022 478 2636 193 
Q 2250 -91 1575 -91 
Q 1294 -91 989 -36 
Q 684 19 347 128 
L 347 722 
Q 666 556 975 473 
Q 1284 391 1588 391 
Q 1994 391 2212 530 
Q 2431 669 2431 922 
Q 2431 1156 2273 1281 
Q 2116 1406 1581 1522 
L 1381 1569 
Q 847 1681 609 1914 
Q 372 2147 372 2553 
Q 372 3047 722 3315 
Q 1072 3584 1716 3584 
Q 2034 3584 2315 3537 
Q 2597 3491 2834 3397 
z
" transform="scale(0.015625)"/>
     </defs>
     <use xlink:href="#DejaVuSans-56"/>
     <use xlink:href="#DejaVuSans-73" transform="translate(68.408203 0)"/>
    </g>
   </g>
   <g id="patch_7">
    <path d="M 102.948 59.4 
C 104.093677 59.4 105.192585 58.944818 106.002701 58.134701 
C 106.812818 57.324585 107.268 56.225677 107.268 55.08 
C 107.268 53.934323 106.812818 52.835415 106.002701 52.025299 
C 105.192585 51.215182 104.093677 50.76 102.948 50.76 
C 101.802323 50.76 100.703415 51.215182 99.893299 52.025299 
C 99.083182 52.835415 98.628 53.934323 98.628 55.08 
C 98.628 56.225677 99.083182 57.324585 99.893299 58.134701 
C 100.703415 58.944818 101.802323 59.4 102.948 59.4 
z
" clip-path="url(#p4f535af2b6)" style="fill: #ffffff; stroke: #000000; stroke-width: 2; stroke-linejoin: miter"/>
   </g>
   <g id="patch_8">
    <path d="M 130.308 59.4 
C 131.453677 59.4 132.552585 58.944818 133.362701 58.134701 
C 134.172818 57.324585 134.628 56.225677 134.628 55.08 
C 134.628 53.934323 134.172818 52.835415 133.362701 52.025299 
C 132.552585 51.215182 131.453677 50.76 130.308 50.76 
C 129.162323 50.76 128.063415 51.215182 127.253299 52.025299 
C 126.443182 52.835415 125.988 53.934323 125.988 55.08 
C 125.988 56.225677 126.443182 57.324585 127.253299 58.134701 
C 128.063415 58.944818 129.162323 59.4 130.308 59.4 
z
" clip-path="url(#p4f535af2b6)" style="fill: #ffffff; stroke: #000000; stroke-width: 2; stroke-linejoin: miter"/>
   </g>
   <g id="text_2">
    <!-- S -->
    <g transform="translate(112.184094 32.368437) scale(0.14 -0.14)">
     <defs>
      <path id="DejaVuSans-53" d="M 3425 4513 
L 3425 3897 
Q 3066 4069 2747 4153 
Q 2428 4238 2131 4238 
Q 1616 4238 1336 4038 
Q 1056 3838 1056 3469 
Q 1056 3159 1242 3001 
Q 1428 2844 1947 2747 
L 2328 2669 
Q 3034 2534 3370 2195 
Q 3706 1856 3706 1288 
Q 3706 609 3251 259 
Q 2797 -91 1919 -91 
Q 1588 -91 1214 -16 
Q 841 59 441 206 
L 441 856 
Q 825 641 1194 531 
Q 1563 422 1919 422 
Q 2459 422 2753 634 
Q 3047 847 3047 1241 
Q 3047 1584 2836 1778 
Q 2625 1972 2144 2069 
L 1759 2144 
Q 1053 2284 737 2584 
Q 422 2884 422 3419 
Q 422 4038 858 4394 
Q 1294 4750 2059 4750 
Q 2388 4750 2728 4690 
Q 3069 4631 3425 4513 
z
" transform="scale(0.015625)"/>
     </defs>
     <use xlink:href="#DejaVuSans-53"/>
    </g>
   </g>
   <g id="text_3">
    <!-- R -->
    <g transform="translate(219.764094 39.568437) scale(0.14 -0.14)">
     <defs>
      <path id="DejaVuSans-52" d="M 2841 2188 
Q 3044 2119 3236 1894 
Q 3428 1669 3622 1275 
L 4263 0 
L 3584 0 
L 2988 1197 
Q 2756 1666 2539 1819 
Q 2322 1972 1947 1972 
L 1259 1972 
L 1259 0 
L 628 0 
L 628 4666 
L 2053 4666 
Q 2853 4666 3247 4331 
Q 3641 3997 3641 3322 
Q 3641 2881 3436 2590 
Q 3231 2300 2841 2188 
z
M 1259 4147 
L 1259 2491 
L 2053 2491 
Q 2509 2491 2742 2702 
Q 2975 2913 2975 3322 
Q 2975 3731 2742 3939 
Q 2509 4147 2053 4147 
L 1259 4147 
z
" transform="scale(0.015625)"/>
     </defs>
     <use xlink:href="#DejaVuSans-52"/>
    </g>
   </g>
   <g id="text_4">
    <!-- L -->
    <g transform="translate(306.527978 112.943125) scale(0.14 -0.14)">
     <defs>
      <path id="DejaVuSans-4c" d="M 628 4666 
L 1259 4666 
L 1259 531 
L 3531 531 
L 3531 0 
L 628 0 
L 628 4666 
z
" transform="scale(0.015625)"/>
     </defs>
     <use xlink:href="#DejaVuSans-4c"/>
    </g>
   </g>
   <g id="line2d_14">
    <path d="M 116.628 15.48 
L 116.628 15.48 
" clip-path="url(#p4f535af2b6)" style="fill: none; stroke: #000000; stroke-width: 2; stroke-linecap: round"/>
   </g>
   <g id="patch_9">
    <path d="M 122.028 15.48 
L 116.628 26.28 
L 111.228 15.48 
z
" clip-path="url(#p4f535af2b6)"/>
   </g>
   <g id="text_5">
    <!-- i(t) -->
    <g transform="translate(86.975969 24.467187) scale(0.13 -0.13)">
     <defs>
      <path id="DejaVuSans-69" d="M 603 3500 
L 1178 3500 
L 1178 0 
L 603 0 
L 603 3500 
z
M 603 4863 
L 1178 4863 
L 1178 4134 
L 603 4134 
L 603 4863 
z
" transform="scale(0.015625)"/>
      <path id="DejaVuSans-28" d="M 1984 4856 
Q 1566 4138 1362 3434 
Q 1159 2731 1159 2009 
Q 1159 1288 1364 580 
Q 1569 -128 1984 -844 
L 1484 -844 
Q 1016 -109 783 600 
Q 550 1309 550 2009 
Q 550 2706 781 3412 
Q 1013 4119 1484 4856 
L 1984 4856 
z
" transform="scale(0.015625)"/>
      <path id="DejaVuSans-74" d="M 1172 4494 
L 1172 3500 
L 2356 3500 
L 2356 3053 
L 1172 3053 
L 1172 1153 
Q 1172 725 1289 603 
Q 1406 481 1766 481 
L 2356 481 
L 2356 0 
L 1766 0 
Q 1100 0 847 248 
Q 594 497 594 1153 
L 594 3053 
L 172 3053 
L 172 3500 
L 594 3500 
L 594 4494 
L 1172 4494 
z
" transform="scale(0.015625)"/>
      <path id="DejaVuSans-29" d="M 513 4856 
L 1013 4856 
Q 1481 4119 1714 3412 
Q 1947 2706 1947 2009 
Q 1947 1309 1714 600 
Q 1481 -109 1013 -844 
L 513 -844 
Q 928 -128 1133 580 
Q 1338 1288 1338 2009 
Q 1338 2731 1133 3434 
Q 928 4138 513 4856 
z
" transform="scale(0.015625)"/>
     </defs>
     <use xlink:href="#DejaVuSans-69"/>
     <use xlink:href="#DejaVuSans-28" transform="translate(27.783203 0)"/>
     <use xlink:href="#DejaVuSans-74" transform="translate(66.796875 0)"/>
     <use xlink:href="#DejaVuSans-29" transform="translate(106.005859 0)"/>
    </g>
   </g>
  </g>
 </g>
 <defs>
  <clipPath id="p4f535af2b6">
   <rect x="0" y="-0" width="319.187978" height="190.8"/>
  </clipPath>
 </defs>
</svg>
