<?xml version="1.0" encoding="utf-8" standalone="no"?>
<!DOCTYPE svg PUBLIC "-//W3C//DTD SVG 1.1//EN"
  "http://www.w3.org/Graphics/SVG/1.1/DTD/svg11.dtd">
<svg xmlns:xlink="http://www.w3.org/1999/xlink" width="503.016pt" height="179.06pt" viewBox="0 0 503.016 179.06" xmlns="http://www.w3.org/2000/svg" version="1.1">
 <metadata>
  <rdf:RDF xmlns:dc="http://purl.org/dc/elements/1.1/" xmlns:cc="http://creativecommons.org/ns#" xmlns:rdf="http://www.w3.org/1999/02/22-rdf-syntax-ns#">
   <cc:Work>
    <dc:type rdf:resource="http://purl.org/dc/dcmitype/StillImage"/>
    <dc:date>2026-03-06T12:11:28.572537</dc:date>
    <dc:format>image/svg+xml</dc:format>
    <dc:creator>
     <cc:Agent>
      <dc:title>Matplotlib v3.10.8, https://matplotlib.org/</dc:title>
     </cc:Agent>
    </dc:creator>
   </cc:Work>
  </rdf:RDF>
 </metadata>
 <defs>
  <style type="text/css">*{stroke-linejoin: round; stroke-linecap: butt}</style>
 </defs>
 <g id="figure_1">
  <g id="patch_1">
   <path d="M 0 179.06 
L 503.016 179.06 
L 503.016 0 
L 0 0 
z
" style="fill: #ffffff"/>
  </g>
  <g id="axes_1">
   <g id="line2d_1">
    <path d="M 186.528 45.68 
L 209.028 45.68 
L 231.528 45.68 
" clip-path="url(#p9454a9e989)" style="fill: none; stroke: #ffffff; stroke-width: 2; stroke-linecap: round"/>
   </g>
   <g id="patch_2">
    <path d="M 42.528 126.68 
C 47.301656 126.68 51.880438 124.783406 55.255922 121.407922 
C 58.631406 118.032438 60.528 113.453656 60.528 108.68 
C 60.528 103.906344 58.631406 99.327562 55.255922 95.952078 
C 51.880438 92.576594 47.301656 90.68 42.528 90.68 
C 37.754344 90.68 33.175562 92.576594 29.800078 95.952078 
C 26.424594 99.327562 24.528 103.906344 24.528 108.68 
C 24.528 113.453656 26.424594 118.032438 29.800078 121.407922 
C 33.175562 124.783406 37.754344 126.68 42.528 126.68 
L 42.528 126.68 
z
" clip-path="url(#p9454a9e989)" style="fill: none; stroke: #000000; stroke-width: 2; stroke-linejoin: miter"/>
   </g>
   <g id="patch_3">
    <path d="M 186.528 99.68 
C 187.721016 99.68 188.86639 99.205571 189.709981 98.361981 
C 190.553571 97.51839 191.028 96.373016 191.028 95.18 
C 191.028 93.986984 190.553571 92.84161 189.709981 91.998019 
C 188.86639 91.154429 187.721016 90.68 186.528 90.68 
" clip-path="url(#p9454a9e989)" style="fill: none; stroke: #000000; stroke-width: 2; stroke-linejoin: miter"/>
   </g>
   <g id="patch_4">
    <path d="M 186.528 108.68 
C 187.721016 108.68 188.86639 108.205571 189.709981 107.361981 
C 190.553571 106.51839 191.028 105.373016 191.028 104.18 
C 191.028 102.986984 190.553571 101.84161 189.709981 100.998019 
C 188.86639 100.154429 187.721016 99.68 186.528 99.68 
" clip-path="url(#p9454a9e989)" style="fill: none; stroke: #000000; stroke-width: 2; stroke-linejoin: miter"/>
   </g>
   <g id="patch_5">
    <path d="M 186.528 117.68 
C 187.721016 117.68 188.86639 117.205571 189.709981 116.361981 
C 190.553571 115.51839 191.028 114.373016 191.028 113.18 
C 191.028 111.986984 190.553571 110.84161 189.709981 109.998019 
C 188.86639 109.154429 187.721016 108.68 186.528 108.68 
" clip-path="url(#p9454a9e989)" style="fill: none; stroke: #000000; stroke-width: 2; stroke-linejoin: miter"/>
   </g>
   <g id="patch_6">
    <path d="M 186.528 126.68 
C 187.721016 126.68 188.86639 126.205571 189.709981 125.361981 
C 190.553571 124.51839 191.028 123.373016 191.028 122.18 
C 191.028 120.986984 190.553571 119.84161 189.709981 118.998019 
C 188.86639 118.154429 187.721016 117.68 186.528 117.68 
" clip-path="url(#p9454a9e989)" style="fill: none; stroke: #000000; stroke-width: 2; stroke-linejoin: miter"/>
   </g>
   <g id="patch_7">
    <path d="M 384.528 158.18 
C 389.301656 158.18 393.880438 156.283406 397.255922 152.907922 
C 400.631406 149.532438 402.528 144.953656 402.528 140.18 
C 402.528 135.406344 400.631406 130.827562 397.255922 127.452078 
C 393.880438 124.076594 389.301656 122.18 384.528 122.18 
C 379.754344 122.18 375.175562 124.076594 371.800078 127.452078 
C 368.424594 130.827562 366.528 135.406344 366.528 140.18 
C 366.528 144.953656 368.424594 149.532438 371.800078 152.907922 
C 375.175562 156.283406 379.754344 158.18 384.528 158.18 
L 384.528 158.18 
z
" clip-path="url(#p9454a9e989)" style="fill: none; stroke: #000000; stroke-width: 2; stroke-linejoin: miter"/>
   </g>
   <g id="line2d_2">
    <path d="M 42.528 171.68 
L 42.528 126.68 
L 42.528 126.68 
M 42.528 90.68 
L 42.528 90.68 
L 42.528 45.68 
" clip-path="url(#p9454a9e989)" style="fill: none; stroke: #000000; stroke-width: 2; stroke-linecap: round"/>
   </g>
   <g id="line2d_3">
    <path d="M 42.528 117.68 
L 42.528 108.68 
" clip-path="url(#p9454a9e989)" style="fill: none; stroke: #000000; stroke-width: 2; stroke-linecap: round"/>
   </g>
   <g id="patch_8">
    <path d="M 39.828 108.68 
L 42.528 99.68 
L 45.228 108.68 
z
" clip-path="url(#p9454a9e989)"/>
   </g>
   <g id="line2d_4">
    <path d="M 42.528 45.68 
L 60.528 45.68 
L 78.528 45.68 
" clip-path="url(#p9454a9e989)" style="fill: none; stroke: #000000; stroke-width: 2; stroke-linecap: round"/>
   </g>
   <g id="line2d_5">
    <path d="M 78.528 45.68 
L 78.528 90.68 
L 87.528 93.68 
L 69.528 99.68 
L 87.528 105.68 
L 69.528 111.68 
L 87.528 117.68 
L 69.528 123.68 
L 78.528 126.68 
L 78.528 171.68 
" clip-path="url(#p9454a9e989)" style="fill: none; stroke: #000000; stroke-width: 2; stroke-linecap: round"/>
   </g>
   <g id="line2d_6">
    <path d="M 42.528 171.68 
L 60.528 171.68 
L 78.528 171.68 
" clip-path="url(#p9454a9e989)" style="fill: none; stroke: #000000; stroke-width: 2; stroke-linecap: round"/>
   </g>
   <g id="line2d_7">
    <path d="M 78.528 45.68 
L 87.528 45.68 
L 96.528 45.68 
" clip-path="url(#p9454a9e989)" style="fill: none; stroke: #000000; stroke-width: 2; stroke-linecap: round"/>
   </g>
   <g id="line2d_8">
    <path d="M 96.528 45.68 
L 114.528 45.68 
M 123.168 42.08 
L 143.328 29.48 
M 150.528 45.68 
L 168.528 45.68 
" clip-path="url(#p9454a9e989)" style="fill: none; stroke: #000000; stroke-width: 2; stroke-linecap: round"/>
   </g>
   <g id="line2d_9">
    <path d="M 168.528 45.68 
L 177.528 45.68 
L 186.528 45.68 
" clip-path="url(#p9454a9e989)" style="fill: none; stroke: #000000; stroke-width: 2; stroke-linecap: round"/>
   </g>
   <g id="line2d_10">
    <path d="M 186.528 45.68 
L 186.528 90.68 
M 186.528 126.68 
L 186.528 171.68 
" clip-path="url(#p9454a9e989)" style="fill: none; stroke: #000000; stroke-width: 2; stroke-linecap: round"/>
   </g>
   <g id="line2d_11">
    <path d="M 186.528 45.68 
L 231.528 45.68 
L 276.528 45.68 
" clip-path="url(#p9454a9e989)" style="fill: none; stroke: #000000; stroke-width: 2; stroke-linecap: round"/>
   </g>
   <g id="line2d_12">
    <path d="M 276.528 45.68 
L 276.528 90.68 
L 285.528 93.68 
L 267.528 99.68 
L 285.528 105.68 
L 267.528 111.68 
L 285.528 117.68 
L 267.528 123.68 
L 276.528 126.68 
L 276.528 171.68 
" clip-path="url(#p9454a9e989)" style="fill: none; stroke: #000000; stroke-width: 2; stroke-linecap: round"/>
   </g>
   <g id="line2d_13">
    <path d="M 276.528 171.68 
L 231.528 171.68 
L 186.528 171.68 
" clip-path="url(#p9454a9e989)" style="fill: none; stroke: #000000; stroke-width: 2; stroke-linecap: round"/>
   </g>
   <g id="line2d_14">
    <path d="M 276.528 45.68 
L 285.528 45.68 
L 294.528 45.68 
" clip-path="url(#p9454a9e989)" style="fill: none; stroke: #000000; stroke-width: 2; stroke-linecap: round"/>
   </g>
   <g id="line2d_15">
    <path d="M 294.528 45.68 
L 312.528 45.68 
M 321.168 42.08 
L 341.328 29.48 
M 348.528 45.68 
L 366.528 45.68 
" clip-path="url(#p9454a9e989)" style="fill: none; stroke: #000000; stroke-width: 2; stroke-linecap: round"/>
   </g>
   <g id="line2d_16">
    <path d="M 366.528 45.68 
L 375.528 45.68 
L 384.528 45.68 
" clip-path="url(#p9454a9e989)" style="fill: none; stroke: #000000; stroke-width: 2; stroke-linecap: round"/>
   </g>
   <g id="line2d_17">
    <path d="M 384.528 45.68 
L 384.528 59.18 
L 393.528 62.18 
L 375.528 68.18 
L 393.528 74.18 
L 375.528 80.18 
L 393.528 86.18 
L 375.528 92.18 
L 384.528 95.18 
L 384.528 108.68 
" clip-path="url(#p9454a9e989)" style="fill: none; stroke: #000000; stroke-width: 2; stroke-linecap: round"/>
   </g>
   <g id="line2d_18">
    <path d="M 384.528 108.68 
L 384.528 122.18 
L 384.528 122.18 
M 384.528 158.18 
L 384.528 158.18 
L 384.528 171.68 
" clip-path="url(#p9454a9e989)" style="fill: none; stroke: #000000; stroke-width: 2; stroke-linecap: round"/>
   </g>
   <g id="line2d_19">
    <path d="M 388.128 149.18 
L 380.928 149.18 
" clip-path="url(#p9454a9e989)" style="fill: none; stroke: #000000; stroke-width: 2; stroke-linecap: round"/>
   </g>
   <g id="line2d_20">
    <path d="M 384.528 127.58 
L 384.528 134.78 
" clip-path="url(#p9454a9e989)" style="fill: none; stroke: #000000; stroke-width: 2; stroke-linecap: round"/>
   </g>
   <g id="line2d_21">
    <path d="M 388.128 131.18 
L 380.928 131.18 
" clip-path="url(#p9454a9e989)" style="fill: none; stroke: #000000; stroke-width: 2; stroke-linecap: round"/>
   </g>
   <g id="line2d_22">
    <path d="M 384.528 45.68 
L 429.528 45.68 
L 474.528 45.68 
" clip-path="url(#p9454a9e989)" style="fill: none; stroke: #000000; stroke-width: 2; stroke-linecap: round"/>
   </g>
   <g id="line2d_23">
    <path d="M 474.528 45.68 
L 474.528 105.44 
M 483.528 105.44 
L 465.528 105.44 
M 483.528 111.92 
L 465.528 111.92 
M 474.528 111.92 
L 474.528 171.68 
" clip-path="url(#p9454a9e989)" style="fill: none; stroke: #000000; stroke-width: 2; stroke-linecap: round"/>
   </g>
   <g id="line2d_24">
    <path d="M 474.528 171.68 
L 429.528 171.68 
L 384.528 171.68 
" clip-path="url(#p9454a9e989)" style="fill: none; stroke: #000000; stroke-width: 2; stroke-linecap: round"/>
   </g>
   <g id="line2d_25">
    <path d="M 384.528 171.68 
L 330.528 171.68 
L 276.528 171.68 
" clip-path="url(#p9454a9e989)" style="fill: none; stroke: #000000; stroke-width: 2; stroke-linecap: round"/>
   </g>
   <g id="line2d_26">
    <path d="M 186.528 171.68 
L 132.528 171.68 
L 78.528 171.68 
" clip-path="url(#p9454a9e989)" style="fill: none; stroke: #000000; stroke-width: 2; stroke-linecap: round"/>
   </g>
   <g id="text_1">
    <!-- $I_s$ -->
    <g transform="translate(9.468 112.543125) scale(0.14 -0.14)">
     <defs>
      <path id="DejaVuSans-Oblique-49" d="M 1081 4666 
L 1716 4666 
L 806 0 
L 172 0 
L 1081 4666 
z
" transform="scale(0.015625)"/>
      <path id="DejaVuSans-Oblique-73" d="M 3200 3397 
L 3091 2853 
Q 2863 2978 2609 3040 
Q 2356 3103 2088 3103 
Q 1634 3103 1373 2948 
Q 1113 2794 1113 2528 
Q 1113 2219 1719 2053 
Q 1766 2041 1788 2034 
L 1972 1978 
Q 2547 1819 2739 1644 
Q 2931 1469 2931 1166 
Q 2931 609 2489 259 
Q 2047 -91 1331 -91 
Q 1053 -91 747 -37 
Q 441 16 72 128 
L 184 722 
Q 500 559 806 475 
Q 1113 391 1394 391 
Q 1816 391 2080 572 
Q 2344 753 2344 1031 
Q 2344 1331 1650 1516 
L 1591 1531 
L 1394 1581 
Q 956 1697 753 1886 
Q 550 2075 550 2369 
Q 550 2928 970 3256 
Q 1391 3584 2113 3584 
Q 2397 3584 2667 3537 
Q 2938 3491 3200 3397 
z
" transform="scale(0.015625)"/>
     </defs>
     <use xlink:href="#DejaVuSans-Oblique-49" transform="translate(0 0.09375)"/>
     <use xlink:href="#DejaVuSans-Oblique-73" transform="translate(29.492188 -16.3125) scale(0.7)"/>
    </g>
   </g>
   <g id="text_2">
    <!-- $R_a$ -->
    <g transform="translate(92.928 112.543125) scale(0.14 -0.14)">
     <defs>
      <path id="DejaVuSans-Oblique-52" d="M 1613 4147 
L 1294 2491 
L 2106 2491 
Q 2584 2491 2879 2755 
Q 3175 3019 3175 3444 
Q 3175 3784 2976 3965 
Q 2778 4147 2406 4147 
L 1613 4147 
z
M 2772 2241 
Q 2972 2194 3105 2009 
Q 3238 1825 3413 1275 
L 3809 0 
L 3144 0 
L 2778 1197 
Q 2638 1659 2453 1815 
Q 2269 1972 1888 1972 
L 1191 1972 
L 806 0 
L 172 0 
L 1081 4666 
L 2503 4666 
Q 3150 4666 3495 4373 
Q 3841 4081 3841 3531 
Q 3841 3044 3547 2687 
Q 3253 2331 2772 2241 
z
" transform="scale(0.015625)"/>
      <path id="DejaVuSans-Oblique-61" d="M 3438 1997 
L 3047 0 
L 2472 0 
L 2578 531 
Q 2325 219 2001 64 
Q 1678 -91 1281 -91 
Q 834 -91 548 182 
Q 263 456 263 884 
Q 263 1497 752 1853 
Q 1241 2209 2100 2209 
L 2900 2209 
L 2931 2363 
Q 2938 2388 2941 2417 
Q 2944 2447 2944 2509 
Q 2944 2788 2717 2942 
Q 2491 3097 2081 3097 
Q 1800 3097 1504 3025 
Q 1209 2953 897 2809 
L 997 3341 
Q 1322 3463 1633 3523 
Q 1944 3584 2234 3584 
Q 2853 3584 3176 3315 
Q 3500 3047 3500 2534 
Q 3500 2431 3484 2292 
Q 3469 2153 3438 1997 
z
M 2816 1759 
L 2241 1759 
Q 1534 1759 1195 1570 
Q 856 1381 856 984 
Q 856 709 1029 553 
Q 1203 397 1509 397 
Q 1978 397 2328 733 
Q 2678 1069 2791 1631 
L 2816 1759 
z
" transform="scale(0.015625)"/>
     </defs>
     <use xlink:href="#DejaVuSans-Oblique-52" transform="translate(0 0.09375)"/>
     <use xlink:href="#DejaVuSans-Oblique-61" transform="translate(69.482422 -16.3125) scale(0.7)"/>
    </g>
   </g>
   <g id="patch_9">
    <path d="M 118.848 50 
C 119.993677 50 121.092585 49.544818 121.902701 48.734701 
C 122.712818 47.924585 123.168 46.825677 123.168 45.68 
C 123.168 44.534323 122.712818 43.435415 121.902701 42.625299 
C 121.092585 41.815182 119.993677 41.36 118.848 41.36 
C 117.702323 41.36 116.603415 41.815182 115.793299 42.625299 
C 114.983182 43.435415 114.528 44.534323 114.528 45.68 
C 114.528 46.825677 114.983182 47.924585 115.793299 48.734701 
C 116.603415 49.544818 117.702323 50 118.848 50 
z
" clip-path="url(#p9454a9e989)" style="fill: #ffffff; stroke: #000000; stroke-width: 2; stroke-linejoin: miter"/>
   </g>
   <g id="patch_10">
    <path d="M 146.208 50 
C 147.353677 50 148.452585 49.544818 149.262701 48.734701 
C 150.072818 47.924585 150.528 46.825677 150.528 45.68 
C 150.528 44.534323 150.072818 43.435415 149.262701 42.625299 
C 148.452585 41.815182 147.353677 41.36 146.208 41.36 
C 145.062323 41.36 143.963415 41.815182 143.153299 42.625299 
C 142.343182 43.435415 141.888 44.534323 141.888 45.68 
C 141.888 46.825677 142.343182 47.924585 143.153299 48.734701 
C 143.963415 49.544818 145.062323 50 146.208 50 
z
" clip-path="url(#p9454a9e989)" style="fill: #ffffff; stroke: #000000; stroke-width: 2; stroke-linejoin: miter"/>
   </g>
   <g id="text_3">
    <!-- $t=0$ -->
    <g transform="translate(116.708 15.768437) scale(0.14 -0.14)">
     <defs>
      <path id="DejaVuSans-Oblique-74" d="M 2706 3500 
L 2619 3053 
L 1472 3053 
L 1100 1153 
Q 1081 1047 1072 975 
Q 1063 903 1063 863 
Q 1063 663 1183 572 
Q 1303 481 1569 481 
L 2150 481 
L 2053 0 
L 1503 0 
Q 991 0 739 200 
Q 488 400 488 806 
Q 488 878 497 964 
Q 506 1050 525 1153 
L 897 3053 
L 409 3053 
L 500 3500 
L 978 3500 
L 1172 4494 
L 1747 4494 
L 1556 3500 
L 2706 3500 
z
" transform="scale(0.015625)"/>
      <path id="DejaVuSans-3d" d="M 678 2906 
L 4684 2906 
L 4684 2381 
L 678 2381 
L 678 2906 
z
M 678 1631 
L 4684 1631 
L 4684 1100 
L 678 1100 
L 678 1631 
z
" transform="scale(0.015625)"/>
      <path id="DejaVuSans-30" d="M 2034 4250 
Q 1547 4250 1301 3770 
Q 1056 3291 1056 2328 
Q 1056 1369 1301 889 
Q 1547 409 2034 409 
Q 2525 409 2770 889 
Q 3016 1369 3016 2328 
Q 3016 3291 2770 3770 
Q 2525 4250 2034 4250 
z
M 2034 4750 
Q 2819 4750 3233 4129 
Q 3647 3509 3647 2328 
Q 3647 1150 3233 529 
Q 2819 -91 2034 -91 
Q 1250 -91 836 529 
Q 422 1150 422 2328 
Q 422 3509 836 4129 
Q 1250 4750 2034 4750 
z
" transform="scale(0.015625)"/>
     </defs>
     <use xlink:href="#DejaVuSans-Oblique-74" transform="translate(0 0.78125)"/>
     <use xlink:href="#DejaVuSans-3d" transform="translate(58.691406 0.78125)"/>
     <use xlink:href="#DejaVuSans-30" transform="translate(161.962891 0.78125)"/>
    </g>
   </g>
   <g id="text_4">
    <!-- a -->
    <g transform="translate(95.838313 33.768437) scale(0.14 -0.14)">
     <defs>
      <path id="DejaVuSans-61" d="M 2194 1759 
Q 1497 1759 1228 1600 
Q 959 1441 959 1056 
Q 959 750 1161 570 
Q 1363 391 1709 391 
Q 2188 391 2477 730 
Q 2766 1069 2766 1631 
L 2766 1759 
L 2194 1759 
z
M 3341 1997 
L 3341 0 
L 2766 0 
L 2766 531 
Q 2569 213 2275 61 
Q 1981 -91 1556 -91 
Q 1019 -91 701 211 
Q 384 513 384 1019 
Q 384 1609 779 1909 
Q 1175 2209 1959 2209 
L 2766 2209 
L 2766 2266 
Q 2766 2663 2505 2880 
Q 2244 3097 1772 3097 
Q 1472 3097 1187 3025 
Q 903 2953 641 2809 
L 641 3341 
Q 956 3463 1253 3523 
Q 1550 3584 1831 3584 
Q 2591 3584 2966 3190 
Q 3341 2797 3341 1997 
z
" transform="scale(0.015625)"/>
     </defs>
     <use xlink:href="#DejaVuSans-61"/>
    </g>
   </g>
   <g id="text_5">
    <!-- b -->
    <g transform="translate(167.684094 33.768437) scale(0.14 -0.14)">
     <defs>
      <path id="DejaVuSans-62" d="M 3116 1747 
Q 3116 2381 2855 2742 
Q 2594 3103 2138 3103 
Q 1681 3103 1420 2742 
Q 1159 2381 1159 1747 
Q 1159 1113 1420 752 
Q 1681 391 2138 391 
Q 2594 391 2855 752 
Q 3116 1113 3116 1747 
z
M 1159 2969 
Q 1341 3281 1617 3432 
Q 1894 3584 2278 3584 
Q 2916 3584 3314 3078 
Q 3713 2572 3713 1747 
Q 3713 922 3314 415 
Q 2916 -91 2278 -91 
Q 1894 -91 1617 61 
Q 1341 213 1159 525 
L 1159 0 
L 581 0 
L 581 4863 
L 1159 4863 
L 1159 2969 
z
" transform="scale(0.015625)"/>
     </defs>
     <use xlink:href="#DejaVuSans-62"/>
    </g>
   </g>
   <g id="text_6">
    <!-- $L$ -->
    <g transform="translate(173.288 112.543125) scale(0.14 -0.14)">
     <defs>
      <path id="DejaVuSans-Oblique-4c" d="M 1075 4666 
L 1709 4666 
L 909 525 
L 3181 525 
L 3078 0 
L 172 0 
L 1075 4666 
z
" transform="scale(0.015625)"/>
     </defs>
     <use xlink:href="#DejaVuSans-Oblique-4c" transform="translate(0 0.09375)"/>
    </g>
   </g>
   <g id="text_7">
    <!-- $R$ -->
    <g transform="translate(290.928 112.543125) scale(0.14 -0.14)">
     <use xlink:href="#DejaVuSans-Oblique-52" transform="translate(0 0.09375)"/>
    </g>
   </g>
   <g id="text_8">
    <!-- + -->
    <g transform="translate(231.062219 81.043125) scale(0.14 -0.14)">
     <defs>
      <path id="DejaVuSans-2b" d="M 2944 4013 
L 2944 2272 
L 4684 2272 
L 4684 1741 
L 2944 1741 
L 2944 0 
L 2419 0 
L 2419 1741 
L 678 1741 
L 678 2272 
L 2419 2272 
L 2419 4013 
L 2944 4013 
z
" transform="scale(0.015625)"/>
     </defs>
     <use xlink:href="#DejaVuSans-2b"/>
    </g>
   </g>
   <g id="text_9">
    <!-- $v_o(t)$ -->
    <g transform="translate(221.388 112.543125) scale(0.14 -0.14)">
     <defs>
      <path id="DejaVuSans-Oblique-76" d="M 459 3500 
L 1069 3500 
L 1581 525 
L 3256 3500 
L 3866 3500 
L 1875 0 
L 1100 0 
L 459 3500 
z
" transform="scale(0.015625)"/>
      <path id="DejaVuSans-Oblique-6f" d="M 1625 -91 
Q 1009 -91 651 289 
Q 294 669 294 1325 
Q 294 1706 417 2101 
Q 541 2497 738 2766 
Q 1047 3184 1428 3384 
Q 1809 3584 2291 3584 
Q 2888 3584 3255 3212 
Q 3622 2841 3622 2241 
Q 3622 1825 3500 1412 
Q 3378 1000 3181 728 
Q 2875 309 2494 109 
Q 2113 -91 1625 -91 
z
M 891 1344 
Q 891 869 1089 633 
Q 1288 397 1691 397 
Q 2269 397 2648 901 
Q 3028 1406 3028 2181 
Q 3028 2634 2825 2865 
Q 2622 3097 2228 3097 
Q 1903 3097 1650 2945 
Q 1397 2794 1197 2484 
Q 1050 2253 970 1956 
Q 891 1659 891 1344 
z
" transform="scale(0.015625)"/>
      <path id="DejaVuSans-28" d="M 1984 4856 
Q 1566 4138 1362 3434 
Q 1159 2731 1159 2009 
Q 1159 1288 1364 580 
Q 1569 -128 1984 -844 
L 1484 -844 
Q 1016 -109 783 600 
Q 550 1309 550 2009 
Q 550 2706 781 3412 
Q 1013 4119 1484 4856 
L 1984 4856 
z
" transform="scale(0.015625)"/>
      <path id="DejaVuSans-29" d="M 513 4856 
L 1013 4856 
Q 1481 4119 1714 3412 
Q 1947 2706 1947 2009 
Q 1947 1309 1714 600 
Q 1481 -109 1013 -844 
L 513 -844 
Q 928 -128 1133 580 
Q 1338 1288 1338 2009 
Q 1338 2731 1133 3434 
Q 928 4138 513 4856 
z
" transform="scale(0.015625)"/>
     </defs>
     <use xlink:href="#DejaVuSans-Oblique-76" transform="translate(0 0.125)"/>
     <use xlink:href="#DejaVuSans-Oblique-6f" transform="translate(59.179688 -16.28125) scale(0.7)"/>
     <use xlink:href="#DejaVuSans-28" transform="translate(104.741211 0.125)"/>
     <use xlink:href="#DejaVuSans-Oblique-74" transform="translate(143.754883 0.125)"/>
     <use xlink:href="#DejaVuSans-29" transform="translate(182.963867 0.125)"/>
    </g>
   </g>
   <g id="text_10">
    <!-- − -->
    <g transform="translate(231.062219 144.043125) scale(0.14 -0.14)">
     <defs>
      <path id="DejaVuSans-2212" d="M 678 2272 
L 4684 2272 
L 4684 1741 
L 678 1741 
L 678 2272 
z
" transform="scale(0.015625)"/>
     </defs>
     <use xlink:href="#DejaVuSans-2212"/>
    </g>
   </g>
   <g id="patch_11">
    <path d="M 316.848 50 
C 317.993677 50 319.092585 49.544818 319.902701 48.734701 
C 320.712818 47.924585 321.168 46.825677 321.168 45.68 
C 321.168 44.534323 320.712818 43.435415 319.902701 42.625299 
C 319.092585 41.815182 317.993677 41.36 316.848 41.36 
C 315.702323 41.36 314.603415 41.815182 313.793299 42.625299 
C 312.983182 43.435415 312.528 44.534323 312.528 45.68 
C 312.528 46.825677 312.983182 47.924585 313.793299 48.734701 
C 314.603415 49.544818 315.702323 50 316.848 50 
z
" clip-path="url(#p9454a9e989)" style="fill: #ffffff; stroke: #000000; stroke-width: 2; stroke-linejoin: miter"/>
   </g>
   <g id="patch_12">
    <path d="M 344.208 50 
C 345.353677 50 346.452585 49.544818 347.262701 48.734701 
C 348.072818 47.924585 348.528 46.825677 348.528 45.68 
C 348.528 44.534323 348.072818 43.435415 347.262701 42.625299 
C 346.452585 41.815182 345.353677 41.36 344.208 41.36 
C 343.062323 41.36 341.963415 41.815182 341.153299 42.625299 
C 340.343182 43.435415 339.888 44.534323 339.888 45.68 
C 339.888 46.825677 340.343182 47.924585 341.153299 48.734701 
C 341.963415 49.544818 343.062323 50 344.208 50 
z
" clip-path="url(#p9454a9e989)" style="fill: #ffffff; stroke: #000000; stroke-width: 2; stroke-linejoin: miter"/>
   </g>
   <g id="text_11">
    <!-- $t=0$ -->
    <g transform="translate(314.708 15.768437) scale(0.14 -0.14)">
     <use xlink:href="#DejaVuSans-Oblique-74" transform="translate(0 0.78125)"/>
     <use xlink:href="#DejaVuSans-3d" transform="translate(58.691406 0.78125)"/>
     <use xlink:href="#DejaVuSans-30" transform="translate(161.962891 0.78125)"/>
    </g>
   </g>
   <g id="text_12">
    <!-- c -->
    <g transform="translate(294.279094 33.768437) scale(0.14 -0.14)">
     <defs>
      <path id="DejaVuSans-63" d="M 3122 3366 
L 3122 2828 
Q 2878 2963 2633 3030 
Q 2388 3097 2138 3097 
Q 1578 3097 1268 2742 
Q 959 2388 959 1747 
Q 959 1106 1268 751 
Q 1578 397 2138 397 
Q 2388 397 2633 464 
Q 2878 531 3122 666 
L 3122 134 
Q 2881 22 2623 -34 
Q 2366 -91 2075 -91 
Q 1284 -91 818 406 
Q 353 903 353 1747 
Q 353 2603 823 3093 
Q 1294 3584 2113 3584 
Q 2378 3584 2631 3529 
Q 2884 3475 3122 3366 
z
" transform="scale(0.015625)"/>
     </defs>
     <use xlink:href="#DejaVuSans-63"/>
    </g>
   </g>
   <g id="text_13">
    <!-- d -->
    <g transform="translate(365.684094 33.768437) scale(0.14 -0.14)">
     <defs>
      <path id="DejaVuSans-64" d="M 2906 2969 
L 2906 4863 
L 3481 4863 
L 3481 0 
L 2906 0 
L 2906 525 
Q 2725 213 2448 61 
Q 2172 -91 1784 -91 
Q 1150 -91 751 415 
Q 353 922 353 1747 
Q 353 2572 751 3078 
Q 1150 3584 1784 3584 
Q 2172 3584 2448 3432 
Q 2725 3281 2906 2969 
z
M 947 1747 
Q 947 1113 1208 752 
Q 1469 391 1925 391 
Q 2381 391 2643 752 
Q 2906 1113 2906 1747 
Q 2906 2381 2643 2742 
Q 2381 3103 1925 3103 
Q 1469 3103 1208 2742 
Q 947 2381 947 1747 
z
" transform="scale(0.015625)"/>
     </defs>
     <use xlink:href="#DejaVuSans-64"/>
    </g>
   </g>
   <g id="text_14">
    <!-- $R_b$ -->
    <g transform="translate(398.928 81.043125) scale(0.14 -0.14)">
     <defs>
      <path id="DejaVuSans-Oblique-62" d="M 3169 2138 
Q 3169 2591 2961 2847 
Q 2753 3103 2388 3103 
Q 2122 3103 1889 2973 
Q 1656 2844 1484 2597 
Q 1303 2338 1198 1995 
Q 1094 1653 1094 1313 
Q 1094 881 1298 636 
Q 1503 391 1863 391 
Q 2134 391 2365 517 
Q 2597 644 2772 891 
Q 2950 1147 3059 1487 
Q 3169 1828 3169 2138 
z
M 1381 2969 
Q 1594 3256 1914 3420 
Q 2234 3584 2584 3584 
Q 3122 3584 3439 3221 
Q 3756 2859 3756 2241 
Q 3756 1734 3570 1259 
Q 3384 784 3041 416 
Q 2816 172 2522 40 
Q 2228 -91 1906 -91 
Q 1566 -91 1316 65 
Q 1066 222 909 531 
L 806 0 
L 231 0 
L 1178 4863 
L 1753 4863 
L 1381 2969 
z
" transform="scale(0.015625)"/>
     </defs>
     <use xlink:href="#DejaVuSans-Oblique-52" transform="translate(0 0.09375)"/>
     <use xlink:href="#DejaVuSans-Oblique-62" transform="translate(69.482422 -16.3125) scale(0.7)"/>
    </g>
   </g>
   <g id="text_15">
    <!-- $V_{dc}$ -->
    <g transform="translate(407.928 144.043125) scale(0.14 -0.14)">
     <defs>
      <path id="DejaVuSans-Oblique-56" d="M 1319 0 
L 500 4666 
L 1119 4666 
L 1797 653 
L 4063 4666 
L 4750 4666 
L 2053 0 
L 1319 0 
z
" transform="scale(0.015625)"/>
      <path id="DejaVuSans-Oblique-64" d="M 2675 525 
Q 2444 222 2128 65 
Q 1813 -91 1428 -91 
Q 903 -91 598 267 
Q 294 625 294 1247 
Q 294 1766 478 2236 
Q 663 2706 1013 3078 
Q 1244 3325 1534 3454 
Q 1825 3584 2144 3584 
Q 2481 3584 2739 3421 
Q 2997 3259 3138 2956 
L 3513 4863 
L 4091 4863 
L 3144 0 
L 2566 0 
L 2675 525 
z
M 891 1350 
Q 891 897 1095 644 
Q 1300 391 1663 391 
Q 1931 391 2161 520 
Q 2391 650 2566 903 
Q 2750 1166 2856 1509 
Q 2963 1853 2963 2188 
Q 2963 2622 2758 2865 
Q 2553 3109 2194 3109 
Q 1922 3109 1687 2981 
Q 1453 2853 1288 2613 
Q 1106 2353 998 2009 
Q 891 1666 891 1350 
z
" transform="scale(0.015625)"/>
      <path id="DejaVuSans-Oblique-63" d="M 3431 3366 
L 3316 2797 
Q 3109 2947 2876 3022 
Q 2644 3097 2394 3097 
Q 2119 3097 1870 3000 
Q 1622 2903 1453 2725 
Q 1184 2453 1037 2087 
Q 891 1722 891 1331 
Q 891 859 1127 628 
Q 1363 397 1844 397 
Q 2081 397 2348 469 
Q 2616 541 2906 684 
L 2797 116 
Q 2547 13 2283 -39 
Q 2019 -91 1741 -91 
Q 1044 -91 669 257 
Q 294 606 294 1253 
Q 294 1797 489 2255 
Q 684 2713 1069 3078 
Q 1331 3328 1684 3456 
Q 2038 3584 2456 3584 
Q 2700 3584 2940 3529 
Q 3181 3475 3431 3366 
z
" transform="scale(0.015625)"/>
     </defs>
     <use xlink:href="#DejaVuSans-Oblique-56" transform="translate(0 0.09375)"/>
     <use xlink:href="#DejaVuSans-Oblique-64" transform="translate(68.408203 -16.3125) scale(0.7)"/>
     <use xlink:href="#DejaVuSans-Oblique-63" transform="translate(112.841797 -16.3125) scale(0.7)"/>
    </g>
   </g>
   <g id="text_16">
    <!-- $C$ -->
    <g transform="translate(488.928 112.543125) scale(0.14 -0.14)">
     <defs>
      <path id="DejaVuSans-Oblique-43" d="M 4447 4306 
L 4319 3641 
Q 4019 3944 3683 4091 
Q 3347 4238 2956 4238 
Q 2422 4238 2017 3981 
Q 1613 3725 1319 3200 
Q 1131 2863 1032 2486 
Q 934 2109 934 1728 
Q 934 1091 1264 756 
Q 1594 422 2222 422 
Q 2656 422 3056 561 
Q 3456 700 3834 978 
L 3688 231 
Q 3316 72 2936 -9 
Q 2556 -91 2175 -91 
Q 1278 -91 773 396 
Q 269 884 269 1753 
Q 269 2309 461 2846 
Q 653 3384 1013 3828 
Q 1394 4300 1883 4525 
Q 2372 4750 3022 4750 
Q 3422 4750 3780 4639 
Q 4138 4528 4447 4306 
z
" transform="scale(0.015625)"/>
     </defs>
     <use xlink:href="#DejaVuSans-Oblique-43" transform="translate(0 0.78125)"/>
    </g>
   </g>
   <g id="patch_13">
    <path d="M 78.528 48.38 
C 79.244048 48.38 79.930866 48.095511 80.437188 47.589188 
C 80.943511 47.082866 81.228 46.396048 81.228 45.68 
C 81.228 44.963952 80.943511 44.277134 80.437188 43.770812 
C 79.930866 43.264489 79.244048 42.98 78.528 42.98 
C 77.811952 42.98 77.125134 43.264489 76.618812 43.770812 
C 76.112489 44.277134 75.828 44.963952 75.828 45.68 
C 75.828 46.396048 76.112489 47.082866 76.618812 47.589188 
C 77.125134 48.095511 77.811952 48.38 78.528 48.38 
z
" clip-path="url(#p9454a9e989)" style="stroke: #000000; stroke-width: 2; stroke-linejoin: miter"/>
   </g>
   <g id="patch_14">
    <path d="M 96.528 48.38 
C 97.244048 48.38 97.930866 48.095511 98.437188 47.589188 
C 98.943511 47.082866 99.228 46.396048 99.228 45.68 
C 99.228 44.963952 98.943511 44.277134 98.437188 43.770812 
C 97.930866 43.264489 97.244048 42.98 96.528 42.98 
C 95.811952 42.98 95.125134 43.264489 94.618812 43.770812 
C 94.112489 44.277134 93.828 44.963952 93.828 45.68 
C 93.828 46.396048 94.112489 47.082866 94.618812 47.589188 
C 95.125134 48.095511 95.811952 48.38 96.528 48.38 
z
" clip-path="url(#p9454a9e989)" style="stroke: #000000; stroke-width: 2; stroke-linejoin: miter"/>
   </g>
   <g id="patch_15">
    <path d="M 186.528 48.38 
C 187.244048 48.38 187.930866 48.095511 188.437188 47.589188 
C 188.943511 47.082866 189.228 46.396048 189.228 45.68 
C 189.228 44.963952 188.943511 44.277134 188.437188 43.770812 
C 187.930866 43.264489 187.244048 42.98 186.528 42.98 
C 185.811952 42.98 185.125134 43.264489 184.618812 43.770812 
C 184.112489 44.277134 183.828 44.963952 183.828 45.68 
C 183.828 46.396048 184.112489 47.082866 184.618812 47.589188 
C 185.125134 48.095511 185.811952 48.38 186.528 48.38 
z
" clip-path="url(#p9454a9e989)" style="stroke: #000000; stroke-width: 2; stroke-linejoin: miter"/>
   </g>
   <g id="patch_16">
    <path d="M 276.528 48.38 
C 277.244048 48.38 277.930866 48.095511 278.437188 47.589188 
C 278.943511 47.082866 279.228 46.396048 279.228 45.68 
C 279.228 44.963952 278.943511 44.277134 278.437188 43.770812 
C 277.930866 43.264489 277.244048 42.98 276.528 42.98 
C 275.811952 42.98 275.125134 43.264489 274.618812 43.770812 
C 274.112489 44.277134 273.828 44.963952 273.828 45.68 
C 273.828 46.396048 274.112489 47.082866 274.618812 47.589188 
C 275.125134 48.095511 275.811952 48.38 276.528 48.38 
z
" clip-path="url(#p9454a9e989)" style="stroke: #000000; stroke-width: 2; stroke-linejoin: miter"/>
   </g>
   <g id="patch_17">
    <path d="M 186.528 174.38 
C 187.244048 174.38 187.930866 174.095511 188.437188 173.589188 
C 188.943511 173.082866 189.228 172.396048 189.228 171.68 
C 189.228 170.963952 188.943511 170.277134 188.437188 169.770812 
C 187.930866 169.264489 187.244048 168.98 186.528 168.98 
C 185.811952 168.98 185.125134 169.264489 184.618812 169.770812 
C 184.112489 170.277134 183.828 170.963952 183.828 171.68 
C 183.828 172.396048 184.112489 173.082866 184.618812 173.589188 
C 185.125134 174.095511 185.811952 174.38 186.528 174.38 
z
" clip-path="url(#p9454a9e989)" style="stroke: #000000; stroke-width: 2; stroke-linejoin: miter"/>
   </g>
   <g id="patch_18">
    <path d="M 276.528 174.38 
C 277.244048 174.38 277.930866 174.095511 278.437188 173.589188 
C 278.943511 173.082866 279.228 172.396048 279.228 171.68 
C 279.228 170.963952 278.943511 170.277134 278.437188 169.770812 
C 277.930866 169.264489 277.244048 168.98 276.528 168.98 
C 275.811952 168.98 275.125134 169.264489 274.618812 169.770812 
C 274.112489 170.277134 273.828 170.963952 273.828 171.68 
C 273.828 172.396048 274.112489 173.082866 274.618812 173.589188 
C 275.125134 174.095511 275.811952 174.38 276.528 174.38 
z
" clip-path="url(#p9454a9e989)" style="stroke: #000000; stroke-width: 2; stroke-linejoin: miter"/>
   </g>
   <g id="line2d_27">
    <path d="M 186.528 69.08 
L 186.528 69.08 
" clip-path="url(#p9454a9e989)" style="fill: none; stroke: #000000; stroke-width: 2; stroke-linecap: round"/>
   </g>
   <g id="patch_19">
    <path d="M 191.928 69.08 
L 186.528 79.88 
L 181.128 69.08 
z
" clip-path="url(#p9454a9e989)"/>
   </g>
   <g id="text_17">
    <!-- $i_L$ -->
    <g transform="translate(165.928 78.343125) scale(0.14 -0.14)">
     <defs>
      <path id="DejaVuSans-Oblique-69" d="M 1172 4863 
L 1747 4863 
L 1606 4134 
L 1031 4134 
L 1172 4863 
z
M 909 3500 
L 1484 3500 
L 800 0 
L 225 0 
L 909 3500 
z
" transform="scale(0.015625)"/>
     </defs>
     <use xlink:href="#DejaVuSans-Oblique-69" transform="translate(0 0.015625)"/>
     <use xlink:href="#DejaVuSans-Oblique-4c" transform="translate(27.783203 -16.390625) scale(0.7)"/>
    </g>
   </g>
   <g id="patch_20">
    <path d="M 294.528 48.38 
C 295.244048 48.38 295.930866 48.095511 296.437188 47.589188 
C 296.943511 47.082866 297.228 46.396048 297.228 45.68 
C 297.228 44.963952 296.943511 44.277134 296.437188 43.770812 
C 295.930866 43.264489 295.244048 42.98 294.528 42.98 
C 293.811952 42.98 293.125134 43.264489 292.618812 43.770812 
C 292.112489 44.277134 291.828 44.963952 291.828 45.68 
C 291.828 46.396048 292.112489 47.082866 292.618812 47.589188 
C 293.125134 48.095511 293.811952 48.38 294.528 48.38 
z
" clip-path="url(#p9454a9e989)" style="stroke: #000000; stroke-width: 2; stroke-linejoin: miter"/>
   </g>
   <g id="patch_21">
    <path d="M 384.528 48.38 
C 385.244048 48.38 385.930866 48.095511 386.437188 47.589188 
C 386.943511 47.082866 387.228 46.396048 387.228 45.68 
C 387.228 44.963952 386.943511 44.277134 386.437188 43.770812 
C 385.930866 43.264489 385.244048 42.98 384.528 42.98 
C 383.811952 42.98 383.125134 43.264489 382.618812 43.770812 
C 382.112489 44.277134 381.828 44.963952 381.828 45.68 
C 381.828 46.396048 382.112489 47.082866 382.618812 47.589188 
C 383.125134 48.095511 383.811952 48.38 384.528 48.38 
z
" clip-path="url(#p9454a9e989)" style="stroke: #000000; stroke-width: 2; stroke-linejoin: miter"/>
   </g>
   <g id="patch_22">
    <path d="M 474.528 48.38 
C 475.244048 48.38 475.930866 48.095511 476.437188 47.589188 
C 476.943511 47.082866 477.228 46.396048 477.228 45.68 
C 477.228 44.963952 476.943511 44.277134 476.437188 43.770812 
C 475.930866 43.264489 475.244048 42.98 474.528 42.98 
C 473.811952 42.98 473.125134 43.264489 472.618812 43.770812 
C 472.112489 44.277134 471.828 44.963952 471.828 45.68 
C 471.828 46.396048 472.112489 47.082866 472.618812 47.589188 
C 473.125134 48.095511 473.811952 48.38 474.528 48.38 
z
" clip-path="url(#p9454a9e989)" style="stroke: #000000; stroke-width: 2; stroke-linejoin: miter"/>
   </g>
  </g>
 </g>
 <defs>
  <clipPath id="p9454a9e989">
   <rect x="0" y="-0" width="503.016" height="179.06"/>
  </clipPath>
 </defs>
</svg>
