<?xml version="1.0" encoding="utf-8" standalone="no"?>
<!DOCTYPE svg PUBLIC "-//W3C//DTD SVG 1.1//EN"
  "http://www.w3.org/Graphics/SVG/1.1/DTD/svg11.dtd">
<svg xmlns:xlink="http://www.w3.org/1999/xlink" width="418.32pt" height="193.46pt" viewBox="0 0 418.32 193.46" xmlns="http://www.w3.org/2000/svg" version="1.1">
 <metadata>
  <rdf:RDF xmlns:dc="http://purl.org/dc/elements/1.1/" xmlns:cc="http://creativecommons.org/ns#" xmlns:rdf="http://www.w3.org/1999/02/22-rdf-syntax-ns#">
   <cc:Work>
    <dc:type rdf:resource="http://purl.org/dc/dcmitype/StillImage"/>
    <dc:date>2026-03-06T14:30:11.406622</dc:date>
    <dc:format>image/svg+xml</dc:format>
    <dc:creator>
     <cc:Agent>
      <dc:title>Matplotlib v3.10.8, https://matplotlib.org/</dc:title>
     </cc:Agent>
    </dc:creator>
   </cc:Work>
  </rdf:RDF>
 </metadata>
 <defs>
  <style type="text/css">*{stroke-linejoin: round; stroke-linecap: butt}</style>
 </defs>
 <g id="figure_1">
  <g id="patch_1">
   <path d="M 0 193.46 
L 418.32 193.46 
L 418.32 0 
L 0 0 
z
" style="fill: #ffffff"/>
  </g>
  <g id="axes_1">
   <g id="patch_2">
    <path d="M 22.68 124.88 
C 27.453656 124.88 32.032438 122.983406 35.407922 119.607922 
C 38.783406 116.232438 40.68 111.653656 40.68 106.88 
C 40.68 102.106344 38.783406 97.527562 35.407922 94.152078 
C 32.032438 90.776594 27.453656 88.88 22.68 88.88 
C 17.906344 88.88 13.327562 90.776594 9.952078 94.152078 
C 6.576594 97.527562 4.68 102.106344 4.68 106.88 
C 4.68 111.653656 6.576594 116.232438 9.952078 119.607922 
C 13.327562 122.983406 17.906344 124.88 22.68 124.88 
L 22.68 124.88 
z
" clip-path="url(#p467c4e166d)" style="fill: none; stroke: #000000; stroke-width: 2; stroke-linejoin: miter"/>
   </g>
   <g id="patch_3">
    <path d="M 395.64 177.08 
C 400.413656 177.08 404.992438 175.183406 408.367922 171.807922 
C 411.743406 168.432438 413.64 163.853656 413.64 159.08 
C 413.64 154.306344 411.743406 149.727562 408.367922 146.352078 
C 404.992438 142.976594 400.413656 141.08 395.64 141.08 
C 390.866344 141.08 386.287562 142.976594 382.912078 146.352078 
C 379.536594 149.727562 377.64 154.306344 377.64 159.08 
C 377.64 163.853656 379.536594 168.432438 382.912078 171.807922 
C 386.287562 175.183406 390.866344 177.08 395.64 177.08 
L 395.64 177.08 
z
" clip-path="url(#p467c4e166d)" style="fill: none; stroke: #000000; stroke-width: 2; stroke-linejoin: miter"/>
   </g>
   <g id="line2d_1">
    <path d="M 22.68 160.88 
L 22.68 124.88 
L 22.68 124.88 
M 22.68 88.88 
L 22.68 88.88 
L 22.68 52.88 
" clip-path="url(#p467c4e166d)" style="fill: none; stroke: #000000; stroke-width: 2; stroke-linecap: round"/>
   </g>
   <g id="line2d_2">
    <path d="M 22.68 115.88 
L 22.68 106.88 
" clip-path="url(#p467c4e166d)" style="fill: none; stroke: #000000; stroke-width: 2; stroke-linecap: round"/>
   </g>
   <g id="patch_4">
    <path d="M 19.98 106.88 
L 22.68 97.88 
L 25.38 106.88 
z
" clip-path="url(#p467c4e166d)"/>
   </g>
   <g id="line2d_3">
    <path d="M 22.68 52.88 
L 49.68 52.88 
L 76.68 52.88 
" clip-path="url(#p467c4e166d)" style="fill: none; stroke: #000000; stroke-width: 2; stroke-linecap: round"/>
   </g>
   <g id="line2d_4">
    <path d="M 76.68 52.88 
L 76.68 88.88 
L 85.68 91.88 
L 67.68 97.88 
L 85.68 103.88 
L 67.68 109.88 
L 85.68 115.88 
L 67.68 121.88 
L 76.68 124.88 
L 76.68 160.88 
" clip-path="url(#p467c4e166d)" style="fill: none; stroke: #000000; stroke-width: 2; stroke-linecap: round"/>
   </g>
   <g id="line2d_5">
    <path d="M 22.68 160.88 
L 49.68 160.88 
L 76.68 160.88 
" clip-path="url(#p467c4e166d)" style="fill: none; stroke: #000000; stroke-width: 2; stroke-linecap: round"/>
   </g>
   <g id="line2d_6">
    <path d="M 76.68 52.88 
L 87.48 52.88 
L 98.28 52.88 
" clip-path="url(#p467c4e166d)" style="fill: none; stroke: #000000; stroke-width: 2; stroke-linecap: round"/>
   </g>
   <g id="line2d_7">
    <path d="M 98.28 52.88 
M 106.92 49.28 
L 123.48 43.88 
M 134.28 38.48 
" clip-path="url(#p467c4e166d)" style="fill: none; stroke: #000000; stroke-width: 2; stroke-linecap: round"/>
   </g>
   <g id="line2d_8">
    <path d="M 129.96 38.48 
L 138.96 38.48 
L 147.96 38.48 
" clip-path="url(#p467c4e166d)" style="fill: none; stroke: #000000; stroke-width: 2; stroke-linecap: round"/>
   </g>
   <g id="line2d_9">
    <path d="M 147.96 38.48 
L 183.96 38.48 
L 184.09407 35.515813 
L 184.50176 32.524893 
L 185.174001 29.758083 
L 186.079538 27.447432 
L 186.604567 26.525692 
L 187.167547 25.786729 
L 187.759767 25.246119 
L 188.371902 24.915256 
L 188.994207 24.801116 
L 189.61672 24.906102 
L 190.229478 25.228004 
L 190.822723 25.760035 
L 191.387106 26.490982 
L 191.913888 27.405436 
L 192.823825 29.704309 
L 193.501342 32.46385 
L 193.91474 35.45262 
L 194.054472 38.419957 
L 193.933942 41.116994 
L 193.588382 43.317535 
L 193.071898 44.837024 
L 192.770537 45.298989 
L 192.452928 45.548023 
L 192.128923 45.578878 
L 191.808509 45.390903 
L 191.501597 44.98806 
L 190.966292 43.576085 
L 190.593029 41.461374 
L 190.438236 38.821284 
L 190.540019 35.877236 
L 190.914963 32.876142 
L 191.556748 30.0697 
L 192.436671 27.693281 
L 192.951402 26.730506 
L 193.506057 25.946192 
L 194.092102 25.356869 
L 194.700342 24.974959 
L 195.321113 24.808513 
L 195.944487 24.861038 
L 196.560482 25.131428 
L 197.159271 25.613983 
L 197.73139 26.298532 
L 198.267935 27.170645 
L 199.202621 29.400471 
L 199.91006 32.116447 
L 200.356046 35.090789 
L 200.528297 38.074044 
L 200.43749 40.81601 
L 200.116365 43.086723 
L 199.616977 44.695742 
L 199.320936 45.207431 
L 199.006332 45.50812 
L 198.682952 45.591471 
L 198.360768 45.455725 
L 198.049731 45.103746 
L 197.759551 44.542952 
L 197.278228 42.846352 
L 196.982289 40.508218 
L 196.921678 37.724645 
L 197.126602 34.729087 
L 197.604998 31.772776 
L 198.341866 29.103655 
L 199.300531 26.945578 
L 199.846371 26.116862 
L 200.425713 25.47954 
L 201.029502 25.047045 
L 201.648169 24.828495 
L 202.271831 24.828495 
L 202.890498 25.047045 
L 203.494287 25.47954 
L 204.073629 26.116862 
L 204.619469 26.945578 
L 205.12346 27.94822 
L 205.977065 30.387527 
L 206.587979 33.230202 
L 206.930087 36.237835 
L 206.999821 39.158178 
L 206.816457 41.746309 
L 206.420496 43.785163 
L 205.870269 45.103746 
L 205.559232 45.455725 
L 205.237048 45.591471 
L 204.913668 45.50812 
L 204.599064 45.207431 
L 204.303023 44.695742 
L 203.803635 43.086723 
L 203.48251 40.81601 
L 203.391703 38.074044 
L 203.563954 35.090789 
L 204.00994 32.116447 
L 204.717379 29.400471 
L 205.652065 27.170645 
L 206.18861 26.298532 
L 206.760729 25.613983 
L 207.359518 25.131428 
L 207.975513 24.861038 
L 208.598887 24.808513 
L 209.219658 24.974959 
L 209.827898 25.356869 
L 210.413943 25.946192 
L 210.968598 26.730506 
L 211.483329 27.693281 
L 212.363252 30.0697 
L 213.005037 32.876142 
L 213.379981 35.877236 
L 213.481764 38.821284 
L 213.326971 41.461374 
L 212.953708 43.576085 
L 212.418403 44.98806 
L 212.111491 45.390903 
L 211.791077 45.578878 
L 211.467072 45.548023 
L 211.149463 45.298989 
L 210.848102 44.837024 
L 210.331618 43.317535 
L 209.986058 41.116994 
L 209.865528 38.419957 
L 210.00526 35.45262 
L 210.418658 32.46385 
L 211.096175 29.704309 
L 212.006112 27.405436 
L 212.532894 26.490982 
L 213.097277 25.760035 
L 213.690522 25.228004 
L 214.30328 24.906102 
L 214.925793 24.801116 
L 215.548098 24.915256 
L 216.160233 25.246119 
L 216.752453 25.786729 
L 217.315433 26.525692 
L 217.840462 27.447432 
L 218.745999 29.758083 
L 219.41824 32.524893 
L 219.82593 35.515813 
L 219.96 38.48 
L 255.96 38.48 
L 255.96 38.48 
" clip-path="url(#p467c4e166d)" style="fill: none; stroke: #000000; stroke-width: 2; stroke-linecap: round"/>
   </g>
   <g id="line2d_10">
    <path d="M 255.96 38.48 
L 264.96 38.48 
L 273.96 38.48 
" clip-path="url(#p467c4e166d)" style="fill: none; stroke: #000000; stroke-width: 2; stroke-linecap: round"/>
   </g>
   <g id="line2d_11">
    <path d="M 273.96 38.48 
L 273.96 74.48 
L 282.96 77.48 
L 264.96 83.48 
L 282.96 89.48 
L 264.96 95.48 
L 282.96 101.48 
L 264.96 107.48 
L 273.96 110.48 
L 273.96 146.48 
" clip-path="url(#p467c4e166d)" style="fill: none; stroke: #000000; stroke-width: 2; stroke-linecap: round"/>
   </g>
   <g id="line2d_12">
    <path d="M 273.96 38.48 
L 309.96 38.48 
L 345.96 38.48 
" clip-path="url(#p467c4e166d)" style="fill: none; stroke: #000000; stroke-width: 2; stroke-linecap: round"/>
   </g>
   <g id="line2d_13">
    <path d="M 345.96 38.48 
M 354.6 34.88 
L 371.16 29.48 
M 381.96 24.08 
" clip-path="url(#p467c4e166d)" style="fill: none; stroke: #000000; stroke-width: 2; stroke-linecap: round"/>
   </g>
   <g id="line2d_14">
    <path d="M 377.64 24.08 
L 386.64 24.08 
L 395.64 24.08 
" clip-path="url(#p467c4e166d)" style="fill: none; stroke: #000000; stroke-width: 2; stroke-linecap: round"/>
   </g>
   <g id="line2d_15">
    <path d="M 395.64 24.08 
L 395.64 47.84 
M 404.64 47.84 
L 386.64 47.84 
M 404.64 54.32 
L 386.64 54.32 
M 395.64 54.32 
L 395.64 78.08 
" clip-path="url(#p467c4e166d)" style="fill: none; stroke: #000000; stroke-width: 2; stroke-linecap: round"/>
   </g>
   <g id="line2d_16">
    <path d="M 395.64 78.08 
L 395.64 87.08 
L 404.64 90.08 
L 386.64 96.08 
L 404.64 102.08 
L 386.64 108.08 
L 404.64 114.08 
L 386.64 120.08 
L 395.64 123.08 
L 395.64 132.08 
" clip-path="url(#p467c4e166d)" style="fill: none; stroke: #000000; stroke-width: 2; stroke-linecap: round"/>
   </g>
   <g id="line2d_17">
    <path d="M 395.64 132.08 
L 395.64 141.08 
L 395.64 141.08 
M 395.64 177.08 
L 395.64 177.08 
L 395.64 186.08 
" clip-path="url(#p467c4e166d)" style="fill: none; stroke: #000000; stroke-width: 2; stroke-linecap: round"/>
   </g>
   <g id="line2d_18">
    <path d="M 399.24 168.08 
L 392.04 168.08 
" clip-path="url(#p467c4e166d)" style="fill: none; stroke: #000000; stroke-width: 2; stroke-linecap: round"/>
   </g>
   <g id="line2d_19">
    <path d="M 395.64 146.48 
L 395.64 153.68 
" clip-path="url(#p467c4e166d)" style="fill: none; stroke: #000000; stroke-width: 2; stroke-linecap: round"/>
   </g>
   <g id="line2d_20">
    <path d="M 399.24 150.08 
L 392.04 150.08 
" clip-path="url(#p467c4e166d)" style="fill: none; stroke: #000000; stroke-width: 2; stroke-linecap: round"/>
   </g>
   <g id="line2d_21">
    <path d="M 273.96 146.48 
L 273.96 166.28 
L 273.96 186.08 
" clip-path="url(#p467c4e166d)" style="fill: none; stroke: #000000; stroke-width: 2; stroke-linecap: round"/>
   </g>
   <g id="line2d_22">
    <path d="M 395.64 186.08 
L 334.8 186.08 
L 273.96 186.08 
" clip-path="url(#p467c4e166d)" style="fill: none; stroke: #000000; stroke-width: 2; stroke-linecap: round"/>
   </g>
   <g id="line2d_23">
    <path d="M 273.96 186.08 
L 175.32 186.08 
L 76.68 186.08 
" clip-path="url(#p467c4e166d)" style="fill: none; stroke: #000000; stroke-width: 2; stroke-linecap: round"/>
   </g>
   <g id="line2d_24">
    <path d="M 76.68 160.88 
L 76.68 173.48 
L 76.68 186.08 
" clip-path="url(#p467c4e166d)" style="fill: none; stroke: #000000; stroke-width: 2; stroke-linecap: round"/>
   </g>
   <g id="line2d_25">
    <path d="M 22.68 160.88 
L 22.68 173.48 
L 22.68 186.08 
" clip-path="url(#p467c4e166d)" style="fill: none; stroke: #000000; stroke-width: 2; stroke-linecap: round"/>
   </g>
   <g id="line2d_26">
    <path d="M 76.68 186.08 
L 49.68 186.08 
L 22.68 186.08 
" clip-path="url(#p467c4e166d)" style="fill: none; stroke: #000000; stroke-width: 2; stroke-linecap: round"/>
   </g>
   <g id="text_1">
    <!-- $I_s$ -->
    <g transform="translate(17.85 180.517813) scale(0.14 -0.14)">
     <defs>
      <path id="DejaVuSans-Oblique-49" d="M 1081 4666 
L 1716 4666 
L 806 0 
L 172 0 
L 1081 4666 
z
" transform="scale(0.015625)"/>
      <path id="DejaVuSans-Oblique-73" d="M 3200 3397 
L 3091 2853 
Q 2863 2978 2609 3040 
Q 2356 3103 2088 3103 
Q 1634 3103 1373 2948 
Q 1113 2794 1113 2528 
Q 1113 2219 1719 2053 
Q 1766 2041 1788 2034 
L 1972 1978 
Q 2547 1819 2739 1644 
Q 2931 1469 2931 1166 
Q 2931 609 2489 259 
Q 2047 -91 1331 -91 
Q 1053 -91 747 -37 
Q 441 16 72 128 
L 184 722 
Q 500 559 806 475 
Q 1113 391 1394 391 
Q 1816 391 2080 572 
Q 2344 753 2344 1031 
Q 2344 1331 1650 1516 
L 1591 1531 
L 1394 1581 
Q 956 1697 753 1886 
Q 550 2075 550 2369 
Q 550 2928 970 3256 
Q 1391 3584 2113 3584 
Q 2397 3584 2667 3537 
Q 2938 3491 3200 3397 
z
" transform="scale(0.015625)"/>
     </defs>
     <use xlink:href="#DejaVuSans-Oblique-49" transform="translate(0 0.09375)"/>
     <use xlink:href="#DejaVuSans-Oblique-73" transform="translate(29.492188 -16.3125) scale(0.7)"/>
    </g>
   </g>
   <g id="text_2">
    <!-- $R_a$ -->
    <g transform="translate(68.56 180.517813) scale(0.14 -0.14)">
     <defs>
      <path id="DejaVuSans-Oblique-52" d="M 1613 4147 
L 1294 2491 
L 2106 2491 
Q 2584 2491 2879 2755 
Q 3175 3019 3175 3444 
Q 3175 3784 2976 3965 
Q 2778 4147 2406 4147 
L 1613 4147 
z
M 2772 2241 
Q 2972 2194 3105 2009 
Q 3238 1825 3413 1275 
L 3809 0 
L 3144 0 
L 2778 1197 
Q 2638 1659 2453 1815 
Q 2269 1972 1888 1972 
L 1191 1972 
L 806 0 
L 172 0 
L 1081 4666 
L 2503 4666 
Q 3150 4666 3495 4373 
Q 3841 4081 3841 3531 
Q 3841 3044 3547 2687 
Q 3253 2331 2772 2241 
z
" transform="scale(0.015625)"/>
      <path id="DejaVuSans-Oblique-61" d="M 3438 1997 
L 3047 0 
L 2472 0 
L 2578 531 
Q 2325 219 2001 64 
Q 1678 -91 1281 -91 
Q 834 -91 548 182 
Q 263 456 263 884 
Q 263 1497 752 1853 
Q 1241 2209 2100 2209 
L 2900 2209 
L 2931 2363 
Q 2938 2388 2941 2417 
Q 2944 2447 2944 2509 
Q 2944 2788 2717 2942 
Q 2491 3097 2081 3097 
Q 1800 3097 1504 3025 
Q 1209 2953 897 2809 
L 997 3341 
Q 1322 3463 1633 3523 
Q 1944 3584 2234 3584 
Q 2853 3584 3176 3315 
Q 3500 3047 3500 2534 
Q 3500 2431 3484 2292 
Q 3469 2153 3438 1997 
z
M 2816 1759 
L 2241 1759 
Q 1534 1759 1195 1570 
Q 856 1381 856 984 
Q 856 709 1029 553 
Q 1203 397 1509 397 
Q 1978 397 2328 733 
Q 2678 1069 2791 1631 
L 2816 1759 
z
" transform="scale(0.015625)"/>
     </defs>
     <use xlink:href="#DejaVuSans-Oblique-52" transform="translate(0 0.09375)"/>
     <use xlink:href="#DejaVuSans-Oblique-61" transform="translate(69.482422 -16.3125) scale(0.7)"/>
    </g>
   </g>
   <g id="patch_5">
    <path d="M 102.6 57.2 
C 103.745677 57.2 104.844585 56.744818 105.654701 55.934701 
C 106.464818 55.124585 106.92 54.025677 106.92 52.88 
C 106.92 51.734323 106.464818 50.635415 105.654701 49.825299 
C 104.844585 49.015182 103.745677 48.56 102.6 48.56 
C 101.454323 48.56 100.355415 49.015182 99.545299 49.825299 
C 98.735182 50.635415 98.28 51.734323 98.28 52.88 
C 98.28 54.025677 98.735182 55.124585 99.545299 55.934701 
C 100.355415 56.744818 101.454323 57.2 102.6 57.2 
z
" clip-path="url(#p467c4e166d)" style="fill: #ffffff; stroke: #000000; stroke-width: 2; stroke-linejoin: miter"/>
   </g>
   <g id="patch_6">
    <path d="M 129.96 71.6 
C 131.105677 71.6 132.204585 71.144818 133.014701 70.334701 
C 133.824818 69.524585 134.28 68.425677 134.28 67.28 
C 134.28 66.134323 133.824818 65.035415 133.014701 64.225299 
C 132.204585 63.415182 131.105677 62.96 129.96 62.96 
C 128.814323 62.96 127.715415 63.415182 126.905299 64.225299 
C 126.095182 65.035415 125.64 66.134323 125.64 67.28 
C 125.64 68.425677 126.095182 69.524585 126.905299 70.334701 
C 127.715415 71.144818 128.814323 71.6 129.96 71.6 
z
" clip-path="url(#p467c4e166d)" style="fill: #ffffff; stroke: #000000; stroke-width: 2; stroke-linejoin: miter"/>
   </g>
   <g id="patch_7">
    <path d="M 129.96 42.8 
C 131.105677 42.8 132.204585 42.344818 133.014701 41.534701 
C 133.824818 40.724585 134.28 39.625677 134.28 38.48 
C 134.28 37.334323 133.824818 36.235415 133.014701 35.425299 
C 132.204585 34.615182 131.105677 34.16 129.96 34.16 
C 128.814323 34.16 127.715415 34.615182 126.905299 35.425299 
C 126.095182 36.235415 125.64 37.334323 125.64 38.48 
C 125.64 39.625677 126.095182 40.724585 126.905299 41.534701 
C 127.715415 42.344818 128.814323 42.8 129.96 42.8 
z
" clip-path="url(#p467c4e166d)" style="fill: #ffffff; stroke: #000000; stroke-width: 2; stroke-linejoin: miter"/>
   </g>
   <g id="text_3">
    <!-- a -->
    <g transform="translate(144.36 38.743125) scale(0.14 -0.14)">
     <defs>
      <path id="DejaVuSans-61" d="M 2194 1759 
Q 1497 1759 1228 1600 
Q 959 1441 959 1056 
Q 959 750 1161 570 
Q 1363 391 1709 391 
Q 2188 391 2477 730 
Q 2766 1069 2766 1631 
L 2766 1759 
L 2194 1759 
z
M 3341 1997 
L 3341 0 
L 2766 0 
L 2766 531 
Q 2569 213 2275 61 
Q 1981 -91 1556 -91 
Q 1019 -91 701 211 
Q 384 513 384 1019 
Q 384 1609 779 1909 
Q 1175 2209 1959 2209 
L 2766 2209 
L 2766 2266 
Q 2766 2663 2505 2880 
Q 2244 3097 1772 3097 
Q 1472 3097 1187 3025 
Q 903 2953 641 2809 
L 641 3341 
Q 956 3463 1253 3523 
Q 1550 3584 1831 3584 
Q 2591 3584 2966 3190 
Q 3341 2797 3341 1997 
z
" transform="scale(0.015625)"/>
     </defs>
     <use xlink:href="#DejaVuSans-61"/>
    </g>
   </g>
   <g id="text_4">
    <!-- b -->
    <g transform="translate(144.36 67.543125) scale(0.14 -0.14)">
     <defs>
      <path id="DejaVuSans-62" d="M 3116 1747 
Q 3116 2381 2855 2742 
Q 2594 3103 2138 3103 
Q 1681 3103 1420 2742 
Q 1159 2381 1159 1747 
Q 1159 1113 1420 752 
Q 1681 391 2138 391 
Q 2594 391 2855 752 
Q 3116 1113 3116 1747 
z
M 1159 2969 
Q 1341 3281 1617 3432 
Q 1894 3584 2278 3584 
Q 2916 3584 3314 3078 
Q 3713 2572 3713 1747 
Q 3713 922 3314 415 
Q 2916 -91 2278 -91 
Q 1894 -91 1617 61 
Q 1341 213 1159 525 
L 1159 0 
L 581 0 
L 581 4863 
L 1159 4863 
L 1159 2969 
z
" transform="scale(0.015625)"/>
     </defs>
     <use xlink:href="#DejaVuSans-62"/>
    </g>
   </g>
   <g id="text_5">
    <!-- $t=0$ -->
    <g transform="translate(90.38 74.317813) scale(0.14 -0.14)">
     <defs>
      <path id="DejaVuSans-Oblique-74" d="M 2706 3500 
L 2619 3053 
L 1472 3053 
L 1100 1153 
Q 1081 1047 1072 975 
Q 1063 903 1063 863 
Q 1063 663 1183 572 
Q 1303 481 1569 481 
L 2150 481 
L 2053 0 
L 1503 0 
Q 991 0 739 200 
Q 488 400 488 806 
Q 488 878 497 964 
Q 506 1050 525 1153 
L 897 3053 
L 409 3053 
L 500 3500 
L 978 3500 
L 1172 4494 
L 1747 4494 
L 1556 3500 
L 2706 3500 
z
" transform="scale(0.015625)"/>
      <path id="DejaVuSans-3d" d="M 678 2906 
L 4684 2906 
L 4684 2381 
L 678 2381 
L 678 2906 
z
M 678 1631 
L 4684 1631 
L 4684 1100 
L 678 1100 
L 678 1631 
z
" transform="scale(0.015625)"/>
      <path id="DejaVuSans-30" d="M 2034 4250 
Q 1547 4250 1301 3770 
Q 1056 3291 1056 2328 
Q 1056 1369 1301 889 
Q 1547 409 2034 409 
Q 2525 409 2770 889 
Q 3016 1369 3016 2328 
Q 3016 3291 2770 3770 
Q 2525 4250 2034 4250 
z
M 2034 4750 
Q 2819 4750 3233 4129 
Q 3647 3509 3647 2328 
Q 3647 1150 3233 529 
Q 2819 -91 2034 -91 
Q 1250 -91 836 529 
Q 422 1150 422 2328 
Q 422 3509 836 4129 
Q 1250 4750 2034 4750 
z
" transform="scale(0.015625)"/>
     </defs>
     <use xlink:href="#DejaVuSans-Oblique-74" transform="translate(0 0.78125)"/>
     <use xlink:href="#DejaVuSans-3d" transform="translate(58.691406 0.78125)"/>
     <use xlink:href="#DejaVuSans-30" transform="translate(161.962891 0.78125)"/>
    </g>
   </g>
   <g id="text_6">
    <!-- $i_L$ -->
    <g transform="translate(164.16 67.543125) scale(0.14 -0.14)">
     <defs>
      <path id="DejaVuSans-Oblique-69" d="M 1172 4863 
L 1747 4863 
L 1606 4134 
L 1031 4134 
L 1172 4863 
z
M 909 3500 
L 1484 3500 
L 800 0 
L 225 0 
L 909 3500 
z
" transform="scale(0.015625)"/>
      <path id="DejaVuSans-Oblique-4c" d="M 1075 4666 
L 1709 4666 
L 909 525 
L 3181 525 
L 3078 0 
L 172 0 
L 1075 4666 
z
" transform="scale(0.015625)"/>
     </defs>
     <use xlink:href="#DejaVuSans-Oblique-69" transform="translate(0 0.015625)"/>
     <use xlink:href="#DejaVuSans-Oblique-4c" transform="translate(27.783203 -16.390625) scale(0.7)"/>
    </g>
   </g>
   <g id="text_7">
    <!-- $L$ -->
    <g transform="translate(198.04 16.489553) scale(0.14 -0.14)">
     <use xlink:href="#DejaVuSans-Oblique-4c" transform="translate(0 0.09375)"/>
    </g>
   </g>
   <g id="text_8">
    <!-- + -->
    <g transform="translate(255.028437 38.743125) scale(0.14 -0.14)">
     <defs>
      <path id="DejaVuSans-2b" d="M 2944 4013 
L 2944 2272 
L 4684 2272 
L 4684 1741 
L 2944 1741 
L 2944 0 
L 2419 0 
L 2419 1741 
L 678 1741 
L 678 2272 
L 2419 2272 
L 2419 4013 
L 2944 4013 
z
" transform="scale(0.015625)"/>
     </defs>
     <use xlink:href="#DejaVuSans-2b"/>
    </g>
   </g>
   <g id="text_9">
    <!-- $v_o(t)$ -->
    <g transform="translate(262.02 126.517812) scale(0.14 -0.14)">
     <defs>
      <path id="DejaVuSans-Oblique-76" d="M 459 3500 
L 1069 3500 
L 1581 525 
L 3256 3500 
L 3866 3500 
L 1875 0 
L 1100 0 
L 459 3500 
z
" transform="scale(0.015625)"/>
      <path id="DejaVuSans-Oblique-6f" d="M 1625 -91 
Q 1009 -91 651 289 
Q 294 669 294 1325 
Q 294 1706 417 2101 
Q 541 2497 738 2766 
Q 1047 3184 1428 3384 
Q 1809 3584 2291 3584 
Q 2888 3584 3255 3212 
Q 3622 2841 3622 2241 
Q 3622 1825 3500 1412 
Q 3378 1000 3181 728 
Q 2875 309 2494 109 
Q 2113 -91 1625 -91 
z
M 891 1344 
Q 891 869 1089 633 
Q 1288 397 1691 397 
Q 2269 397 2648 901 
Q 3028 1406 3028 2181 
Q 3028 2634 2825 2865 
Q 2622 3097 2228 3097 
Q 1903 3097 1650 2945 
Q 1397 2794 1197 2484 
Q 1050 2253 970 1956 
Q 891 1659 891 1344 
z
" transform="scale(0.015625)"/>
      <path id="DejaVuSans-28" d="M 1984 4856 
Q 1566 4138 1362 3434 
Q 1159 2731 1159 2009 
Q 1159 1288 1364 580 
Q 1569 -128 1984 -844 
L 1484 -844 
Q 1016 -109 783 600 
Q 550 1309 550 2009 
Q 550 2706 781 3412 
Q 1013 4119 1484 4856 
L 1984 4856 
z
" transform="scale(0.015625)"/>
      <path id="DejaVuSans-29" d="M 513 4856 
L 1013 4856 
Q 1481 4119 1714 3412 
Q 1947 2706 1947 2009 
Q 1947 1309 1714 600 
Q 1481 -109 1013 -844 
L 513 -844 
Q 928 -128 1133 580 
Q 1338 1288 1338 2009 
Q 1338 2731 1133 3434 
Q 928 4138 513 4856 
z
" transform="scale(0.015625)"/>
     </defs>
     <use xlink:href="#DejaVuSans-Oblique-76" transform="translate(0 0.125)"/>
     <use xlink:href="#DejaVuSans-Oblique-6f" transform="translate(59.179688 -16.28125) scale(0.7)"/>
     <use xlink:href="#DejaVuSans-28" transform="translate(104.741211 0.125)"/>
     <use xlink:href="#DejaVuSans-Oblique-74" transform="translate(143.754883 0.125)"/>
     <use xlink:href="#DejaVuSans-29" transform="translate(182.963867 0.125)"/>
    </g>
   </g>
   <g id="text_10">
    <!-- − -->
    <g transform="translate(271.694219 171.517812) scale(0.14 -0.14)">
     <defs>
      <path id="DejaVuSans-2212" d="M 678 2272 
L 4684 2272 
L 4684 1741 
L 678 1741 
L 678 2272 
z
" transform="scale(0.015625)"/>
     </defs>
     <use xlink:href="#DejaVuSans-2212"/>
    </g>
   </g>
   <g id="text_11">
    <!-- $R$ -->
    <g transform="translate(305.06 30.168437) scale(0.14 -0.14)">
     <use xlink:href="#DejaVuSans-Oblique-52" transform="translate(0 0.09375)"/>
    </g>
   </g>
   <g id="patch_8">
    <path d="M 350.28 42.8 
C 351.425677 42.8 352.524585 42.344818 353.334701 41.534701 
C 354.144818 40.724585 354.6 39.625677 354.6 38.48 
C 354.6 37.334323 354.144818 36.235415 353.334701 35.425299 
C 352.524585 34.615182 351.425677 34.16 350.28 34.16 
C 349.134323 34.16 348.035415 34.615182 347.225299 35.425299 
C 346.415182 36.235415 345.96 37.334323 345.96 38.48 
C 345.96 39.625677 346.415182 40.724585 347.225299 41.534701 
C 348.035415 42.344818 349.134323 42.8 350.28 42.8 
z
" clip-path="url(#p467c4e166d)" style="fill: #ffffff; stroke: #000000; stroke-width: 2; stroke-linejoin: miter"/>
   </g>
   <g id="patch_9">
    <path d="M 377.64 57.2 
C 378.785677 57.2 379.884585 56.744818 380.694701 55.934701 
C 381.504818 55.124585 381.96 54.025677 381.96 52.88 
C 381.96 51.734323 381.504818 50.635415 380.694701 49.825299 
C 379.884585 49.015182 378.785677 48.56 377.64 48.56 
C 376.494323 48.56 375.395415 49.015182 374.585299 49.825299 
C 373.775182 50.635415 373.32 51.734323 373.32 52.88 
C 373.32 54.025677 373.775182 55.124585 374.585299 55.934701 
C 375.395415 56.744818 376.494323 57.2 377.64 57.2 
z
" clip-path="url(#p467c4e166d)" style="fill: #ffffff; stroke: #000000; stroke-width: 2; stroke-linejoin: miter"/>
   </g>
   <g id="patch_10">
    <path d="M 377.64 28.4 
C 378.785677 28.4 379.884585 27.944818 380.694701 27.134701 
C 381.504818 26.324585 381.96 25.225677 381.96 24.08 
C 381.96 22.934323 381.504818 21.835415 380.694701 21.025299 
C 379.884585 20.215182 378.785677 19.76 377.64 19.76 
C 376.494323 19.76 375.395415 20.215182 374.585299 21.025299 
C 373.775182 21.835415 373.32 22.934323 373.32 24.08 
C 373.32 25.225677 373.775182 26.324585 374.585299 27.134701 
C 375.395415 27.944818 376.494323 28.4 377.64 28.4 
z
" clip-path="url(#p467c4e166d)" style="fill: #ffffff; stroke: #000000; stroke-width: 2; stroke-linejoin: miter"/>
   </g>
   <g id="text_12">
    <!-- c -->
    <g transform="translate(392.04 24.343125) scale(0.14 -0.14)">
     <defs>
      <path id="DejaVuSans-63" d="M 3122 3366 
L 3122 2828 
Q 2878 2963 2633 3030 
Q 2388 3097 2138 3097 
Q 1578 3097 1268 2742 
Q 959 2388 959 1747 
Q 959 1106 1268 751 
Q 1578 397 2138 397 
Q 2388 397 2633 464 
Q 2878 531 3122 666 
L 3122 134 
Q 2881 22 2623 -34 
Q 2366 -91 2075 -91 
Q 1284 -91 818 406 
Q 353 903 353 1747 
Q 353 2603 823 3093 
Q 1294 3584 2113 3584 
Q 2378 3584 2631 3529 
Q 2884 3475 3122 3366 
z
" transform="scale(0.015625)"/>
     </defs>
     <use xlink:href="#DejaVuSans-63"/>
    </g>
   </g>
   <g id="text_13">
    <!-- d -->
    <g transform="translate(392.04 53.143125) scale(0.14 -0.14)">
     <defs>
      <path id="DejaVuSans-64" d="M 2906 2969 
L 2906 4863 
L 3481 4863 
L 3481 0 
L 2906 0 
L 2906 525 
Q 2725 213 2448 61 
Q 2172 -91 1784 -91 
Q 1150 -91 751 415 
Q 353 922 353 1747 
Q 353 2572 751 3078 
Q 1150 3584 1784 3584 
Q 2172 3584 2448 3432 
Q 2725 3281 2906 2969 
z
M 947 1747 
Q 947 1113 1208 752 
Q 1469 391 1925 391 
Q 2381 391 2643 752 
Q 2906 1113 2906 1747 
Q 2906 2381 2643 2742 
Q 2381 3103 1925 3103 
Q 1469 3103 1208 2742 
Q 947 2381 947 1747 
z
" transform="scale(0.015625)"/>
     </defs>
     <use xlink:href="#DejaVuSans-64"/>
    </g>
   </g>
   <g id="text_14">
    <!-- $t=0$ -->
    <g transform="translate(338.06 59.917812) scale(0.14 -0.14)">
     <use xlink:href="#DejaVuSans-Oblique-74" transform="translate(0 0.78125)"/>
     <use xlink:href="#DejaVuSans-3d" transform="translate(58.691406 0.78125)"/>
     <use xlink:href="#DejaVuSans-30" transform="translate(161.962891 0.78125)"/>
    </g>
   </g>
   <g id="text_15">
    <!-- $C$ -->
    <g transform="translate(390.74 15.768437) scale(0.14 -0.14)">
     <defs>
      <path id="DejaVuSans-Oblique-43" d="M 4447 4306 
L 4319 3641 
Q 4019 3944 3683 4091 
Q 3347 4238 2956 4238 
Q 2422 4238 2017 3981 
Q 1613 3725 1319 3200 
Q 1131 2863 1032 2486 
Q 934 2109 934 1728 
Q 934 1091 1264 756 
Q 1594 422 2222 422 
Q 2656 422 3056 561 
Q 3456 700 3834 978 
L 3688 231 
Q 3316 72 2936 -9 
Q 2556 -91 2175 -91 
Q 1278 -91 773 396 
Q 269 884 269 1753 
Q 269 2309 461 2846 
Q 653 3384 1013 3828 
Q 1394 4300 1883 4525 
Q 2372 4750 3022 4750 
Q 3422 4750 3780 4639 
Q 4138 4528 4447 4306 
z
" transform="scale(0.015625)"/>
     </defs>
     <use xlink:href="#DejaVuSans-Oblique-43" transform="translate(0 0.78125)"/>
    </g>
   </g>
   <g id="text_16">
    <!-- $R_b$ -->
    <g transform="translate(387.45 69.768437) scale(0.14 -0.14)">
     <defs>
      <path id="DejaVuSans-Oblique-62" d="M 3169 2138 
Q 3169 2591 2961 2847 
Q 2753 3103 2388 3103 
Q 2122 3103 1889 2973 
Q 1656 2844 1484 2597 
Q 1303 2338 1198 1995 
Q 1094 1653 1094 1313 
Q 1094 881 1298 636 
Q 1503 391 1863 391 
Q 2134 391 2365 517 
Q 2597 644 2772 891 
Q 2950 1147 3059 1487 
Q 3169 1828 3169 2138 
z
M 1381 2969 
Q 1594 3256 1914 3420 
Q 2234 3584 2584 3584 
Q 3122 3584 3439 3221 
Q 3756 2859 3756 2241 
Q 3756 1734 3570 1259 
Q 3384 784 3041 416 
Q 2816 172 2522 40 
Q 2228 -91 1906 -91 
Q 1566 -91 1316 65 
Q 1066 222 909 531 
L 806 0 
L 231 0 
L 1178 4863 
L 1753 4863 
L 1381 2969 
z
" transform="scale(0.015625)"/>
     </defs>
     <use xlink:href="#DejaVuSans-Oblique-52" transform="translate(0 0.09375)"/>
     <use xlink:href="#DejaVuSans-Oblique-62" transform="translate(69.482422 -16.3125) scale(0.7)"/>
    </g>
   </g>
   <g id="text_17">
    <!-- $V_{dc}$ -->
    <g transform="translate(384.79 123.768437) scale(0.14 -0.14)">
     <defs>
      <path id="DejaVuSans-Oblique-56" d="M 1319 0 
L 500 4666 
L 1119 4666 
L 1797 653 
L 4063 4666 
L 4750 4666 
L 2053 0 
L 1319 0 
z
" transform="scale(0.015625)"/>
      <path id="DejaVuSans-Oblique-64" d="M 2675 525 
Q 2444 222 2128 65 
Q 1813 -91 1428 -91 
Q 903 -91 598 267 
Q 294 625 294 1247 
Q 294 1766 478 2236 
Q 663 2706 1013 3078 
Q 1244 3325 1534 3454 
Q 1825 3584 2144 3584 
Q 2481 3584 2739 3421 
Q 2997 3259 3138 2956 
L 3513 4863 
L 4091 4863 
L 3144 0 
L 2566 0 
L 2675 525 
z
M 891 1350 
Q 891 897 1095 644 
Q 1300 391 1663 391 
Q 1931 391 2161 520 
Q 2391 650 2566 903 
Q 2750 1166 2856 1509 
Q 2963 1853 2963 2188 
Q 2963 2622 2758 2865 
Q 2553 3109 2194 3109 
Q 1922 3109 1687 2981 
Q 1453 2853 1288 2613 
Q 1106 2353 998 2009 
Q 891 1666 891 1350 
z
" transform="scale(0.015625)"/>
      <path id="DejaVuSans-Oblique-63" d="M 3431 3366 
L 3316 2797 
Q 3109 2947 2876 3022 
Q 2644 3097 2394 3097 
Q 2119 3097 1870 3000 
Q 1622 2903 1453 2725 
Q 1184 2453 1037 2087 
Q 891 1722 891 1331 
Q 891 859 1127 628 
Q 1363 397 1844 397 
Q 2081 397 2348 469 
Q 2616 541 2906 684 
L 2797 116 
Q 2547 13 2283 -39 
Q 2019 -91 1741 -91 
Q 1044 -91 669 257 
Q 294 606 294 1253 
Q 294 1797 489 2255 
Q 684 2713 1069 3078 
Q 1331 3328 1684 3456 
Q 2038 3584 2456 3584 
Q 2700 3584 2940 3529 
Q 3181 3475 3431 3366 
z
" transform="scale(0.015625)"/>
     </defs>
     <use xlink:href="#DejaVuSans-Oblique-56" transform="translate(0 0.09375)"/>
     <use xlink:href="#DejaVuSans-Oblique-64" transform="translate(68.408203 -16.3125) scale(0.7)"/>
     <use xlink:href="#DejaVuSans-Oblique-63" transform="translate(112.841797 -16.3125) scale(0.7)"/>
    </g>
   </g>
   <g id="patch_11">
    <path d="M 76.68 55.58 
C 77.396048 55.58 78.082866 55.295511 78.589188 54.789188 
C 79.095511 54.282866 79.38 53.596048 79.38 52.88 
C 79.38 52.163952 79.095511 51.477134 78.589188 50.970812 
C 78.082866 50.464489 77.396048 50.18 76.68 50.18 
C 75.963952 50.18 75.277134 50.464489 74.770812 50.970812 
C 74.264489 51.477134 73.98 52.163952 73.98 52.88 
C 73.98 53.596048 74.264489 54.282866 74.770812 54.789188 
C 75.277134 55.295511 75.963952 55.58 76.68 55.58 
z
" clip-path="url(#p467c4e166d)" style="stroke: #000000; stroke-width: 2; stroke-linejoin: miter"/>
   </g>
   <g id="patch_12">
    <path d="M 76.68 163.58 
C 77.396048 163.58 78.082866 163.295511 78.589188 162.789188 
C 79.095511 162.282866 79.38 161.596048 79.38 160.88 
C 79.38 160.163952 79.095511 159.477134 78.589188 158.970812 
C 78.082866 158.464489 77.396048 158.18 76.68 158.18 
C 75.963952 158.18 75.277134 158.464489 74.770812 158.970812 
C 74.264489 159.477134 73.98 160.163952 73.98 160.88 
C 73.98 161.596048 74.264489 162.282866 74.770812 162.789188 
C 75.277134 163.295511 75.963952 163.58 76.68 163.58 
z
" clip-path="url(#p467c4e166d)" style="stroke: #000000; stroke-width: 2; stroke-linejoin: miter"/>
   </g>
   <g id="patch_13">
    <path d="M 273.96 41.18 
C 274.676048 41.18 275.362866 40.895511 275.869188 40.389188 
C 276.375511 39.882866 276.66 39.196048 276.66 38.48 
C 276.66 37.763952 276.375511 37.077134 275.869188 36.570812 
C 275.362866 36.064489 274.676048 35.78 273.96 35.78 
C 273.243952 35.78 272.557134 36.064489 272.050812 36.570812 
C 271.544489 37.077134 271.26 37.763952 271.26 38.48 
C 271.26 39.196048 271.544489 39.882866 272.050812 40.389188 
C 272.557134 40.895511 273.243952 41.18 273.96 41.18 
z
" clip-path="url(#p467c4e166d)" style="stroke: #000000; stroke-width: 2; stroke-linejoin: miter"/>
   </g>
   <g id="patch_14">
    <path d="M 273.96 149.18 
C 274.676048 149.18 275.362866 148.895511 275.869188 148.389188 
C 276.375511 147.882866 276.66 147.196048 276.66 146.48 
C 276.66 145.763952 276.375511 145.077134 275.869188 144.570812 
C 275.362866 144.064489 274.676048 143.78 273.96 143.78 
C 273.243952 143.78 272.557134 144.064489 272.050812 144.570812 
C 271.544489 145.077134 271.26 145.763952 271.26 146.48 
C 271.26 147.196048 271.544489 147.882866 272.050812 148.389188 
C 272.557134 148.895511 273.243952 149.18 273.96 149.18 
z
" clip-path="url(#p467c4e166d)" style="stroke: #000000; stroke-width: 2; stroke-linejoin: miter"/>
   </g>
   <g id="patch_15">
    <path d="M 395.64 26.78 
C 396.356048 26.78 397.042866 26.495511 397.549188 25.989188 
C 398.055511 25.482866 398.34 24.796048 398.34 24.08 
C 398.34 23.363952 398.055511 22.677134 397.549188 22.170812 
C 397.042866 21.664489 396.356048 21.38 395.64 21.38 
C 394.923952 21.38 394.237134 21.664489 393.730812 22.170812 
C 393.224489 22.677134 392.94 23.363952 392.94 24.08 
C 392.94 24.796048 393.224489 25.482866 393.730812 25.989188 
C 394.237134 26.495511 394.923952 26.78 395.64 26.78 
z
" clip-path="url(#p467c4e166d)" style="stroke: #000000; stroke-width: 2; stroke-linejoin: miter"/>
   </g>
   <g id="patch_16">
    <path d="M 273.96 188.78 
C 274.676048 188.78 275.362866 188.495511 275.869188 187.989188 
C 276.375511 187.482866 276.66 186.796048 276.66 186.08 
C 276.66 185.363952 276.375511 184.677134 275.869188 184.170812 
C 275.362866 183.664489 274.676048 183.38 273.96 183.38 
C 273.243952 183.38 272.557134 183.664489 272.050812 184.170812 
C 271.544489 184.677134 271.26 185.363952 271.26 186.08 
C 271.26 186.796048 271.544489 187.482866 272.050812 187.989188 
C 272.557134 188.495511 273.243952 188.78 273.96 188.78 
z
" clip-path="url(#p467c4e166d)" style="stroke: #000000; stroke-width: 2; stroke-linejoin: miter"/>
   </g>
   <g id="patch_17">
    <path d="M 76.68 188.78 
C 77.396048 188.78 78.082866 188.495511 78.589188 187.989188 
C 79.095511 187.482866 79.38 186.796048 79.38 186.08 
C 79.38 185.363952 79.095511 184.677134 78.589188 184.170812 
C 78.082866 183.664489 77.396048 183.38 76.68 183.38 
C 75.963952 183.38 75.277134 183.664489 74.770812 184.170812 
C 74.264489 184.677134 73.98 185.363952 73.98 186.08 
C 73.98 186.796048 74.264489 187.482866 74.770812 187.989188 
C 75.277134 188.495511 75.963952 188.78 76.68 188.78 
z
" clip-path="url(#p467c4e166d)" style="stroke: #000000; stroke-width: 2; stroke-linejoin: miter"/>
   </g>
  </g>
 </g>
 <defs>
  <clipPath id="p467c4e166d">
   <rect x="0" y="-0" width="418.32" height="193.46"/>
  </clipPath>
 </defs>
</svg>
