<?xml version="1.0" encoding="utf-8" standalone="no"?>
<!DOCTYPE svg PUBLIC "-//W3C//DTD SVG 1.1//EN"
  "http://www.w3.org/Graphics/SVG/1.1/DTD/svg11.dtd">
<svg xmlns:xlink="http://www.w3.org/1999/xlink" width="411.12pt" height="273.56pt" viewBox="0 0 411.12 273.56" xmlns="http://www.w3.org/2000/svg" version="1.1">
 <metadata>
  <rdf:RDF xmlns:dc="http://purl.org/dc/elements/1.1/" xmlns:cc="http://creativecommons.org/ns#" xmlns:rdf="http://www.w3.org/1999/02/22-rdf-syntax-ns#">
   <cc:Work>
    <dc:type rdf:resource="http://purl.org/dc/dcmitype/StillImage"/>
    <dc:date>2026-03-06T14:05:52.556442</dc:date>
    <dc:format>image/svg+xml</dc:format>
    <dc:creator>
     <cc:Agent>
      <dc:title>Matplotlib v3.10.8, https://matplotlib.org/</dc:title>
     </cc:Agent>
    </dc:creator>
   </cc:Work>
  </rdf:RDF>
 </metadata>
 <defs>
  <style type="text/css">*{stroke-linejoin: round; stroke-linecap: butt}</style>
 </defs>
 <g id="figure_1">
  <g id="patch_1">
   <path d="M 0 273.56 
L 411.12 273.56 
L 411.12 0 
L 0 0 
z
" style="fill: #ffffff"/>
  </g>
  <g id="axes_1">
   <g id="line2d_1">
    <path d="M 173.16 38.48 
L 191.16 38.48 
L 209.16 38.48 
" clip-path="url(#p1c3333a80e)" style="fill: none; stroke: #ffffff; stroke-width: 2; stroke-linecap: round"/>
   </g>
   <g id="patch_2">
    <path d="M 22.68 133.88 
C 27.453656 133.88 32.032438 131.983406 35.407922 128.607922 
C 38.783406 125.232438 40.68 120.653656 40.68 115.88 
C 40.68 111.106344 38.783406 106.527562 35.407922 103.152078 
C 32.032438 99.776594 27.453656 97.88 22.68 97.88 
C 17.906344 97.88 13.327562 99.776594 9.952078 103.152078 
C 6.576594 106.527562 4.68 111.106344 4.68 115.88 
C 4.68 120.653656 6.576594 125.232438 9.952078 128.607922 
C 13.327562 131.983406 17.906344 133.88 22.68 133.88 
L 22.68 133.88 
z
" clip-path="url(#p1c3333a80e)" style="fill: none; stroke: #000000; stroke-width: 2; stroke-linejoin: miter"/>
   </g>
   <g id="patch_3">
    <path d="M 173.16 92.48 
C 174.353016 92.48 175.49839 92.005571 176.341981 91.161981 
C 177.185571 90.31839 177.66 89.173016 177.66 87.98 
C 177.66 86.786984 177.185571 85.64161 176.341981 84.798019 
C 175.49839 83.954429 174.353016 83.48 173.16 83.48 
" clip-path="url(#p1c3333a80e)" style="fill: none; stroke: #000000; stroke-width: 2; stroke-linejoin: miter"/>
   </g>
   <g id="patch_4">
    <path d="M 173.16 101.48 
C 174.353016 101.48 175.49839 101.005571 176.341981 100.161981 
C 177.185571 99.31839 177.66 98.173016 177.66 96.98 
C 177.66 95.786984 177.185571 94.64161 176.341981 93.798019 
C 175.49839 92.954429 174.353016 92.48 173.16 92.48 
" clip-path="url(#p1c3333a80e)" style="fill: none; stroke: #000000; stroke-width: 2; stroke-linejoin: miter"/>
   </g>
   <g id="patch_5">
    <path d="M 173.16 110.48 
C 174.353016 110.48 175.49839 110.005571 176.341981 109.161981 
C 177.185571 108.31839 177.66 107.173016 177.66 105.98 
C 177.66 104.786984 177.185571 103.64161 176.341981 102.798019 
C 175.49839 101.954429 174.353016 101.48 173.16 101.48 
" clip-path="url(#p1c3333a80e)" style="fill: none; stroke: #000000; stroke-width: 2; stroke-linejoin: miter"/>
   </g>
   <g id="patch_6">
    <path d="M 173.16 119.48 
C 174.353016 119.48 175.49839 119.005571 176.341981 118.161981 
C 177.185571 117.31839 177.66 116.173016 177.66 114.98 
C 177.66 113.786984 177.185571 112.64161 176.341981 111.798019 
C 175.49839 110.954429 174.353016 110.48 173.16 110.48 
" clip-path="url(#p1c3333a80e)" style="fill: none; stroke: #000000; stroke-width: 2; stroke-linejoin: miter"/>
   </g>
   <g id="patch_7">
    <path d="M 388.44 223.88 
C 393.213656 223.88 397.792438 221.983406 401.167922 218.607922 
C 404.543406 215.232438 406.44 210.653656 406.44 205.88 
C 406.44 201.106344 404.543406 196.527562 401.167922 193.152078 
C 397.792438 189.776594 393.213656 187.88 388.44 187.88 
C 383.666344 187.88 379.087562 189.776594 375.712078 193.152078 
C 372.336594 196.527562 370.44 201.106344 370.44 205.88 
C 370.44 210.653656 372.336594 215.232438 375.712078 218.607922 
C 379.087562 221.983406 383.666344 223.88 388.44 223.88 
L 388.44 223.88 
z
" clip-path="url(#p1c3333a80e)" style="fill: none; stroke: #000000; stroke-width: 2; stroke-linejoin: miter"/>
   </g>
   <g id="line2d_2">
    <path d="M 22.68 178.88 
L 22.68 133.88 
L 22.68 133.88 
M 22.68 97.88 
L 22.68 97.88 
L 22.68 52.88 
" clip-path="url(#p1c3333a80e)" style="fill: none; stroke: #000000; stroke-width: 2; stroke-linecap: round"/>
   </g>
   <g id="line2d_3">
    <path d="M 22.68 124.88 
L 22.68 115.88 
" clip-path="url(#p1c3333a80e)" style="fill: none; stroke: #000000; stroke-width: 2; stroke-linecap: round"/>
   </g>
   <g id="patch_8">
    <path d="M 19.98 115.88 
L 22.68 106.88 
L 25.38 115.88 
z
" clip-path="url(#p1c3333a80e)"/>
   </g>
   <g id="line2d_4">
    <path d="M 22.68 52.88 
L 40.68 52.88 
L 58.68 52.88 
" clip-path="url(#p1c3333a80e)" style="fill: none; stroke: #000000; stroke-width: 2; stroke-linecap: round"/>
   </g>
   <g id="line2d_5">
    <path d="M 58.68 52.88 
L 58.68 97.88 
L 67.68 100.88 
L 49.68 106.88 
L 67.68 112.88 
L 49.68 118.88 
L 67.68 124.88 
L 49.68 130.88 
L 58.68 133.88 
L 58.68 178.88 
" clip-path="url(#p1c3333a80e)" style="fill: none; stroke: #000000; stroke-width: 2; stroke-linecap: round"/>
   </g>
   <g id="line2d_6">
    <path d="M 22.68 178.88 
L 40.68 178.88 
L 58.68 178.88 
" clip-path="url(#p1c3333a80e)" style="fill: none; stroke: #000000; stroke-width: 2; stroke-linecap: round"/>
   </g>
   <g id="line2d_7">
    <path d="M 58.68 52.88 
L 73.08 52.88 
L 87.48 52.88 
" clip-path="url(#p1c3333a80e)" style="fill: none; stroke: #000000; stroke-width: 2; stroke-linecap: round"/>
   </g>
   <g id="line2d_8">
    <path d="M 87.48 52.88 
M 96.12 49.28 
L 112.68 43.88 
M 123.48 38.48 
" clip-path="url(#p1c3333a80e)" style="fill: none; stroke: #000000; stroke-width: 2; stroke-linecap: round"/>
   </g>
   <g id="line2d_9">
    <path d="M 119.16 38.48 
L 146.16 38.48 
L 173.16 38.48 
" clip-path="url(#p1c3333a80e)" style="fill: none; stroke: #000000; stroke-width: 2; stroke-linecap: round"/>
   </g>
   <g id="line2d_10">
    <path d="M 173.16 38.48 
L 173.16 83.48 
M 173.16 119.48 
L 173.16 164.48 
" clip-path="url(#p1c3333a80e)" style="fill: none; stroke: #000000; stroke-width: 2; stroke-linecap: round"/>
   </g>
   <g id="line2d_11">
    <path d="M 173.16 38.48 
L 209.16 38.48 
L 245.16 38.48 
" clip-path="url(#p1c3333a80e)" style="fill: none; stroke: #000000; stroke-width: 2; stroke-linecap: round"/>
   </g>
   <g id="line2d_12">
    <path d="M 245.16 38.48 
L 245.16 83.48 
L 254.16 86.48 
L 236.16 92.48 
L 254.16 98.48 
L 236.16 104.48 
L 254.16 110.48 
L 236.16 116.48 
L 245.16 119.48 
L 245.16 164.48 
" clip-path="url(#p1c3333a80e)" style="fill: none; stroke: #000000; stroke-width: 2; stroke-linecap: round"/>
   </g>
   <g id="line2d_13">
    <path d="M 245.16 164.48 
L 209.16 164.48 
L 173.16 164.48 
" clip-path="url(#p1c3333a80e)" style="fill: none; stroke: #000000; stroke-width: 2; stroke-linecap: round"/>
   </g>
   <g id="line2d_14">
    <path d="M 245.16 38.48 
L 259.56 38.48 
L 273.96 38.48 
" clip-path="url(#p1c3333a80e)" style="fill: none; stroke: #000000; stroke-width: 2; stroke-linecap: round"/>
   </g>
   <g id="line2d_15">
    <path d="M 273.96 38.48 
M 282.6 34.88 
L 299.16 29.48 
M 309.96 24.08 
" clip-path="url(#p1c3333a80e)" style="fill: none; stroke: #000000; stroke-width: 2; stroke-linecap: round"/>
   </g>
   <g id="line2d_16">
    <path d="M 305.64 24.08 
L 332.64 24.08 
L 359.64 24.08 
" clip-path="url(#p1c3333a80e)" style="fill: none; stroke: #000000; stroke-width: 2; stroke-linecap: round"/>
   </g>
   <g id="line2d_17">
    <path d="M 359.64 24.08 
L 359.64 83.84 
M 368.64 83.84 
L 350.64 83.84 
M 368.64 90.32 
L 350.64 90.32 
M 359.64 90.32 
L 359.64 150.08 
" clip-path="url(#p1c3333a80e)" style="fill: none; stroke: #000000; stroke-width: 2; stroke-linecap: round"/>
   </g>
   <g id="line2d_18">
    <path d="M 305.64 52.88 
L 320.04 52.88 
L 334.44 52.88 
" clip-path="url(#p1c3333a80e)" style="fill: none; stroke: #000000; stroke-width: 2; stroke-linecap: round"/>
   </g>
   <g id="line2d_19">
    <path d="M 334.44 52.88 
L 334.44 61.88 
L 334.44 70.88 
" clip-path="url(#p1c3333a80e)" style="fill: none; stroke: #000000; stroke-width: 2; stroke-linecap: round"/>
   </g>
   <g id="line2d_20">
    <path d="M 334.44 70.88 
L 361.44 70.88 
L 388.44 70.88 
" clip-path="url(#p1c3333a80e)" style="fill: none; stroke: #000000; stroke-width: 2; stroke-linecap: round"/>
   </g>
   <g id="line2d_21">
    <path d="M 388.44 70.88 
L 388.44 88.88 
L 397.44 91.88 
L 379.44 97.88 
L 397.44 103.88 
L 379.44 109.88 
L 397.44 115.88 
L 379.44 121.88 
L 388.44 124.88 
L 388.44 142.88 
" clip-path="url(#p1c3333a80e)" style="fill: none; stroke: #000000; stroke-width: 2; stroke-linecap: round"/>
   </g>
   <g id="line2d_22">
    <path d="M 388.44 142.88 
L 388.44 187.88 
L 388.44 187.88 
M 388.44 223.88 
L 388.44 223.88 
L 388.44 268.88 
" clip-path="url(#p1c3333a80e)" style="fill: none; stroke: #000000; stroke-width: 2; stroke-linecap: round"/>
   </g>
   <g id="line2d_23">
    <path d="M 392.04 214.88 
L 384.84 214.88 
" clip-path="url(#p1c3333a80e)" style="fill: none; stroke: #000000; stroke-width: 2; stroke-linecap: round"/>
   </g>
   <g id="line2d_24">
    <path d="M 388.44 193.28 
L 388.44 200.48 
" clip-path="url(#p1c3333a80e)" style="fill: none; stroke: #000000; stroke-width: 2; stroke-linecap: round"/>
   </g>
   <g id="line2d_25">
    <path d="M 392.04 196.88 
L 384.84 196.88 
" clip-path="url(#p1c3333a80e)" style="fill: none; stroke: #000000; stroke-width: 2; stroke-linecap: round"/>
   </g>
   <g id="line2d_26">
    <path d="M 388.44 268.88 
L 374.04 268.88 
L 359.64 268.88 
" clip-path="url(#p1c3333a80e)" style="fill: none; stroke: #000000; stroke-width: 2; stroke-linecap: round"/>
   </g>
   <g id="line2d_27">
    <path d="M 359.64 24.08 
L 374.04 24.08 
L 388.44 24.08 
" clip-path="url(#p1c3333a80e)" style="fill: none; stroke: #000000; stroke-width: 2; stroke-linecap: round"/>
   </g>
   <g id="line2d_28">
    <path d="M 359.64 150.08 
L 302.4 150.08 
L 245.16 150.08 
" clip-path="url(#p1c3333a80e)" style="fill: none; stroke: #000000; stroke-width: 2; stroke-linecap: round"/>
   </g>
   <g id="line2d_29">
    <path d="M 173.16 164.48 
L 115.92 164.48 
L 58.68 164.48 
" clip-path="url(#p1c3333a80e)" style="fill: none; stroke: #000000; stroke-width: 2; stroke-linecap: round"/>
   </g>
   <g id="text_1">
    <!-- $I_s$ -->
    <g transform="translate(17.85 194.917812) scale(0.14 -0.14)">
     <defs>
      <path id="DejaVuSans-Oblique-49" d="M 1081 4666 
L 1716 4666 
L 806 0 
L 172 0 
L 1081 4666 
z
" transform="scale(0.015625)"/>
      <path id="DejaVuSans-Oblique-73" d="M 3200 3397 
L 3091 2853 
Q 2863 2978 2609 3040 
Q 2356 3103 2088 3103 
Q 1634 3103 1373 2948 
Q 1113 2794 1113 2528 
Q 1113 2219 1719 2053 
Q 1766 2041 1788 2034 
L 1972 1978 
Q 2547 1819 2739 1644 
Q 2931 1469 2931 1166 
Q 2931 609 2489 259 
Q 2047 -91 1331 -91 
Q 1053 -91 747 -37 
Q 441 16 72 128 
L 184 722 
Q 500 559 806 475 
Q 1113 391 1394 391 
Q 1816 391 2080 572 
Q 2344 753 2344 1031 
Q 2344 1331 1650 1516 
L 1591 1531 
L 1394 1581 
Q 956 1697 753 1886 
Q 550 2075 550 2369 
Q 550 2928 970 3256 
Q 1391 3584 2113 3584 
Q 2397 3584 2667 3537 
Q 2938 3491 3200 3397 
z
" transform="scale(0.015625)"/>
     </defs>
     <use xlink:href="#DejaVuSans-Oblique-49" transform="translate(0 0.09375)"/>
     <use xlink:href="#DejaVuSans-Oblique-73" transform="translate(29.492188 -16.3125) scale(0.7)"/>
    </g>
   </g>
   <g id="text_2">
    <!-- $R_a$ -->
    <g transform="translate(50.56 44.568437) scale(0.14 -0.14)">
     <defs>
      <path id="DejaVuSans-Oblique-52" d="M 1613 4147 
L 1294 2491 
L 2106 2491 
Q 2584 2491 2879 2755 
Q 3175 3019 3175 3444 
Q 3175 3784 2976 3965 
Q 2778 4147 2406 4147 
L 1613 4147 
z
M 2772 2241 
Q 2972 2194 3105 2009 
Q 3238 1825 3413 1275 
L 3809 0 
L 3144 0 
L 2778 1197 
Q 2638 1659 2453 1815 
Q 2269 1972 1888 1972 
L 1191 1972 
L 806 0 
L 172 0 
L 1081 4666 
L 2503 4666 
Q 3150 4666 3495 4373 
Q 3841 4081 3841 3531 
Q 3841 3044 3547 2687 
Q 3253 2331 2772 2241 
z
" transform="scale(0.015625)"/>
      <path id="DejaVuSans-Oblique-61" d="M 3438 1997 
L 3047 0 
L 2472 0 
L 2578 531 
Q 2325 219 2001 64 
Q 1678 -91 1281 -91 
Q 834 -91 548 182 
Q 263 456 263 884 
Q 263 1497 752 1853 
Q 1241 2209 2100 2209 
L 2900 2209 
L 2931 2363 
Q 2938 2388 2941 2417 
Q 2944 2447 2944 2509 
Q 2944 2788 2717 2942 
Q 2491 3097 2081 3097 
Q 1800 3097 1504 3025 
Q 1209 2953 897 2809 
L 997 3341 
Q 1322 3463 1633 3523 
Q 1944 3584 2234 3584 
Q 2853 3584 3176 3315 
Q 3500 3047 3500 2534 
Q 3500 2431 3484 2292 
Q 3469 2153 3438 1997 
z
M 2816 1759 
L 2241 1759 
Q 1534 1759 1195 1570 
Q 856 1381 856 984 
Q 856 709 1029 553 
Q 1203 397 1509 397 
Q 1978 397 2328 733 
Q 2678 1069 2791 1631 
L 2816 1759 
z
" transform="scale(0.015625)"/>
     </defs>
     <use xlink:href="#DejaVuSans-Oblique-52" transform="translate(0 0.09375)"/>
     <use xlink:href="#DejaVuSans-Oblique-61" transform="translate(69.482422 -16.3125) scale(0.7)"/>
    </g>
   </g>
   <g id="patch_9">
    <path d="M 91.8 57.2 
C 92.945677 57.2 94.044585 56.744818 94.854701 55.934701 
C 95.664818 55.124585 96.12 54.025677 96.12 52.88 
C 96.12 51.734323 95.664818 50.635415 94.854701 49.825299 
C 94.044585 49.015182 92.945677 48.56 91.8 48.56 
C 90.654323 48.56 89.555415 49.015182 88.745299 49.825299 
C 87.935182 50.635415 87.48 51.734323 87.48 52.88 
C 87.48 54.025677 87.935182 55.124585 88.745299 55.934701 
C 89.555415 56.744818 90.654323 57.2 91.8 57.2 
z
" clip-path="url(#p1c3333a80e)" style="fill: #ffffff; stroke: #000000; stroke-width: 2; stroke-linejoin: miter"/>
   </g>
   <g id="patch_10">
    <path d="M 119.16 71.6 
C 120.305677 71.6 121.404585 71.144818 122.214701 70.334701 
C 123.024818 69.524585 123.48 68.425677 123.48 67.28 
C 123.48 66.134323 123.024818 65.035415 122.214701 64.225299 
C 121.404585 63.415182 120.305677 62.96 119.16 62.96 
C 118.014323 62.96 116.915415 63.415182 116.105299 64.225299 
C 115.295182 65.035415 114.84 66.134323 114.84 67.28 
C 114.84 68.425677 115.295182 69.524585 116.105299 70.334701 
C 116.915415 71.144818 118.014323 71.6 119.16 71.6 
z
" clip-path="url(#p1c3333a80e)" style="fill: #ffffff; stroke: #000000; stroke-width: 2; stroke-linejoin: miter"/>
   </g>
   <g id="patch_11">
    <path d="M 119.16 42.8 
C 120.305677 42.8 121.404585 42.344818 122.214701 41.534701 
C 123.024818 40.724585 123.48 39.625677 123.48 38.48 
C 123.48 37.334323 123.024818 36.235415 122.214701 35.425299 
C 121.404585 34.615182 120.305677 34.16 119.16 34.16 
C 118.014323 34.16 116.915415 34.615182 116.105299 35.425299 
C 115.295182 36.235415 114.84 37.334323 114.84 38.48 
C 114.84 39.625677 115.295182 40.724585 116.105299 41.534701 
C 116.915415 42.344818 118.014323 42.8 119.16 42.8 
z
" clip-path="url(#p1c3333a80e)" style="fill: #ffffff; stroke: #000000; stroke-width: 2; stroke-linejoin: miter"/>
   </g>
   <g id="text_3">
    <!-- a -->
    <g transform="translate(133.56 38.743125) scale(0.14 -0.14)">
     <defs>
      <path id="DejaVuSans-61" d="M 2194 1759 
Q 1497 1759 1228 1600 
Q 959 1441 959 1056 
Q 959 750 1161 570 
Q 1363 391 1709 391 
Q 2188 391 2477 730 
Q 2766 1069 2766 1631 
L 2766 1759 
L 2194 1759 
z
M 3341 1997 
L 3341 0 
L 2766 0 
L 2766 531 
Q 2569 213 2275 61 
Q 1981 -91 1556 -91 
Q 1019 -91 701 211 
Q 384 513 384 1019 
Q 384 1609 779 1909 
Q 1175 2209 1959 2209 
L 2766 2209 
L 2766 2266 
Q 2766 2663 2505 2880 
Q 2244 3097 1772 3097 
Q 1472 3097 1187 3025 
Q 903 2953 641 2809 
L 641 3341 
Q 956 3463 1253 3523 
Q 1550 3584 1831 3584 
Q 2591 3584 2966 3190 
Q 3341 2797 3341 1997 
z
" transform="scale(0.015625)"/>
     </defs>
     <use xlink:href="#DejaVuSans-61"/>
    </g>
   </g>
   <g id="text_4">
    <!-- b -->
    <g transform="translate(133.56 67.543125) scale(0.14 -0.14)">
     <defs>
      <path id="DejaVuSans-62" d="M 3116 1747 
Q 3116 2381 2855 2742 
Q 2594 3103 2138 3103 
Q 1681 3103 1420 2742 
Q 1159 2381 1159 1747 
Q 1159 1113 1420 752 
Q 1681 391 2138 391 
Q 2594 391 2855 752 
Q 3116 1113 3116 1747 
z
M 1159 2969 
Q 1341 3281 1617 3432 
Q 1894 3584 2278 3584 
Q 2916 3584 3314 3078 
Q 3713 2572 3713 1747 
Q 3713 922 3314 415 
Q 2916 -91 2278 -91 
Q 1894 -91 1617 61 
Q 1341 213 1159 525 
L 1159 0 
L 581 0 
L 581 4863 
L 1159 4863 
L 1159 2969 
z
" transform="scale(0.015625)"/>
     </defs>
     <use xlink:href="#DejaVuSans-62"/>
    </g>
   </g>
   <g id="text_5">
    <!-- $t=0$ -->
    <g transform="translate(79.58 74.317812) scale(0.14 -0.14)">
     <defs>
      <path id="DejaVuSans-Oblique-74" d="M 2706 3500 
L 2619 3053 
L 1472 3053 
L 1100 1153 
Q 1081 1047 1072 975 
Q 1063 903 1063 863 
Q 1063 663 1183 572 
Q 1303 481 1569 481 
L 2150 481 
L 2053 0 
L 1503 0 
Q 991 0 739 200 
Q 488 400 488 806 
Q 488 878 497 964 
Q 506 1050 525 1153 
L 897 3053 
L 409 3053 
L 500 3500 
L 978 3500 
L 1172 4494 
L 1747 4494 
L 1556 3500 
L 2706 3500 
z
" transform="scale(0.015625)"/>
      <path id="DejaVuSans-3d" d="M 678 2906 
L 4684 2906 
L 4684 2381 
L 678 2381 
L 678 2906 
z
M 678 1631 
L 4684 1631 
L 4684 1100 
L 678 1100 
L 678 1631 
z
" transform="scale(0.015625)"/>
      <path id="DejaVuSans-30" d="M 2034 4250 
Q 1547 4250 1301 3770 
Q 1056 3291 1056 2328 
Q 1056 1369 1301 889 
Q 1547 409 2034 409 
Q 2525 409 2770 889 
Q 3016 1369 3016 2328 
Q 3016 3291 2770 3770 
Q 2525 4250 2034 4250 
z
M 2034 4750 
Q 2819 4750 3233 4129 
Q 3647 3509 3647 2328 
Q 3647 1150 3233 529 
Q 2819 -91 2034 -91 
Q 1250 -91 836 529 
Q 422 1150 422 2328 
Q 422 3509 836 4129 
Q 1250 4750 2034 4750 
z
" transform="scale(0.015625)"/>
     </defs>
     <use xlink:href="#DejaVuSans-Oblique-74" transform="translate(0 0.78125)"/>
     <use xlink:href="#DejaVuSans-3d" transform="translate(58.691406 0.78125)"/>
     <use xlink:href="#DejaVuSans-30" transform="translate(161.962891 0.78125)"/>
    </g>
   </g>
   <g id="text_6">
    <!-- $L$ -->
    <g transform="translate(171.489989 30.168437) scale(0.14 -0.14)">
     <defs>
      <path id="DejaVuSans-Oblique-4c" d="M 1075 4666 
L 1709 4666 
L 909 525 
L 3181 525 
L 3078 0 
L 172 0 
L 1075 4666 
z
" transform="scale(0.015625)"/>
     </defs>
     <use xlink:href="#DejaVuSans-Oblique-4c" transform="translate(0 0.09375)"/>
    </g>
   </g>
   <g id="text_7">
    <!-- $R$ -->
    <g transform="translate(240.26 30.168437) scale(0.14 -0.14)">
     <use xlink:href="#DejaVuSans-Oblique-52" transform="translate(0 0.09375)"/>
    </g>
   </g>
   <g id="text_8">
    <!-- + -->
    <g transform="translate(208.694219 79.243125) scale(0.14 -0.14)">
     <defs>
      <path id="DejaVuSans-2b" d="M 2944 4013 
L 2944 2272 
L 4684 2272 
L 4684 1741 
L 2944 1741 
L 2944 0 
L 2419 0 
L 2419 1741 
L 678 1741 
L 678 2272 
L 2419 2272 
L 2419 4013 
L 2944 4013 
z
" transform="scale(0.015625)"/>
     </defs>
     <use xlink:href="#DejaVuSans-2b"/>
    </g>
   </g>
   <g id="text_9">
    <!-- $v_o(t)$ -->
    <g transform="translate(199.02 110.743125) scale(0.14 -0.14)">
     <defs>
      <path id="DejaVuSans-Oblique-76" d="M 459 3500 
L 1069 3500 
L 1581 525 
L 3256 3500 
L 3866 3500 
L 1875 0 
L 1100 0 
L 459 3500 
z
" transform="scale(0.015625)"/>
      <path id="DejaVuSans-Oblique-6f" d="M 1625 -91 
Q 1009 -91 651 289 
Q 294 669 294 1325 
Q 294 1706 417 2101 
Q 541 2497 738 2766 
Q 1047 3184 1428 3384 
Q 1809 3584 2291 3584 
Q 2888 3584 3255 3212 
Q 3622 2841 3622 2241 
Q 3622 1825 3500 1412 
Q 3378 1000 3181 728 
Q 2875 309 2494 109 
Q 2113 -91 1625 -91 
z
M 891 1344 
Q 891 869 1089 633 
Q 1288 397 1691 397 
Q 2269 397 2648 901 
Q 3028 1406 3028 2181 
Q 3028 2634 2825 2865 
Q 2622 3097 2228 3097 
Q 1903 3097 1650 2945 
Q 1397 2794 1197 2484 
Q 1050 2253 970 1956 
Q 891 1659 891 1344 
z
" transform="scale(0.015625)"/>
      <path id="DejaVuSans-28" d="M 1984 4856 
Q 1566 4138 1362 3434 
Q 1159 2731 1159 2009 
Q 1159 1288 1364 580 
Q 1569 -128 1984 -844 
L 1484 -844 
Q 1016 -109 783 600 
Q 550 1309 550 2009 
Q 550 2706 781 3412 
Q 1013 4119 1484 4856 
L 1984 4856 
z
" transform="scale(0.015625)"/>
      <path id="DejaVuSans-29" d="M 513 4856 
L 1013 4856 
Q 1481 4119 1714 3412 
Q 1947 2706 1947 2009 
Q 1947 1309 1714 600 
Q 1481 -109 1013 -844 
L 513 -844 
Q 928 -128 1133 580 
Q 1338 1288 1338 2009 
Q 1338 2731 1133 3434 
Q 928 4138 513 4856 
z
" transform="scale(0.015625)"/>
     </defs>
     <use xlink:href="#DejaVuSans-Oblique-76" transform="translate(0 0.125)"/>
     <use xlink:href="#DejaVuSans-Oblique-6f" transform="translate(59.179688 -16.28125) scale(0.7)"/>
     <use xlink:href="#DejaVuSans-28" transform="translate(104.741211 0.125)"/>
     <use xlink:href="#DejaVuSans-Oblique-74" transform="translate(143.754883 0.125)"/>
     <use xlink:href="#DejaVuSans-29" transform="translate(182.963867 0.125)"/>
    </g>
   </g>
   <g id="text_10">
    <!-- − -->
    <g transform="translate(208.694219 142.243125) scale(0.14 -0.14)">
     <defs>
      <path id="DejaVuSans-2212" d="M 678 2272 
L 4684 2272 
L 4684 1741 
L 678 1741 
L 678 2272 
z
" transform="scale(0.015625)"/>
     </defs>
     <use xlink:href="#DejaVuSans-2212"/>
    </g>
   </g>
   <g id="patch_12">
    <path d="M 278.28 42.8 
C 279.425677 42.8 280.524585 42.344818 281.334701 41.534701 
C 282.144818 40.724585 282.6 39.625677 282.6 38.48 
C 282.6 37.334323 282.144818 36.235415 281.334701 35.425299 
C 280.524585 34.615182 279.425677 34.16 278.28 34.16 
C 277.134323 34.16 276.035415 34.615182 275.225299 35.425299 
C 274.415182 36.235415 273.96 37.334323 273.96 38.48 
C 273.96 39.625677 274.415182 40.724585 275.225299 41.534701 
C 276.035415 42.344818 277.134323 42.8 278.28 42.8 
z
" clip-path="url(#p1c3333a80e)" style="fill: #ffffff; stroke: #000000; stroke-width: 2; stroke-linejoin: miter"/>
   </g>
   <g id="patch_13">
    <path d="M 305.64 57.2 
C 306.785677 57.2 307.884585 56.744818 308.694701 55.934701 
C 309.504818 55.124585 309.96 54.025677 309.96 52.88 
C 309.96 51.734323 309.504818 50.635415 308.694701 49.825299 
C 307.884585 49.015182 306.785677 48.56 305.64 48.56 
C 304.494323 48.56 303.395415 49.015182 302.585299 49.825299 
C 301.775182 50.635415 301.32 51.734323 301.32 52.88 
C 301.32 54.025677 301.775182 55.124585 302.585299 55.934701 
C 303.395415 56.744818 304.494323 57.2 305.64 57.2 
z
" clip-path="url(#p1c3333a80e)" style="fill: #ffffff; stroke: #000000; stroke-width: 2; stroke-linejoin: miter"/>
   </g>
   <g id="patch_14">
    <path d="M 305.64 28.4 
C 306.785677 28.4 307.884585 27.944818 308.694701 27.134701 
C 309.504818 26.324585 309.96 25.225677 309.96 24.08 
C 309.96 22.934323 309.504818 21.835415 308.694701 21.025299 
C 307.884585 20.215182 306.785677 19.76 305.64 19.76 
C 304.494323 19.76 303.395415 20.215182 302.585299 21.025299 
C 301.775182 21.835415 301.32 22.934323 301.32 24.08 
C 301.32 25.225677 301.775182 26.324585 302.585299 27.134701 
C 303.395415 27.944818 304.494323 28.4 305.64 28.4 
z
" clip-path="url(#p1c3333a80e)" style="fill: #ffffff; stroke: #000000; stroke-width: 2; stroke-linejoin: miter"/>
   </g>
   <g id="text_11">
    <!-- c -->
    <g transform="translate(320.04 24.343125) scale(0.14 -0.14)">
     <defs>
      <path id="DejaVuSans-63" d="M 3122 3366 
L 3122 2828 
Q 2878 2963 2633 3030 
Q 2388 3097 2138 3097 
Q 1578 3097 1268 2742 
Q 959 2388 959 1747 
Q 959 1106 1268 751 
Q 1578 397 2138 397 
Q 2388 397 2633 464 
Q 2878 531 3122 666 
L 3122 134 
Q 2881 22 2623 -34 
Q 2366 -91 2075 -91 
Q 1284 -91 818 406 
Q 353 903 353 1747 
Q 353 2603 823 3093 
Q 1294 3584 2113 3584 
Q 2378 3584 2631 3529 
Q 2884 3475 3122 3366 
z
" transform="scale(0.015625)"/>
     </defs>
     <use xlink:href="#DejaVuSans-63"/>
    </g>
   </g>
   <g id="text_12">
    <!-- d -->
    <g transform="translate(320.04 53.143125) scale(0.14 -0.14)">
     <defs>
      <path id="DejaVuSans-64" d="M 2906 2969 
L 2906 4863 
L 3481 4863 
L 3481 0 
L 2906 0 
L 2906 525 
Q 2725 213 2448 61 
Q 2172 -91 1784 -91 
Q 1150 -91 751 415 
Q 353 922 353 1747 
Q 353 2572 751 3078 
Q 1150 3584 1784 3584 
Q 2172 3584 2448 3432 
Q 2725 3281 2906 2969 
z
M 947 1747 
Q 947 1113 1208 752 
Q 1469 391 1925 391 
Q 2381 391 2643 752 
Q 2906 1113 2906 1747 
Q 2906 2381 2643 2742 
Q 2381 3103 1925 3103 
Q 1469 3103 1208 2742 
Q 947 2381 947 1747 
z
" transform="scale(0.015625)"/>
     </defs>
     <use xlink:href="#DejaVuSans-64"/>
    </g>
   </g>
   <g id="text_13">
    <!-- $t=0$ -->
    <g transform="translate(266.06 59.917812) scale(0.14 -0.14)">
     <use xlink:href="#DejaVuSans-Oblique-74" transform="translate(0 0.78125)"/>
     <use xlink:href="#DejaVuSans-3d" transform="translate(58.691406 0.78125)"/>
     <use xlink:href="#DejaVuSans-30" transform="translate(161.962891 0.78125)"/>
    </g>
   </g>
   <g id="text_14">
    <!-- $C$ -->
    <g transform="translate(354.74 15.768438) scale(0.14 -0.14)">
     <defs>
      <path id="DejaVuSans-Oblique-43" d="M 4447 4306 
L 4319 3641 
Q 4019 3944 3683 4091 
Q 3347 4238 2956 4238 
Q 2422 4238 2017 3981 
Q 1613 3725 1319 3200 
Q 1131 2863 1032 2486 
Q 934 2109 934 1728 
Q 934 1091 1264 756 
Q 1594 422 2222 422 
Q 2656 422 3056 561 
Q 3456 700 3834 978 
L 3688 231 
Q 3316 72 2936 -9 
Q 2556 -91 2175 -91 
Q 1278 -91 773 396 
Q 269 884 269 1753 
Q 269 2309 461 2846 
Q 653 3384 1013 3828 
Q 1394 4300 1883 4525 
Q 2372 4750 3022 4750 
Q 3422 4750 3780 4639 
Q 4138 4528 4447 4306 
z
" transform="scale(0.015625)"/>
     </defs>
     <use xlink:href="#DejaVuSans-Oblique-43" transform="translate(0 0.78125)"/>
    </g>
   </g>
   <g id="text_15">
    <!-- $R_b$ -->
    <g transform="translate(380.25 62.568437) scale(0.14 -0.14)">
     <defs>
      <path id="DejaVuSans-Oblique-62" d="M 3169 2138 
Q 3169 2591 2961 2847 
Q 2753 3103 2388 3103 
Q 2122 3103 1889 2973 
Q 1656 2844 1484 2597 
Q 1303 2338 1198 1995 
Q 1094 1653 1094 1313 
Q 1094 881 1298 636 
Q 1503 391 1863 391 
Q 2134 391 2365 517 
Q 2597 644 2772 891 
Q 2950 1147 3059 1487 
Q 3169 1828 3169 2138 
z
M 1381 2969 
Q 1594 3256 1914 3420 
Q 2234 3584 2584 3584 
Q 3122 3584 3439 3221 
Q 3756 2859 3756 2241 
Q 3756 1734 3570 1259 
Q 3384 784 3041 416 
Q 2816 172 2522 40 
Q 2228 -91 1906 -91 
Q 1566 -91 1316 65 
Q 1066 222 909 531 
L 806 0 
L 231 0 
L 1178 4863 
L 1753 4863 
L 1381 2969 
z
" transform="scale(0.015625)"/>
     </defs>
     <use xlink:href="#DejaVuSans-Oblique-52" transform="translate(0 0.09375)"/>
     <use xlink:href="#DejaVuSans-Oblique-62" transform="translate(69.482422 -16.3125) scale(0.7)"/>
    </g>
   </g>
   <g id="text_16">
    <!-- $V_{dc}$ -->
    <g transform="translate(377.59 134.568437) scale(0.14 -0.14)">
     <defs>
      <path id="DejaVuSans-Oblique-56" d="M 1319 0 
L 500 4666 
L 1119 4666 
L 1797 653 
L 4063 4666 
L 4750 4666 
L 2053 0 
L 1319 0 
z
" transform="scale(0.015625)"/>
      <path id="DejaVuSans-Oblique-64" d="M 2675 525 
Q 2444 222 2128 65 
Q 1813 -91 1428 -91 
Q 903 -91 598 267 
Q 294 625 294 1247 
Q 294 1766 478 2236 
Q 663 2706 1013 3078 
Q 1244 3325 1534 3454 
Q 1825 3584 2144 3584 
Q 2481 3584 2739 3421 
Q 2997 3259 3138 2956 
L 3513 4863 
L 4091 4863 
L 3144 0 
L 2566 0 
L 2675 525 
z
M 891 1350 
Q 891 897 1095 644 
Q 1300 391 1663 391 
Q 1931 391 2161 520 
Q 2391 650 2566 903 
Q 2750 1166 2856 1509 
Q 2963 1853 2963 2188 
Q 2963 2622 2758 2865 
Q 2553 3109 2194 3109 
Q 1922 3109 1687 2981 
Q 1453 2853 1288 2613 
Q 1106 2353 998 2009 
Q 891 1666 891 1350 
z
" transform="scale(0.015625)"/>
      <path id="DejaVuSans-Oblique-63" d="M 3431 3366 
L 3316 2797 
Q 3109 2947 2876 3022 
Q 2644 3097 2394 3097 
Q 2119 3097 1870 3000 
Q 1622 2903 1453 2725 
Q 1184 2453 1037 2087 
Q 891 1722 891 1331 
Q 891 859 1127 628 
Q 1363 397 1844 397 
Q 2081 397 2348 469 
Q 2616 541 2906 684 
L 2797 116 
Q 2547 13 2283 -39 
Q 2019 -91 1741 -91 
Q 1044 -91 669 257 
Q 294 606 294 1253 
Q 294 1797 489 2255 
Q 684 2713 1069 3078 
Q 1331 3328 1684 3456 
Q 2038 3584 2456 3584 
Q 2700 3584 2940 3529 
Q 3181 3475 3431 3366 
z
" transform="scale(0.015625)"/>
     </defs>
     <use xlink:href="#DejaVuSans-Oblique-56" transform="translate(0 0.09375)"/>
     <use xlink:href="#DejaVuSans-Oblique-64" transform="translate(68.408203 -16.3125) scale(0.7)"/>
     <use xlink:href="#DejaVuSans-Oblique-63" transform="translate(112.841797 -16.3125) scale(0.7)"/>
    </g>
   </g>
   <g id="patch_15">
    <path d="M 58.68 55.58 
C 59.396048 55.58 60.082866 55.295511 60.589188 54.789188 
C 61.095511 54.282866 61.38 53.596048 61.38 52.88 
C 61.38 52.163952 61.095511 51.477134 60.589188 50.970812 
C 60.082866 50.464489 59.396048 50.18 58.68 50.18 
C 57.963952 50.18 57.277134 50.464489 56.770812 50.970812 
C 56.264489 51.477134 55.98 52.163952 55.98 52.88 
C 55.98 53.596048 56.264489 54.282866 56.770812 54.789188 
C 57.277134 55.295511 57.963952 55.58 58.68 55.58 
z
" clip-path="url(#p1c3333a80e)" style="stroke: #000000; stroke-width: 2; stroke-linejoin: miter"/>
   </g>
   <g id="patch_16">
    <path d="M 173.16 41.18 
C 173.876048 41.18 174.562866 40.895511 175.069188 40.389188 
C 175.575511 39.882866 175.86 39.196048 175.86 38.48 
C 175.86 37.763952 175.575511 37.077134 175.069188 36.570812 
C 174.562866 36.064489 173.876048 35.78 173.16 35.78 
C 172.443952 35.78 171.757134 36.064489 171.250812 36.570812 
C 170.744489 37.077134 170.46 37.763952 170.46 38.48 
C 170.46 39.196048 170.744489 39.882866 171.250812 40.389188 
C 171.757134 40.895511 172.443952 41.18 173.16 41.18 
z
" clip-path="url(#p1c3333a80e)" style="stroke: #000000; stroke-width: 2; stroke-linejoin: miter"/>
   </g>
   <g id="line2d_30">
    <path d="M 173.16 61.88 
L 173.16 61.88 
" clip-path="url(#p1c3333a80e)" style="fill: none; stroke: #000000; stroke-width: 2; stroke-linecap: round"/>
   </g>
   <g id="patch_17">
    <path d="M 178.56 61.88 
L 173.16 72.68 
L 167.76 61.88 
z
" clip-path="url(#p1c3333a80e)"/>
   </g>
   <g id="text_17">
    <!-- $i_L$ -->
    <g transform="translate(152.56 71.143125) scale(0.14 -0.14)">
     <defs>
      <path id="DejaVuSans-Oblique-69" d="M 1172 4863 
L 1747 4863 
L 1606 4134 
L 1031 4134 
L 1172 4863 
z
M 909 3500 
L 1484 3500 
L 800 0 
L 225 0 
L 909 3500 
z
" transform="scale(0.015625)"/>
     </defs>
     <use xlink:href="#DejaVuSans-Oblique-69" transform="translate(0 0.015625)"/>
     <use xlink:href="#DejaVuSans-Oblique-4c" transform="translate(27.783203 -16.390625) scale(0.7)"/>
    </g>
   </g>
   <g id="patch_18">
    <path d="M 245.16 41.18 
C 245.876048 41.18 246.562866 40.895511 247.069188 40.389188 
C 247.575511 39.882866 247.86 39.196048 247.86 38.48 
C 247.86 37.763952 247.575511 37.077134 247.069188 36.570812 
C 246.562866 36.064489 245.876048 35.78 245.16 35.78 
C 244.443952 35.78 243.757134 36.064489 243.250812 36.570812 
C 242.744489 37.077134 242.46 37.763952 242.46 38.48 
C 242.46 39.196048 242.744489 39.882866 243.250812 40.389188 
C 243.757134 40.895511 244.443952 41.18 245.16 41.18 
z
" clip-path="url(#p1c3333a80e)" style="stroke: #000000; stroke-width: 2; stroke-linejoin: miter"/>
   </g>
   <g id="patch_19">
    <path d="M 173.16 167.18 
C 173.876048 167.18 174.562866 166.895511 175.069188 166.389188 
C 175.575511 165.882866 175.86 165.196048 175.86 164.48 
C 175.86 163.763952 175.575511 163.077134 175.069188 162.570812 
C 174.562866 162.064489 173.876048 161.78 173.16 161.78 
C 172.443952 161.78 171.757134 162.064489 171.250812 162.570812 
C 170.744489 163.077134 170.46 163.763952 170.46 164.48 
C 170.46 165.196048 170.744489 165.882866 171.250812 166.389188 
C 171.757134 166.895511 172.443952 167.18 173.16 167.18 
z
" clip-path="url(#p1c3333a80e)" style="stroke: #000000; stroke-width: 2; stroke-linejoin: miter"/>
   </g>
   <g id="patch_20">
    <path d="M 245.16 167.18 
C 245.876048 167.18 246.562866 166.895511 247.069188 166.389188 
C 247.575511 165.882866 247.86 165.196048 247.86 164.48 
C 247.86 163.763952 247.575511 163.077134 247.069188 162.570812 
C 246.562866 162.064489 245.876048 161.78 245.16 161.78 
C 244.443952 161.78 243.757134 162.064489 243.250812 162.570812 
C 242.744489 163.077134 242.46 163.763952 242.46 164.48 
C 242.46 165.196048 242.744489 165.882866 243.250812 166.389188 
C 243.757134 166.895511 244.443952 167.18 245.16 167.18 
z
" clip-path="url(#p1c3333a80e)" style="stroke: #000000; stroke-width: 2; stroke-linejoin: miter"/>
   </g>
   <g id="patch_21">
    <path d="M 359.64 26.78 
C 360.356048 26.78 361.042866 26.495511 361.549188 25.989188 
C 362.055511 25.482866 362.34 24.796048 362.34 24.08 
C 362.34 23.363952 362.055511 22.677134 361.549188 22.170812 
C 361.042866 21.664489 360.356048 21.38 359.64 21.38 
C 358.923952 21.38 358.237134 21.664489 357.730812 22.170812 
C 357.224489 22.677134 356.94 23.363952 356.94 24.08 
C 356.94 24.796048 357.224489 25.482866 357.730812 25.989188 
C 358.237134 26.495511 358.923952 26.78 359.64 26.78 
z
" clip-path="url(#p1c3333a80e)" style="stroke: #000000; stroke-width: 2; stroke-linejoin: miter"/>
   </g>
   <g id="patch_22">
    <path d="M 359.64 152.78 
C 360.356048 152.78 361.042866 152.495511 361.549188 151.989188 
C 362.055511 151.482866 362.34 150.796048 362.34 150.08 
C 362.34 149.363952 362.055511 148.677134 361.549188 148.170812 
C 361.042866 147.664489 360.356048 147.38 359.64 147.38 
C 358.923952 147.38 358.237134 147.664489 357.730812 148.170812 
C 357.224489 148.677134 356.94 149.363952 356.94 150.08 
C 356.94 150.796048 357.224489 151.482866 357.730812 151.989188 
C 358.237134 152.495511 358.923952 152.78 359.64 152.78 
z
" clip-path="url(#p1c3333a80e)" style="stroke: #000000; stroke-width: 2; stroke-linejoin: miter"/>
   </g>
  </g>
 </g>
 <defs>
  <clipPath id="p1c3333a80e">
   <rect x="0" y="0" width="411.12" height="273.56"/>
  </clipPath>
 </defs>
</svg>
