<?xml version="1.0" encoding="UTF-8"?>
<svg xmlns="http://www.w3.org/2000/svg" xmlns:xlink="http://www.w3.org/1999/xlink" width="567.919" height="163.211" viewBox="0 0 567.919 163.211">
<defs>
<g>
<g id="glyph-0-0">
<path d="M 3.734375 -6.046875 C 3.8125 -6.40625 3.84375 -6.5 4.640625 -6.5 C 4.875 -6.5 4.953125 -6.5 4.953125 -6.6875 C 4.953125 -6.8125 4.84375 -6.8125 4.8125 -6.8125 C 4.515625 -6.8125 3.78125 -6.78125 3.484375 -6.78125 C 3.1875 -6.78125 2.46875 -6.8125 2.15625 -6.8125 C 2.09375 -6.8125 1.96875 -6.8125 1.96875 -6.609375 C 1.96875 -6.5 2.046875 -6.5 2.25 -6.5 C 2.65625 -6.5 2.9375 -6.5 2.9375 -6.3125 C 2.9375 -6.265625 2.9375 -6.234375 2.90625 -6.15625 L 1.5625 -0.78125 C 1.46875 -0.40625 1.453125 -0.3125 0.65625 -0.3125 C 0.421875 -0.3125 0.34375 -0.3125 0.34375 -0.109375 C 0.34375 0 0.453125 0 0.484375 0 C 0.78125 0 1.5 -0.03125 1.796875 -0.03125 C 2.09375 -0.03125 2.828125 0 3.125 0 C 3.203125 0 3.328125 0 3.328125 -0.1875 C 3.328125 -0.3125 3.25 -0.3125 3.03125 -0.3125 C 2.84375 -0.3125 2.796875 -0.3125 2.609375 -0.328125 C 2.390625 -0.34375 2.359375 -0.390625 2.359375 -0.5 C 2.359375 -0.578125 2.375 -0.65625 2.390625 -0.734375 Z M 3.734375 -6.046875 "/>
</g>
<g id="glyph-0-1">
<path d="M 3.734375 -6.125 C 3.796875 -6.359375 3.828125 -6.453125 4.015625 -6.484375 C 4.109375 -6.5 4.421875 -6.5 4.625 -6.5 C 5.328125 -6.5 6.4375 -6.5 6.4375 -5.515625 C 6.4375 -5.171875 6.28125 -4.484375 5.890625 -4.09375 C 5.625 -3.84375 5.109375 -3.515625 4.203125 -3.515625 L 3.09375 -3.515625 Z M 5.171875 -3.390625 C 6.1875 -3.609375 7.359375 -4.3125 7.359375 -5.3125 C 7.359375 -6.171875 6.46875 -6.8125 5.15625 -6.8125 L 2.328125 -6.8125 C 2.125 -6.8125 2.03125 -6.8125 2.03125 -6.609375 C 2.03125 -6.5 2.125 -6.5 2.3125 -6.5 C 2.328125 -6.5 2.515625 -6.5 2.6875 -6.484375 C 2.875 -6.453125 2.953125 -6.453125 2.953125 -6.3125 C 2.953125 -6.28125 2.953125 -6.25 2.921875 -6.125 L 1.578125 -0.78125 C 1.484375 -0.390625 1.46875 -0.3125 0.671875 -0.3125 C 0.5 -0.3125 0.40625 -0.3125 0.40625 -0.109375 C 0.40625 0 0.53125 0 0.546875 0 C 0.828125 0 1.53125 -0.03125 1.796875 -0.03125 C 2.078125 -0.03125 2.796875 0 3.078125 0 C 3.15625 0 3.265625 0 3.265625 -0.203125 C 3.265625 -0.3125 3.1875 -0.3125 2.984375 -0.3125 C 2.625 -0.3125 2.34375 -0.3125 2.34375 -0.484375 C 2.34375 -0.546875 2.359375 -0.59375 2.375 -0.65625 L 3.03125 -3.296875 L 4.21875 -3.296875 C 5.125 -3.296875 5.296875 -2.734375 5.296875 -2.390625 C 5.296875 -2.25 5.21875 -1.9375 5.15625 -1.703125 C 5.09375 -1.421875 5 -1.0625 5 -0.859375 C 5 0.21875 6.203125 0.21875 6.328125 0.21875 C 7.171875 0.21875 7.53125 -0.78125 7.53125 -0.921875 C 7.53125 -1.046875 7.421875 -1.046875 7.40625 -1.046875 C 7.3125 -1.046875 7.296875 -0.984375 7.28125 -0.90625 C 7.03125 -0.171875 6.59375 0 6.375 0 C 6.046875 0 5.96875 -0.21875 5.96875 -0.609375 C 5.96875 -0.921875 6.03125 -1.421875 6.078125 -1.75 C 6.09375 -1.890625 6.109375 -2.078125 6.109375 -2.21875 C 6.109375 -2.984375 5.4375 -3.296875 5.171875 -3.390625 Z M 5.171875 -3.390625 "/>
</g>
<g id="glyph-0-2">
<path d="M 2.046875 -3.984375 L 2.984375 -3.984375 C 3.1875 -3.984375 3.296875 -3.984375 3.296875 -4.1875 C 3.296875 -4.296875 3.1875 -4.296875 3.015625 -4.296875 L 2.140625 -4.296875 C 2.5 -5.71875 2.546875 -5.90625 2.546875 -5.96875 C 2.546875 -6.140625 2.421875 -6.234375 2.25 -6.234375 C 2.21875 -6.234375 1.9375 -6.234375 1.859375 -5.875 L 1.46875 -4.296875 L 0.53125 -4.296875 C 0.328125 -4.296875 0.234375 -4.296875 0.234375 -4.109375 C 0.234375 -3.984375 0.3125 -3.984375 0.515625 -3.984375 L 1.390625 -3.984375 C 0.671875 -1.15625 0.625 -0.984375 0.625 -0.8125 C 0.625 -0.265625 1 0.109375 1.546875 0.109375 C 2.5625 0.109375 3.125 -1.34375 3.125 -1.421875 C 3.125 -1.53125 3.046875 -1.53125 3.015625 -1.53125 C 2.921875 -1.53125 2.90625 -1.5 2.859375 -1.390625 C 2.4375 -0.34375 1.90625 -0.109375 1.5625 -0.109375 C 1.359375 -0.109375 1.25 -0.234375 1.25 -0.5625 C 1.25 -0.8125 1.28125 -0.875 1.3125 -1.046875 Z M 2.046875 -3.984375 "/>
</g>
<g id="glyph-0-3">
<path d="M 3.734375 -6.03125 C 3.8125 -6.390625 3.84375 -6.5 4.78125 -6.5 C 5.078125 -6.5 5.15625 -6.5 5.15625 -6.6875 C 5.15625 -6.8125 5.046875 -6.8125 5 -6.8125 C 4.671875 -6.8125 3.859375 -6.78125 3.53125 -6.78125 C 3.234375 -6.78125 2.5 -6.8125 2.203125 -6.8125 C 2.140625 -6.8125 2.015625 -6.8125 2.015625 -6.609375 C 2.015625 -6.5 2.109375 -6.5 2.296875 -6.5 C 2.3125 -6.5 2.5 -6.5 2.671875 -6.484375 C 2.84375 -6.453125 2.9375 -6.453125 2.9375 -6.3125 C 2.9375 -6.28125 2.9375 -6.25 2.90625 -6.125 L 1.5625 -0.78125 C 1.46875 -0.390625 1.453125 -0.3125 0.65625 -0.3125 C 0.484375 -0.3125 0.390625 -0.3125 0.390625 -0.109375 C 0.390625 0 0.484375 0 0.65625 0 L 5.28125 0 C 5.515625 0 5.515625 0 5.578125 -0.171875 L 6.375 -2.328125 C 6.40625 -2.4375 6.40625 -2.453125 6.40625 -2.46875 C 6.40625 -2.5 6.375 -2.578125 6.296875 -2.578125 C 6.203125 -2.578125 6.1875 -2.515625 6.125 -2.359375 C 5.78125 -1.453125 5.34375 -0.3125 3.625 -0.3125 L 2.6875 -0.3125 C 2.546875 -0.3125 2.515625 -0.3125 2.46875 -0.3125 C 2.359375 -0.328125 2.328125 -0.34375 2.328125 -0.421875 C 2.328125 -0.453125 2.328125 -0.46875 2.375 -0.640625 Z M 3.734375 -6.03125 "/>
</g>
<g id="glyph-0-4">
<path d="M 4.671875 -3.703125 C 4.671875 -4.25 4.40625 -4.40625 4.234375 -4.40625 C 3.984375 -4.40625 3.734375 -4.140625 3.734375 -3.921875 C 3.734375 -3.796875 3.78125 -3.734375 3.890625 -3.625 C 4.109375 -3.421875 4.234375 -3.171875 4.234375 -2.8125 C 4.234375 -2.390625 3.625 -0.109375 2.46875 -0.109375 C 1.953125 -0.109375 1.71875 -0.453125 1.71875 -0.984375 C 1.71875 -1.53125 2 -2.265625 2.296875 -3.09375 C 2.375 -3.265625 2.421875 -3.40625 2.421875 -3.59375 C 2.421875 -4.03125 2.109375 -4.40625 1.609375 -4.40625 C 0.671875 -4.40625 0.296875 -2.953125 0.296875 -2.875 C 0.296875 -2.765625 0.390625 -2.765625 0.40625 -2.765625 C 0.515625 -2.765625 0.515625 -2.796875 0.5625 -2.953125 C 0.859375 -3.953125 1.28125 -4.1875 1.578125 -4.1875 C 1.65625 -4.1875 1.828125 -4.1875 1.828125 -3.875 C 1.828125 -3.625 1.71875 -3.34375 1.65625 -3.171875 C 1.21875 -2.015625 1.09375 -1.5625 1.09375 -1.125 C 1.09375 -0.046875 1.96875 0.109375 2.421875 0.109375 C 4.09375 0.109375 4.671875 -3.1875 4.671875 -3.703125 Z M 4.671875 -3.703125 "/>
</g>
<g id="glyph-0-5">
<path d="M 7.578125 -6.921875 C 7.578125 -6.953125 7.5625 -7.03125 7.46875 -7.03125 C 7.4375 -7.03125 7.421875 -7.015625 7.3125 -6.90625 L 6.625 -6.140625 C 6.53125 -6.28125 6.078125 -7.03125 4.96875 -7.03125 C 2.734375 -7.03125 0.5 -4.828125 0.5 -2.515625 C 0.5 -0.875 1.671875 0.21875 3.203125 0.21875 C 4.0625 0.21875 4.828125 -0.171875 5.359375 -0.640625 C 6.28125 -1.453125 6.453125 -2.359375 6.453125 -2.390625 C 6.453125 -2.5 6.34375 -2.5 6.328125 -2.5 C 6.265625 -2.5 6.21875 -2.46875 6.203125 -2.390625 C 6.109375 -2.109375 5.875 -1.390625 5.1875 -0.8125 C 4.5 -0.265625 3.875 -0.09375 3.359375 -0.09375 C 2.46875 -0.09375 1.40625 -0.609375 1.40625 -2.15625 C 1.40625 -2.734375 1.609375 -4.34375 2.609375 -5.515625 C 3.21875 -6.21875 4.15625 -6.71875 5.046875 -6.71875 C 6.0625 -6.71875 6.65625 -5.953125 6.65625 -4.796875 C 6.65625 -4.390625 6.625 -4.390625 6.625 -4.28125 C 6.625 -4.1875 6.734375 -4.1875 6.765625 -4.1875 C 6.890625 -4.1875 6.890625 -4.203125 6.953125 -4.390625 Z M 7.578125 -6.921875 "/>
</g>
<g id="glyph-0-6">
<path d="M 6.265625 -5.671875 C 6.75 -6.453125 7.171875 -6.484375 7.53125 -6.5 C 7.65625 -6.515625 7.671875 -6.671875 7.671875 -6.6875 C 7.671875 -6.765625 7.609375 -6.8125 7.53125 -6.8125 C 7.28125 -6.8125 6.984375 -6.78125 6.71875 -6.78125 C 6.390625 -6.78125 6.046875 -6.8125 5.734375 -6.8125 C 5.671875 -6.8125 5.546875 -6.8125 5.546875 -6.625 C 5.546875 -6.515625 5.625 -6.5 5.703125 -6.5 C 5.96875 -6.484375 6.15625 -6.375 6.15625 -6.171875 C 6.15625 -6.015625 6.015625 -5.796875 6.015625 -5.796875 L 2.953125 -0.921875 L 2.265625 -6.203125 C 2.265625 -6.375 2.5 -6.5 2.953125 -6.5 C 3.09375 -6.5 3.203125 -6.5 3.203125 -6.703125 C 3.203125 -6.78125 3.125 -6.8125 3.078125 -6.8125 C 2.671875 -6.8125 2.25 -6.78125 1.828125 -6.78125 C 1.65625 -6.78125 1.46875 -6.78125 1.28125 -6.78125 C 1.109375 -6.78125 0.921875 -6.8125 0.75 -6.8125 C 0.671875 -6.8125 0.5625 -6.8125 0.5625 -6.625 C 0.5625 -6.5 0.640625 -6.5 0.8125 -6.5 C 1.359375 -6.5 1.375 -6.40625 1.40625 -6.15625 L 2.1875 -0.015625 C 2.21875 0.1875 2.265625 0.21875 2.390625 0.21875 C 2.546875 0.21875 2.59375 0.171875 2.671875 0.046875 Z M 6.265625 -5.671875 "/>
</g>
<g id="glyph-1-0">
<path d="M 3 -2.625 C 2.828125 -2.578125 2.703125 -2.4375 2.703125 -2.296875 C 2.703125 -2.125 2.84375 -2.0625 2.9375 -2.0625 C 3.015625 -2.0625 3.28125 -2.109375 3.28125 -2.46875 C 3.28125 -2.921875 2.78125 -3.078125 2.34375 -3.078125 C 1.265625 -3.078125 1.0625 -2.265625 1.0625 -2.0625 C 1.0625 -1.796875 1.21875 -1.625 1.3125 -1.546875 C 1.484375 -1.40625 1.609375 -1.375 2.09375 -1.296875 C 2.25 -1.265625 2.6875 -1.1875 2.6875 -0.84375 C 2.6875 -0.71875 2.609375 -0.453125 2.328125 -0.28125 C 2.046875 -0.125 1.703125 -0.125 1.625 -0.125 C 1.34375 -0.125 0.953125 -0.1875 0.78125 -0.421875 C 1.015625 -0.453125 1.171875 -0.625 1.171875 -0.8125 C 1.171875 -0.984375 1.046875 -1.078125 0.90625 -1.078125 C 0.703125 -1.078125 0.5 -0.90625 0.5 -0.609375 C 0.5 -0.1875 0.9375 0.0625 1.609375 0.0625 C 2.90625 0.0625 3.140625 -0.8125 3.140625 -1.078125 C 3.140625 -1.71875 2.4375 -1.84375 2.171875 -1.890625 C 2.109375 -1.90625 1.9375 -1.9375 1.890625 -1.953125 C 1.640625 -2 1.515625 -2.140625 1.515625 -2.296875 C 1.515625 -2.453125 1.640625 -2.640625 1.796875 -2.75 C 1.984375 -2.859375 2.21875 -2.875 2.34375 -2.875 C 2.484375 -2.875 2.84375 -2.859375 3 -2.625 Z M 3 -2.625 "/>
</g>
<g id="glyph-1-1">
<path d="M 2.9375 -2.65625 C 2.796875 -2.890625 2.5625 -3.078125 2.21875 -3.078125 C 1.328125 -3.078125 0.421875 -2.09375 0.421875 -1.09375 C 0.421875 -0.40625 0.875 0.0625 1.484375 0.0625 C 1.859375 0.0625 2.1875 -0.140625 2.46875 -0.421875 C 2.59375 0 3 0.0625 3.1875 0.0625 C 3.4375 0.0625 3.609375 -0.078125 3.734375 -0.296875 C 3.890625 -0.578125 3.984375 -0.96875 3.984375 -1 C 3.984375 -1.09375 3.890625 -1.09375 3.875 -1.09375 C 3.765625 -1.09375 3.765625 -1.0625 3.71875 -0.875 C 3.625 -0.53125 3.5 -0.125 3.203125 -0.125 C 3.03125 -0.125 2.96875 -0.28125 2.96875 -0.46875 C 2.96875 -0.578125 3.03125 -0.84375 3.078125 -1.015625 C 3.125 -1.203125 3.203125 -1.484375 3.234375 -1.640625 L 3.375 -2.171875 C 3.421875 -2.359375 3.5 -2.6875 3.5 -2.71875 C 3.5 -2.875 3.375 -2.9375 3.265625 -2.9375 C 3.140625 -2.9375 2.984375 -2.859375 2.9375 -2.65625 Z M 2.5 -0.875 C 2.453125 -0.671875 2.296875 -0.53125 2.140625 -0.40625 C 2.078125 -0.34375 1.796875 -0.125 1.5 -0.125 C 1.234375 -0.125 0.984375 -0.3125 0.984375 -0.796875 C 0.984375 -1.171875 1.1875 -1.9375 1.359375 -2.21875 C 1.671875 -2.78125 2.03125 -2.875 2.21875 -2.875 C 2.703125 -2.875 2.84375 -2.34375 2.84375 -2.265625 C 2.84375 -2.25 2.828125 -2.1875 2.828125 -2.171875 Z M 2.5 -0.875 "/>
</g>
<g id="glyph-1-2">
<path d="M 3.703125 -1.859375 C 3.703125 -2.625 3.125 -3.078125 2.4375 -3.078125 C 1.40625 -3.078125 0.4375 -2.109375 0.4375 -1.15625 C 0.4375 -0.453125 0.9375 0.0625 1.703125 0.0625 C 2.703125 0.0625 3.703125 -0.84375 3.703125 -1.859375 Z M 1.703125 -0.125 C 1.359375 -0.125 1.015625 -0.34375 1.015625 -0.90625 C 1.015625 -1.1875 1.140625 -1.875 1.421875 -2.265625 C 1.71875 -2.703125 2.125 -2.875 2.4375 -2.875 C 2.8125 -2.875 3.125 -2.625 3.125 -2.109375 C 3.125 -1.9375 3.046875 -1.25 2.734375 -0.765625 C 2.46875 -0.34375 2.0625 -0.125 1.703125 -0.125 Z M 1.703125 -0.125 "/>
</g>
<g id="glyph-1-3">
<path d="M 1.84375 -4.625 C 1.84375 -4.640625 1.875 -4.734375 1.875 -4.734375 C 1.875 -4.78125 1.84375 -4.84375 1.75 -4.84375 C 1.609375 -4.84375 1.03125 -4.78125 0.859375 -4.765625 C 0.8125 -4.765625 0.703125 -4.75 0.703125 -4.609375 C 0.703125 -4.515625 0.8125 -4.515625 0.890625 -4.515625 C 1.21875 -4.515625 1.21875 -4.453125 1.21875 -4.40625 C 1.21875 -4.359375 1.15625 -4.078125 1.109375 -3.921875 L 0.953125 -3.28125 C 0.890625 -3.03125 0.515625 -1.515625 0.5 -1.421875 C 0.453125 -1.25 0.453125 -1.15625 0.453125 -1.078125 C 0.453125 -0.375 0.90625 0.0625 1.484375 0.0625 C 2.359375 0.0625 3.28125 -0.875 3.28125 -1.90625 C 3.28125 -2.71875 2.71875 -3.078125 2.234375 -3.078125 C 1.875 -3.078125 1.5625 -2.875 1.359375 -2.6875 Z M 1.484375 -0.125 C 1.15625 -0.125 0.953125 -0.421875 0.953125 -0.84375 C 0.953125 -1.09375 1.015625 -1.328125 1.21875 -2.125 C 1.25 -2.25 1.25 -2.265625 1.390625 -2.421875 C 1.65625 -2.71875 1.96875 -2.875 2.21875 -2.875 C 2.484375 -2.875 2.71875 -2.671875 2.71875 -2.203125 C 2.71875 -1.921875 2.578125 -1.203125 2.359375 -0.796875 C 2.1875 -0.453125 1.84375 -0.125 1.484375 -0.125 Z M 1.484375 -0.125 "/>
</g>
<g id="glyph-1-4">
<path d="M 3.984375 -4.625 C 3.984375 -4.640625 4 -4.734375 4 -4.734375 C 4 -4.78125 3.984375 -4.84375 3.890625 -4.84375 C 3.75 -4.84375 3.171875 -4.78125 3 -4.765625 C 2.953125 -4.765625 2.84375 -4.75 2.84375 -4.609375 C 2.84375 -4.515625 2.953125 -4.515625 3.03125 -4.515625 C 3.359375 -4.515625 3.359375 -4.453125 3.359375 -4.40625 C 3.359375 -4.359375 3.359375 -4.3125 3.34375 -4.25 L 2.9375 -2.65625 C 2.796875 -2.890625 2.5625 -3.078125 2.21875 -3.078125 C 1.328125 -3.078125 0.421875 -2.09375 0.421875 -1.09375 C 0.421875 -0.40625 0.875 0.0625 1.484375 0.0625 C 1.859375 0.0625 2.1875 -0.140625 2.46875 -0.421875 C 2.59375 0 3 0.0625 3.1875 0.0625 C 3.4375 0.0625 3.609375 -0.078125 3.734375 -0.296875 C 3.890625 -0.578125 3.984375 -0.96875 3.984375 -1 C 3.984375 -1.09375 3.890625 -1.09375 3.875 -1.09375 C 3.765625 -1.09375 3.765625 -1.0625 3.71875 -0.875 C 3.625 -0.53125 3.5 -0.125 3.203125 -0.125 C 3.03125 -0.125 2.96875 -0.28125 2.96875 -0.46875 C 2.96875 -0.59375 2.984375 -0.65625 3.015625 -0.75 Z M 2.5 -0.875 C 2.453125 -0.671875 2.296875 -0.53125 2.140625 -0.40625 C 2.078125 -0.34375 1.796875 -0.125 1.5 -0.125 C 1.234375 -0.125 0.984375 -0.3125 0.984375 -0.796875 C 0.984375 -1.171875 1.1875 -1.9375 1.359375 -2.21875 C 1.671875 -2.78125 2.03125 -2.875 2.21875 -2.875 C 2.703125 -2.875 2.84375 -2.34375 2.84375 -2.265625 C 2.84375 -2.25 2.828125 -2.1875 2.828125 -2.171875 Z M 2.5 -0.875 "/>
</g>
<g id="glyph-1-5">
<path d="M 3.046875 -2.671875 C 2.796875 -2.625 2.703125 -2.4375 2.703125 -2.28125 C 2.703125 -2.09375 2.84375 -2.015625 2.96875 -2.015625 C 3.125 -2.015625 3.359375 -2.125 3.359375 -2.46875 C 3.359375 -2.9375 2.828125 -3.078125 2.453125 -3.078125 C 1.40625 -3.078125 0.4375 -2.109375 0.4375 -1.140625 C 0.4375 -0.546875 0.84375 0.0625 1.71875 0.0625 C 2.90625 0.0625 3.453125 -0.625 3.453125 -0.71875 C 3.453125 -0.765625 3.390625 -0.84375 3.328125 -0.84375 C 3.296875 -0.84375 3.28125 -0.828125 3.21875 -0.765625 C 2.671875 -0.125 1.859375 -0.125 1.734375 -0.125 C 1.234375 -0.125 1.015625 -0.46875 1.015625 -0.90625 C 1.015625 -1.09375 1.109375 -1.859375 1.46875 -2.34375 C 1.734375 -2.6875 2.09375 -2.875 2.453125 -2.875 C 2.546875 -2.875 2.875 -2.859375 3.046875 -2.671875 Z M 3.046875 -2.671875 "/>
</g>
<g id="glyph-2-0">
<path d="M 6.84375 -3.265625 C 7 -3.265625 7.1875 -3.265625 7.1875 -3.453125 C 7.1875 -3.65625 7 -3.65625 6.859375 -3.65625 L 0.890625 -3.65625 C 0.75 -3.65625 0.5625 -3.65625 0.5625 -3.453125 C 0.5625 -3.265625 0.75 -3.265625 0.890625 -3.265625 Z M 6.859375 -1.328125 C 7 -1.328125 7.1875 -1.328125 7.1875 -1.53125 C 7.1875 -1.71875 7 -1.71875 6.84375 -1.71875 L 0.890625 -1.71875 C 0.75 -1.71875 0.5625 -1.71875 0.5625 -1.53125 C 0.5625 -1.328125 0.75 -1.328125 0.890625 -1.328125 Z M 6.859375 -1.328125 "/>
</g>
<g id="glyph-2-1">
<path d="M 4.578125 -3.1875 C 4.578125 -3.984375 4.53125 -4.78125 4.1875 -5.515625 C 3.734375 -6.484375 2.90625 -6.640625 2.5 -6.640625 C 1.890625 -6.640625 1.171875 -6.375 0.75 -5.453125 C 0.4375 -4.765625 0.390625 -3.984375 0.390625 -3.1875 C 0.390625 -2.4375 0.421875 -1.546875 0.84375 -0.78125 C 1.265625 0.015625 2 0.21875 2.484375 0.21875 C 3.015625 0.21875 3.78125 0.015625 4.21875 -0.9375 C 4.53125 -1.625 4.578125 -2.40625 4.578125 -3.1875 Z M 2.484375 0 C 2.09375 0 1.5 -0.25 1.328125 -1.203125 C 1.21875 -1.796875 1.21875 -2.71875 1.21875 -3.3125 C 1.21875 -3.953125 1.21875 -4.609375 1.296875 -5.140625 C 1.484375 -6.328125 2.234375 -6.421875 2.484375 -6.421875 C 2.8125 -6.421875 3.46875 -6.234375 3.65625 -5.25 C 3.765625 -4.6875 3.765625 -3.9375 3.765625 -3.3125 C 3.765625 -2.5625 3.765625 -1.890625 3.65625 -1.25 C 3.5 -0.296875 2.9375 0 2.484375 0 Z M 2.484375 0 "/>
</g>
<g id="glyph-2-2">
<path d="M 4.078125 -2.296875 L 6.859375 -2.296875 C 7 -2.296875 7.1875 -2.296875 7.1875 -2.5 C 7.1875 -2.6875 7 -2.6875 6.859375 -2.6875 L 4.078125 -2.6875 L 4.078125 -5.484375 C 4.078125 -5.625 4.078125 -5.8125 3.875 -5.8125 C 3.671875 -5.8125 3.671875 -5.625 3.671875 -5.484375 L 3.671875 -2.6875 L 0.890625 -2.6875 C 0.75 -2.6875 0.5625 -2.6875 0.5625 -2.5 C 0.5625 -2.296875 0.75 -2.296875 0.890625 -2.296875 L 3.671875 -2.296875 L 3.671875 0.5 C 3.671875 0.640625 3.671875 0.828125 3.875 0.828125 C 4.078125 0.828125 4.078125 0.640625 4.078125 0.5 Z M 4.078125 -2.296875 "/>
</g>
<g id="glyph-2-3">
<path d="M 3.296875 2.390625 C 3.296875 2.359375 3.296875 2.34375 3.125 2.171875 C 1.890625 0.921875 1.5625 -0.96875 1.5625 -2.5 C 1.5625 -4.234375 1.9375 -5.96875 3.171875 -7.203125 C 3.296875 -7.328125 3.296875 -7.34375 3.296875 -7.375 C 3.296875 -7.453125 3.265625 -7.484375 3.203125 -7.484375 C 3.09375 -7.484375 2.203125 -6.796875 1.609375 -5.53125 C 1.109375 -4.4375 0.984375 -3.328125 0.984375 -2.5 C 0.984375 -1.71875 1.09375 -0.515625 1.640625 0.625 C 2.25 1.84375 3.09375 2.5 3.203125 2.5 C 3.265625 2.5 3.296875 2.46875 3.296875 2.390625 Z M 3.296875 2.390625 "/>
</g>
<g id="glyph-2-4">
<path d="M 2.875 -2.5 C 2.875 -3.265625 2.765625 -4.46875 2.21875 -5.609375 C 1.625 -6.828125 0.765625 -7.484375 0.671875 -7.484375 C 0.609375 -7.484375 0.5625 -7.4375 0.5625 -7.375 C 0.5625 -7.34375 0.5625 -7.328125 0.75 -7.140625 C 1.734375 -6.15625 2.296875 -4.578125 2.296875 -2.5 C 2.296875 -0.78125 1.9375 0.96875 0.703125 2.21875 C 0.5625 2.34375 0.5625 2.359375 0.5625 2.390625 C 0.5625 2.453125 0.609375 2.5 0.671875 2.5 C 0.765625 2.5 1.671875 1.8125 2.25 0.546875 C 2.765625 -0.546875 2.875 -1.65625 2.875 -2.5 Z M 2.875 -2.5 "/>
</g>
<g id="glyph-3-0">
<path d="M 2.703125 -7.484375 C 2.375 -7.171875 1.71875 -6.5625 1.25 -5.34375 C 0.859375 -4.28125 0.78125 -3.21875 0.78125 -2.5 C 0.78125 0.734375 2.21875 2.046875 2.703125 2.5 L 3.3125 2.5 C 2.828125 2.015625 1.5625 0.734375 1.5625 -2.5 C 1.5625 -3.046875 1.59375 -4.21875 2 -5.390625 C 2.40625 -6.546875 2.984375 -7.140625 3.3125 -7.484375 Z M 2.703125 -7.484375 "/>
</g>
<g id="glyph-3-1">
<path d="M 4.671875 -2.1875 C 4.671875 -3.53125 3.671875 -4.59375 2.5 -4.59375 C 1.265625 -4.59375 0.296875 -3.5 0.296875 -2.1875 C 0.296875 -0.875 1.3125 0.109375 2.484375 0.109375 C 3.671875 0.109375 4.671875 -0.890625 4.671875 -2.1875 Z M 2.484375 -0.53125 C 1.796875 -0.53125 1.078125 -1.09375 1.078125 -2.296875 C 1.078125 -3.5 1.828125 -3.984375 2.484375 -3.984375 C 3.1875 -3.984375 3.890625 -3.46875 3.890625 -2.296875 C 3.890625 -1.109375 3.21875 -0.53125 2.484375 -0.53125 Z M 2.484375 -0.53125 "/>
</g>
<g id="glyph-3-2">
<path d="M 1.59375 -0.453125 C 1.90625 -0.171875 2.34375 0.109375 2.9375 0.109375 C 3.90625 0.109375 4.78125 -0.875 4.78125 -2.21875 C 4.78125 -3.421875 4.15625 -4.53125 3.203125 -4.53125 C 2.609375 -4.53125 2.03125 -4.328125 1.5625 -3.9375 L 1.5625 -4.421875 L 0.8125 -4.421875 L 0.8125 1.9375 L 1.59375 1.9375 Z M 1.59375 -3.3125 C 1.828125 -3.671875 2.21875 -3.890625 2.65625 -3.890625 C 3.40625 -3.890625 4 -3.140625 4 -2.21875 C 4 -1.203125 3.296875 -0.5 2.546875 -0.5 C 2.15625 -0.5 1.890625 -0.703125 1.6875 -0.96875 C 1.59375 -1.109375 1.59375 -1.140625 1.59375 -1.3125 Z M 1.59375 -3.3125 "/>
</g>
<g id="glyph-3-3">
<path d="M 4.125 -2.1875 C 4.125 -2.515625 4.109375 -3.265625 3.734375 -3.875 C 3.3125 -4.484375 2.71875 -4.59375 2.359375 -4.59375 C 1.25 -4.59375 0.34375 -3.53125 0.34375 -2.25 C 0.34375 -0.9375 1.3125 0.109375 2.5 0.109375 C 3.125 0.109375 3.703125 -0.125 4.09375 -0.40625 L 4.03125 -1.0625 C 3.40625 -0.53125 2.734375 -0.5 2.515625 -0.5 C 1.71875 -0.5 1.078125 -1.203125 1.046875 -2.1875 Z M 1.09375 -2.734375 C 1.25 -3.484375 1.78125 -3.984375 2.359375 -3.984375 C 2.875 -3.984375 3.421875 -3.65625 3.5625 -2.734375 Z M 1.09375 -2.734375 "/>
</g>
<g id="glyph-3-4">
<path d="M 4.34375 -2.96875 C 4.34375 -3.625 4.1875 -4.53125 2.96875 -4.53125 C 2.078125 -4.53125 1.578125 -3.859375 1.53125 -3.78125 L 1.53125 -4.484375 L 0.8125 -4.484375 L 0.8125 0 L 1.578125 0 L 1.578125 -2.4375 C 1.578125 -3.09375 1.828125 -3.921875 2.59375 -3.921875 C 3.546875 -3.921875 3.5625 -3.21875 3.5625 -2.90625 L 3.5625 0 L 4.34375 0 Z M 4.34375 -2.96875 "/>
</g>
<g id="glyph-3-5">
<path d="M 3.421875 -4.28125 C 2.90625 -4.515625 2.5 -4.59375 1.984375 -4.59375 C 1.734375 -4.59375 0.328125 -4.59375 0.328125 -3.296875 C 0.328125 -2.796875 0.625 -2.484375 0.875 -2.296875 C 1.171875 -2.078125 1.390625 -2.03125 1.9375 -1.921875 C 2.296875 -1.859375 2.875 -1.734375 2.875 -1.203125 C 2.875 -0.515625 2.09375 -0.515625 1.9375 -0.515625 C 1.140625 -0.515625 0.578125 -0.890625 0.40625 -1 L 0.28125 -0.328125 C 0.59375 -0.171875 1.140625 0.109375 1.953125 0.109375 C 2.140625 0.109375 2.6875 0.109375 3.109375 -0.203125 C 3.421875 -0.453125 3.59375 -0.84375 3.59375 -1.28125 C 3.59375 -1.828125 3.21875 -2.15625 3.203125 -2.1875 C 2.8125 -2.546875 2.546875 -2.609375 2.046875 -2.6875 C 1.5 -2.796875 1.03125 -2.90625 1.03125 -3.390625 C 1.03125 -4 1.75 -4 1.890625 -4 C 2.203125 -4 2.734375 -3.96875 3.296875 -3.625 Z M 3.421875 -4.28125 "/>
</g>
<g id="glyph-3-6">
<path d="M 1.171875 2.5 C 1.484375 2.1875 2.15625 1.578125 2.609375 0.359375 C 3.015625 -0.703125 3.078125 -1.765625 3.078125 -2.5 C 3.078125 -5.71875 1.640625 -7.03125 1.171875 -7.484375 L 0.5625 -7.484375 C 1.03125 -7 2.296875 -5.71875 2.296875 -2.5 C 2.296875 -1.9375 2.265625 -0.765625 1.859375 0.40625 C 1.453125 1.5625 0.890625 2.15625 0.5625 2.5 Z M 1.171875 2.5 "/>
</g>
<g id="glyph-3-7">
<path d="M 4.09375 -4.171875 C 3.5 -4.5 3.15625 -4.59375 2.546875 -4.59375 C 1.171875 -4.59375 0.359375 -3.390625 0.359375 -2.21875 C 0.359375 -0.984375 1.265625 0.109375 2.515625 0.109375 C 3.046875 0.109375 3.59375 -0.03125 4.140625 -0.40625 L 4.078125 -1.0625 C 3.5625 -0.671875 3.03125 -0.53125 2.515625 -0.53125 C 1.6875 -0.53125 1.140625 -1.25 1.140625 -2.21875 C 1.140625 -3 1.5 -3.953125 2.5625 -3.953125 C 3.078125 -3.953125 3.421875 -3.875 3.96875 -3.515625 Z M 4.09375 -4.171875 "/>
</g>
<g id="glyph-3-8">
<path d="M 1.5625 -6.921875 L 0.8125 -6.921875 L 0.8125 0 L 1.5625 0 Z M 1.5625 -6.921875 "/>
</g>
<g id="glyph-4-0">
<path d="M 5.515625 -5.859375 C 5.53125 -5.890625 5.546875 -5.9375 5.546875 -5.96875 C 5.546875 -6 5.203125 -6.203125 4.859375 -6.3125 C 4.578125 -6.390625 4.265625 -6.421875 3.953125 -6.421875 C 2.53125 -6.421875 1.46875 -5.3125 1.46875 -4.328125 C 1.46875 -3.921875 1.625 -3.5625 1.921875 -3.296875 C 2.21875 -3.03125 2.390625 -2.984375 3.25 -2.765625 C 3.59375 -2.6875 4.203125 -2.53125 4.203125 -1.828125 C 4.203125 -1.1875 3.53125 -0.46875 2.625 -0.46875 C 2.3125 -0.46875 1.46875 -0.53125 0.8125 -1.203125 L 0.546875 -0.546875 C 0.53125 -0.53125 0.515625 -0.453125 0.515625 -0.4375 C 0.515625 -0.390625 1.296875 0.203125 2.484375 0.203125 C 3.875 0.203125 5 -0.953125 5 -2.078125 C 5 -2.65625 4.703125 -3 4.625 -3.078125 C 4.28125 -3.4375 4.09375 -3.484375 3.375 -3.671875 C 2.890625 -3.796875 2.703125 -3.84375 2.53125 -3.984375 C 2.4375 -4.09375 2.265625 -4.265625 2.265625 -4.578125 C 2.265625 -5.203125 2.96875 -5.78125 3.8125 -5.78125 C 4.5625 -5.78125 4.9375 -5.515625 5.25 -5.203125 Z M 5.515625 -5.859375 "/>
</g>
<g id="glyph-4-1">
<path d="M 9.90625 -6.21875 L 9.21875 -6.21875 L 7.421875 -2.703125 C 7.390625 -2.625 6.640625 -1.140625 6.484375 -0.703125 L 6.46875 -0.703125 C 6.484375 -0.765625 6.484375 -0.78125 6.484375 -1 C 6.484375 -1.640625 6.4375 -2.28125 6.375 -2.921875 L 6.09375 -6.21875 L 5.34375 -6.21875 L 3.953125 -3.484375 C 3.875 -3.359375 2.796875 -1.234375 2.640625 -0.71875 C 2.640625 -0.796875 2.640625 -1.0625 2.640625 -1.109375 C 2.640625 -1.65625 2.5625 -2.796875 2.546875 -3 L 2.28125 -6.21875 L 1.453125 -6.21875 L 2.015625 0 L 2.765625 0 L 4.609375 -3.625 C 4.640625 -3.6875 5.359375 -5.109375 5.5 -5.53125 C 5.5 -5.46875 5.5 -5.359375 5.5 -5.234375 C 5.5 -4.671875 5.609375 -3.359375 5.609375 -3.328125 L 5.890625 0 L 6.703125 0 Z M 9.90625 -6.21875 "/>
</g>
<g id="glyph-4-2">
<path d="M 4.0625 -6.0625 L 3.859375 -6.0625 C 3.171875 -5.484375 2.265625 -5.484375 1.96875 -5.484375 L 1.859375 -4.921875 C 2.046875 -4.921875 2.5625 -4.921875 3.09375 -5.125 L 2.125 -0.5625 L 0.984375 -0.5625 L 0.859375 0 L 3.921875 0 L 4.046875 -0.5625 L 2.890625 -0.5625 Z M 4.0625 -6.0625 "/>
</g>
<g id="glyph-4-3">
<path d="M 1.65625 -1.46875 L 0.578125 -0.609375 L 0.453125 0 L 4.140625 0 L 4.28125 -0.671875 L 2.59375 -0.671875 C 2.5 -0.671875 2.390625 -0.65625 2.28125 -0.65625 L 1.296875 -0.65625 C 2.1875 -1.375 2.71875 -1.78125 3.40625 -2.25 C 4.3125 -2.890625 5.0625 -3.484375 5.0625 -4.5625 C 5.0625 -5.421875 4.484375 -6.0625 3.46875 -6.0625 C 2.453125 -6.0625 1.78125 -5.421875 1.375 -4.625 L 1.671875 -4.109375 C 2.15625 -5.203125 2.703125 -5.453125 3.203125 -5.453125 C 3.796875 -5.453125 4.265625 -5.109375 4.265625 -4.421875 C 4.265625 -3.5 3.484375 -2.875 2.90625 -2.421875 Z M 1.65625 -1.46875 "/>
</g>
<g id="glyph-4-4">
<path d="M 1.84375 -4.59375 C 2.203125 -5.125 2.828125 -5.5 3.4375 -5.5 C 4 -5.5 4.203125 -5.171875 4.203125 -4.875 C 4.203125 -4.625 4.03125 -4.078125 3.484375 -3.71875 C 3.171875 -3.53125 3.0625 -3.53125 2.265625 -3.46875 L 2.140625 -2.875 L 2.828125 -2.875 C 3.640625 -2.875 3.734375 -2.265625 3.734375 -1.96875 C 3.734375 -1.25 3.203125 -0.390625 2.328125 -0.390625 C 2.046875 -0.390625 1.234375 -0.453125 0.75 -1.28125 L 0.53125 -0.703125 C 0.875 -0.140625 1.515625 0.203125 2.234375 0.203125 C 3.53125 0.203125 4.59375 -0.953125 4.59375 -1.90625 C 4.59375 -2.640625 4.03125 -3.015625 3.625 -3.171875 C 4.515625 -3.578125 4.984375 -4.375 4.984375 -4.921875 C 4.984375 -5.59375 4.390625 -6.0625 3.5625 -6.0625 C 2.90625 -6.0625 2.171875 -5.765625 1.59375 -5.109375 Z M 1.84375 -4.59375 "/>
</g>
<g id="glyph-4-5">
<path d="M 3.765625 -1.5 L 4.65625 -1.5 L 4.78125 -2.078125 L 3.890625 -2.078125 L 4.6875 -5.859375 L 3.828125 -5.859375 L 0.78125 -2.171875 C 0.703125 -2.078125 0.703125 -2.0625 0.65625 -1.859375 C 0.640625 -1.8125 0.640625 -1.796875 0.578125 -1.5 L 3 -1.5 L 2.6875 0 L 3.4375 0 Z M 1.453125 -2.078125 C 3.71875 -4.875 3.796875 -5.140625 3.90625 -5.5 L 3.921875 -5.5 L 3.1875 -2.078125 Z M 1.453125 -2.078125 "/>
</g>
<g id="glyph-5-0">
<path d="M 6.5625 -2.296875 C 6.734375 -2.296875 6.921875 -2.296875 6.921875 -2.5 C 6.921875 -2.6875 6.734375 -2.6875 6.5625 -2.6875 L 1.171875 -2.6875 C 1 -2.6875 0.828125 -2.6875 0.828125 -2.5 C 0.828125 -2.296875 1 -2.296875 1.171875 -2.296875 Z M 6.5625 -2.296875 "/>
</g>
</g>
<clipPath id="clip-0">
<path clip-rule="nonzero" d="M 510 61 L 567.917969 61 L 567.917969 131 L 510 131 Z M 510 61 "/>
</clipPath>
</defs>
<path fill="none" stroke-width="0.79701" stroke-linecap="butt" stroke-linejoin="miter" stroke="rgb(0%, 0%, 0%)" stroke-opacity="1" stroke-miterlimit="10" d="M -0.001375 -0.0015625 L -0.001375 44.7875 M -0.001375 68.6 L -0.001375 113.389062 " transform="matrix(1, 0, 0, -1, 35.017, 152.85)"/>
<path fill="none" stroke-width="1.59404" stroke-linecap="butt" stroke-linejoin="miter" stroke="rgb(0%, 0%, 0%)" stroke-opacity="1" stroke-miterlimit="10" d="M -11.907625 56.69375 C -11.907625 50.119531 -6.575594 44.7875 -0.001375 44.7875 C 6.57675 44.7875 11.904875 50.119531 11.904875 56.69375 C 11.904875 63.267969 6.57675 68.6 -0.001375 68.6 C -6.575594 68.6 -11.907625 63.267969 -11.907625 56.69375 Z M -11.907625 56.69375 " transform="matrix(1, 0, 0, -1, 35.017, 152.85)"/>
<path fill="none" stroke-width="1.59404" stroke-linecap="butt" stroke-linejoin="miter" stroke="rgb(0%, 0%, 0%)" stroke-opacity="1" stroke-miterlimit="10" d="M -0.001375 48.357812 L -0.001375 65.025781 " transform="matrix(1, 0, 0, -1, 35.017, 152.85)"/>
<path fill-rule="nonzero" fill="rgb(0%, 0%, 0%)" fill-opacity="1" stroke-width="1.59404" stroke-linecap="butt" stroke-linejoin="miter" stroke="rgb(0%, 0%, 0%)" stroke-opacity="1" stroke-miterlimit="10" d="M -0.001375 60.908594 L 1.983 60.908594 L -0.001375 65.127344 L -1.98575 60.908594 Z M -0.001375 60.908594 " transform="matrix(1, 0, 0, -1, 35.017, 152.85)"/>
<g fill="rgb(0%, 0%, 0%)" fill-opacity="1">
<use xlink:href="#glyph-0-0" x="11.623" y="98.371"/>
</g>
<g fill="rgb(0%, 0%, 0%)" fill-opacity="1">
<use xlink:href="#glyph-1-0" x="16.002" y="99.865"/>
</g>
<path fill="none" stroke-width="0.79701" stroke-linecap="butt" stroke-linejoin="miter" stroke="rgb(0%, 0%, 0%)" stroke-opacity="1" stroke-miterlimit="10" d="M -0.001375 113.389062 L 56.693938 113.389062 " transform="matrix(1, 0, 0, -1, 35.017, 152.85)"/>
<path fill-rule="nonzero" fill="rgb(0%, 0%, 0%)" fill-opacity="1" d="M 93.703125 39.460938 C 93.703125 38.363281 92.8125 37.46875 91.710938 37.46875 C 90.609375 37.46875 89.71875 38.363281 89.71875 39.460938 C 89.71875 40.5625 90.609375 41.457031 91.710938 41.457031 C 92.8125 41.457031 93.703125 40.5625 93.703125 39.460938 Z M 93.703125 39.460938 "/>
<path fill="none" stroke-width="0.79701" stroke-linecap="butt" stroke-linejoin="miter" stroke="rgb(0%, 0%, 0%)" stroke-opacity="1" stroke-miterlimit="10" d="M 56.693938 113.389062 L 56.693938 72.56875 M 56.693938 40.81875 L 56.693938 -0.0015625 " transform="matrix(1, 0, 0, -1, 35.017, 152.85)"/>
<path fill="none" stroke-width="1.59404" stroke-linecap="butt" stroke-linejoin="bevel" stroke="rgb(0%, 0%, 0%)" stroke-opacity="1" stroke-miterlimit="10" d="M 56.693938 73.365625 L 62.647063 69.853906 L 50.740813 64.432031 L 62.647063 59.00625 L 50.740813 53.584375 L 62.647063 48.158594 L 50.740813 42.732812 L 56.693938 40.021875 " transform="matrix(1, 0, 0, -1, 35.017, 152.85)"/>
<g fill="rgb(0%, 0%, 0%)" fill-opacity="1">
<use xlink:href="#glyph-0-1" x="71.118" y="98.371"/>
</g>
<g fill="rgb(0%, 0%, 0%)" fill-opacity="1">
<use xlink:href="#glyph-1-1" x="78.682" y="99.865"/>
</g>
<path fill="none" stroke-width="0.79701" stroke-linecap="butt" stroke-linejoin="miter" stroke="rgb(0%, 0%, 0%)" stroke-opacity="1" stroke-miterlimit="10" d="M -0.001375 -0.0015625 L 56.693938 -0.0015625 " transform="matrix(1, 0, 0, -1, 35.017, 152.85)"/>
<path fill="none" stroke-width="0.79701" stroke-linecap="butt" stroke-linejoin="miter" stroke="rgb(0%, 0%, 0%)" stroke-opacity="1" stroke-miterlimit="10" d="M 56.693938 113.389062 L 106.443938 113.389062 M 120.330656 113.389062 L 141.733 113.389062 " transform="matrix(1, 0, 0, -1, 35.017, 152.85)"/>
<path fill="none" stroke-width="1.59404" stroke-linecap="butt" stroke-linejoin="miter" stroke="rgb(0%, 0%, 0%)" stroke-opacity="1" stroke-miterlimit="10" d="M 106.443938 113.389062 L 117.553313 120.330469 " transform="matrix(1, 0, 0, -1, 35.017, 152.85)"/>
<path fill="none" stroke-width="1.59404" stroke-linecap="butt" stroke-linejoin="bevel" stroke="rgb(0%, 0%, 0%)" stroke-opacity="1" stroke-miterlimit="10" d="M 114.650969 111.939844 C 115.166594 114.873437 114.080656 117.857812 111.799406 119.771875 C 111.471281 120.045312 111.127531 120.291406 110.76425 120.514062 " transform="matrix(1, 0, 0, -1, 35.017, 152.85)"/>
<path fill-rule="nonzero" fill="rgb(0%, 0%, 0%)" fill-opacity="1" d="M 141.460938 31.128906 C 142.992188 32.300781 145.71875 34.484375 147.003906 37.011719 C 146.222656 34.308594 146.890625 32.949219 149.507812 31.914062 C 146.71875 32.445312 143.324219 31.621094 141.460938 31.128906 Z M 141.460938 31.128906 "/>
<g fill="rgb(0%, 0%, 0%)" fill-opacity="1">
<use xlink:href="#glyph-0-2" x="140.239" y="18.043"/>
</g>
<g fill="rgb(0%, 0%, 0%)" fill-opacity="1">
<use xlink:href="#glyph-2-0" x="143.837" y="18.043"/>
<use xlink:href="#glyph-2-1" x="151.58591" y="18.043"/>
</g>
<g fill="rgb(0%, 0%, 0%)" fill-opacity="1">
<use xlink:href="#glyph-3-0" x="132.629" y="28.504"/>
<use xlink:href="#glyph-3-1" x="136.503455" y="28.504"/>
<use xlink:href="#glyph-3-2" x="141.484755" y="28.504"/>
</g>
<g fill="rgb(0%, 0%, 0%)" fill-opacity="1">
<use xlink:href="#glyph-3-3" x="146.911383" y="28.504"/>
<use xlink:href="#glyph-3-4" x="151.338763" y="28.504"/>
<use xlink:href="#glyph-3-5" x="156.486438" y="28.504"/>
<use xlink:href="#glyph-3-6" x="160.305103" y="28.504"/>
</g>
<g fill="rgb(0%, 0%, 0%)" fill-opacity="1">
<use xlink:href="#glyph-4-0" x="139.181" y="53.395"/>
<use xlink:href="#glyph-4-1" x="144.300814" y="53.395"/>
<use xlink:href="#glyph-4-2" x="153.017948" y="53.395"/>
</g>
<path fill="none" stroke-width="0.79701" stroke-linecap="butt" stroke-linejoin="miter" stroke="rgb(0%, 0%, 0%)" stroke-opacity="1" stroke-miterlimit="10" d="M 141.733 113.389062 L 155.908781 113.389062 " transform="matrix(1, 0, 0, -1, 35.017, 152.85)"/>
<path fill-rule="nonzero" fill="rgb(0%, 0%, 0%)" fill-opacity="1" d="M 192.917969 39.460938 C 192.917969 38.363281 192.023438 37.46875 190.925781 37.46875 C 189.824219 37.46875 188.933594 38.363281 188.933594 39.460938 C 188.933594 40.5625 189.824219 41.457031 190.925781 41.457031 C 192.023438 41.457031 192.917969 40.5625 192.917969 39.460938 Z M 192.917969 39.460938 "/>
<path fill="none" stroke-width="0.79701" stroke-linecap="butt" stroke-linejoin="miter" stroke="rgb(0%, 0%, 0%)" stroke-opacity="1" stroke-miterlimit="10" d="M 155.908781 113.389062 L 155.908781 68.6 M 155.908781 44.7875 L 155.908781 -0.0015625 " transform="matrix(1, 0, 0, -1, 35.017, 152.85)"/>
<path fill="none" stroke-width="1.59404" stroke-linecap="butt" stroke-linejoin="bevel" stroke="rgb(0%, 0%, 0%)" stroke-opacity="1" stroke-miterlimit="10" d="M 155.588469 69.396875 C 158.877531 69.396875 161.541594 67.725 161.541594 65.666406 C 161.541594 63.603906 158.877531 61.935937 155.588469 61.935937 C 153.943938 61.935937 152.611906 62.6 152.611906 63.424219 C 152.611906 64.244531 153.943938 64.908594 155.588469 64.908594 C 158.877531 64.908594 161.541594 63.240625 161.541594 61.178125 C 161.541594 59.119531 158.877531 57.447656 155.588469 57.447656 C 153.943938 57.447656 152.611906 58.115625 152.611906 58.935937 C 152.611906 59.760156 153.943938 60.424219 155.588469 60.424219 C 158.877531 60.424219 161.541594 58.752344 161.541594 56.69375 C 161.541594 54.63125 158.877531 52.963281 155.588469 52.963281 C 153.943938 52.963281 152.611906 53.627344 152.611906 54.451562 C 152.611906 55.271875 153.943938 55.939844 155.588469 55.939844 C 158.877531 55.939844 161.541594 54.267969 161.541594 52.209375 C 161.541594 50.146875 158.877531 48.475 155.588469 48.475 C 153.943938 48.475 152.611906 49.142969 152.611906 49.963281 C 152.611906 50.7875 153.943938 51.451562 155.588469 51.451562 C 158.877531 51.451562 161.541594 49.783594 161.541594 47.721094 C 161.541594 45.6625 158.877531 43.990625 155.588469 43.990625 " transform="matrix(1, 0, 0, -1, 35.017, 152.85)"/>
<g fill="rgb(0%, 0%, 0%)" fill-opacity="1">
<use xlink:href="#glyph-0-3" x="179.208" y="98.371"/>
</g>
<path fill="none" stroke-width="0.79701" stroke-linecap="butt" stroke-linejoin="miter" stroke="rgb(0%, 0%, 0%)" stroke-opacity="1" stroke-miterlimit="10" d="M 56.693938 -0.0015625 L 155.908781 -0.0015625 " transform="matrix(1, 0, 0, -1, 35.017, 152.85)"/>
<path fill="none" stroke-width="0.79701" stroke-linecap="butt" stroke-linejoin="miter" stroke="rgb(0%, 0%, 0%)" stroke-opacity="1" stroke-miterlimit="10" d="M 155.908781 113.389062 L 205.654875 113.389062 M 219.5455 113.389062 L 240.947844 113.389062 " transform="matrix(1, 0, 0, -1, 35.017, 152.85)"/>
<path fill="none" stroke-width="1.59404" stroke-linecap="butt" stroke-linejoin="miter" stroke="rgb(0%, 0%, 0%)" stroke-opacity="1" stroke-miterlimit="10" d="M 205.654875 113.389062 L 216.768156 120.330469 " transform="matrix(1, 0, 0, -1, 35.017, 152.85)"/>
<path fill="none" stroke-width="1.59404" stroke-linecap="butt" stroke-linejoin="bevel" stroke="rgb(0%, 0%, 0%)" stroke-opacity="1" stroke-miterlimit="10" d="M 205.654875 121.721094 C 208.631438 121.721094 211.385344 120.13125 212.873625 117.553125 C 213.334563 116.75625 213.654875 115.896875 213.830656 115.014062 " transform="matrix(1, 0, 0, -1, 35.017, 152.85)"/>
<path fill-rule="nonzero" fill="rgb(0%, 0%, 0%)" fill-opacity="1" d="M 248.503906 42.3125 C 248.679688 40.390625 249.066406 36.921875 250.515625 34.480469 C 248.648438 36.585938 247.144531 36.75 244.871094 35.089844 C 246.808594 37.164062 247.925781 40.472656 248.503906 42.3125 Z M 248.503906 42.3125 "/>
<g fill="rgb(0%, 0%, 0%)" fill-opacity="1">
<use xlink:href="#glyph-0-2" x="239.452" y="18.043"/>
</g>
<g fill="rgb(0%, 0%, 0%)" fill-opacity="1">
<use xlink:href="#glyph-2-0" x="243.05" y="18.043"/>
<use xlink:href="#glyph-2-1" x="250.79891" y="18.043"/>
</g>
<g fill="rgb(0%, 0%, 0%)" fill-opacity="1">
<use xlink:href="#glyph-3-0" x="231.814" y="28.504"/>
<use xlink:href="#glyph-3-7" x="235.688455" y="28.504"/>
<use xlink:href="#glyph-3-8" x="240.115835" y="28.504"/>
<use xlink:href="#glyph-3-1" x="242.4959" y="28.504"/>
<use xlink:href="#glyph-3-5" x="247.4772" y="28.504"/>
<use xlink:href="#glyph-3-3" x="251.295864" y="28.504"/>
<use xlink:href="#glyph-3-5" x="255.723244" y="28.504"/>
<use xlink:href="#glyph-3-6" x="259.541908" y="28.504"/>
</g>
<g fill="rgb(0%, 0%, 0%)" fill-opacity="1">
<use xlink:href="#glyph-4-0" x="238.393" y="53.395"/>
<use xlink:href="#glyph-4-1" x="243.512814" y="53.395"/>
<use xlink:href="#glyph-4-3" x="252.229948" y="53.395"/>
</g>
<path fill="none" stroke-width="0.79701" stroke-linecap="butt" stroke-linejoin="miter" stroke="rgb(0%, 0%, 0%)" stroke-opacity="1" stroke-miterlimit="10" d="M 240.947844 113.389062 L 255.119719 113.389062 " transform="matrix(1, 0, 0, -1, 35.017, 152.85)"/>
<path fill-rule="nonzero" fill="rgb(0%, 0%, 0%)" fill-opacity="1" d="M 292.128906 39.460938 C 292.128906 38.363281 291.238281 37.46875 290.136719 37.46875 C 289.039062 37.46875 288.144531 38.363281 288.144531 39.460938 C 288.144531 40.5625 289.039062 41.457031 290.136719 41.457031 C 291.238281 41.457031 292.128906 40.5625 292.128906 39.460938 Z M 292.128906 39.460938 "/>
<path fill="none" stroke-width="0.79701" stroke-linecap="butt" stroke-linejoin="miter" stroke="rgb(0%, 0%, 0%)" stroke-opacity="1" stroke-miterlimit="10" d="M 255.119719 113.389062 L 255.119719 72.56875 M 255.119719 40.81875 L 255.119719 -0.0015625 " transform="matrix(1, 0, 0, -1, 35.017, 152.85)"/>
<path fill="none" stroke-width="1.59404" stroke-linecap="butt" stroke-linejoin="bevel" stroke="rgb(0%, 0%, 0%)" stroke-opacity="1" stroke-miterlimit="10" d="M 255.119719 73.365625 L 261.072844 69.853906 L 249.166594 64.432031 L 261.072844 59.00625 L 249.166594 53.584375 L 261.072844 48.158594 L 249.166594 42.732812 L 255.119719 40.021875 " transform="matrix(1, 0, 0, -1, 35.017, 152.85)"/>
<g fill="rgb(0%, 0%, 0%)" fill-opacity="1">
<use xlink:href="#glyph-0-1" x="274.285" y="98.371"/>
</g>
<g fill="rgb(0%, 0%, 0%)" fill-opacity="1">
<use xlink:href="#glyph-2-2" x="293.709" y="63.604"/>
</g>
<g fill="rgb(0%, 0%, 0%)" fill-opacity="1">
<use xlink:href="#glyph-5-0" x="293.709" y="133.691"/>
</g>
<g fill="rgb(0%, 0%, 0%)" fill-opacity="1">
<use xlink:href="#glyph-0-4" x="302.249" y="98.648"/>
</g>
<g fill="rgb(0%, 0%, 0%)" fill-opacity="1">
<use xlink:href="#glyph-1-2" x="307.078" y="100.142"/>
</g>
<g fill="rgb(0%, 0%, 0%)" fill-opacity="1">
<use xlink:href="#glyph-2-3" x="311.509" y="98.648"/>
</g>
<g fill="rgb(0%, 0%, 0%)" fill-opacity="1">
<use xlink:href="#glyph-0-2" x="315.383" y="98.648"/>
</g>
<g fill="rgb(0%, 0%, 0%)" fill-opacity="1">
<use xlink:href="#glyph-2-4" x="318.981" y="98.648"/>
</g>
<path fill="none" stroke-width="0.79701" stroke-linecap="butt" stroke-linejoin="miter" stroke="rgb(0%, 0%, 0%)" stroke-opacity="1" stroke-miterlimit="10" d="M 155.908781 -0.0015625 L 255.119719 -0.0015625 " transform="matrix(1, 0, 0, -1, 35.017, 152.85)"/>
<path fill="none" stroke-width="0.79701" stroke-linecap="butt" stroke-linejoin="miter" stroke="rgb(0%, 0%, 0%)" stroke-opacity="1" stroke-miterlimit="10" d="M 255.119719 113.389062 L 304.869719 113.389062 M 318.760344 113.389062 L 340.162688 113.389062 " transform="matrix(1, 0, 0, -1, 35.017, 152.85)"/>
<path fill="none" stroke-width="1.59404" stroke-linecap="butt" stroke-linejoin="miter" stroke="rgb(0%, 0%, 0%)" stroke-opacity="1" stroke-miterlimit="10" d="M 304.869719 113.389062 L 315.983 120.330469 " transform="matrix(1, 0, 0, -1, 35.017, 152.85)"/>
<path fill="none" stroke-width="1.59404" stroke-linecap="butt" stroke-linejoin="bevel" stroke="rgb(0%, 0%, 0%)" stroke-opacity="1" stroke-miterlimit="10" d="M 304.869719 121.721094 C 307.846281 121.721094 310.600188 120.13125 312.088469 117.553125 C 312.549406 116.75625 312.865813 115.896875 313.041594 115.014062 " transform="matrix(1, 0, 0, -1, 35.017, 152.85)"/>
<path fill-rule="nonzero" fill="rgb(0%, 0%, 0%)" fill-opacity="1" d="M 347.71875 42.3125 C 347.890625 40.390625 348.28125 36.921875 349.730469 34.480469 C 347.863281 36.585938 346.355469 36.75 344.085938 35.089844 C 346.019531 37.164062 347.140625 40.472656 347.71875 42.3125 Z M 347.71875 42.3125 "/>
<g fill="rgb(0%, 0%, 0%)" fill-opacity="1">
<use xlink:href="#glyph-0-2" x="338.664" y="18.043"/>
</g>
<g fill="rgb(0%, 0%, 0%)" fill-opacity="1">
<use xlink:href="#glyph-2-0" x="342.262" y="18.043"/>
<use xlink:href="#glyph-2-1" x="350.01091" y="18.043"/>
</g>
<g fill="rgb(0%, 0%, 0%)" fill-opacity="1">
<use xlink:href="#glyph-3-0" x="331.026" y="28.504"/>
<use xlink:href="#glyph-3-7" x="334.900455" y="28.504"/>
<use xlink:href="#glyph-3-8" x="339.327835" y="28.504"/>
<use xlink:href="#glyph-3-1" x="341.7079" y="28.504"/>
<use xlink:href="#glyph-3-5" x="346.6892" y="28.504"/>
<use xlink:href="#glyph-3-3" x="350.507864" y="28.504"/>
<use xlink:href="#glyph-3-5" x="354.935244" y="28.504"/>
<use xlink:href="#glyph-3-6" x="358.753908" y="28.504"/>
</g>
<g fill="rgb(0%, 0%, 0%)" fill-opacity="1">
<use xlink:href="#glyph-4-0" x="337.606" y="53.395"/>
<use xlink:href="#glyph-4-1" x="342.725814" y="53.395"/>
<use xlink:href="#glyph-4-4" x="351.442948" y="53.395"/>
</g>
<path fill="none" stroke-width="0.79701" stroke-linecap="butt" stroke-linejoin="miter" stroke="rgb(0%, 0%, 0%)" stroke-opacity="1" stroke-miterlimit="10" d="M 340.162688 113.389062 L 354.334563 113.389062 " transform="matrix(1, 0, 0, -1, 35.017, 152.85)"/>
<path fill-rule="nonzero" fill="rgb(0%, 0%, 0%)" fill-opacity="1" d="M 391.34375 39.460938 C 391.34375 38.363281 390.453125 37.46875 389.351562 37.46875 C 388.25 37.46875 387.359375 38.363281 387.359375 39.460938 C 387.359375 40.5625 388.25 41.457031 389.351562 41.457031 C 390.453125 41.457031 391.34375 40.5625 391.34375 39.460938 Z M 391.34375 39.460938 "/>
<path fill="none" stroke-width="0.79701" stroke-linecap="butt" stroke-linejoin="miter" stroke="rgb(0%, 0%, 0%)" stroke-opacity="1" stroke-miterlimit="10" d="M 354.334563 113.389062 L 354.334563 60.6625 M 354.334563 52.725 L 354.334563 -0.0015625 " transform="matrix(1, 0, 0, -1, 35.017, 152.85)"/>
<path fill="none" stroke-width="1.59404" stroke-linecap="butt" stroke-linejoin="miter" stroke="rgb(0%, 0%, 0%)" stroke-opacity="1" stroke-miterlimit="10" d="M 366.240813 60.6625 L 342.428313 60.6625 M 366.240813 52.725 L 342.428313 52.725 " transform="matrix(1, 0, 0, -1, 35.017, 152.85)"/>
<g fill="rgb(0%, 0%, 0%)" fill-opacity="1">
<use xlink:href="#glyph-0-5" x="366.758" y="98.371"/>
</g>
<path fill="none" stroke-width="0.79701" stroke-linecap="butt" stroke-linejoin="miter" stroke="rgb(0%, 0%, 0%)" stroke-opacity="1" stroke-miterlimit="10" d="M 255.119719 -0.0015625 L 354.334563 -0.0015625 " transform="matrix(1, 0, 0, -1, 35.017, 152.85)"/>
<path fill="none" stroke-width="0.79701" stroke-linecap="butt" stroke-linejoin="miter" stroke="rgb(0%, 0%, 0%)" stroke-opacity="1" stroke-miterlimit="10" d="M 354.334563 113.389062 L 404.084563 113.389062 M 417.975188 113.389062 L 439.373625 113.389062 " transform="matrix(1, 0, 0, -1, 35.017, 152.85)"/>
<path fill="none" stroke-width="1.59404" stroke-linecap="butt" stroke-linejoin="miter" stroke="rgb(0%, 0%, 0%)" stroke-opacity="1" stroke-miterlimit="10" d="M 404.084563 113.389062 L 415.193938 120.330469 " transform="matrix(1, 0, 0, -1, 35.017, 152.85)"/>
<path fill="none" stroke-width="1.59404" stroke-linecap="butt" stroke-linejoin="bevel" stroke="rgb(0%, 0%, 0%)" stroke-opacity="1" stroke-miterlimit="10" d="M 412.291594 111.939844 C 412.807219 114.873437 411.721281 117.857812 409.440031 119.771875 C 409.111906 120.045312 408.768156 120.291406 408.404875 120.514062 " transform="matrix(1, 0, 0, -1, 35.017, 152.85)"/>
<path fill-rule="nonzero" fill="rgb(0%, 0%, 0%)" fill-opacity="1" d="M 439.101562 31.128906 C 440.632812 32.300781 443.359375 34.484375 444.648438 37.011719 C 443.863281 34.308594 444.53125 32.949219 447.148438 31.914062 C 444.359375 32.445312 440.964844 31.621094 439.101562 31.128906 Z M 439.101562 31.128906 "/>
<g fill="rgb(0%, 0%, 0%)" fill-opacity="1">
<use xlink:href="#glyph-0-2" x="437.877" y="18.043"/>
</g>
<g fill="rgb(0%, 0%, 0%)" fill-opacity="1">
<use xlink:href="#glyph-2-0" x="441.475" y="18.043"/>
<use xlink:href="#glyph-2-1" x="449.22391" y="18.043"/>
</g>
<g fill="rgb(0%, 0%, 0%)" fill-opacity="1">
<use xlink:href="#glyph-3-0" x="430.267" y="28.504"/>
<use xlink:href="#glyph-3-1" x="434.141455" y="28.504"/>
<use xlink:href="#glyph-3-2" x="439.122755" y="28.504"/>
</g>
<g fill="rgb(0%, 0%, 0%)" fill-opacity="1">
<use xlink:href="#glyph-3-3" x="444.549383" y="28.504"/>
<use xlink:href="#glyph-3-4" x="448.976763" y="28.504"/>
<use xlink:href="#glyph-3-5" x="454.124438" y="28.504"/>
<use xlink:href="#glyph-3-6" x="457.943103" y="28.504"/>
</g>
<g fill="rgb(0%, 0%, 0%)" fill-opacity="1">
<use xlink:href="#glyph-4-0" x="436.819" y="53.395"/>
<use xlink:href="#glyph-4-1" x="441.938814" y="53.395"/>
<use xlink:href="#glyph-4-5" x="450.655948" y="53.395"/>
</g>
<path fill="none" stroke-width="0.79701" stroke-linecap="butt" stroke-linejoin="miter" stroke="rgb(0%, 0%, 0%)" stroke-opacity="1" stroke-miterlimit="10" d="M 439.373625 113.389062 L 458.936125 113.389062 M 490.682219 113.389062 L 510.240813 113.389062 " transform="matrix(1, 0, 0, -1, 35.017, 152.85)"/>
<path fill="none" stroke-width="1.59404" stroke-linecap="butt" stroke-linejoin="bevel" stroke="rgb(0%, 0%, 0%)" stroke-opacity="1" stroke-miterlimit="10" d="M 458.13925 113.389062 L 461.647063 119.338281 L 467.072844 107.435937 L 472.494719 119.338281 L 477.9205 107.435937 L 483.342375 119.338281 L 488.768156 107.435937 L 491.479094 113.389062 " transform="matrix(1, 0, 0, -1, 35.017, 152.85)"/>
<g fill="rgb(0%, 0%, 0%)" fill-opacity="1">
<use xlink:href="#glyph-0-1" x="504.037" y="29.595"/>
</g>
<g fill="rgb(0%, 0%, 0%)" fill-opacity="1">
<use xlink:href="#glyph-1-3" x="511.602" y="31.09"/>
</g>
<path fill="none" stroke-width="0.79701" stroke-linecap="butt" stroke-linejoin="miter" stroke="rgb(0%, 0%, 0%)" stroke-opacity="1" stroke-miterlimit="10" d="M 510.240813 113.389062 L 510.240813 68.6 M 510.240813 44.7875 L 510.240813 -0.0015625 " transform="matrix(1, 0, 0, -1, 35.017, 152.85)"/>
<g clip-path="url(#clip-0)">
<path fill="none" stroke-width="1.59404" stroke-linecap="butt" stroke-linejoin="miter" stroke="rgb(0%, 0%, 0%)" stroke-opacity="1" stroke-miterlimit="10" d="M 522.147062 56.69375 C 522.147062 63.267969 516.818937 68.6 510.240813 68.6 C 503.666594 68.6 498.338469 63.267969 498.338469 56.69375 C 498.338469 50.119531 503.666594 44.7875 510.240813 44.7875 C 516.818937 44.7875 522.147062 50.119531 522.147062 56.69375 Z M 522.147062 56.69375 " transform="matrix(1, 0, 0, -1, 35.017, 152.85)"/>
</g>
<g fill="rgb(0%, 0%, 0%)" fill-opacity="1">
<use xlink:href="#glyph-5-0" x="541.379" y="103.661"/>
</g>
<g fill="rgb(0%, 0%, 0%)" fill-opacity="1">
<use xlink:href="#glyph-2-2" x="541.379" y="93.635"/>
</g>
<g fill="rgb(0%, 0%, 0%)" fill-opacity="1">
<use xlink:href="#glyph-0-6" x="513.13" y="98.814"/>
</g>
<g fill="rgb(0%, 0%, 0%)" fill-opacity="1">
<use xlink:href="#glyph-1-4" x="518.941" y="100.308"/>
<use xlink:href="#glyph-1-5" x="523.088319" y="100.308"/>
</g>
<path fill="none" stroke-width="0.79701" stroke-linecap="butt" stroke-linejoin="miter" stroke="rgb(0%, 0%, 0%)" stroke-opacity="1" stroke-miterlimit="10" d="M 354.334563 -0.0015625 L 510.240813 -0.0015625 " transform="matrix(1, 0, 0, -1, 35.017, 152.85)"/>
</svg>
