<?xml version="1.0" encoding="utf-8" standalone="no"?>
<!DOCTYPE svg PUBLIC "-//W3C//DTD SVG 1.1//EN"
  "http://www.w3.org/Graphics/SVG/1.1/DTD/svg11.dtd">
<svg xmlns:xlink="http://www.w3.org/1999/xlink" width="523.044pt" height="184.603531pt" viewBox="0 0 523.044 184.603531" xmlns="http://www.w3.org/2000/svg" version="1.1">
 <metadata>
  <rdf:RDF xmlns:dc="http://purl.org/dc/elements/1.1/" xmlns:cc="http://creativecommons.org/ns#" xmlns:rdf="http://www.w3.org/1999/02/22-rdf-syntax-ns#">
   <cc:Work>
    <dc:type rdf:resource="http://purl.org/dc/dcmitype/StillImage"/>
    <dc:date>2026-03-07T10:10:24.109940</dc:date>
    <dc:format>image/svg+xml</dc:format>
    <dc:creator>
     <cc:Agent>
      <dc:title>Matplotlib v3.10.8, https://matplotlib.org/</dc:title>
     </cc:Agent>
    </dc:creator>
   </cc:Work>
  </rdf:RDF>
 </metadata>
 <defs>
  <style type="text/css">*{stroke-linejoin: round; stroke-linecap: butt}</style>
 </defs>
 <g id="figure_1">
  <g id="patch_1">
   <path d="M -0 184.603531 
L 523.044 184.603531 
L 523.044 0 
L -0 0 
z
" style="fill: #ffffff"/>
  </g>
  <g id="axes_1">
   <g id="patch_2">
    <path d="M 49.728 136.723531 
C 54.501656 136.723531 59.080438 134.826938 62.455922 131.451453 
C 65.831406 128.075969 67.728 123.497187 67.728 118.723531 
C 67.728 113.949875 65.831406 109.371094 62.455922 105.995609 
C 59.080438 102.620125 54.501656 100.723531 49.728 100.723531 
C 44.954344 100.723531 40.375562 102.620125 37.000078 105.995609 
C 33.624594 109.371094 31.728 113.949875 31.728 118.723531 
C 31.728 123.497187 33.624594 128.075969 37.000078 131.451453 
C 40.375562 134.826938 44.954344 136.723531 49.728 136.723531 
L 49.728 136.723531 
z
" clip-path="url(#p59bfe79e6c)" style="fill: none; stroke: #000000; stroke-width: 2; stroke-linejoin: miter"/>
   </g>
   <g id="patch_3">
    <path d="M 460.128 136.723531 
C 464.901656 136.723531 469.480438 134.826938 472.855922 131.451453 
C 476.231406 128.075969 478.128 123.497187 478.128 118.723531 
C 478.128 113.949875 476.231406 109.371094 472.855922 105.995609 
C 469.480438 102.620125 464.901656 100.723531 460.128 100.723531 
C 455.354344 100.723531 450.775562 102.620125 447.400078 105.995609 
C 444.024594 109.371094 442.128 113.949875 442.128 118.723531 
C 442.128 123.497187 444.024594 128.075969 447.400078 131.451453 
C 450.775562 134.826938 455.354344 136.723531 460.128 136.723531 
L 460.128 136.723531 
z
" clip-path="url(#p59bfe79e6c)" style="fill: none; stroke: #000000; stroke-width: 2; stroke-linejoin: miter"/>
   </g>
   <g id="line2d_1">
    <path d="M 49.728 172.723531 
L 49.728 136.723531 
L 49.728 136.723531 
M 49.728 100.723531 
L 49.728 100.723531 
L 49.728 64.723531 
" clip-path="url(#p59bfe79e6c)" style="fill: none; stroke: #000000; stroke-width: 2; stroke-linecap: round"/>
   </g>
   <g id="line2d_2">
    <path d="M 49.728 127.723531 
L 49.728 118.723531 
" clip-path="url(#p59bfe79e6c)" style="fill: none; stroke: #000000; stroke-width: 2; stroke-linecap: round"/>
   </g>
   <g id="patch_4">
    <path d="M 47.028 118.723531 
L 49.728 109.723531 
L 52.428 118.723531 
z
" clip-path="url(#p59bfe79e6c)"/>
   </g>
   <g id="line2d_3">
    <path d="M 49.728 64.723531 
L 76.728 64.723531 
L 103.728 64.723531 
" clip-path="url(#p59bfe79e6c)" style="fill: none; stroke: #000000; stroke-width: 2; stroke-linecap: round"/>
   </g>
   <g id="line2d_4">
    <path d="M 103.728 64.723531 
L 103.728 100.723531 
L 112.728 103.723531 
L 94.728 109.723531 
L 112.728 115.723531 
L 94.728 121.723531 
L 112.728 127.723531 
L 94.728 133.723531 
L 103.728 136.723531 
L 103.728 172.723531 
" clip-path="url(#p59bfe79e6c)" style="fill: none; stroke: #000000; stroke-width: 2; stroke-linecap: round"/>
   </g>
   <g id="line2d_5">
    <path d="M 103.728 64.723531 
L 109.128 64.723531 
L 114.528 64.723531 
" clip-path="url(#p59bfe79e6c)" style="fill: none; stroke: #000000; stroke-width: 2; stroke-linecap: round"/>
   </g>
   <g id="line2d_6">
    <path d="M 157.728 64.723531 
L 163.128 64.723531 
L 168.528 64.723531 
" clip-path="url(#p59bfe79e6c)" style="fill: none; stroke: #000000; stroke-width: 2; stroke-linecap: round"/>
   </g>
   <g id="line2d_7">
    <path d="M 168.528 64.723531 
L 168.528 100.723531 
L 171.492187 100.857601 
L 174.483107 101.265291 
L 177.249917 101.937532 
L 179.560568 102.843069 
L 180.482308 103.368099 
L 181.221271 103.931078 
L 181.761881 104.523299 
L 182.092744 105.135434 
L 182.206884 105.757738 
L 182.101898 106.380251 
L 181.779996 106.99301 
L 181.247965 107.586254 
L 180.517018 108.150637 
L 179.602564 108.677419 
L 177.303691 109.587356 
L 174.54415 110.264873 
L 171.55538 110.678272 
L 168.588043 110.818004 
L 165.891006 110.697474 
L 163.690465 110.351914 
L 162.170976 109.835429 
L 161.709011 109.534068 
L 161.459977 109.216459 
L 161.429122 108.892455 
L 161.617097 108.572041 
L 162.01994 108.265128 
L 163.431915 107.729824 
L 165.546626 107.356561 
L 168.186716 107.201768 
L 171.130764 107.30355 
L 174.131858 107.678495 
L 176.9383 108.320279 
L 179.314719 109.200202 
L 180.277494 109.714933 
L 181.061808 110.269588 
L 181.651131 110.855634 
L 182.033041 111.463874 
L 182.199487 112.084644 
L 182.146962 112.708019 
L 181.876572 113.324014 
L 181.394017 113.922803 
L 180.709468 114.494921 
L 179.837355 115.031466 
L 177.607529 115.966152 
L 174.891553 116.673592 
L 171.917211 117.119577 
L 168.933956 117.291828 
L 166.19199 117.201021 
L 163.921277 116.879896 
L 162.312258 116.380508 
L 161.800569 116.084468 
L 161.49988 115.769863 
L 161.416529 115.446483 
L 161.552275 115.1243 
L 161.904254 114.813262 
L 162.465048 114.523083 
L 164.161648 114.041759 
L 166.499782 113.74582 
L 169.283355 113.685209 
L 172.278913 113.890133 
L 175.235224 114.368529 
L 177.904345 115.105397 
L 180.062422 116.064062 
L 180.891138 116.609902 
L 181.52846 117.189244 
L 181.960955 117.793034 
L 182.179505 118.411701 
L 182.179505 119.035362 
L 181.960955 119.654029 
L 181.52846 120.257818 
L 180.891138 120.83716 
L 180.062422 121.383001 
L 179.05978 121.886991 
L 176.620473 122.740597 
L 173.777798 123.35151 
L 170.770165 123.693618 
L 167.849822 123.763353 
L 165.261691 123.579988 
L 163.222837 123.184027 
L 161.904254 122.633801 
L 161.552275 122.322763 
L 161.416529 122.00058 
L 161.49988 121.677199 
L 161.800569 121.362595 
L 162.312258 121.066555 
L 163.921277 120.567167 
L 166.19199 120.246041 
L 168.933956 120.155234 
L 171.917211 120.327485 
L 174.891553 120.773471 
L 177.607529 121.480911 
L 179.837355 122.415596 
L 180.709468 122.952142 
L 181.394017 123.52426 
L 181.876572 124.123049 
L 182.146962 124.739044 
L 182.199487 125.362418 
L 182.033041 125.983189 
L 181.651131 126.591429 
L 181.061808 127.177474 
L 180.277494 127.73213 
L 179.314719 128.246861 
L 176.9383 129.126783 
L 174.131858 129.768568 
L 171.130764 130.143513 
L 168.186716 130.245295 
L 165.546626 130.090502 
L 163.431915 129.717239 
L 162.01994 129.181935 
L 161.617097 128.875022 
L 161.429122 128.554608 
L 161.459977 128.230603 
L 161.709011 127.912995 
L 162.170976 127.611634 
L 163.690465 127.095149 
L 165.891006 126.749589 
L 168.588043 126.629059 
L 171.55538 126.768791 
L 174.54415 127.182189 
L 177.303691 127.859706 
L 179.602564 128.769643 
L 180.517018 129.296426 
L 181.247965 129.860809 
L 181.779996 130.454053 
L 182.101898 131.066811 
L 182.206884 131.689325 
L 182.092744 132.311629 
L 181.761881 132.923764 
L 181.221271 133.515984 
L 180.482308 134.078964 
L 179.560568 134.603993 
L 177.249917 135.50953 
L 174.483107 136.181772 
L 171.492187 136.589462 
L 168.528 136.723531 
L 168.528 172.723531 
L 168.528 172.723531 
" clip-path="url(#p59bfe79e6c)" style="fill: none; stroke: #000000; stroke-width: 2; stroke-linecap: round"/>
   </g>
   <g id="line2d_8">
    <path d="M 168.528 64.723531 
L 173.928 64.723531 
L 179.328 64.723531 
" clip-path="url(#p59bfe79e6c)" style="fill: none; stroke: #000000; stroke-width: 2; stroke-linecap: round"/>
   </g>
   <g id="line2d_9">
    <path d="M 222.528 64.723531 
L 227.928 64.723531 
L 233.328 64.723531 
" clip-path="url(#p59bfe79e6c)" style="fill: none; stroke: #000000; stroke-width: 2; stroke-linecap: round"/>
   </g>
   <g id="line2d_10">
    <path d="M 233.328 64.723531 
L 233.328 100.723531 
L 242.328 103.723531 
L 224.328 109.723531 
L 242.328 115.723531 
L 224.328 121.723531 
L 242.328 127.723531 
L 224.328 133.723531 
L 233.328 136.723531 
L 233.328 172.723531 
" clip-path="url(#p59bfe79e6c)" style="fill: none; stroke: #000000; stroke-width: 2; stroke-linecap: round"/>
   </g>
   <g id="line2d_11">
    <path d="M 233.328 64.723531 
L 238.728 64.723531 
L 244.128 64.723531 
" clip-path="url(#p59bfe79e6c)" style="fill: none; stroke: #000000; stroke-width: 2; stroke-linecap: round"/>
   </g>
   <g id="line2d_12">
    <path d="M 287.328 64.723531 
L 292.728 64.723531 
L 298.128 64.723531 
" clip-path="url(#p59bfe79e6c)" style="fill: none; stroke: #000000; stroke-width: 2; stroke-linecap: round"/>
   </g>
   <g id="line2d_13">
    <path d="M 298.128 64.723531 
L 298.128 115.483531 
M 307.128 115.483531 
L 289.128 115.483531 
M 307.128 121.963531 
L 289.128 121.963531 
M 298.128 121.963531 
L 298.128 172.723531 
" clip-path="url(#p59bfe79e6c)" style="fill: none; stroke: #000000; stroke-width: 2; stroke-linecap: round"/>
   </g>
   <g id="line2d_14">
    <path d="M 298.128 64.723531 
L 303.528 64.723531 
L 308.928 64.723531 
" clip-path="url(#p59bfe79e6c)" style="fill: none; stroke: #000000; stroke-width: 2; stroke-linecap: round"/>
   </g>
   <g id="line2d_15">
    <path d="M 352.128 64.723531 
" clip-path="url(#p59bfe79e6c)" style="fill: none; stroke: #000000; stroke-width: 2; stroke-linecap: round"/>
   </g>
   <g id="line2d_16">
    <path d="M 352.128 64.723531 
L 388.128 64.723531 
L 391.128 55.723531 
L 397.128 73.723531 
L 403.128 55.723531 
L 409.128 73.723531 
L 415.128 55.723531 
L 421.128 73.723531 
L 424.128 64.723531 
L 460.128 64.723531 
" clip-path="url(#p59bfe79e6c)" style="fill: none; stroke: #000000; stroke-width: 2; stroke-linecap: round"/>
   </g>
   <g id="line2d_17">
    <path d="M 460.128 64.723531 
L 460.128 100.723531 
L 460.128 100.723531 
M 460.128 136.723531 
L 460.128 136.723531 
L 460.128 172.723531 
" clip-path="url(#p59bfe79e6c)" style="fill: none; stroke: #000000; stroke-width: 2; stroke-linecap: round"/>
   </g>
   <g id="line2d_18">
    <path d="M 463.728 127.723531 
L 456.528 127.723531 
" clip-path="url(#p59bfe79e6c)" style="fill: none; stroke: #000000; stroke-width: 2; stroke-linecap: round"/>
   </g>
   <g id="line2d_19">
    <path d="M 460.128 106.123531 
L 460.128 113.323531 
" clip-path="url(#p59bfe79e6c)" style="fill: none; stroke: #000000; stroke-width: 2; stroke-linecap: round"/>
   </g>
   <g id="line2d_20">
    <path d="M 463.728 109.723531 
L 456.528 109.723531 
" clip-path="url(#p59bfe79e6c)" style="fill: none; stroke: #000000; stroke-width: 2; stroke-linecap: round"/>
   </g>
   <g id="line2d_21">
    <path d="M 49.728 172.723531 
L 76.728 172.723531 
L 103.728 172.723531 
" clip-path="url(#p59bfe79e6c)" style="fill: none; stroke: #000000; stroke-width: 2; stroke-linecap: round"/>
   </g>
   <g id="line2d_22">
    <path d="M 103.728 172.723531 
L 136.128 172.723531 
L 168.528 172.723531 
" clip-path="url(#p59bfe79e6c)" style="fill: none; stroke: #000000; stroke-width: 2; stroke-linecap: round"/>
   </g>
   <g id="line2d_23">
    <path d="M 168.528 172.723531 
L 200.928 172.723531 
L 233.328 172.723531 
" clip-path="url(#p59bfe79e6c)" style="fill: none; stroke: #000000; stroke-width: 2; stroke-linecap: round"/>
   </g>
   <g id="line2d_24">
    <path d="M 233.328 172.723531 
L 265.728 172.723531 
L 298.128 172.723531 
" clip-path="url(#p59bfe79e6c)" style="fill: none; stroke: #000000; stroke-width: 2; stroke-linecap: round"/>
   </g>
   <g id="line2d_25">
    <path d="M 298.128 172.723531 
L 379.128 172.723531 
L 460.128 172.723531 
" clip-path="url(#p59bfe79e6c)" style="fill: none; stroke: #000000; stroke-width: 2; stroke-linecap: round"/>
   </g>
   <g id="text_1">
    <!-- $I_s$ -->
    <g transform="translate(16.668 122.586656) scale(0.14 -0.14)">
     <defs>
      <path id="DejaVuSans-Oblique-49" d="M 1081 4666 
L 1716 4666 
L 806 0 
L 172 0 
L 1081 4666 
z
" transform="scale(0.015625)"/>
      <path id="DejaVuSans-Oblique-73" d="M 3200 3397 
L 3091 2853 
Q 2863 2978 2609 3040 
Q 2356 3103 2088 3103 
Q 1634 3103 1373 2948 
Q 1113 2794 1113 2528 
Q 1113 2219 1719 2053 
Q 1766 2041 1788 2034 
L 1972 1978 
Q 2547 1819 2739 1644 
Q 2931 1469 2931 1166 
Q 2931 609 2489 259 
Q 2047 -91 1331 -91 
Q 1053 -91 747 -37 
Q 441 16 72 128 
L 184 722 
Q 500 559 806 475 
Q 1113 391 1394 391 
Q 1816 391 2080 572 
Q 2344 753 2344 1031 
Q 2344 1331 1650 1516 
L 1591 1531 
L 1394 1581 
Q 956 1697 753 1886 
Q 550 2075 550 2369 
Q 550 2928 970 3256 
Q 1391 3584 2113 3584 
Q 2397 3584 2667 3537 
Q 2938 3491 3200 3397 
z
" transform="scale(0.015625)"/>
     </defs>
     <use xlink:href="#DejaVuSans-Oblique-49" transform="translate(0 0.09375)"/>
     <use xlink:href="#DejaVuSans-Oblique-73" transform="translate(29.492188 -16.3125) scale(0.7)"/>
    </g>
   </g>
   <g id="text_2">
    <!-- $R_a$ -->
    <g transform="translate(118.128 122.586656) scale(0.14 -0.14)">
     <defs>
      <path id="DejaVuSans-Oblique-52" d="M 1613 4147 
L 1294 2491 
L 2106 2491 
Q 2584 2491 2879 2755 
Q 3175 3019 3175 3444 
Q 3175 3784 2976 3965 
Q 2778 4147 2406 4147 
L 1613 4147 
z
M 2772 2241 
Q 2972 2194 3105 2009 
Q 3238 1825 3413 1275 
L 3809 0 
L 3144 0 
L 2778 1197 
Q 2638 1659 2453 1815 
Q 2269 1972 1888 1972 
L 1191 1972 
L 806 0 
L 172 0 
L 1081 4666 
L 2503 4666 
Q 3150 4666 3495 4373 
Q 3841 4081 3841 3531 
Q 3841 3044 3547 2687 
Q 3253 2331 2772 2241 
z
" transform="scale(0.015625)"/>
      <path id="DejaVuSans-Oblique-61" d="M 3438 1997 
L 3047 0 
L 2472 0 
L 2578 531 
Q 2325 219 2001 64 
Q 1678 -91 1281 -91 
Q 834 -91 548 182 
Q 263 456 263 884 
Q 263 1497 752 1853 
Q 1241 2209 2100 2209 
L 2900 2209 
L 2931 2363 
Q 2938 2388 2941 2417 
Q 2944 2447 2944 2509 
Q 2944 2788 2717 2942 
Q 2491 3097 2081 3097 
Q 1800 3097 1504 3025 
Q 1209 2953 897 2809 
L 997 3341 
Q 1322 3463 1633 3523 
Q 1944 3584 2234 3584 
Q 2853 3584 3176 3315 
Q 3500 3047 3500 2534 
Q 3500 2431 3484 2292 
Q 3469 2153 3438 1997 
z
M 2816 1759 
L 2241 1759 
Q 1534 1759 1195 1570 
Q 856 1381 856 984 
Q 856 709 1029 553 
Q 1203 397 1509 397 
Q 1978 397 2328 733 
Q 2678 1069 2791 1631 
L 2816 1759 
z
" transform="scale(0.015625)"/>
     </defs>
     <use xlink:href="#DejaVuSans-Oblique-52" transform="translate(0 0.09375)"/>
     <use xlink:href="#DejaVuSans-Oblique-61" transform="translate(69.482422 -16.3125) scale(0.7)"/>
    </g>
   </g>
   <g id="text_3">
    <!-- $L$ -->
    <g transform="translate(187.606884 122.586656) scale(0.14 -0.14)">
     <defs>
      <path id="DejaVuSans-Oblique-4c" d="M 1075 4666 
L 1709 4666 
L 909 525 
L 3181 525 
L 3078 0 
L 172 0 
L 1075 4666 
z
" transform="scale(0.015625)"/>
     </defs>
     <use xlink:href="#DejaVuSans-Oblique-4c" transform="translate(0 0.09375)"/>
    </g>
   </g>
   <g id="text_4">
    <!-- $R$ -->
    <g transform="translate(247.728 122.586656) scale(0.14 -0.14)">
     <use xlink:href="#DejaVuSans-Oblique-52" transform="translate(0 0.09375)"/>
    </g>
   </g>
   <g id="text_5">
    <!-- $C$ -->
    <g transform="translate(312.528 122.586656) scale(0.14 -0.14)">
     <defs>
      <path id="DejaVuSans-Oblique-43" d="M 4447 4306 
L 4319 3641 
Q 4019 3944 3683 4091 
Q 3347 4238 2956 4238 
Q 2422 4238 2017 3981 
Q 1613 3725 1319 3200 
Q 1131 2863 1032 2486 
Q 934 2109 934 1728 
Q 934 1091 1264 756 
Q 1594 422 2222 422 
Q 2656 422 3056 561 
Q 3456 700 3834 978 
L 3688 231 
Q 3316 72 2936 -9 
Q 2556 -91 2175 -91 
Q 1278 -91 773 396 
Q 269 884 269 1753 
Q 269 2309 461 2846 
Q 653 3384 1013 3828 
Q 1394 4300 1883 4525 
Q 2372 4750 3022 4750 
Q 3422 4750 3780 4639 
Q 4138 4528 4447 4306 
z
" transform="scale(0.015625)"/>
     </defs>
     <use xlink:href="#DejaVuSans-Oblique-43" transform="translate(0 0.78125)"/>
    </g>
   </g>
   <g id="text_6">
    <!-- $R_b$ -->
    <g transform="translate(397.938 47.411969) scale(0.14 -0.14)">
     <defs>
      <path id="DejaVuSans-Oblique-62" d="M 3169 2138 
Q 3169 2591 2961 2847 
Q 2753 3103 2388 3103 
Q 2122 3103 1889 2973 
Q 1656 2844 1484 2597 
Q 1303 2338 1198 1995 
Q 1094 1653 1094 1313 
Q 1094 881 1298 636 
Q 1503 391 1863 391 
Q 2134 391 2365 517 
Q 2597 644 2772 891 
Q 2950 1147 3059 1487 
Q 3169 1828 3169 2138 
z
M 1381 2969 
Q 1594 3256 1914 3420 
Q 2234 3584 2584 3584 
Q 3122 3584 3439 3221 
Q 3756 2859 3756 2241 
Q 3756 1734 3570 1259 
Q 3384 784 3041 416 
Q 2816 172 2522 40 
Q 2228 -91 1906 -91 
Q 1566 -91 1316 65 
Q 1066 222 909 531 
L 806 0 
L 231 0 
L 1178 4863 
L 1753 4863 
L 1381 2969 
z
" transform="scale(0.015625)"/>
     </defs>
     <use xlink:href="#DejaVuSans-Oblique-52" transform="translate(0 0.09375)"/>
     <use xlink:href="#DejaVuSans-Oblique-62" transform="translate(69.482422 -16.3125) scale(0.7)"/>
    </g>
   </g>
   <g id="text_7">
    <!-- $V_{dc}$ -->
    <g transform="translate(483.528 122.586656) scale(0.14 -0.14)">
     <defs>
      <path id="DejaVuSans-Oblique-56" d="M 1319 0 
L 500 4666 
L 1119 4666 
L 1797 653 
L 4063 4666 
L 4750 4666 
L 2053 0 
L 1319 0 
z
" transform="scale(0.015625)"/>
      <path id="DejaVuSans-Oblique-64" d="M 2675 525 
Q 2444 222 2128 65 
Q 1813 -91 1428 -91 
Q 903 -91 598 267 
Q 294 625 294 1247 
Q 294 1766 478 2236 
Q 663 2706 1013 3078 
Q 1244 3325 1534 3454 
Q 1825 3584 2144 3584 
Q 2481 3584 2739 3421 
Q 2997 3259 3138 2956 
L 3513 4863 
L 4091 4863 
L 3144 0 
L 2566 0 
L 2675 525 
z
M 891 1350 
Q 891 897 1095 644 
Q 1300 391 1663 391 
Q 1931 391 2161 520 
Q 2391 650 2566 903 
Q 2750 1166 2856 1509 
Q 2963 1853 2963 2188 
Q 2963 2622 2758 2865 
Q 2553 3109 2194 3109 
Q 1922 3109 1687 2981 
Q 1453 2853 1288 2613 
Q 1106 2353 998 2009 
Q 891 1666 891 1350 
z
" transform="scale(0.015625)"/>
      <path id="DejaVuSans-Oblique-63" d="M 3431 3366 
L 3316 2797 
Q 3109 2947 2876 3022 
Q 2644 3097 2394 3097 
Q 2119 3097 1870 3000 
Q 1622 2903 1453 2725 
Q 1184 2453 1037 2087 
Q 891 1722 891 1331 
Q 891 859 1127 628 
Q 1363 397 1844 397 
Q 2081 397 2348 469 
Q 2616 541 2906 684 
L 2797 116 
Q 2547 13 2283 -39 
Q 2019 -91 1741 -91 
Q 1044 -91 669 257 
Q 294 606 294 1253 
Q 294 1797 489 2255 
Q 684 2713 1069 3078 
Q 1331 3328 1684 3456 
Q 2038 3584 2456 3584 
Q 2700 3584 2940 3529 
Q 3181 3475 3431 3366 
z
" transform="scale(0.015625)"/>
     </defs>
     <use xlink:href="#DejaVuSans-Oblique-56" transform="translate(0 0.09375)"/>
     <use xlink:href="#DejaVuSans-Oblique-64" transform="translate(68.408203 -16.3125) scale(0.7)"/>
     <use xlink:href="#DejaVuSans-Oblique-63" transform="translate(112.841797 -16.3125) scale(0.7)"/>
    </g>
   </g>
   <g id="text_8">
    <!-- t = 0 -->
    <g transform="translate(122.367688 15.558281) scale(0.11 -0.11)">
     <defs>
      <path id="DejaVuSans-74" d="M 1172 4494 
L 1172 3500 
L 2356 3500 
L 2356 3053 
L 1172 3053 
L 1172 1153 
Q 1172 725 1289 603 
Q 1406 481 1766 481 
L 2356 481 
L 2356 0 
L 1766 0 
Q 1100 0 847 248 
Q 594 497 594 1153 
L 594 3053 
L 172 3053 
L 172 3500 
L 594 3500 
L 594 4494 
L 1172 4494 
z
" transform="scale(0.015625)"/>
      <path id="DejaVuSans-20" transform="scale(0.015625)"/>
      <path id="DejaVuSans-3d" d="M 678 2906 
L 4684 2906 
L 4684 2381 
L 678 2381 
L 678 2906 
z
M 678 1631 
L 4684 1631 
L 4684 1100 
L 678 1100 
L 678 1631 
z
" transform="scale(0.015625)"/>
      <path id="DejaVuSans-30" d="M 2034 4250 
Q 1547 4250 1301 3770 
Q 1056 3291 1056 2328 
Q 1056 1369 1301 889 
Q 1547 409 2034 409 
Q 2525 409 2770 889 
Q 3016 1369 3016 2328 
Q 3016 3291 2770 3770 
Q 2525 4250 2034 4250 
z
M 2034 4750 
Q 2819 4750 3233 4129 
Q 3647 3509 3647 2328 
Q 3647 1150 3233 529 
Q 2819 -91 2034 -91 
Q 1250 -91 836 529 
Q 422 1150 422 2328 
Q 422 3509 836 4129 
Q 1250 4750 2034 4750 
z
" transform="scale(0.015625)"/>
     </defs>
     <use xlink:href="#DejaVuSans-74"/>
     <use xlink:href="#DejaVuSans-20" transform="translate(39.208984 0)"/>
     <use xlink:href="#DejaVuSans-3d" transform="translate(70.996094 0)"/>
     <use xlink:href="#DejaVuSans-20" transform="translate(154.785156 0)"/>
     <use xlink:href="#DejaVuSans-30" transform="translate(186.572266 0)"/>
    </g>
    <!-- (opens) -->
    <g transform="translate(115.244328 27.875875) scale(0.11 -0.11)">
     <defs>
      <path id="DejaVuSans-28" d="M 1984 4856 
Q 1566 4138 1362 3434 
Q 1159 2731 1159 2009 
Q 1159 1288 1364 580 
Q 1569 -128 1984 -844 
L 1484 -844 
Q 1016 -109 783 600 
Q 550 1309 550 2009 
Q 550 2706 781 3412 
Q 1013 4119 1484 4856 
L 1984 4856 
z
" transform="scale(0.015625)"/>
      <path id="DejaVuSans-6f" d="M 1959 3097 
Q 1497 3097 1228 2736 
Q 959 2375 959 1747 
Q 959 1119 1226 758 
Q 1494 397 1959 397 
Q 2419 397 2687 759 
Q 2956 1122 2956 1747 
Q 2956 2369 2687 2733 
Q 2419 3097 1959 3097 
z
M 1959 3584 
Q 2709 3584 3137 3096 
Q 3566 2609 3566 1747 
Q 3566 888 3137 398 
Q 2709 -91 1959 -91 
Q 1206 -91 779 398 
Q 353 888 353 1747 
Q 353 2609 779 3096 
Q 1206 3584 1959 3584 
z
" transform="scale(0.015625)"/>
      <path id="DejaVuSans-70" d="M 1159 525 
L 1159 -1331 
L 581 -1331 
L 581 3500 
L 1159 3500 
L 1159 2969 
Q 1341 3281 1617 3432 
Q 1894 3584 2278 3584 
Q 2916 3584 3314 3078 
Q 3713 2572 3713 1747 
Q 3713 922 3314 415 
Q 2916 -91 2278 -91 
Q 1894 -91 1617 61 
Q 1341 213 1159 525 
z
M 3116 1747 
Q 3116 2381 2855 2742 
Q 2594 3103 2138 3103 
Q 1681 3103 1420 2742 
Q 1159 2381 1159 1747 
Q 1159 1113 1420 752 
Q 1681 391 2138 391 
Q 2594 391 2855 752 
Q 3116 1113 3116 1747 
z
" transform="scale(0.015625)"/>
      <path id="DejaVuSans-65" d="M 3597 1894 
L 3597 1613 
L 953 1613 
Q 991 1019 1311 708 
Q 1631 397 2203 397 
Q 2534 397 2845 478 
Q 3156 559 3463 722 
L 3463 178 
Q 3153 47 2828 -22 
Q 2503 -91 2169 -91 
Q 1331 -91 842 396 
Q 353 884 353 1716 
Q 353 2575 817 3079 
Q 1281 3584 2069 3584 
Q 2775 3584 3186 3129 
Q 3597 2675 3597 1894 
z
M 3022 2063 
Q 3016 2534 2758 2815 
Q 2500 3097 2075 3097 
Q 1594 3097 1305 2825 
Q 1016 2553 972 2059 
L 3022 2063 
z
" transform="scale(0.015625)"/>
      <path id="DejaVuSans-6e" d="M 3513 2113 
L 3513 0 
L 2938 0 
L 2938 2094 
Q 2938 2591 2744 2837 
Q 2550 3084 2163 3084 
Q 1697 3084 1428 2787 
Q 1159 2491 1159 1978 
L 1159 0 
L 581 0 
L 581 3500 
L 1159 3500 
L 1159 2956 
Q 1366 3272 1645 3428 
Q 1925 3584 2291 3584 
Q 2894 3584 3203 3211 
Q 3513 2838 3513 2113 
z
" transform="scale(0.015625)"/>
      <path id="DejaVuSans-73" d="M 2834 3397 
L 2834 2853 
Q 2591 2978 2328 3040 
Q 2066 3103 1784 3103 
Q 1356 3103 1142 2972 
Q 928 2841 928 2578 
Q 928 2378 1081 2264 
Q 1234 2150 1697 2047 
L 1894 2003 
Q 2506 1872 2764 1633 
Q 3022 1394 3022 966 
Q 3022 478 2636 193 
Q 2250 -91 1575 -91 
Q 1294 -91 989 -36 
Q 684 19 347 128 
L 347 722 
Q 666 556 975 473 
Q 1284 391 1588 391 
Q 1994 391 2212 530 
Q 2431 669 2431 922 
Q 2431 1156 2273 1281 
Q 2116 1406 1581 1522 
L 1381 1569 
Q 847 1681 609 1914 
Q 372 2147 372 2553 
Q 372 3047 722 3315 
Q 1072 3584 1716 3584 
Q 2034 3584 2315 3537 
Q 2597 3491 2834 3397 
z
" transform="scale(0.015625)"/>
      <path id="DejaVuSans-29" d="M 513 4856 
L 1013 4856 
Q 1481 4119 1714 3412 
Q 1947 2706 1947 2009 
Q 1947 1309 1714 600 
Q 1481 -109 1013 -844 
L 513 -844 
Q 928 -128 1133 580 
Q 1338 1288 1338 2009 
Q 1338 2731 1133 3434 
Q 928 4138 513 4856 
z
" transform="scale(0.015625)"/>
     </defs>
     <use xlink:href="#DejaVuSans-28"/>
     <use xlink:href="#DejaVuSans-6f" transform="translate(39.013672 0)"/>
     <use xlink:href="#DejaVuSans-70" transform="translate(100.195312 0)"/>
     <use xlink:href="#DejaVuSans-65" transform="translate(163.671875 0)"/>
     <use xlink:href="#DejaVuSans-6e" transform="translate(225.195312 0)"/>
     <use xlink:href="#DejaVuSans-73" transform="translate(288.574219 0)"/>
     <use xlink:href="#DejaVuSans-29" transform="translate(340.673828 0)"/>
    </g>
   </g>
   <g id="text_9">
    <!-- t = 0 -->
    <g transform="translate(187.167687 15.558281) scale(0.11 -0.11)">
     <use xlink:href="#DejaVuSans-74"/>
     <use xlink:href="#DejaVuSans-20" transform="translate(39.208984 0)"/>
     <use xlink:href="#DejaVuSans-3d" transform="translate(70.996094 0)"/>
     <use xlink:href="#DejaVuSans-20" transform="translate(154.785156 0)"/>
     <use xlink:href="#DejaVuSans-30" transform="translate(186.572266 0)"/>
    </g>
    <!-- (closes) -->
    <g transform="translate(179.604328 27.875875) scale(0.11 -0.11)">
     <defs>
      <path id="DejaVuSans-63" d="M 3122 3366 
L 3122 2828 
Q 2878 2963 2633 3030 
Q 2388 3097 2138 3097 
Q 1578 3097 1268 2742 
Q 959 2388 959 1747 
Q 959 1106 1268 751 
Q 1578 397 2138 397 
Q 2388 397 2633 464 
Q 2878 531 3122 666 
L 3122 134 
Q 2881 22 2623 -34 
Q 2366 -91 2075 -91 
Q 1284 -91 818 406 
Q 353 903 353 1747 
Q 353 2603 823 3093 
Q 1294 3584 2113 3584 
Q 2378 3584 2631 3529 
Q 2884 3475 3122 3366 
z
" transform="scale(0.015625)"/>
      <path id="DejaVuSans-6c" d="M 603 4863 
L 1178 4863 
L 1178 0 
L 603 0 
L 603 4863 
z
" transform="scale(0.015625)"/>
     </defs>
     <use xlink:href="#DejaVuSans-28"/>
     <use xlink:href="#DejaVuSans-63" transform="translate(39.013672 0)"/>
     <use xlink:href="#DejaVuSans-6c" transform="translate(93.994141 0)"/>
     <use xlink:href="#DejaVuSans-6f" transform="translate(121.777344 0)"/>
     <use xlink:href="#DejaVuSans-73" transform="translate(182.958984 0)"/>
     <use xlink:href="#DejaVuSans-65" transform="translate(235.058594 0)"/>
     <use xlink:href="#DejaVuSans-73" transform="translate(296.582031 0)"/>
     <use xlink:href="#DejaVuSans-29" transform="translate(348.681641 0)"/>
    </g>
   </g>
   <g id="text_10">
    <!-- t = 0 -->
    <g transform="translate(251.967688 15.558281) scale(0.11 -0.11)">
     <use xlink:href="#DejaVuSans-74"/>
     <use xlink:href="#DejaVuSans-20" transform="translate(39.208984 0)"/>
     <use xlink:href="#DejaVuSans-3d" transform="translate(70.996094 0)"/>
     <use xlink:href="#DejaVuSans-20" transform="translate(154.785156 0)"/>
     <use xlink:href="#DejaVuSans-30" transform="translate(186.572266 0)"/>
    </g>
    <!-- (closes) -->
    <g transform="translate(244.404328 27.875875) scale(0.11 -0.11)">
     <use xlink:href="#DejaVuSans-28"/>
     <use xlink:href="#DejaVuSans-63" transform="translate(39.013672 0)"/>
     <use xlink:href="#DejaVuSans-6c" transform="translate(93.994141 0)"/>
     <use xlink:href="#DejaVuSans-6f" transform="translate(121.777344 0)"/>
     <use xlink:href="#DejaVuSans-73" transform="translate(182.958984 0)"/>
     <use xlink:href="#DejaVuSans-65" transform="translate(235.058594 0)"/>
     <use xlink:href="#DejaVuSans-73" transform="translate(296.582031 0)"/>
     <use xlink:href="#DejaVuSans-29" transform="translate(348.681641 0)"/>
    </g>
   </g>
   <g id="text_11">
    <!-- t = 0 -->
    <g transform="translate(316.767687 15.558281) scale(0.11 -0.11)">
     <use xlink:href="#DejaVuSans-74"/>
     <use xlink:href="#DejaVuSans-20" transform="translate(39.208984 0)"/>
     <use xlink:href="#DejaVuSans-3d" transform="translate(70.996094 0)"/>
     <use xlink:href="#DejaVuSans-20" transform="translate(154.785156 0)"/>
     <use xlink:href="#DejaVuSans-30" transform="translate(186.572266 0)"/>
    </g>
    <!-- (opens) -->
    <g transform="translate(309.644328 27.875875) scale(0.11 -0.11)">
     <use xlink:href="#DejaVuSans-28"/>
     <use xlink:href="#DejaVuSans-6f" transform="translate(39.013672 0)"/>
     <use xlink:href="#DejaVuSans-70" transform="translate(100.195312 0)"/>
     <use xlink:href="#DejaVuSans-65" transform="translate(163.671875 0)"/>
     <use xlink:href="#DejaVuSans-6e" transform="translate(225.195312 0)"/>
     <use xlink:href="#DejaVuSans-73" transform="translate(288.574219 0)"/>
     <use xlink:href="#DejaVuSans-29" transform="translate(340.673828 0)"/>
    </g>
   </g>
   <g id="text_12">
    <!-- + -->
    <g transform="translate(213.062219 79.386656) scale(0.14 -0.14)">
     <defs>
      <path id="DejaVuSans-2b" d="M 2944 4013 
L 2944 2272 
L 4684 2272 
L 4684 1741 
L 2944 1741 
L 2944 0 
L 2419 0 
L 2419 1741 
L 678 1741 
L 678 2272 
L 2419 2272 
L 2419 4013 
L 2944 4013 
z
" transform="scale(0.015625)"/>
     </defs>
     <use xlink:href="#DejaVuSans-2b"/>
    </g>
   </g>
   <g id="text_13">
    <!-- $v_o(t)$ -->
    <g transform="translate(197.298 122.310719) scale(0.13 -0.13)">
     <defs>
      <path id="DejaVuSans-Oblique-76" d="M 459 3500 
L 1069 3500 
L 1581 525 
L 3256 3500 
L 3866 3500 
L 1875 0 
L 1100 0 
L 459 3500 
z
" transform="scale(0.015625)"/>
      <path id="DejaVuSans-Oblique-6f" d="M 1625 -91 
Q 1009 -91 651 289 
Q 294 669 294 1325 
Q 294 1706 417 2101 
Q 541 2497 738 2766 
Q 1047 3184 1428 3384 
Q 1809 3584 2291 3584 
Q 2888 3584 3255 3212 
Q 3622 2841 3622 2241 
Q 3622 1825 3500 1412 
Q 3378 1000 3181 728 
Q 2875 309 2494 109 
Q 2113 -91 1625 -91 
z
M 891 1344 
Q 891 869 1089 633 
Q 1288 397 1691 397 
Q 2269 397 2648 901 
Q 3028 1406 3028 2181 
Q 3028 2634 2825 2865 
Q 2622 3097 2228 3097 
Q 1903 3097 1650 2945 
Q 1397 2794 1197 2484 
Q 1050 2253 970 1956 
Q 891 1659 891 1344 
z
" transform="scale(0.015625)"/>
      <path id="DejaVuSans-Oblique-74" d="M 2706 3500 
L 2619 3053 
L 1472 3053 
L 1100 1153 
Q 1081 1047 1072 975 
Q 1063 903 1063 863 
Q 1063 663 1183 572 
Q 1303 481 1569 481 
L 2150 481 
L 2053 0 
L 1503 0 
Q 991 0 739 200 
Q 488 400 488 806 
Q 488 878 497 964 
Q 506 1050 525 1153 
L 897 3053 
L 409 3053 
L 500 3500 
L 978 3500 
L 1172 4494 
L 1747 4494 
L 1556 3500 
L 2706 3500 
z
" transform="scale(0.015625)"/>
     </defs>
     <use xlink:href="#DejaVuSans-Oblique-76" transform="translate(0 0.125)"/>
     <use xlink:href="#DejaVuSans-Oblique-6f" transform="translate(59.179688 -16.28125) scale(0.7)"/>
     <use xlink:href="#DejaVuSans-28" transform="translate(104.741211 0.125)"/>
     <use xlink:href="#DejaVuSans-Oblique-74" transform="translate(143.754883 0.125)"/>
     <use xlink:href="#DejaVuSans-29" transform="translate(182.963867 0.125)"/>
    </g>
   </g>
   <g id="text_14">
    <!-- − -->
    <g transform="translate(213.062219 165.786656) scale(0.14 -0.14)">
     <defs>
      <path id="DejaVuSans-2212" d="M 678 2272 
L 4684 2272 
L 4684 1741 
L 678 1741 
L 678 2272 
z
" transform="scale(0.015625)"/>
     </defs>
     <use xlink:href="#DejaVuSans-2212"/>
    </g>
   </g>
   <g id="patch_5">
    <path d="M 103.728 67.423531 
C 104.444048 67.423531 105.130866 67.139042 105.637188 66.63272 
C 106.143511 66.126397 106.428 65.43958 106.428 64.723531 
C 106.428 64.007483 106.143511 63.320666 105.637188 62.814343 
C 105.130866 62.30802 104.444048 62.023531 103.728 62.023531 
C 103.011952 62.023531 102.325134 62.30802 101.818812 62.814343 
C 101.312489 63.320666 101.028 64.007483 101.028 64.723531 
C 101.028 65.43958 101.312489 66.126397 101.818812 66.63272 
C 102.325134 67.139042 103.011952 67.423531 103.728 67.423531 
z
" clip-path="url(#p59bfe79e6c)" style="stroke: #000000; stroke-width: 2; stroke-linejoin: miter"/>
   </g>
   <g id="patch_6">
    <path d="M 168.528 67.423531 
C 169.244048 67.423531 169.930866 67.139042 170.437188 66.63272 
C 170.943511 66.126397 171.228 65.43958 171.228 64.723531 
C 171.228 64.007483 170.943511 63.320666 170.437188 62.814343 
C 169.930866 62.30802 169.244048 62.023531 168.528 62.023531 
C 167.811952 62.023531 167.125134 62.30802 166.618812 62.814343 
C 166.112489 63.320666 165.828 64.007483 165.828 64.723531 
C 165.828 65.43958 166.112489 66.126397 166.618812 66.63272 
C 167.125134 67.139042 167.811952 67.423531 168.528 67.423531 
z
" clip-path="url(#p59bfe79e6c)" style="stroke: #000000; stroke-width: 2; stroke-linejoin: miter"/>
   </g>
   <g id="patch_7">
    <path d="M 233.328 67.423531 
C 234.044048 67.423531 234.730866 67.139042 235.237188 66.63272 
C 235.743511 66.126397 236.028 65.43958 236.028 64.723531 
C 236.028 64.007483 235.743511 63.320666 235.237188 62.814343 
C 234.730866 62.30802 234.044048 62.023531 233.328 62.023531 
C 232.611952 62.023531 231.925134 62.30802 231.418812 62.814343 
C 230.912489 63.320666 230.628 64.007483 230.628 64.723531 
C 230.628 65.43958 230.912489 66.126397 231.418812 66.63272 
C 231.925134 67.139042 232.611952 67.423531 233.328 67.423531 
z
" clip-path="url(#p59bfe79e6c)" style="stroke: #000000; stroke-width: 2; stroke-linejoin: miter"/>
   </g>
   <g id="patch_8">
    <path d="M 298.128 67.423531 
C 298.844048 67.423531 299.530866 67.139042 300.037188 66.63272 
C 300.543511 66.126397 300.828 65.43958 300.828 64.723531 
C 300.828 64.007483 300.543511 63.320666 300.037188 62.814343 
C 299.530866 62.30802 298.844048 62.023531 298.128 62.023531 
C 297.411952 62.023531 296.725134 62.30802 296.218812 62.814343 
C 295.712489 63.320666 295.428 64.007483 295.428 64.723531 
C 295.428 65.43958 295.712489 66.126397 296.218812 66.63272 
C 296.725134 67.139042 297.411952 67.423531 298.128 67.423531 
z
" clip-path="url(#p59bfe79e6c)" style="stroke: #000000; stroke-width: 2; stroke-linejoin: miter"/>
   </g>
   <g id="line2d_26">
    <path d="M 114.528 64.723531 
L 157.728 64.723531 
" clip-path="url(#p59bfe79e6c)" style="fill: none; stroke: #000000; stroke-width: 1.5; stroke-linecap: square"/>
   </g>
   <g id="line2d_27">
    <path d="M 179.328 64.723531 
L 213.888 47.443531 
" clip-path="url(#p59bfe79e6c)" style="fill: none; stroke: #000000; stroke-width: 1.5; stroke-linecap: square"/>
   </g>
   <g id="line2d_28">
    <path d="M 244.128 64.723531 
L 278.688 47.443531 
" clip-path="url(#p59bfe79e6c)" style="fill: none; stroke: #000000; stroke-width: 1.5; stroke-linecap: square"/>
   </g>
   <g id="line2d_29">
    <path d="M 308.928 64.723531 
L 352.128 64.723531 
" clip-path="url(#p59bfe79e6c)" style="fill: none; stroke: #000000; stroke-width: 1.5; stroke-linecap: square"/>
   </g>
   <g id="line2d_30">
    <defs>
     <path id="m3e22fb0c92" d="M 0 2.5 
C 0.663008 2.5 1.29895 2.236584 1.767767 1.767767 
C 2.236584 1.29895 2.5 0.663008 2.5 0 
C 2.5 -0.663008 2.236584 -1.29895 1.767767 -1.767767 
C 1.29895 -2.236584 0.663008 -2.5 0 -2.5 
C -0.663008 -2.5 -1.29895 -2.236584 -1.767767 -1.767767 
C -2.236584 -1.29895 -2.5 -0.663008 -2.5 0 
C -2.5 0.663008 -2.236584 1.29895 -1.767767 1.767767 
C -1.29895 2.236584 -0.663008 2.5 0 2.5 
z
" style="stroke: #000000"/>
    </defs>
    <g clip-path="url(#p59bfe79e6c)">
     <use xlink:href="#m3e22fb0c92" x="114.528" y="64.723531" style="stroke: #000000"/>
    </g>
   </g>
   <g id="line2d_31">
    <defs>
     <path id="m59800d2789" d="M 0 2.5 
C 0.663008 2.5 1.29895 2.236584 1.767767 1.767767 
C 2.236584 1.29895 2.5 0.663008 2.5 0 
C 2.5 -0.663008 2.236584 -1.29895 1.767767 -1.767767 
C 1.29895 -2.236584 0.663008 -2.5 0 -2.5 
C -0.663008 -2.5 -1.29895 -2.236584 -1.767767 -1.767767 
C -2.236584 -1.29895 -2.5 -0.663008 -2.5 0 
C -2.5 0.663008 -2.236584 1.29895 -1.767767 1.767767 
C -1.29895 2.236584 -0.663008 2.5 0 2.5 
z
" style="stroke: #000000; stroke-width: 1.5"/>
    </defs>
    <g clip-path="url(#p59bfe79e6c)">
     <use xlink:href="#m59800d2789" x="157.728" y="64.723531" style="fill: #ffffff; stroke: #000000; stroke-width: 1.5"/>
    </g>
   </g>
   <g id="line2d_32">
    <g clip-path="url(#p59bfe79e6c)">
     <use xlink:href="#m3e22fb0c92" x="179.328" y="64.723531" style="stroke: #000000"/>
    </g>
   </g>
   <g id="line2d_33">
    <g clip-path="url(#p59bfe79e6c)">
     <use xlink:href="#m59800d2789" x="222.528" y="64.723531" style="fill: #ffffff; stroke: #000000; stroke-width: 1.5"/>
    </g>
   </g>
   <g id="line2d_34">
    <g clip-path="url(#p59bfe79e6c)">
     <use xlink:href="#m3e22fb0c92" x="244.128" y="64.723531" style="stroke: #000000"/>
    </g>
   </g>
   <g id="line2d_35">
    <g clip-path="url(#p59bfe79e6c)">
     <use xlink:href="#m59800d2789" x="287.328" y="64.723531" style="fill: #ffffff; stroke: #000000; stroke-width: 1.5"/>
    </g>
   </g>
   <g id="line2d_36">
    <g clip-path="url(#p59bfe79e6c)">
     <use xlink:href="#m3e22fb0c92" x="308.928" y="64.723531" style="stroke: #000000"/>
    </g>
   </g>
   <g id="line2d_37">
    <g clip-path="url(#p59bfe79e6c)">
     <use xlink:href="#m59800d2789" x="352.128" y="64.723531" style="fill: #ffffff; stroke: #000000; stroke-width: 1.5"/>
    </g>
   </g>
  </g>
 </g>
 <defs>
  <clipPath id="p59bfe79e6c">
   <rect x="7.2" y="31.643531" width="508.644" height="145.76"/>
  </clipPath>
 </defs>
</svg>
