<svg xmlns="http://www.w3.org/2000/svg" xmlns:xlink="http://www.w3.org/1999/xlink" xml:lang="en" height="200.60000000000002pt" width="765.1999999999999pt" viewBox="-22.599999999999994 -165.8 765.1999999999999 200.60000000000002"><circle cx="3.3065463576978533e-15" cy="-54.0" r="18.0" style="stroke:black;fill:none;stroke-width:2.0;stroke-dasharray:-;" /><circle cx="720.0" cy="-54.0" r="18.0" style="stroke:black;fill:none;stroke-width:2.0;stroke-dasharray:-;" /><path d="M 0.0,-0.0 L 2.204364238465236e-15,-36.0 L 2.204364238465236e-15,-36.0 M 4.408728476930472e-15,-72.0 L 4.408728476930472e-15,-72.0 L 6.613092715395707e-15,-108.0" style="stroke:black;fill:none;stroke-width:2.0;stroke-dasharray:-;stroke-linecap:round;stroke-linejoin:round;" /><path d="M 2.7554552980815448e-15,-45.0 L 3.3065463576978533e-15,-54.0" style="stroke:black;fill:none;stroke-width:2.0;stroke-dasharray:-;stroke-linecap:round;stroke-linejoin:round;" /><path d="M 3.7351727373994275e-15 -61.0 L 2.700000000000003 -54.0 L -2.6999999999999966 -54.0 Z" style="stroke:black;fill:black;stroke-linecap:butt;stroke-linejoin:miter;" /><path d="M 6.613092715395707e-15,-108.0 L 27.000000000000007,-108.0 L 54.00000000000001,-108.0" style="stroke:black;fill:none;stroke-width:2.0;stroke-dasharray:-;stroke-linecap:round;stroke-linejoin:round;" /><path d="M 54.00000000000001,-108.0 L 54.0,-72.0 L 63.0,-69.0 L 45.0,-63.0 L 63.0,-57.00000000000001 L 45.0,-51.0 L 63.0,-45.0 L 45.0,-39.00000000000001 L 53.99999999999999,-36.0 L 53.99999999999999,-0.0" style="stroke:black;fill:none;stroke-width:2.0;stroke-dasharray:-;stroke-linecap:round;stroke-linejoin:round;" /><path d="M 54.00000000000001,-108.0 L 63.00000000000001,-108.0 L 72.0,-108.0" style="stroke:black;fill:none;stroke-width:2.0;stroke-dasharray:-;stroke-linecap:round;stroke-linejoin:round;" /><path d="M 72.0,-108.0 L 108.0,-108.0 M 116.64000000000001,-111.60000000000001 L 136.79999999999998,-124.2 M 144.0,-108.0 L 180.0,-108.0" style="stroke:black;fill:none;stroke-width:2.0;stroke-dasharray:-;stroke-linecap:round;stroke-linejoin:round;" /><path d="M 180.0,-108.0 L 189.0,-108.0 L 198.0,-108.0" style="stroke:black;fill:none;stroke-width:2.0;stroke-dasharray:-;stroke-linecap:round;stroke-linejoin:round;" /><path d="M 198.0,-108.0 L 198.0,-72.0 L 199.46291178988213,-71.96683381018038 L 200.9641865610387,-71.86593035405704 L 202.47218015806695,-71.69625942711579 L 203.95510680487357,-71.45824031868261 L 205.38170909131367,-71.15373297406344 L 206.7219168228317,-70.78599879026298 L 207.9474808457466,-70.35963187163772 L 209.03256848829025,-69.88046219448992 L 209.95430806658047,-69.35543272171728 L 210.6932709783277,-68.79245305771933 L 211.23388122261233,-68.2002327282503 L 211.56474371379701,-67.58809759937733 L 211.67888446931107,-66.96579330510032 L 211.57389760858243,-66.3432798270233 L 211.25199606464636,-65.73052155596625 L 210.71996493952173,-65.13727726063861 L 209.98901848653907,-64.57289439045485 L 209.0745637341742,-64.04611204821627 L 207.9958757337692,-63.56487678563868 L 206.7756912763309,-63.13617510442267 L 205.43972964212233,-62.765886193440785 L 204.01615048477723,-62.45865800607542 L 202.53496027676056,-62.21780928977256 L 201.0273798272299,-62.04525963285147 L 199.52518620387698,-61.94148900305662 L 198.06004292984596,-61.90552763070623 L 196.6628325739653,-61.93497644968227 L 195.3630058020831,-62.026057665402675 L 194.18796061032666,-62.17369438389475 L 193.16246482492426,-62.371617623532714 L 192.3081340412497,-62.612498453825744 L 191.64297600618795,-62.88810247600997 L 191.18101104741868,-63.18946338927309 L 190.93197655028047,-63.50707198414965 L 190.90112171130914,-63.83107657944831 L 191.089096894674,-64.15149067786334 L 191.49193992367782,-64.45840346326578 L 192.10115959627188,-64.74218870277241 L 192.90391466422875,-64.99370765031485 L 193.88328450341706,-65.2045016748688 L 195.01862576993773,-65.36697055308899 L 196.28600752445638,-65.47453266826346 L 197.6587156530979,-65.52176373888362 L 199.10781595262398,-65.5045111526823 L 200.6027640110767,-65.41998149618567 L 202.11204902870801,-65.26679943481416 L 203.60385800861545,-65.04503670244652 L 205.046746317146,-64.75621058939947 L 206.4103004798705,-64.40325196069362 L 207.66577924258678,-63.990443478722604 L 208.78671938494668,-63.523329332479925 L 209.7494935172522,-63.00859837608802 L 210.5338081030731,-62.453943139857785 L 211.12313121027069,-61.86789768567034 L 211.5050409742104,-61.25965772439625 L 211.6714874281892,-60.638886786951275 L 211.61896218216617,-60.01551253455224 L 211.3485723732754,-59.39951750158416 L 210.86601732937893,-58.80072868184018 L 210.18146843754914,-58.22861039327583 L 209.3093547496358,-57.69206478731352 L 208.26805884396455,-57.19924420760034 L 207.07952935385174,-56.75737935335677 L 205.7688183301334,-56.37262686932213 L 204.3635531892687,-56.04993957482483 L 202.89335437739706,-55.79296206731374 L 201.38921102493586,-55.603953900839386 L 199.88282775179053,-55.48374195874359 L 198.40595639134108,-55.43170302445497 L 196.98972671925395,-55.44577691776644 L 195.66399029414472,-55.52250991970581 L 194.45669124074348,-55.657127570681766 L 193.393277238314,-55.843635307451834 L 192.49616312962638,-56.074944817667685 L 191.7842584566344,-56.343023448671964 L 191.27256888155046,-56.63906352128018 L 190.97187989464123,-56.95366797971903 L 190.88852947561062,-57.2770484645569 L 191.02427450045718,-57.59923163360713 L 191.37625370970738,-57.91026938193316 L 191.93704801858738,-58.20044852989806 L 192.69483689790422,-58.46049555941385 L 193.6336475294102,-58.68177208292104 L 194.73369148390657,-58.85645692496598 L 195.97178182552068,-58.97771097842588 L 197.32182185035447,-59.039821360510615 L 198.75535515777673,-59.03832182999359 L 200.24216545985232,-58.9700869274946 L 201.75091348601126,-58.83339785450748 L 203.24979755815943,-58.6279787025623 L 204.70722391250285,-58.35500226887657 L 206.0924726389154,-58.01706533591219 L 207.3763452010516,-57.61813393590052 L 208.53177988865443,-57.16345975405993 L 209.5344222294349,-56.6594694325752 L 210.3631383372754,-56.11362910861007 L 211.000460376304,-55.53428704164701 L 211.4329547512642,-54.930497647284604 L 211.65150526339278,-54.31183064654208 L 211.65150526339278,-53.68816935345795 L 211.4329547512642,-53.06950235271542 L 211.00046037630403,-52.46571295835302 L 210.36313833727544,-51.886370891389944 L 209.53442222943494,-51.34053056742483 L 208.53177988865448,-50.836540245940085 L 207.37634520105172,-50.38186606409951 L 206.09247263891547,-49.98293466408783 L 204.70722391250294,-49.644997731123446 L 203.24979755815949,-49.37202129743771 L 201.7509134860113,-49.166602145492526 L 200.24216545985234,-49.02991307250541 L 198.7553551577768,-48.96167817000641 L 197.32182185035458,-48.960178639489385 L 195.97178182552076,-49.022289021574096 L 194.7336914839066,-49.14354307503401 L 193.63364752941027,-49.31822791707895 L 192.69483689790428,-49.539504440586136 L 191.93704801858738,-49.79955147010193 L 191.37625370970738,-50.089730618066824 L 191.02427450045718,-50.400768366392846 L 190.88852947561062,-50.72295153544307 L 190.97187989464123,-51.04633202028096 L 191.27256888155046,-51.36093647871981 L 191.78425845663438,-51.656976551328015 L 192.49616312962632,-51.9250551823323 L 193.39327723831394,-52.15636469254815 L 194.45669124074342,-52.342872429318234 L 195.66399029414467,-52.47749008029417 L 196.98972671925387,-52.55422308223356 L 198.40595639134102,-52.56829697554504 L 199.88282775179044,-52.51625804125641 L 201.38921102493578,-52.39604609916062 L 202.89335437739703,-52.20703793268627 L 204.36355318926863,-51.95006042517518 L 205.7688183301333,-51.62737313067788 L 207.07952935385168,-51.24262064664326 L 208.26805884396452,-50.80075579239968 L 209.30935474963576,-50.3079352126865 L 210.1814684375491,-49.7713896067242 L 210.8660173293789,-49.19927131815985 L 211.3485723732754,-48.600482498415865 L 211.61896218216617,-47.984487465447785 L 211.6714874281892,-47.36111321304877 L 211.5050409742104,-46.740342275603766 L 211.1231312102707,-46.13210231432968 L 210.53380810307314,-45.54605686014226 L 209.74949351725226,-44.99140162391202 L 208.7867193849467,-44.47667066752009 L 207.6657792425868,-44.00955652127741 L 206.41030047987059,-43.5967480393064 L 205.04674631714607,-43.24378941060054 L 203.60385800861548,-42.95496329755348 L 202.11204902870813,-42.733200565185854 L 200.60276401107677,-42.58001850381434 L 199.107815952624,-42.4954888473177 L 197.65871565309797,-42.478236261116386 L 196.28600752445644,-42.525467331736536 L 195.0186257699378,-42.63302944691101 L 193.8832845034171,-42.79549832513119 L 192.9039146642288,-43.00629234968515 L 192.10115959627194,-43.25781129722757 L 191.49193992367788,-43.5415965367342 L 191.089096894674,-43.84850932213664 L 190.90112171130914,-44.16892342055167 L 190.93197655028047,-44.49292801585034 L 191.18101104741865,-44.810536610726885 L 191.64297600618792,-45.11189752399002 L 192.30813404124964,-45.38750154617424 L 193.1624648249242,-45.62838237646728 L 194.18796061032663,-45.826305616105245 L 195.36300580208305,-45.973942334597325 L 196.6628325739652,-46.065023550317726 L 198.06004292984585,-46.09447236929377 L 199.52518620387693,-46.05851099694338 L 201.02737982722982,-45.95474036714854 L 202.53496027676047,-45.78219071022744 L 204.01615048477714,-45.5413419939246 L 205.43972964212227,-45.23411380655923 L 206.7756912763308,-44.863824895577345 L 207.99587573376908,-44.43512321436135 L 209.07456373417418,-43.95388795178375 L 209.98901848653904,-43.42710560954518 L 210.71996493952167,-42.86272273936142 L 211.25199606464633,-42.269478444033794 L 211.57389760858243,-41.65672017297672 L 211.67888446931107,-41.03420669489971 L 211.56474371379701,-40.41190240062271 L 211.23388122261233,-39.799767271749744 L 210.69327097832772,-39.20754694228069 L 209.9543080665805,-38.64456727828275 L 209.0325684882903,-38.11953780551011 L 207.94748084574664,-37.64036812836229 L 206.72191682283176,-37.214001209737035 L 205.38170909131372,-36.846267025936555 L 203.95510680487368,-36.5417596813174 L 202.47218015806698,-36.30374057288422 L 200.96418656103873,-36.134069645942965 L 199.4629117898822,-36.033166189819624 L 198.00000000000009,-36.0 L 198.00000000000006,-0.0" style="stroke:black;fill:none;stroke-width:2.0;stroke-dasharray:-;stroke-linecap:round;stroke-linejoin:round;" /><path d="M 198.0,-108.0 L 207.0,-108.0 L 216.0,-108.0" style="stroke:black;fill:none;stroke-width:2.0;stroke-dasharray:-;stroke-linecap:round;stroke-linejoin:round;" /><path d="M 216.0,-108.0 L 252.0,-108.0 M 260.64,-111.60000000000001 L 280.8,-124.2 M 288.0,-108.0 L 324.0,-108.0" style="stroke:black;fill:none;stroke-width:2.0;stroke-dasharray:-;stroke-linecap:round;stroke-linejoin:round;" /><path d="M 324.0,-108.0 L 333.0,-108.0 L 342.0,-108.0" style="stroke:black;fill:none;stroke-width:2.0;stroke-dasharray:-;stroke-linecap:round;stroke-linejoin:round;" /><path d="M 342.0,-108.0 L 342.0,-72.0 L 351.0,-69.0 L 333.0,-63.0 L 351.0,-57.00000000000001 L 333.0,-51.0 L 351.0,-45.0 L 333.0,-39.00000000000001 L 342.0,-36.0 L 342.0,-0.0" style="stroke:black;fill:none;stroke-width:2.0;stroke-dasharray:-;stroke-linecap:round;stroke-linejoin:round;" /><path d="M 342.0,-108.0 L 351.0,-108.0 L 360.0,-108.0" style="stroke:black;fill:none;stroke-width:2.0;stroke-dasharray:-;stroke-linecap:round;stroke-linejoin:round;" /><path d="M 360.0,-108.0 L 396.0,-108.0 M 404.64,-111.60000000000001 L 424.8,-124.2 M 432.0,-108.0 L 468.0,-108.0" style="stroke:black;fill:none;stroke-width:2.0;stroke-dasharray:-;stroke-linecap:round;stroke-linejoin:round;" /><path d="M 468.0,-108.0 L 477.0,-108.0 L 486.0,-108.0" style="stroke:black;fill:none;stroke-width:2.0;stroke-dasharray:-;stroke-linecap:round;stroke-linejoin:round;" /><path d="M 486.0,-108.0 L 486.0,-57.24 M 495.0,-57.24 L 477.0,-57.24 M 495.0,-50.760000000000005 L 477.0,-50.760000000000005 M 486.0,-50.760000000000005 L 486.0,-0.0" style="stroke:black;fill:none;stroke-width:2.0;stroke-dasharray:-;stroke-linecap:round;stroke-linejoin:round;" /><path d="M 486.0,-108.0 L 495.0,-108.0 L 504.0,-108.0" style="stroke:black;fill:none;stroke-width:2.0;stroke-dasharray:-;stroke-linecap:round;stroke-linejoin:round;" /><path d="M 504.0,-108.0 L 540.0,-108.0 M 548.64,-111.60000000000001 L 568.8000000000001,-124.2 M 576.0,-108.0 L 612.0,-108.0" style="stroke:black;fill:none;stroke-width:2.0;stroke-dasharray:-;stroke-linecap:round;stroke-linejoin:round;" /><path d="M 612.0,-108.0 L 648.0,-108.0 L 651.0,-117.0 L 657.0,-99.0 L 663.0,-117.0 L 669.0,-99.0 L 675.0,-117.0 L 681.0,-99.0 L 684.0,-108.0 L 720.0,-108.0" style="stroke:black;fill:none;stroke-width:2.0;stroke-dasharray:-;stroke-linecap:round;stroke-linejoin:round;" /><path d="M 720.0,-108.0 L 720.0,-72.0 L 720.0,-72.0 M 720.0,-36.0 L 720.0,-36.0 L 720.0,-0.0" style="stroke:black;fill:none;stroke-width:2.0;stroke-dasharray:-;stroke-linecap:round;stroke-linejoin:round;" /><path d="M 723.6,-45.0 L 716.4,-45.0" style="stroke:black;fill:none;stroke-width:2.0;stroke-dasharray:-;stroke-linecap:round;stroke-linejoin:round;" /><path d="M 720.0,-66.60000000000001 L 720.0,-59.4" style="stroke:black;fill:none;stroke-width:2.0;stroke-dasharray:-;stroke-linecap:round;stroke-linejoin:round;" /><path d="M 723.6,-63.0 L 716.4,-63.0" style="stroke:black;fill:none;stroke-width:2.0;stroke-dasharray:-;stroke-linecap:round;stroke-linejoin:round;" /><path d="M 0.0,-0.0 L 26.999999999999996,-0.0 L 53.99999999999999,-0.0" style="stroke:black;fill:none;stroke-width:2.0;stroke-dasharray:-;stroke-linecap:round;stroke-linejoin:round;" /><path d="M 53.99999999999999,-0.0 L 126.00000000000003,-0.0 L 198.00000000000006,-0.0" style="stroke:black;fill:none;stroke-width:2.0;stroke-dasharray:-;stroke-linecap:round;stroke-linejoin:round;" /><path d="M 198.00000000000006,-0.0 L 270.00000000000006,-0.0 L 342.0,-0.0" style="stroke:black;fill:none;stroke-width:2.0;stroke-dasharray:-;stroke-linecap:round;stroke-linejoin:round;" /><path d="M 342.0,-0.0 L 414.0,-0.0 L 486.0,-0.0" style="stroke:black;fill:none;stroke-width:2.0;stroke-dasharray:-;stroke-linecap:round;stroke-linejoin:round;" /><path d="M 486.0,-0.0 L 603.0,-0.0 L 720.0,-0.0" style="stroke:black;fill:none;stroke-width:2.0;stroke-dasharray:-;stroke-linecap:round;stroke-linejoin:round;" /><text x="-5.51091059616309e-16" y="-5.0" dominant-baseline="hanging" fill="black" font-size="14" font-family="sans" text-anchor="middle"><tspan x="-5.51091059616309e-16" dy="14">I<tspan baseline-shift="-2" font-size="smaller">s</tspan></tspan></text><text x="54.00000000000001" y="-129.2" dominant-baseline="ideographic" fill="black" font-size="14" font-family="sans" text-anchor="middle"><tspan x="54.00000000000001" dy="14">R<tspan baseline-shift="-2" font-size="smaller">a</tspan></tspan></text><circle cx="112.32000000000001" cy="-108.0" r="4.32" style="stroke:black;fill:white;stroke-width:2.0;stroke-dasharray:-;" /><circle cx="139.68" cy="-108.0" r="4.32" style="stroke:black;fill:white;stroke-width:2.0;stroke-dasharray:-;" /><text x="126.0" y="-161.20000000000002" dominant-baseline="ideographic" fill="black" font-size="14" font-family="sans" text-anchor="middle"><tspan x="126.0" dy="14">t{=}0</tspan><tspan x="126.0" dy="14">(opens)</tspan></text><text x="201.28370697246086" y="-129.2" dominant-baseline="ideographic" fill="black" font-size="14" font-family="sans" text-anchor="middle"><tspan x="201.28370697246086" dy="14">L</tspan></text><circle cx="256.32" cy="-108.0" r="4.32" style="stroke:black;fill:white;stroke-width:2.0;stroke-dasharray:-;" /><circle cx="283.68" cy="-108.0" r="4.32" style="stroke:black;fill:white;stroke-width:2.0;stroke-dasharray:-;" /><text x="270.0" y="-161.20000000000002" dominant-baseline="ideographic" fill="black" font-size="14" font-family="sans" text-anchor="middle"><tspan x="270.0" dy="14">t{=}0</tspan><tspan x="270.0" dy="14">(closes)</tspan></text><text x="342.0" y="-129.2" dominant-baseline="ideographic" fill="black" font-size="14" font-family="sans" text-anchor="middle"><tspan x="342.0" dy="14">R</tspan></text><text x="345.59999999999997" y="-105.8" dominant-baseline="hanging" fill="black" font-size="14" font-family="sans" text-anchor="middle"><tspan x="345.59999999999997" dy="14">+</tspan></text><text x="345.59999999999997" y="-42.8" dominant-baseline="hanging" fill="black" font-size="14" font-family="sans" text-anchor="middle"><tspan x="345.59999999999997" dy="14">v<tspan baseline-shift="-2" font-size="smaller">o</tspan>(t)</tspan></text><text x="345.59999999999997" y="2.1999999999999993" dominant-baseline="hanging" fill="black" font-size="14" font-family="sans" text-anchor="middle"><tspan x="345.59999999999997" dy="14">−</tspan></text><circle cx="400.32000000000005" cy="-108.0" r="4.32" style="stroke:black;fill:white;stroke-width:2.0;stroke-dasharray:-;" /><circle cx="427.67999999999995" cy="-108.0" r="4.32" style="stroke:black;fill:white;stroke-width:2.0;stroke-dasharray:-;" /><text x="414.0" y="-161.20000000000002" dominant-baseline="ideographic" fill="black" font-size="14" font-family="sans" text-anchor="middle"><tspan x="414.0" dy="14">t{=}0</tspan><tspan x="414.0" dy="14">(closes)</tspan></text><text x="486.0" y="-129.2" dominant-baseline="ideographic" fill="black" font-size="14" font-family="sans" text-anchor="middle"><tspan x="486.0" dy="14">C</tspan></text><circle cx="544.32" cy="-108.0" r="4.32" style="stroke:black;fill:white;stroke-width:2.0;stroke-dasharray:-;" /><circle cx="571.68" cy="-108.0" r="4.32" style="stroke:black;fill:white;stroke-width:2.0;stroke-dasharray:-;" /><text x="558.0" y="-161.20000000000002" dominant-baseline="ideographic" fill="black" font-size="14" font-family="sans" text-anchor="middle"><tspan x="558.0" dy="14">t{=}0</tspan><tspan x="558.0" dy="14">(opens)</tspan></text><text x="666.0" y="-136.39999999999998" dominant-baseline="ideographic" fill="black" font-size="14" font-family="sans" text-anchor="middle"><tspan x="666.0" dy="14">R<tspan baseline-shift="-2" font-size="smaller">b</tspan></tspan></text><text x="720.0" y="-129.2" dominant-baseline="ideographic" fill="black" font-size="14" font-family="sans" text-anchor="middle"><tspan x="720.0" dy="14">V<tspan baseline-shift="-2" font-size="smaller">dc</tspan></tspan></text><circle cx="54.00000000000001" cy="-108.0" r="2.6999999999999997" style="stroke:black;fill:black;stroke-width:2.0;stroke-dasharray:-;" /><circle cx="198.0" cy="-108.0" r="2.6999999999999997" style="stroke:black;fill:black;stroke-width:2.0;stroke-dasharray:-;" /><circle cx="342.0" cy="-108.0" r="2.6999999999999997" style="stroke:black;fill:black;stroke-width:2.0;stroke-dasharray:-;" /><circle cx="486.0" cy="-108.0" r="2.6999999999999997" style="stroke:black;fill:black;stroke-width:2.0;stroke-dasharray:-;" /></svg>