<?xml version="1.0" encoding="utf-8" standalone="no"?>
<!DOCTYPE svg PUBLIC "-//W3C//DTD SVG 1.1//EN"
  "http://www.w3.org/Graphics/SVG/1.1/DTD/svg11.dtd">
<svg xmlns:xlink="http://www.w3.org/1999/xlink" width="306.36pt" height="442.36pt" viewBox="0 0 306.36 442.36" xmlns="http://www.w3.org/2000/svg" version="1.1">
 <metadata>
  <rdf:RDF xmlns:dc="http://purl.org/dc/elements/1.1/" xmlns:cc="http://creativecommons.org/ns#" xmlns:rdf="http://www.w3.org/1999/02/22-rdf-syntax-ns#">
   <cc:Work>
    <dc:type rdf:resource="http://purl.org/dc/dcmitype/StillImage"/>
    <dc:date>2026-03-05T18:36:37.950928</dc:date>
    <dc:format>image/svg+xml</dc:format>
    <dc:creator>
     <cc:Agent>
      <dc:title>Matplotlib v3.10.8, https://matplotlib.org/</dc:title>
     </cc:Agent>
    </dc:creator>
   </cc:Work>
  </rdf:RDF>
 </metadata>
 <defs>
  <style type="text/css">*{stroke-linejoin: round; stroke-linecap: butt}</style>
 </defs>
 <g id="figure_1">
  <g id="patch_1">
   <path d="M 0 442.36 
L 306.36 442.36 
L 306.36 0 
L 0 0 
z
" style="fill: #ffffff"/>
  </g>
  <g id="axes_1">
   <g id="patch_2">
    <path d="M 22.68 140.68 
C 27.453656 140.68 32.032438 138.783406 35.407922 135.407922 
C 38.783406 132.032438 40.68 127.453656 40.68 122.68 
C 40.68 117.906344 38.783406 113.327562 35.407922 109.952078 
C 32.032438 106.576594 27.453656 104.68 22.68 104.68 
C 17.906344 104.68 13.327562 106.576594 9.952078 109.952078 
C 6.576594 113.327562 4.68 117.906344 4.68 122.68 
C 4.68 127.453656 6.576594 132.032438 9.952078 135.407922 
C 13.327562 138.783406 17.906344 140.68 22.68 140.68 
L 22.68 140.68 
z
" clip-path="url(#pb00f6a5598)" style="fill: none; stroke: #000000; stroke-width: 2; stroke-linejoin: miter"/>
   </g>
   <g id="patch_3">
    <path d="M 292.68 239.68 
C 293.873016 239.68 295.01839 239.205571 295.861981 238.361981 
C 296.705571 237.51839 297.18 236.373016 297.18 235.18 
C 297.18 233.986984 296.705571 232.84161 295.861981 231.998019 
C 295.01839 231.154429 293.873016 230.68 292.68 230.68 
" clip-path="url(#pb00f6a5598)" style="fill: none; stroke: #000000; stroke-width: 2; stroke-linejoin: miter"/>
   </g>
   <g id="patch_4">
    <path d="M 292.68 248.68 
C 293.873016 248.68 295.01839 248.205571 295.861981 247.361981 
C 296.705571 246.51839 297.18 245.373016 297.18 244.18 
C 297.18 242.986984 296.705571 241.84161 295.861981 240.998019 
C 295.01839 240.154429 293.873016 239.68 292.68 239.68 
" clip-path="url(#pb00f6a5598)" style="fill: none; stroke: #000000; stroke-width: 2; stroke-linejoin: miter"/>
   </g>
   <g id="patch_5">
    <path d="M 292.68 257.68 
C 293.873016 257.68 295.01839 257.205571 295.861981 256.361981 
C 296.705571 255.51839 297.18 254.373016 297.18 253.18 
C 297.18 251.986984 296.705571 250.84161 295.861981 249.998019 
C 295.01839 249.154429 293.873016 248.68 292.68 248.68 
" clip-path="url(#pb00f6a5598)" style="fill: none; stroke: #000000; stroke-width: 2; stroke-linejoin: miter"/>
   </g>
   <g id="patch_6">
    <path d="M 292.68 266.68 
C 293.873016 266.68 295.01839 266.205571 295.861981 265.361981 
C 296.705571 264.51839 297.18 263.373016 297.18 262.18 
C 297.18 260.986984 296.705571 259.84161 295.861981 258.998019 
C 295.01839 258.154429 293.873016 257.68 292.68 257.68 
" clip-path="url(#pb00f6a5598)" style="fill: none; stroke: #000000; stroke-width: 2; stroke-linejoin: miter"/>
   </g>
   <g id="line2d_1">
    <path d="M 22.68 185.68 
L 22.68 140.68 
L 22.68 140.68 
M 22.68 104.68 
L 22.68 104.68 
L 22.68 59.68 
" clip-path="url(#pb00f6a5598)" style="fill: none; stroke: #000000; stroke-width: 2; stroke-linecap: round"/>
   </g>
   <g id="line2d_2">
    <path d="M 26.28 131.68 
L 19.08 131.68 
" clip-path="url(#pb00f6a5598)" style="fill: none; stroke: #000000; stroke-width: 2; stroke-linecap: round"/>
   </g>
   <g id="line2d_3">
    <path d="M 22.68 117.28 
L 22.68 110.08 
" clip-path="url(#pb00f6a5598)" style="fill: none; stroke: #000000; stroke-width: 2; stroke-linecap: round"/>
   </g>
   <g id="line2d_4">
    <path d="M 26.28 113.68 
L 19.08 113.68 
" clip-path="url(#pb00f6a5598)" style="fill: none; stroke: #000000; stroke-width: 2; stroke-linecap: round"/>
   </g>
   <g id="line2d_5">
    <path d="M 22.68 59.68 
L 58.68 59.68 
L 94.68 59.68 
" clip-path="url(#pb00f6a5598)" style="fill: none; stroke: #000000; stroke-width: 2; stroke-linecap: round"/>
   </g>
   <g id="line2d_6">
    <path d="M 94.68 59.68 
L 139.68 59.68 
M 148.32 56.08 
L 168.48 43.48 
M 175.68 59.68 
L 220.68 59.68 
" clip-path="url(#pb00f6a5598)" style="fill: none; stroke: #000000; stroke-width: 2; stroke-linecap: round"/>
   </g>
   <g id="line2d_7">
    <path d="M 220.68 59.68 
L 256.68 59.68 
L 292.68 59.68 
" clip-path="url(#pb00f6a5598)" style="fill: none; stroke: #000000; stroke-width: 2; stroke-linecap: round"/>
   </g>
   <g id="line2d_8">
    <path d="M 292.68 59.68 
L 292.68 104.68 
L 301.68 107.68 
L 283.68 113.68 
L 301.68 119.68 
L 283.68 125.68 
L 301.68 131.68 
L 283.68 137.68 
L 292.68 140.68 
L 292.68 185.68 
" clip-path="url(#pb00f6a5598)" style="fill: none; stroke: #000000; stroke-width: 2; stroke-linecap: round"/>
   </g>
   <g id="line2d_9">
    <path d="M 292.68 185.68 
L 292.68 230.68 
M 292.68 266.68 
L 292.68 311.68 
" clip-path="url(#pb00f6a5598)" style="fill: none; stroke: #000000; stroke-width: 2; stroke-linecap: round"/>
   </g>
   <g id="line2d_10">
    <path d="M 292.68 311.68 
L 292.68 371.44 
M 301.68 371.44 
L 283.68 371.44 
M 301.68 377.92 
L 283.68 377.92 
M 292.68 377.92 
L 292.68 437.68 
" clip-path="url(#pb00f6a5598)" style="fill: none; stroke: #000000; stroke-width: 2; stroke-linecap: round"/>
   </g>
   <g id="line2d_11">
    <path d="M 292.68 437.68 
L 157.68 437.68 
L 22.68 437.68 
" clip-path="url(#pb00f6a5598)" style="fill: none; stroke: #000000; stroke-width: 2; stroke-linecap: round"/>
   </g>
   <g id="line2d_12">
    <path d="M 22.68 437.68 
L 22.68 311.68 
L 22.68 185.68 
" clip-path="url(#pb00f6a5598)" style="fill: none; stroke: #000000; stroke-width: 2; stroke-linecap: round"/>
   </g>
   <g id="text_1">
    <!-- $V_s$ -->
    <g transform="translate(15.12 207.117812) scale(0.14 -0.14)">
     <defs>
      <path id="DejaVuSans-Oblique-56" d="M 1319 0 
L 500 4666 
L 1119 4666 
L 1797 653 
L 4063 4666 
L 4750 4666 
L 2053 0 
L 1319 0 
z
" transform="scale(0.015625)"/>
      <path id="DejaVuSans-Oblique-73" d="M 3200 3397 
L 3091 2853 
Q 2863 2978 2609 3040 
Q 2356 3103 2088 3103 
Q 1634 3103 1373 2948 
Q 1113 2794 1113 2528 
Q 1113 2219 1719 2053 
Q 1766 2041 1788 2034 
L 1972 1978 
Q 2547 1819 2739 1644 
Q 2931 1469 2931 1166 
Q 2931 609 2489 259 
Q 2047 -91 1331 -91 
Q 1053 -91 747 -37 
Q 441 16 72 128 
L 184 722 
Q 500 559 806 475 
Q 1113 391 1394 391 
Q 1816 391 2080 572 
Q 2344 753 2344 1031 
Q 2344 1331 1650 1516 
L 1591 1531 
L 1394 1581 
Q 956 1697 753 1886 
Q 550 2075 550 2369 
Q 550 2928 970 3256 
Q 1391 3584 2113 3584 
Q 2397 3584 2667 3537 
Q 2938 3491 3200 3397 
z
" transform="scale(0.015625)"/>
     </defs>
     <use xlink:href="#DejaVuSans-Oblique-56" transform="translate(0 0.09375)"/>
     <use xlink:href="#DejaVuSans-Oblique-73" transform="translate(68.408203 -16.3125) scale(0.7)"/>
    </g>
   </g>
   <g id="patch_7">
    <path d="M 144 64 
C 145.145677 64 146.244585 63.544818 147.054701 62.734701 
C 147.864818 61.924585 148.32 60.825677 148.32 59.68 
C 148.32 58.534323 147.864818 57.435415 147.054701 56.625299 
C 146.244585 55.815182 145.145677 55.36 144 55.36 
C 142.854323 55.36 141.755415 55.815182 140.945299 56.625299 
C 140.135182 57.435415 139.68 58.534323 139.68 59.68 
C 139.68 60.825677 140.135182 61.924585 140.945299 62.734701 
C 141.755415 63.544818 142.854323 64 144 64 
z
" clip-path="url(#pb00f6a5598)" style="fill: #ffffff; stroke: #000000; stroke-width: 2; stroke-linejoin: miter"/>
   </g>
   <g id="patch_8">
    <path d="M 171.36 64 
C 172.505677 64 173.604585 63.544818 174.414701 62.734701 
C 175.224818 61.924585 175.68 60.825677 175.68 59.68 
C 175.68 58.534323 175.224818 57.435415 174.414701 56.625299 
C 173.604585 55.815182 172.505677 55.36 171.36 55.36 
C 170.214323 55.36 169.115415 55.815182 168.305299 56.625299 
C 167.495182 57.435415 167.04 58.534323 167.04 59.68 
C 167.04 60.825677 167.495182 61.924585 168.305299 62.734701 
C 169.115415 63.544818 170.214323 64 171.36 64 
z
" clip-path="url(#pb00f6a5598)" style="fill: #ffffff; stroke: #000000; stroke-width: 2; stroke-linejoin: miter"/>
   </g>
   <g id="text_2">
    <!-- $t = 0$ -->
    <g transform="translate(141.86 16.219062) scale(0.14 -0.14)">
     <defs>
      <path id="DejaVuSans-Oblique-74" d="M 2706 3500 
L 2619 3053 
L 1472 3053 
L 1100 1153 
Q 1081 1047 1072 975 
Q 1063 903 1063 863 
Q 1063 663 1183 572 
Q 1303 481 1569 481 
L 2150 481 
L 2053 0 
L 1503 0 
Q 991 0 739 200 
Q 488 400 488 806 
Q 488 878 497 964 
Q 506 1050 525 1153 
L 897 3053 
L 409 3053 
L 500 3500 
L 978 3500 
L 1172 4494 
L 1747 4494 
L 1556 3500 
L 2706 3500 
z
" transform="scale(0.015625)"/>
      <path id="DejaVuSans-3d" d="M 678 2906 
L 4684 2906 
L 4684 2381 
L 678 2381 
L 678 2906 
z
M 678 1631 
L 4684 1631 
L 4684 1100 
L 678 1100 
L 678 1631 
z
" transform="scale(0.015625)"/>
      <path id="DejaVuSans-30" d="M 2034 4250 
Q 1547 4250 1301 3770 
Q 1056 3291 1056 2328 
Q 1056 1369 1301 889 
Q 1547 409 2034 409 
Q 2525 409 2770 889 
Q 3016 1369 3016 2328 
Q 3016 3291 2770 3770 
Q 2525 4250 2034 4250 
z
M 2034 4750 
Q 2819 4750 3233 4129 
Q 3647 3509 3647 2328 
Q 3647 1150 3233 529 
Q 2819 -91 2034 -91 
Q 1250 -91 836 529 
Q 422 1150 422 2328 
Q 422 3509 836 4129 
Q 1250 4750 2034 4750 
z
" transform="scale(0.015625)"/>
     </defs>
     <use xlink:href="#DejaVuSans-Oblique-74" transform="translate(0 0.78125)"/>
     <use xlink:href="#DejaVuSans-3d" transform="translate(58.691406 0.78125)"/>
     <use xlink:href="#DejaVuSans-30" transform="translate(161.962891 0.78125)"/>
    </g>
    <!-- (opens) -->
    <g transform="translate(131.100781 29.768437) scale(0.14 -0.14)">
     <defs>
      <path id="DejaVuSans-28" d="M 1984 4856 
Q 1566 4138 1362 3434 
Q 1159 2731 1159 2009 
Q 1159 1288 1364 580 
Q 1569 -128 1984 -844 
L 1484 -844 
Q 1016 -109 783 600 
Q 550 1309 550 2009 
Q 550 2706 781 3412 
Q 1013 4119 1484 4856 
L 1984 4856 
z
" transform="scale(0.015625)"/>
      <path id="DejaVuSans-6f" d="M 1959 3097 
Q 1497 3097 1228 2736 
Q 959 2375 959 1747 
Q 959 1119 1226 758 
Q 1494 397 1959 397 
Q 2419 397 2687 759 
Q 2956 1122 2956 1747 
Q 2956 2369 2687 2733 
Q 2419 3097 1959 3097 
z
M 1959 3584 
Q 2709 3584 3137 3096 
Q 3566 2609 3566 1747 
Q 3566 888 3137 398 
Q 2709 -91 1959 -91 
Q 1206 -91 779 398 
Q 353 888 353 1747 
Q 353 2609 779 3096 
Q 1206 3584 1959 3584 
z
" transform="scale(0.015625)"/>
      <path id="DejaVuSans-70" d="M 1159 525 
L 1159 -1331 
L 581 -1331 
L 581 3500 
L 1159 3500 
L 1159 2969 
Q 1341 3281 1617 3432 
Q 1894 3584 2278 3584 
Q 2916 3584 3314 3078 
Q 3713 2572 3713 1747 
Q 3713 922 3314 415 
Q 2916 -91 2278 -91 
Q 1894 -91 1617 61 
Q 1341 213 1159 525 
z
M 3116 1747 
Q 3116 2381 2855 2742 
Q 2594 3103 2138 3103 
Q 1681 3103 1420 2742 
Q 1159 2381 1159 1747 
Q 1159 1113 1420 752 
Q 1681 391 2138 391 
Q 2594 391 2855 752 
Q 3116 1113 3116 1747 
z
" transform="scale(0.015625)"/>
      <path id="DejaVuSans-65" d="M 3597 1894 
L 3597 1613 
L 953 1613 
Q 991 1019 1311 708 
Q 1631 397 2203 397 
Q 2534 397 2845 478 
Q 3156 559 3463 722 
L 3463 178 
Q 3153 47 2828 -22 
Q 2503 -91 2169 -91 
Q 1331 -91 842 396 
Q 353 884 353 1716 
Q 353 2575 817 3079 
Q 1281 3584 2069 3584 
Q 2775 3584 3186 3129 
Q 3597 2675 3597 1894 
z
M 3022 2063 
Q 3016 2534 2758 2815 
Q 2500 3097 2075 3097 
Q 1594 3097 1305 2825 
Q 1016 2553 972 2059 
L 3022 2063 
z
" transform="scale(0.015625)"/>
      <path id="DejaVuSans-6e" d="M 3513 2113 
L 3513 0 
L 2938 0 
L 2938 2094 
Q 2938 2591 2744 2837 
Q 2550 3084 2163 3084 
Q 1697 3084 1428 2787 
Q 1159 2491 1159 1978 
L 1159 0 
L 581 0 
L 581 3500 
L 1159 3500 
L 1159 2956 
Q 1366 3272 1645 3428 
Q 1925 3584 2291 3584 
Q 2894 3584 3203 3211 
Q 3513 2838 3513 2113 
z
" transform="scale(0.015625)"/>
      <path id="DejaVuSans-73" d="M 2834 3397 
L 2834 2853 
Q 2591 2978 2328 3040 
Q 2066 3103 1784 3103 
Q 1356 3103 1142 2972 
Q 928 2841 928 2578 
Q 928 2378 1081 2264 
Q 1234 2150 1697 2047 
L 1894 2003 
Q 2506 1872 2764 1633 
Q 3022 1394 3022 966 
Q 3022 478 2636 193 
Q 2250 -91 1575 -91 
Q 1294 -91 989 -36 
Q 684 19 347 128 
L 347 722 
Q 666 556 975 473 
Q 1284 391 1588 391 
Q 1994 391 2212 530 
Q 2431 669 2431 922 
Q 2431 1156 2273 1281 
Q 2116 1406 1581 1522 
L 1381 1569 
Q 847 1681 609 1914 
Q 372 2147 372 2553 
Q 372 3047 722 3315 
Q 1072 3584 1716 3584 
Q 2034 3584 2315 3537 
Q 2597 3491 2834 3397 
z
" transform="scale(0.015625)"/>
      <path id="DejaVuSans-29" d="M 513 4856 
L 1013 4856 
Q 1481 4119 1714 3412 
Q 1947 2706 1947 2009 
Q 1947 1309 1714 600 
Q 1481 -109 1013 -844 
L 513 -844 
Q 928 -128 1133 580 
Q 1338 1288 1338 2009 
Q 1338 2731 1133 3434 
Q 928 4138 513 4856 
z
" transform="scale(0.015625)"/>
     </defs>
     <use xlink:href="#DejaVuSans-28"/>
     <use xlink:href="#DejaVuSans-6f" transform="translate(39.013672 0)"/>
     <use xlink:href="#DejaVuSans-70" transform="translate(100.195312 0)"/>
     <use xlink:href="#DejaVuSans-65" transform="translate(163.671875 0)"/>
     <use xlink:href="#DejaVuSans-6e" transform="translate(225.195312 0)"/>
     <use xlink:href="#DejaVuSans-73" transform="translate(288.574219 0)"/>
     <use xlink:href="#DejaVuSans-29" transform="translate(340.673828 0)"/>
    </g>
   </g>
   <g id="text_3">
    <!-- $R$ -->
    <g transform="translate(287.78 67.568437) scale(0.14 -0.14)">
     <defs>
      <path id="DejaVuSans-Oblique-52" d="M 1613 4147 
L 1294 2491 
L 2106 2491 
Q 2584 2491 2879 2755 
Q 3175 3019 3175 3444 
Q 3175 3784 2976 3965 
Q 2778 4147 2406 4147 
L 1613 4147 
z
M 2772 2241 
Q 2972 2194 3105 2009 
Q 3238 1825 3413 1275 
L 3809 0 
L 3144 0 
L 2778 1197 
Q 2638 1659 2453 1815 
Q 2269 1972 1888 1972 
L 1191 1972 
L 806 0 
L 172 0 
L 1081 4666 
L 2503 4666 
Q 3150 4666 3495 4373 
Q 3841 4081 3841 3531 
Q 3841 3044 3547 2687 
Q 3253 2331 2772 2241 
z
" transform="scale(0.015625)"/>
     </defs>
     <use xlink:href="#DejaVuSans-Oblique-52" transform="translate(0 0.09375)"/>
    </g>
   </g>
   <g id="text_4">
    <!-- $L$ -->
    <g transform="translate(291.009989 193.568437) scale(0.14 -0.14)">
     <defs>
      <path id="DejaVuSans-Oblique-4c" d="M 1075 4666 
L 1709 4666 
L 909 525 
L 3181 525 
L 3078 0 
L 172 0 
L 1075 4666 
z
" transform="scale(0.015625)"/>
     </defs>
     <use xlink:href="#DejaVuSans-Oblique-4c" transform="translate(0 0.09375)"/>
    </g>
   </g>
   <g id="text_5">
    <!-- $C$ -->
    <g transform="translate(287.78 319.568437) scale(0.14 -0.14)">
     <defs>
      <path id="DejaVuSans-Oblique-43" d="M 4447 4306 
L 4319 3641 
Q 4019 3944 3683 4091 
Q 3347 4238 2956 4238 
Q 2422 4238 2017 3981 
Q 1613 3725 1319 3200 
Q 1131 2863 1032 2486 
Q 934 2109 934 1728 
Q 934 1091 1264 756 
Q 1594 422 2222 422 
Q 2656 422 3056 561 
Q 3456 700 3834 978 
L 3688 231 
Q 3316 72 2936 -9 
Q 2556 -91 2175 -91 
Q 1278 -91 773 396 
Q 269 884 269 1753 
Q 269 2309 461 2846 
Q 653 3384 1013 3828 
Q 1394 4300 1883 4525 
Q 2372 4750 3022 4750 
Q 3422 4750 3780 4639 
Q 4138 4528 4447 4306 
z
" transform="scale(0.015625)"/>
     </defs>
     <use xlink:href="#DejaVuSans-Oblique-43" transform="translate(0 0.78125)"/>
    </g>
   </g>
   <g id="line2d_13">
    <path d="M 292.68 335.08 
L 292.68 335.08 
" clip-path="url(#pb00f6a5598)" style="fill: none; stroke: #000000; stroke-width: 2; stroke-linecap: round"/>
   </g>
   <g id="patch_9">
    <path d="M 298.08 335.08 
L 292.68 345.88 
L 287.28 335.08 
z
" clip-path="url(#pb00f6a5598)"/>
   </g>
   <g id="text_6">
    <!-- $v_C$ -->
    <g transform="translate(266.34 344.343125) scale(0.14 -0.14)">
     <defs>
      <path id="DejaVuSans-Oblique-76" d="M 459 3500 
L 1069 3500 
L 1581 525 
L 3256 3500 
L 3866 3500 
L 1875 0 
L 1100 0 
L 459 3500 
z
" transform="scale(0.015625)"/>
     </defs>
     <use xlink:href="#DejaVuSans-Oblique-76" transform="translate(0 0.3125)"/>
     <use xlink:href="#DejaVuSans-Oblique-43" transform="translate(59.179688 -16.09375) scale(0.7)"/>
    </g>
   </g>
   <g id="line2d_14">
    <path d="M 118.08 59.68 
L 118.08 59.68 
" clip-path="url(#pb00f6a5598)" style="fill: none; stroke: #000000; stroke-width: 2; stroke-linecap: round"/>
   </g>
   <g id="patch_10">
    <path d="M 118.08 54.28 
L 128.88 59.68 
L 118.08 65.08 
z
" clip-path="url(#pb00f6a5598)"/>
   </g>
   <g id="text_7">
    <!-- $i(t)$ -->
    <g transform="translate(113.26 45.968437) scale(0.14 -0.14)">
     <defs>
      <path id="DejaVuSans-Oblique-69" d="M 1172 4863 
L 1747 4863 
L 1606 4134 
L 1031 4134 
L 1172 4863 
z
M 909 3500 
L 1484 3500 
L 800 0 
L 225 0 
L 909 3500 
z
" transform="scale(0.015625)"/>
     </defs>
     <use xlink:href="#DejaVuSans-Oblique-69" transform="translate(0 0.015625)"/>
     <use xlink:href="#DejaVuSans-28" transform="translate(27.783203 0.015625)"/>
     <use xlink:href="#DejaVuSans-Oblique-74" transform="translate(66.796875 0.015625)"/>
     <use xlink:href="#DejaVuSans-29" transform="translate(106.005859 0.015625)"/>
    </g>
   </g>
  </g>
 </g>
 <defs>
  <clipPath id="pb00f6a5598">
   <rect x="0" y="0" width="306.36" height="442.36"/>
  </clipPath>
 </defs>
</svg>
