<?xml version="1.0" encoding="utf-8" standalone="no"?>
<!DOCTYPE svg PUBLIC "-//W3C//DTD SVG 1.1//EN"
  "http://www.w3.org/Graphics/SVG/1.1/DTD/svg11.dtd">
<svg xmlns:xlink="http://www.w3.org/1999/xlink" width="270.36pt" height="163.36pt" viewBox="0 0 270.36 163.36" xmlns="http://www.w3.org/2000/svg" version="1.1">
 <metadata>
  <rdf:RDF xmlns:dc="http://purl.org/dc/elements/1.1/" xmlns:cc="http://creativecommons.org/ns#" xmlns:rdf="http://www.w3.org/1999/02/22-rdf-syntax-ns#">
   <cc:Work>
    <dc:type rdf:resource="http://purl.org/dc/dcmitype/StillImage"/>
    <dc:date>2026-03-05T18:36:39.641849</dc:date>
    <dc:format>image/svg+xml</dc:format>
    <dc:creator>
     <cc:Agent>
      <dc:title>Matplotlib v3.10.8, https://matplotlib.org/</dc:title>
     </cc:Agent>
    </dc:creator>
   </cc:Work>
  </rdf:RDF>
 </metadata>
 <defs>
  <style type="text/css">*{stroke-linejoin: round; stroke-linecap: butt}</style>
 </defs>
 <g id="figure_1">
  <g id="patch_1">
   <path d="M 0 163.36 
L 270.36 163.36 
L 270.36 0 
L 0 0 
z
" style="fill: #ffffff"/>
  </g>
  <g id="axes_1">
   <g id="patch_2">
    <path d="M 22.68 88.88 
C 27.453656 88.88 32.032438 86.983406 35.407922 83.607922 
C 38.783406 80.232438 40.68 75.653656 40.68 70.88 
C 40.68 66.106344 38.783406 61.527562 35.407922 58.152078 
C 32.032438 54.776594 27.453656 52.88 22.68 52.88 
C 17.906344 52.88 13.327562 54.776594 9.952078 58.152078 
C 6.576594 61.527562 4.68 66.106344 4.68 70.88 
C 4.68 75.653656 6.576594 80.232438 9.952078 83.607922 
C 13.327562 86.983406 17.906344 88.88 22.68 88.88 
L 22.68 88.88 
z
" clip-path="url(#p03a3d84416)" style="fill: none; stroke: #000000; stroke-width: 2; stroke-linejoin: miter"/>
   </g>
   <g id="patch_3">
    <path d="M 166.68 61.88 
C 167.873016 61.88 169.01839 61.405571 169.861981 60.561981 
C 170.705571 59.71839 171.18 58.573016 171.18 57.38 
C 171.18 56.186984 170.705571 55.04161 169.861981 54.198019 
C 169.01839 53.354429 167.873016 52.88 166.68 52.88 
" clip-path="url(#p03a3d84416)" style="fill: none; stroke: #000000; stroke-width: 2; stroke-linejoin: miter"/>
   </g>
   <g id="patch_4">
    <path d="M 166.68 70.88 
C 167.873016 70.88 169.01839 70.405571 169.861981 69.561981 
C 170.705571 68.71839 171.18 67.573016 171.18 66.38 
C 171.18 65.186984 170.705571 64.04161 169.861981 63.198019 
C 169.01839 62.354429 167.873016 61.88 166.68 61.88 
" clip-path="url(#p03a3d84416)" style="fill: none; stroke: #000000; stroke-width: 2; stroke-linejoin: miter"/>
   </g>
   <g id="patch_5">
    <path d="M 166.68 79.88 
C 167.873016 79.88 169.01839 79.405571 169.861981 78.561981 
C 170.705571 77.71839 171.18 76.573016 171.18 75.38 
C 171.18 74.186984 170.705571 73.04161 169.861981 72.198019 
C 169.01839 71.354429 167.873016 70.88 166.68 70.88 
" clip-path="url(#p03a3d84416)" style="fill: none; stroke: #000000; stroke-width: 2; stroke-linejoin: miter"/>
   </g>
   <g id="patch_6">
    <path d="M 166.68 88.88 
C 167.873016 88.88 169.01839 88.405571 169.861981 87.561981 
C 170.705571 86.71839 171.18 85.573016 171.18 84.38 
C 171.18 83.186984 170.705571 82.04161 169.861981 81.198019 
C 169.01839 80.354429 167.873016 79.88 166.68 79.88 
" clip-path="url(#p03a3d84416)" style="fill: none; stroke: #000000; stroke-width: 2; stroke-linejoin: miter"/>
   </g>
   <g id="line2d_1">
    <path d="M 22.68 133.88 
L 22.68 88.88 
L 22.68 88.88 
M 22.68 52.88 
L 22.68 52.88 
L 22.68 7.88 
" clip-path="url(#p03a3d84416)" style="fill: none; stroke: #000000; stroke-width: 2; stroke-linecap: round"/>
   </g>
   <g id="line2d_2">
    <path d="M 22.68 79.88 
L 22.68 70.88 
" clip-path="url(#p03a3d84416)" style="fill: none; stroke: #000000; stroke-width: 2; stroke-linecap: round"/>
   </g>
   <g id="patch_7">
    <path d="M 19.98 70.88 
L 22.68 61.88 
L 25.38 70.88 
z
" clip-path="url(#p03a3d84416)"/>
   </g>
   <g id="line2d_3">
    <path d="M 22.68 7.88 
L 49.68 7.88 
L 76.68 7.88 
" clip-path="url(#p03a3d84416)" style="fill: none; stroke: #000000; stroke-width: 2; stroke-linecap: round"/>
   </g>
   <g id="line2d_4">
    <path d="M 76.68 7.88 
L 76.68 52.88 
L 85.68 55.88 
L 67.68 61.88 
L 85.68 67.88 
L 67.68 73.88 
L 85.68 79.88 
L 67.68 85.88 
L 76.68 88.88 
L 76.68 133.88 
" clip-path="url(#p03a3d84416)" style="fill: none; stroke: #000000; stroke-width: 2; stroke-linecap: round"/>
   </g>
   <g id="line2d_5">
    <path d="M 76.68 7.88 
L 121.68 7.88 
L 166.68 7.88 
" clip-path="url(#p03a3d84416)" style="fill: none; stroke: #000000; stroke-width: 2; stroke-linecap: round"/>
   </g>
   <g id="line2d_6">
    <path d="M 166.68 7.88 
L 166.68 52.88 
M 166.68 88.88 
L 166.68 133.88 
" clip-path="url(#p03a3d84416)" style="fill: none; stroke: #000000; stroke-width: 2; stroke-linecap: round"/>
   </g>
   <g id="line2d_7">
    <path d="M 166.68 7.88 
L 211.68 7.88 
L 256.68 7.88 
" clip-path="url(#p03a3d84416)" style="fill: none; stroke: #000000; stroke-width: 2; stroke-linecap: round"/>
   </g>
   <g id="line2d_8">
    <path d="M 256.68 7.88 
L 256.68 67.64 
M 265.68 67.64 
L 247.68 67.64 
M 265.68 74.12 
L 247.68 74.12 
M 256.68 74.12 
L 256.68 133.88 
" clip-path="url(#p03a3d84416)" style="fill: none; stroke: #000000; stroke-width: 2; stroke-linecap: round"/>
   </g>
   <g id="line2d_9">
    <path d="M 256.68 133.88 
L 166.68 133.88 
L 76.68 133.88 
" clip-path="url(#p03a3d84416)" style="fill: none; stroke: #000000; stroke-width: 2; stroke-linecap: round"/>
   </g>
   <g id="line2d_10">
    <path d="M 76.68 133.88 
L 49.68 133.88 
L 22.68 133.88 
" clip-path="url(#p03a3d84416)" style="fill: none; stroke: #000000; stroke-width: 2; stroke-linecap: round"/>
   </g>
   <g id="line2d_11">
    <path d="M 22.68 133.88 
L 22.68 133.88 
L 22.68 133.88 
" clip-path="url(#p03a3d84416)" style="fill: none; stroke: #000000; stroke-width: 2; stroke-linecap: round"/>
   </g>
   <g id="text_1">
    <!-- $I_s$ -->
    <g transform="translate(17.85 155.317812) scale(0.14 -0.14)">
     <defs>
      <path id="DejaVuSans-Oblique-49" d="M 1081 4666 
L 1716 4666 
L 806 0 
L 172 0 
L 1081 4666 
z
" transform="scale(0.015625)"/>
      <path id="DejaVuSans-Oblique-73" d="M 3200 3397 
L 3091 2853 
Q 2863 2978 2609 3040 
Q 2356 3103 2088 3103 
Q 1634 3103 1373 2948 
Q 1113 2794 1113 2528 
Q 1113 2219 1719 2053 
Q 1766 2041 1788 2034 
L 1972 1978 
Q 2547 1819 2739 1644 
Q 2931 1469 2931 1166 
Q 2931 609 2489 259 
Q 2047 -91 1331 -91 
Q 1053 -91 747 -37 
Q 441 16 72 128 
L 184 722 
Q 500 559 806 475 
Q 1113 391 1394 391 
Q 1816 391 2080 572 
Q 2344 753 2344 1031 
Q 2344 1331 1650 1516 
L 1591 1531 
L 1394 1581 
Q 956 1697 753 1886 
Q 550 2075 550 2369 
Q 550 2928 970 3256 
Q 1391 3584 2113 3584 
Q 2397 3584 2667 3537 
Q 2938 3491 3200 3397 
z
" transform="scale(0.015625)"/>
     </defs>
     <use xlink:href="#DejaVuSans-Oblique-49" transform="translate(0 0.09375)"/>
     <use xlink:href="#DejaVuSans-Oblique-73" transform="translate(29.492188 -16.3125) scale(0.7)"/>
    </g>
   </g>
   <g id="text_2">
    <!-- $R$ -->
    <g transform="translate(71.78 15.768437) scale(0.14 -0.14)">
     <defs>
      <path id="DejaVuSans-Oblique-52" d="M 1613 4147 
L 1294 2491 
L 2106 2491 
Q 2584 2491 2879 2755 
Q 3175 3019 3175 3444 
Q 3175 3784 2976 3965 
Q 2778 4147 2406 4147 
L 1613 4147 
z
M 2772 2241 
Q 2972 2194 3105 2009 
Q 3238 1825 3413 1275 
L 3809 0 
L 3144 0 
L 2778 1197 
Q 2638 1659 2453 1815 
Q 2269 1972 1888 1972 
L 1191 1972 
L 806 0 
L 172 0 
L 1081 4666 
L 2503 4666 
Q 3150 4666 3495 4373 
Q 3841 4081 3841 3531 
Q 3841 3044 3547 2687 
Q 3253 2331 2772 2241 
z
" transform="scale(0.015625)"/>
     </defs>
     <use xlink:href="#DejaVuSans-Oblique-52" transform="translate(0 0.09375)"/>
    </g>
   </g>
   <g id="text_3">
    <!-- $L$ -->
    <g transform="translate(165.009989 15.768437) scale(0.14 -0.14)">
     <defs>
      <path id="DejaVuSans-Oblique-4c" d="M 1075 4666 
L 1709 4666 
L 909 525 
L 3181 525 
L 3078 0 
L 172 0 
L 1075 4666 
z
" transform="scale(0.015625)"/>
     </defs>
     <use xlink:href="#DejaVuSans-Oblique-4c" transform="translate(0 0.09375)"/>
    </g>
   </g>
   <g id="text_4">
    <!-- $C$ -->
    <g transform="translate(251.78 15.768437) scale(0.14 -0.14)">
     <defs>
      <path id="DejaVuSans-Oblique-43" d="M 4447 4306 
L 4319 3641 
Q 4019 3944 3683 4091 
Q 3347 4238 2956 4238 
Q 2422 4238 2017 3981 
Q 1613 3725 1319 3200 
Q 1131 2863 1032 2486 
Q 934 2109 934 1728 
Q 934 1091 1264 756 
Q 1594 422 2222 422 
Q 2656 422 3056 561 
Q 3456 700 3834 978 
L 3688 231 
Q 3316 72 2936 -9 
Q 2556 -91 2175 -91 
Q 1278 -91 773 396 
Q 269 884 269 1753 
Q 269 2309 461 2846 
Q 653 3384 1013 3828 
Q 1394 4300 1883 4525 
Q 2372 4750 3022 4750 
Q 3422 4750 3780 4639 
Q 4138 4528 4447 4306 
z
" transform="scale(0.015625)"/>
     </defs>
     <use xlink:href="#DejaVuSans-Oblique-43" transform="translate(0 0.78125)"/>
    </g>
   </g>
   <g id="text_5">
    <!-- + -->
    <g transform="translate(70.814219 43.243125) scale(0.14 -0.14)">
     <defs>
      <path id="DejaVuSans-2b" d="M 2944 4013 
L 2944 2272 
L 4684 2272 
L 4684 1741 
L 2944 1741 
L 2944 0 
L 2419 0 
L 2419 1741 
L 678 1741 
L 678 2272 
L 2419 2272 
L 2419 4013 
L 2944 4013 
z
" transform="scale(0.015625)"/>
     </defs>
     <use xlink:href="#DejaVuSans-2b"/>
    </g>
   </g>
   <g id="text_6">
    <!-- $v(t)$ -->
    <g transform="translate(64.29 74.743125) scale(0.14 -0.14)">
     <defs>
      <path id="DejaVuSans-Oblique-76" d="M 459 3500 
L 1069 3500 
L 1581 525 
L 3256 3500 
L 3866 3500 
L 1875 0 
L 1100 0 
L 459 3500 
z
" transform="scale(0.015625)"/>
      <path id="DejaVuSans-28" d="M 1984 4856 
Q 1566 4138 1362 3434 
Q 1159 2731 1159 2009 
Q 1159 1288 1364 580 
Q 1569 -128 1984 -844 
L 1484 -844 
Q 1016 -109 783 600 
Q 550 1309 550 2009 
Q 550 2706 781 3412 
Q 1013 4119 1484 4856 
L 1984 4856 
z
" transform="scale(0.015625)"/>
      <path id="DejaVuSans-Oblique-74" d="M 2706 3500 
L 2619 3053 
L 1472 3053 
L 1100 1153 
Q 1081 1047 1072 975 
Q 1063 903 1063 863 
Q 1063 663 1183 572 
Q 1303 481 1569 481 
L 2150 481 
L 2053 0 
L 1503 0 
Q 991 0 739 200 
Q 488 400 488 806 
Q 488 878 497 964 
Q 506 1050 525 1153 
L 897 3053 
L 409 3053 
L 500 3500 
L 978 3500 
L 1172 4494 
L 1747 4494 
L 1556 3500 
L 2706 3500 
z
" transform="scale(0.015625)"/>
      <path id="DejaVuSans-29" d="M 513 4856 
L 1013 4856 
Q 1481 4119 1714 3412 
Q 1947 2706 1947 2009 
Q 1947 1309 1714 600 
Q 1481 -109 1013 -844 
L 513 -844 
Q 928 -128 1133 580 
Q 1338 1288 1338 2009 
Q 1338 2731 1133 3434 
Q 928 4138 513 4856 
z
" transform="scale(0.015625)"/>
     </defs>
     <use xlink:href="#DejaVuSans-Oblique-76" transform="translate(0 0.125)"/>
     <use xlink:href="#DejaVuSans-28" transform="translate(59.179688 0.125)"/>
     <use xlink:href="#DejaVuSans-Oblique-74" transform="translate(98.193359 0.125)"/>
     <use xlink:href="#DejaVuSans-29" transform="translate(137.402344 0.125)"/>
    </g>
   </g>
   <g id="text_7">
    <!-- − -->
    <g transform="translate(70.814219 106.243125) scale(0.14 -0.14)">
     <defs>
      <path id="DejaVuSans-2212" d="M 678 2272 
L 4684 2272 
L 4684 1741 
L 678 1741 
L 678 2272 
z
" transform="scale(0.015625)"/>
     </defs>
     <use xlink:href="#DejaVuSans-2212"/>
    </g>
   </g>
   <g id="patch_8">
    <path d="M 76.68 10.58 
C 77.396048 10.58 78.082866 10.295511 78.589188 9.789188 
C 79.095511 9.282866 79.38 8.596048 79.38 7.88 
C 79.38 7.163952 79.095511 6.477134 78.589188 5.970812 
C 78.082866 5.464489 77.396048 5.18 76.68 5.18 
C 75.963952 5.18 75.277134 5.464489 74.770812 5.970812 
C 74.264489 6.477134 73.98 7.163952 73.98 7.88 
C 73.98 8.596048 74.264489 9.282866 74.770812 9.789188 
C 75.277134 10.295511 75.963952 10.58 76.68 10.58 
z
" clip-path="url(#p03a3d84416)" style="stroke: #000000; stroke-width: 2; stroke-linejoin: miter"/>
   </g>
   <g id="patch_9">
    <path d="M 166.68 10.58 
C 167.396048 10.58 168.082866 10.295511 168.589188 9.789188 
C 169.095511 9.282866 169.38 8.596048 169.38 7.88 
C 169.38 7.163952 169.095511 6.477134 168.589188 5.970812 
C 168.082866 5.464489 167.396048 5.18 166.68 5.18 
C 165.963952 5.18 165.277134 5.464489 164.770812 5.970812 
C 164.264489 6.477134 163.98 7.163952 163.98 7.88 
C 163.98 8.596048 164.264489 9.282866 164.770812 9.789188 
C 165.277134 10.295511 165.963952 10.58 166.68 10.58 
z
" clip-path="url(#p03a3d84416)" style="stroke: #000000; stroke-width: 2; stroke-linejoin: miter"/>
   </g>
   <g id="line2d_12">
    <path d="M 166.68 31.28 
L 166.68 31.28 
" clip-path="url(#p03a3d84416)" style="fill: none; stroke: #000000; stroke-width: 2; stroke-linecap: round"/>
   </g>
   <g id="patch_10">
    <path d="M 172.08 31.28 
L 166.68 42.08 
L 161.28 31.28 
z
" clip-path="url(#p03a3d84416)"/>
   </g>
   <g id="text_8">
    <!-- $i_L$ -->
    <g transform="translate(146.08 40.543125) scale(0.14 -0.14)">
     <defs>
      <path id="DejaVuSans-Oblique-69" d="M 1172 4863 
L 1747 4863 
L 1606 4134 
L 1031 4134 
L 1172 4863 
z
M 909 3500 
L 1484 3500 
L 800 0 
L 225 0 
L 909 3500 
z
" transform="scale(0.015625)"/>
     </defs>
     <use xlink:href="#DejaVuSans-Oblique-69" transform="translate(0 0.015625)"/>
     <use xlink:href="#DejaVuSans-Oblique-4c" transform="translate(27.783203 -16.390625) scale(0.7)"/>
    </g>
   </g>
   <g id="patch_11">
    <path d="M 256.68 10.58 
C 257.396048 10.58 258.082866 10.295511 258.589188 9.789188 
C 259.095511 9.282866 259.38 8.596048 259.38 7.88 
C 259.38 7.163952 259.095511 6.477134 258.589188 5.970812 
C 258.082866 5.464489 257.396048 5.18 256.68 5.18 
C 255.963952 5.18 255.277134 5.464489 254.770812 5.970812 
C 254.264489 6.477134 253.98 7.163952 253.98 7.88 
C 253.98 8.596048 254.264489 9.282866 254.770812 9.789188 
C 255.277134 10.295511 255.963952 10.58 256.68 10.58 
z
" clip-path="url(#p03a3d84416)" style="stroke: #000000; stroke-width: 2; stroke-linejoin: miter"/>
   </g>
  </g>
 </g>
 <defs>
  <clipPath id="p03a3d84416">
   <rect x="0" y="0" width="270.36" height="163.36"/>
  </clipPath>
 </defs>
</svg>
