<?xml version="1.0" encoding="utf-8" standalone="no"?>
<!DOCTYPE svg PUBLIC "-//W3C//DTD SVG 1.1//EN"
  "http://www.w3.org/Graphics/SVG/1.1/DTD/svg11.dtd">
<svg xmlns:xlink="http://www.w3.org/1999/xlink" width="305.016pt" height="138.06pt" viewBox="0 0 305.016 138.06" xmlns="http://www.w3.org/2000/svg" version="1.1">
 <metadata>
  <rdf:RDF xmlns:dc="http://purl.org/dc/elements/1.1/" xmlns:cc="http://creativecommons.org/ns#" xmlns:rdf="http://www.w3.org/1999/02/22-rdf-syntax-ns#">
   <cc:Work>
    <dc:type rdf:resource="http://purl.org/dc/dcmitype/StillImage"/>
    <dc:date>2026-03-06T11:16:21.742287</dc:date>
    <dc:format>image/svg+xml</dc:format>
    <dc:creator>
     <cc:Agent>
      <dc:title>Matplotlib v3.10.8, https://matplotlib.org/</dc:title>
     </cc:Agent>
    </dc:creator>
   </cc:Work>
  </rdf:RDF>
 </metadata>
 <defs>
  <style type="text/css">*{stroke-linejoin: round; stroke-linecap: butt}</style>
 </defs>
 <g id="figure_1">
  <g id="patch_1">
   <path d="M 0 138.06 
L 305.016 138.06 
L 305.016 0 
L 0 0 
z
" style="fill: #ffffff"/>
  </g>
  <g id="axes_1">
   <g id="patch_2">
    <path d="M 42.528 88.38 
C 47.301656 88.38 51.880438 86.483406 55.255922 83.107922 
C 58.631406 79.732438 60.528 75.153656 60.528 70.38 
C 60.528 65.606344 58.631406 61.027562 55.255922 57.652078 
C 51.880438 54.276594 47.301656 52.38 42.528 52.38 
C 37.754344 52.38 33.175562 54.276594 29.800078 57.652078 
C 26.424594 61.027562 24.528 65.606344 24.528 70.38 
C 24.528 75.153656 26.424594 79.732438 29.800078 83.107922 
C 33.175562 86.483406 37.754344 88.38 42.528 88.38 
L 42.528 88.38 
z
" clip-path="url(#pe92366d5cb)" style="fill: none; stroke: #000000; stroke-width: 2; stroke-linejoin: miter"/>
   </g>
   <g id="patch_3">
    <path d="M 186.528 61.38 
C 187.721016 61.38 188.86639 60.905571 189.709981 60.061981 
C 190.553571 59.21839 191.028 58.073016 191.028 56.88 
C 191.028 55.686984 190.553571 54.54161 189.709981 53.698019 
C 188.86639 52.854429 187.721016 52.38 186.528 52.38 
" clip-path="url(#pe92366d5cb)" style="fill: none; stroke: #000000; stroke-width: 2; stroke-linejoin: miter"/>
   </g>
   <g id="patch_4">
    <path d="M 186.528 70.38 
C 187.721016 70.38 188.86639 69.905571 189.709981 69.061981 
C 190.553571 68.21839 191.028 67.073016 191.028 65.88 
C 191.028 64.686984 190.553571 63.54161 189.709981 62.698019 
C 188.86639 61.854429 187.721016 61.38 186.528 61.38 
" clip-path="url(#pe92366d5cb)" style="fill: none; stroke: #000000; stroke-width: 2; stroke-linejoin: miter"/>
   </g>
   <g id="patch_5">
    <path d="M 186.528 79.38 
C 187.721016 79.38 188.86639 78.905571 189.709981 78.061981 
C 190.553571 77.21839 191.028 76.073016 191.028 74.88 
C 191.028 73.686984 190.553571 72.54161 189.709981 71.698019 
C 188.86639 70.854429 187.721016 70.38 186.528 70.38 
" clip-path="url(#pe92366d5cb)" style="fill: none; stroke: #000000; stroke-width: 2; stroke-linejoin: miter"/>
   </g>
   <g id="patch_6">
    <path d="M 186.528 88.38 
C 187.721016 88.38 188.86639 87.905571 189.709981 87.061981 
C 190.553571 86.21839 191.028 85.073016 191.028 83.88 
C 191.028 82.686984 190.553571 81.54161 189.709981 80.698019 
C 188.86639 79.854429 187.721016 79.38 186.528 79.38 
" clip-path="url(#pe92366d5cb)" style="fill: none; stroke: #000000; stroke-width: 2; stroke-linejoin: miter"/>
   </g>
   <g id="line2d_1">
    <path d="M 42.528 133.38 
L 42.528 88.38 
L 42.528 88.38 
M 42.528 52.38 
L 42.528 52.38 
L 42.528 7.38 
" clip-path="url(#pe92366d5cb)" style="fill: none; stroke: #000000; stroke-width: 2; stroke-linecap: round"/>
   </g>
   <g id="line2d_2">
    <path d="M 42.528 79.38 
L 42.528 70.38 
" clip-path="url(#pe92366d5cb)" style="fill: none; stroke: #000000; stroke-width: 2; stroke-linecap: round"/>
   </g>
   <g id="patch_7">
    <path d="M 39.828 70.38 
L 42.528 61.38 
L 45.228 70.38 
z
" clip-path="url(#pe92366d5cb)"/>
   </g>
   <g id="line2d_3">
    <path d="M 42.528 7.38 
L 69.528 7.38 
L 96.528 7.38 
" clip-path="url(#pe92366d5cb)" style="fill: none; stroke: #000000; stroke-width: 2; stroke-linecap: round"/>
   </g>
   <g id="line2d_4">
    <path d="M 96.528 7.38 
L 96.528 52.38 
L 105.528 55.38 
L 87.528 61.38 
L 105.528 67.38 
L 87.528 73.38 
L 105.528 79.38 
L 87.528 85.38 
L 96.528 88.38 
L 96.528 133.38 
" clip-path="url(#pe92366d5cb)" style="fill: none; stroke: #000000; stroke-width: 2; stroke-linecap: round"/>
   </g>
   <g id="line2d_5">
    <path d="M 96.528 7.38 
L 141.528 7.38 
L 186.528 7.38 
" clip-path="url(#pe92366d5cb)" style="fill: none; stroke: #000000; stroke-width: 2; stroke-linecap: round"/>
   </g>
   <g id="line2d_6">
    <path d="M 186.528 7.38 
L 186.528 52.38 
M 186.528 88.38 
L 186.528 133.38 
" clip-path="url(#pe92366d5cb)" style="fill: none; stroke: #000000; stroke-width: 2; stroke-linecap: round"/>
   </g>
   <g id="line2d_7">
    <path d="M 186.528 7.38 
L 231.528 7.38 
L 276.528 7.38 
" clip-path="url(#pe92366d5cb)" style="fill: none; stroke: #000000; stroke-width: 2; stroke-linecap: round"/>
   </g>
   <g id="line2d_8">
    <path d="M 276.528 7.38 
L 276.528 67.14 
M 285.528 67.14 
L 267.528 67.14 
M 285.528 73.62 
L 267.528 73.62 
M 276.528 73.62 
L 276.528 133.38 
" clip-path="url(#pe92366d5cb)" style="fill: none; stroke: #000000; stroke-width: 2; stroke-linecap: round"/>
   </g>
   <g id="line2d_9">
    <path d="M 276.528 133.38 
L 186.528 133.38 
L 96.528 133.38 
" clip-path="url(#pe92366d5cb)" style="fill: none; stroke: #000000; stroke-width: 2; stroke-linecap: round"/>
   </g>
   <g id="line2d_10">
    <path d="M 96.528 133.38 
L 69.528 133.38 
L 42.528 133.38 
" clip-path="url(#pe92366d5cb)" style="fill: none; stroke: #000000; stroke-width: 2; stroke-linecap: round"/>
   </g>
   <g id="line2d_11">
    <path d="M 42.528 133.38 
L 42.528 133.38 
L 42.528 133.38 
" clip-path="url(#pe92366d5cb)" style="fill: none; stroke: #000000; stroke-width: 2; stroke-linecap: round"/>
   </g>
   <g id="text_1">
    <!-- $I_s$ -->
    <g transform="translate(9.468 74.243125) scale(0.14 -0.14)">
     <defs>
      <path id="DejaVuSans-Oblique-49" d="M 1081 4666 
L 1716 4666 
L 806 0 
L 172 0 
L 1081 4666 
z
" transform="scale(0.015625)"/>
      <path id="DejaVuSans-Oblique-73" d="M 3200 3397 
L 3091 2853 
Q 2863 2978 2609 3040 
Q 2356 3103 2088 3103 
Q 1634 3103 1373 2948 
Q 1113 2794 1113 2528 
Q 1113 2219 1719 2053 
Q 1766 2041 1788 2034 
L 1972 1978 
Q 2547 1819 2739 1644 
Q 2931 1469 2931 1166 
Q 2931 609 2489 259 
Q 2047 -91 1331 -91 
Q 1053 -91 747 -37 
Q 441 16 72 128 
L 184 722 
Q 500 559 806 475 
Q 1113 391 1394 391 
Q 1816 391 2080 572 
Q 2344 753 2344 1031 
Q 2344 1331 1650 1516 
L 1591 1531 
L 1394 1581 
Q 956 1697 753 1886 
Q 550 2075 550 2369 
Q 550 2928 970 3256 
Q 1391 3584 2113 3584 
Q 2397 3584 2667 3537 
Q 2938 3491 3200 3397 
z
" transform="scale(0.015625)"/>
     </defs>
     <use xlink:href="#DejaVuSans-Oblique-49" transform="translate(0 0.09375)"/>
     <use xlink:href="#DejaVuSans-Oblique-73" transform="translate(29.492188 -16.3125) scale(0.7)"/>
    </g>
   </g>
   <g id="text_2">
    <!-- $R$ -->
    <g transform="translate(110.928 74.243125) scale(0.14 -0.14)">
     <defs>
      <path id="DejaVuSans-Oblique-52" d="M 1613 4147 
L 1294 2491 
L 2106 2491 
Q 2584 2491 2879 2755 
Q 3175 3019 3175 3444 
Q 3175 3784 2976 3965 
Q 2778 4147 2406 4147 
L 1613 4147 
z
M 2772 2241 
Q 2972 2194 3105 2009 
Q 3238 1825 3413 1275 
L 3809 0 
L 3144 0 
L 2778 1197 
Q 2638 1659 2453 1815 
Q 2269 1972 1888 1972 
L 1191 1972 
L 806 0 
L 172 0 
L 1081 4666 
L 2503 4666 
Q 3150 4666 3495 4373 
Q 3841 4081 3841 3531 
Q 3841 3044 3547 2687 
Q 3253 2331 2772 2241 
z
" transform="scale(0.015625)"/>
     </defs>
     <use xlink:href="#DejaVuSans-Oblique-52" transform="translate(0 0.09375)"/>
    </g>
   </g>
   <g id="text_3">
    <!-- $L$ -->
    <g transform="translate(196.427978 74.243125) scale(0.14 -0.14)">
     <defs>
      <path id="DejaVuSans-Oblique-4c" d="M 1075 4666 
L 1709 4666 
L 909 525 
L 3181 525 
L 3078 0 
L 172 0 
L 1075 4666 
z
" transform="scale(0.015625)"/>
     </defs>
     <use xlink:href="#DejaVuSans-Oblique-4c" transform="translate(0 0.09375)"/>
    </g>
   </g>
   <g id="text_4">
    <!-- $C$ -->
    <g transform="translate(290.928 74.243125) scale(0.14 -0.14)">
     <defs>
      <path id="DejaVuSans-Oblique-43" d="M 4447 4306 
L 4319 3641 
Q 4019 3944 3683 4091 
Q 3347 4238 2956 4238 
Q 2422 4238 2017 3981 
Q 1613 3725 1319 3200 
Q 1131 2863 1032 2486 
Q 934 2109 934 1728 
Q 934 1091 1264 756 
Q 1594 422 2222 422 
Q 2656 422 3056 561 
Q 3456 700 3834 978 
L 3688 231 
Q 3316 72 2936 -9 
Q 2556 -91 2175 -91 
Q 1278 -91 773 396 
Q 269 884 269 1753 
Q 269 2309 461 2846 
Q 653 3384 1013 3828 
Q 1394 4300 1883 4525 
Q 2372 4750 3022 4750 
Q 3422 4750 3780 4639 
Q 4138 4528 4447 4306 
z
" transform="scale(0.015625)"/>
     </defs>
     <use xlink:href="#DejaVuSans-Oblique-43" transform="translate(0 0.78125)"/>
    </g>
   </g>
   <g id="text_5">
    <!-- + -->
    <g transform="translate(90.662219 42.743125) scale(0.14 -0.14)">
     <defs>
      <path id="DejaVuSans-2b" d="M 2944 4013 
L 2944 2272 
L 4684 2272 
L 4684 1741 
L 2944 1741 
L 2944 0 
L 2419 0 
L 2419 1741 
L 678 1741 
L 678 2272 
L 2419 2272 
L 2419 4013 
L 2944 4013 
z
" transform="scale(0.015625)"/>
     </defs>
     <use xlink:href="#DejaVuSans-2b"/>
    </g>
   </g>
   <g id="text_6">
    <!-- $v(t)$ -->
    <g transform="translate(84.138 74.243125) scale(0.14 -0.14)">
     <defs>
      <path id="DejaVuSans-Oblique-76" d="M 459 3500 
L 1069 3500 
L 1581 525 
L 3256 3500 
L 3866 3500 
L 1875 0 
L 1100 0 
L 459 3500 
z
" transform="scale(0.015625)"/>
      <path id="DejaVuSans-28" d="M 1984 4856 
Q 1566 4138 1362 3434 
Q 1159 2731 1159 2009 
Q 1159 1288 1364 580 
Q 1569 -128 1984 -844 
L 1484 -844 
Q 1016 -109 783 600 
Q 550 1309 550 2009 
Q 550 2706 781 3412 
Q 1013 4119 1484 4856 
L 1984 4856 
z
" transform="scale(0.015625)"/>
      <path id="DejaVuSans-Oblique-74" d="M 2706 3500 
L 2619 3053 
L 1472 3053 
L 1100 1153 
Q 1081 1047 1072 975 
Q 1063 903 1063 863 
Q 1063 663 1183 572 
Q 1303 481 1569 481 
L 2150 481 
L 2053 0 
L 1503 0 
Q 991 0 739 200 
Q 488 400 488 806 
Q 488 878 497 964 
Q 506 1050 525 1153 
L 897 3053 
L 409 3053 
L 500 3500 
L 978 3500 
L 1172 4494 
L 1747 4494 
L 1556 3500 
L 2706 3500 
z
" transform="scale(0.015625)"/>
      <path id="DejaVuSans-29" d="M 513 4856 
L 1013 4856 
Q 1481 4119 1714 3412 
Q 1947 2706 1947 2009 
Q 1947 1309 1714 600 
Q 1481 -109 1013 -844 
L 513 -844 
Q 928 -128 1133 580 
Q 1338 1288 1338 2009 
Q 1338 2731 1133 3434 
Q 928 4138 513 4856 
z
" transform="scale(0.015625)"/>
     </defs>
     <use xlink:href="#DejaVuSans-Oblique-76" transform="translate(0 0.125)"/>
     <use xlink:href="#DejaVuSans-28" transform="translate(59.179688 0.125)"/>
     <use xlink:href="#DejaVuSans-Oblique-74" transform="translate(98.193359 0.125)"/>
     <use xlink:href="#DejaVuSans-29" transform="translate(137.402344 0.125)"/>
    </g>
   </g>
   <g id="text_7">
    <!-- − -->
    <g transform="translate(90.662219 105.743125) scale(0.14 -0.14)">
     <defs>
      <path id="DejaVuSans-2212" d="M 678 2272 
L 4684 2272 
L 4684 1741 
L 678 1741 
L 678 2272 
z
" transform="scale(0.015625)"/>
     </defs>
     <use xlink:href="#DejaVuSans-2212"/>
    </g>
   </g>
   <g id="patch_8">
    <path d="M 96.528 10.08 
C 97.244048 10.08 97.930866 9.795511 98.437188 9.289188 
C 98.943511 8.782866 99.228 8.096048 99.228 7.38 
C 99.228 6.663952 98.943511 5.977134 98.437188 5.470812 
C 97.930866 4.964489 97.244048 4.68 96.528 4.68 
C 95.811952 4.68 95.125134 4.964489 94.618812 5.470812 
C 94.112489 5.977134 93.828 6.663952 93.828 7.38 
C 93.828 8.096048 94.112489 8.782866 94.618812 9.289188 
C 95.125134 9.795511 95.811952 10.08 96.528 10.08 
z
" clip-path="url(#pe92366d5cb)" style="stroke: #000000; stroke-width: 2; stroke-linejoin: miter"/>
   </g>
   <g id="patch_9">
    <path d="M 186.528 10.08 
C 187.244048 10.08 187.930866 9.795511 188.437188 9.289188 
C 188.943511 8.782866 189.228 8.096048 189.228 7.38 
C 189.228 6.663952 188.943511 5.977134 188.437188 5.470812 
C 187.930866 4.964489 187.244048 4.68 186.528 4.68 
C 185.811952 4.68 185.125134 4.964489 184.618812 5.470812 
C 184.112489 5.977134 183.828 6.663952 183.828 7.38 
C 183.828 8.096048 184.112489 8.782866 184.618812 9.289188 
C 185.125134 9.795511 185.811952 10.08 186.528 10.08 
z
" clip-path="url(#pe92366d5cb)" style="stroke: #000000; stroke-width: 2; stroke-linejoin: miter"/>
   </g>
   <g id="line2d_12">
    <path d="M 186.528 30.78 
L 186.528 30.78 
" clip-path="url(#pe92366d5cb)" style="fill: none; stroke: #000000; stroke-width: 2; stroke-linecap: round"/>
   </g>
   <g id="patch_10">
    <path d="M 191.928 30.78 
L 186.528 41.58 
L 181.128 30.78 
z
" clip-path="url(#pe92366d5cb)"/>
   </g>
   <g id="text_8">
    <!-- $i_L$ -->
    <g transform="translate(165.928 40.043125) scale(0.14 -0.14)">
     <defs>
      <path id="DejaVuSans-Oblique-69" d="M 1172 4863 
L 1747 4863 
L 1606 4134 
L 1031 4134 
L 1172 4863 
z
M 909 3500 
L 1484 3500 
L 800 0 
L 225 0 
L 909 3500 
z
" transform="scale(0.015625)"/>
     </defs>
     <use xlink:href="#DejaVuSans-Oblique-69" transform="translate(0 0.015625)"/>
     <use xlink:href="#DejaVuSans-Oblique-4c" transform="translate(27.783203 -16.390625) scale(0.7)"/>
    </g>
   </g>
   <g id="patch_11">
    <path d="M 276.528 10.08 
C 277.244048 10.08 277.930866 9.795511 278.437188 9.289188 
C 278.943511 8.782866 279.228 8.096048 279.228 7.38 
C 279.228 6.663952 278.943511 5.977134 278.437188 5.470812 
C 277.930866 4.964489 277.244048 4.68 276.528 4.68 
C 275.811952 4.68 275.125134 4.964489 274.618812 5.470812 
C 274.112489 5.977134 273.828 6.663952 273.828 7.38 
C 273.828 8.096048 274.112489 8.782866 274.618812 9.289188 
C 275.125134 9.795511 275.811952 10.08 276.528 10.08 
z
" clip-path="url(#pe92366d5cb)" style="stroke: #000000; stroke-width: 2; stroke-linejoin: miter"/>
   </g>
  </g>
 </g>
 <defs>
  <clipPath id="pe92366d5cb">
   <rect x="0" y="0" width="305.016" height="138.06"/>
  </clipPath>
 </defs>
</svg>
