<?xml version="1.0" encoding="utf-8" standalone="no"?>
<!DOCTYPE svg PUBLIC "-//W3C//DTD SVG 1.1//EN"
  "http://www.w3.org/Graphics/SVG/1.1/DTD/svg11.dtd">
<svg xmlns:xlink="http://www.w3.org/1999/xlink" width="298.488pt" height="163.36pt" viewBox="0 0 298.488 163.36" xmlns="http://www.w3.org/2000/svg" version="1.1">
 <metadata>
  <rdf:RDF xmlns:dc="http://purl.org/dc/elements/1.1/" xmlns:cc="http://creativecommons.org/ns#" xmlns:rdf="http://www.w3.org/1999/02/22-rdf-syntax-ns#">
   <cc:Work>
    <dc:type rdf:resource="http://purl.org/dc/dcmitype/StillImage"/>
    <dc:date>2026-03-06T09:07:21.838024</dc:date>
    <dc:format>image/svg+xml</dc:format>
    <dc:creator>
     <cc:Agent>
      <dc:title>Matplotlib v3.10.8, https://matplotlib.org/</dc:title>
     </cc:Agent>
    </dc:creator>
   </cc:Work>
  </rdf:RDF>
 </metadata>
 <defs>
  <style type="text/css">*{stroke-linejoin: round; stroke-linecap: butt}</style>
 </defs>
 <g id="figure_1">
  <g id="patch_1">
   <path d="M 0 163.36 
L 298.488 163.36 
L 298.488 0 
L 0 0 
z
" style="fill: #ffffff"/>
  </g>
  <g id="axes_1">
   <g id="patch_2">
    <path d="M 33.504 99.68 
C 38.277656 99.68 42.856438 97.783406 46.231922 94.407922 
C 49.607406 91.032438 51.504 86.453656 51.504 81.68 
C 51.504 76.906344 49.607406 72.327562 46.231922 68.952078 
C 42.856438 65.576594 38.277656 63.68 33.504 63.68 
C 28.730344 63.68 24.151562 65.576594 20.776078 68.952078 
C 17.400594 72.327562 15.504 76.906344 15.504 81.68 
C 15.504 86.453656 17.400594 91.032438 20.776078 94.407922 
C 24.151562 97.783406 28.730344 99.68 33.504 99.68 
L 33.504 99.68 
z
" clip-path="url(#pdb0078d0da)" style="fill: none; stroke: #000000; stroke-width: 2; stroke-linejoin: miter"/>
   </g>
   <g id="patch_3">
    <path d="M 177.504 72.68 
C 178.697016 72.68 179.84239 72.205571 180.685981 71.361981 
C 181.529571 70.51839 182.004 69.373016 182.004 68.18 
C 182.004 66.986984 181.529571 65.84161 180.685981 64.998019 
C 179.84239 64.154429 178.697016 63.68 177.504 63.68 
" clip-path="url(#pdb0078d0da)" style="fill: none; stroke: #000000; stroke-width: 2; stroke-linejoin: miter"/>
   </g>
   <g id="patch_4">
    <path d="M 177.504 81.68 
C 178.697016 81.68 179.84239 81.205571 180.685981 80.361981 
C 181.529571 79.51839 182.004 78.373016 182.004 77.18 
C 182.004 75.986984 181.529571 74.84161 180.685981 73.998019 
C 179.84239 73.154429 178.697016 72.68 177.504 72.68 
" clip-path="url(#pdb0078d0da)" style="fill: none; stroke: #000000; stroke-width: 2; stroke-linejoin: miter"/>
   </g>
   <g id="patch_5">
    <path d="M 177.504 90.68 
C 178.697016 90.68 179.84239 90.205571 180.685981 89.361981 
C 181.529571 88.51839 182.004 87.373016 182.004 86.18 
C 182.004 84.986984 181.529571 83.84161 180.685981 82.998019 
C 179.84239 82.154429 178.697016 81.68 177.504 81.68 
" clip-path="url(#pdb0078d0da)" style="fill: none; stroke: #000000; stroke-width: 2; stroke-linejoin: miter"/>
   </g>
   <g id="patch_6">
    <path d="M 177.504 99.68 
C 178.697016 99.68 179.84239 99.205571 180.685981 98.361981 
C 181.529571 97.51839 182.004 96.373016 182.004 95.18 
C 182.004 93.986984 181.529571 92.84161 180.685981 91.998019 
C 179.84239 91.154429 178.697016 90.68 177.504 90.68 
" clip-path="url(#pdb0078d0da)" style="fill: none; stroke: #000000; stroke-width: 2; stroke-linejoin: miter"/>
   </g>
   <g id="line2d_1">
    <path d="M 33.504 144.68 
L 33.504 99.68 
L 33.504 99.68 
M 33.504 63.68 
L 33.504 63.68 
L 33.504 18.68 
" clip-path="url(#pdb0078d0da)" style="fill: none; stroke: #000000; stroke-width: 2; stroke-linecap: round"/>
   </g>
   <g id="line2d_2">
    <path d="M 33.504 90.68 
L 33.504 81.68 
" clip-path="url(#pdb0078d0da)" style="fill: none; stroke: #000000; stroke-width: 2; stroke-linecap: round"/>
   </g>
   <g id="patch_7">
    <path d="M 30.804 81.68 
L 33.504 72.68 
L 36.204 81.68 
z
" clip-path="url(#pdb0078d0da)"/>
   </g>
   <g id="line2d_3">
    <path d="M 33.504 18.68 
L 60.504 18.68 
L 87.504 18.68 
" clip-path="url(#pdb0078d0da)" style="fill: none; stroke: #000000; stroke-width: 2; stroke-linecap: round"/>
   </g>
   <g id="line2d_4">
    <path d="M 87.504 18.68 
L 87.504 63.68 
L 96.504 66.68 
L 78.504 72.68 
L 96.504 78.68 
L 78.504 84.68 
L 96.504 90.68 
L 78.504 96.68 
L 87.504 99.68 
L 87.504 144.68 
" clip-path="url(#pdb0078d0da)" style="fill: none; stroke: #000000; stroke-width: 2; stroke-linecap: round"/>
   </g>
   <g id="line2d_5">
    <path d="M 87.504 18.68 
L 132.504 18.68 
L 177.504 18.68 
" clip-path="url(#pdb0078d0da)" style="fill: none; stroke: #000000; stroke-width: 2; stroke-linecap: round"/>
   </g>
   <g id="line2d_6">
    <path d="M 177.504 18.68 
L 177.504 63.68 
M 177.504 99.68 
L 177.504 144.68 
" clip-path="url(#pdb0078d0da)" style="fill: none; stroke: #000000; stroke-width: 2; stroke-linecap: round"/>
   </g>
   <g id="line2d_7">
    <path d="M 177.504 18.68 
L 222.504 18.68 
L 267.504 18.68 
" clip-path="url(#pdb0078d0da)" style="fill: none; stroke: #000000; stroke-width: 2; stroke-linecap: round"/>
   </g>
   <g id="line2d_8">
    <path d="M 267.504 18.68 
L 267.504 78.44 
M 276.504 78.44 
L 258.504 78.44 
M 276.504 84.92 
L 258.504 84.92 
M 267.504 84.92 
L 267.504 144.68 
" clip-path="url(#pdb0078d0da)" style="fill: none; stroke: #000000; stroke-width: 2; stroke-linecap: round"/>
   </g>
   <g id="line2d_9">
    <path d="M 267.504 144.68 
L 177.504 144.68 
L 87.504 144.68 
" clip-path="url(#pdb0078d0da)" style="fill: none; stroke: #000000; stroke-width: 2; stroke-linecap: round"/>
   </g>
   <g id="line2d_10">
    <path d="M 87.504 144.68 
L 60.504 144.68 
L 33.504 144.68 
" clip-path="url(#pdb0078d0da)" style="fill: none; stroke: #000000; stroke-width: 2; stroke-linecap: round"/>
   </g>
   <g id="line2d_11">
    <path d="M 33.504 144.68 
L 33.504 144.68 
L 33.504 144.68 
" clip-path="url(#pdb0078d0da)" style="fill: none; stroke: #000000; stroke-width: 2; stroke-linecap: round"/>
   </g>
   <g id="text_1">
    <!-- $I_s$ -->
    <g transform="translate(7.074 155.317813) scale(0.14 -0.14)">
     <defs>
      <path id="DejaVuSans-Oblique-49" d="M 1081 4666 
L 1716 4666 
L 806 0 
L 172 0 
L 1081 4666 
z
" transform="scale(0.015625)"/>
      <path id="DejaVuSans-Oblique-73" d="M 3200 3397 
L 3091 2853 
Q 2863 2978 2609 3040 
Q 2356 3103 2088 3103 
Q 1634 3103 1373 2948 
Q 1113 2794 1113 2528 
Q 1113 2219 1719 2053 
Q 1766 2041 1788 2034 
L 1972 1978 
Q 2547 1819 2739 1644 
Q 2931 1469 2931 1166 
Q 2931 609 2489 259 
Q 2047 -91 1331 -91 
Q 1053 -91 747 -37 
Q 441 16 72 128 
L 184 722 
Q 500 559 806 475 
Q 1113 391 1394 391 
Q 1816 391 2080 572 
Q 2344 753 2344 1031 
Q 2344 1331 1650 1516 
L 1591 1531 
L 1394 1581 
Q 956 1697 753 1886 
Q 550 2075 550 2369 
Q 550 2928 970 3256 
Q 1391 3584 2113 3584 
Q 2397 3584 2667 3537 
Q 2938 3491 3200 3397 
z
" transform="scale(0.015625)"/>
     </defs>
     <use xlink:href="#DejaVuSans-Oblique-49" transform="translate(0 0.09375)"/>
     <use xlink:href="#DejaVuSans-Oblique-73" transform="translate(29.492188 -16.3125) scale(0.7)"/>
    </g>
   </g>
   <g id="text_2">
    <!-- $R$ -->
    <g transform="translate(104.204 15.768437) scale(0.14 -0.14)">
     <defs>
      <path id="DejaVuSans-Oblique-52" d="M 1613 4147 
L 1294 2491 
L 2106 2491 
Q 2584 2491 2879 2755 
Q 3175 3019 3175 3444 
Q 3175 3784 2976 3965 
Q 2778 4147 2406 4147 
L 1613 4147 
z
M 2772 2241 
Q 2972 2194 3105 2009 
Q 3238 1825 3413 1275 
L 3809 0 
L 3144 0 
L 2778 1197 
Q 2638 1659 2453 1815 
Q 2269 1972 1888 1972 
L 1191 1972 
L 806 0 
L 172 0 
L 1081 4666 
L 2503 4666 
Q 3150 4666 3495 4373 
Q 3841 4081 3841 3531 
Q 3841 3044 3547 2687 
Q 3253 2331 2772 2241 
z
" transform="scale(0.015625)"/>
     </defs>
     <use xlink:href="#DejaVuSans-Oblique-52" transform="translate(0 0.09375)"/>
    </g>
   </g>
   <g id="text_3">
    <!-- $L$ -->
    <g transform="translate(197.433989 15.768437) scale(0.14 -0.14)">
     <defs>
      <path id="DejaVuSans-Oblique-4c" d="M 1075 4666 
L 1709 4666 
L 909 525 
L 3181 525 
L 3078 0 
L 172 0 
L 1075 4666 
z
" transform="scale(0.015625)"/>
     </defs>
     <use xlink:href="#DejaVuSans-Oblique-4c" transform="translate(0 0.09375)"/>
    </g>
   </g>
   <g id="text_4">
    <!-- $C$ -->
    <g transform="translate(284.204 15.768437) scale(0.14 -0.14)">
     <defs>
      <path id="DejaVuSans-Oblique-43" d="M 4447 4306 
L 4319 3641 
Q 4019 3944 3683 4091 
Q 3347 4238 2956 4238 
Q 2422 4238 2017 3981 
Q 1613 3725 1319 3200 
Q 1131 2863 1032 2486 
Q 934 2109 934 1728 
Q 934 1091 1264 756 
Q 1594 422 2222 422 
Q 2656 422 3056 561 
Q 3456 700 3834 978 
L 3688 231 
Q 3316 72 2936 -9 
Q 2556 -91 2175 -91 
Q 1278 -91 773 396 
Q 269 884 269 1753 
Q 269 2309 461 2846 
Q 653 3384 1013 3828 
Q 1394 4300 1883 4525 
Q 2372 4750 3022 4750 
Q 3422 4750 3780 4639 
Q 4138 4528 4447 4306 
z
" transform="scale(0.015625)"/>
     </defs>
     <use xlink:href="#DejaVuSans-Oblique-43" transform="translate(0 0.78125)"/>
    </g>
   </g>
   <g id="text_5">
    <!-- + -->
    <g transform="translate(81.638219 54.043125) scale(0.14 -0.14)">
     <defs>
      <path id="DejaVuSans-2b" d="M 2944 4013 
L 2944 2272 
L 4684 2272 
L 4684 1741 
L 2944 1741 
L 2944 0 
L 2419 0 
L 2419 1741 
L 678 1741 
L 678 2272 
L 2419 2272 
L 2419 4013 
L 2944 4013 
z
" transform="scale(0.015625)"/>
     </defs>
     <use xlink:href="#DejaVuSans-2b"/>
    </g>
   </g>
   <g id="text_6">
    <!-- $v(t)$ -->
    <g transform="translate(75.114 85.543125) scale(0.14 -0.14)">
     <defs>
      <path id="DejaVuSans-Oblique-76" d="M 459 3500 
L 1069 3500 
L 1581 525 
L 3256 3500 
L 3866 3500 
L 1875 0 
L 1100 0 
L 459 3500 
z
" transform="scale(0.015625)"/>
      <path id="DejaVuSans-28" d="M 1984 4856 
Q 1566 4138 1362 3434 
Q 1159 2731 1159 2009 
Q 1159 1288 1364 580 
Q 1569 -128 1984 -844 
L 1484 -844 
Q 1016 -109 783 600 
Q 550 1309 550 2009 
Q 550 2706 781 3412 
Q 1013 4119 1484 4856 
L 1984 4856 
z
" transform="scale(0.015625)"/>
      <path id="DejaVuSans-Oblique-74" d="M 2706 3500 
L 2619 3053 
L 1472 3053 
L 1100 1153 
Q 1081 1047 1072 975 
Q 1063 903 1063 863 
Q 1063 663 1183 572 
Q 1303 481 1569 481 
L 2150 481 
L 2053 0 
L 1503 0 
Q 991 0 739 200 
Q 488 400 488 806 
Q 488 878 497 964 
Q 506 1050 525 1153 
L 897 3053 
L 409 3053 
L 500 3500 
L 978 3500 
L 1172 4494 
L 1747 4494 
L 1556 3500 
L 2706 3500 
z
" transform="scale(0.015625)"/>
      <path id="DejaVuSans-29" d="M 513 4856 
L 1013 4856 
Q 1481 4119 1714 3412 
Q 1947 2706 1947 2009 
Q 1947 1309 1714 600 
Q 1481 -109 1013 -844 
L 513 -844 
Q 928 -128 1133 580 
Q 1338 1288 1338 2009 
Q 1338 2731 1133 3434 
Q 928 4138 513 4856 
z
" transform="scale(0.015625)"/>
     </defs>
     <use xlink:href="#DejaVuSans-Oblique-76" transform="translate(0 0.125)"/>
     <use xlink:href="#DejaVuSans-28" transform="translate(59.179688 0.125)"/>
     <use xlink:href="#DejaVuSans-Oblique-74" transform="translate(98.193359 0.125)"/>
     <use xlink:href="#DejaVuSans-29" transform="translate(137.402344 0.125)"/>
    </g>
   </g>
   <g id="text_7">
    <!-- − -->
    <g transform="translate(81.638219 117.043125) scale(0.14 -0.14)">
     <defs>
      <path id="DejaVuSans-2212" d="M 678 2272 
L 4684 2272 
L 4684 1741 
L 678 1741 
L 678 2272 
z
" transform="scale(0.015625)"/>
     </defs>
     <use xlink:href="#DejaVuSans-2212"/>
    </g>
   </g>
   <g id="patch_8">
    <path d="M 87.504 21.38 
C 88.220048 21.38 88.906866 21.095511 89.413188 20.589188 
C 89.919511 20.082866 90.204 19.396048 90.204 18.68 
C 90.204 17.963952 89.919511 17.277134 89.413188 16.770812 
C 88.906866 16.264489 88.220048 15.98 87.504 15.98 
C 86.787952 15.98 86.101134 16.264489 85.594812 16.770812 
C 85.088489 17.277134 84.804 17.963952 84.804 18.68 
C 84.804 19.396048 85.088489 20.082866 85.594812 20.589188 
C 86.101134 21.095511 86.787952 21.38 87.504 21.38 
z
" clip-path="url(#pdb0078d0da)" style="stroke: #000000; stroke-width: 2; stroke-linejoin: miter"/>
   </g>
   <g id="patch_9">
    <path d="M 177.504 21.38 
C 178.220048 21.38 178.906866 21.095511 179.413188 20.589188 
C 179.919511 20.082866 180.204 19.396048 180.204 18.68 
C 180.204 17.963952 179.919511 17.277134 179.413188 16.770812 
C 178.906866 16.264489 178.220048 15.98 177.504 15.98 
C 176.787952 15.98 176.101134 16.264489 175.594812 16.770812 
C 175.088489 17.277134 174.804 17.963952 174.804 18.68 
C 174.804 19.396048 175.088489 20.082866 175.594812 20.589188 
C 176.101134 21.095511 176.787952 21.38 177.504 21.38 
z
" clip-path="url(#pdb0078d0da)" style="stroke: #000000; stroke-width: 2; stroke-linejoin: miter"/>
   </g>
   <g id="line2d_12">
    <path d="M 177.504 42.08 
L 177.504 42.08 
" clip-path="url(#pdb0078d0da)" style="fill: none; stroke: #000000; stroke-width: 2; stroke-linecap: round"/>
   </g>
   <g id="patch_10">
    <path d="M 182.904 42.08 
L 177.504 52.88 
L 172.104 42.08 
z
" clip-path="url(#pdb0078d0da)"/>
   </g>
   <g id="text_8">
    <!-- $i_L$ -->
    <g transform="translate(156.904 51.343125) scale(0.14 -0.14)">
     <defs>
      <path id="DejaVuSans-Oblique-69" d="M 1172 4863 
L 1747 4863 
L 1606 4134 
L 1031 4134 
L 1172 4863 
z
M 909 3500 
L 1484 3500 
L 800 0 
L 225 0 
L 909 3500 
z
" transform="scale(0.015625)"/>
     </defs>
     <use xlink:href="#DejaVuSans-Oblique-69" transform="translate(0 0.015625)"/>
     <use xlink:href="#DejaVuSans-Oblique-4c" transform="translate(27.783203 -16.390625) scale(0.7)"/>
    </g>
   </g>
   <g id="patch_11">
    <path d="M 267.504 21.38 
C 268.220048 21.38 268.906866 21.095511 269.413188 20.589188 
C 269.919511 20.082866 270.204 19.396048 270.204 18.68 
C 270.204 17.963952 269.919511 17.277134 269.413188 16.770812 
C 268.906866 16.264489 268.220048 15.98 267.504 15.98 
C 266.787952 15.98 266.101134 16.264489 265.594812 16.770812 
C 265.088489 17.277134 264.804 17.963952 264.804 18.68 
C 264.804 19.396048 265.088489 20.082866 265.594812 20.589188 
C 266.101134 21.095511 266.787952 21.38 267.504 21.38 
z
" clip-path="url(#pdb0078d0da)" style="stroke: #000000; stroke-width: 2; stroke-linejoin: miter"/>
   </g>
  </g>
 </g>
 <defs>
  <clipPath id="pdb0078d0da">
   <rect x="0" y="-0" width="298.488" height="163.36"/>
  </clipPath>
 </defs>
</svg>
