<?xml version="1.0" encoding="utf-8" standalone="no"?>
<!DOCTYPE svg PUBLIC "-//W3C//DTD SVG 1.1//EN"
  "http://www.w3.org/Graphics/SVG/1.1/DTD/svg11.dtd">
<svg xmlns:xlink="http://www.w3.org/1999/xlink" width="496.8pt" height="496.8pt" viewBox="0 0 496.8 496.8" xmlns="http://www.w3.org/2000/svg" version="1.1">
 <metadata>
  <rdf:RDF xmlns:dc="http://purl.org/dc/elements/1.1/" xmlns:cc="http://creativecommons.org/ns#" xmlns:rdf="http://www.w3.org/1999/02/22-rdf-syntax-ns#">
   <cc:Work>
    <dc:type rdf:resource="http://purl.org/dc/dcmitype/StillImage"/>
    <dc:date>2026-03-05T18:10:34.879038</dc:date>
    <dc:format>image/svg+xml</dc:format>
    <dc:creator>
     <cc:Agent>
      <dc:title>Matplotlib v3.10.8, https://matplotlib.org/</dc:title>
     </cc:Agent>
    </dc:creator>
   </cc:Work>
  </rdf:RDF>
 </metadata>
 <defs>
  <style type="text/css">*{stroke-linejoin: round; stroke-linecap: butt}</style>
 </defs>
 <g id="figure_1">
  <g id="patch_1">
   <path d="M 0 496.8 
L 496.8 496.8 
L 496.8 0 
L 0 0 
z
" style="fill: #ffffff"/>
  </g>
  <g id="axes_1">
   <g id="patch_2">
    <path d="M 270.787852 418.452623 
L 275.922309 417.697469 
L 281.03157 416.787325 
L 286.110956 415.723024 
L 291.155818 414.50554 
L 296.161538 413.135988 
L 301.123533 411.615623 
L 306.03726 409.945835 
L 310.89822 408.128153 
L 315.701964 406.164242 
L 320.444094 404.055899 
L 325.120268 401.805055 
L 329.726206 399.41377 
L 334.25769 396.884233 
L 338.710572 394.218761 
L 343.080776 391.419793 
L 347.3643 388.489892 
L 351.557224 385.431739 
L 355.655708 382.248136 
L 359.656001 378.941996 
L 363.55444 375.516346 
L 367.347456 371.974322 
L 371.031577 368.319168 
L 374.60343 364.554228 
L 378.059745 360.682951 
L 381.397358 356.708879 
L 384.613213 352.635652 
L 387.704366 348.466998 
L 390.667987 344.206734 
L 393.501364 339.858759 
L 396.201901 335.427055 
L 398.767128 330.915679 
L 401.194695 326.32876 
L 403.482379 321.670499 
L 405.628088 316.945159 
L 407.629856 312.157066 
L 409.48585 307.310605 
L 411.194372 302.410211 
L 412.753857 297.460372 
L 414.162878 292.465618 
L 415.420144 287.430523 
L 416.524506 282.359696 
L 417.474951 277.257779 
L 418.270609 272.129443 
L 418.910753 266.979383 
L 419.394796 261.812313 
L 419.722295 256.632965 
L 419.89295 251.44608 
L 419.906605 246.256406 
L 419.763247 241.068694 
L 419.463008 235.887694 
L 419.006162 230.718149 
L 418.393128 225.564792 
L 417.624467 220.43234 
L 416.700883 215.325492 
L 415.623221 210.248923 
L 414.392468 205.207282 
L 413.009751 200.205182 
L 411.476334 195.247205 
L 409.793623 190.337889 
L 407.963158 185.481728 
L 405.986614 180.683168 
L 403.865802 175.946602 
L 401.602662 171.276366 
L 399.199266 166.676737 
L 396.657815 162.151924 
L 393.980636 157.70607 
L 391.170179 153.343246 
L 388.229017 149.067445 
L 385.159843 144.882583 
L 381.965467 140.792489 
L 378.648813 136.800909 
L 375.212918 132.911497 
L 371.660926 129.127814 
L 367.996091 125.453323 
L 364.221766 121.891388 
L 360.341408 118.445271 
L 356.358569 115.118126 
L 352.276894 111.913 
L 348.100121 108.832826 
L 343.832074 105.880424 
L 339.47666 103.058497 
L 335.037866 100.369629 
L 330.519755 97.816282 
L 325.926465 95.400792 
L 321.262201 93.125372 
L 316.531231 90.992104 
L 311.737888 89.002941 
L 306.88656 87.159705 
L 301.981689 85.464083 
L 297.027763 83.917627 
L 292.029319 82.521753 
L 286.990934 81.277739 
L 281.917218 80.186723 
L 276.812818 79.249705 
L 271.682406 78.467543 
L 266.53068 77.840952 
L 261.362354 77.370506 
L 256.182162 77.056636 
L 250.994846 76.899629 
L 245.805154 76.899629 
L 240.617838 77.056636 
L 235.437646 77.370506 
L 230.26932 77.840952 
L 225.117594 78.467543 
L 219.987182 79.249705 
L 214.882782 80.186723 
L 209.809066 81.277739 
L 204.770681 82.521753 
L 199.772237 83.917627 
L 194.818311 85.464083 
L 189.91344 87.159705 
L 185.062112 89.002941 
L 180.268769 90.992104 
L 175.537799 93.125372 
L 170.873535 95.400792 
L 166.280245 97.816282 
L 161.762134 100.369629 
L 157.32334 103.058497 
L 152.967926 105.880424 
L 148.699879 108.832826 
L 144.523106 111.913 
L 140.441431 115.118126 
L 136.458592 118.445271 
L 132.578234 121.891388 
L 128.803909 125.453323 
L 125.139074 129.127814 
L 121.587082 132.911497 
L 118.151187 136.800909 
L 114.834533 140.792489 
L 111.640157 144.882583 
L 108.570983 149.067445 
L 105.629821 153.343246 
L 102.819364 157.70607 
L 100.142185 162.151924 
L 97.600734 166.676737 
L 95.197338 171.276366 
L 92.934198 175.946602 
L 90.813386 180.683168 
L 88.836842 185.481728 
L 87.006377 190.337889 
L 85.323666 195.247205 
L 83.790249 200.205182 
L 82.407532 205.207282 
L 81.176779 210.248923 
L 80.099117 215.325492 
L 79.175533 220.43234 
L 78.406872 225.564792 
L 77.793838 230.718149 
L 77.336992 235.887694 
L 77.036753 241.068694 
L 76.893395 246.256406 
L 76.90705 251.44608 
L 77.077705 256.632965 
L 77.405204 261.812313 
L 77.889247 266.979383 
L 78.529391 272.129443 
L 79.325049 277.257779 
L 80.275494 282.359696 
L 81.379856 287.430523 
L 82.637122 292.465618 
L 84.046143 297.460372 
L 85.605628 302.410211 
L 87.31415 307.310605 
L 89.170144 312.157066 
L 91.171912 316.945159 
L 93.317621 321.670499 
L 95.605305 326.32876 
L 98.032872 330.915679 
L 100.598099 335.427055 
L 103.298636 339.858759 
L 106.132013 344.206734 
L 109.095634 348.466998 
L 112.186787 352.635652 
L 115.402642 356.708879 
L 118.740255 360.682951 
L 122.19657 364.554228 
L 125.768423 368.319168 
L 129.452544 371.974322 
L 133.24556 375.516346 
L 137.143999 378.941996 
L 141.144292 382.248136 
L 145.242776 385.431739 
L 149.4357 388.489892 
L 153.719224 391.419793 
L 158.089428 394.218761 
L 162.54231 396.884233 
L 167.073794 399.41377 
L 171.679732 401.805055 
L 176.355906 404.055899 
L 181.098036 406.164242 
L 185.90178 408.128153 
L 190.76274 409.945835 
L 195.676467 411.615623 
L 200.638462 413.135988 
L 205.644182 414.50554 
L 210.689044 415.723024 
L 215.76843 416.787325 
L 220.877691 417.697469 
L 226.012148 418.452623 
L 233.008351 365.311178 
L 229.478412 364.79201 
L 225.965796 364.166286 
L 222.473718 363.434579 
L 219.005375 362.597559 
L 215.563942 361.655992 
L 212.152571 360.610741 
L 208.774384 359.462761 
L 205.432473 358.213105 
L 202.1299 356.862916 
L 198.869685 355.413431 
L 195.654816 353.865975 
L 192.488234 352.221967 
L 189.372838 350.48291 
L 186.311482 348.650398 
L 183.306967 346.726108 
L 180.362044 344.7118 
L 177.479409 342.609321 
L 174.661701 340.420593 
L 171.9115 338.147622 
L 169.231323 335.792488 
L 166.623624 333.357347 
L 164.090791 330.844428 
L 161.635142 328.256032 
L 159.258925 325.594529 
L 156.964317 322.862354 
L 154.753416 320.062011 
L 152.628249 317.196061 
L 150.590759 314.267129 
L 148.642812 311.277897 
L 146.786193 308.231101 
L 145.0226 305.129529 
L 143.353647 301.976023 
L 141.780864 298.773468 
L 140.30569 295.524797 
L 138.929474 292.232983 
L 137.653478 288.901041 
L 136.478869 285.53202 
L 135.406723 282.129006 
L 134.438021 278.695113 
L 133.573651 275.233485 
L 132.814402 271.747291 
L 132.160971 268.239723 
L 131.613956 264.713992 
L 131.173857 261.173326 
L 130.841078 257.620965 
L 130.615922 254.060163 
L 130.498597 250.49418 
L 130.489209 246.926279 
L 130.587768 243.359727 
L 130.794182 239.79779 
L 131.108264 236.243727 
L 131.529724 232.700794 
L 132.058179 229.172233 
L 132.693143 225.661276 
L 133.434035 222.171135 
L 134.280178 218.705006 
L 135.230797 215.266063 
L 136.28502 211.857454 
L 137.441884 208.482299 
L 138.700329 205.143688 
L 140.059203 201.844678 
L 141.517261 198.588289 
L 143.07317 195.377502 
L 144.725505 192.215256 
L 146.472752 189.104448 
L 148.313313 186.047923 
L 150.245502 183.048482 
L 152.267551 180.108869 
L 154.377608 177.231776 
L 156.573741 174.419836 
L 158.853941 171.675625 
L 161.216119 169.001654 
L 163.658113 166.400372 
L 166.177687 163.874159 
L 168.772536 161.425329 
L 171.440282 159.056124 
L 174.178484 156.768712 
L 176.984635 154.565187 
L 179.856167 152.447568 
L 182.790449 150.417791 
L 185.784796 148.477717 
L 188.836467 146.62912 
L 191.942668 144.873694 
L 195.100555 143.213045 
L 198.307237 141.648693 
L 201.559778 140.182072 
L 204.855202 138.814522 
L 208.19049 137.547297 
L 211.562589 136.381557 
L 214.968413 135.318369 
L 218.404843 134.358705 
L 221.868733 133.503445 
L 225.356913 132.753372 
L 228.866188 132.109172 
L 232.393346 131.571436 
L 235.935158 131.140654 
L 239.488381 130.817223 
L 243.049763 130.601437 
L 246.616043 130.493495 
L 250.183957 130.493495 
L 253.750237 130.601437 
L 257.311619 130.817223 
L 260.864842 131.140654 
L 264.406654 131.571436 
L 267.933812 132.109172 
L 271.443087 132.753372 
L 274.931267 133.503445 
L 278.395157 134.358705 
L 281.831587 135.318369 
L 285.237411 136.381557 
L 288.60951 137.547297 
L 291.944798 138.814522 
L 295.240222 140.182072 
L 298.492763 141.648693 
L 301.699445 143.213045 
L 304.857332 144.873694 
L 307.963533 146.62912 
L 311.015204 148.477717 
L 314.009551 150.417791 
L 316.943833 152.447568 
L 319.815365 154.565187 
L 322.621516 156.768712 
L 325.359718 159.056124 
L 328.027464 161.425329 
L 330.622313 163.874159 
L 333.141887 166.400372 
L 335.583881 169.001654 
L 337.946059 171.675625 
L 340.226259 174.419836 
L 342.422392 177.231776 
L 344.532449 180.108869 
L 346.554498 183.048482 
L 348.486687 186.047923 
L 350.327248 189.104448 
L 352.074495 192.215256 
L 353.72683 195.377502 
L 355.282739 198.588289 
L 356.740797 201.844678 
L 358.099671 205.143688 
L 359.358116 208.482299 
L 360.51498 211.857454 
L 361.569203 215.266063 
L 362.519822 218.705006 
L 363.365965 222.171135 
L 364.106857 225.661276 
L 364.741821 229.172233 
L 365.270276 232.700794 
L 365.691736 236.243727 
L 366.005818 239.79779 
L 366.212232 243.359727 
L 366.310791 246.926279 
L 366.301403 250.49418 
L 366.184078 254.060163 
L 365.958922 257.620965 
L 365.626143 261.173326 
L 365.186044 264.713992 
L 364.639029 268.239723 
L 363.985598 271.747291 
L 363.226349 275.233485 
L 362.361979 278.695113 
L 361.393277 282.129006 
L 360.321131 285.53202 
L 359.146522 288.901041 
L 357.870526 292.232983 
L 356.49431 295.524797 
L 355.019136 298.773468 
L 353.446353 301.976023 
L 351.7774 305.129529 
L 350.013807 308.231101 
L 348.157188 311.277897 
L 346.209241 314.267129 
L 344.171751 317.196061 
L 342.046584 320.062011 
L 339.835683 322.862354 
L 337.541075 325.594529 
L 335.164858 328.256032 
L 332.709209 330.844428 
L 330.176376 333.357347 
L 327.568677 335.792488 
L 324.8885 338.147622 
L 322.138299 340.420593 
L 319.320591 342.609321 
L 316.437956 344.7118 
L 313.493033 346.726108 
L 310.488518 348.650398 
L 307.427162 350.48291 
L 304.311766 352.221967 
L 301.145184 353.865975 
L 297.930315 355.413431 
L 294.6701 356.862916 
L 291.367527 358.213105 
L 288.025616 359.462761 
L 284.647429 360.610741 
L 281.236058 361.655992 
L 277.794625 362.597559 
L 274.326282 363.434579 
L 270.834204 364.166286 
L 267.321588 364.79201 
L 263.791649 365.311178 
z
" clip-path="url(#pe6202ea3e0)" style="fill: #b0b0b0; stroke: #000000; stroke-width: 1.5; stroke-linejoin: miter"/>
   </g>
   <g id="patch_3">
    <path d="M 226.012148 418.452623 
L 227.5482 418.647798 
L 229.085952 418.829099 
L 230.625278 418.996511 
L 232.166052 419.15002 
L 233.70815 419.289613 
L 235.251445 419.41528 
L 236.795811 419.527009 
L 238.341123 419.624792 
L 239.887255 419.708621 
L 241.434081 419.778489 
L 242.981474 419.83439 
L 244.529309 419.876319 
L 246.077459 419.904275 
L 247.625799 419.918253 
L 249.174201 419.918253 
L 250.722541 419.904275 
L 252.270691 419.876319 
L 253.818526 419.83439 
L 255.365919 419.778489 
L 256.912745 419.708621 
L 258.458877 419.624792 
L 260.004189 419.527009 
L 261.548555 419.41528 
L 263.09185 419.289613 
L 264.633948 419.15002 
L 266.174722 418.996511 
L 267.714048 418.829099 
L 269.2518 418.647798 
L 270.787852 418.452623 
L 263.791649 365.311178 
L 262.735612 365.445361 
L 261.678408 365.570006 
L 260.620121 365.685101 
L 259.560839 365.790639 
L 258.500647 365.886609 
L 257.439632 365.973005 
L 256.37788 366.049819 
L 255.315478 366.117044 
L 254.252512 366.174677 
L 253.18907 366.222711 
L 252.125237 366.261143 
L 251.0611 366.28997 
L 249.996747 366.309189 
L 248.932263 366.318799 
L 247.867737 366.318799 
L 246.803253 366.309189 
L 245.7389 366.28997 
L 244.674763 366.261143 
L 243.61093 366.222711 
L 242.547488 366.174677 
L 241.484522 366.117044 
L 240.42212 366.049819 
L 239.360368 365.973005 
L 238.299353 365.886609 
L 237.239161 365.790639 
L 236.179879 365.685101 
L 235.121592 365.570006 
L 234.064388 365.445361 
L 233.008351 365.311178 
z
" clip-path="url(#pe6202ea3e0)" style="fill: #ffffff; stroke: #000000; stroke-width: 1.5; stroke-linejoin: miter"/>
   </g>
   <g id="line2d_1">
    <path d="M 235.140216 374.558418 
L 261.659784 374.558418 
" clip-path="url(#pe6202ea3e0)" style="fill: none; stroke: #000000; stroke-width: 0.5; stroke-linecap: square"/>
   </g>
   <g id="line2d_2">
    <path d="M 234.206428 383.442813 
L 262.593572 383.442813 
" clip-path="url(#pe6202ea3e0)" style="fill: none; stroke: #000000; stroke-width: 0.5; stroke-linecap: square"/>
   </g>
   <g id="line2d_3">
    <path d="M 233.272641 392.327209 
L 263.527359 392.327209 
" clip-path="url(#pe6202ea3e0)" style="fill: none; stroke: #000000; stroke-width: 0.5; stroke-linecap: square"/>
   </g>
   <g id="line2d_4">
    <path d="M 232.338853 401.211604 
L 264.461147 401.211604 
" clip-path="url(#pe6202ea3e0)" style="fill: none; stroke: #000000; stroke-width: 0.5; stroke-linecap: square"/>
   </g>
   <g id="line2d_5">
    <path d="M 231.405066 410.096 
L 265.394934 410.096 
" clip-path="url(#pe6202ea3e0)" style="fill: none; stroke: #000000; stroke-width: 0.5; stroke-linecap: square"/>
   </g>
   <g id="text_1">
    <!-- $N$ turns -->
    <g transform="translate(224.61 42.016406) scale(0.13 -0.13)">
     <defs>
      <path id="DejaVuSans-Oblique-4e" d="M 1081 4666 
L 1931 4666 
L 3219 666 
L 4000 4666 
L 4616 4666 
L 3706 0 
L 2853 0 
L 1569 4025 
L 788 0 
L 172 0 
L 1081 4666 
z
" transform="scale(0.015625)"/>
      <path id="DejaVuSans-Oblique-20" transform="scale(0.015625)"/>
      <path id="DejaVuSans-Oblique-74" d="M 2706 3500 
L 2619 3053 
L 1472 3053 
L 1100 1153 
Q 1081 1047 1072 975 
Q 1063 903 1063 863 
Q 1063 663 1183 572 
Q 1303 481 1569 481 
L 2150 481 
L 2053 0 
L 1503 0 
Q 991 0 739 200 
Q 488 400 488 806 
Q 488 878 497 964 
Q 506 1050 525 1153 
L 897 3053 
L 409 3053 
L 500 3500 
L 978 3500 
L 1172 4494 
L 1747 4494 
L 1556 3500 
L 2706 3500 
z
" transform="scale(0.015625)"/>
      <path id="DejaVuSans-Oblique-75" d="M 428 1388 
L 838 3500 
L 1416 3500 
L 1006 1409 
Q 975 1256 961 1147 
Q 947 1038 947 966 
Q 947 700 1109 554 
Q 1272 409 1569 409 
Q 2031 409 2368 721 
Q 2706 1034 2809 1563 
L 3194 3500 
L 3769 3500 
L 3091 0 
L 2516 0 
L 2631 550 
Q 2388 244 2052 76 
Q 1716 -91 1338 -91 
Q 878 -91 622 161 
Q 366 413 366 863 
Q 366 956 381 1097 
Q 397 1238 428 1388 
z
" transform="scale(0.015625)"/>
      <path id="DejaVuSans-Oblique-72" d="M 2853 2969 
Q 2766 3016 2653 3041 
Q 2541 3066 2413 3066 
Q 1953 3066 1609 2717 
Q 1266 2369 1153 1784 
L 800 0 
L 225 0 
L 909 3500 
L 1484 3500 
L 1375 2956 
Q 1603 3259 1920 3421 
Q 2238 3584 2597 3584 
Q 2691 3584 2781 3573 
Q 2872 3563 2963 3538 
L 2853 2969 
z
" transform="scale(0.015625)"/>
      <path id="DejaVuSans-Oblique-6e" d="M 3566 2113 
L 3156 0 
L 2578 0 
L 2988 2091 
Q 3016 2238 3031 2350 
Q 3047 2463 3047 2528 
Q 3047 2791 2881 2937 
Q 2716 3084 2419 3084 
Q 1956 3084 1622 2776 
Q 1288 2469 1184 1941 
L 800 0 
L 225 0 
L 903 3500 
L 1478 3500 
L 1363 2950 
Q 1603 3253 1940 3418 
Q 2278 3584 2650 3584 
Q 3113 3584 3367 3334 
Q 3622 3084 3622 2631 
Q 3622 2519 3608 2391 
Q 3594 2263 3566 2113 
z
" transform="scale(0.015625)"/>
      <path id="DejaVuSans-Oblique-73" d="M 3200 3397 
L 3091 2853 
Q 2863 2978 2609 3040 
Q 2356 3103 2088 3103 
Q 1634 3103 1373 2948 
Q 1113 2794 1113 2528 
Q 1113 2219 1719 2053 
Q 1766 2041 1788 2034 
L 1972 1978 
Q 2547 1819 2739 1644 
Q 2931 1469 2931 1166 
Q 2931 609 2489 259 
Q 2047 -91 1331 -91 
Q 1053 -91 747 -37 
Q 441 16 72 128 
L 184 722 
Q 500 559 806 475 
Q 1113 391 1394 391 
Q 1816 391 2080 572 
Q 2344 753 2344 1031 
Q 2344 1331 1650 1516 
L 1591 1531 
L 1394 1581 
Q 956 1697 753 1886 
Q 550 2075 550 2369 
Q 550 2928 970 3256 
Q 1391 3584 2113 3584 
Q 2397 3584 2667 3537 
Q 2938 3491 3200 3397 
z
" transform="scale(0.015625)"/>
     </defs>
     <use xlink:href="#DejaVuSans-Oblique-4e" transform="translate(0 0.09375)"/>
     <use xlink:href="#DejaVuSans-Oblique-20" transform="translate(74.804688 0.09375)"/>
     <use xlink:href="#DejaVuSans-Oblique-74" transform="translate(106.591797 0.09375)"/>
     <use xlink:href="#DejaVuSans-Oblique-75" transform="translate(145.800781 0.09375)"/>
     <use xlink:href="#DejaVuSans-Oblique-72" transform="translate(209.179688 0.09375)"/>
     <use xlink:href="#DejaVuSans-Oblique-6e" transform="translate(250.292969 0.09375)"/>
     <use xlink:href="#DejaVuSans-Oblique-73" transform="translate(313.671875 0.09375)"/>
    </g>
   </g>
   <g id="patch_4">
    <path d="M 446.72 198.140518 
Q 446.72 248.399373 446.72 298.658228 
" style="fill: none; stroke: #000000; stroke-width: 1.2; stroke-linecap: round"/>
    <path d="M 444.72 202.140518 
L 446.72 198.140518 
L 448.72 202.140518 
" style="fill: none; stroke: #000000; stroke-width: 1.2; stroke-linecap: round"/>
    <path d="M 448.72 294.658228 
L 446.72 298.658228 
L 444.72 294.658228 
" style="fill: none; stroke: #000000; stroke-width: 1.2; stroke-linecap: round"/>
   </g>
   <g id="text_2">
    <!-- $\ell_1$ -->
    <g transform="translate(462.8 252.263125) scale(0.14 -0.14)">
     <defs>
      <path id="DejaVuSans-Oblique-2113" d="M 950 838 
Q 1078 213 1350 213 
Q 1531 213 1766 572 
L 2181 572 
Q 1994 253 1775 88 
Q 1538 -91 1319 -91 
Q 831 -91 634 344 
L 400 0 
L -88 0 
Q 250 459 500 888 
Q 469 1131 469 1397 
Q 469 1872 566 2347 
Q 931 4131 1256 4497 
Q 1481 4750 1866 4750 
Q 2256 4750 2256 4209 
Q 2253 3966 2197 3675 
Q 1972 2484 950 838 
z
M 947 1656 
Q 1531 2744 1709 3613 
Q 1803 4072 1803 4191 
Q 1803 4406 1725 4406 
Q 1384 4134 1081 2516 
Q 997 2063 947 1656 
z
" transform="scale(0.015625)"/>
      <path id="DejaVuSans-31" d="M 794 531 
L 1825 531 
L 1825 4091 
L 703 3866 
L 703 4441 
L 1819 4666 
L 2450 4666 
L 2450 531 
L 3481 531 
L 3481 0 
L 794 0 
L 794 531 
z
" transform="scale(0.015625)"/>
     </defs>
     <use xlink:href="#DejaVuSans-Oblique-2113" transform="translate(0 0.78125)"/>
     <use xlink:href="#DejaVuSans-31" transform="translate(41.308594 -15.625) scale(0.7)"/>
    </g>
   </g>
   <g id="patch_5">
    <path d="M 219.579863 425.28 
Q 248.400609 425.28 277.221354 425.28 
" style="fill: none; stroke: #000000; stroke-width: 1.2; stroke-linecap: round"/>
    <path d="M 223.579863 427.28 
L 219.579863 425.28 
L 223.579863 423.28 
" style="fill: none; stroke: #000000; stroke-width: 1.2; stroke-linecap: round"/>
    <path d="M 273.221354 423.28 
L 277.221354 425.28 
L 273.221354 427.28 
" style="fill: none; stroke: #000000; stroke-width: 1.2; stroke-linecap: round"/>
   </g>
   <g id="text_3">
    <!-- $\ell_2$ -->
    <g transform="translate(242.17 457.357812) scale(0.14 -0.14)">
     <defs>
      <path id="DejaVuSans-32" d="M 1228 531 
L 3431 531 
L 3431 0 
L 469 0 
L 469 531 
Q 828 903 1448 1529 
Q 2069 2156 2228 2338 
Q 2531 2678 2651 2914 
Q 2772 3150 2772 3378 
Q 2772 3750 2511 3984 
Q 2250 4219 1831 4219 
Q 1534 4219 1204 4116 
Q 875 4013 500 3803 
L 500 4441 
Q 881 4594 1212 4672 
Q 1544 4750 1819 4750 
Q 2544 4750 2975 4387 
Q 3406 4025 3406 3419 
Q 3406 3131 3298 2873 
Q 3191 2616 2906 2266 
Q 2828 2175 2409 1742 
Q 1991 1309 1228 531 
z
" transform="scale(0.015625)"/>
     </defs>
     <use xlink:href="#DejaVuSans-Oblique-2113" transform="translate(0 0.78125)"/>
     <use xlink:href="#DejaVuSans-32" transform="translate(41.308594 -15.625) scale(0.7)"/>
    </g>
   </g>
   <g id="patch_6">
    <path d="M 409.181556 86.076293 
Q 394.142525 101.852562 379.874928 116.819579 
" style="fill: none; stroke: #000000; stroke-linecap: round"/>
    <path d="M 385.765571 114.698183 
L 379.874928 116.819579 
L 381.712197 110.834227 
" style="fill: none; stroke: #000000; stroke-linecap: round"/>
   </g>
   <g id="text_4">
    <!-- $A$ -->
    <g transform="translate(412.562955 81.325482) scale(0.14 -0.14)">
     <defs>
      <path id="DejaVuSans-Oblique-41" d="M 2356 4666 
L 3072 4666 
L 3938 0 
L 3278 0 
L 3084 1197 
L 984 1197 
L 325 0 
L -341 0 
L 2356 4666 
z
M 2584 4044 
L 1275 1722 
L 2988 1722 
L 2584 4044 
z
" transform="scale(0.015625)"/>
     </defs>
     <use xlink:href="#DejaVuSans-Oblique-41" transform="translate(0 0.09375)"/>
    </g>
   </g>
   <g id="patch_7">
    <path d="M 446.810636 133.847566 
Q 427.383328 145.063927 409.117916 155.609468 
" style="fill: none; stroke: #000000; stroke-width: 1.2; stroke-linecap: round"/>
    <path d="M 415.367658 155.234339 
L 409.117916 155.609468 
L 412.567658 150.384597 
" style="fill: none; stroke: #000000; stroke-width: 1.2; stroke-linecap: round"/>
   </g>
   <g id="text_5">
    <!-- $I$ -->
    <g transform="translate(450.543431 134.343125) scale(0.14 -0.14)">
     <defs>
      <path id="DejaVuSans-Oblique-49" d="M 1081 4666 
L 1716 4666 
L 806 0 
L 172 0 
L 1081 4666 
z
" transform="scale(0.015625)"/>
     </defs>
     <use xlink:href="#DejaVuSans-Oblique-49" transform="translate(0 0.09375)"/>
    </g>
   </g>
   <g id="line2d_6">
    <defs>
     <path id="mf0cd07065c" d="M 0 2 
C 0.530406 2 1.03916 1.789267 1.414214 1.414214 
C 1.789267 1.03916 2 0.530406 2 0 
C 2 -0.530406 1.789267 -1.03916 1.414214 -1.414214 
C 1.03916 -1.789267 0.530406 -2 0 -2 
C -0.530406 -2 -1.03916 -1.789267 -1.414214 -1.414214 
C -1.789267 -1.03916 -2 -0.530406 -2 0 
C -2 0.530406 -1.789267 1.03916 -1.414214 1.414214 
C -1.03916 1.789267 -0.530406 2 0 2 
z
" style="stroke: #000000"/>
    </defs>
    <g clip-path="url(#pe6202ea3e0)">
     <use xlink:href="#mf0cd07065c" x="406.22447" y="157.28" style="stroke: #000000"/>
    </g>
   </g>
   <g id="line2d_7">
    <path d="M 335.877923 200.16 
L 346.597923 189.44 
" clip-path="url(#pe6202ea3e0)" style="fill: none; stroke: #000000; stroke-width: 1.2; stroke-linecap: square"/>
   </g>
   <g id="line2d_8">
    <path d="M 335.877923 189.44 
L 346.597923 200.16 
" clip-path="url(#pe6202ea3e0)" style="fill: none; stroke: #000000; stroke-width: 1.2; stroke-linecap: square"/>
   </g>
   <g id="line2d_9">
    <g clip-path="url(#pe6202ea3e0)">
     <use xlink:href="#mf0cd07065c" x="389.564008" y="133.143155" style="stroke: #000000"/>
    </g>
   </g>
   <g id="line2d_10">
    <path d="M 326.077652 185.961856 
L 336.797652 175.241856 
" clip-path="url(#pe6202ea3e0)" style="fill: none; stroke: #000000; stroke-width: 1.2; stroke-linecap: square"/>
   </g>
   <g id="line2d_11">
    <path d="M 326.077652 175.241856 
L 336.797652 185.961856 
" clip-path="url(#pe6202ea3e0)" style="fill: none; stroke: #000000; stroke-width: 1.2; stroke-linecap: square"/>
   </g>
   <g id="line2d_12">
    <g clip-path="url(#pe6202ea3e0)">
     <use xlink:href="#mf0cd07065c" x="369.247473" y="111.991401" style="stroke: #000000"/>
    </g>
   </g>
   <g id="line2d_13">
    <path d="M 314.126749 173.519648 
L 324.846749 162.799648 
" clip-path="url(#pe6202ea3e0)" style="fill: none; stroke: #000000; stroke-width: 1.2; stroke-linecap: square"/>
   </g>
   <g id="line2d_14">
    <path d="M 314.126749 162.799648 
L 324.846749 173.519648 
" clip-path="url(#pe6202ea3e0)" style="fill: none; stroke: #000000; stroke-width: 1.2; stroke-linecap: square"/>
   </g>
   <g id="line2d_15">
    <g clip-path="url(#pe6202ea3e0)">
     <use xlink:href="#mf0cd07065c" x="345.801052" y="94.372559" style="stroke: #000000"/>
    </g>
   </g>
   <g id="line2d_16">
    <path d="M 300.334737 163.155623 
L 311.054737 152.435623 
" clip-path="url(#pe6202ea3e0)" style="fill: none; stroke: #000000; stroke-width: 1.2; stroke-linecap: square"/>
   </g>
   <g id="line2d_17">
    <path d="M 300.334737 152.435623 
L 311.054737 163.155623 
" clip-path="url(#pe6202ea3e0)" style="fill: none; stroke: #000000; stroke-width: 1.2; stroke-linecap: square"/>
   </g>
   <g id="line2d_18">
    <g clip-path="url(#pe6202ea3e0)">
     <use xlink:href="#mf0cd07065c" x="319.831995" y="80.742946" style="stroke: #000000"/>
    </g>
   </g>
   <g id="line2d_19">
    <path d="M 285.058821 155.138204 
L 295.778821 144.418204 
" clip-path="url(#pe6202ea3e0)" style="fill: none; stroke: #000000; stroke-width: 1.2; stroke-linecap: square"/>
   </g>
   <g id="line2d_20">
    <path d="M 285.058821 144.418204 
L 295.778821 155.138204 
" clip-path="url(#pe6202ea3e0)" style="fill: none; stroke: #000000; stroke-width: 1.2; stroke-linecap: square"/>
   </g>
   <g id="line2d_21">
    <g clip-path="url(#pe6202ea3e0)">
     <use xlink:href="#mf0cd07065c" x="292.012887" y="71.455563" style="stroke: #000000"/>
    </g>
   </g>
   <g id="line2d_22">
    <path d="M 268.694639 149.675037 
L 279.414639 138.955037 
" clip-path="url(#pe6202ea3e0)" style="fill: none; stroke: #000000; stroke-width: 1.2; stroke-linecap: square"/>
   </g>
   <g id="line2d_23">
    <path d="M 268.694639 138.955037 
L 279.414639 149.675037 
" clip-path="url(#pe6202ea3e0)" style="fill: none; stroke: #000000; stroke-width: 1.2; stroke-linecap: square"/>
   </g>
   <g id="line2d_24">
    <g clip-path="url(#pe6202ea3e0)">
     <use xlink:href="#mf0cd07065c" x="263.064227" y="66.750948" style="stroke: #000000"/>
    </g>
   </g>
   <g id="line2d_25">
    <path d="M 251.666016 146.907617 
L 262.386016 136.187617 
" clip-path="url(#pe6202ea3e0)" style="fill: none; stroke: #000000; stroke-width: 1.2; stroke-linecap: square"/>
   </g>
   <g id="line2d_26">
    <path d="M 251.666016 136.187617 
L 262.386016 146.907617 
" clip-path="url(#pe6202ea3e0)" style="fill: none; stroke: #000000; stroke-width: 1.2; stroke-linecap: square"/>
   </g>
   <g id="line2d_27">
    <g clip-path="url(#pe6202ea3e0)">
     <use xlink:href="#mf0cd07065c" x="233.735773" y="66.750948" style="stroke: #000000"/>
    </g>
   </g>
   <g id="line2d_28">
    <path d="M 234.413984 146.907617 
L 245.133984 136.187617 
" clip-path="url(#pe6202ea3e0)" style="fill: none; stroke: #000000; stroke-width: 1.2; stroke-linecap: square"/>
   </g>
   <g id="line2d_29">
    <path d="M 234.413984 136.187617 
L 245.133984 146.907617 
" clip-path="url(#pe6202ea3e0)" style="fill: none; stroke: #000000; stroke-width: 1.2; stroke-linecap: square"/>
   </g>
   <g id="line2d_30">
    <g clip-path="url(#pe6202ea3e0)">
     <use xlink:href="#mf0cd07065c" x="204.787113" y="71.455563" style="stroke: #000000"/>
    </g>
   </g>
   <g id="line2d_31">
    <path d="M 217.385361 149.675037 
L 228.105361 138.955037 
" clip-path="url(#pe6202ea3e0)" style="fill: none; stroke: #000000; stroke-width: 1.2; stroke-linecap: square"/>
   </g>
   <g id="line2d_32">
    <path d="M 217.385361 138.955037 
L 228.105361 149.675037 
" clip-path="url(#pe6202ea3e0)" style="fill: none; stroke: #000000; stroke-width: 1.2; stroke-linecap: square"/>
   </g>
   <g id="line2d_33">
    <g clip-path="url(#pe6202ea3e0)">
     <use xlink:href="#mf0cd07065c" x="176.968005" y="80.742946" style="stroke: #000000"/>
    </g>
   </g>
   <g id="line2d_34">
    <path d="M 201.021179 155.138204 
L 211.741179 144.418204 
" clip-path="url(#pe6202ea3e0)" style="fill: none; stroke: #000000; stroke-width: 1.2; stroke-linecap: square"/>
   </g>
   <g id="line2d_35">
    <path d="M 201.021179 144.418204 
L 211.741179 155.138204 
" clip-path="url(#pe6202ea3e0)" style="fill: none; stroke: #000000; stroke-width: 1.2; stroke-linecap: square"/>
   </g>
   <g id="line2d_36">
    <g clip-path="url(#pe6202ea3e0)">
     <use xlink:href="#mf0cd07065c" x="150.998948" y="94.372559" style="stroke: #000000"/>
    </g>
   </g>
   <g id="line2d_37">
    <path d="M 185.745263 163.155623 
L 196.465263 152.435623 
" clip-path="url(#pe6202ea3e0)" style="fill: none; stroke: #000000; stroke-width: 1.2; stroke-linecap: square"/>
   </g>
   <g id="line2d_38">
    <path d="M 185.745263 152.435623 
L 196.465263 163.155623 
" clip-path="url(#pe6202ea3e0)" style="fill: none; stroke: #000000; stroke-width: 1.2; stroke-linecap: square"/>
   </g>
   <g id="line2d_39">
    <g clip-path="url(#pe6202ea3e0)">
     <use xlink:href="#mf0cd07065c" x="127.552527" y="111.991401" style="stroke: #000000"/>
    </g>
   </g>
   <g id="line2d_40">
    <path d="M 171.953251 173.519648 
L 182.673251 162.799648 
" clip-path="url(#pe6202ea3e0)" style="fill: none; stroke: #000000; stroke-width: 1.2; stroke-linecap: square"/>
   </g>
   <g id="line2d_41">
    <path d="M 171.953251 162.799648 
L 182.673251 173.519648 
" clip-path="url(#pe6202ea3e0)" style="fill: none; stroke: #000000; stroke-width: 1.2; stroke-linecap: square"/>
   </g>
   <g id="line2d_42">
    <g clip-path="url(#pe6202ea3e0)">
     <use xlink:href="#mf0cd07065c" x="107.235992" y="133.143155" style="stroke: #000000"/>
    </g>
   </g>
   <g id="line2d_43">
    <path d="M 160.002348 185.961856 
L 170.722348 175.241856 
" clip-path="url(#pe6202ea3e0)" style="fill: none; stroke: #000000; stroke-width: 1.2; stroke-linecap: square"/>
   </g>
   <g id="line2d_44">
    <path d="M 160.002348 175.241856 
L 170.722348 185.961856 
" clip-path="url(#pe6202ea3e0)" style="fill: none; stroke: #000000; stroke-width: 1.2; stroke-linecap: square"/>
   </g>
   <g id="line2d_45">
    <g clip-path="url(#pe6202ea3e0)">
     <use xlink:href="#mf0cd07065c" x="90.57553" y="157.28" style="stroke: #000000"/>
    </g>
   </g>
   <g id="line2d_46">
    <path d="M 150.202077 200.16 
L 160.922077 189.44 
" clip-path="url(#pe6202ea3e0)" style="fill: none; stroke: #000000; stroke-width: 1.2; stroke-linecap: square"/>
   </g>
   <g id="line2d_47">
    <path d="M 150.202077 189.44 
L 160.922077 200.16 
" clip-path="url(#pe6202ea3e0)" style="fill: none; stroke: #000000; stroke-width: 1.2; stroke-linecap: square"/>
   </g>
   <g id="patch_8">
    <path d="M 393.12 265.158506 
Q 393.12 248.398644 393.12 233.651244 
" style="fill: none; stroke: #cc0000; stroke-width: 1.8; stroke-linecap: round"/>
    <path d="M 391.12 237.651244 
L 393.12 233.651244 
L 395.12 237.651244 
" style="fill: none; stroke: #cc0000; stroke-width: 1.8; stroke-linecap: round"/>
   </g>
   <g id="patch_9">
    <path d="M 362.582547 157.91756 
Q 350.731535 146.066548 340.303548 135.638561 
" style="fill: none; stroke: #cc0000; stroke-width: 1.8; stroke-linecap: round"/>
    <path d="M 341.717762 139.881202 
L 340.303548 135.638561 
L 344.546189 137.052775 
" style="fill: none; stroke: #cc0000; stroke-width: 1.8; stroke-linecap: round"/>
   </g>
   <g id="patch_10">
    <path d="M 157.91756 134.217453 
Q 146.066548 146.068465 135.638561 156.496452 
" style="fill: none; stroke: #cc0000; stroke-width: 1.8; stroke-linecap: round"/>
    <path d="M 139.881202 155.082238 
L 135.638561 156.496452 
L 137.052775 152.253811 
" style="fill: none; stroke: #cc0000; stroke-width: 1.8; stroke-linecap: round"/>
   </g>
   <g id="patch_11">
    <path d="M 103.68 231.641494 
Q 103.68 248.401356 103.68 263.148756 
" style="fill: none; stroke: #cc0000; stroke-width: 1.8; stroke-linecap: round"/>
    <path d="M 105.68 259.148756 
L 103.68 263.148756 
L 101.68 259.148756 
" style="fill: none; stroke: #cc0000; stroke-width: 1.8; stroke-linecap: round"/>
   </g>
   <g id="patch_12">
    <path d="M 134.217453 338.88244 
Q 146.068465 350.733452 156.496452 361.161439 
" style="fill: none; stroke: #cc0000; stroke-width: 1.8; stroke-linecap: round"/>
    <path d="M 155.082238 356.918798 
L 156.496452 361.161439 
L 152.253811 359.747225 
" style="fill: none; stroke: #cc0000; stroke-width: 1.8; stroke-linecap: round"/>
   </g>
   <g id="text_6">
    <!-- $\mathbf{B}$ -->
    <g style="fill: #cc0000" transform="translate(419.92 252.539062) scale(0.15 -0.15)">
     <defs>
      <path id="DejaVuSans-Bold-42" d="M 2456 2859 
Q 2741 2859 2887 2984 
Q 3034 3109 3034 3353 
Q 3034 3594 2887 3720 
Q 2741 3847 2456 3847 
L 1791 3847 
L 1791 2859 
L 2456 2859 
z
M 2497 819 
Q 2859 819 3042 972 
Q 3225 1125 3225 1434 
Q 3225 1738 3044 1889 
Q 2863 2041 2497 2041 
L 1791 2041 
L 1791 819 
L 2497 819 
z
M 3616 2497 
Q 4003 2384 4215 2081 
Q 4428 1778 4428 1338 
Q 4428 663 3972 331 
Q 3516 0 2584 0 
L 588 0 
L 588 4666 
L 2394 4666 
Q 3366 4666 3802 4372 
Q 4238 4078 4238 3431 
Q 4238 3091 4078 2852 
Q 3919 2613 3616 2497 
z
" transform="scale(0.015625)"/>
     </defs>
     <use xlink:href="#DejaVuSans-Bold-42" transform="translate(0 0.09375)"/>
    </g>
   </g>
   <g id="text_7">
    <g id="patch_13">
     <path d="M 139.827507 160.318288 
L 152.307507 160.318288 
Q 154.907507 160.318288 154.907507 157.718288 
L 154.907507 145.136725 
Q 154.907507 142.536725 152.307507 142.536725 
L 139.827507 142.536725 
Q 137.227507 142.536725 137.227507 145.136725 
L 137.227507 157.718288 
Q 137.227507 160.318288 139.827507 160.318288 
z
" style="fill: #ffffff; opacity: 0.8"/>
    </g>
    <!-- $\mu_r$ -->
    <g transform="translate(139.827507 154.988288) scale(0.13 -0.13)">
     <defs>
      <path id="DejaVuSans-Oblique-3bc" d="M -84 -1331 
L 856 3500 
L 1434 3500 
L 1009 1322 
Q 997 1256 987 1175 
Q 978 1094 978 1013 
Q 978 722 1161 565 
Q 1344 409 1684 409 
Q 2147 409 2431 671 
Q 2716 934 2816 1459 
L 3213 3500 
L 3788 3500 
L 3266 809 
Q 3253 750 3248 706 
Q 3244 663 3244 628 
Q 3244 531 3283 486 
Q 3322 441 3406 441 
Q 3438 441 3492 456 
Q 3547 472 3647 513 
L 3559 50 
Q 3422 -19 3297 -55 
Q 3172 -91 3053 -91 
Q 2847 -91 2730 40 
Q 2613 172 2613 403 
Q 2438 153 2195 31 
Q 1953 -91 1625 -91 
Q 1334 -91 1117 43 
Q 900 178 831 397 
L 494 -1331 
L -84 -1331 
z
" transform="scale(0.015625)"/>
     </defs>
     <use xlink:href="#DejaVuSans-Oblique-3bc" transform="translate(0 0.3125)"/>
     <use xlink:href="#DejaVuSans-Oblique-72" transform="translate(63.623047 -16.09375) scale(0.7)"/>
    </g>
   </g>
  </g>
 </g>
 <defs>
  <clipPath id="pe6202ea3e0">
   <rect x="7.2" y="7.2" width="482.4" height="482.4"/>
  </clipPath>
 </defs>
</svg>
