<?xml version="1.0" encoding="utf-8" standalone="no"?>
<!DOCTYPE svg PUBLIC "-//W3C//DTD SVG 1.1//EN"
  "http://www.w3.org/Graphics/SVG/1.1/DTD/svg11.dtd">
<svg xmlns:xlink="http://www.w3.org/1999/xlink" width="452.834081pt" height="424.8pt" viewBox="0 0 452.834081 424.8" xmlns="http://www.w3.org/2000/svg" version="1.1">
 <metadata>
  <rdf:RDF xmlns:dc="http://purl.org/dc/elements/1.1/" xmlns:cc="http://creativecommons.org/ns#" xmlns:rdf="http://www.w3.org/1999/02/22-rdf-syntax-ns#">
   <cc:Work>
    <dc:type rdf:resource="http://purl.org/dc/dcmitype/StillImage"/>
    <dc:date>2026-03-06T11:16:26.271365</dc:date>
    <dc:format>image/svg+xml</dc:format>
    <dc:creator>
     <cc:Agent>
      <dc:title>Matplotlib v3.10.8, https://matplotlib.org/</dc:title>
     </cc:Agent>
    </dc:creator>
   </cc:Work>
  </rdf:RDF>
 </metadata>
 <defs>
  <style type="text/css">*{stroke-linejoin: round; stroke-linecap: butt}</style>
 </defs>
 <g id="figure_1">
  <g id="patch_1">
   <path d="M 0 424.8 
L 452.834081 424.8 
L 452.834081 0 
L 0 0 
z
" style="fill: #ffffff"/>
  </g>
  <g id="axes_1">
   <g id="patch_2">
    <path d="M 59.375257 118.249412 
L 349.069375 118.249412 
L 349.069375 79.623529 
L 59.375257 79.623529 
z
" clip-path="url(#p51677559a6)" style="fill: #b0b0b0; stroke: #000000; stroke-width: 1.5; stroke-linejoin: miter"/>
   </g>
   <g id="patch_3">
    <path d="M 59.375257 321.035294 
L 98.00114 321.035294 
L 98.00114 118.249412 
L 59.375257 118.249412 
z
" clip-path="url(#p51677559a6)" style="fill: #b0b0b0; stroke: #000000; stroke-width: 1.5; stroke-linejoin: miter"/>
   </g>
   <g id="patch_4">
    <path d="M 310.443493 321.035294 
L 349.069375 321.035294 
L 349.069375 118.249412 
L 310.443493 118.249412 
z
" clip-path="url(#p51677559a6)" style="fill: #b0b0b0; stroke: #000000; stroke-width: 1.5; stroke-linejoin: miter"/>
   </g>
   <g id="patch_5">
    <path d="M 59.375257 345.176471 
L 192.151728 345.176471 
L 192.151728 322.000941 
L 59.375257 322.000941 
z
" clip-path="url(#p51677559a6)" style="fill: #b0b0b0; stroke: #000000; stroke-width: 1.5; stroke-linejoin: miter"/>
   </g>
   <g id="patch_6">
    <path d="M 216.292904 345.176471 
L 349.069375 345.176471 
L 349.069375 322.000941 
L 216.292904 322.000941 
z
" clip-path="url(#p51677559a6)" style="fill: #b0b0b0; stroke: #000000; stroke-width: 1.5; stroke-linejoin: miter"/>
   </g>
   <g id="line2d_1">
    <path d="M 192.151728 342.762353 
L 216.292904 337.934118 
" clip-path="url(#p51677559a6)" style="fill: none; stroke: #000000; stroke-width: 0.5; stroke-linecap: square"/>
   </g>
   <g id="line2d_2">
    <path d="M 192.151728 338.996329 
L 216.292904 334.168094 
" clip-path="url(#p51677559a6)" style="fill: none; stroke: #000000; stroke-width: 0.5; stroke-linecap: square"/>
   </g>
   <g id="line2d_3">
    <path d="M 192.151728 335.230306 
L 216.292904 330.402071 
" clip-path="url(#p51677559a6)" style="fill: none; stroke: #000000; stroke-width: 0.5; stroke-linecap: square"/>
   </g>
   <g id="line2d_4">
    <path d="M 192.151728 331.464282 
L 216.292904 326.636047 
" clip-path="url(#p51677559a6)" style="fill: none; stroke: #000000; stroke-width: 0.5; stroke-linecap: square"/>
   </g>
   <g id="line2d_5">
    <path d="M 192.151728 327.698259 
L 216.292904 322.870024 
" clip-path="url(#p51677559a6)" style="fill: none; stroke: #000000; stroke-width: 0.5; stroke-linecap: square"/>
   </g>
   <g id="line2d_6">
    <path d="M 192.151728 323.932235 
L 216.292904 319.104 
" clip-path="url(#p51677559a6)" style="fill: none; stroke: #000000; stroke-width: 0.5; stroke-linecap: square"/>
   </g>
   <g id="patch_7">
    <path d="M 98.00114 272.752941 
L 146.283493 272.752941 
L 146.283493 152.047059 
L 98.00114 152.047059 
z
" clip-path="url(#p51677559a6)" style="fill: #ffe0b0; stroke: #000000; stroke-width: 1.2; stroke-linejoin: miter"/>
   </g>
   <g id="text_1">
    <!-- $N$ turns -->
    <g transform="translate(98.352316 137.272877) scale(0.13 -0.13)">
     <defs>
      <path id="DejaVuSans-Oblique-4e" d="M 1081 4666 
L 1931 4666 
L 3219 666 
L 4000 4666 
L 4616 4666 
L 3706 0 
L 2853 0 
L 1569 4025 
L 788 0 
L 172 0 
L 1081 4666 
z
" transform="scale(0.015625)"/>
      <path id="DejaVuSans-Oblique-20" transform="scale(0.015625)"/>
      <path id="DejaVuSans-Oblique-74" d="M 2706 3500 
L 2619 3053 
L 1472 3053 
L 1100 1153 
Q 1081 1047 1072 975 
Q 1063 903 1063 863 
Q 1063 663 1183 572 
Q 1303 481 1569 481 
L 2150 481 
L 2053 0 
L 1503 0 
Q 991 0 739 200 
Q 488 400 488 806 
Q 488 878 497 964 
Q 506 1050 525 1153 
L 897 3053 
L 409 3053 
L 500 3500 
L 978 3500 
L 1172 4494 
L 1747 4494 
L 1556 3500 
L 2706 3500 
z
" transform="scale(0.015625)"/>
      <path id="DejaVuSans-Oblique-75" d="M 428 1388 
L 838 3500 
L 1416 3500 
L 1006 1409 
Q 975 1256 961 1147 
Q 947 1038 947 966 
Q 947 700 1109 554 
Q 1272 409 1569 409 
Q 2031 409 2368 721 
Q 2706 1034 2809 1563 
L 3194 3500 
L 3769 3500 
L 3091 0 
L 2516 0 
L 2631 550 
Q 2388 244 2052 76 
Q 1716 -91 1338 -91 
Q 878 -91 622 161 
Q 366 413 366 863 
Q 366 956 381 1097 
Q 397 1238 428 1388 
z
" transform="scale(0.015625)"/>
      <path id="DejaVuSans-Oblique-72" d="M 2853 2969 
Q 2766 3016 2653 3041 
Q 2541 3066 2413 3066 
Q 1953 3066 1609 2717 
Q 1266 2369 1153 1784 
L 800 0 
L 225 0 
L 909 3500 
L 1484 3500 
L 1375 2956 
Q 1603 3259 1920 3421 
Q 2238 3584 2597 3584 
Q 2691 3584 2781 3573 
Q 2872 3563 2963 3538 
L 2853 2969 
z
" transform="scale(0.015625)"/>
      <path id="DejaVuSans-Oblique-6e" d="M 3566 2113 
L 3156 0 
L 2578 0 
L 2988 2091 
Q 3016 2238 3031 2350 
Q 3047 2463 3047 2528 
Q 3047 2791 2881 2937 
Q 2716 3084 2419 3084 
Q 1956 3084 1622 2776 
Q 1288 2469 1184 1941 
L 800 0 
L 225 0 
L 903 3500 
L 1478 3500 
L 1363 2950 
Q 1603 3253 1940 3418 
Q 2278 3584 2650 3584 
Q 3113 3584 3367 3334 
Q 3622 3084 3622 2631 
Q 3622 2519 3608 2391 
Q 3594 2263 3566 2113 
z
" transform="scale(0.015625)"/>
      <path id="DejaVuSans-Oblique-73" d="M 3200 3397 
L 3091 2853 
Q 2863 2978 2609 3040 
Q 2356 3103 2088 3103 
Q 1634 3103 1373 2948 
Q 1113 2794 1113 2528 
Q 1113 2219 1719 2053 
Q 1766 2041 1788 2034 
L 1972 1978 
Q 2547 1819 2739 1644 
Q 2931 1469 2931 1166 
Q 2931 609 2489 259 
Q 2047 -91 1331 -91 
Q 1053 -91 747 -37 
Q 441 16 72 128 
L 184 722 
Q 500 559 806 475 
Q 1113 391 1394 391 
Q 1816 391 2080 572 
Q 2344 753 2344 1031 
Q 2344 1331 1650 1516 
L 1591 1531 
L 1394 1581 
Q 956 1697 753 1886 
Q 550 2075 550 2369 
Q 550 2928 970 3256 
Q 1391 3584 2113 3584 
Q 2397 3584 2667 3537 
Q 2938 3491 3200 3397 
z
" transform="scale(0.015625)"/>
     </defs>
     <use xlink:href="#DejaVuSans-Oblique-4e" transform="translate(0 0.09375)"/>
     <use xlink:href="#DejaVuSans-Oblique-20" transform="translate(74.804688 0.09375)"/>
     <use xlink:href="#DejaVuSans-Oblique-74" transform="translate(106.591797 0.09375)"/>
     <use xlink:href="#DejaVuSans-Oblique-75" transform="translate(145.800781 0.09375)"/>
     <use xlink:href="#DejaVuSans-Oblique-72" transform="translate(209.179688 0.09375)"/>
     <use xlink:href="#DejaVuSans-Oblique-6e" transform="translate(250.292969 0.09375)"/>
     <use xlink:href="#DejaVuSans-Oblique-73" transform="translate(313.671875 0.09375)"/>
    </g>
   </g>
   <g id="patch_8">
    <path d="M 189.052086 118.934936 
Q 173.202365 134.784657 158.301328 149.685694 
" style="fill: none; stroke: #000000; stroke-width: 1.2; stroke-linecap: round"/>
    <path d="M 164.241025 147.705795 
L 158.301328 149.685694 
L 160.281227 143.745997 
" style="fill: none; stroke: #000000; stroke-width: 1.2; stroke-linecap: round"/>
   </g>
   <g id="text_2">
    <!-- $I$ -->
    <g transform="translate(192.465846 117.284301) scale(0.14 -0.14)">
     <defs>
      <path id="DejaVuSans-Oblique-49" d="M 1081 4666 
L 1716 4666 
L 806 0 
L 172 0 
L 1081 4666 
z
" transform="scale(0.015625)"/>
     </defs>
     <use xlink:href="#DejaVuSans-Oblique-49" transform="translate(0 0.09375)"/>
    </g>
   </g>
   <g id="text_3">
    <!-- $\Phi$ -->
    <g style="fill: #cc0000" transform="translate(198.297316 78.918116) scale(0.15 -0.15)">
     <defs>
      <path id="DejaVuSans-3a6" d="M 2206 3644 
Q 1738 3578 1431 3306 
Q 1025 2947 1025 2328 
Q 1025 1713 1431 1353 
Q 1738 1081 2206 1016 
L 2206 3644 
z
M 2838 1016 
Q 3306 1081 3613 1353 
Q 4013 1713 4013 2328 
Q 4013 2947 3613 3306 
Q 3306 3578 2838 3644 
L 2838 1016 
z
M 2206 494 
Q 1444 563 950 981 
Q 359 1481 359 2328 
Q 359 3175 950 3678 
Q 1441 4100 2206 4169 
L 2206 4666 
L 2838 4666 
L 2838 4169 
Q 3600 4097 4091 3678 
Q 4678 3175 4678 2328 
Q 4678 1484 4091 981 
Q 3600 563 2838 491 
L 2838 0 
L 2206 0 
L 2206 494 
z
" transform="scale(0.015625)"/>
     </defs>
     <use xlink:href="#DejaVuSans-3a6" transform="translate(0 0.09375)"/>
    </g>
   </g>
   <g id="patch_9">
    <path d="M 35.234081 82.739207 
Q 35.234081 212.399471 35.234081 342.059734 
" style="fill: none; stroke: #000000; stroke-linecap: round"/>
    <path d="M 33.234081 86.739207 
L 35.234081 82.739207 
L 37.234081 86.739207 
" style="fill: none; stroke: #000000; stroke-linecap: round"/>
    <path d="M 37.234081 338.059734 
L 35.234081 342.059734 
L 33.234081 338.059734 
" style="fill: none; stroke: #000000; stroke-linecap: round"/>
   </g>
   <g id="text_4">
    <!-- $\ell_c$ -->
    <g transform="translate(17.837812 218.21) rotate(-90) scale(0.14 -0.14)">
     <defs>
      <path id="DejaVuSans-Oblique-2113" d="M 950 838 
Q 1078 213 1350 213 
Q 1531 213 1766 572 
L 2181 572 
Q 1994 253 1775 88 
Q 1538 -91 1319 -91 
Q 831 -91 634 344 
L 400 0 
L -88 0 
Q 250 459 500 888 
Q 469 1131 469 1397 
Q 469 1872 566 2347 
Q 931 4131 1256 4497 
Q 1481 4750 1866 4750 
Q 2256 4750 2256 4209 
Q 2253 3966 2197 3675 
Q 1972 2484 950 838 
z
M 947 1656 
Q 1531 2744 1709 3613 
Q 1803 4072 1803 4191 
Q 1803 4406 1725 4406 
Q 1384 4134 1081 2516 
Q 997 2063 947 1656 
z
" transform="scale(0.015625)"/>
      <path id="DejaVuSans-Oblique-63" d="M 3431 3366 
L 3316 2797 
Q 3109 2947 2876 3022 
Q 2644 3097 2394 3097 
Q 2119 3097 1870 3000 
Q 1622 2903 1453 2725 
Q 1184 2453 1037 2087 
Q 891 1722 891 1331 
Q 891 859 1127 628 
Q 1363 397 1844 397 
Q 2081 397 2348 469 
Q 2616 541 2906 684 
L 2797 116 
Q 2547 13 2283 -39 
Q 2019 -91 1741 -91 
Q 1044 -91 669 257 
Q 294 606 294 1253 
Q 294 1797 489 2255 
Q 684 2713 1069 3078 
Q 1331 3328 1684 3456 
Q 2038 3584 2456 3584 
Q 2700 3584 2940 3529 
Q 3181 3475 3431 3366 
z
" transform="scale(0.015625)"/>
     </defs>
     <use xlink:href="#DejaVuSans-Oblique-2113" transform="translate(0 0.78125)"/>
     <use xlink:href="#DejaVuSans-Oblique-63" transform="translate(41.308594 -15.625) scale(0.7)"/>
    </g>
   </g>
   <g id="patch_10">
    <path d="M 213.173911 369.317647 
Q 204.223173 369.317647 195.272435 369.317647 
" style="fill: none; stroke: #000000; stroke-linecap: round"/>
    <path d="M 209.173911 367.317647 
L 213.173911 369.317647 
L 209.173911 371.317647 
" style="fill: none; stroke: #000000; stroke-linecap: round"/>
    <path d="M 199.272435 371.317647 
L 195.272435 369.317647 
L 199.272435 367.317647 
" style="fill: none; stroke: #000000; stroke-linecap: round"/>
   </g>
   <g id="text_5">
    <!-- $\ell_g$ -->
    <g transform="translate(197.992316 399.130588) scale(0.14 -0.14)">
     <defs>
      <path id="DejaVuSans-Oblique-67" d="M 3816 3500 
L 3219 434 
Q 3047 -456 2561 -893 
Q 2075 -1331 1253 -1331 
Q 950 -1331 690 -1286 
Q 431 -1241 206 -1147 
L 313 -588 
Q 525 -725 762 -790 
Q 1000 -856 1269 -856 
Q 1816 -856 2167 -557 
Q 2519 -259 2631 300 
L 2681 563 
Q 2441 288 2122 144 
Q 1803 0 1434 0 
Q 903 0 598 351 
Q 294 703 294 1319 
Q 294 1803 478 2267 
Q 663 2731 997 3091 
Q 1219 3328 1514 3456 
Q 1809 3584 2131 3584 
Q 2484 3584 2746 3420 
Q 3009 3256 3138 2956 
L 3238 3500 
L 3816 3500 
z
M 2950 2216 
Q 2950 2641 2750 2872 
Q 2550 3103 2181 3103 
Q 1953 3103 1747 3012 
Q 1541 2922 1394 2759 
Q 1156 2491 1023 2127 
Q 891 1763 891 1375 
Q 891 944 1092 712 
Q 1294 481 1672 481 
Q 2219 481 2584 976 
Q 2950 1472 2950 2216 
z
" transform="scale(0.015625)"/>
     </defs>
     <use xlink:href="#DejaVuSans-Oblique-2113" transform="translate(0 0.78125)"/>
     <use xlink:href="#DejaVuSans-Oblique-67" transform="translate(41.308594 -15.625) scale(0.7)"/>
    </g>
   </g>
   <g id="patch_11">
    <path d="M 369.496988 142.267294 
Q 350.481725 130.775095 332.423319 119.861189 
" style="fill: none; stroke: #000000; stroke-linecap: round"/>
    <path d="M 335.767745 125.154092 
L 332.423319 119.861189 
L 338.664297 120.36139 
" style="fill: none; stroke: #000000; stroke-linecap: round"/>
   </g>
   <g id="text_6">
    <!-- $A_c$ -->
    <g transform="translate(373.210551 153.028401) scale(0.14 -0.14)">
     <defs>
      <path id="DejaVuSans-Oblique-41" d="M 2356 4666 
L 3072 4666 
L 3938 0 
L 3278 0 
L 3084 1197 
L 984 1197 
L 325 0 
L -341 0 
L 2356 4666 
z
M 2584 4044 
L 1275 1722 
L 2988 1722 
L 2584 4044 
z
" transform="scale(0.015625)"/>
     </defs>
     <use xlink:href="#DejaVuSans-Oblique-41" transform="translate(0 0.09375)"/>
     <use xlink:href="#DejaVuSans-Oblique-63" transform="translate(68.408203 -16.3125) scale(0.7)"/>
    </g>
   </g>
   <g id="line2d_7">
    <path d="M 102.829375 270.037059 
L 141.455257 260.380588 
" clip-path="url(#p51677559a6)" style="fill: none; stroke: #000000; stroke-width: 0.7; stroke-linecap: square"/>
   </g>
   <g id="line2d_8">
    <path d="M 102.829375 254.948824 
L 141.455257 245.292353 
" clip-path="url(#p51677559a6)" style="fill: none; stroke: #000000; stroke-width: 0.7; stroke-linecap: square"/>
   </g>
   <g id="line2d_9">
    <path d="M 102.829375 239.860588 
L 141.455257 230.204118 
" clip-path="url(#p51677559a6)" style="fill: none; stroke: #000000; stroke-width: 0.7; stroke-linecap: square"/>
   </g>
   <g id="line2d_10">
    <path d="M 102.829375 224.772353 
L 141.455257 215.115882 
" clip-path="url(#p51677559a6)" style="fill: none; stroke: #000000; stroke-width: 0.7; stroke-linecap: square"/>
   </g>
   <g id="line2d_11">
    <path d="M 102.829375 209.684118 
L 141.455257 200.027647 
" clip-path="url(#p51677559a6)" style="fill: none; stroke: #000000; stroke-width: 0.7; stroke-linecap: square"/>
   </g>
   <g id="line2d_12">
    <path d="M 102.829375 194.595882 
L 141.455257 184.939412 
" clip-path="url(#p51677559a6)" style="fill: none; stroke: #000000; stroke-width: 0.7; stroke-linecap: square"/>
   </g>
   <g id="line2d_13">
    <path d="M 102.829375 179.507647 
L 141.455257 169.851176 
" clip-path="url(#p51677559a6)" style="fill: none; stroke: #000000; stroke-width: 0.7; stroke-linecap: square"/>
   </g>
   <g id="line2d_14">
    <path d="M 102.829375 164.419412 
L 141.455257 154.762941 
" clip-path="url(#p51677559a6)" style="fill: none; stroke: #000000; stroke-width: 0.7; stroke-linecap: square"/>
   </g>
   <g id="patch_12">
    <path d="M 157.940923 98.936471 
Q 204.222847 98.936471 248.268703 98.936471 
" style="fill: none; stroke: #cc0000; stroke-width: 2; stroke-linecap: round"/>
    <path d="M 244.268703 96.936471 
L 248.268703 98.936471 
L 244.268703 100.936471 
" style="fill: none; stroke: #cc0000; stroke-width: 2; stroke-linecap: round"/>
   </g>
   <g id="patch_13">
    <path d="M 329.756434 178.190668 
Q 329.756434 212.401894 329.756434 244.377051 
" style="fill: none; stroke: #cc0000; stroke-width: 2; stroke-linecap: round"/>
    <path d="M 331.756434 240.377051 
L 329.756434 244.377051 
L 327.756434 240.377051 
" style="fill: none; stroke: #cc0000; stroke-width: 2; stroke-linecap: round"/>
   </g>
   <g id="patch_14">
    <path d="M 298.782968 333.588706 
Q 265.778537 333.588706 235.010173 333.588706 
" style="fill: none; stroke: #cc0000; stroke-width: 2; stroke-linecap: round"/>
    <path d="M 239.010173 335.588706 
L 235.010173 333.588706 
L 239.010173 331.588706 
" style="fill: none; stroke: #cc0000; stroke-width: 2; stroke-linecap: round"/>
   </g>
   <g id="patch_15">
    <path d="M 175.662968 333.588706 
Q 142.658537 333.588706 111.890173 333.588706 
" style="fill: none; stroke: #cc0000; stroke-width: 2; stroke-linecap: round"/>
    <path d="M 115.890173 335.588706 
L 111.890173 333.588706 
L 115.890173 331.588706 
" style="fill: none; stroke: #cc0000; stroke-width: 2; stroke-linecap: round"/>
   </g>
   <g id="patch_16">
    <path d="M 78.688199 246.609332 
Q 78.688199 212.398106 78.688199 180.422949 
" style="fill: none; stroke: #cc0000; stroke-width: 2; stroke-linecap: round"/>
    <path d="M 76.688199 184.422949 
L 78.688199 180.422949 
L 80.688199 184.422949 
" style="fill: none; stroke: #cc0000; stroke-width: 2; stroke-linecap: round"/>
   </g>
   <g id="text_7">
    <g id="patch_17">
     <path d="M 191.802316 107.143346 
L 216.642316 107.143346 
Q 219.042316 107.143346 219.042316 104.743346 
L 219.042316 93.129596 
Q 219.042316 90.729596 216.642316 90.729596 
L 191.802316 90.729596 
Q 189.402316 90.729596 189.402316 93.129596 
L 189.402316 104.743346 
Q 189.402316 107.143346 191.802316 107.143346 
z
" style="fill: #ffffff; opacity: 0.8"/>
    </g>
    <!-- $\mu_r \mu_0$ -->
    <g transform="translate(191.802316 102.223346) scale(0.12 -0.12)">
     <defs>
      <path id="DejaVuSans-Oblique-3bc" d="M -84 -1331 
L 856 3500 
L 1434 3500 
L 1009 1322 
Q 997 1256 987 1175 
Q 978 1094 978 1013 
Q 978 722 1161 565 
Q 1344 409 1684 409 
Q 2147 409 2431 671 
Q 2716 934 2816 1459 
L 3213 3500 
L 3788 3500 
L 3266 809 
Q 3253 750 3248 706 
Q 3244 663 3244 628 
Q 3244 531 3283 486 
Q 3322 441 3406 441 
Q 3438 441 3492 456 
Q 3547 472 3647 513 
L 3559 50 
Q 3422 -19 3297 -55 
Q 3172 -91 3053 -91 
Q 2847 -91 2730 40 
Q 2613 172 2613 403 
Q 2438 153 2195 31 
Q 1953 -91 1625 -91 
Q 1334 -91 1117 43 
Q 900 178 831 397 
L 494 -1331 
L -84 -1331 
z
" transform="scale(0.015625)"/>
      <path id="DejaVuSans-30" d="M 2034 4250 
Q 1547 4250 1301 3770 
Q 1056 3291 1056 2328 
Q 1056 1369 1301 889 
Q 1547 409 2034 409 
Q 2525 409 2770 889 
Q 3016 1369 3016 2328 
Q 3016 3291 2770 3770 
Q 2525 4250 2034 4250 
z
M 2034 4750 
Q 2819 4750 3233 4129 
Q 3647 3509 3647 2328 
Q 3647 1150 3233 529 
Q 2819 -91 2034 -91 
Q 1250 -91 836 529 
Q 422 1150 422 2328 
Q 422 3509 836 4129 
Q 1250 4750 2034 4750 
z
" transform="scale(0.015625)"/>
     </defs>
     <use xlink:href="#DejaVuSans-Oblique-3bc" transform="translate(0 0.3125)"/>
     <use xlink:href="#DejaVuSans-Oblique-72" transform="translate(63.623047 -16.09375) scale(0.7)"/>
     <use xlink:href="#DejaVuSans-Oblique-3bc" transform="translate(95.136719 0.3125)"/>
     <use xlink:href="#DejaVuSans-30" transform="translate(158.759766 -16.09375) scale(0.7)"/>
    </g>
   </g>
  </g>
 </g>
 <defs>
  <clipPath id="p51677559a6">
   <rect x="11.092904" y="7.2" width="434.541176" height="410.4"/>
  </clipPath>
 </defs>
</svg>
