<?xml version="1.0" encoding="utf-8" standalone="no"?>
<!DOCTYPE svg PUBLIC "-//W3C//DTD SVG 1.1//EN"
  "http://www.w3.org/Graphics/SVG/1.1/DTD/svg11.dtd">
<svg xmlns:xlink="http://www.w3.org/1999/xlink" width="304.007978pt" height="190.8pt" viewBox="0 0 304.007978 190.8" xmlns="http://www.w3.org/2000/svg" version="1.1">
 <metadata>
  <rdf:RDF xmlns:dc="http://purl.org/dc/elements/1.1/" xmlns:cc="http://creativecommons.org/ns#" xmlns:rdf="http://www.w3.org/1999/02/22-rdf-syntax-ns#">
   <cc:Work>
    <dc:type rdf:resource="http://purl.org/dc/dcmitype/StillImage"/>
    <dc:date>2026-02-23T16:40:14.686287</dc:date>
    <dc:format>image/svg+xml</dc:format>
    <dc:creator>
     <cc:Agent>
      <dc:title>Matplotlib v3.10.8, https://matplotlib.org/</dc:title>
     </cc:Agent>
    </dc:creator>
   </cc:Work>
  </rdf:RDF>
 </metadata>
 <defs>
  <style type="text/css">*{stroke-linejoin: round; stroke-linecap: butt}</style>
 </defs>
 <g id="figure_1">
  <g id="patch_1">
   <path d="M 0 190.8 
L 304.007978 190.8 
L 304.007978 0 
L 0 0 
L 0 190.8 
z
" style="fill: none"/>
  </g>
  <g id="axes_1">
   <g id="patch_2">
    <path d="M 42.828 127.08 
C 47.601656 127.08 52.180438 125.183406 55.555922 121.807922 
C 58.931406 118.432438 60.828 113.853656 60.828 109.08 
C 60.828 104.306344 58.931406 99.727562 55.555922 96.352078 
C 52.180438 92.976594 47.601656 91.08 42.828 91.08 
C 38.054344 91.08 33.475562 92.976594 30.100078 96.352078 
C 26.724594 99.727562 24.828 104.306344 24.828 109.08 
C 24.828 113.853656 26.724594 118.432438 30.100078 121.807922 
C 33.475562 125.183406 38.054344 127.08 42.828 127.08 
L 42.828 127.08 
z
" clip-path="url(#p5566488e59)" style="fill: none; stroke: #000000; stroke-width: 2; stroke-linejoin: miter"/>
   </g>
   <g id="patch_3">
    <path d="M 294.828 100.08 
C 296.021016 100.08 297.16639 99.605571 298.009981 98.761981 
C 298.853571 97.91839 299.328 96.773016 299.328 95.58 
C 299.328 94.386984 298.853571 93.24161 298.009981 92.398019 
C 297.16639 91.554429 296.021016 91.08 294.828 91.08 
" clip-path="url(#p5566488e59)" style="fill: none; stroke: #000000; stroke-width: 2; stroke-linejoin: miter"/>
   </g>
   <g id="patch_4">
    <path d="M 294.828 109.08 
C 296.021016 109.08 297.16639 108.605571 298.009981 107.761981 
C 298.853571 106.91839 299.328 105.773016 299.328 104.58 
C 299.328 103.386984 298.853571 102.24161 298.009981 101.398019 
C 297.16639 100.554429 296.021016 100.08 294.828 100.08 
" clip-path="url(#p5566488e59)" style="fill: none; stroke: #000000; stroke-width: 2; stroke-linejoin: miter"/>
   </g>
   <g id="patch_5">
    <path d="M 294.828 118.08 
C 296.021016 118.08 297.16639 117.605571 298.009981 116.761981 
C 298.853571 115.91839 299.328 114.773016 299.328 113.58 
C 299.328 112.386984 298.853571 111.24161 298.009981 110.398019 
C 297.16639 109.554429 296.021016 109.08 294.828 109.08 
" clip-path="url(#p5566488e59)" style="fill: none; stroke: #000000; stroke-width: 2; stroke-linejoin: miter"/>
   </g>
   <g id="patch_6">
    <path d="M 294.828 127.08 
C 296.021016 127.08 297.16639 126.605571 298.009981 125.761981 
C 298.853571 124.91839 299.328 123.773016 299.328 122.58 
C 299.328 121.386984 298.853571 120.24161 298.009981 119.398019 
C 297.16639 118.554429 296.021016 118.08 294.828 118.08 
" clip-path="url(#p5566488e59)" style="fill: none; stroke: #000000; stroke-width: 2; stroke-linejoin: miter"/>
   </g>
   <g id="line2d_1">
    <path d="M 42.828 163.08 
L 42.828 127.08 
L 42.828 127.08 
M 42.828 91.08 
L 42.828 91.08 
L 42.828 55.08 
" clip-path="url(#p5566488e59)" style="fill: none; stroke: #000000; stroke-width: 2; stroke-linecap: round"/>
   </g>
   <g id="line2d_2">
    <path d="M 46.428 118.08 
L 39.228 118.08 
" clip-path="url(#p5566488e59)" style="fill: none; stroke: #000000; stroke-width: 2; stroke-linecap: round"/>
   </g>
   <g id="line2d_3">
    <path d="M 42.828 103.68 
L 42.828 96.48 
" clip-path="url(#p5566488e59)" style="fill: none; stroke: #000000; stroke-width: 2; stroke-linecap: round"/>
   </g>
   <g id="line2d_4">
    <path d="M 46.428 100.08 
L 39.228 100.08 
" clip-path="url(#p5566488e59)" style="fill: none; stroke: #000000; stroke-width: 2; stroke-linecap: round"/>
   </g>
   <g id="line2d_5">
    <path d="M 42.828 55.08 
L 51.828 55.08 
L 60.828 55.08 
" clip-path="url(#p5566488e59)" style="fill: none; stroke: #000000; stroke-width: 2; stroke-linecap: round"/>
   </g>
   <g id="line2d_6">
    <path d="M 60.828 55.08 
L 96.828 55.08 
M 105.468 51.48 
L 125.628 38.88 
M 132.828 55.08 
L 168.828 55.08 
" clip-path="url(#p5566488e59)" style="fill: none; stroke: #000000; stroke-width: 2; stroke-linecap: round"/>
   </g>
   <g id="line2d_7">
    <path d="M 168.828 55.08 
L 204.828 55.08 
L 207.828 46.08 
L 213.828 64.08 
L 219.828 46.08 
L 225.828 64.08 
L 231.828 46.08 
L 237.828 64.08 
L 240.828 55.08 
L 276.828 55.08 
" clip-path="url(#p5566488e59)" style="fill: none; stroke: #000000; stroke-width: 2; stroke-linecap: round"/>
   </g>
   <g id="line2d_8">
    <path d="M 276.828 55.08 
L 285.828 55.08 
L 294.828 55.08 
" clip-path="url(#p5566488e59)" style="fill: none; stroke: #000000; stroke-width: 2; stroke-linecap: round"/>
   </g>
   <g id="line2d_9">
    <path d="M 294.828 55.08 
L 294.828 91.08 
M 294.828 127.08 
L 294.828 163.08 
" clip-path="url(#p5566488e59)" style="fill: none; stroke: #000000; stroke-width: 2; stroke-linecap: round"/>
   </g>
   <g id="line2d_10">
    <path d="M 294.828 163.08 
L 258.828 163.08 
L 222.828 163.08 
" clip-path="url(#p5566488e59)" style="fill: none; stroke: #000000; stroke-width: 2; stroke-linecap: round"/>
   </g>
   <g id="line2d_11">
    <path d="M 222.828 163.08 
L 222.828 177.48 
L 213.828 177.48 
L 231.828 177.48 
M 216.528 181.8 
L 229.128 181.8 
M 221.028 186.12 
L 224.628 186.12 
" clip-path="url(#p5566488e59)" style="fill: none; stroke: #000000; stroke-width: 2; stroke-linecap: round"/>
   </g>
   <g id="line2d_12">
    <path d="M 222.828 163.08 
L 132.828 163.08 
L 42.828 163.08 
" clip-path="url(#p5566488e59)" style="fill: none; stroke: #000000; stroke-width: 2; stroke-linecap: round"/>
   </g>
   <g id="line2d_13">
    <path d="M 42.828 163.08 
L 42.828 163.08 
L 42.828 163.08 
" clip-path="url(#p5566488e59)" style="fill: none; stroke: #000000; stroke-width: 2; stroke-linecap: round"/>
   </g>
   <g id="text_1">
    <!-- Vs -->
    <g transform="translate(4.358 112.943125) scale(0.14 -0.14)">
     <defs>
      <path id="DejaVuSans-56" d="M 1831 0 
L 50 4666 
L 709 4666 
L 2188 738 
L 3669 4666 
L 4325 4666 
L 2547 0 
L 1831 0 
z
" transform="scale(0.015625)"/>
      <path id="DejaVuSans-73" d="M 2834 3397 
L 2834 2853 
Q 2591 2978 2328 3040 
Q 2066 3103 1784 3103 
Q 1356 3103 1142 2972 
Q 928 2841 928 2578 
Q 928 2378 1081 2264 
Q 1234 2150 1697 2047 
L 1894 2003 
Q 2506 1872 2764 1633 
Q 3022 1394 3022 966 
Q 3022 478 2636 193 
Q 2250 -91 1575 -91 
Q 1294 -91 989 -36 
Q 684 19 347 128 
L 347 722 
Q 666 556 975 473 
Q 1284 391 1588 391 
Q 1994 391 2212 530 
Q 2431 669 2431 922 
Q 2431 1156 2273 1281 
Q 2116 1406 1581 1522 
L 1381 1569 
Q 847 1681 609 1914 
Q 372 2147 372 2553 
Q 372 3047 722 3315 
Q 1072 3584 1716 3584 
Q 2034 3584 2315 3537 
Q 2597 3491 2834 3397 
z
" transform="scale(0.015625)"/>
     </defs>
     <use xlink:href="#DejaVuSans-56"/>
     <use xlink:href="#DejaVuSans-73" transform="translate(68.408203 0)"/>
    </g>
   </g>
   <g id="patch_7">
    <path d="M 101.148 59.4 
C 102.293677 59.4 103.392585 58.944818 104.202701 58.134701 
C 105.012818 57.324585 105.468 56.225677 105.468 55.08 
C 105.468 53.934323 105.012818 52.835415 104.202701 52.025299 
C 103.392585 51.215182 102.293677 50.76 101.148 50.76 
C 100.002323 50.76 98.903415 51.215182 98.093299 52.025299 
C 97.283182 52.835415 96.828 53.934323 96.828 55.08 
C 96.828 56.225677 97.283182 57.324585 98.093299 58.134701 
C 98.903415 58.944818 100.002323 59.4 101.148 59.4 
z
" clip-path="url(#p5566488e59)" style="fill: #ffffff; stroke: #000000; stroke-width: 2; stroke-linejoin: miter"/>
   </g>
   <g id="patch_8">
    <path d="M 128.508 59.4 
C 129.653677 59.4 130.752585 58.944818 131.562701 58.134701 
C 132.372818 57.324585 132.828 56.225677 132.828 55.08 
C 132.828 53.934323 132.372818 52.835415 131.562701 52.025299 
C 130.752585 51.215182 129.653677 50.76 128.508 50.76 
C 127.362323 50.76 126.263415 51.215182 125.453299 52.025299 
C 124.643182 52.835415 124.188 53.934323 124.188 55.08 
C 124.188 56.225677 124.643182 57.324585 125.453299 58.134701 
C 126.263415 58.944818 127.362323 59.4 128.508 59.4 
z
" clip-path="url(#p5566488e59)" style="fill: #ffffff; stroke: #000000; stroke-width: 2; stroke-linejoin: miter"/>
   </g>
   <g id="text_2">
    <!-- S -->
    <g transform="translate(110.384094 32.368437) scale(0.14 -0.14)">
     <defs>
      <path id="DejaVuSans-53" d="M 3425 4513 
L 3425 3897 
Q 3066 4069 2747 4153 
Q 2428 4238 2131 4238 
Q 1616 4238 1336 4038 
Q 1056 3838 1056 3469 
Q 1056 3159 1242 3001 
Q 1428 2844 1947 2747 
L 2328 2669 
Q 3034 2534 3370 2195 
Q 3706 1856 3706 1288 
Q 3706 609 3251 259 
Q 2797 -91 1919 -91 
Q 1588 -91 1214 -16 
Q 841 59 441 206 
L 441 856 
Q 825 641 1194 531 
Q 1563 422 1919 422 
Q 2459 422 2753 634 
Q 3047 847 3047 1241 
Q 3047 1584 2836 1778 
Q 2625 1972 2144 2069 
L 1759 2144 
Q 1053 2284 737 2584 
Q 422 2884 422 3419 
Q 422 4038 858 4394 
Q 1294 4750 2059 4750 
Q 2388 4750 2728 4690 
Q 3069 4631 3425 4513 
z
" transform="scale(0.015625)"/>
     </defs>
     <use xlink:href="#DejaVuSans-53"/>
    </g>
   </g>
   <g id="text_3">
    <!-- R -->
    <g transform="translate(217.964094 39.568437) scale(0.14 -0.14)">
     <defs>
      <path id="DejaVuSans-52" d="M 2841 2188 
Q 3044 2119 3236 1894 
Q 3428 1669 3622 1275 
L 4263 0 
L 3584 0 
L 2988 1197 
Q 2756 1666 2539 1819 
Q 2322 1972 1947 1972 
L 1259 1972 
L 1259 0 
L 628 0 
L 628 4666 
L 2053 4666 
Q 2853 4666 3247 4331 
Q 3641 3997 3641 3322 
Q 3641 2881 3436 2590 
Q 3231 2300 2841 2188 
z
M 1259 4147 
L 1259 2491 
L 2053 2491 
Q 2509 2491 2742 2702 
Q 2975 2913 2975 3322 
Q 2975 3731 2742 3939 
Q 2509 4147 2053 4147 
L 1259 4147 
z
" transform="scale(0.015625)"/>
     </defs>
     <use xlink:href="#DejaVuSans-52"/>
    </g>
   </g>
   <g id="text_4">
    <!-- L -->
    <g transform="translate(283.427375 112.943125) scale(0.14 -0.14)">
     <defs>
      <path id="DejaVuSans-4c" d="M 628 4666 
L 1259 4666 
L 1259 531 
L 3531 531 
L 3531 0 
L 628 0 
L 628 4666 
z
" transform="scale(0.015625)"/>
     </defs>
     <use xlink:href="#DejaVuSans-4c"/>
    </g>
   </g>
   <g id="line2d_14">
    <path d="M 114.828 15.48 
L 114.828 15.48 
" clip-path="url(#p5566488e59)" style="fill: none; stroke: #000000; stroke-width: 2; stroke-linecap: round"/>
   </g>
   <g id="patch_9">
    <path d="M 120.228 15.48 
L 114.828 26.28 
L 109.428 15.48 
z
" clip-path="url(#p5566488e59)"/>
   </g>
   <g id="text_5">
    <!-- i(t) -->
    <g transform="translate(85.175969 24.467187) scale(0.13 -0.13)">
     <defs>
      <path id="DejaVuSans-69" d="M 603 3500 
L 1178 3500 
L 1178 0 
L 603 0 
L 603 3500 
z
M 603 4863 
L 1178 4863 
L 1178 4134 
L 603 4134 
L 603 4863 
z
" transform="scale(0.015625)"/>
      <path id="DejaVuSans-28" d="M 1984 4856 
Q 1566 4138 1362 3434 
Q 1159 2731 1159 2009 
Q 1159 1288 1364 580 
Q 1569 -128 1984 -844 
L 1484 -844 
Q 1016 -109 783 600 
Q 550 1309 550 2009 
Q 550 2706 781 3412 
Q 1013 4119 1484 4856 
L 1984 4856 
z
" transform="scale(0.015625)"/>
      <path id="DejaVuSans-74" d="M 1172 4494 
L 1172 3500 
L 2356 3500 
L 2356 3053 
L 1172 3053 
L 1172 1153 
Q 1172 725 1289 603 
Q 1406 481 1766 481 
L 2356 481 
L 2356 0 
L 1766 0 
Q 1100 0 847 248 
Q 594 497 594 1153 
L 594 3053 
L 172 3053 
L 172 3500 
L 594 3500 
L 594 4494 
L 1172 4494 
z
" transform="scale(0.015625)"/>
      <path id="DejaVuSans-29" d="M 513 4856 
L 1013 4856 
Q 1481 4119 1714 3412 
Q 1947 2706 1947 2009 
Q 1947 1309 1714 600 
Q 1481 -109 1013 -844 
L 513 -844 
Q 928 -128 1133 580 
Q 1338 1288 1338 2009 
Q 1338 2731 1133 3434 
Q 928 4138 513 4856 
z
" transform="scale(0.015625)"/>
     </defs>
     <use xlink:href="#DejaVuSans-69"/>
     <use xlink:href="#DejaVuSans-28" transform="translate(27.783203 0)"/>
     <use xlink:href="#DejaVuSans-74" transform="translate(66.796875 0)"/>
     <use xlink:href="#DejaVuSans-29" transform="translate(106.005859 0)"/>
    </g>
   </g>
  </g>
 </g>
 <defs>
  <clipPath id="p5566488e59">
   <rect x="0" y="-0" width="304.007978" height="190.8"/>
  </clipPath>
 </defs>
</svg>
