<?xml version="1.0" encoding="utf-8" standalone="no"?>
<!DOCTYPE svg PUBLIC "-//W3C//DTD SVG 1.1//EN"
  "http://www.w3.org/Graphics/SVG/1.1/DTD/svg11.dtd">
<svg xmlns:xlink="http://www.w3.org/1999/xlink" width="198.36pt" height="167.16pt" viewBox="0 0 198.36 167.16" xmlns="http://www.w3.org/2000/svg" version="1.1">
 <metadata>
  <rdf:RDF xmlns:dc="http://purl.org/dc/elements/1.1/" xmlns:cc="http://creativecommons.org/ns#" xmlns:rdf="http://www.w3.org/1999/02/22-rdf-syntax-ns#">
   <cc:Work>
    <dc:type rdf:resource="http://purl.org/dc/dcmitype/StillImage"/>
    <dc:date>2026-03-05T18:37:19.190998</dc:date>
    <dc:format>image/svg+xml</dc:format>
    <dc:creator>
     <cc:Agent>
      <dc:title>Matplotlib v3.10.8, https://matplotlib.org/</dc:title>
     </cc:Agent>
    </dc:creator>
   </cc:Work>
  </rdf:RDF>
 </metadata>
 <defs>
  <style type="text/css">*{stroke-linejoin: round; stroke-linecap: butt}</style>
 </defs>
 <g id="figure_1">
  <g id="patch_1">
   <path d="M 0 167.16 
L 198.36 167.16 
L 198.36 0 
L 0 0 
L 0 167.16 
z
" style="fill: none"/>
  </g>
  <g id="axes_1">
   <g id="patch_2">
    <path d="M 22.68 101.68 
C 27.453656 101.68 32.032438 99.783406 35.407922 96.407922 
C 38.783406 93.032438 40.68 88.453656 40.68 83.68 
C 40.68 78.906344 38.783406 74.327562 35.407922 70.952078 
C 32.032438 67.576594 27.453656 65.68 22.68 65.68 
C 17.906344 65.68 13.327562 67.576594 9.952078 70.952078 
C 6.576594 74.327562 4.68 78.906344 4.68 83.68 
C 4.68 88.453656 6.576594 93.032438 9.952078 96.407922 
C 13.327562 99.783406 17.906344 101.68 22.68 101.68 
L 22.68 101.68 
z
" clip-path="url(#pd3ca981142)" style="fill: none; stroke: #000000; stroke-width: 2; stroke-linejoin: miter"/>
   </g>
   <g id="patch_3">
    <path d="M 59.844686 25.333334 
C 62.174057 16.640001 63.18 11.68 76.68 11.68 
" clip-path="url(#pd3ca981142)" style="fill: none; stroke: #000000; stroke-width: 2; stroke-linejoin: miter; stroke-linecap: round"/>
   </g>
   <g id="patch_4">
    <path d="M 64.486704 21.918416 
L 58.68 29.68 
L 57.532038 20.054919 
z
" clip-path="url(#pd3ca981142)"/>
   </g>
   <g id="line2d_1">
    <path d="M 22.68 137.68 
L 22.68 101.68 
L 22.68 101.68 
M 22.68 65.68 
L 22.68 65.68 
L 22.68 29.68 
" clip-path="url(#pd3ca981142)" style="fill: none; stroke: #000000; stroke-width: 2; stroke-linecap: round"/>
   </g>
   <g id="line2d_2">
    <path d="M 26.28 92.68 
L 19.08 92.68 
" clip-path="url(#pd3ca981142)" style="fill: none; stroke: #000000; stroke-width: 2; stroke-linecap: round"/>
   </g>
   <g id="line2d_3">
    <path d="M 22.68 78.28 
L 22.68 71.08 
" clip-path="url(#pd3ca981142)" style="fill: none; stroke: #000000; stroke-width: 2; stroke-linecap: round"/>
   </g>
   <g id="line2d_4">
    <path d="M 26.28 74.68 
L 19.08 74.68 
" clip-path="url(#pd3ca981142)" style="fill: none; stroke: #000000; stroke-width: 2; stroke-linecap: round"/>
   </g>
   <g id="line2d_5">
    <path d="M 22.68 29.68 
L 40.68 29.68 
L 58.68 29.68 
" clip-path="url(#pd3ca981142)" style="fill: none; stroke: #000000; stroke-width: 2; stroke-linecap: round"/>
   </g>
   <g id="line2d_6">
    <path d="M 76.68 11.68 
L 76.68 62.44 
M 85.68 62.44 
L 67.68 62.44 
M 85.68 68.92 
L 67.68 68.92 
M 76.68 68.92 
L 76.68 119.68 
" clip-path="url(#pd3ca981142)" style="fill: none; stroke: #000000; stroke-width: 2; stroke-linecap: round"/>
   </g>
   <g id="line2d_7">
    <path d="M 76.68 11.68 
L 130.68 11.68 
L 184.68 11.68 
" clip-path="url(#pd3ca981142)" style="fill: none; stroke: #000000; stroke-width: 2; stroke-linecap: round"/>
   </g>
   <g id="line2d_8">
    <path d="M 184.68 11.68 
L 184.68 62.44 
M 193.68 62.44 
L 175.68 62.44 
M 193.68 68.92 
L 175.68 68.92 
M 184.68 68.92 
L 184.68 119.68 
" clip-path="url(#pd3ca981142)" style="fill: none; stroke: #000000; stroke-width: 2; stroke-linecap: round"/>
   </g>
   <g id="line2d_9">
    <path d="M 184.68 119.68 
L 130.68 119.68 
L 76.68 119.68 
" clip-path="url(#pd3ca981142)" style="fill: none; stroke: #000000; stroke-width: 2; stroke-linecap: round"/>
   </g>
   <g id="line2d_10">
    <path d="M 130.68 119.68 
L 130.68 134.08 
L 121.68 134.08 
L 139.68 134.08 
M 124.38 138.4 
L 136.98 138.4 
M 128.88 142.72 
L 132.48 142.72 
" clip-path="url(#pd3ca981142)" style="fill: none; stroke: #000000; stroke-width: 2; stroke-linecap: round"/>
   </g>
   <g id="line2d_11">
    <path d="M 76.68 119.68 
L 49.68 119.68 
L 22.68 119.68 
" clip-path="url(#pd3ca981142)" style="fill: none; stroke: #000000; stroke-width: 2; stroke-linecap: round"/>
   </g>
   <g id="line2d_12">
    <path d="M 22.68 119.68 
L 22.68 110.68 
L 22.68 101.68 
" clip-path="url(#pd3ca981142)" style="fill: none; stroke: #000000; stroke-width: 2; stroke-linecap: round"/>
   </g>
   <g id="text_1">
    <!-- V -->
    <g transform="translate(17.891562 159.117812) scale(0.14 -0.14)">
     <defs>
      <path id="DejaVuSans-56" d="M 1831 0 
L 50 4666 
L 709 4666 
L 2188 738 
L 3669 4666 
L 4325 4666 
L 2547 0 
L 1831 0 
z
" transform="scale(0.015625)"/>
     </defs>
     <use xlink:href="#DejaVuSans-56"/>
    </g>
   </g>
   <g id="text_2">
    <!-- P -->
    <g style="fill: #ff0000" transform="translate(80.28 15.543125) scale(0.14 -0.14)">
     <defs>
      <path id="DejaVuSans-50" d="M 1259 4147 
L 1259 2394 
L 2053 2394 
Q 2494 2394 2734 2622 
Q 2975 2850 2975 3272 
Q 2975 3691 2734 3919 
Q 2494 4147 2053 4147 
L 1259 4147 
z
M 628 4666 
L 2053 4666 
Q 2838 4666 3239 4311 
Q 3641 3956 3641 3272 
Q 3641 2581 3239 2228 
Q 2838 1875 2053 1875 
L 1259 1875 
L 1259 0 
L 628 0 
L 628 4666 
z
" transform="scale(0.015625)"/>
     </defs>
     <use xlink:href="#DejaVuSans-50"/>
    </g>
   </g>
   <g id="text_3">
    <!-- C₁ -->
    <g transform="translate(68.985469 19.568437) scale(0.14 -0.14)">
     <defs>
      <path id="DejaVuSans-43" d="M 4122 4306 
L 4122 3641 
Q 3803 3938 3442 4084 
Q 3081 4231 2675 4231 
Q 1875 4231 1450 3742 
Q 1025 3253 1025 2328 
Q 1025 1406 1450 917 
Q 1875 428 2675 428 
Q 3081 428 3442 575 
Q 3803 722 4122 1019 
L 4122 359 
Q 3791 134 3420 21 
Q 3050 -91 2638 -91 
Q 1578 -91 968 557 
Q 359 1206 359 2328 
Q 359 3453 968 4101 
Q 1578 4750 2638 4750 
Q 3056 4750 3426 4639 
Q 3797 4528 4122 4306 
z
" transform="scale(0.015625)"/>
      <path id="DejaVuSans-2081" d="M 488 319 
L 1125 319 
L 1125 2229 
L 428 2101 
L 428 2463 
L 1147 2585 
L 1575 2585 
L 1575 319 
L 2216 319 
L 2216 -24 
L 488 -24 
L 488 319 
z
" transform="scale(0.015625)"/>
     </defs>
     <use xlink:href="#DejaVuSans-43"/>
     <use xlink:href="#DejaVuSans-2081" transform="translate(69.824219 0)"/>
    </g>
   </g>
   <g id="text_4">
    <!-- C₂ -->
    <g transform="translate(176.985469 19.568437) scale(0.14 -0.14)">
     <defs>
      <path id="DejaVuSans-2082" d="M 838 332 
L 2163 332 
L 2163 -24 
L 294 -24 
L 294 319 
Q 400 416 597 591 
Q 1672 1544 1672 1838 
Q 1672 2044 1509 2170 
Q 1347 2297 1081 2297 
Q 919 2297 728 2242 
Q 538 2188 313 2079 
L 313 2463 
Q 553 2551 761 2594 
Q 969 2638 1147 2638 
Q 1600 2638 1872 2432 
Q 2144 2226 2144 1888 
Q 2144 1454 1109 566 
Q 934 416 838 332 
z
" transform="scale(0.015625)"/>
     </defs>
     <use xlink:href="#DejaVuSans-43"/>
     <use xlink:href="#DejaVuSans-2082" transform="translate(69.824219 0)"/>
    </g>
   </g>
   <g id="patch_5">
    <path d="M 58.68 32.38 
C 59.396048 32.38 60.082866 32.095511 60.589188 31.589188 
C 61.095511 31.082866 61.38 30.396048 61.38 29.68 
C 61.38 28.963952 61.095511 28.277134 60.589188 27.770812 
C 60.082866 27.264489 59.396048 26.98 58.68 26.98 
C 57.963952 26.98 57.277134 27.264489 56.770812 27.770812 
C 56.264489 28.277134 55.98 28.963952 55.98 29.68 
C 55.98 30.396048 56.264489 31.082866 56.770812 31.589188 
C 57.277134 32.095511 57.963952 32.38 58.68 32.38 
z
" clip-path="url(#pd3ca981142)" style="stroke: #000000; stroke-width: 2; stroke-linejoin: miter"/>
   </g>
   <g id="patch_6">
    <path d="M 184.68 14.38 
C 185.396048 14.38 186.082866 14.095511 186.589188 13.589188 
C 187.095511 13.082866 187.38 12.396048 187.38 11.68 
C 187.38 10.963952 187.095511 10.277134 186.589188 9.770812 
C 186.082866 9.264489 185.396048 8.98 184.68 8.98 
C 183.963952 8.98 183.277134 9.264489 182.770812 9.770812 
C 182.264489 10.277134 181.98 10.963952 181.98 11.68 
C 181.98 12.396048 182.264489 13.082866 182.770812 13.589188 
C 183.277134 14.095511 183.963952 14.38 184.68 14.38 
z
" clip-path="url(#pd3ca981142)" style="stroke: #000000; stroke-width: 2; stroke-linejoin: miter"/>
   </g>
   <g id="line2d_13">
    <path d="M 22.68 69.28 
L 22.68 69.28 
" clip-path="url(#pd3ca981142)" style="fill: none; stroke: #000000; stroke-width: 2; stroke-linecap: round"/>
   </g>
   <g id="patch_7">
    <path d="M 17.28 69.28 
L 22.68 58.48 
L 28.08 69.28 
z
" clip-path="url(#pd3ca981142)"/>
   </g>
   <g id="text_5">
    <!-- i -->
    <g transform="translate(8.268438 67.467187) scale(0.13 -0.13)">
     <defs>
      <path id="DejaVuSans-69" d="M 603 3500 
L 1178 3500 
L 1178 0 
L 603 0 
L 603 3500 
z
M 603 4863 
L 1178 4863 
L 1178 4134 
L 603 4134 
L 603 4863 
z
" transform="scale(0.015625)"/>
     </defs>
     <use xlink:href="#DejaVuSans-69"/>
    </g>
   </g>
  </g>
 </g>
 <defs>
  <clipPath id="pd3ca981142">
   <rect x="0" y="-0" width="198.36" height="167.16"/>
  </clipPath>
 </defs>
</svg>
