<?xml version="1.0" encoding="utf-8" standalone="no"?>
<!DOCTYPE svg PUBLIC "-//W3C//DTD SVG 1.1//EN"
  "http://www.w3.org/Graphics/SVG/1.1/DTD/svg11.dtd">
<svg xmlns:xlink="http://www.w3.org/1999/xlink" width="383.747978pt" height="167.76pt" viewBox="0 0 383.747978 167.76" xmlns="http://www.w3.org/2000/svg" version="1.1">
 <metadata>
  <rdf:RDF xmlns:dc="http://purl.org/dc/elements/1.1/" xmlns:cc="http://creativecommons.org/ns#" xmlns:rdf="http://www.w3.org/1999/02/22-rdf-syntax-ns#">
   <cc:Work>
    <dc:type rdf:resource="http://purl.org/dc/dcmitype/StillImage"/>
    <dc:date>2026-03-06T11:16:03.272895</dc:date>
    <dc:format>image/svg+xml</dc:format>
    <dc:creator>
     <cc:Agent>
      <dc:title>Matplotlib v3.10.8, https://matplotlib.org/</dc:title>
     </cc:Agent>
    </dc:creator>
   </cc:Work>
  </rdf:RDF>
 </metadata>
 <defs>
  <style type="text/css">*{stroke-linejoin: round; stroke-linecap: butt}</style>
 </defs>
 <g id="figure_1">
  <g id="patch_1">
   <path d="M 0 167.76 
L 383.747978 167.76 
L 383.747978 0 
L 0 0 
L 0 167.76 
z
" style="fill: none"/>
  </g>
  <g id="axes_1">
   <g id="patch_2">
    <path d="M 73.188 127.08 
C 77.961656 127.08 82.540438 125.183406 85.915922 121.807922 
C 89.291406 118.432438 91.188 113.853656 91.188 109.08 
C 91.188 104.306344 89.291406 99.727562 85.915922 96.352078 
C 82.540438 92.976594 77.961656 91.08 73.188 91.08 
C 68.414344 91.08 63.835562 92.976594 60.460078 96.352078 
C 57.084594 99.727562 55.188 104.306344 55.188 109.08 
C 55.188 113.853656 57.084594 118.432438 60.460078 121.807922 
C 63.835562 125.183406 68.414344 127.08 73.188 127.08 
L 73.188 127.08 
z
" clip-path="url(#pce3bd5b222)" style="fill: none; stroke: #000000; stroke-width: 2; stroke-linejoin: miter"/>
   </g>
   <g id="patch_3">
    <path d="M 200.352686 50.733334 
C 202.682057 42.040001 203.688 37.08 217.188 37.08 
" clip-path="url(#pce3bd5b222)" style="fill: none; stroke: #000000; stroke-width: 2; stroke-linejoin: miter; stroke-linecap: round"/>
   </g>
   <g id="patch_4">
    <path d="M 204.994704 47.318416 
L 199.188 55.08 
L 198.040038 45.454919 
z
" clip-path="url(#pce3bd5b222)"/>
   </g>
   <g id="patch_5">
    <path d="M 326.352686 32.733334 
C 328.682057 24.040001 329.688 19.08 343.188 19.08 
" clip-path="url(#pce3bd5b222)" style="fill: none; stroke: #000000; stroke-width: 2; stroke-linejoin: miter; stroke-linecap: round"/>
   </g>
   <g id="patch_6">
    <path d="M 330.994704 29.318416 
L 325.188 37.08 
L 324.040038 27.454919 
z
" clip-path="url(#pce3bd5b222)"/>
   </g>
   <g id="patch_7">
    <path d="M 361.188 64.08 
C 362.381016 64.08 363.52639 63.605571 364.369981 62.761981 
C 365.213571 61.91839 365.688 60.773016 365.688 59.58 
C 365.688 58.386984 365.213571 57.24161 364.369981 56.398019 
C 363.52639 55.554429 362.381016 55.08 361.188 55.08 
" clip-path="url(#pce3bd5b222)" style="fill: none; stroke: #000000; stroke-width: 2; stroke-linejoin: miter"/>
   </g>
   <g id="patch_8">
    <path d="M 361.188 73.08 
C 362.381016 73.08 363.52639 72.605571 364.369981 71.761981 
C 365.213571 70.91839 365.688 69.773016 365.688 68.58 
C 365.688 67.386984 365.213571 66.24161 364.369981 65.398019 
C 363.52639 64.554429 362.381016 64.08 361.188 64.08 
" clip-path="url(#pce3bd5b222)" style="fill: none; stroke: #000000; stroke-width: 2; stroke-linejoin: miter"/>
   </g>
   <g id="patch_9">
    <path d="M 361.188 82.08 
C 362.381016 82.08 363.52639 81.605571 364.369981 80.761981 
C 365.213571 79.91839 365.688 78.773016 365.688 77.58 
C 365.688 76.386984 365.213571 75.24161 364.369981 74.398019 
C 363.52639 73.554429 362.381016 73.08 361.188 73.08 
" clip-path="url(#pce3bd5b222)" style="fill: none; stroke: #000000; stroke-width: 2; stroke-linejoin: miter"/>
   </g>
   <g id="patch_10">
    <path d="M 361.188 91.08 
C 362.381016 91.08 363.52639 90.605571 364.369981 89.761981 
C 365.213571 88.91839 365.688 87.773016 365.688 86.58 
C 365.688 85.386984 365.213571 84.24161 364.369981 83.398019 
C 363.52639 82.554429 362.381016 82.08 361.188 82.08 
" clip-path="url(#pce3bd5b222)" style="fill: none; stroke: #000000; stroke-width: 2; stroke-linejoin: miter"/>
   </g>
   <g id="line2d_1">
    <path d="M 73.188 163.08 
L 73.188 127.08 
L 73.188 127.08 
M 73.188 91.08 
L 73.188 91.08 
L 73.188 55.08 
" clip-path="url(#pce3bd5b222)" style="fill: none; stroke: #000000; stroke-width: 2; stroke-linecap: round"/>
   </g>
   <g id="line2d_2">
    <path d="M 76.788 118.08 
L 69.588 118.08 
" clip-path="url(#pce3bd5b222)" style="fill: none; stroke: #000000; stroke-width: 2; stroke-linecap: round"/>
   </g>
   <g id="line2d_3">
    <path d="M 73.188 103.68 
L 73.188 96.48 
" clip-path="url(#pce3bd5b222)" style="fill: none; stroke: #000000; stroke-width: 2; stroke-linecap: round"/>
   </g>
   <g id="line2d_4">
    <path d="M 76.788 100.08 
L 69.588 100.08 
" clip-path="url(#pce3bd5b222)" style="fill: none; stroke: #000000; stroke-width: 2; stroke-linecap: round"/>
   </g>
   <g id="line2d_5">
    <path d="M 73.188 55.08 
L 82.188 55.08 
L 91.188 55.08 
" clip-path="url(#pce3bd5b222)" style="fill: none; stroke: #000000; stroke-width: 2; stroke-linecap: round"/>
   </g>
   <g id="line2d_6">
    <path d="M 91.188 55.08 
L 127.188 55.08 
L 130.188 46.08 
L 136.188 64.08 
L 142.188 46.08 
L 148.188 64.08 
L 154.188 46.08 
L 160.188 64.08 
L 163.188 55.08 
L 199.188 55.08 
" clip-path="url(#pce3bd5b222)" style="fill: none; stroke: #000000; stroke-width: 2; stroke-linecap: round"/>
   </g>
   <g id="line2d_7">
    <path d="M 217.188 37.08 
L 217.188 73.08 
L 226.188 76.08 
L 208.188 82.08 
L 226.188 88.08 
L 208.188 94.08 
L 226.188 100.08 
L 208.188 106.08 
L 217.188 109.08 
L 217.188 145.08 
" clip-path="url(#pce3bd5b222)" style="fill: none; stroke: #000000; stroke-width: 2; stroke-linecap: round"/>
   </g>
   <g id="line2d_8">
    <path d="M 217.188 145.08 
L 217.188 154.08 
L 217.188 163.08 
" clip-path="url(#pce3bd5b222)" style="fill: none; stroke: #000000; stroke-width: 2; stroke-linecap: round"/>
   </g>
   <g id="line2d_9">
    <path d="M 217.188 37.08 
L 253.188 37.08 
L 256.188 28.08 
L 262.188 46.08 
L 268.188 28.08 
L 274.188 46.08 
L 280.188 28.08 
L 286.188 46.08 
L 289.188 37.08 
L 325.188 37.08 
" clip-path="url(#pce3bd5b222)" style="fill: none; stroke: #000000; stroke-width: 2; stroke-linecap: round"/>
   </g>
   <g id="line2d_10">
    <path d="M 343.188 19.08 
L 352.188 19.08 
L 361.188 19.08 
" clip-path="url(#pce3bd5b222)" style="fill: none; stroke: #000000; stroke-width: 2; stroke-linecap: round"/>
   </g>
   <g id="line2d_11">
    <path d="M 361.188 19.08 
L 361.188 55.08 
M 361.188 91.08 
L 361.188 127.08 
" clip-path="url(#pce3bd5b222)" style="fill: none; stroke: #000000; stroke-width: 2; stroke-linecap: round"/>
   </g>
   <g id="line2d_12">
    <path d="M 361.188 127.08 
L 325.188 127.08 
L 289.188 127.08 
" clip-path="url(#pce3bd5b222)" style="fill: none; stroke: #000000; stroke-width: 2; stroke-linecap: round"/>
   </g>
   <g id="line2d_13">
    <path d="M 289.188 127.08 
L 289.188 141.48 
L 280.188 141.48 
L 298.188 141.48 
M 282.888 145.8 
L 295.488 145.8 
M 287.388 150.12 
L 290.988 150.12 
" clip-path="url(#pce3bd5b222)" style="fill: none; stroke: #000000; stroke-width: 2; stroke-linecap: round"/>
   </g>
   <g id="line2d_14">
    <path d="M 289.188 127.08 
L 181.188 127.08 
L 73.188 127.08 
" clip-path="url(#pce3bd5b222)" style="fill: none; stroke: #000000; stroke-width: 2; stroke-linecap: round"/>
   </g>
   <g id="line2d_15">
    <path d="M 73.188 127.08 
L 73.188 109.08 
L 73.188 91.08 
" clip-path="url(#pce3bd5b222)" style="fill: none; stroke: #000000; stroke-width: 2; stroke-linecap: round"/>
   </g>
   <g id="text_1">
    <!-- Vs·u(t) -->
    <g transform="translate(3.183312 112.943125) scale(0.14 -0.14)">
     <defs>
      <path id="DejaVuSans-56" d="M 1831 0 
L 50 4666 
L 709 4666 
L 2188 738 
L 3669 4666 
L 4325 4666 
L 2547 0 
L 1831 0 
z
" transform="scale(0.015625)"/>
      <path id="DejaVuSans-73" d="M 2834 3397 
L 2834 2853 
Q 2591 2978 2328 3040 
Q 2066 3103 1784 3103 
Q 1356 3103 1142 2972 
Q 928 2841 928 2578 
Q 928 2378 1081 2264 
Q 1234 2150 1697 2047 
L 1894 2003 
Q 2506 1872 2764 1633 
Q 3022 1394 3022 966 
Q 3022 478 2636 193 
Q 2250 -91 1575 -91 
Q 1294 -91 989 -36 
Q 684 19 347 128 
L 347 722 
Q 666 556 975 473 
Q 1284 391 1588 391 
Q 1994 391 2212 530 
Q 2431 669 2431 922 
Q 2431 1156 2273 1281 
Q 2116 1406 1581 1522 
L 1381 1569 
Q 847 1681 609 1914 
Q 372 2147 372 2553 
Q 372 3047 722 3315 
Q 1072 3584 1716 3584 
Q 2034 3584 2315 3537 
Q 2597 3491 2834 3397 
z
" transform="scale(0.015625)"/>
      <path id="DejaVuSans-b7" d="M 684 2619 
L 1344 2619 
L 1344 1825 
L 684 1825 
L 684 2619 
z
" transform="scale(0.015625)"/>
      <path id="DejaVuSans-75" d="M 544 1381 
L 544 3500 
L 1119 3500 
L 1119 1403 
Q 1119 906 1312 657 
Q 1506 409 1894 409 
Q 2359 409 2629 706 
Q 2900 1003 2900 1516 
L 2900 3500 
L 3475 3500 
L 3475 0 
L 2900 0 
L 2900 538 
Q 2691 219 2414 64 
Q 2138 -91 1772 -91 
Q 1169 -91 856 284 
Q 544 659 544 1381 
z
M 1991 3584 
L 1991 3584 
z
" transform="scale(0.015625)"/>
      <path id="DejaVuSans-28" d="M 1984 4856 
Q 1566 4138 1362 3434 
Q 1159 2731 1159 2009 
Q 1159 1288 1364 580 
Q 1569 -128 1984 -844 
L 1484 -844 
Q 1016 -109 783 600 
Q 550 1309 550 2009 
Q 550 2706 781 3412 
Q 1013 4119 1484 4856 
L 1984 4856 
z
" transform="scale(0.015625)"/>
      <path id="DejaVuSans-74" d="M 1172 4494 
L 1172 3500 
L 2356 3500 
L 2356 3053 
L 1172 3053 
L 1172 1153 
Q 1172 725 1289 603 
Q 1406 481 1766 481 
L 2356 481 
L 2356 0 
L 1766 0 
Q 1100 0 847 248 
Q 594 497 594 1153 
L 594 3053 
L 172 3053 
L 172 3500 
L 594 3500 
L 594 4494 
L 1172 4494 
z
" transform="scale(0.015625)"/>
      <path id="DejaVuSans-29" d="M 513 4856 
L 1013 4856 
Q 1481 4119 1714 3412 
Q 1947 2706 1947 2009 
Q 1947 1309 1714 600 
Q 1481 -109 1013 -844 
L 513 -844 
Q 928 -128 1133 580 
Q 1338 1288 1338 2009 
Q 1338 2731 1133 3434 
Q 928 4138 513 4856 
z
" transform="scale(0.015625)"/>
     </defs>
     <use xlink:href="#DejaVuSans-56"/>
     <use xlink:href="#DejaVuSans-73" transform="translate(68.408203 0)"/>
     <use xlink:href="#DejaVuSans-b7" transform="translate(120.507812 0)"/>
     <use xlink:href="#DejaVuSans-75" transform="translate(152.294922 0)"/>
     <use xlink:href="#DejaVuSans-28" transform="translate(215.673828 0)"/>
     <use xlink:href="#DejaVuSans-74" transform="translate(254.6875 0)"/>
     <use xlink:href="#DejaVuSans-29" transform="translate(293.896484 0)"/>
    </g>
   </g>
   <g id="text_2">
    <!-- R₁ -->
    <g transform="translate(137.517531 39.568437) scale(0.14 -0.14)">
     <defs>
      <path id="DejaVuSans-52" d="M 2841 2188 
Q 3044 2119 3236 1894 
Q 3428 1669 3622 1275 
L 4263 0 
L 3584 0 
L 2988 1197 
Q 2756 1666 2539 1819 
Q 2322 1972 1947 1972 
L 1259 1972 
L 1259 0 
L 628 0 
L 628 4666 
L 2053 4666 
Q 2853 4666 3247 4331 
Q 3641 3997 3641 3322 
Q 3641 2881 3436 2590 
Q 3231 2300 2841 2188 
z
M 1259 4147 
L 1259 2491 
L 2053 2491 
Q 2509 2491 2742 2702 
Q 2975 2913 2975 3322 
Q 2975 3731 2742 3939 
Q 2509 4147 2053 4147 
L 1259 4147 
z
" transform="scale(0.015625)"/>
      <path id="DejaVuSans-2081" d="M 488 319 
L 1125 319 
L 1125 2229 
L 428 2101 
L 428 2463 
L 1147 2585 
L 1575 2585 
L 1575 319 
L 2216 319 
L 2216 -24 
L 488 -24 
L 488 319 
z
" transform="scale(0.015625)"/>
     </defs>
     <use xlink:href="#DejaVuSans-52"/>
     <use xlink:href="#DejaVuSans-2081" transform="translate(69.482422 0)"/>
    </g>
   </g>
   <g id="text_3">
    <!-- A -->
    <g style="fill: #ff0000" transform="translate(220.788 40.943125) scale(0.14 -0.14)">
     <defs>
      <path id="DejaVuSans-41" d="M 2188 4044 
L 1331 1722 
L 3047 1722 
L 2188 4044 
z
M 1831 4666 
L 2547 4666 
L 4325 0 
L 3669 0 
L 3244 1197 
L 1141 1197 
L 716 0 
L 50 0 
L 1831 4666 
z
" transform="scale(0.015625)"/>
     </defs>
     <use xlink:href="#DejaVuSans-41"/>
    </g>
   </g>
   <g id="text_4">
    <!-- R₂ -->
    <g transform="translate(231.588 94.943125) scale(0.14 -0.14)">
     <defs>
      <path id="DejaVuSans-2082" d="M 838 332 
L 2163 332 
L 2163 -24 
L 294 -24 
L 294 319 
Q 400 416 597 591 
Q 1672 1544 1672 1838 
Q 1672 2044 1509 2170 
Q 1347 2297 1081 2297 
Q 919 2297 728 2242 
Q 538 2188 313 2079 
L 313 2463 
Q 553 2551 761 2594 
Q 969 2638 1147 2638 
Q 1600 2638 1872 2432 
Q 2144 2226 2144 1888 
Q 2144 1454 1109 566 
Q 934 416 838 332 
z
" transform="scale(0.015625)"/>
     </defs>
     <use xlink:href="#DejaVuSans-52"/>
     <use xlink:href="#DejaVuSans-2082" transform="translate(69.482422 0)"/>
    </g>
   </g>
   <g id="text_5">
    <!-- R₃ -->
    <g transform="translate(263.517531 21.568437) scale(0.14 -0.14)">
     <defs>
      <path id="DejaVuSans-2083" d="M 1638 1388 
Q 1925 1332 2083 1161 
Q 2241 991 2241 735 
Q 2241 347 1944 138 
Q 1647 -71 1094 -71 
Q 916 -71 720 -38 
Q 525 -6 306 57 
L 306 435 
Q 469 351 655 310 
Q 841 269 1050 269 
Q 1391 269 1578 392 
Q 1766 516 1766 735 
Q 1766 966 1592 1085 
Q 1419 1204 1081 1204 
L 813 1204 
L 813 1541 
L 1106 1541 
Q 1400 1541 1551 1639 
Q 1703 1738 1703 1926 
Q 1703 2107 1547 2202 
Q 1391 2297 1094 2297 
Q 969 2297 809 2269 
Q 650 2241 397 2169 
L 397 2529 
Q 625 2582 825 2610 
Q 1025 2638 1197 2638 
Q 1647 2638 1911 2453 
Q 2175 2269 2175 1960 
Q 2175 1744 2034 1594 
Q 1894 1444 1638 1388 
z
" transform="scale(0.015625)"/>
     </defs>
     <use xlink:href="#DejaVuSans-52"/>
     <use xlink:href="#DejaVuSans-2083" transform="translate(69.482422 0)"/>
    </g>
   </g>
   <g id="text_6">
    <!-- B -->
    <g style="fill: #ff0000" transform="translate(346.788 22.943125) scale(0.14 -0.14)">
     <defs>
      <path id="DejaVuSans-42" d="M 1259 2228 
L 1259 519 
L 2272 519 
Q 2781 519 3026 730 
Q 3272 941 3272 1375 
Q 3272 1813 3026 2020 
Q 2781 2228 2272 2228 
L 1259 2228 
z
M 1259 4147 
L 1259 2741 
L 2194 2741 
Q 2656 2741 2882 2914 
Q 3109 3088 3109 3444 
Q 3109 3797 2882 3972 
Q 2656 4147 2194 4147 
L 1259 4147 
z
M 628 4666 
L 2241 4666 
Q 2963 4666 3353 4366 
Q 3744 4066 3744 3513 
Q 3744 3084 3544 2831 
Q 3344 2578 2956 2516 
Q 3422 2416 3680 2098 
Q 3938 1781 3938 1306 
Q 3938 681 3513 340 
Q 3088 0 2303 0 
L 628 0 
L 628 4666 
z
" transform="scale(0.015625)"/>
     </defs>
     <use xlink:href="#DejaVuSans-42"/>
    </g>
   </g>
   <g id="text_7">
    <!-- L -->
    <g transform="translate(371.087978 76.943125) scale(0.14 -0.14)">
     <defs>
      <path id="DejaVuSans-4c" d="M 628 4666 
L 1259 4666 
L 1259 531 
L 3531 531 
L 3531 0 
L 628 0 
L 628 4666 
z
" transform="scale(0.015625)"/>
     </defs>
     <use xlink:href="#DejaVuSans-4c"/>
    </g>
   </g>
   <g id="patch_11">
    <path d="M 199.188 57.78 
C 199.904048 57.78 200.590866 57.495511 201.097188 56.989188 
C 201.603511 56.482866 201.888 55.796048 201.888 55.08 
C 201.888 54.363952 201.603511 53.677134 201.097188 53.170812 
C 200.590866 52.664489 199.904048 52.38 199.188 52.38 
C 198.471952 52.38 197.785134 52.664489 197.278812 53.170812 
C 196.772489 53.677134 196.488 54.363952 196.488 55.08 
C 196.488 55.796048 196.772489 56.482866 197.278812 56.989188 
C 197.785134 57.495511 198.471952 57.78 199.188 57.78 
z
" clip-path="url(#pce3bd5b222)" style="stroke: #000000; stroke-width: 2; stroke-linejoin: miter"/>
   </g>
   <g id="patch_12">
    <path d="M 325.188 39.78 
C 325.904048 39.78 326.590866 39.495511 327.097188 38.989188 
C 327.603511 38.482866 327.888 37.796048 327.888 37.08 
C 327.888 36.363952 327.603511 35.677134 327.097188 35.170812 
C 326.590866 34.664489 325.904048 34.38 325.188 34.38 
C 324.471952 34.38 323.785134 34.664489 323.278812 35.170812 
C 322.772489 35.677134 322.488 36.363952 322.488 37.08 
C 322.488 37.796048 322.772489 38.482866 323.278812 38.989188 
C 323.785134 39.495511 324.471952 39.78 325.188 39.78 
z
" clip-path="url(#pce3bd5b222)" style="stroke: #000000; stroke-width: 2; stroke-linejoin: miter"/>
   </g>
   <g id="line2d_16">
    <path d="M 73.188 15.48 
L 73.188 15.48 
" clip-path="url(#pce3bd5b222)" style="fill: none; stroke: #000000; stroke-width: 2; stroke-linecap: round"/>
   </g>
   <g id="patch_13">
    <path d="M 78.588 15.48 
L 73.188 26.28 
L 67.788 15.48 
z
" clip-path="url(#pce3bd5b222)"/>
   </g>
   <g id="text_8">
    <!-- i(t) -->
    <g transform="translate(43.535969 24.467187) scale(0.13 -0.13)">
     <defs>
      <path id="DejaVuSans-69" d="M 603 3500 
L 1178 3500 
L 1178 0 
L 603 0 
L 603 3500 
z
M 603 4863 
L 1178 4863 
L 1178 4134 
L 603 4134 
L 603 4863 
z
" transform="scale(0.015625)"/>
     </defs>
     <use xlink:href="#DejaVuSans-69"/>
     <use xlink:href="#DejaVuSans-28" transform="translate(27.783203 0)"/>
     <use xlink:href="#DejaVuSans-74" transform="translate(66.796875 0)"/>
     <use xlink:href="#DejaVuSans-29" transform="translate(106.005859 0)"/>
    </g>
   </g>
  </g>
 </g>
 <defs>
  <clipPath id="pce3bd5b222">
   <rect x="0" y="-0" width="383.747978" height="167.76"/>
  </clipPath>
 </defs>
</svg>
