<?xml version="1.0" encoding="utf-8" standalone="no"?>
<!DOCTYPE svg PUBLIC "-//W3C//DTD SVG 1.1//EN"
  "http://www.w3.org/Graphics/SVG/1.1/DTD/svg11.dtd">
<svg xmlns:xlink="http://www.w3.org/1999/xlink" width="310.333125pt" height="167pt" viewBox="0 0 310.333125 167" xmlns="http://www.w3.org/2000/svg" version="1.1">
 <metadata>
  <rdf:RDF xmlns:dc="http://purl.org/dc/elements/1.1/" xmlns:cc="http://creativecommons.org/ns#" xmlns:rdf="http://www.w3.org/1999/02/22-rdf-syntax-ns#">
   <cc:Work>
    <dc:type rdf:resource="http://purl.org/dc/dcmitype/StillImage"/>
    <dc:date>2026-02-23T16:40:21.879481</dc:date>
    <dc:format>image/svg+xml</dc:format>
    <dc:creator>
     <cc:Agent>
      <dc:title>Matplotlib v3.10.8, https://matplotlib.org/</dc:title>
     </cc:Agent>
    </dc:creator>
   </cc:Work>
  </rdf:RDF>
 </metadata>
 <defs>
  <style type="text/css">*{stroke-linejoin: round; stroke-linecap: butt}</style>
 </defs>
 <g id="figure_1">
  <g id="patch_1">
   <path d="M 0 167 
L 310.333125 167 
L 310.333125 0 
L 0 0 
L 0 167 
z
" style="fill: none"/>
  </g>
  <g id="axes_1">
   <g id="patch_2">
    <path d="M 116.653125 94.28 
C 115.460109 94.28 114.314735 94.754429 113.471144 95.598019 
C 112.627554 96.44161 112.153125 97.586984 112.153125 98.78 
C 112.153125 99.973016 112.627554 101.11839 113.471144 101.961981 
C 114.314735 102.805571 115.460109 103.28 116.653125 103.28 
" clip-path="url(#pa423ee4b17)" style="fill: none; stroke: #000000; stroke-width: 2; stroke-linejoin: miter"/>
   </g>
   <g id="patch_3">
    <path d="M 116.653125 85.28 
C 115.460109 85.28 114.314735 85.754429 113.471144 86.598019 
C 112.627554 87.44161 112.153125 88.586984 112.153125 89.78 
C 112.153125 90.973016 112.627554 92.11839 113.471144 92.961981 
C 114.314735 93.805571 115.460109 94.28 116.653125 94.28 
" clip-path="url(#pa423ee4b17)" style="fill: none; stroke: #000000; stroke-width: 2; stroke-linejoin: miter"/>
   </g>
   <g id="patch_4">
    <path d="M 116.653125 76.28 
C 115.460109 76.28 114.314735 76.754429 113.471144 77.598019 
C 112.627554 78.44161 112.153125 79.586984 112.153125 80.78 
C 112.153125 81.973016 112.627554 83.11839 113.471144 83.961981 
C 114.314735 84.805571 115.460109 85.28 116.653125 85.28 
" clip-path="url(#pa423ee4b17)" style="fill: none; stroke: #000000; stroke-width: 2; stroke-linejoin: miter"/>
   </g>
   <g id="patch_5">
    <path d="M 116.653125 67.28 
C 115.460109 67.28 114.314735 67.754429 113.471144 68.598019 
C 112.627554 69.44161 112.153125 70.586984 112.153125 71.78 
C 112.153125 72.973016 112.627554 74.11839 113.471144 74.961981 
C 114.314735 75.805571 115.460109 76.28 116.653125 76.28 
" clip-path="url(#pa423ee4b17)" style="fill: none; stroke: #000000; stroke-width: 2; stroke-linejoin: miter"/>
   </g>
   <g id="patch_6">
    <path d="M 243.817811 26.933334 
C 246.147182 18.240001 247.153125 13.28 260.653125 13.28 
" clip-path="url(#pa423ee4b17)" style="fill: none; stroke: #000000; stroke-width: 2; stroke-linejoin: miter; stroke-linecap: round"/>
   </g>
   <g id="patch_7">
    <path d="M 248.459829 23.518416 
L 242.653125 31.28 
L 241.505163 21.654919 
z
" clip-path="url(#pa423ee4b17)"/>
   </g>
   <g id="patch_8">
    <path d="M 112.153125 85.28 
C 106.170954 85.28 103.153125 85.28 62.653125 85.28 
" clip-path="url(#pa423ee4b17)" style="fill: none; stroke: #000000; stroke-width: 2; stroke-linejoin: miter; stroke-linecap: round"/>
   </g>
   <g id="patch_9">
    <path d="M 107.653125 81.68 
L 116.653125 85.28 
L 107.653125 88.88 
z
" clip-path="url(#pa423ee4b17)"/>
   </g>
   <g id="line2d_1">
    <path d="M 116.653125 139.28 
L 116.653125 103.28 
M 116.653125 67.28 
L 116.653125 31.28 
" clip-path="url(#pa423ee4b17)" style="fill: none; stroke: #000000; stroke-width: 2; stroke-linecap: round"/>
   </g>
   <g id="line2d_2">
    <path d="M 116.653125 31.28 
L 125.653125 31.28 
L 134.653125 31.28 
" clip-path="url(#pa423ee4b17)" style="fill: none; stroke: #000000; stroke-width: 2; stroke-linecap: round"/>
   </g>
   <g id="line2d_3">
    <path d="M 134.653125 31.28 
L 134.653125 67.28 
L 143.653125 70.28 
L 125.653125 76.28 
L 143.653125 82.28 
L 125.653125 88.28 
L 143.653125 94.28 
L 125.653125 100.28 
L 134.653125 103.28 
L 134.653125 139.28 
" clip-path="url(#pa423ee4b17)" style="fill: none; stroke: #000000; stroke-width: 2; stroke-linecap: round"/>
   </g>
   <g id="line2d_4">
    <path d="M 134.653125 139.28 
L 134.653125 148.28 
L 134.653125 157.28 
" clip-path="url(#pa423ee4b17)" style="fill: none; stroke: #000000; stroke-width: 2; stroke-linecap: round"/>
   </g>
   <g id="line2d_5">
    <path d="M 134.653125 31.28 
L 170.653125 31.28 
L 173.653125 22.28 
L 179.653125 40.28 
L 185.653125 22.28 
L 191.653125 40.28 
L 197.653125 22.28 
L 203.653125 40.28 
L 206.653125 31.28 
L 242.653125 31.28 
" clip-path="url(#pa423ee4b17)" style="fill: none; stroke: #000000; stroke-width: 2; stroke-linecap: round"/>
   </g>
   <g id="line2d_6">
    <path d="M 260.653125 13.28 
L 260.653125 49.28 
L 269.653125 52.28 
L 251.653125 58.28 
L 269.653125 64.28 
L 251.653125 70.28 
L 269.653125 76.28 
L 251.653125 82.28 
L 260.653125 85.28 
L 260.653125 121.28 
" clip-path="url(#pa423ee4b17)" style="fill: none; stroke: #000000; stroke-width: 2; stroke-linecap: round"/>
   </g>
   <g id="line2d_7">
    <path d="M 260.653125 121.28 
L 260.653125 130.28 
L 260.653125 139.28 
" clip-path="url(#pa423ee4b17)" style="fill: none; stroke: #000000; stroke-width: 2; stroke-linecap: round"/>
   </g>
   <g id="line2d_8">
    <path d="M 260.653125 13.28 
L 278.653125 13.28 
L 296.653125 13.28 
" clip-path="url(#pa423ee4b17)" style="fill: none; stroke: #000000; stroke-width: 2; stroke-linecap: round"/>
   </g>
   <g id="line2d_9">
    <path d="M 296.653125 13.28 
L 296.653125 49.28 
L 305.653125 52.28 
L 287.653125 58.28 
L 305.653125 64.28 
L 287.653125 70.28 
L 305.653125 76.28 
L 287.653125 82.28 
L 296.653125 85.28 
L 296.653125 121.28 
" clip-path="url(#pa423ee4b17)" style="fill: none; stroke: #000000; stroke-width: 2; stroke-linecap: round"/>
   </g>
   <g id="line2d_10">
    <path d="M 296.653125 121.28 
L 296.653125 130.28 
L 296.653125 139.28 
" clip-path="url(#pa423ee4b17)" style="fill: none; stroke: #000000; stroke-width: 2; stroke-linecap: round"/>
   </g>
   <g id="line2d_11">
    <path d="M 296.653125 139.28 
L 260.653125 139.28 
L 224.653125 139.28 
" clip-path="url(#pa423ee4b17)" style="fill: none; stroke: #000000; stroke-width: 2; stroke-linecap: round"/>
   </g>
   <g id="line2d_12">
    <path d="M 224.653125 139.28 
L 224.653125 153.68 
L 215.653125 153.68 
L 233.653125 153.68 
M 218.353125 158 
L 230.953125 158 
M 222.853125 162.32 
L 226.453125 162.32 
" clip-path="url(#pa423ee4b17)" style="fill: none; stroke: #000000; stroke-width: 2; stroke-linecap: round"/>
   </g>
   <g id="line2d_13">
    <path d="M 224.653125 139.28 
L 170.653125 139.28 
L 116.653125 139.28 
" clip-path="url(#pa423ee4b17)" style="fill: none; stroke: #000000; stroke-width: 2; stroke-linecap: round"/>
   </g>
   <g id="line2d_14">
    <path d="M 116.653125 139.28 
L 116.653125 139.28 
L 116.653125 139.28 
" clip-path="url(#pa423ee4b17)" style="fill: none; stroke: #000000; stroke-width: 2; stroke-linecap: round"/>
   </g>
   <g id="text_1">
    <!-- L -->
    <g transform="translate(100.752522 89.143125) scale(0.14 -0.14)">
     <defs>
      <path id="DejaVuSans-4c" d="M 628 4666 
L 1259 4666 
L 1259 531 
L 3531 531 
L 3531 0 
L 628 0 
L 628 4666 
z
" transform="scale(0.015625)"/>
     </defs>
     <use xlink:href="#DejaVuSans-4c"/>
    </g>
   </g>
   <g id="text_2">
    <!-- R₄ -->
    <g transform="translate(106.712187 89.143125) scale(0.14 -0.14)">
     <defs>
      <path id="DejaVuSans-52" d="M 2841 2188 
Q 3044 2119 3236 1894 
Q 3428 1669 3622 1275 
L 4263 0 
L 3584 0 
L 2988 1197 
Q 2756 1666 2539 1819 
Q 2322 1972 1947 1972 
L 1259 1972 
L 1259 0 
L 628 0 
L 628 4666 
L 2053 4666 
Q 2853 4666 3247 4331 
Q 3641 3997 3641 3322 
Q 3641 2881 3436 2590 
Q 3231 2300 2841 2188 
z
M 1259 4147 
L 1259 2491 
L 2053 2491 
Q 2509 2491 2742 2702 
Q 2975 2913 2975 3322 
Q 2975 3731 2742 3939 
Q 2509 4147 2053 4147 
L 1259 4147 
z
" transform="scale(0.015625)"/>
      <path id="DejaVuSans-2084" d="M 1491 2207 
L 525 897 
L 1491 897 
L 1491 2207 
z
M 1422 2585 
L 1941 2585 
L 1941 897 
L 2363 897 
L 2363 557 
L 1941 557 
L 1941 -24 
L 1491 -24 
L 1491 557 
L 197 557 
L 197 935 
L 1422 2585 
z
" transform="scale(0.015625)"/>
     </defs>
     <use xlink:href="#DejaVuSans-52"/>
     <use xlink:href="#DejaVuSans-2084" transform="translate(69.482422 0)"/>
    </g>
   </g>
   <g id="text_3">
    <!-- R₁ -->
    <g transform="translate(180.982656 15.768437) scale(0.14 -0.14)">
     <defs>
      <path id="DejaVuSans-2081" d="M 488 319 
L 1125 319 
L 1125 2229 
L 428 2101 
L 428 2463 
L 1147 2585 
L 1575 2585 
L 1575 319 
L 2216 319 
L 2216 -24 
L 488 -24 
L 488 319 
z
" transform="scale(0.015625)"/>
     </defs>
     <use xlink:href="#DejaVuSans-52"/>
     <use xlink:href="#DejaVuSans-2081" transform="translate(69.482422 0)"/>
    </g>
   </g>
   <g id="text_4">
    <!-- A -->
    <g style="fill: #ff0000" transform="translate(264.253125 17.143125) scale(0.14 -0.14)">
     <defs>
      <path id="DejaVuSans-41" d="M 2188 4044 
L 1331 1722 
L 3047 1722 
L 2188 4044 
z
M 1831 4666 
L 2547 4666 
L 4325 0 
L 3669 0 
L 3244 1197 
L 1141 1197 
L 716 0 
L 50 0 
L 1831 4666 
z
" transform="scale(0.015625)"/>
     </defs>
     <use xlink:href="#DejaVuSans-41"/>
    </g>
   </g>
   <g id="text_5">
    <!-- R₂ -->
    <g transform="translate(232.712187 71.143125) scale(0.14 -0.14)">
     <defs>
      <path id="DejaVuSans-2082" d="M 838 332 
L 2163 332 
L 2163 -24 
L 294 -24 
L 294 319 
Q 400 416 597 591 
Q 1672 1544 1672 1838 
Q 1672 2044 1509 2170 
Q 1347 2297 1081 2297 
Q 919 2297 728 2242 
Q 538 2188 313 2079 
L 313 2463 
Q 553 2551 761 2594 
Q 969 2638 1147 2638 
Q 1600 2638 1872 2432 
Q 2144 2226 2144 1888 
Q 2144 1454 1109 566 
Q 934 416 838 332 
z
" transform="scale(0.015625)"/>
     </defs>
     <use xlink:href="#DejaVuSans-52"/>
     <use xlink:href="#DejaVuSans-2082" transform="translate(69.482422 0)"/>
    </g>
   </g>
   <g id="text_6">
    <!-- R₃ -->
    <g transform="translate(268.712187 71.143125) scale(0.14 -0.14)">
     <defs>
      <path id="DejaVuSans-2083" d="M 1638 1388 
Q 1925 1332 2083 1161 
Q 2241 991 2241 735 
Q 2241 347 1944 138 
Q 1647 -71 1094 -71 
Q 916 -71 720 -38 
Q 525 -6 306 57 
L 306 435 
Q 469 351 655 310 
Q 841 269 1050 269 
Q 1391 269 1578 392 
Q 1766 516 1766 735 
Q 1766 966 1592 1085 
Q 1419 1204 1081 1204 
L 813 1204 
L 813 1541 
L 1106 1541 
Q 1400 1541 1551 1639 
Q 1703 1738 1703 1926 
Q 1703 2107 1547 2202 
Q 1391 2297 1094 2297 
Q 969 2297 809 2269 
Q 650 2241 397 2169 
L 397 2529 
Q 625 2582 825 2610 
Q 1025 2638 1197 2638 
Q 1647 2638 1911 2453 
Q 2175 2269 2175 1960 
Q 2175 1744 2034 1594 
Q 1894 1444 1638 1388 
z
" transform="scale(0.015625)"/>
     </defs>
     <use xlink:href="#DejaVuSans-52"/>
     <use xlink:href="#DejaVuSans-2083" transform="translate(69.482422 0)"/>
    </g>
   </g>
   <g id="text_7">
    <!-- i_L(0) = I₀ -->
    <g style="fill: #0000ff" transform="translate(-0 88.424375) scale(0.12 -0.12)">
     <defs>
      <path id="DejaVuSans-69" d="M 603 3500 
L 1178 3500 
L 1178 0 
L 603 0 
L 603 3500 
z
M 603 4863 
L 1178 4863 
L 1178 4134 
L 603 4134 
L 603 4863 
z
" transform="scale(0.015625)"/>
      <path id="DejaVuSans-5f" d="M 3263 -1063 
L 3263 -1509 
L -63 -1509 
L -63 -1063 
L 3263 -1063 
z
" transform="scale(0.015625)"/>
      <path id="DejaVuSans-28" d="M 1984 4856 
Q 1566 4138 1362 3434 
Q 1159 2731 1159 2009 
Q 1159 1288 1364 580 
Q 1569 -128 1984 -844 
L 1484 -844 
Q 1016 -109 783 600 
Q 550 1309 550 2009 
Q 550 2706 781 3412 
Q 1013 4119 1484 4856 
L 1984 4856 
z
" transform="scale(0.015625)"/>
      <path id="DejaVuSans-30" d="M 2034 4250 
Q 1547 4250 1301 3770 
Q 1056 3291 1056 2328 
Q 1056 1369 1301 889 
Q 1547 409 2034 409 
Q 2525 409 2770 889 
Q 3016 1369 3016 2328 
Q 3016 3291 2770 3770 
Q 2525 4250 2034 4250 
z
M 2034 4750 
Q 2819 4750 3233 4129 
Q 3647 3509 3647 2328 
Q 3647 1150 3233 529 
Q 2819 -91 2034 -91 
Q 1250 -91 836 529 
Q 422 1150 422 2328 
Q 422 3509 836 4129 
Q 1250 4750 2034 4750 
z
" transform="scale(0.015625)"/>
      <path id="DejaVuSans-29" d="M 513 4856 
L 1013 4856 
Q 1481 4119 1714 3412 
Q 1947 2706 1947 2009 
Q 1947 1309 1714 600 
Q 1481 -109 1013 -844 
L 513 -844 
Q 928 -128 1133 580 
Q 1338 1288 1338 2009 
Q 1338 2731 1133 3434 
Q 928 4138 513 4856 
z
" transform="scale(0.015625)"/>
      <path id="DejaVuSans-20" transform="scale(0.015625)"/>
      <path id="DejaVuSans-3d" d="M 678 2906 
L 4684 2906 
L 4684 2381 
L 678 2381 
L 678 2906 
z
M 678 1631 
L 4684 1631 
L 4684 1100 
L 678 1100 
L 678 1631 
z
" transform="scale(0.015625)"/>
      <path id="DejaVuSans-49" d="M 628 4666 
L 1259 4666 
L 1259 0 
L 628 0 
L 628 4666 
z
" transform="scale(0.015625)"/>
      <path id="DejaVuSans-2080" d="M 1781 2091 
Q 1625 2360 1309 2360 
Q 994 2360 838 2091 
Q 678 1822 678 1285 
Q 678 744 838 476 
Q 994 207 1309 207 
Q 1625 207 1781 476 
Q 1941 744 1941 1285 
Q 1941 1822 1781 2091 
z
M 1309 2638 
Q 1813 2638 2078 2291 
Q 2344 1944 2344 1285 
Q 2344 622 2078 275 
Q 1813 -71 1309 -71 
Q 803 -71 537 275 
Q 272 622 272 1285 
Q 272 1944 537 2291 
Q 803 2638 1309 2638 
z
" transform="scale(0.015625)"/>
     </defs>
     <use xlink:href="#DejaVuSans-69"/>
     <use xlink:href="#DejaVuSans-5f" transform="translate(27.783203 0)"/>
     <use xlink:href="#DejaVuSans-4c" transform="translate(77.783203 0)"/>
     <use xlink:href="#DejaVuSans-28" transform="translate(133.496094 0)"/>
     <use xlink:href="#DejaVuSans-30" transform="translate(172.509766 0)"/>
     <use xlink:href="#DejaVuSans-29" transform="translate(236.132812 0)"/>
     <use xlink:href="#DejaVuSans-20" transform="translate(275.146484 0)"/>
     <use xlink:href="#DejaVuSans-3d" transform="translate(306.933594 0)"/>
     <use xlink:href="#DejaVuSans-20" transform="translate(390.722656 0)"/>
     <use xlink:href="#DejaVuSans-49" transform="translate(422.509766 0)"/>
     <use xlink:href="#DejaVuSans-2080" transform="translate(452.001953 0)"/>
    </g>
   </g>
   <g id="patch_10">
    <path d="M 134.653125 33.98 
C 135.369173 33.98 136.055991 33.695511 136.562313 33.189188 
C 137.068636 32.682866 137.353125 31.996048 137.353125 31.28 
C 137.353125 30.563952 137.068636 29.877134 136.562313 29.370812 
C 136.055991 28.864489 135.369173 28.58 134.653125 28.58 
C 133.937077 28.58 133.250259 28.864489 132.743937 29.370812 
C 132.237614 29.877134 131.953125 30.563952 131.953125 31.28 
C 131.953125 31.996048 132.237614 32.682866 132.743937 33.189188 
C 133.250259 33.695511 133.937077 33.98 134.653125 33.98 
z
" clip-path="url(#pa423ee4b17)" style="stroke: #000000; stroke-width: 2; stroke-linejoin: miter"/>
   </g>
   <g id="patch_11">
    <path d="M 242.653125 33.98 
C 243.369173 33.98 244.055991 33.695511 244.562313 33.189188 
C 245.068636 32.682866 245.353125 31.996048 245.353125 31.28 
C 245.353125 30.563952 245.068636 29.877134 244.562313 29.370812 
C 244.055991 28.864489 243.369173 28.58 242.653125 28.58 
C 241.937077 28.58 241.250259 28.864489 240.743937 29.370812 
C 240.237614 29.877134 239.953125 30.563952 239.953125 31.28 
C 239.953125 31.996048 240.237614 32.682866 240.743937 33.189188 
C 241.250259 33.695511 241.937077 33.98 242.653125 33.98 
z
" clip-path="url(#pa423ee4b17)" style="stroke: #000000; stroke-width: 2; stroke-linejoin: miter"/>
   </g>
   <g id="line2d_15">
    <path d="M 116.653125 70.88 
L 116.653125 70.88 
" clip-path="url(#pa423ee4b17)" style="fill: none; stroke: #000000; stroke-width: 2; stroke-linecap: round"/>
   </g>
   <g id="patch_12">
    <path d="M 111.253125 70.88 
L 116.653125 60.08 
L 122.053125 70.88 
z
" clip-path="url(#pa423ee4b17)"/>
   </g>
   <g id="text_8">
    <!-- i_L(t) -->
    <g transform="translate(73.257656 68.886406) scale(0.13 -0.13)">
     <defs>
      <path id="DejaVuSans-74" d="M 1172 4494 
L 1172 3500 
L 2356 3500 
L 2356 3053 
L 1172 3053 
L 1172 1153 
Q 1172 725 1289 603 
Q 1406 481 1766 481 
L 2356 481 
L 2356 0 
L 1766 0 
Q 1100 0 847 248 
Q 594 497 594 1153 
L 594 3053 
L 172 3053 
L 172 3500 
L 594 3500 
L 594 4494 
L 1172 4494 
z
" transform="scale(0.015625)"/>
     </defs>
     <use xlink:href="#DejaVuSans-69"/>
     <use xlink:href="#DejaVuSans-5f" transform="translate(27.783203 0)"/>
     <use xlink:href="#DejaVuSans-4c" transform="translate(77.783203 0)"/>
     <use xlink:href="#DejaVuSans-28" transform="translate(133.496094 0)"/>
     <use xlink:href="#DejaVuSans-74" transform="translate(172.509766 0)"/>
     <use xlink:href="#DejaVuSans-29" transform="translate(211.71875 0)"/>
    </g>
   </g>
  </g>
 </g>
 <defs>
  <clipPath id="pa423ee4b17">
   <rect x="1.381125" y="-0" width="308.952" height="167"/>
  </clipPath>
 </defs>
</svg>
