<svg xmlns="http://www.w3.org/2000/svg" viewBox="0 0 540 340" preserveAspectRatio="xMidYMid meet" role="img" aria-label="First-order circuit with capacitor and four-resistor discharge network">
  <title>First-Order RC Circuit with T-Network Discharge</title>
  <style>
    text { font-family: 'Segoe UI', Arial, Helvetica, sans-serif; }
    .comp-label { font-size: 16px; font-weight: bold; fill: #0055aa; }
    .polarity { font-size: 14px; fill: #333; }
    .wire { stroke: #333; stroke-width: 2.5; fill: none; }
    .component { stroke: #333; stroke-width: 2.5; fill: none; }
    .ref-dir { stroke: #cc0000; stroke-width: 1.8; fill: none; }
    .node-dot { fill: #cc0000; stroke: none; }
    .node-label { font-size: 15px; fill: #cc0000; font-weight: bold; }
    .ic-text { font-size: 15px; fill: #8B0000; font-weight: bold; }
  </style>
  <defs>
    <marker id="cur-q3v4" markerWidth="8" markerHeight="6" refX="8" refY="3" orient="auto">
      <polygon points="0 0, 8 3, 0 6" fill="#cc0000"/>
    </marker>
  </defs>

  <!-- ===== CAPACITOR (vertical, left side) from X to GND ===== -->
  <line x1="80" y1="90" x2="80" y2="145" class="wire"/>
  <line x1="60" y1="145" x2="100" y2="145" stroke="#333" stroke-width="3"/>
  <line x1="60" y1="165" x2="100" y2="165" stroke="#333" stroke-width="3"/>
  <text x="48" y="160" text-anchor="end" class="comp-label">C</text>
  <line x1="80" y1="165" x2="80" y2="280" class="wire"/>

  <!-- Polarity across C -->
  <text x="105" y="140" class="polarity">+</text>
  <text x="105" y="178" class="polarity">−</text>

  <!-- ===== Node X (top of capacitor) ===== -->
  <circle cx="80" cy="90" r="5" class="node-dot"/>
  <text x="80" y="75" text-anchor="middle" class="node-label">X</text>

  <!-- ===== R1 (horizontal, from X to node A) ===== -->
  <line x1="80" y1="90" x2="140" y2="90" class="wire"/>
  <rect x="140" y="80" width="80" height="20" class="component" rx="3"/>
  <text x="180" y="72" text-anchor="middle" class="comp-label">R₁</text>
  <line x1="220" y1="90" x2="290" y2="90" class="wire"/>

  <!-- ===== Node A ===== -->
  <circle cx="290" cy="90" r="5" class="node-dot"/>
  <text x="290" y="75" text-anchor="middle" class="node-label">A</text>

  <!-- ===== R3 (vertical, from A to GND) ===== -->
  <line x1="290" y1="90" x2="290" y2="110" class="wire"/>
  <rect x="280" y="110" width="20" height="80" class="component" rx="3"/>
  <text x="265" y="155" text-anchor="end" class="comp-label">R₃</text>
  <line x1="290" y1="190" x2="290" y2="280" class="wire"/>

  <!-- ===== R2 (horizontal, from A to node B) ===== -->
  <line x1="290" y1="90" x2="340" y2="90" class="wire"/>
  <rect x="340" y="80" width="80" height="20" class="component" rx="3"/>
  <text x="380" y="72" text-anchor="middle" class="comp-label">R₂</text>
  <line x1="420" y1="90" x2="470" y2="90" class="wire"/>

  <!-- ===== Node B ===== -->
  <circle cx="470" cy="90" r="5" class="node-dot"/>
  <text x="470" y="75" text-anchor="middle" class="node-label">B</text>

  <!-- ===== R4 (vertical, from B to GND) ===== -->
  <line x1="470" y1="90" x2="470" y2="110" class="wire"/>
  <rect x="460" y="110" width="20" height="80" class="component" rx="3"/>
  <text x="490" y="155" class="comp-label">R₄</text>
  <line x1="470" y1="190" x2="470" y2="280" class="wire"/>

  <!-- ===== BOTTOM RAIL (GND) ===== -->
  <line x1="80" y1="280" x2="470" y2="280" class="wire"/>

  <!-- ===== Ground symbol ===== -->
  <line x1="275" y1="280" x2="285" y2="280" stroke="#333" stroke-width="4"/>
  <line x1="277" y1="287" x2="283" y2="287" stroke="#333" stroke-width="3"/>
  <line x1="279" y1="294" x2="281" y2="294" stroke="#333" stroke-width="2"/>

  <!-- ===== Current arrow ===== -->
  <line x1="100" y1="78" x2="135" y2="78" class="ref-dir" marker-end="url(#cur-q3v4)"/>
  <text x="118" y="70" text-anchor="middle" style="font-size:13px; fill:#cc0000; font-weight:bold;">i(t)</text>

  <!-- ===== Initial condition ===== -->
  <rect x="30" y="305" width="220" height="30" rx="6" fill="#fff0f0" stroke="#8B0000" stroke-width="1.2"/>
  <text x="140" y="325" text-anchor="middle" class="ic-text">v_C(0) = V₀ (given)</text>
</svg>
