<?xml version="1.0" encoding="utf-8" standalone="no"?>
<!DOCTYPE svg PUBLIC "-//W3C//DTD SVG 1.1//EN"
  "http://www.w3.org/Graphics/SVG/1.1/DTD/svg11.dtd">
<svg xmlns:xlink="http://www.w3.org/1999/xlink" width="431.514pt" height="193.96pt" viewBox="0 0 431.514 193.96" xmlns="http://www.w3.org/2000/svg" version="1.1">
 <metadata>
  <rdf:RDF xmlns:dc="http://purl.org/dc/elements/1.1/" xmlns:cc="http://creativecommons.org/ns#" xmlns:rdf="http://www.w3.org/1999/02/22-rdf-syntax-ns#">
   <cc:Work>
    <dc:type rdf:resource="http://purl.org/dc/dcmitype/StillImage"/>
    <dc:date>2026-03-06T09:07:43.102049</dc:date>
    <dc:format>image/svg+xml</dc:format>
    <dc:creator>
     <cc:Agent>
      <dc:title>Matplotlib v3.10.8, https://matplotlib.org/</dc:title>
     </cc:Agent>
    </dc:creator>
   </cc:Work>
  </rdf:RDF>
 </metadata>
 <defs>
  <style type="text/css">*{stroke-linejoin: round; stroke-linecap: butt}</style>
 </defs>
 <g id="figure_1">
  <g id="patch_1">
   <path d="M 0 193.96 
L 431.514 193.96 
L 431.514 0 
L 0 0 
L 0 193.96 
z
" style="fill: none"/>
  </g>
  <g id="axes_1">
   <g id="patch_2">
    <path d="M 48.834 139.28 
C 53.607656 139.28 58.186438 137.383406 61.561922 134.007922 
C 64.937406 130.632438 66.834 126.053656 66.834 121.28 
C 66.834 116.506344 64.937406 111.927562 61.561922 108.552078 
C 58.186438 105.176594 53.607656 103.28 48.834 103.28 
C 44.060344 103.28 39.481562 105.176594 36.106078 108.552078 
C 32.730594 111.927562 30.834 116.506344 30.834 121.28 
C 30.834 126.053656 32.730594 130.632438 36.106078 134.007922 
C 39.481562 137.383406 44.060344 139.28 48.834 139.28 
L 48.834 139.28 
z
" clip-path="url(#pbe2964f58e)" style="fill: none; stroke: #000000; stroke-width: 2; stroke-linejoin: miter"/>
   </g>
   <g id="patch_3">
    <path d="M 175.998686 62.933334 
C 178.328057 54.240001 179.334 49.28 192.834 49.28 
" clip-path="url(#pbe2964f58e)" style="fill: none; stroke: #000000; stroke-width: 2; stroke-linejoin: miter; stroke-linecap: round"/>
   </g>
   <g id="patch_4">
    <path d="M 180.640704 59.518416 
L 174.834 67.28 
L 173.686038 57.654919 
z
" clip-path="url(#pbe2964f58e)"/>
   </g>
   <g id="patch_5">
    <path d="M 301.998686 44.933334 
C 304.328057 36.240001 305.334 31.28 318.834 31.28 
" clip-path="url(#pbe2964f58e)" style="fill: none; stroke: #000000; stroke-width: 2; stroke-linejoin: miter; stroke-linecap: round"/>
   </g>
   <g id="patch_6">
    <path d="M 306.640704 41.518416 
L 300.834 49.28 
L 299.686038 39.654919 
z
" clip-path="url(#pbe2964f58e)"/>
   </g>
   <g id="line2d_1">
    <path d="M 48.834 175.28 
L 48.834 139.28 
L 48.834 139.28 
M 48.834 103.28 
L 48.834 103.28 
L 48.834 67.28 
" clip-path="url(#pbe2964f58e)" style="fill: none; stroke: #000000; stroke-width: 2; stroke-linecap: round"/>
   </g>
   <g id="line2d_2">
    <path d="M 52.434 130.28 
L 45.234 130.28 
" clip-path="url(#pbe2964f58e)" style="fill: none; stroke: #000000; stroke-width: 2; stroke-linecap: round"/>
   </g>
   <g id="line2d_3">
    <path d="M 48.834 115.88 
L 48.834 108.68 
" clip-path="url(#pbe2964f58e)" style="fill: none; stroke: #000000; stroke-width: 2; stroke-linecap: round"/>
   </g>
   <g id="line2d_4">
    <path d="M 52.434 112.28 
L 45.234 112.28 
" clip-path="url(#pbe2964f58e)" style="fill: none; stroke: #000000; stroke-width: 2; stroke-linecap: round"/>
   </g>
   <g id="line2d_5">
    <path d="M 48.834 67.28 
L 57.834 67.28 
L 66.834 67.28 
" clip-path="url(#pbe2964f58e)" style="fill: none; stroke: #000000; stroke-width: 2; stroke-linecap: round"/>
   </g>
   <g id="line2d_6">
    <path d="M 66.834 67.28 
L 102.834 67.28 
L 105.834 58.28 
L 111.834 76.28 
L 117.834 58.28 
L 123.834 76.28 
L 129.834 58.28 
L 135.834 76.28 
L 138.834 67.28 
L 174.834 67.28 
" clip-path="url(#pbe2964f58e)" style="fill: none; stroke: #000000; stroke-width: 2; stroke-linecap: round"/>
   </g>
   <g id="line2d_7">
    <path d="M 192.834 49.28 
L 192.834 85.28 
L 201.834 88.28 
L 183.834 94.28 
L 201.834 100.28 
L 183.834 106.28 
L 201.834 112.28 
L 183.834 118.28 
L 192.834 121.28 
L 192.834 157.28 
" clip-path="url(#pbe2964f58e)" style="fill: none; stroke: #000000; stroke-width: 2; stroke-linecap: round"/>
   </g>
   <g id="line2d_8">
    <path d="M 192.834 157.28 
L 192.834 166.28 
L 192.834 175.28 
" clip-path="url(#pbe2964f58e)" style="fill: none; stroke: #000000; stroke-width: 2; stroke-linecap: round"/>
   </g>
   <g id="line2d_9">
    <path d="M 192.834 49.28 
L 243.594 49.28 
M 243.594 40.28 
L 243.594 58.28 
M 250.074 40.28 
L 250.074 58.28 
M 250.074 49.28 
L 300.834 49.28 
" clip-path="url(#pbe2964f58e)" style="fill: none; stroke: #000000; stroke-width: 2; stroke-linecap: round"/>
   </g>
   <g id="line2d_10">
    <path d="M 318.834 31.28 
L 318.834 67.28 
L 327.834 70.28 
L 309.834 76.28 
L 327.834 82.28 
L 309.834 88.28 
L 327.834 94.28 
L 309.834 100.28 
L 318.834 103.28 
L 318.834 139.28 
" clip-path="url(#pbe2964f58e)" style="fill: none; stroke: #000000; stroke-width: 2; stroke-linecap: round"/>
   </g>
   <g id="line2d_11">
    <path d="M 318.834 139.28 
L 318.834 148.28 
L 318.834 157.28 
" clip-path="url(#pbe2964f58e)" style="fill: none; stroke: #000000; stroke-width: 2; stroke-linecap: round"/>
   </g>
   <g id="line2d_12">
    <path d="M 318.834 31.28 
L 354.834 31.28 
L 357.834 22.28 
L 363.834 40.28 
L 369.834 22.28 
L 375.834 40.28 
L 381.834 22.28 
L 387.834 40.28 
L 390.834 31.28 
L 426.834 31.28 
" clip-path="url(#pbe2964f58e)" style="fill: none; stroke: #000000; stroke-width: 2; stroke-linecap: round"/>
   </g>
   <g id="line2d_13">
    <path d="M 426.834 31.28 
L 426.834 85.28 
L 426.834 139.28 
" clip-path="url(#pbe2964f58e)" style="fill: none; stroke: #000000; stroke-width: 2; stroke-linecap: round"/>
   </g>
   <g id="line2d_14">
    <path d="M 426.834 139.28 
L 390.834 139.28 
L 354.834 139.28 
" clip-path="url(#pbe2964f58e)" style="fill: none; stroke: #000000; stroke-width: 2; stroke-linecap: round"/>
   </g>
   <g id="line2d_15">
    <path d="M 354.834 139.28 
L 354.834 153.68 
L 345.834 153.68 
L 363.834 153.68 
M 348.534 158 
L 361.134 158 
M 353.034 162.32 
L 356.634 162.32 
" clip-path="url(#pbe2964f58e)" style="fill: none; stroke: #000000; stroke-width: 2; stroke-linecap: round"/>
   </g>
   <g id="line2d_16">
    <path d="M 354.834 139.28 
L 201.834 139.28 
L 48.834 139.28 
" clip-path="url(#pbe2964f58e)" style="fill: none; stroke: #000000; stroke-width: 2; stroke-linecap: round"/>
   </g>
   <g id="line2d_17">
    <path d="M 48.834 139.28 
L 48.834 121.28 
L 48.834 103.28 
" clip-path="url(#pbe2964f58e)" style="fill: none; stroke: #000000; stroke-width: 2; stroke-linecap: round"/>
   </g>
   <g id="text_1">
    <!-- Vs·u(t) -->
    <g transform="translate(3.931656 185.917813) scale(0.14 -0.14)">
     <defs>
      <path id="DejaVuSans-56" d="M 1831 0 
L 50 4666 
L 709 4666 
L 2188 738 
L 3669 4666 
L 4325 4666 
L 2547 0 
L 1831 0 
z
" transform="scale(0.015625)"/>
      <path id="DejaVuSans-73" d="M 2834 3397 
L 2834 2853 
Q 2591 2978 2328 3040 
Q 2066 3103 1784 3103 
Q 1356 3103 1142 2972 
Q 928 2841 928 2578 
Q 928 2378 1081 2264 
Q 1234 2150 1697 2047 
L 1894 2003 
Q 2506 1872 2764 1633 
Q 3022 1394 3022 966 
Q 3022 478 2636 193 
Q 2250 -91 1575 -91 
Q 1294 -91 989 -36 
Q 684 19 347 128 
L 347 722 
Q 666 556 975 473 
Q 1284 391 1588 391 
Q 1994 391 2212 530 
Q 2431 669 2431 922 
Q 2431 1156 2273 1281 
Q 2116 1406 1581 1522 
L 1381 1569 
Q 847 1681 609 1914 
Q 372 2147 372 2553 
Q 372 3047 722 3315 
Q 1072 3584 1716 3584 
Q 2034 3584 2315 3537 
Q 2597 3491 2834 3397 
z
" transform="scale(0.015625)"/>
      <path id="DejaVuSans-b7" d="M 684 2619 
L 1344 2619 
L 1344 1825 
L 684 1825 
L 684 2619 
z
" transform="scale(0.015625)"/>
      <path id="DejaVuSans-75" d="M 544 1381 
L 544 3500 
L 1119 3500 
L 1119 1403 
Q 1119 906 1312 657 
Q 1506 409 1894 409 
Q 2359 409 2629 706 
Q 2900 1003 2900 1516 
L 2900 3500 
L 3475 3500 
L 3475 0 
L 2900 0 
L 2900 538 
Q 2691 219 2414 64 
Q 2138 -91 1772 -91 
Q 1169 -91 856 284 
Q 544 659 544 1381 
z
M 1991 3584 
L 1991 3584 
z
" transform="scale(0.015625)"/>
      <path id="DejaVuSans-28" d="M 1984 4856 
Q 1566 4138 1362 3434 
Q 1159 2731 1159 2009 
Q 1159 1288 1364 580 
Q 1569 -128 1984 -844 
L 1484 -844 
Q 1016 -109 783 600 
Q 550 1309 550 2009 
Q 550 2706 781 3412 
Q 1013 4119 1484 4856 
L 1984 4856 
z
" transform="scale(0.015625)"/>
      <path id="DejaVuSans-74" d="M 1172 4494 
L 1172 3500 
L 2356 3500 
L 2356 3053 
L 1172 3053 
L 1172 1153 
Q 1172 725 1289 603 
Q 1406 481 1766 481 
L 2356 481 
L 2356 0 
L 1766 0 
Q 1100 0 847 248 
Q 594 497 594 1153 
L 594 3053 
L 172 3053 
L 172 3500 
L 594 3500 
L 594 4494 
L 1172 4494 
z
" transform="scale(0.015625)"/>
      <path id="DejaVuSans-29" d="M 513 4856 
L 1013 4856 
Q 1481 4119 1714 3412 
Q 1947 2706 1947 2009 
Q 1947 1309 1714 600 
Q 1481 -109 1013 -844 
L 513 -844 
Q 928 -128 1133 580 
Q 1338 1288 1338 2009 
Q 1338 2731 1133 3434 
Q 928 4138 513 4856 
z
" transform="scale(0.015625)"/>
     </defs>
     <use xlink:href="#DejaVuSans-56"/>
     <use xlink:href="#DejaVuSans-73" transform="translate(68.408203 0)"/>
     <use xlink:href="#DejaVuSans-b7" transform="translate(120.507812 0)"/>
     <use xlink:href="#DejaVuSans-75" transform="translate(152.294922 0)"/>
     <use xlink:href="#DejaVuSans-28" transform="translate(215.673828 0)"/>
     <use xlink:href="#DejaVuSans-74" transform="translate(254.6875 0)"/>
     <use xlink:href="#DejaVuSans-29" transform="translate(293.896484 0)"/>
    </g>
   </g>
   <g id="text_2">
    <!-- R₁ -->
    <g transform="translate(113.163531 51.768438) scale(0.14 -0.14)">
     <defs>
      <path id="DejaVuSans-52" d="M 2841 2188 
Q 3044 2119 3236 1894 
Q 3428 1669 3622 1275 
L 4263 0 
L 3584 0 
L 2988 1197 
Q 2756 1666 2539 1819 
Q 2322 1972 1947 1972 
L 1259 1972 
L 1259 0 
L 628 0 
L 628 4666 
L 2053 4666 
Q 2853 4666 3247 4331 
Q 3641 3997 3641 3322 
Q 3641 2881 3436 2590 
Q 3231 2300 2841 2188 
z
M 1259 4147 
L 1259 2491 
L 2053 2491 
Q 2509 2491 2742 2702 
Q 2975 2913 2975 3322 
Q 2975 3731 2742 3939 
Q 2509 4147 2053 4147 
L 1259 4147 
z
" transform="scale(0.015625)"/>
      <path id="DejaVuSans-2081" d="M 488 319 
L 1125 319 
L 1125 2229 
L 428 2101 
L 428 2463 
L 1147 2585 
L 1575 2585 
L 1575 319 
L 2216 319 
L 2216 -24 
L 488 -24 
L 488 319 
z
" transform="scale(0.015625)"/>
     </defs>
     <use xlink:href="#DejaVuSans-52"/>
     <use xlink:href="#DejaVuSans-2081" transform="translate(69.482422 0)"/>
    </g>
   </g>
   <g id="text_3">
    <!-- A -->
    <g style="fill: #ff0000" transform="translate(196.434 53.143125) scale(0.14 -0.14)">
     <defs>
      <path id="DejaVuSans-41" d="M 2188 4044 
L 1331 1722 
L 3047 1722 
L 2188 4044 
z
M 1831 4666 
L 2547 4666 
L 4325 0 
L 3669 0 
L 3244 1197 
L 1141 1197 
L 716 0 
L 50 0 
L 1831 4666 
z
" transform="scale(0.015625)"/>
     </defs>
     <use xlink:href="#DejaVuSans-41"/>
    </g>
   </g>
   <g id="text_4">
    <!-- R₂ -->
    <g transform="translate(206.763531 46.368437) scale(0.14 -0.14)">
     <defs>
      <path id="DejaVuSans-2082" d="M 838 332 
L 2163 332 
L 2163 -24 
L 294 -24 
L 294 319 
Q 400 416 597 591 
Q 1672 1544 1672 1838 
Q 1672 2044 1509 2170 
Q 1347 2297 1081 2297 
Q 919 2297 728 2242 
Q 538 2188 313 2079 
L 313 2463 
Q 553 2551 761 2594 
Q 969 2638 1147 2638 
Q 1600 2638 1872 2432 
Q 2144 2226 2144 1888 
Q 2144 1454 1109 566 
Q 934 416 838 332 
z
" transform="scale(0.015625)"/>
     </defs>
     <use xlink:href="#DejaVuSans-52"/>
     <use xlink:href="#DejaVuSans-2082" transform="translate(69.482422 0)"/>
    </g>
   </g>
   <g id="text_5">
    <!-- C -->
    <g transform="translate(241.946031 33.768438) scale(0.14 -0.14)">
     <defs>
      <path id="DejaVuSans-43" d="M 4122 4306 
L 4122 3641 
Q 3803 3938 3442 4084 
Q 3081 4231 2675 4231 
Q 1875 4231 1450 3742 
Q 1025 3253 1025 2328 
Q 1025 1406 1450 917 
Q 1875 428 2675 428 
Q 3081 428 3442 575 
Q 3803 722 4122 1019 
L 4122 359 
Q 3791 134 3420 21 
Q 3050 -91 2638 -91 
Q 1578 -91 968 557 
Q 359 1206 359 2328 
Q 359 3453 968 4101 
Q 1578 4750 2638 4750 
Q 3056 4750 3426 4639 
Q 3797 4528 4122 4306 
z
" transform="scale(0.015625)"/>
     </defs>
     <use xlink:href="#DejaVuSans-43"/>
    </g>
   </g>
   <g id="text_6">
    <!-- B -->
    <g style="fill: #ff0000" transform="translate(322.434 35.143125) scale(0.14 -0.14)">
     <defs>
      <path id="DejaVuSans-42" d="M 1259 2228 
L 1259 519 
L 2272 519 
Q 2781 519 3026 730 
Q 3272 941 3272 1375 
Q 3272 1813 3026 2020 
Q 2781 2228 2272 2228 
L 1259 2228 
z
M 1259 4147 
L 1259 2741 
L 2194 2741 
Q 2656 2741 2882 2914 
Q 3109 3088 3109 3444 
Q 3109 3797 2882 3972 
Q 2656 4147 2194 4147 
L 1259 4147 
z
M 628 4666 
L 2241 4666 
Q 2963 4666 3353 4366 
Q 3744 4066 3744 3513 
Q 3744 3084 3544 2831 
Q 3344 2578 2956 2516 
Q 3422 2416 3680 2098 
Q 3938 1781 3938 1306 
Q 3938 681 3513 340 
Q 3088 0 2303 0 
L 628 0 
L 628 4666 
z
" transform="scale(0.015625)"/>
     </defs>
     <use xlink:href="#DejaVuSans-42"/>
    </g>
   </g>
   <g id="text_7">
    <!-- R₄ -->
    <g transform="translate(332.763531 28.368437) scale(0.14 -0.14)">
     <defs>
      <path id="DejaVuSans-2084" d="M 1491 2207 
L 525 897 
L 1491 897 
L 1491 2207 
z
M 1422 2585 
L 1941 2585 
L 1941 897 
L 2363 897 
L 2363 557 
L 1941 557 
L 1941 -24 
L 1491 -24 
L 1491 557 
L 197 557 
L 197 935 
L 1422 2585 
z
" transform="scale(0.015625)"/>
     </defs>
     <use xlink:href="#DejaVuSans-52"/>
     <use xlink:href="#DejaVuSans-2084" transform="translate(69.482422 0)"/>
    </g>
   </g>
   <g id="text_8">
    <!-- R₃ -->
    <g transform="translate(365.163531 15.768438) scale(0.14 -0.14)">
     <defs>
      <path id="DejaVuSans-2083" d="M 1638 1388 
Q 1925 1332 2083 1161 
Q 2241 991 2241 735 
Q 2241 347 1944 138 
Q 1647 -71 1094 -71 
Q 916 -71 720 -38 
Q 525 -6 306 57 
L 306 435 
Q 469 351 655 310 
Q 841 269 1050 269 
Q 1391 269 1578 392 
Q 1766 516 1766 735 
Q 1766 966 1592 1085 
Q 1419 1204 1081 1204 
L 813 1204 
L 813 1541 
L 1106 1541 
Q 1400 1541 1551 1639 
Q 1703 1738 1703 1926 
Q 1703 2107 1547 2202 
Q 1391 2297 1094 2297 
Q 969 2297 809 2269 
Q 650 2241 397 2169 
L 397 2529 
Q 625 2582 825 2610 
Q 1025 2638 1197 2638 
Q 1647 2638 1911 2453 
Q 2175 2269 2175 1960 
Q 2175 1744 2034 1594 
Q 1894 1444 1638 1388 
z
" transform="scale(0.015625)"/>
     </defs>
     <use xlink:href="#DejaVuSans-52"/>
     <use xlink:href="#DejaVuSans-2083" transform="translate(69.482422 0)"/>
    </g>
   </g>
   <g id="patch_7">
    <path d="M 174.834 69.98 
C 175.550048 69.98 176.236866 69.695511 176.743188 69.189188 
C 177.249511 68.682866 177.534 67.996048 177.534 67.28 
C 177.534 66.563952 177.249511 65.877134 176.743188 65.370812 
C 176.236866 64.864489 175.550048 64.58 174.834 64.58 
C 174.117952 64.58 173.431134 64.864489 172.924812 65.370812 
C 172.418489 65.877134 172.134 66.563952 172.134 67.28 
C 172.134 67.996048 172.418489 68.682866 172.924812 69.189188 
C 173.431134 69.695511 174.117952 69.98 174.834 69.98 
z
" clip-path="url(#pbe2964f58e)" style="stroke: #000000; stroke-width: 2; stroke-linejoin: miter"/>
   </g>
   <g id="patch_8">
    <path d="M 300.834 51.98 
C 301.550048 51.98 302.236866 51.695511 302.743188 51.189188 
C 303.249511 50.682866 303.534 49.996048 303.534 49.28 
C 303.534 48.563952 303.249511 47.877134 302.743188 47.370812 
C 302.236866 46.864489 301.550048 46.58 300.834 46.58 
C 300.117952 46.58 299.431134 46.864489 298.924812 47.370812 
C 298.418489 47.877134 298.134 48.563952 298.134 49.28 
C 298.134 49.996048 298.418489 50.682866 298.924812 51.189188 
C 299.431134 51.695511 300.117952 51.98 300.834 51.98 
z
" clip-path="url(#pbe2964f58e)" style="stroke: #000000; stroke-width: 2; stroke-linejoin: miter"/>
   </g>
  </g>
 </g>
 <defs>
  <clipPath id="pbe2964f58e">
   <rect x="0" y="0" width="431.514" height="193.96"/>
  </clipPath>
 </defs>
</svg>
