<svg xmlns="http://www.w3.org/2000/svg" viewBox="0 0 580 310" preserveAspectRatio="xMidYMid meet" role="img" aria-label="First-order circuit with voltage source, three resistors, and inductor">
  <title>First-Order RL Circuit with Resistor Network</title>
  <style>
    text { font-family: 'Segoe UI', Arial, Helvetica, sans-serif; }
    .comp-label { font-size: 16px; font-weight: bold; fill: #0055aa; }
    .annotation { font-size: 14px; fill: #666; }
    .polarity { font-size: 14px; fill: #333; }
    .wire { stroke: #333; stroke-width: 2.5; fill: none; }
    .component { stroke: #333; stroke-width: 2.5; fill: none; }
    .ref-dir { stroke: #cc0000; stroke-width: 1.8; fill: none; }
    .node-dot { fill: #cc0000; stroke: none; }
    .node-label { font-size: 15px; fill: #cc0000; font-weight: bold; }
  </style>
  <defs>
    <marker id="cur-q3v1" markerWidth="8" markerHeight="6" refX="8" refY="3" orient="auto">
      <polygon points="0 0, 8 3, 0 6" fill="#cc0000"/>
    </marker>
  </defs>

  <!-- ===== TOP RAIL ===== -->
  <!-- Wire from Vs+ to R1 -->
  <line x1="70" y1="100" x2="130" y2="100" class="wire"/>

  <!-- R1 (horizontal) -->
  <rect x="130" y="90" width="90" height="20" class="component" rx="3"/>
  <text x="175" y="82" text-anchor="middle" class="comp-label">R₁</text>

  <!-- Wire from R1 to node A -->
  <line x1="220" y1="100" x2="280" y2="100" class="wire"/>

  <!-- Node A -->
  <circle cx="280" cy="100" r="5" class="node-dot"/>
  <text x="280" y="80" text-anchor="middle" class="node-label">A</text>

  <!-- R3 (horizontal, from A to B) -->
  <line x1="280" y1="100" x2="330" y2="100" class="wire"/>
  <rect x="330" y="90" width="90" height="20" class="component" rx="3"/>
  <text x="375" y="82" text-anchor="middle" class="comp-label">R₃</text>
  <line x1="420" y1="100" x2="480" y2="100" class="wire"/>

  <!-- Node B -->
  <circle cx="480" cy="100" r="5" class="node-dot"/>
  <text x="480" y="80" text-anchor="middle" class="node-label">B</text>

  <!-- ===== R2 (vertical, from node A to ground) ===== -->
  <line x1="280" y1="100" x2="280" y2="130" class="wire"/>
  <rect x="270" y="130" width="20" height="80" class="component" rx="3"/>
  <text x="252" y="175" text-anchor="end" class="comp-label">R₂</text>
  <line x1="280" y1="210" x2="280" y2="280" class="wire"/>

  <!-- ===== L (vertical, from node B to ground) ===== -->
  <line x1="480" y1="100" x2="480" y2="125" class="wire"/>
  <!-- Inductor coils -->
  <path d="M 480,125 C 480,135 497,135 497,145 C 497,155 480,155 480,165 C 480,175 497,175 497,185 C 497,195 480,195 480,205 C 480,215 497,215 497,225" class="component" fill="none"/>
  <text x="510" y="180" class="comp-label">L</text>
  <line x1="480" y1="225" x2="480" y2="280" class="wire"/>

  <!-- Voltage polarity across L -->
  <text x="462" y="140" class="polarity">+</text>
  <text x="462" y="218" class="polarity">−</text>

  <!-- ===== BOTTOM RAIL ===== -->
  <line x1="70" y1="280" x2="480" y2="280" class="wire"/>

  <!-- ===== Vs SOURCE (left side, vertical) ===== -->
  <line x1="70" y1="100" x2="70" y2="150" class="wire"/>
  <circle cx="70" cy="190" r="28" class="component"/>
  <text x="62" y="184" class="polarity">+</text>
  <text x="64" y="206" class="polarity">−</text>
  <text x="22" y="195" text-anchor="end" class="comp-label">V_s</text>
  <line x1="70" y1="218" x2="70" y2="280" class="wire"/>
  <text x="70" y="252" text-anchor="middle" class="annotation">u(t)</text>

  <!-- ===== Current arrow (top rail) ===== -->
  <line x1="95" y1="88" x2="125" y2="88" class="ref-dir" marker-end="url(#cur-q3v1)"/>
  <text x="110" y="80" text-anchor="middle" style="font-size:13px; fill:#cc0000; font-weight:bold;">i(t)</text>

  <!-- ===== Ground symbol ===== -->
  <line x1="270" y1="280" x2="290" y2="280" stroke="#333" stroke-width="4"/>
  <line x1="273" y1="287" x2="287" y2="287" stroke="#333" stroke-width="3"/>
  <line x1="276" y1="294" x2="284" y2="294" stroke="#333" stroke-width="2"/>

</svg>
