<svg xmlns="http://www.w3.org/2000/svg" viewBox="0 0 620 440" preserveAspectRatio="xMidYMid meet" role="img" aria-label="Q3 Variant 2: RC step response with resistor network — Vs drives R1 to node A, R2 shunt, capacitor C bridges to node B, R3 series to ground, R4 shunt at B">
  <title>Q3-V2: RC Step Response — Capacitor Bridging Two Resistor Dividers</title>
  <style>
    text { font-family: 'Segoe UI', Arial, Helvetica, sans-serif; }
    .title { font-size: 18px; font-weight: bold; fill: #222; }
    .comp-label { font-size: 16px; font-weight: bold; fill: #0055aa; }
    .annotation { font-size: 14px; fill: #666; }
    .polarity { font-size: 14px; fill: #333; }
    .wire { stroke: #333; stroke-width: 2.5; fill: none; }
    .component { stroke: #333; stroke-width: 2.5; fill: none; }
    .ref-dir { stroke: #cc0000; stroke-width: 1.8; fill: none; }
    .node-dot { fill: #cc0000; stroke: none; }
    .node-label { font-size: 15px; fill: #cc0000; font-weight: bold; }
    .find-text { font-size: 16px; fill: #cc0000; font-weight: bold; }
    .sdomain { font-size: 13px; fill: #006600; font-weight: bold; }
  </style>
  <defs>
    <marker id="cur-q3v2" markerWidth="8" markerHeight="6" refX="8" refY="3" orient="auto">
      <polygon points="0 0, 8 3, 0 6" fill="#cc0000"/>
    </marker>
  </defs>

  <text x="310" y="28" text-anchor="middle" class="title">Q3-V2: RC Step Response (3 nodes, 3 meshes)</text>

  <!-- ===== TOP RAIL ===== -->
  <line x1="60" y1="100" x2="110" y2="100" class="wire"/>

  <!-- R1 (horizontal) -->
  <rect x="110" y="90" width="80" height="20" class="component" rx="3"/>
  <text x="150" y="82" text-anchor="middle" class="comp-label">R₁</text>

  <line x1="190" y1="100" x2="240" y2="100" class="wire"/>

  <!-- Node A -->
  <circle cx="240" cy="100" r="5" class="node-dot"/>
  <text x="240" y="80" text-anchor="middle" class="node-label">A</text>

  <!-- Capacitor C (horizontal, from A to B) -->
  <line x1="240" y1="100" x2="310" y2="100" class="wire"/>
  <line x1="310" y1="85" x2="310" y2="115" stroke="#333" stroke-width="3"/>
  <line x1="320" y1="85" x2="320" y2="115" stroke="#333" stroke-width="3"/>
  <text x="315" y="72" text-anchor="middle" class="comp-label">C</text>
  <line x1="320" y1="100" x2="380" y2="100" class="wire"/>

  <!-- Polarity across C -->
  <text x="298" y="80" class="polarity">+</text>
  <text x="328" y="80" class="polarity">−</text>

  <line x1="380" y1="100" x2="420" y2="100" class="wire"/>

  <!-- Node B -->
  <circle cx="420" cy="100" r="5" class="node-dot"/>
  <text x="420" y="80" text-anchor="middle" class="node-label">B</text>

  <!-- R3 (horizontal, from B to right side then down) -->
  <line x1="420" y1="100" x2="460" y2="100" class="wire"/>
  <rect x="460" y="90" width="80" height="20" class="component" rx="3"/>
  <text x="500" y="82" text-anchor="middle" class="comp-label">R₃</text>
  <line x1="540" y1="100" x2="560" y2="100" class="wire"/>
  <line x1="560" y1="100" x2="560" y2="280" class="wire"/>

  <!-- ===== R2 (vertical, from node A to ground) ===== -->
  <line x1="240" y1="100" x2="240" y2="130" class="wire"/>
  <rect x="230" y="130" width="20" height="80" class="component" rx="3"/>
  <text x="212" y="175" text-anchor="end" class="comp-label">R₂</text>
  <line x1="240" y1="210" x2="240" y2="280" class="wire"/>

  <!-- ===== R4 (vertical, from node B to ground) ===== -->
  <line x1="420" y1="100" x2="420" y2="130" class="wire"/>
  <rect x="410" y="130" width="20" height="80" class="component" rx="3"/>
  <text x="440" y="175" class="comp-label">R₄</text>
  <line x1="420" y1="210" x2="420" y2="280" class="wire"/>

  <!-- ===== BOTTOM RAIL ===== -->
  <line x1="60" y1="280" x2="560" y2="280" class="wire"/>

  <!-- ===== Vs SOURCE ===== -->
  <line x1="60" y1="100" x2="60" y2="150" class="wire"/>
  <circle cx="60" cy="190" r="28" class="component"/>
  <text x="52" y="184" class="polarity">+</text>
  <text x="54" y="206" class="polarity">−</text>
  <text x="14" y="195" text-anchor="end" class="comp-label">V_s</text>
  <line x1="60" y1="218" x2="60" y2="280" class="wire"/>
  <text x="60" y="252" text-anchor="middle" class="annotation">u(t)</text>

  <!-- ===== Ground symbol ===== -->
  <line x1="325" y1="280" x2="335" y2="280" stroke="#333" stroke-width="4"/>
  <line x1="327" y1="287" x2="333" y2="287" stroke="#333" stroke-width="3"/>
  <line x1="329" y1="294" x2="331" y2="294" stroke="#333" stroke-width="2"/>

  <!-- ===== s-Domain annotation ===== -->
  <rect x="30" y="310" width="560" height="80" rx="8" fill="#f0f8f0" stroke="#006600" stroke-width="1.5"/>
  <text x="310" y="332" text-anchor="middle" class="sdomain">C bridges nodes A and B — remove C to find Thevenin</text>
  <text x="310" y="355" text-anchor="middle" class="sdomain">R_th = (R₁‖R₂) + (R₃‖R₄),   V_th = V_s · R₂/(R₁+R₂)</text>
  <text x="310" y="378" text-anchor="middle" class="sdomain">τ = R_th · C</text>

  <!-- Find instruction -->
  <text x="310" y="420" text-anchor="middle" class="find-text">Find: R_th seen by C, then τ = R_th · C</text>
</svg>
