<?xml version="1.0" encoding="utf-8" standalone="no"?>
<!DOCTYPE svg PUBLIC "-//W3C//DTD SVG 1.1//EN"
  "http://www.w3.org/Graphics/SVG/1.1/DTD/svg11.dtd">
<svg xmlns:xlink="http://www.w3.org/1999/xlink" width="997.926627pt" height="352.637812pt" viewBox="0 0 997.926627 352.637812" xmlns="http://www.w3.org/2000/svg" version="1.1">
 <metadata>
  <rdf:RDF xmlns:dc="http://purl.org/dc/elements/1.1/" xmlns:cc="http://creativecommons.org/ns#" xmlns:rdf="http://www.w3.org/1999/02/22-rdf-syntax-ns#">
   <cc:Work>
    <dc:type rdf:resource="http://purl.org/dc/dcmitype/StillImage"/>
    <dc:date>2026-02-23T16:40:25.547412</dc:date>
    <dc:format>image/svg+xml</dc:format>
    <dc:creator>
     <cc:Agent>
      <dc:title>Matplotlib v3.10.8, https://matplotlib.org/</dc:title>
     </cc:Agent>
    </dc:creator>
   </cc:Work>
  </rdf:RDF>
 </metadata>
 <defs>
  <style type="text/css">*{stroke-linejoin: round; stroke-linecap: butt}</style>
 </defs>
 <g id="figure_1">
  <g id="patch_1">
   <path d="M 0 352.637812 
L 997.926627 352.637812 
L 997.926627 0 
L 0 0 
z
" style="fill: #ffffff"/>
  </g>
  <g id="axes_1">
   <g id="patch_2">
    <path d="M 52.276175 215.004084 
C 58.367559 215.004084 64.210276 211.28364 68.517535 204.662136 
C 72.824794 198.040633 75.244926 189.058686 75.244926 179.694466 
C 75.244926 170.330246 72.824794 161.348299 68.517535 154.726796 
C 64.210276 148.105292 58.367559 144.384848 52.276175 144.384848 
C 46.184791 144.384848 40.342074 148.105292 36.034815 154.726796 
C 31.727556 161.348299 29.307423 170.330246 29.307423 179.694466 
C 29.307423 189.058686 31.727556 198.040633 36.034815 204.662136 
C 40.342074 211.28364 46.184791 215.004084 52.276175 215.004084 
L 52.276175 215.004084 
z
" clip-path="url(#pcd9712d20a)" style="fill: none; stroke: #000000; stroke-width: 2; stroke-linejoin: miter"/>
   </g>
   <g id="patch_3">
    <path d="M 352.356132 65.238994 
C 355.328507 48.185758 356.612132 38.455994 373.838696 38.455994 
" clip-path="url(#pcd9712d20a)" style="fill: none; stroke: #000000; stroke-width: 2; stroke-linejoin: miter; stroke-linecap: round"/>
   </g>
   <g id="patch_4">
    <path d="M 358.279542 58.540137 
L 350.869945 73.765612 
L 349.405098 54.884616 
z
" clip-path="url(#pcd9712d20a)"/>
   </g>
   <g id="patch_5">
    <path d="M 465.713702 126.730039 
C 467.236041 126.730039 468.697586 125.799377 469.774042 124.144552 
C 470.850498 122.489728 471.45589 120.24291 471.45589 117.902635 
C 471.45589 115.562359 470.850498 113.315542 469.774042 111.660717 
C 468.697586 110.005893 467.236041 109.07523 465.713702 109.07523 
" clip-path="url(#pcd9712d20a)" style="fill: none; stroke: #000000; stroke-width: 2; stroke-linejoin: miter"/>
   </g>
   <g id="patch_6">
    <path d="M 465.713702 144.384848 
C 467.236041 144.384848 468.697586 143.454186 469.774042 141.799361 
C 470.850498 140.144537 471.45589 137.897719 471.45589 135.557444 
C 471.45589 133.217168 470.850498 130.970351 469.774042 129.315526 
C 468.697586 127.660701 467.236041 126.730039 465.713702 126.730039 
" clip-path="url(#pcd9712d20a)" style="fill: none; stroke: #000000; stroke-width: 2; stroke-linejoin: miter"/>
   </g>
   <g id="patch_7">
    <path d="M 465.713702 162.039657 
C 467.236041 162.039657 468.697586 161.108995 469.774042 159.45417 
C 470.850498 157.799346 471.45589 155.552528 471.45589 153.212253 
C 471.45589 150.871977 470.850498 148.62516 469.774042 146.970335 
C 468.697586 145.31551 467.236041 144.384848 465.713702 144.384848 
" clip-path="url(#pcd9712d20a)" style="fill: none; stroke: #000000; stroke-width: 2; stroke-linejoin: miter"/>
   </g>
   <g id="patch_8">
    <path d="M 465.713702 179.694466 
C 467.236041 179.694466 468.697586 178.763804 469.774042 177.108979 
C 470.850498 175.454155 471.45589 173.207337 471.45589 170.867062 
C 471.45589 168.526786 470.850498 166.279969 469.774042 164.625144 
C 468.697586 162.970319 467.236041 162.039657 465.713702 162.039657 
" clip-path="url(#pcd9712d20a)" style="fill: none; stroke: #000000; stroke-width: 2; stroke-linejoin: miter"/>
   </g>
   <g id="line2d_1">
    <path d="M 52.276175 285.62332 
L 52.276175 215.004084 
L 52.276175 215.004084 
M 52.276175 144.384848 
L 52.276175 144.384848 
L 52.276175 73.765612 
" clip-path="url(#pcd9712d20a)" style="fill: none; stroke: #000000; stroke-width: 2; stroke-linecap: round"/>
   </g>
   <g id="line2d_2">
    <path d="M 56.869925 197.349275 
L 47.682425 197.349275 
" clip-path="url(#pcd9712d20a)" style="fill: none; stroke: #000000; stroke-width: 2; stroke-linecap: round"/>
   </g>
   <g id="line2d_3">
    <path d="M 52.276175 169.101581 
L 52.276175 154.977733 
" clip-path="url(#pcd9712d20a)" style="fill: none; stroke: #000000; stroke-width: 2; stroke-linecap: round"/>
   </g>
   <g id="line2d_4">
    <path d="M 56.869925 162.039657 
L 47.682425 162.039657 
" clip-path="url(#pcd9712d20a)" style="fill: none; stroke: #000000; stroke-width: 2; stroke-linecap: round"/>
   </g>
   <g id="line2d_5">
    <path d="M 52.276175 73.765612 
L 63.760551 73.765612 
L 75.244926 73.765612 
" clip-path="url(#pcd9712d20a)" style="fill: none; stroke: #000000; stroke-width: 2; stroke-linecap: round"/>
   </g>
   <g id="line2d_6">
    <path d="M 75.244926 73.765612 
L 121.182429 73.765612 
M 132.20743 66.703689 
L 157.932432 41.986956 
M 167.119932 73.765612 
L 213.057435 73.765612 
" clip-path="url(#pcd9712d20a)" style="fill: none; stroke: #000000; stroke-width: 2; stroke-linecap: round"/>
   </g>
   <g id="line2d_7">
    <path d="M 213.057435 73.765612 
L 258.994938 73.765612 
L 262.823064 56.110803 
L 270.479314 91.420421 
L 278.135565 56.110803 
L 285.791815 91.420421 
L 293.448066 56.110803 
L 301.104316 91.420421 
L 304.932441 73.765612 
L 350.869945 73.765612 
" clip-path="url(#pcd9712d20a)" style="fill: none; stroke: #000000; stroke-width: 2; stroke-linecap: round"/>
   </g>
   <g id="line2d_8">
    <path d="M 373.838696 38.455994 
L 373.838696 109.07523 
L 385.323072 114.960166 
L 362.35432 126.730039 
L 385.323072 138.499912 
L 362.35432 150.269784 
L 385.323072 162.039657 
L 362.35432 173.80953 
L 373.838696 179.694466 
L 373.838696 250.313702 
" clip-path="url(#pcd9712d20a)" style="fill: none; stroke: #000000; stroke-width: 2; stroke-linecap: round"/>
   </g>
   <g id="line2d_9">
    <path d="M 373.838696 250.313702 
L 373.838696 267.968511 
L 373.838696 285.62332 
" clip-path="url(#pcd9712d20a)" style="fill: none; stroke: #000000; stroke-width: 2; stroke-linecap: round"/>
   </g>
   <g id="line2d_10">
    <path d="M 373.838696 38.455994 
L 419.776199 38.455994 
L 465.713702 38.455994 
" clip-path="url(#pcd9712d20a)" style="fill: none; stroke: #000000; stroke-width: 2; stroke-linecap: round"/>
   </g>
   <g id="line2d_11">
    <path d="M 465.713702 38.455994 
L 465.713702 109.07523 
M 465.713702 179.694466 
L 465.713702 250.313702 
" clip-path="url(#pcd9712d20a)" style="fill: none; stroke: #000000; stroke-width: 2; stroke-linecap: round"/>
   </g>
   <g id="line2d_12">
    <path d="M 465.713702 250.313702 
L 465.713702 267.968511 
L 465.713702 285.62332 
" clip-path="url(#pcd9712d20a)" style="fill: none; stroke: #000000; stroke-width: 2; stroke-linecap: round"/>
   </g>
   <g id="line2d_13">
    <path d="M 465.713702 285.62332 
L 419.776199 285.62332 
L 373.838696 285.62332 
" clip-path="url(#pcd9712d20a)" style="fill: none; stroke: #000000; stroke-width: 2; stroke-linecap: round"/>
   </g>
   <g id="line2d_14">
    <path d="M 373.838696 285.62332 
L 373.838696 313.871014 
L 362.35432 313.871014 
L 385.323072 313.871014 
M 365.799633 322.345322 
L 381.877759 322.345322 
M 371.541821 330.819631 
L 376.135571 330.819631 
" clip-path="url(#pcd9712d20a)" style="fill: none; stroke: #000000; stroke-width: 2; stroke-linecap: round"/>
   </g>
   <g id="line2d_15">
    <path d="M 373.838696 285.62332 
L 213.057435 285.62332 
L 52.276175 285.62332 
" clip-path="url(#pcd9712d20a)" style="fill: none; stroke: #000000; stroke-width: 2; stroke-linecap: round"/>
   </g>
   <g id="line2d_16">
    <path d="M 52.276175 285.62332 
L 52.276175 285.62332 
L 52.276175 285.62332 
" clip-path="url(#pcd9712d20a)" style="fill: none; stroke: #000000; stroke-width: 2; stroke-linecap: round"/>
   </g>
   <g id="text_1">
    <!-- Vs -->
    <g transform="translate(9.048673 183.281653) scale(0.13 -0.13)">
     <defs>
      <path id="DejaVuSans-56" d="M 1831 0 
L 50 4666 
L 709 4666 
L 2188 738 
L 3669 4666 
L 4325 4666 
L 2547 0 
L 1831 0 
z
" transform="scale(0.015625)"/>
      <path id="DejaVuSans-73" d="M 2834 3397 
L 2834 2853 
Q 2591 2978 2328 3040 
Q 2066 3103 1784 3103 
Q 1356 3103 1142 2972 
Q 928 2841 928 2578 
Q 928 2378 1081 2264 
Q 1234 2150 1697 2047 
L 1894 2003 
Q 2506 1872 2764 1633 
Q 3022 1394 3022 966 
Q 3022 478 2636 193 
Q 2250 -91 1575 -91 
Q 1294 -91 989 -36 
Q 684 19 347 128 
L 347 722 
Q 666 556 975 473 
Q 1284 391 1588 391 
Q 1994 391 2212 530 
Q 2431 669 2431 922 
Q 2431 1156 2273 1281 
Q 2116 1406 1581 1522 
L 1381 1569 
Q 847 1681 609 1914 
Q 372 2147 372 2553 
Q 372 3047 722 3315 
Q 1072 3584 1716 3584 
Q 2034 3584 2315 3537 
Q 2597 3491 2834 3397 
z
" transform="scale(0.015625)"/>
     </defs>
     <use xlink:href="#DejaVuSans-56"/>
     <use xlink:href="#DejaVuSans-73" transform="translate(68.408203 0)"/>
    </g>
   </g>
   <g id="patch_9">
    <path d="M 126.69493 82.239921 
C 128.156862 82.239921 129.559114 81.347014 130.592856 79.757853 
C 131.626598 78.168692 132.20743 76.013025 132.20743 73.765612 
C 132.20743 71.518199 131.626598 69.362532 130.592856 67.773371 
C 129.559114 66.184211 128.156862 65.291304 126.69493 65.291304 
C 125.232998 65.291304 123.830746 66.184211 122.797003 67.773371 
C 121.763261 69.362532 121.182429 71.518199 121.182429 73.765612 
C 121.182429 76.013025 121.763261 78.168692 122.797003 79.757853 
C 123.830746 81.347014 125.232998 82.239921 126.69493 82.239921 
z
" clip-path="url(#pcd9712d20a)" style="fill: #ffffff; stroke: #000000; stroke-width: 2; stroke-linejoin: miter"/>
   </g>
   <g id="patch_10">
    <path d="M 161.607432 82.239921 
C 163.069364 82.239921 164.471616 81.347014 165.505358 79.757853 
C 166.539101 78.168692 167.119932 76.013025 167.119932 73.765612 
C 167.119932 71.518199 166.539101 69.362532 165.505358 67.773371 
C 164.471616 66.184211 163.069364 65.291304 161.607432 65.291304 
C 160.1455 65.291304 158.743248 66.184211 157.709506 67.773371 
C 156.675763 69.362532 156.094932 71.518199 156.094932 73.765612 
C 156.094932 76.013025 156.675763 78.168692 157.709506 79.757853 
C 158.743248 81.347014 160.1455 82.239921 161.607432 82.239921 
z
" clip-path="url(#pcd9712d20a)" style="fill: #ffffff; stroke: #000000; stroke-width: 2; stroke-linejoin: miter"/>
   </g>
   <g id="text_2">
    <!-- S -->
    <g transform="translate(140.024697 32.221439) scale(0.13 -0.13)">
     <defs>
      <path id="DejaVuSans-53" d="M 3425 4513 
L 3425 3897 
Q 3066 4069 2747 4153 
Q 2428 4238 2131 4238 
Q 1616 4238 1336 4038 
Q 1056 3838 1056 3469 
Q 1056 3159 1242 3001 
Q 1428 2844 1947 2747 
L 2328 2669 
Q 3034 2534 3370 2195 
Q 3706 1856 3706 1288 
Q 3706 609 3251 259 
Q 2797 -91 1919 -91 
Q 1588 -91 1214 -16 
Q 841 59 441 206 
L 441 856 
Q 825 641 1194 531 
Q 1563 422 1919 422 
Q 2459 422 2753 634 
Q 3047 847 3047 1241 
Q 3047 1584 2836 1778 
Q 2625 1972 2144 2069 
L 1759 2144 
Q 1053 2284 737 2584 
Q 422 2884 422 3419 
Q 422 4038 858 4394 
Q 1294 4750 2059 4750 
Q 2388 4750 2728 4690 
Q 3069 4631 3425 4513 
z
" transform="scale(0.015625)"/>
     </defs>
     <use xlink:href="#DejaVuSans-53"/>
    </g>
   </g>
   <g id="text_3">
    <!-- R₁ -->
    <g transform="translate(274.841112 46.345286) scale(0.13 -0.13)">
     <defs>
      <path id="DejaVuSans-52" d="M 2841 2188 
Q 3044 2119 3236 1894 
Q 3428 1669 3622 1275 
L 4263 0 
L 3584 0 
L 2988 1197 
Q 2756 1666 2539 1819 
Q 2322 1972 1947 1972 
L 1259 1972 
L 1259 0 
L 628 0 
L 628 4666 
L 2053 4666 
Q 2853 4666 3247 4331 
Q 3641 3997 3641 3322 
Q 3641 2881 3436 2590 
Q 3231 2300 2841 2188 
z
M 1259 4147 
L 1259 2491 
L 2053 2491 
Q 2509 2491 2742 2702 
Q 2975 2913 2975 3322 
Q 2975 3731 2742 3939 
Q 2509 4147 2053 4147 
L 1259 4147 
z
" transform="scale(0.015625)"/>
      <path id="DejaVuSans-2081" d="M 488 319 
L 1125 319 
L 1125 2229 
L 428 2101 
L 428 2463 
L 1147 2585 
L 1575 2585 
L 1575 319 
L 2216 319 
L 2216 -24 
L 488 -24 
L 488 319 
z
" transform="scale(0.015625)"/>
     </defs>
     <use xlink:href="#DejaVuSans-52"/>
     <use xlink:href="#DejaVuSans-2081" transform="translate(69.482422 0)"/>
    </g>
   </g>
   <g id="text_4">
    <!-- A -->
    <g style="fill: #ff0000" transform="translate(378.432446 42.043182) scale(0.13 -0.13)">
     <defs>
      <path id="DejaVuSans-41" d="M 2188 4044 
L 1331 1722 
L 3047 1722 
L 2188 4044 
z
M 1831 4666 
L 2547 4666 
L 4325 0 
L 3669 0 
L 3244 1197 
L 1141 1197 
L 716 0 
L 50 0 
L 1831 4666 
z
" transform="scale(0.015625)"/>
     </defs>
     <use xlink:href="#DejaVuSans-41"/>
    </g>
   </g>
   <g id="text_5">
    <!-- R₂ -->
    <g transform="translate(343.515414 147.972036) scale(0.13 -0.13)">
     <defs>
      <path id="DejaVuSans-2082" d="M 838 332 
L 2163 332 
L 2163 -24 
L 294 -24 
L 294 319 
Q 400 416 597 591 
Q 1672 1544 1672 1838 
Q 1672 2044 1509 2170 
Q 1347 2297 1081 2297 
Q 919 2297 728 2242 
Q 538 2188 313 2079 
L 313 2463 
Q 553 2551 761 2594 
Q 969 2638 1147 2638 
Q 1600 2638 1872 2432 
Q 2144 2226 2144 1888 
Q 2144 1454 1109 566 
Q 934 416 838 332 
z
" transform="scale(0.015625)"/>
     </defs>
     <use xlink:href="#DejaVuSans-52"/>
     <use xlink:href="#DejaVuSans-2082" transform="translate(69.482422 0)"/>
    </g>
   </g>
   <g id="text_6">
    <!-- L -->
    <g transform="translate(453.876514 147.972036) scale(0.13 -0.13)">
     <defs>
      <path id="DejaVuSans-4c" d="M 628 4666 
L 1259 4666 
L 1259 531 
L 3531 531 
L 3531 0 
L 628 0 
L 628 4666 
z
" transform="scale(0.015625)"/>
     </defs>
     <use xlink:href="#DejaVuSans-4c"/>
    </g>
   </g>
   <g id="text_7">
    <!-- t &lt; 0  (switch closed) -->
    <g transform="translate(166.921969 17.837812) scale(0.14 -0.14)">
     <defs>
      <path id="DejaVuSans-Bold-74" d="M 1759 4494 
L 1759 3500 
L 2913 3500 
L 2913 2700 
L 1759 2700 
L 1759 1216 
Q 1759 972 1856 886 
Q 1953 800 2241 800 
L 2816 800 
L 2816 0 
L 1856 0 
Q 1194 0 917 276 
Q 641 553 641 1216 
L 641 2700 
L 84 2700 
L 84 3500 
L 641 3500 
L 641 4494 
L 1759 4494 
z
" transform="scale(0.015625)"/>
      <path id="DejaVuSans-Bold-20" transform="scale(0.015625)"/>
      <path id="DejaVuSans-Bold-3c" d="M 4684 3041 
L 1672 2003 
L 4684 972 
L 4684 191 
L 678 1638 
L 678 2375 
L 4684 3822 
L 4684 3041 
z
" transform="scale(0.015625)"/>
      <path id="DejaVuSans-Bold-30" d="M 2944 2338 
Q 2944 3213 2780 3570 
Q 2616 3928 2228 3928 
Q 1841 3928 1675 3570 
Q 1509 3213 1509 2338 
Q 1509 1453 1675 1090 
Q 1841 728 2228 728 
Q 2613 728 2778 1090 
Q 2944 1453 2944 2338 
z
M 4147 2328 
Q 4147 1169 3647 539 
Q 3147 -91 2228 -91 
Q 1306 -91 806 539 
Q 306 1169 306 2328 
Q 306 3491 806 4120 
Q 1306 4750 2228 4750 
Q 3147 4750 3647 4120 
Q 4147 3491 4147 2328 
z
" transform="scale(0.015625)"/>
      <path id="DejaVuSans-Bold-28" d="M 2413 -844 
L 1484 -844 
Q 1006 -72 778 623 
Q 550 1319 550 2003 
Q 550 2688 779 3389 
Q 1009 4091 1484 4856 
L 2413 4856 
Q 2013 4116 1813 3408 
Q 1613 2700 1613 2009 
Q 1613 1319 1811 609 
Q 2009 -100 2413 -844 
z
" transform="scale(0.015625)"/>
      <path id="DejaVuSans-Bold-73" d="M 3272 3391 
L 3272 2541 
Q 2913 2691 2578 2766 
Q 2244 2841 1947 2841 
Q 1628 2841 1473 2761 
Q 1319 2681 1319 2516 
Q 1319 2381 1436 2309 
Q 1553 2238 1856 2203 
L 2053 2175 
Q 2913 2066 3209 1816 
Q 3506 1566 3506 1031 
Q 3506 472 3093 190 
Q 2681 -91 1863 -91 
Q 1516 -91 1145 -36 
Q 775 19 384 128 
L 384 978 
Q 719 816 1070 734 
Q 1422 653 1784 653 
Q 2113 653 2278 743 
Q 2444 834 2444 1013 
Q 2444 1163 2330 1236 
Q 2216 1309 1875 1350 
L 1678 1375 
Q 931 1469 631 1722 
Q 331 1975 331 2491 
Q 331 3047 712 3315 
Q 1094 3584 1881 3584 
Q 2191 3584 2531 3537 
Q 2872 3491 3272 3391 
z
" transform="scale(0.015625)"/>
      <path id="DejaVuSans-Bold-77" d="M 225 3500 
L 1313 3500 
L 1900 1088 
L 2491 3500 
L 3425 3500 
L 4013 1113 
L 4603 3500 
L 5691 3500 
L 4769 0 
L 3547 0 
L 2956 2406 
L 2369 0 
L 1147 0 
L 225 3500 
z
" transform="scale(0.015625)"/>
      <path id="DejaVuSans-Bold-69" d="M 538 3500 
L 1656 3500 
L 1656 0 
L 538 0 
L 538 3500 
z
M 538 4863 
L 1656 4863 
L 1656 3950 
L 538 3950 
L 538 4863 
z
" transform="scale(0.015625)"/>
      <path id="DejaVuSans-Bold-63" d="M 3366 3391 
L 3366 2478 
Q 3138 2634 2908 2709 
Q 2678 2784 2431 2784 
Q 1963 2784 1702 2511 
Q 1441 2238 1441 1747 
Q 1441 1256 1702 982 
Q 1963 709 2431 709 
Q 2694 709 2930 787 
Q 3166 866 3366 1019 
L 3366 103 
Q 3103 6 2833 -42 
Q 2563 -91 2291 -91 
Q 1344 -91 809 395 
Q 275 881 275 1747 
Q 275 2613 809 3098 
Q 1344 3584 2291 3584 
Q 2566 3584 2833 3536 
Q 3100 3488 3366 3391 
z
" transform="scale(0.015625)"/>
      <path id="DejaVuSans-Bold-68" d="M 4056 2131 
L 4056 0 
L 2931 0 
L 2931 347 
L 2931 1625 
Q 2931 2084 2911 2256 
Q 2891 2428 2841 2509 
Q 2775 2619 2662 2680 
Q 2550 2741 2406 2741 
Q 2056 2741 1856 2470 
Q 1656 2200 1656 1722 
L 1656 0 
L 538 0 
L 538 4863 
L 1656 4863 
L 1656 2988 
Q 1909 3294 2193 3439 
Q 2478 3584 2822 3584 
Q 3428 3584 3742 3212 
Q 4056 2841 4056 2131 
z
" transform="scale(0.015625)"/>
      <path id="DejaVuSans-Bold-6c" d="M 538 4863 
L 1656 4863 
L 1656 0 
L 538 0 
L 538 4863 
z
" transform="scale(0.015625)"/>
      <path id="DejaVuSans-Bold-6f" d="M 2203 2784 
Q 1831 2784 1636 2517 
Q 1441 2250 1441 1747 
Q 1441 1244 1636 976 
Q 1831 709 2203 709 
Q 2569 709 2762 976 
Q 2956 1244 2956 1747 
Q 2956 2250 2762 2517 
Q 2569 2784 2203 2784 
z
M 2203 3584 
Q 3106 3584 3614 3096 
Q 4122 2609 4122 1747 
Q 4122 884 3614 396 
Q 3106 -91 2203 -91 
Q 1297 -91 786 396 
Q 275 884 275 1747 
Q 275 2609 786 3096 
Q 1297 3584 2203 3584 
z
" transform="scale(0.015625)"/>
      <path id="DejaVuSans-Bold-65" d="M 4031 1759 
L 4031 1441 
L 1416 1441 
Q 1456 1047 1700 850 
Q 1944 653 2381 653 
Q 2734 653 3104 758 
Q 3475 863 3866 1075 
L 3866 213 
Q 3469 63 3072 -14 
Q 2675 -91 2278 -91 
Q 1328 -91 801 392 
Q 275 875 275 1747 
Q 275 2603 792 3093 
Q 1309 3584 2216 3584 
Q 3041 3584 3536 3087 
Q 4031 2591 4031 1759 
z
M 2881 2131 
Q 2881 2450 2695 2645 
Q 2509 2841 2209 2841 
Q 1884 2841 1681 2658 
Q 1478 2475 1428 2131 
L 2881 2131 
z
" transform="scale(0.015625)"/>
      <path id="DejaVuSans-Bold-64" d="M 2919 2988 
L 2919 4863 
L 4044 4863 
L 4044 0 
L 2919 0 
L 2919 506 
Q 2688 197 2409 53 
Q 2131 -91 1766 -91 
Q 1119 -91 703 423 
Q 288 938 288 1747 
Q 288 2556 703 3070 
Q 1119 3584 1766 3584 
Q 2128 3584 2408 3439 
Q 2688 3294 2919 2988 
z
M 2181 722 
Q 2541 722 2730 984 
Q 2919 1247 2919 1747 
Q 2919 2247 2730 2509 
Q 2541 2772 2181 2772 
Q 1825 2772 1636 2509 
Q 1447 2247 1447 1747 
Q 1447 1247 1636 984 
Q 1825 722 2181 722 
z
" transform="scale(0.015625)"/>
      <path id="DejaVuSans-Bold-29" d="M 513 -844 
Q 913 -100 1113 609 
Q 1313 1319 1313 2009 
Q 1313 2700 1113 3408 
Q 913 4116 513 4856 
L 1441 4856 
Q 1916 4091 2145 3389 
Q 2375 2688 2375 2003 
Q 2375 1319 2147 623 
Q 1919 -72 1441 -844 
L 513 -844 
z
" transform="scale(0.015625)"/>
     </defs>
     <use xlink:href="#DejaVuSans-Bold-74"/>
     <use xlink:href="#DejaVuSans-Bold-20" transform="translate(47.802734 0)"/>
     <use xlink:href="#DejaVuSans-Bold-3c" transform="translate(82.617188 0)"/>
     <use xlink:href="#DejaVuSans-Bold-20" transform="translate(166.40625 0)"/>
     <use xlink:href="#DejaVuSans-Bold-30" transform="translate(201.220703 0)"/>
     <use xlink:href="#DejaVuSans-Bold-20" transform="translate(270.800781 0)"/>
     <use xlink:href="#DejaVuSans-Bold-20" transform="translate(305.615234 0)"/>
     <use xlink:href="#DejaVuSans-Bold-28" transform="translate(340.429688 0)"/>
     <use xlink:href="#DejaVuSans-Bold-73" transform="translate(386.132812 0)"/>
     <use xlink:href="#DejaVuSans-Bold-77" transform="translate(445.654297 0)"/>
     <use xlink:href="#DejaVuSans-Bold-69" transform="translate(538.037109 0)"/>
     <use xlink:href="#DejaVuSans-Bold-74" transform="translate(572.314453 0)"/>
     <use xlink:href="#DejaVuSans-Bold-63" transform="translate(620.117188 0)"/>
     <use xlink:href="#DejaVuSans-Bold-68" transform="translate(679.394531 0)"/>
     <use xlink:href="#DejaVuSans-Bold-20" transform="translate(750.585938 0)"/>
     <use xlink:href="#DejaVuSans-Bold-63" transform="translate(785.400391 0)"/>
     <use xlink:href="#DejaVuSans-Bold-6c" transform="translate(844.677734 0)"/>
     <use xlink:href="#DejaVuSans-Bold-6f" transform="translate(878.955078 0)"/>
     <use xlink:href="#DejaVuSans-Bold-73" transform="translate(947.65625 0)"/>
     <use xlink:href="#DejaVuSans-Bold-65" transform="translate(1007.177734 0)"/>
     <use xlink:href="#DejaVuSans-Bold-64" transform="translate(1075 0)"/>
     <use xlink:href="#DejaVuSans-Bold-29" transform="translate(1146.582031 0)"/>
    </g>
   </g>
   <g id="patch_11">
    <path d="M 350.869945 79.062055 
C 351.783652 79.062055 352.66006 78.503988 353.306149 77.510763 
C 353.952237 76.517537 354.315257 75.170245 354.315257 73.765612 
C 354.315257 72.360979 353.952237 71.013687 353.306149 70.020462 
C 352.66006 69.027236 351.783652 68.46917 350.869945 68.46917 
C 349.956237 68.46917 349.079829 69.027236 348.433741 70.020462 
C 347.787652 71.013687 347.424632 72.360979 347.424632 73.765612 
C 347.424632 75.170245 347.787652 76.517537 348.433741 77.510763 
C 349.079829 78.503988 349.956237 79.062055 350.869945 79.062055 
z
" clip-path="url(#pcd9712d20a)" style="stroke: #000000; stroke-width: 2; stroke-linejoin: miter"/>
   </g>
  </g>
  <g id="axes_2">
   <g id="patch_12">
    <path d="M 939.142639 151.192615 
C 943.049975 151.192615 946.801274 150.202141 949.564178 148.440966 
C 952.327082 146.67979 953.880921 144.288575 953.880921 141.797897 
C 953.880921 139.307218 952.327082 136.916003 949.564178 135.154828 
C 946.801274 133.393652 943.049975 132.403178 939.142639 132.403178 
" clip-path="url(#pc39bbb8c44)" style="fill: none; stroke: #000000; stroke-width: 2; stroke-linejoin: miter"/>
   </g>
   <g id="patch_13">
    <path d="M 939.142639 169.982052 
C 943.049975 169.982052 946.801274 168.991578 949.564178 167.230402 
C 952.327082 165.469227 953.880921 163.078012 953.880921 160.587333 
C 953.880921 158.096655 952.327082 155.70544 949.564178 153.944264 
C 946.801274 152.183089 943.049975 151.192615 939.142639 151.192615 
" clip-path="url(#pc39bbb8c44)" style="fill: none; stroke: #000000; stroke-width: 2; stroke-linejoin: miter"/>
   </g>
   <g id="patch_14">
    <path d="M 939.142639 188.771489 
C 943.049975 188.771489 946.801274 187.781015 949.564178 186.019839 
C 952.327082 184.258664 953.880921 181.867449 953.880921 179.37677 
C 953.880921 176.886092 952.327082 174.494877 949.564178 172.733701 
C 946.801274 170.972525 943.049975 169.982052 939.142639 169.982052 
" clip-path="url(#pc39bbb8c44)" style="fill: none; stroke: #000000; stroke-width: 2; stroke-linejoin: miter"/>
   </g>
   <g id="patch_15">
    <path d="M 939.142639 207.560925 
C 943.049975 207.560925 946.801274 206.570452 949.564178 204.809276 
C 952.327082 203.0481 953.880921 200.656886 953.880921 198.166207 
C 953.880921 195.675528 952.327082 193.284314 949.564178 191.523138 
C 946.801274 189.761962 943.049975 188.771489 939.142639 188.771489 
" clip-path="url(#pc39bbb8c44)" style="fill: none; stroke: #000000; stroke-width: 2; stroke-linejoin: miter"/>
   </g>
   <g id="line2d_17">
    <path d="M 526.470737 57.245431 
L 644.376994 57.245431 
L 654.202516 38.455994 
L 673.853559 76.034868 
L 693.504602 38.455994 
L 713.155645 76.034868 
L 732.806688 38.455994 
L 752.457731 76.034868 
L 762.283252 57.245431 
L 880.18951 57.245431 
" clip-path="url(#pc39bbb8c44)" style="fill: none; stroke: #000000; stroke-width: 2; stroke-linecap: round"/>
   </g>
   <g id="line2d_18">
    <path d="M 880.18951 57.245431 
L 909.666074 57.245431 
L 939.142639 57.245431 
" clip-path="url(#pc39bbb8c44)" style="fill: none; stroke: #000000; stroke-width: 2; stroke-linecap: round"/>
   </g>
   <g id="line2d_19">
    <path d="M 939.142639 57.245431 
L 939.142639 132.403178 
M 939.142639 207.560925 
L 939.142639 282.718673 
" clip-path="url(#pc39bbb8c44)" style="fill: none; stroke: #000000; stroke-width: 2; stroke-linecap: round"/>
   </g>
   <g id="line2d_20">
    <path d="M 939.142639 282.718673 
L 732.806688 282.718673 
L 526.470737 282.718673 
" clip-path="url(#pc39bbb8c44)" style="fill: none; stroke: #000000; stroke-width: 2; stroke-linecap: round"/>
   </g>
   <g id="line2d_21">
    <path d="M 526.470737 282.718673 
L 526.470737 169.982052 
L 526.470737 57.245431 
" clip-path="url(#pc39bbb8c44)" style="fill: none; stroke: #000000; stroke-width: 2; stroke-linecap: round"/>
   </g>
   <g id="line2d_22">
    <path d="M 939.142639 282.718673 
L 939.142639 312.781771 
L 909.666074 312.781771 
L 968.619203 312.781771 
M 918.509044 321.800701 
L 959.776234 321.800701 
M 933.247326 330.819631 
L 945.037952 330.819631 
" clip-path="url(#pc39bbb8c44)" style="fill: none; stroke: #000000; stroke-width: 2; stroke-linecap: round"/>
   </g>
   <g id="text_8">
    <!-- R₂ -->
    <g transform="translate(696.207545 28.236626) scale(0.13 -0.13)">
     <use xlink:href="#DejaVuSans-52"/>
     <use xlink:href="#DejaVuSans-2082" transform="translate(69.482422 0)"/>
    </g>
   </g>
   <g id="text_9">
    <!-- L -->
    <g transform="translate(920.108576 173.569239) scale(0.13 -0.13)">
     <use xlink:href="#DejaVuSans-4c"/>
    </g>
   </g>
   <g id="text_10">
    <!-- t &gt; 0  (switch opens) -->
    <g transform="translate(665.651532 17.837812) scale(0.14 -0.14)">
     <defs>
      <path id="DejaVuSans-Bold-3e" d="M 678 3041 
L 678 3822 
L 4684 2375 
L 4684 1638 
L 678 191 
L 678 972 
L 3694 2003 
L 678 3041 
z
" transform="scale(0.015625)"/>
      <path id="DejaVuSans-Bold-70" d="M 1656 506 
L 1656 -1331 
L 538 -1331 
L 538 3500 
L 1656 3500 
L 1656 2988 
Q 1888 3294 2169 3439 
Q 2450 3584 2816 3584 
Q 3463 3584 3878 3070 
Q 4294 2556 4294 1747 
Q 4294 938 3878 423 
Q 3463 -91 2816 -91 
Q 2450 -91 2169 54 
Q 1888 200 1656 506 
z
M 2400 2772 
Q 2041 2772 1848 2508 
Q 1656 2244 1656 1747 
Q 1656 1250 1848 986 
Q 2041 722 2400 722 
Q 2759 722 2948 984 
Q 3138 1247 3138 1747 
Q 3138 2247 2948 2509 
Q 2759 2772 2400 2772 
z
" transform="scale(0.015625)"/>
      <path id="DejaVuSans-Bold-6e" d="M 4056 2131 
L 4056 0 
L 2931 0 
L 2931 347 
L 2931 1631 
Q 2931 2084 2911 2256 
Q 2891 2428 2841 2509 
Q 2775 2619 2662 2680 
Q 2550 2741 2406 2741 
Q 2056 2741 1856 2470 
Q 1656 2200 1656 1722 
L 1656 0 
L 538 0 
L 538 3500 
L 1656 3500 
L 1656 2988 
Q 1909 3294 2193 3439 
Q 2478 3584 2822 3584 
Q 3428 3584 3742 3212 
Q 4056 2841 4056 2131 
z
" transform="scale(0.015625)"/>
     </defs>
     <use xlink:href="#DejaVuSans-Bold-74"/>
     <use xlink:href="#DejaVuSans-Bold-20" transform="translate(47.802734 0)"/>
     <use xlink:href="#DejaVuSans-Bold-3e" transform="translate(82.617188 0)"/>
     <use xlink:href="#DejaVuSans-Bold-20" transform="translate(166.40625 0)"/>
     <use xlink:href="#DejaVuSans-Bold-30" transform="translate(201.220703 0)"/>
     <use xlink:href="#DejaVuSans-Bold-20" transform="translate(270.800781 0)"/>
     <use xlink:href="#DejaVuSans-Bold-20" transform="translate(305.615234 0)"/>
     <use xlink:href="#DejaVuSans-Bold-28" transform="translate(340.429688 0)"/>
     <use xlink:href="#DejaVuSans-Bold-73" transform="translate(386.132812 0)"/>
     <use xlink:href="#DejaVuSans-Bold-77" transform="translate(445.654297 0)"/>
     <use xlink:href="#DejaVuSans-Bold-69" transform="translate(538.037109 0)"/>
     <use xlink:href="#DejaVuSans-Bold-74" transform="translate(572.314453 0)"/>
     <use xlink:href="#DejaVuSans-Bold-63" transform="translate(620.117188 0)"/>
     <use xlink:href="#DejaVuSans-Bold-68" transform="translate(679.394531 0)"/>
     <use xlink:href="#DejaVuSans-Bold-20" transform="translate(750.585938 0)"/>
     <use xlink:href="#DejaVuSans-Bold-6f" transform="translate(785.400391 0)"/>
     <use xlink:href="#DejaVuSans-Bold-70" transform="translate(854.101562 0)"/>
     <use xlink:href="#DejaVuSans-Bold-65" transform="translate(925.683594 0)"/>
     <use xlink:href="#DejaVuSans-Bold-6e" transform="translate(993.505859 0)"/>
     <use xlink:href="#DejaVuSans-Bold-73" transform="translate(1064.697266 0)"/>
     <use xlink:href="#DejaVuSans-Bold-29" transform="translate(1124.21875 0)"/>
    </g>
   </g>
   <g id="line2d_23">
    <path d="M 703.330123 139.918953 
L 703.330123 139.918953 
" clip-path="url(#pc39bbb8c44)" style="fill: none; stroke: #000000; stroke-width: 2; stroke-linecap: round"/>
   </g>
   <g id="patch_16">
    <path d="M 685.644185 139.918953 
L 703.330123 117.371629 
L 721.016062 139.918953 
z
" clip-path="url(#pc39bbb8c44)"/>
   </g>
   <g id="text_11">
    <!-- i(t) -->
    <g transform="translate(650.556371 131.956541) scale(0.12 -0.12)">
     <defs>
      <path id="DejaVuSans-69" d="M 603 3500 
L 1178 3500 
L 1178 0 
L 603 0 
L 603 3500 
z
M 603 4863 
L 1178 4863 
L 1178 4134 
L 603 4134 
L 603 4863 
z
" transform="scale(0.015625)"/>
      <path id="DejaVuSans-28" d="M 1984 4856 
Q 1566 4138 1362 3434 
Q 1159 2731 1159 2009 
Q 1159 1288 1364 580 
Q 1569 -128 1984 -844 
L 1484 -844 
Q 1016 -109 783 600 
Q 550 1309 550 2009 
Q 550 2706 781 3412 
Q 1013 4119 1484 4856 
L 1984 4856 
z
" transform="scale(0.015625)"/>
      <path id="DejaVuSans-74" d="M 1172 4494 
L 1172 3500 
L 2356 3500 
L 2356 3053 
L 1172 3053 
L 1172 1153 
Q 1172 725 1289 603 
Q 1406 481 1766 481 
L 2356 481 
L 2356 0 
L 1766 0 
Q 1100 0 847 248 
Q 594 497 594 1153 
L 594 3053 
L 172 3053 
L 172 3500 
L 594 3500 
L 594 4494 
L 1172 4494 
z
" transform="scale(0.015625)"/>
      <path id="DejaVuSans-29" d="M 513 4856 
L 1013 4856 
Q 1481 4119 1714 3412 
Q 1947 2706 1947 2009 
Q 1947 1309 1714 600 
Q 1481 -109 1013 -844 
L 513 -844 
Q 928 -128 1133 580 
Q 1338 1288 1338 2009 
Q 1338 2731 1133 3434 
Q 928 4138 513 4856 
z
" transform="scale(0.015625)"/>
     </defs>
     <use xlink:href="#DejaVuSans-69"/>
     <use xlink:href="#DejaVuSans-28" transform="translate(27.783203 0)"/>
     <use xlink:href="#DejaVuSans-74" transform="translate(66.796875 0)"/>
     <use xlink:href="#DejaVuSans-29" transform="translate(106.005859 0)"/>
    </g>
   </g>
  </g>
 </g>
 <defs>
  <clipPath id="pcd9712d20a">
   <rect x="7.2" y="23.837812" width="486.363313" height="321.6"/>
  </clipPath>
  <clipPath id="pc39bbb8c44">
   <rect x="504.363313" y="23.837812" width="486.363313" height="321.6"/>
  </clipPath>
 </defs>
</svg>
